G04 #@! TF.FileFunction,Copper,L3,Inr,Signal*
%FSLAX46Y46*%
G04 Gerber Fmt 4.6, Leading zero omitted, Abs format (unit mm)*
G04 Created by KiCad (PCBNEW 4.0.4-stable) date 01/20/17 21:30:08*
%MOMM*%
%LPD*%
G01*
G04 APERTURE LIST*
%ADD10C,0.100000*%
%ADD11O,3.014980X1.506220*%
%ADD12R,1.498600X1.498600*%
%ADD13C,1.498600*%
%ADD14C,1.158000*%
%ADD15R,1.510000X1.510000*%
%ADD16C,1.510000*%
%ADD17O,1.510000X3.010000*%
%ADD18C,0.406400*%
%ADD19C,0.609600*%
%ADD20C,0.254000*%
G04 APERTURE END LIST*
D10*
D11*
X147015200Y-84759800D03*
X147015200Y-87299800D03*
X147015200Y-89839800D03*
X147015200Y-94361000D03*
X147015200Y-96901000D03*
X147015200Y-99441000D03*
X147015200Y-101981000D03*
X147015200Y-104521000D03*
X147015200Y-107061000D03*
D12*
X134620000Y-72390000D03*
D13*
X134620000Y-74930000D03*
X132080000Y-72390000D03*
X132080000Y-74930000D03*
X129540000Y-72390000D03*
X129540000Y-74930000D03*
X127000000Y-72390000D03*
X127000000Y-74930000D03*
X124460000Y-72390000D03*
X124460000Y-74930000D03*
X121920000Y-72390000D03*
X121920000Y-74930000D03*
X119380000Y-72390000D03*
X119380000Y-74930000D03*
D14*
X108422000Y-117729000D03*
X112014000Y-121321000D03*
X112014000Y-117729000D03*
D15*
X123190000Y-130810000D03*
D16*
X123190000Y-128270000D03*
X125730000Y-130810000D03*
X125730000Y-128270000D03*
X128270000Y-130810000D03*
X128270000Y-128270000D03*
X130810000Y-130810000D03*
X130810000Y-128270000D03*
D17*
X114223800Y-129413000D03*
X116763800Y-129413000D03*
D18*
X124714000Y-121031000D03*
X127863600Y-78079600D03*
X126365000Y-79502000D03*
X125145800Y-80721200D03*
X123444000Y-82423000D03*
X122478800Y-80619600D03*
X123494800Y-77495400D03*
X134848600Y-101447600D03*
X133197600Y-101447600D03*
X131419600Y-101447600D03*
X101396800Y-100025200D03*
X110185200Y-92456000D03*
X120497600Y-102641400D03*
X118160800Y-102666800D03*
X140893800Y-116992400D03*
X133527800Y-113436400D03*
X148285200Y-112903000D03*
X103327200Y-99085400D03*
X103428800Y-100558600D03*
X98958400Y-97561400D03*
X106248200Y-92456000D03*
X143891000Y-91008200D03*
X137134600Y-90881200D03*
X130479800Y-78587600D03*
X130429000Y-81026000D03*
X142417800Y-86487000D03*
X127076200Y-89433400D03*
X113741200Y-98196400D03*
X109448600Y-98247200D03*
X143459200Y-94056200D03*
X142036800Y-95453200D03*
X140690600Y-96697800D03*
X140919200Y-89281000D03*
X114604800Y-92430600D03*
X114935000Y-101396800D03*
X112522000Y-101396800D03*
X120319800Y-89230200D03*
X136677400Y-95605600D03*
X140131800Y-80162400D03*
X125012850Y-92883350D03*
X123725350Y-92883350D03*
X122437850Y-92883350D03*
X121150350Y-92883350D03*
X121150350Y-94170850D03*
X122437850Y-94170850D03*
X125012850Y-94170850D03*
X123725350Y-94170850D03*
X123725350Y-95458350D03*
X122437850Y-95458350D03*
X121150350Y-95458350D03*
X121150350Y-96745850D03*
X122437850Y-96745850D03*
X123725350Y-96745850D03*
X125012850Y-96745850D03*
X125012850Y-95458350D03*
X136983835Y-86541465D03*
X131802235Y-86846265D03*
X131394200Y-95554800D03*
X127711200Y-95681800D03*
X116763800Y-94945200D03*
X125415000Y-104709000D03*
X111302800Y-91922600D03*
X149352000Y-85953600D03*
X128524000Y-116535200D03*
X133629400Y-116306600D03*
X143459200Y-116230400D03*
X148640800Y-115341400D03*
X149352000Y-83362800D03*
X118160800Y-98552000D03*
X119329200Y-89230200D03*
X130760835Y-89128600D03*
X136956800Y-89712800D03*
X126288800Y-82981800D03*
X132080000Y-82905600D03*
X128529200Y-94564600D03*
X128458800Y-96564600D03*
D19*
X142570200Y-82905600D03*
D18*
X141960600Y-85750400D03*
X142417800Y-87553800D03*
X126290435Y-84306265D03*
X136958435Y-87506665D03*
X130760835Y-87989265D03*
X124333000Y-90424000D03*
X121818400Y-90424000D03*
X118668800Y-95554800D03*
X125755400Y-90474800D03*
X107518200Y-102514400D03*
X101371400Y-96570800D03*
X118287800Y-96088200D03*
X102311200Y-99568000D03*
X118694200Y-96570800D03*
X140462000Y-89890600D03*
X128905000Y-92049600D03*
X129489200Y-85521800D03*
X132486400Y-92557600D03*
X132564235Y-86846265D03*
X138404600Y-95580200D03*
X139928600Y-89255600D03*
X138479800Y-93064600D03*
X138912600Y-89281000D03*
X126644400Y-90627200D03*
X125120400Y-90297000D03*
X117983000Y-107594400D03*
X117983000Y-111760000D03*
X120650000Y-111760000D03*
X120650000Y-107594400D03*
X123444000Y-107619800D03*
X127787400Y-102768400D03*
X144678400Y-115366800D03*
X130098800Y-108661200D03*
X127127000Y-103276400D03*
X125653800Y-101803200D03*
X124079000Y-99339400D03*
X130098800Y-116128800D03*
X112039400Y-109118400D03*
X116713000Y-101219000D03*
D20*
G36*
X151436000Y-80645000D02*
X151442322Y-80676782D01*
X151442322Y-80709185D01*
X151925687Y-83139224D01*
X151974812Y-83257823D01*
X153351319Y-85317911D01*
X153442089Y-85408681D01*
X155502177Y-86785189D01*
X155574615Y-86815193D01*
X155620775Y-86834313D01*
X158050815Y-87317678D01*
X158083218Y-87317678D01*
X158115000Y-87324000D01*
X160707000Y-87324000D01*
X160707000Y-115876000D01*
X158115000Y-115876000D01*
X158083218Y-115882322D01*
X158050815Y-115882322D01*
X155620775Y-116365687D01*
X155586039Y-116380075D01*
X155502177Y-116414811D01*
X153442091Y-117791317D01*
X153351319Y-117882089D01*
X151974812Y-119942177D01*
X151974812Y-119942178D01*
X151925687Y-120060776D01*
X151442322Y-122490815D01*
X151442322Y-122523218D01*
X151436000Y-122555000D01*
X151436000Y-134291000D01*
X102564000Y-134291000D01*
X102564000Y-131187265D01*
X104139670Y-131187265D01*
X104429078Y-131887686D01*
X104964495Y-132424039D01*
X105664410Y-132714668D01*
X106422265Y-132715330D01*
X107122686Y-132425922D01*
X107659039Y-131890505D01*
X107949668Y-131190590D01*
X107950330Y-130432735D01*
X107660922Y-129732314D01*
X107125505Y-129195961D01*
X106425590Y-128905332D01*
X105667735Y-128904670D01*
X104967314Y-129194078D01*
X104430961Y-129729495D01*
X104140332Y-130429410D01*
X104139670Y-131187265D01*
X102564000Y-131187265D01*
X102564000Y-128628042D01*
X113189400Y-128628042D01*
X113189400Y-130197958D01*
X113268139Y-130593806D01*
X113492369Y-130929389D01*
X113827952Y-131153619D01*
X114223800Y-131232358D01*
X114619648Y-131153619D01*
X114955231Y-130929389D01*
X115179461Y-130593806D01*
X115258200Y-130197958D01*
X115258200Y-128628042D01*
X115729400Y-128628042D01*
X115729400Y-130197958D01*
X115808139Y-130593806D01*
X116032369Y-130929389D01*
X116367952Y-131153619D01*
X116763800Y-131232358D01*
X117159648Y-131153619D01*
X117495231Y-130929389D01*
X117719461Y-130593806D01*
X117798200Y-130197958D01*
X117798200Y-130055000D01*
X122150127Y-130055000D01*
X122150127Y-131565000D01*
X122169609Y-131668539D01*
X122230801Y-131763634D01*
X122324168Y-131827429D01*
X122435000Y-131849873D01*
X123945000Y-131849873D01*
X124048539Y-131830391D01*
X124143634Y-131769199D01*
X124207429Y-131675832D01*
X124229873Y-131565000D01*
X124229873Y-131014852D01*
X124695421Y-131014852D01*
X124852567Y-131395175D01*
X125143294Y-131686410D01*
X125523342Y-131844220D01*
X125934852Y-131844579D01*
X126315175Y-131687433D01*
X126606410Y-131396706D01*
X126764220Y-131016658D01*
X126764221Y-131014852D01*
X127235421Y-131014852D01*
X127392567Y-131395175D01*
X127683294Y-131686410D01*
X128063342Y-131844220D01*
X128474852Y-131844579D01*
X128855175Y-131687433D01*
X129146410Y-131396706D01*
X129304220Y-131016658D01*
X129304221Y-131014852D01*
X129775421Y-131014852D01*
X129932567Y-131395175D01*
X130223294Y-131686410D01*
X130603342Y-131844220D01*
X131014852Y-131844579D01*
X131395175Y-131687433D01*
X131686410Y-131396706D01*
X131773377Y-131187265D01*
X146049670Y-131187265D01*
X146339078Y-131887686D01*
X146874495Y-132424039D01*
X147574410Y-132714668D01*
X148332265Y-132715330D01*
X149032686Y-132425922D01*
X149569039Y-131890505D01*
X149859668Y-131190590D01*
X149860330Y-130432735D01*
X149570922Y-129732314D01*
X149035505Y-129195961D01*
X148335590Y-128905332D01*
X147577735Y-128904670D01*
X146877314Y-129194078D01*
X146340961Y-129729495D01*
X146050332Y-130429410D01*
X146049670Y-131187265D01*
X131773377Y-131187265D01*
X131844220Y-131016658D01*
X131844579Y-130605148D01*
X131687433Y-130224825D01*
X131396706Y-129933590D01*
X131016658Y-129775780D01*
X130605148Y-129775421D01*
X130224825Y-129932567D01*
X129933590Y-130223294D01*
X129775780Y-130603342D01*
X129775421Y-131014852D01*
X129304221Y-131014852D01*
X129304579Y-130605148D01*
X129147433Y-130224825D01*
X128856706Y-129933590D01*
X128476658Y-129775780D01*
X128065148Y-129775421D01*
X127684825Y-129932567D01*
X127393590Y-130223294D01*
X127235780Y-130603342D01*
X127235421Y-131014852D01*
X126764221Y-131014852D01*
X126764579Y-130605148D01*
X126607433Y-130224825D01*
X126316706Y-129933590D01*
X125936658Y-129775780D01*
X125525148Y-129775421D01*
X125144825Y-129932567D01*
X124853590Y-130223294D01*
X124695780Y-130603342D01*
X124695421Y-131014852D01*
X124229873Y-131014852D01*
X124229873Y-130055000D01*
X124210391Y-129951461D01*
X124149199Y-129856366D01*
X124055832Y-129792571D01*
X123945000Y-129770127D01*
X122435000Y-129770127D01*
X122331461Y-129789609D01*
X122236366Y-129850801D01*
X122172571Y-129944168D01*
X122150127Y-130055000D01*
X117798200Y-130055000D01*
X117798200Y-128628042D01*
X117767729Y-128474852D01*
X122155421Y-128474852D01*
X122312567Y-128855175D01*
X122603294Y-129146410D01*
X122983342Y-129304220D01*
X123394852Y-129304579D01*
X123775175Y-129147433D01*
X124066410Y-128856706D01*
X124224220Y-128476658D01*
X124224221Y-128474852D01*
X124695421Y-128474852D01*
X124852567Y-128855175D01*
X125143294Y-129146410D01*
X125523342Y-129304220D01*
X125934852Y-129304579D01*
X126315175Y-129147433D01*
X126606410Y-128856706D01*
X126764220Y-128476658D01*
X126764221Y-128474852D01*
X127235421Y-128474852D01*
X127392567Y-128855175D01*
X127683294Y-129146410D01*
X128063342Y-129304220D01*
X128474852Y-129304579D01*
X128855175Y-129147433D01*
X129146410Y-128856706D01*
X129304220Y-128476658D01*
X129304221Y-128474852D01*
X129775421Y-128474852D01*
X129932567Y-128855175D01*
X130223294Y-129146410D01*
X130603342Y-129304220D01*
X131014852Y-129304579D01*
X131395175Y-129147433D01*
X131686410Y-128856706D01*
X131844220Y-128476658D01*
X131844579Y-128065148D01*
X131687433Y-127684825D01*
X131396706Y-127393590D01*
X131016658Y-127235780D01*
X130605148Y-127235421D01*
X130224825Y-127392567D01*
X129933590Y-127683294D01*
X129775780Y-128063342D01*
X129775421Y-128474852D01*
X129304221Y-128474852D01*
X129304579Y-128065148D01*
X129147433Y-127684825D01*
X128856706Y-127393590D01*
X128476658Y-127235780D01*
X128065148Y-127235421D01*
X127684825Y-127392567D01*
X127393590Y-127683294D01*
X127235780Y-128063342D01*
X127235421Y-128474852D01*
X126764221Y-128474852D01*
X126764579Y-128065148D01*
X126607433Y-127684825D01*
X126316706Y-127393590D01*
X125936658Y-127235780D01*
X125525148Y-127235421D01*
X125144825Y-127392567D01*
X124853590Y-127683294D01*
X124695780Y-128063342D01*
X124695421Y-128474852D01*
X124224221Y-128474852D01*
X124224579Y-128065148D01*
X124067433Y-127684825D01*
X123776706Y-127393590D01*
X123396658Y-127235780D01*
X122985148Y-127235421D01*
X122604825Y-127392567D01*
X122313590Y-127683294D01*
X122155780Y-128063342D01*
X122155421Y-128474852D01*
X117767729Y-128474852D01*
X117719461Y-128232194D01*
X117495231Y-127896611D01*
X117159648Y-127672381D01*
X116763800Y-127593642D01*
X116367952Y-127672381D01*
X116032369Y-127896611D01*
X115808139Y-128232194D01*
X115729400Y-128628042D01*
X115258200Y-128628042D01*
X115179461Y-128232194D01*
X114955231Y-127896611D01*
X114619648Y-127672381D01*
X114223800Y-127593642D01*
X113827952Y-127672381D01*
X113492369Y-127896611D01*
X113268139Y-128232194D01*
X113189400Y-128628042D01*
X102564000Y-128628042D01*
X102564000Y-122555000D01*
X102557678Y-122523218D01*
X102557678Y-122490815D01*
X102493565Y-122168492D01*
X111346114Y-122168492D01*
X111393034Y-122391752D01*
X111850062Y-122547879D01*
X112332047Y-122517225D01*
X112634966Y-122391752D01*
X112681886Y-122168492D01*
X112014000Y-121500605D01*
X111346114Y-122168492D01*
X102493565Y-122168492D01*
X102292379Y-121157062D01*
X110787121Y-121157062D01*
X110817775Y-121639047D01*
X110943248Y-121941966D01*
X111166508Y-121988886D01*
X111834395Y-121321000D01*
X112193605Y-121321000D01*
X112861492Y-121988886D01*
X113084752Y-121941966D01*
X113240879Y-121484938D01*
X113218088Y-121126574D01*
X124231316Y-121126574D01*
X124304633Y-121304014D01*
X124440272Y-121439890D01*
X124617584Y-121513516D01*
X124809574Y-121513684D01*
X124987014Y-121440367D01*
X125122890Y-121304728D01*
X125196516Y-121127416D01*
X125196684Y-120935426D01*
X125123367Y-120757986D01*
X124987728Y-120622110D01*
X124810416Y-120548484D01*
X124618426Y-120548316D01*
X124440986Y-120621633D01*
X124305110Y-120757272D01*
X124231484Y-120934584D01*
X124231316Y-121126574D01*
X113218088Y-121126574D01*
X113210225Y-121002953D01*
X113084752Y-120700034D01*
X112861492Y-120653114D01*
X112193605Y-121321000D01*
X111834395Y-121321000D01*
X111166508Y-120653114D01*
X110943248Y-120700034D01*
X110787121Y-121157062D01*
X102292379Y-121157062D01*
X102156412Y-120473508D01*
X111346114Y-120473508D01*
X112014000Y-121141395D01*
X112681886Y-120473508D01*
X112634966Y-120250248D01*
X112177938Y-120094121D01*
X111695953Y-120124775D01*
X111393034Y-120250248D01*
X111346114Y-120473508D01*
X102156412Y-120473508D01*
X102074313Y-120060775D01*
X102059925Y-120026039D01*
X102025189Y-119942177D01*
X100659979Y-117898997D01*
X107563451Y-117898997D01*
X107693860Y-118214609D01*
X107935121Y-118456292D01*
X108250505Y-118587251D01*
X108591997Y-118587549D01*
X108907609Y-118457140D01*
X109149292Y-118215879D01*
X109280251Y-117900495D01*
X109280252Y-117898997D01*
X111155451Y-117898997D01*
X111285860Y-118214609D01*
X111527121Y-118456292D01*
X111842505Y-118587251D01*
X112183997Y-118587549D01*
X112499609Y-118457140D01*
X112741292Y-118215879D01*
X112872251Y-117900495D01*
X112872549Y-117559003D01*
X112742140Y-117243391D01*
X112586995Y-117087974D01*
X140411116Y-117087974D01*
X140484433Y-117265414D01*
X140620072Y-117401290D01*
X140797384Y-117474916D01*
X140989374Y-117475084D01*
X141166814Y-117401767D01*
X141302690Y-117266128D01*
X141376316Y-117088816D01*
X141376484Y-116896826D01*
X141303167Y-116719386D01*
X141167528Y-116583510D01*
X140990216Y-116509884D01*
X140798226Y-116509716D01*
X140620786Y-116583033D01*
X140484910Y-116718672D01*
X140411284Y-116895984D01*
X140411116Y-117087974D01*
X112586995Y-117087974D01*
X112500879Y-117001708D01*
X112185495Y-116870749D01*
X111844003Y-116870451D01*
X111528391Y-117000860D01*
X111286708Y-117242121D01*
X111155749Y-117557505D01*
X111155451Y-117898997D01*
X109280252Y-117898997D01*
X109280549Y-117559003D01*
X109150140Y-117243391D01*
X108908879Y-117001708D01*
X108593495Y-116870749D01*
X108252003Y-116870451D01*
X107936391Y-117000860D01*
X107694708Y-117242121D01*
X107563749Y-117557505D01*
X107563451Y-117898997D01*
X100659979Y-117898997D01*
X100648681Y-117882089D01*
X100557911Y-117791319D01*
X98497823Y-116414812D01*
X98379224Y-116365687D01*
X97668796Y-116224374D01*
X129616116Y-116224374D01*
X129689433Y-116401814D01*
X129825072Y-116537690D01*
X130002384Y-116611316D01*
X130194374Y-116611484D01*
X130371814Y-116538167D01*
X130507690Y-116402528D01*
X130581316Y-116225216D01*
X130581484Y-116033226D01*
X130508167Y-115855786D01*
X130372528Y-115719910D01*
X130195216Y-115646284D01*
X130003226Y-115646116D01*
X129825786Y-115719433D01*
X129689910Y-115855072D01*
X129616284Y-116032384D01*
X129616116Y-116224374D01*
X97668796Y-116224374D01*
X95949185Y-115882322D01*
X95916782Y-115882322D01*
X95885000Y-115876000D01*
X93293000Y-115876000D01*
X93293000Y-115462374D01*
X144195716Y-115462374D01*
X144269033Y-115639814D01*
X144404672Y-115775690D01*
X144581984Y-115849316D01*
X144773974Y-115849484D01*
X144951414Y-115776167D01*
X145087290Y-115640528D01*
X145160916Y-115463216D01*
X145161084Y-115271226D01*
X145087767Y-115093786D01*
X144952128Y-114957910D01*
X144774816Y-114884284D01*
X144582826Y-114884116D01*
X144405386Y-114957433D01*
X144269510Y-115093072D01*
X144195884Y-115270384D01*
X144195716Y-115462374D01*
X93293000Y-115462374D01*
X93293000Y-113531974D01*
X133045116Y-113531974D01*
X133118433Y-113709414D01*
X133254072Y-113845290D01*
X133431384Y-113918916D01*
X133623374Y-113919084D01*
X133800814Y-113845767D01*
X133936690Y-113710128D01*
X134010316Y-113532816D01*
X134010484Y-113340826D01*
X133937167Y-113163386D01*
X133801528Y-113027510D01*
X133731843Y-112998574D01*
X147802516Y-112998574D01*
X147875833Y-113176014D01*
X148011472Y-113311890D01*
X148188784Y-113385516D01*
X148380774Y-113385684D01*
X148558214Y-113312367D01*
X148694090Y-113176728D01*
X148767716Y-112999416D01*
X148767884Y-112807426D01*
X148694567Y-112629986D01*
X148558928Y-112494110D01*
X148381616Y-112420484D01*
X148189626Y-112420316D01*
X148012186Y-112493633D01*
X147876310Y-112629272D01*
X147802684Y-112806584D01*
X147802516Y-112998574D01*
X133731843Y-112998574D01*
X133624216Y-112953884D01*
X133432226Y-112953716D01*
X133254786Y-113027033D01*
X133118910Y-113162672D01*
X133045284Y-113339984D01*
X133045116Y-113531974D01*
X93293000Y-113531974D01*
X93293000Y-111855574D01*
X117500316Y-111855574D01*
X117573633Y-112033014D01*
X117709272Y-112168890D01*
X117886584Y-112242516D01*
X118078574Y-112242684D01*
X118256014Y-112169367D01*
X118391890Y-112033728D01*
X118465516Y-111856416D01*
X118465516Y-111855574D01*
X120167316Y-111855574D01*
X120240633Y-112033014D01*
X120376272Y-112168890D01*
X120553584Y-112242516D01*
X120745574Y-112242684D01*
X120923014Y-112169367D01*
X121058890Y-112033728D01*
X121132516Y-111856416D01*
X121132684Y-111664426D01*
X121059367Y-111486986D01*
X120923728Y-111351110D01*
X120746416Y-111277484D01*
X120554426Y-111277316D01*
X120376986Y-111350633D01*
X120241110Y-111486272D01*
X120167484Y-111663584D01*
X120167316Y-111855574D01*
X118465516Y-111855574D01*
X118465684Y-111664426D01*
X118392367Y-111486986D01*
X118256728Y-111351110D01*
X118079416Y-111277484D01*
X117887426Y-111277316D01*
X117709986Y-111350633D01*
X117574110Y-111486272D01*
X117500484Y-111663584D01*
X117500316Y-111855574D01*
X93293000Y-111855574D01*
X93293000Y-109213974D01*
X111556716Y-109213974D01*
X111630033Y-109391414D01*
X111765672Y-109527290D01*
X111942984Y-109600916D01*
X112134974Y-109601084D01*
X112312414Y-109527767D01*
X112448290Y-109392128D01*
X112521916Y-109214816D01*
X112522084Y-109022826D01*
X112448767Y-108845386D01*
X112360310Y-108756774D01*
X129616116Y-108756774D01*
X129689433Y-108934214D01*
X129825072Y-109070090D01*
X130002384Y-109143716D01*
X130194374Y-109143884D01*
X130371814Y-109070567D01*
X130507690Y-108934928D01*
X130581316Y-108757616D01*
X130581484Y-108565626D01*
X130508167Y-108388186D01*
X130372528Y-108252310D01*
X130195216Y-108178684D01*
X130003226Y-108178516D01*
X129825786Y-108251833D01*
X129689910Y-108387472D01*
X129616284Y-108564784D01*
X129616116Y-108756774D01*
X112360310Y-108756774D01*
X112313128Y-108709510D01*
X112135816Y-108635884D01*
X111943826Y-108635716D01*
X111766386Y-108709033D01*
X111630510Y-108844672D01*
X111556884Y-109021984D01*
X111556716Y-109213974D01*
X93293000Y-109213974D01*
X93293000Y-107689974D01*
X117500316Y-107689974D01*
X117573633Y-107867414D01*
X117709272Y-108003290D01*
X117886584Y-108076916D01*
X118078574Y-108077084D01*
X118256014Y-108003767D01*
X118391890Y-107868128D01*
X118465516Y-107690816D01*
X118465516Y-107689974D01*
X120167316Y-107689974D01*
X120240633Y-107867414D01*
X120376272Y-108003290D01*
X120553584Y-108076916D01*
X120745574Y-108077084D01*
X120923014Y-108003767D01*
X121058890Y-107868128D01*
X121122318Y-107715374D01*
X122961316Y-107715374D01*
X123034633Y-107892814D01*
X123170272Y-108028690D01*
X123347584Y-108102316D01*
X123539574Y-108102484D01*
X123717014Y-108029167D01*
X123852890Y-107893528D01*
X123926516Y-107716216D01*
X123926684Y-107524226D01*
X123853367Y-107346786D01*
X123717728Y-107210910D01*
X123540416Y-107137284D01*
X123348426Y-107137116D01*
X123170986Y-107210433D01*
X123035110Y-107346072D01*
X122961484Y-107523384D01*
X122961316Y-107715374D01*
X121122318Y-107715374D01*
X121132516Y-107690816D01*
X121132684Y-107498826D01*
X121059367Y-107321386D01*
X120923728Y-107185510D01*
X120746416Y-107111884D01*
X120554426Y-107111716D01*
X120376986Y-107185033D01*
X120241110Y-107320672D01*
X120167484Y-107497984D01*
X120167316Y-107689974D01*
X118465516Y-107689974D01*
X118465684Y-107498826D01*
X118392367Y-107321386D01*
X118256728Y-107185510D01*
X118079416Y-107111884D01*
X117887426Y-107111716D01*
X117709986Y-107185033D01*
X117574110Y-107320672D01*
X117500484Y-107497984D01*
X117500316Y-107689974D01*
X93293000Y-107689974D01*
X93293000Y-107061000D01*
X145193303Y-107061000D01*
X145271898Y-107456124D01*
X145495718Y-107791095D01*
X145830689Y-108014915D01*
X146225813Y-108093510D01*
X147804587Y-108093510D01*
X148199711Y-108014915D01*
X148534682Y-107791095D01*
X148758502Y-107456124D01*
X148837097Y-107061000D01*
X148758502Y-106665876D01*
X148534682Y-106330905D01*
X148199711Y-106107085D01*
X147804587Y-106028490D01*
X146225813Y-106028490D01*
X145830689Y-106107085D01*
X145495718Y-106330905D01*
X145271898Y-106665876D01*
X145193303Y-107061000D01*
X93293000Y-107061000D01*
X93293000Y-104521000D01*
X145193303Y-104521000D01*
X145271898Y-104916124D01*
X145495718Y-105251095D01*
X145830689Y-105474915D01*
X146225813Y-105553510D01*
X147804587Y-105553510D01*
X148199711Y-105474915D01*
X148534682Y-105251095D01*
X148758502Y-104916124D01*
X148837097Y-104521000D01*
X148758502Y-104125876D01*
X148534682Y-103790905D01*
X148199711Y-103567085D01*
X147804587Y-103488490D01*
X146225813Y-103488490D01*
X145830689Y-103567085D01*
X145495718Y-103790905D01*
X145271898Y-104125876D01*
X145193303Y-104521000D01*
X93293000Y-104521000D01*
X93293000Y-103371974D01*
X126644316Y-103371974D01*
X126717633Y-103549414D01*
X126853272Y-103685290D01*
X127030584Y-103758916D01*
X127222574Y-103759084D01*
X127400014Y-103685767D01*
X127535890Y-103550128D01*
X127609516Y-103372816D01*
X127609652Y-103217144D01*
X127690984Y-103250916D01*
X127882974Y-103251084D01*
X128060414Y-103177767D01*
X128196290Y-103042128D01*
X128269916Y-102864816D01*
X128270084Y-102672826D01*
X128196767Y-102495386D01*
X128061128Y-102359510D01*
X127883816Y-102285884D01*
X127691826Y-102285716D01*
X127514386Y-102359033D01*
X127378510Y-102494672D01*
X127304884Y-102671984D01*
X127304748Y-102827656D01*
X127223416Y-102793884D01*
X127031426Y-102793716D01*
X126853986Y-102867033D01*
X126718110Y-103002672D01*
X126644484Y-103179984D01*
X126644316Y-103371974D01*
X93293000Y-103371974D01*
X93293000Y-102609974D01*
X107035516Y-102609974D01*
X107108833Y-102787414D01*
X107244472Y-102923290D01*
X107421784Y-102996916D01*
X107613774Y-102997084D01*
X107791214Y-102923767D01*
X107927090Y-102788128D01*
X107937783Y-102762374D01*
X117678116Y-102762374D01*
X117751433Y-102939814D01*
X117887072Y-103075690D01*
X118064384Y-103149316D01*
X118256374Y-103149484D01*
X118433814Y-103076167D01*
X118569690Y-102940528D01*
X118643316Y-102763216D01*
X118643338Y-102736974D01*
X120014916Y-102736974D01*
X120088233Y-102914414D01*
X120223872Y-103050290D01*
X120401184Y-103123916D01*
X120593174Y-103124084D01*
X120770614Y-103050767D01*
X120906490Y-102915128D01*
X120980116Y-102737816D01*
X120980284Y-102545826D01*
X120906967Y-102368386D01*
X120771328Y-102232510D01*
X120594016Y-102158884D01*
X120402026Y-102158716D01*
X120224586Y-102232033D01*
X120088710Y-102367672D01*
X120015084Y-102544984D01*
X120014916Y-102736974D01*
X118643338Y-102736974D01*
X118643484Y-102571226D01*
X118570167Y-102393786D01*
X118434528Y-102257910D01*
X118257216Y-102184284D01*
X118065226Y-102184116D01*
X117887786Y-102257433D01*
X117751910Y-102393072D01*
X117678284Y-102570384D01*
X117678116Y-102762374D01*
X107937783Y-102762374D01*
X108000716Y-102610816D01*
X108000884Y-102418826D01*
X107927567Y-102241386D01*
X107791928Y-102105510D01*
X107614616Y-102031884D01*
X107422626Y-102031716D01*
X107245186Y-102105033D01*
X107109310Y-102240672D01*
X107035684Y-102417984D01*
X107035516Y-102609974D01*
X93293000Y-102609974D01*
X93293000Y-101898774D01*
X125171116Y-101898774D01*
X125244433Y-102076214D01*
X125380072Y-102212090D01*
X125557384Y-102285716D01*
X125749374Y-102285884D01*
X125926814Y-102212567D01*
X126062690Y-102076928D01*
X126102522Y-101981000D01*
X145193303Y-101981000D01*
X145271898Y-102376124D01*
X145495718Y-102711095D01*
X145830689Y-102934915D01*
X146225813Y-103013510D01*
X147804587Y-103013510D01*
X148199711Y-102934915D01*
X148534682Y-102711095D01*
X148758502Y-102376124D01*
X148837097Y-101981000D01*
X148758502Y-101585876D01*
X148534682Y-101250905D01*
X148199711Y-101027085D01*
X147804587Y-100948490D01*
X146225813Y-100948490D01*
X145830689Y-101027085D01*
X145495718Y-101250905D01*
X145271898Y-101585876D01*
X145193303Y-101981000D01*
X126102522Y-101981000D01*
X126136316Y-101899616D01*
X126136484Y-101707626D01*
X126068534Y-101543174D01*
X130936916Y-101543174D01*
X131010233Y-101720614D01*
X131145872Y-101856490D01*
X131323184Y-101930116D01*
X131515174Y-101930284D01*
X131692614Y-101856967D01*
X131828490Y-101721328D01*
X131902116Y-101544016D01*
X131902116Y-101543174D01*
X132714916Y-101543174D01*
X132788233Y-101720614D01*
X132923872Y-101856490D01*
X133101184Y-101930116D01*
X133293174Y-101930284D01*
X133470614Y-101856967D01*
X133606490Y-101721328D01*
X133680116Y-101544016D01*
X133680116Y-101543174D01*
X134365916Y-101543174D01*
X134439233Y-101720614D01*
X134574872Y-101856490D01*
X134752184Y-101930116D01*
X134944174Y-101930284D01*
X135121614Y-101856967D01*
X135257490Y-101721328D01*
X135331116Y-101544016D01*
X135331284Y-101352026D01*
X135257967Y-101174586D01*
X135122328Y-101038710D01*
X134945016Y-100965084D01*
X134753026Y-100964916D01*
X134575586Y-101038233D01*
X134439710Y-101173872D01*
X134366084Y-101351184D01*
X134365916Y-101543174D01*
X133680116Y-101543174D01*
X133680284Y-101352026D01*
X133606967Y-101174586D01*
X133471328Y-101038710D01*
X133294016Y-100965084D01*
X133102026Y-100964916D01*
X132924586Y-101038233D01*
X132788710Y-101173872D01*
X132715084Y-101351184D01*
X132714916Y-101543174D01*
X131902116Y-101543174D01*
X131902284Y-101352026D01*
X131828967Y-101174586D01*
X131693328Y-101038710D01*
X131516016Y-100965084D01*
X131324026Y-100964916D01*
X131146586Y-101038233D01*
X131010710Y-101173872D01*
X130937084Y-101351184D01*
X130936916Y-101543174D01*
X126068534Y-101543174D01*
X126063167Y-101530186D01*
X125927528Y-101394310D01*
X125750216Y-101320684D01*
X125558226Y-101320516D01*
X125380786Y-101393833D01*
X125244910Y-101529472D01*
X125171284Y-101706784D01*
X125171116Y-101898774D01*
X93293000Y-101898774D01*
X93293000Y-101492374D01*
X112039316Y-101492374D01*
X112112633Y-101669814D01*
X112248272Y-101805690D01*
X112425584Y-101879316D01*
X112617574Y-101879484D01*
X112795014Y-101806167D01*
X112930890Y-101670528D01*
X113004516Y-101493216D01*
X113004516Y-101492374D01*
X114452316Y-101492374D01*
X114525633Y-101669814D01*
X114661272Y-101805690D01*
X114838584Y-101879316D01*
X115030574Y-101879484D01*
X115208014Y-101806167D01*
X115343890Y-101670528D01*
X115417516Y-101493216D01*
X115417672Y-101314574D01*
X116230316Y-101314574D01*
X116303633Y-101492014D01*
X116439272Y-101627890D01*
X116616584Y-101701516D01*
X116808574Y-101701684D01*
X116986014Y-101628367D01*
X117121890Y-101492728D01*
X117195516Y-101315416D01*
X117195684Y-101123426D01*
X117122367Y-100945986D01*
X116986728Y-100810110D01*
X116809416Y-100736484D01*
X116617426Y-100736316D01*
X116439986Y-100809633D01*
X116304110Y-100945272D01*
X116230484Y-101122584D01*
X116230316Y-101314574D01*
X115417672Y-101314574D01*
X115417684Y-101301226D01*
X115344367Y-101123786D01*
X115208728Y-100987910D01*
X115031416Y-100914284D01*
X114839426Y-100914116D01*
X114661986Y-100987433D01*
X114526110Y-101123072D01*
X114452484Y-101300384D01*
X114452316Y-101492374D01*
X113004516Y-101492374D01*
X113004684Y-101301226D01*
X112931367Y-101123786D01*
X112795728Y-100987910D01*
X112618416Y-100914284D01*
X112426426Y-100914116D01*
X112248986Y-100987433D01*
X112113110Y-101123072D01*
X112039484Y-101300384D01*
X112039316Y-101492374D01*
X93293000Y-101492374D01*
X93293000Y-100654174D01*
X102946116Y-100654174D01*
X103019433Y-100831614D01*
X103155072Y-100967490D01*
X103332384Y-101041116D01*
X103524374Y-101041284D01*
X103701814Y-100967967D01*
X103837690Y-100832328D01*
X103911316Y-100655016D01*
X103911484Y-100463026D01*
X103838167Y-100285586D01*
X103702528Y-100149710D01*
X103525216Y-100076084D01*
X103333226Y-100075916D01*
X103155786Y-100149233D01*
X103019910Y-100284872D01*
X102946284Y-100462184D01*
X102946116Y-100654174D01*
X93293000Y-100654174D01*
X93293000Y-100120774D01*
X100914116Y-100120774D01*
X100987433Y-100298214D01*
X101123072Y-100434090D01*
X101300384Y-100507716D01*
X101492374Y-100507884D01*
X101669814Y-100434567D01*
X101805690Y-100298928D01*
X101879316Y-100121616D01*
X101879484Y-99929626D01*
X101806167Y-99752186D01*
X101717710Y-99663574D01*
X101828516Y-99663574D01*
X101901833Y-99841014D01*
X102037472Y-99976890D01*
X102214784Y-100050516D01*
X102406774Y-100050684D01*
X102584214Y-99977367D01*
X102720090Y-99841728D01*
X102793716Y-99664416D01*
X102793884Y-99472426D01*
X102720567Y-99294986D01*
X102584928Y-99159110D01*
X102407616Y-99085484D01*
X102215626Y-99085316D01*
X102038186Y-99158633D01*
X101902310Y-99294272D01*
X101828684Y-99471584D01*
X101828516Y-99663574D01*
X101717710Y-99663574D01*
X101670528Y-99616310D01*
X101493216Y-99542684D01*
X101301226Y-99542516D01*
X101123786Y-99615833D01*
X100987910Y-99751472D01*
X100914284Y-99928784D01*
X100914116Y-100120774D01*
X93293000Y-100120774D01*
X93293000Y-97656974D01*
X98475716Y-97656974D01*
X98549033Y-97834414D01*
X98684672Y-97970290D01*
X98861984Y-98043916D01*
X99053974Y-98044084D01*
X99142714Y-98007417D01*
X99142296Y-98486894D01*
X99365140Y-99026218D01*
X99777412Y-99439210D01*
X100316345Y-99662995D01*
X100899894Y-99663504D01*
X101439218Y-99440660D01*
X101852210Y-99028388D01*
X102075995Y-98489455D01*
X102076114Y-98352336D01*
X102361864Y-98352336D01*
X102481486Y-98641844D01*
X102702791Y-98863536D01*
X102868246Y-98932239D01*
X102844684Y-98988984D01*
X102844516Y-99180974D01*
X102917833Y-99358414D01*
X103053472Y-99494290D01*
X103230784Y-99567916D01*
X103422774Y-99568084D01*
X103600214Y-99494767D01*
X103736090Y-99359128D01*
X103809716Y-99181816D01*
X103809884Y-98989826D01*
X103736567Y-98812386D01*
X103691793Y-98767534D01*
X103816536Y-98643009D01*
X103881360Y-98486894D01*
X104222296Y-98486894D01*
X104445140Y-99026218D01*
X104857412Y-99439210D01*
X105396345Y-99662995D01*
X105979894Y-99663504D01*
X106519218Y-99440660D01*
X106524913Y-99434974D01*
X123596316Y-99434974D01*
X123669633Y-99612414D01*
X123805272Y-99748290D01*
X123982584Y-99821916D01*
X124174574Y-99822084D01*
X124352014Y-99748767D01*
X124487890Y-99613128D01*
X124559363Y-99441000D01*
X145193303Y-99441000D01*
X145271898Y-99836124D01*
X145495718Y-100171095D01*
X145830689Y-100394915D01*
X146225813Y-100473510D01*
X147804587Y-100473510D01*
X148199711Y-100394915D01*
X148534682Y-100171095D01*
X148758502Y-99836124D01*
X148837097Y-99441000D01*
X148758502Y-99045876D01*
X148534682Y-98710905D01*
X148199711Y-98487085D01*
X147804587Y-98408490D01*
X146225813Y-98408490D01*
X145830689Y-98487085D01*
X145495718Y-98710905D01*
X145271898Y-99045876D01*
X145193303Y-99441000D01*
X124559363Y-99441000D01*
X124561516Y-99435816D01*
X124561684Y-99243826D01*
X124488367Y-99066386D01*
X124352728Y-98930510D01*
X124175416Y-98856884D01*
X123983426Y-98856716D01*
X123805986Y-98930033D01*
X123670110Y-99065672D01*
X123596484Y-99242984D01*
X123596316Y-99434974D01*
X106524913Y-99434974D01*
X106932210Y-99028388D01*
X107155995Y-98489455D01*
X107156122Y-98342774D01*
X108965916Y-98342774D01*
X109039233Y-98520214D01*
X109174872Y-98656090D01*
X109352184Y-98729716D01*
X109544174Y-98729884D01*
X109721614Y-98656567D01*
X109857490Y-98520928D01*
X109931116Y-98343616D01*
X109931161Y-98291974D01*
X113258516Y-98291974D01*
X113331833Y-98469414D01*
X113467472Y-98605290D01*
X113644784Y-98678916D01*
X113836774Y-98679084D01*
X114014214Y-98605767D01*
X114150090Y-98470128D01*
X114223716Y-98292816D01*
X114223884Y-98100826D01*
X114150567Y-97923386D01*
X114014928Y-97787510D01*
X113837616Y-97713884D01*
X113645626Y-97713716D01*
X113468186Y-97787033D01*
X113332310Y-97922672D01*
X113258684Y-98099984D01*
X113258516Y-98291974D01*
X109931161Y-98291974D01*
X109931284Y-98151626D01*
X109857967Y-97974186D01*
X109722328Y-97838310D01*
X109545016Y-97764684D01*
X109353026Y-97764516D01*
X109175586Y-97837833D01*
X109039710Y-97973472D01*
X108966084Y-98150784D01*
X108965916Y-98342774D01*
X107156122Y-98342774D01*
X107156504Y-97905906D01*
X106933660Y-97366582D01*
X106521388Y-96953590D01*
X105982455Y-96729805D01*
X105398906Y-96729296D01*
X104859582Y-96952140D01*
X104446590Y-97364412D01*
X104222805Y-97903345D01*
X104222296Y-98486894D01*
X103881360Y-98486894D01*
X103936663Y-98353711D01*
X103936936Y-98040464D01*
X103817314Y-97750956D01*
X103596009Y-97529264D01*
X103306711Y-97409137D01*
X102993464Y-97408864D01*
X102703956Y-97528486D01*
X102482264Y-97749791D01*
X102362137Y-98039089D01*
X102361864Y-98352336D01*
X102076114Y-98352336D01*
X102076504Y-97905906D01*
X101853660Y-97366582D01*
X101519459Y-97031797D01*
X101644414Y-96980167D01*
X101780290Y-96844528D01*
X101853916Y-96667216D01*
X101854084Y-96475226D01*
X101780767Y-96297786D01*
X101645128Y-96161910D01*
X101573107Y-96132004D01*
X101852210Y-95853388D01*
X102075995Y-95314455D01*
X102075997Y-95311894D01*
X104222296Y-95311894D01*
X104445140Y-95851218D01*
X104857412Y-96264210D01*
X105396345Y-96487995D01*
X105979894Y-96488504D01*
X106519218Y-96265660D01*
X106601247Y-96183774D01*
X117805116Y-96183774D01*
X117878433Y-96361214D01*
X118014072Y-96497090D01*
X118191384Y-96570716D01*
X118211600Y-96570734D01*
X118211516Y-96666374D01*
X118284833Y-96843814D01*
X118420472Y-96979690D01*
X118597784Y-97053316D01*
X118789774Y-97053484D01*
X118967214Y-96980167D01*
X119103090Y-96844528D01*
X119104378Y-96841424D01*
X120667666Y-96841424D01*
X120740983Y-97018864D01*
X120876622Y-97154740D01*
X121053934Y-97228366D01*
X121245924Y-97228534D01*
X121423364Y-97155217D01*
X121559240Y-97019578D01*
X121632866Y-96842266D01*
X121632866Y-96841424D01*
X121955166Y-96841424D01*
X122028483Y-97018864D01*
X122164122Y-97154740D01*
X122341434Y-97228366D01*
X122533424Y-97228534D01*
X122710864Y-97155217D01*
X122846740Y-97019578D01*
X122920366Y-96842266D01*
X122920366Y-96841424D01*
X123242666Y-96841424D01*
X123315983Y-97018864D01*
X123451622Y-97154740D01*
X123628934Y-97228366D01*
X123820924Y-97228534D01*
X123998364Y-97155217D01*
X124134240Y-97019578D01*
X124207866Y-96842266D01*
X124207866Y-96841424D01*
X124530166Y-96841424D01*
X124603483Y-97018864D01*
X124739122Y-97154740D01*
X124916434Y-97228366D01*
X125108424Y-97228534D01*
X125285864Y-97155217D01*
X125421740Y-97019578D01*
X125495366Y-96842266D01*
X125495408Y-96793374D01*
X140207916Y-96793374D01*
X140281233Y-96970814D01*
X140416872Y-97106690D01*
X140594184Y-97180316D01*
X140786174Y-97180484D01*
X140963614Y-97107167D01*
X141099490Y-96971528D01*
X141128775Y-96901000D01*
X145193303Y-96901000D01*
X145271898Y-97296124D01*
X145495718Y-97631095D01*
X145830689Y-97854915D01*
X146225813Y-97933510D01*
X147804587Y-97933510D01*
X148199711Y-97854915D01*
X148534682Y-97631095D01*
X148758502Y-97296124D01*
X148837097Y-96901000D01*
X148758502Y-96505876D01*
X148534682Y-96170905D01*
X148199711Y-95947085D01*
X147804587Y-95868490D01*
X146225813Y-95868490D01*
X145830689Y-95947085D01*
X145495718Y-96170905D01*
X145271898Y-96505876D01*
X145193303Y-96901000D01*
X141128775Y-96901000D01*
X141173116Y-96794216D01*
X141173284Y-96602226D01*
X141099967Y-96424786D01*
X140964328Y-96288910D01*
X140787016Y-96215284D01*
X140595026Y-96215116D01*
X140417586Y-96288433D01*
X140281710Y-96424072D01*
X140208084Y-96601384D01*
X140207916Y-96793374D01*
X125495408Y-96793374D01*
X125495534Y-96650276D01*
X125422217Y-96472836D01*
X125286578Y-96336960D01*
X125109266Y-96263334D01*
X124917276Y-96263166D01*
X124739836Y-96336483D01*
X124603960Y-96472122D01*
X124530334Y-96649434D01*
X124530166Y-96841424D01*
X124207866Y-96841424D01*
X124208034Y-96650276D01*
X124134717Y-96472836D01*
X123999078Y-96336960D01*
X123821766Y-96263334D01*
X123629776Y-96263166D01*
X123452336Y-96336483D01*
X123316460Y-96472122D01*
X123242834Y-96649434D01*
X123242666Y-96841424D01*
X122920366Y-96841424D01*
X122920534Y-96650276D01*
X122847217Y-96472836D01*
X122711578Y-96336960D01*
X122534266Y-96263334D01*
X122342276Y-96263166D01*
X122164836Y-96336483D01*
X122028960Y-96472122D01*
X121955334Y-96649434D01*
X121955166Y-96841424D01*
X121632866Y-96841424D01*
X121633034Y-96650276D01*
X121559717Y-96472836D01*
X121424078Y-96336960D01*
X121246766Y-96263334D01*
X121054776Y-96263166D01*
X120877336Y-96336483D01*
X120741460Y-96472122D01*
X120667834Y-96649434D01*
X120667666Y-96841424D01*
X119104378Y-96841424D01*
X119176716Y-96667216D01*
X119176884Y-96475226D01*
X119103567Y-96297786D01*
X118967928Y-96161910D01*
X118790616Y-96088284D01*
X118770400Y-96088266D01*
X118770484Y-95992626D01*
X118697167Y-95815186D01*
X118561528Y-95679310D01*
X118384216Y-95605684D01*
X118192226Y-95605516D01*
X118014786Y-95678833D01*
X117878910Y-95814472D01*
X117805284Y-95991784D01*
X117805116Y-96183774D01*
X106601247Y-96183774D01*
X106932210Y-95853388D01*
X107056558Y-95553924D01*
X120667666Y-95553924D01*
X120740983Y-95731364D01*
X120876622Y-95867240D01*
X121053934Y-95940866D01*
X121245924Y-95941034D01*
X121423364Y-95867717D01*
X121559240Y-95732078D01*
X121632866Y-95554766D01*
X121632866Y-95553924D01*
X121955166Y-95553924D01*
X122028483Y-95731364D01*
X122164122Y-95867240D01*
X122341434Y-95940866D01*
X122533424Y-95941034D01*
X122710864Y-95867717D01*
X122846740Y-95732078D01*
X122920366Y-95554766D01*
X122920366Y-95553924D01*
X123242666Y-95553924D01*
X123315983Y-95731364D01*
X123451622Y-95867240D01*
X123628934Y-95940866D01*
X123820924Y-95941034D01*
X123998364Y-95867717D01*
X124134240Y-95732078D01*
X124207866Y-95554766D01*
X124207866Y-95553924D01*
X124530166Y-95553924D01*
X124603483Y-95731364D01*
X124739122Y-95867240D01*
X124916434Y-95940866D01*
X125108424Y-95941034D01*
X125285864Y-95867717D01*
X125376364Y-95777374D01*
X127228516Y-95777374D01*
X127301833Y-95954814D01*
X127437472Y-96090690D01*
X127614784Y-96164316D01*
X127806774Y-96164484D01*
X127984214Y-96091167D01*
X128120090Y-95955528D01*
X128193716Y-95778216D01*
X128193827Y-95650374D01*
X130911516Y-95650374D01*
X130984833Y-95827814D01*
X131120472Y-95963690D01*
X131297784Y-96037316D01*
X131489774Y-96037484D01*
X131667214Y-95964167D01*
X131803090Y-95828528D01*
X131855971Y-95701174D01*
X136194716Y-95701174D01*
X136268033Y-95878614D01*
X136403672Y-96014490D01*
X136580984Y-96088116D01*
X136772974Y-96088284D01*
X136950414Y-96014967D01*
X137086290Y-95879328D01*
X137159916Y-95702016D01*
X137159938Y-95675774D01*
X137921916Y-95675774D01*
X137995233Y-95853214D01*
X138130872Y-95989090D01*
X138308184Y-96062716D01*
X138500174Y-96062884D01*
X138677614Y-95989567D01*
X138813490Y-95853928D01*
X138887116Y-95676616D01*
X138887227Y-95548774D01*
X141554116Y-95548774D01*
X141627433Y-95726214D01*
X141763072Y-95862090D01*
X141940384Y-95935716D01*
X142132374Y-95935884D01*
X142309814Y-95862567D01*
X142445690Y-95726928D01*
X142519316Y-95549616D01*
X142519484Y-95357626D01*
X142446167Y-95180186D01*
X142310528Y-95044310D01*
X142133216Y-94970684D01*
X141941226Y-94970516D01*
X141763786Y-95043833D01*
X141627910Y-95179472D01*
X141554284Y-95356784D01*
X141554116Y-95548774D01*
X138887227Y-95548774D01*
X138887284Y-95484626D01*
X138813967Y-95307186D01*
X138678328Y-95171310D01*
X138501016Y-95097684D01*
X138309026Y-95097516D01*
X138131586Y-95170833D01*
X137995710Y-95306472D01*
X137922084Y-95483784D01*
X137921916Y-95675774D01*
X137159938Y-95675774D01*
X137160084Y-95510026D01*
X137086767Y-95332586D01*
X136951128Y-95196710D01*
X136773816Y-95123084D01*
X136581826Y-95122916D01*
X136404386Y-95196233D01*
X136268510Y-95331872D01*
X136194884Y-95509184D01*
X136194716Y-95701174D01*
X131855971Y-95701174D01*
X131876716Y-95651216D01*
X131876884Y-95459226D01*
X131803567Y-95281786D01*
X131667928Y-95145910D01*
X131490616Y-95072284D01*
X131298626Y-95072116D01*
X131121186Y-95145433D01*
X130985310Y-95281072D01*
X130911684Y-95458384D01*
X130911516Y-95650374D01*
X128193827Y-95650374D01*
X128193884Y-95586226D01*
X128120567Y-95408786D01*
X127984928Y-95272910D01*
X127807616Y-95199284D01*
X127615626Y-95199116D01*
X127438186Y-95272433D01*
X127302310Y-95408072D01*
X127228684Y-95585384D01*
X127228516Y-95777374D01*
X125376364Y-95777374D01*
X125421740Y-95732078D01*
X125495366Y-95554766D01*
X125495534Y-95362776D01*
X125422217Y-95185336D01*
X125286578Y-95049460D01*
X125109266Y-94975834D01*
X124917276Y-94975666D01*
X124739836Y-95048983D01*
X124603960Y-95184622D01*
X124530334Y-95361934D01*
X124530166Y-95553924D01*
X124207866Y-95553924D01*
X124208034Y-95362776D01*
X124134717Y-95185336D01*
X123999078Y-95049460D01*
X123821766Y-94975834D01*
X123629776Y-94975666D01*
X123452336Y-95048983D01*
X123316460Y-95184622D01*
X123242834Y-95361934D01*
X123242666Y-95553924D01*
X122920366Y-95553924D01*
X122920534Y-95362776D01*
X122847217Y-95185336D01*
X122711578Y-95049460D01*
X122534266Y-94975834D01*
X122342276Y-94975666D01*
X122164836Y-95048983D01*
X122028960Y-95184622D01*
X121955334Y-95361934D01*
X121955166Y-95553924D01*
X121632866Y-95553924D01*
X121633034Y-95362776D01*
X121559717Y-95185336D01*
X121424078Y-95049460D01*
X121246766Y-94975834D01*
X121054776Y-94975666D01*
X120877336Y-95048983D01*
X120741460Y-95184622D01*
X120667834Y-95361934D01*
X120667666Y-95553924D01*
X107056558Y-95553924D01*
X107155995Y-95314455D01*
X107156233Y-95040774D01*
X116281116Y-95040774D01*
X116354433Y-95218214D01*
X116490072Y-95354090D01*
X116667384Y-95427716D01*
X116859374Y-95427884D01*
X117036814Y-95354567D01*
X117172690Y-95218928D01*
X117246316Y-95041616D01*
X117246484Y-94849626D01*
X117173167Y-94672186D01*
X117037528Y-94536310D01*
X116860216Y-94462684D01*
X116668226Y-94462516D01*
X116490786Y-94535833D01*
X116354910Y-94671472D01*
X116281284Y-94848784D01*
X116281116Y-95040774D01*
X107156233Y-95040774D01*
X107156504Y-94730906D01*
X106964585Y-94266424D01*
X120667666Y-94266424D01*
X120740983Y-94443864D01*
X120876622Y-94579740D01*
X121053934Y-94653366D01*
X121245924Y-94653534D01*
X121423364Y-94580217D01*
X121559240Y-94444578D01*
X121632866Y-94267266D01*
X121632866Y-94266424D01*
X121955166Y-94266424D01*
X122028483Y-94443864D01*
X122164122Y-94579740D01*
X122341434Y-94653366D01*
X122533424Y-94653534D01*
X122710864Y-94580217D01*
X122846740Y-94444578D01*
X122920366Y-94267266D01*
X122920366Y-94266424D01*
X123242666Y-94266424D01*
X123315983Y-94443864D01*
X123451622Y-94579740D01*
X123628934Y-94653366D01*
X123820924Y-94653534D01*
X123998364Y-94580217D01*
X124134240Y-94444578D01*
X124207866Y-94267266D01*
X124207866Y-94266424D01*
X124530166Y-94266424D01*
X124603483Y-94443864D01*
X124739122Y-94579740D01*
X124916434Y-94653366D01*
X125108424Y-94653534D01*
X125285864Y-94580217D01*
X125421740Y-94444578D01*
X125495366Y-94267266D01*
X125495467Y-94151774D01*
X142976516Y-94151774D01*
X143049833Y-94329214D01*
X143185472Y-94465090D01*
X143362784Y-94538716D01*
X143554774Y-94538884D01*
X143732214Y-94465567D01*
X143836963Y-94361000D01*
X145193303Y-94361000D01*
X145271898Y-94756124D01*
X145495718Y-95091095D01*
X145830689Y-95314915D01*
X146225813Y-95393510D01*
X147804587Y-95393510D01*
X148199711Y-95314915D01*
X148534682Y-95091095D01*
X148758502Y-94756124D01*
X148837097Y-94361000D01*
X148758502Y-93965876D01*
X148534682Y-93630905D01*
X148199711Y-93407085D01*
X147804587Y-93328490D01*
X146225813Y-93328490D01*
X145830689Y-93407085D01*
X145495718Y-93630905D01*
X145271898Y-93965876D01*
X145193303Y-94361000D01*
X143836963Y-94361000D01*
X143868090Y-94329928D01*
X143941716Y-94152616D01*
X143941884Y-93960626D01*
X143868567Y-93783186D01*
X143732928Y-93647310D01*
X143555616Y-93573684D01*
X143363626Y-93573516D01*
X143186186Y-93646833D01*
X143050310Y-93782472D01*
X142976684Y-93959784D01*
X142976516Y-94151774D01*
X125495467Y-94151774D01*
X125495534Y-94075276D01*
X125422217Y-93897836D01*
X125286578Y-93761960D01*
X125109266Y-93688334D01*
X124917276Y-93688166D01*
X124739836Y-93761483D01*
X124603960Y-93897122D01*
X124530334Y-94074434D01*
X124530166Y-94266424D01*
X124207866Y-94266424D01*
X124208034Y-94075276D01*
X124134717Y-93897836D01*
X123999078Y-93761960D01*
X123821766Y-93688334D01*
X123629776Y-93688166D01*
X123452336Y-93761483D01*
X123316460Y-93897122D01*
X123242834Y-94074434D01*
X123242666Y-94266424D01*
X122920366Y-94266424D01*
X122920534Y-94075276D01*
X122847217Y-93897836D01*
X122711578Y-93761960D01*
X122534266Y-93688334D01*
X122342276Y-93688166D01*
X122164836Y-93761483D01*
X122028960Y-93897122D01*
X121955334Y-94074434D01*
X121955166Y-94266424D01*
X121632866Y-94266424D01*
X121633034Y-94075276D01*
X121559717Y-93897836D01*
X121424078Y-93761960D01*
X121246766Y-93688334D01*
X121054776Y-93688166D01*
X120877336Y-93761483D01*
X120741460Y-93897122D01*
X120667834Y-94074434D01*
X120667666Y-94266424D01*
X106964585Y-94266424D01*
X106933660Y-94191582D01*
X106521388Y-93778590D01*
X105982455Y-93554805D01*
X105398906Y-93554296D01*
X104859582Y-93777140D01*
X104446590Y-94189412D01*
X104222805Y-94728345D01*
X104222296Y-95311894D01*
X102075997Y-95311894D01*
X102076504Y-94730906D01*
X101853660Y-94191582D01*
X101441388Y-93778590D01*
X100902455Y-93554805D01*
X100318906Y-93554296D01*
X99779582Y-93777140D01*
X99366590Y-94189412D01*
X99142805Y-94728345D01*
X99142296Y-95311894D01*
X99365140Y-95851218D01*
X99777412Y-96264210D01*
X100316345Y-96487995D01*
X100888872Y-96488494D01*
X100888716Y-96666374D01*
X100917508Y-96736056D01*
X100902455Y-96729805D01*
X100318906Y-96729296D01*
X99779582Y-96952140D01*
X99389663Y-97341379D01*
X99367767Y-97288386D01*
X99232128Y-97152510D01*
X99054816Y-97078884D01*
X98862826Y-97078716D01*
X98685386Y-97152033D01*
X98549510Y-97287672D01*
X98475884Y-97464984D01*
X98475716Y-97656974D01*
X93293000Y-97656974D01*
X93293000Y-93272336D01*
X101345864Y-93272336D01*
X101465486Y-93561844D01*
X101686791Y-93783536D01*
X101976089Y-93903663D01*
X102289336Y-93903936D01*
X102578844Y-93784314D01*
X102800536Y-93563009D01*
X102920663Y-93273711D01*
X102920664Y-93272336D01*
X103377864Y-93272336D01*
X103497486Y-93561844D01*
X103718791Y-93783536D01*
X104008089Y-93903663D01*
X104321336Y-93903936D01*
X104610844Y-93784314D01*
X104832536Y-93563009D01*
X104952663Y-93273711D01*
X104952919Y-92978924D01*
X120667666Y-92978924D01*
X120740983Y-93156364D01*
X120876622Y-93292240D01*
X121053934Y-93365866D01*
X121245924Y-93366034D01*
X121423364Y-93292717D01*
X121559240Y-93157078D01*
X121632866Y-92979766D01*
X121632866Y-92978924D01*
X121955166Y-92978924D01*
X122028483Y-93156364D01*
X122164122Y-93292240D01*
X122341434Y-93365866D01*
X122533424Y-93366034D01*
X122710864Y-93292717D01*
X122846740Y-93157078D01*
X122920366Y-92979766D01*
X122920366Y-92978924D01*
X123242666Y-92978924D01*
X123315983Y-93156364D01*
X123451622Y-93292240D01*
X123628934Y-93365866D01*
X123820924Y-93366034D01*
X123998364Y-93292717D01*
X124134240Y-93157078D01*
X124207866Y-92979766D01*
X124207866Y-92978924D01*
X124530166Y-92978924D01*
X124603483Y-93156364D01*
X124739122Y-93292240D01*
X124916434Y-93365866D01*
X125108424Y-93366034D01*
X125285864Y-93292717D01*
X125418638Y-93160174D01*
X137997116Y-93160174D01*
X138070433Y-93337614D01*
X138206072Y-93473490D01*
X138383384Y-93547116D01*
X138575374Y-93547284D01*
X138752814Y-93473967D01*
X138888690Y-93338328D01*
X138962316Y-93161016D01*
X138962484Y-92969026D01*
X138889167Y-92791586D01*
X138753528Y-92655710D01*
X138576216Y-92582084D01*
X138384226Y-92581916D01*
X138206786Y-92655233D01*
X138070910Y-92790872D01*
X137997284Y-92968184D01*
X137997116Y-93160174D01*
X125418638Y-93160174D01*
X125421740Y-93157078D01*
X125495366Y-92979766D01*
X125495534Y-92787776D01*
X125439918Y-92653174D01*
X132003716Y-92653174D01*
X132077033Y-92830614D01*
X132212672Y-92966490D01*
X132389984Y-93040116D01*
X132581974Y-93040284D01*
X132759414Y-92966967D01*
X132895290Y-92831328D01*
X132968916Y-92654016D01*
X132969084Y-92462026D01*
X132895767Y-92284586D01*
X132760128Y-92148710D01*
X132582816Y-92075084D01*
X132390826Y-92074916D01*
X132213386Y-92148233D01*
X132077510Y-92283872D01*
X132003884Y-92461184D01*
X132003716Y-92653174D01*
X125439918Y-92653174D01*
X125422217Y-92610336D01*
X125286578Y-92474460D01*
X125109266Y-92400834D01*
X124917276Y-92400666D01*
X124739836Y-92473983D01*
X124603960Y-92609622D01*
X124530334Y-92786934D01*
X124530166Y-92978924D01*
X124207866Y-92978924D01*
X124208034Y-92787776D01*
X124134717Y-92610336D01*
X123999078Y-92474460D01*
X123821766Y-92400834D01*
X123629776Y-92400666D01*
X123452336Y-92473983D01*
X123316460Y-92609622D01*
X123242834Y-92786934D01*
X123242666Y-92978924D01*
X122920366Y-92978924D01*
X122920534Y-92787776D01*
X122847217Y-92610336D01*
X122711578Y-92474460D01*
X122534266Y-92400834D01*
X122342276Y-92400666D01*
X122164836Y-92473983D01*
X122028960Y-92609622D01*
X121955334Y-92786934D01*
X121955166Y-92978924D01*
X121632866Y-92978924D01*
X121633034Y-92787776D01*
X121559717Y-92610336D01*
X121424078Y-92474460D01*
X121246766Y-92400834D01*
X121054776Y-92400666D01*
X120877336Y-92473983D01*
X120741460Y-92609622D01*
X120667834Y-92786934D01*
X120667666Y-92978924D01*
X104952919Y-92978924D01*
X104952936Y-92960464D01*
X104833314Y-92670956D01*
X104714141Y-92551574D01*
X105765516Y-92551574D01*
X105838833Y-92729014D01*
X105974472Y-92864890D01*
X106151784Y-92938516D01*
X106343774Y-92938684D01*
X106521214Y-92865367D01*
X106657090Y-92729728D01*
X106730716Y-92552416D01*
X106730716Y-92551574D01*
X109702516Y-92551574D01*
X109775833Y-92729014D01*
X109911472Y-92864890D01*
X110088784Y-92938516D01*
X110280774Y-92938684D01*
X110458214Y-92865367D01*
X110594090Y-92729728D01*
X110667716Y-92552416D01*
X110667738Y-92526174D01*
X114122116Y-92526174D01*
X114195433Y-92703614D01*
X114331072Y-92839490D01*
X114508384Y-92913116D01*
X114700374Y-92913284D01*
X114877814Y-92839967D01*
X115013690Y-92704328D01*
X115087316Y-92527016D01*
X115087484Y-92335026D01*
X115014167Y-92157586D01*
X115001777Y-92145174D01*
X128422316Y-92145174D01*
X128495633Y-92322614D01*
X128631272Y-92458490D01*
X128808584Y-92532116D01*
X129000574Y-92532284D01*
X129178014Y-92458967D01*
X129313890Y-92323328D01*
X129387516Y-92146016D01*
X129387684Y-91954026D01*
X129314367Y-91776586D01*
X129178728Y-91640710D01*
X129001416Y-91567084D01*
X128809426Y-91566916D01*
X128631986Y-91640233D01*
X128496110Y-91775872D01*
X128422484Y-91953184D01*
X128422316Y-92145174D01*
X115001777Y-92145174D01*
X114878528Y-92021710D01*
X114701216Y-91948084D01*
X114509226Y-91947916D01*
X114331786Y-92021233D01*
X114195910Y-92156872D01*
X114122284Y-92334184D01*
X114122116Y-92526174D01*
X110667738Y-92526174D01*
X110667884Y-92360426D01*
X110594567Y-92182986D01*
X110458928Y-92047110D01*
X110281616Y-91973484D01*
X110089626Y-91973316D01*
X109912186Y-92046633D01*
X109776310Y-92182272D01*
X109702684Y-92359584D01*
X109702516Y-92551574D01*
X106730716Y-92551574D01*
X106730884Y-92360426D01*
X106657567Y-92182986D01*
X106521928Y-92047110D01*
X106344616Y-91973484D01*
X106152626Y-91973316D01*
X105975186Y-92046633D01*
X105839310Y-92182272D01*
X105765684Y-92359584D01*
X105765516Y-92551574D01*
X104714141Y-92551574D01*
X104612009Y-92449264D01*
X104322711Y-92329137D01*
X104009464Y-92328864D01*
X103719956Y-92448486D01*
X103498264Y-92669791D01*
X103378137Y-92959089D01*
X103377864Y-93272336D01*
X102920664Y-93272336D01*
X102920936Y-92960464D01*
X102801314Y-92670956D01*
X102580009Y-92449264D01*
X102290711Y-92329137D01*
X101977464Y-92328864D01*
X101687956Y-92448486D01*
X101466264Y-92669791D01*
X101346137Y-92959089D01*
X101345864Y-93272336D01*
X93293000Y-93272336D01*
X93293000Y-90392574D01*
X124637716Y-90392574D01*
X124711033Y-90570014D01*
X124846672Y-90705890D01*
X125023984Y-90779516D01*
X125215974Y-90779684D01*
X125338314Y-90729134D01*
X125346033Y-90747814D01*
X125481672Y-90883690D01*
X125658984Y-90957316D01*
X125850974Y-90957484D01*
X126028414Y-90884167D01*
X126164290Y-90748528D01*
X126168334Y-90738790D01*
X126235033Y-90900214D01*
X126370672Y-91036090D01*
X126547984Y-91109716D01*
X126739974Y-91109884D01*
X126917414Y-91036567D01*
X126977311Y-90976774D01*
X136651916Y-90976774D01*
X136725233Y-91154214D01*
X136860872Y-91290090D01*
X137038184Y-91363716D01*
X137230174Y-91363884D01*
X137407614Y-91290567D01*
X137543490Y-91154928D01*
X137564730Y-91103774D01*
X143408316Y-91103774D01*
X143481633Y-91281214D01*
X143617272Y-91417090D01*
X143794584Y-91490716D01*
X143986574Y-91490884D01*
X144164014Y-91417567D01*
X144299890Y-91281928D01*
X144373516Y-91104616D01*
X144373684Y-90912626D01*
X144300367Y-90735186D01*
X144164728Y-90599310D01*
X143987416Y-90525684D01*
X143795426Y-90525516D01*
X143617986Y-90598833D01*
X143482110Y-90734472D01*
X143408484Y-90911784D01*
X143408316Y-91103774D01*
X137564730Y-91103774D01*
X137617116Y-90977616D01*
X137617284Y-90785626D01*
X137543967Y-90608186D01*
X137408328Y-90472310D01*
X137231016Y-90398684D01*
X137039026Y-90398516D01*
X136861586Y-90471833D01*
X136725710Y-90607472D01*
X136652084Y-90784784D01*
X136651916Y-90976774D01*
X126977311Y-90976774D01*
X127053290Y-90900928D01*
X127126916Y-90723616D01*
X127127084Y-90531626D01*
X127053767Y-90354186D01*
X126918128Y-90218310D01*
X126740816Y-90144684D01*
X126548826Y-90144516D01*
X126371386Y-90217833D01*
X126235510Y-90353472D01*
X126231466Y-90363210D01*
X126164767Y-90201786D01*
X126029128Y-90065910D01*
X125851816Y-89992284D01*
X125659826Y-89992116D01*
X125537486Y-90042666D01*
X125529767Y-90023986D01*
X125394128Y-89888110D01*
X125216816Y-89814484D01*
X125024826Y-89814316D01*
X124847386Y-89887633D01*
X124711510Y-90023272D01*
X124637884Y-90200584D01*
X124637716Y-90392574D01*
X93293000Y-90392574D01*
X93293000Y-89325774D01*
X119837116Y-89325774D01*
X119910433Y-89503214D01*
X120046072Y-89639090D01*
X120223384Y-89712716D01*
X120415374Y-89712884D01*
X120592814Y-89639567D01*
X120703600Y-89528974D01*
X126593516Y-89528974D01*
X126666833Y-89706414D01*
X126802472Y-89842290D01*
X126979784Y-89915916D01*
X127171774Y-89916084D01*
X127349214Y-89842767D01*
X127485090Y-89707128D01*
X127558716Y-89529816D01*
X127558850Y-89376574D01*
X138429916Y-89376574D01*
X138503233Y-89554014D01*
X138638872Y-89689890D01*
X138816184Y-89763516D01*
X139008174Y-89763684D01*
X139185614Y-89690367D01*
X139321490Y-89554728D01*
X139395116Y-89377416D01*
X139395138Y-89351174D01*
X139445916Y-89351174D01*
X139519233Y-89528614D01*
X139654872Y-89664490D01*
X139832184Y-89738116D01*
X140002703Y-89738265D01*
X139979484Y-89794184D01*
X139979316Y-89986174D01*
X140052633Y-90163614D01*
X140188272Y-90299490D01*
X140365584Y-90373116D01*
X140557574Y-90373284D01*
X140735014Y-90299967D01*
X140870890Y-90164328D01*
X140944516Y-89987016D01*
X140944644Y-89839800D01*
X145193303Y-89839800D01*
X145271898Y-90234924D01*
X145495718Y-90569895D01*
X145830689Y-90793715D01*
X146225813Y-90872310D01*
X147804587Y-90872310D01*
X148199711Y-90793715D01*
X148534682Y-90569895D01*
X148758502Y-90234924D01*
X148837097Y-89839800D01*
X148758502Y-89444676D01*
X148534682Y-89109705D01*
X148199711Y-88885885D01*
X147804587Y-88807290D01*
X146225813Y-88807290D01*
X145830689Y-88885885D01*
X145495718Y-89109705D01*
X145271898Y-89444676D01*
X145193303Y-89839800D01*
X140944644Y-89839800D01*
X140944684Y-89795026D01*
X140931704Y-89763611D01*
X141014774Y-89763684D01*
X141192214Y-89690367D01*
X141328090Y-89554728D01*
X141401716Y-89377416D01*
X141401884Y-89185426D01*
X141328567Y-89007986D01*
X141192928Y-88872110D01*
X141015616Y-88798484D01*
X140823626Y-88798316D01*
X140646186Y-88871633D01*
X140510310Y-89007272D01*
X140436684Y-89184584D01*
X140436516Y-89376574D01*
X140449496Y-89407989D01*
X140387897Y-89407935D01*
X140411116Y-89352016D01*
X140411284Y-89160026D01*
X140337967Y-88982586D01*
X140202328Y-88846710D01*
X140025016Y-88773084D01*
X139833026Y-88772916D01*
X139655586Y-88846233D01*
X139519710Y-88981872D01*
X139446084Y-89159184D01*
X139445916Y-89351174D01*
X139395138Y-89351174D01*
X139395284Y-89185426D01*
X139321967Y-89007986D01*
X139186328Y-88872110D01*
X139009016Y-88798484D01*
X138817026Y-88798316D01*
X138639586Y-88871633D01*
X138503710Y-89007272D01*
X138430084Y-89184584D01*
X138429916Y-89376574D01*
X127558850Y-89376574D01*
X127558884Y-89337826D01*
X127485567Y-89160386D01*
X127349928Y-89024510D01*
X127172616Y-88950884D01*
X126980626Y-88950716D01*
X126803186Y-89024033D01*
X126667310Y-89159672D01*
X126593684Y-89336984D01*
X126593516Y-89528974D01*
X120703600Y-89528974D01*
X120728690Y-89503928D01*
X120802316Y-89326616D01*
X120802484Y-89134626D01*
X120729167Y-88957186D01*
X120593528Y-88821310D01*
X120416216Y-88747684D01*
X120224226Y-88747516D01*
X120046786Y-88820833D01*
X119910910Y-88956472D01*
X119837284Y-89133784D01*
X119837116Y-89325774D01*
X93293000Y-89325774D01*
X93293000Y-87324000D01*
X95885000Y-87324000D01*
X95916782Y-87317678D01*
X95949185Y-87317678D01*
X97838654Y-86941839D01*
X131319551Y-86941839D01*
X131392868Y-87119279D01*
X131528507Y-87255155D01*
X131705819Y-87328781D01*
X131897809Y-87328949D01*
X132075249Y-87255632D01*
X132183304Y-87147765D01*
X132290507Y-87255155D01*
X132467819Y-87328781D01*
X132659809Y-87328949D01*
X132730354Y-87299800D01*
X145193303Y-87299800D01*
X145271898Y-87694924D01*
X145495718Y-88029895D01*
X145830689Y-88253715D01*
X146225813Y-88332310D01*
X147804587Y-88332310D01*
X148199711Y-88253715D01*
X148534682Y-88029895D01*
X148758502Y-87694924D01*
X148837097Y-87299800D01*
X148758502Y-86904676D01*
X148534682Y-86569705D01*
X148199711Y-86345885D01*
X147804587Y-86267290D01*
X146225813Y-86267290D01*
X145830689Y-86345885D01*
X145495718Y-86569705D01*
X145271898Y-86904676D01*
X145193303Y-87299800D01*
X132730354Y-87299800D01*
X132837249Y-87255632D01*
X132973125Y-87119993D01*
X133046751Y-86942681D01*
X133046919Y-86750691D01*
X132999959Y-86637039D01*
X136501151Y-86637039D01*
X136574468Y-86814479D01*
X136710107Y-86950355D01*
X136887419Y-87023981D01*
X137079409Y-87024149D01*
X137256849Y-86950832D01*
X137392725Y-86815193D01*
X137466351Y-86637881D01*
X137466399Y-86582574D01*
X141935116Y-86582574D01*
X142008433Y-86760014D01*
X142144072Y-86895890D01*
X142321384Y-86969516D01*
X142513374Y-86969684D01*
X142690814Y-86896367D01*
X142826690Y-86760728D01*
X142900316Y-86583416D01*
X142900484Y-86391426D01*
X142827167Y-86213986D01*
X142691528Y-86078110D01*
X142514216Y-86004484D01*
X142322226Y-86004316D01*
X142144786Y-86077633D01*
X142008910Y-86213272D01*
X141935284Y-86390584D01*
X141935116Y-86582574D01*
X137466399Y-86582574D01*
X137466519Y-86445891D01*
X137393202Y-86268451D01*
X137257563Y-86132575D01*
X137080251Y-86058949D01*
X136888261Y-86058781D01*
X136710821Y-86132098D01*
X136574945Y-86267737D01*
X136501319Y-86445049D01*
X136501151Y-86637039D01*
X132999959Y-86637039D01*
X132973602Y-86573251D01*
X132837963Y-86437375D01*
X132660651Y-86363749D01*
X132468661Y-86363581D01*
X132291221Y-86436898D01*
X132183166Y-86544765D01*
X132075963Y-86437375D01*
X131898651Y-86363749D01*
X131706661Y-86363581D01*
X131529221Y-86436898D01*
X131393345Y-86572537D01*
X131319719Y-86749849D01*
X131319551Y-86941839D01*
X97838654Y-86941839D01*
X98379224Y-86834313D01*
X98497823Y-86785188D01*
X100245579Y-85617374D01*
X129006516Y-85617374D01*
X129079833Y-85794814D01*
X129215472Y-85930690D01*
X129392784Y-86004316D01*
X129584774Y-86004484D01*
X129762214Y-85931167D01*
X129898090Y-85795528D01*
X129971716Y-85618216D01*
X129971884Y-85426226D01*
X129898567Y-85248786D01*
X129762928Y-85112910D01*
X129585616Y-85039284D01*
X129393626Y-85039116D01*
X129216186Y-85112433D01*
X129080310Y-85248072D01*
X129006684Y-85425384D01*
X129006516Y-85617374D01*
X100245579Y-85617374D01*
X100557911Y-85408681D01*
X100648683Y-85317909D01*
X101021599Y-84759800D01*
X145193303Y-84759800D01*
X145271898Y-85154924D01*
X145495718Y-85489895D01*
X145830689Y-85713715D01*
X146225813Y-85792310D01*
X147804587Y-85792310D01*
X148199711Y-85713715D01*
X148534682Y-85489895D01*
X148758502Y-85154924D01*
X148837097Y-84759800D01*
X148758502Y-84364676D01*
X148534682Y-84029705D01*
X148199711Y-83805885D01*
X147804587Y-83727290D01*
X146225813Y-83727290D01*
X145830689Y-83805885D01*
X145495718Y-84029705D01*
X145271898Y-84364676D01*
X145193303Y-84759800D01*
X101021599Y-84759800D01*
X102025189Y-83257823D01*
X102074313Y-83139224D01*
X102197767Y-82518574D01*
X122961316Y-82518574D01*
X123034633Y-82696014D01*
X123170272Y-82831890D01*
X123347584Y-82905516D01*
X123539574Y-82905684D01*
X123717014Y-82832367D01*
X123852890Y-82696728D01*
X123926516Y-82519416D01*
X123926684Y-82327426D01*
X123853367Y-82149986D01*
X123717728Y-82014110D01*
X123540416Y-81940484D01*
X123348426Y-81940316D01*
X123170986Y-82013633D01*
X123035110Y-82149272D01*
X122961484Y-82326584D01*
X122961316Y-82518574D01*
X102197767Y-82518574D01*
X102556486Y-80715174D01*
X121996116Y-80715174D01*
X122069433Y-80892614D01*
X122205072Y-81028490D01*
X122382384Y-81102116D01*
X122574374Y-81102284D01*
X122751814Y-81028967D01*
X122887690Y-80893328D01*
X122919477Y-80816774D01*
X124663116Y-80816774D01*
X124736433Y-80994214D01*
X124872072Y-81130090D01*
X125049384Y-81203716D01*
X125241374Y-81203884D01*
X125418814Y-81130567D01*
X125427822Y-81121574D01*
X129946316Y-81121574D01*
X130019633Y-81299014D01*
X130155272Y-81434890D01*
X130332584Y-81508516D01*
X130524574Y-81508684D01*
X130702014Y-81435367D01*
X130837890Y-81299728D01*
X130911516Y-81122416D01*
X130911684Y-80930426D01*
X130838367Y-80752986D01*
X130702728Y-80617110D01*
X130525416Y-80543484D01*
X130333426Y-80543316D01*
X130155986Y-80616633D01*
X130020110Y-80752272D01*
X129946484Y-80929584D01*
X129946316Y-81121574D01*
X125427822Y-81121574D01*
X125554690Y-80994928D01*
X125628316Y-80817616D01*
X125628484Y-80625626D01*
X125555167Y-80448186D01*
X125419528Y-80312310D01*
X125288672Y-80257974D01*
X139649116Y-80257974D01*
X139722433Y-80435414D01*
X139858072Y-80571290D01*
X140035384Y-80644916D01*
X140227374Y-80645084D01*
X140404814Y-80571767D01*
X140540690Y-80436128D01*
X140614316Y-80258816D01*
X140614484Y-80066826D01*
X140541167Y-79889386D01*
X140405528Y-79753510D01*
X140228216Y-79679884D01*
X140036226Y-79679716D01*
X139858786Y-79753033D01*
X139722910Y-79888672D01*
X139649284Y-80065984D01*
X139649116Y-80257974D01*
X125288672Y-80257974D01*
X125242216Y-80238684D01*
X125050226Y-80238516D01*
X124872786Y-80311833D01*
X124736910Y-80447472D01*
X124663284Y-80624784D01*
X124663116Y-80816774D01*
X122919477Y-80816774D01*
X122961316Y-80716016D01*
X122961484Y-80524026D01*
X122888167Y-80346586D01*
X122752528Y-80210710D01*
X122575216Y-80137084D01*
X122383226Y-80136916D01*
X122205786Y-80210233D01*
X122069910Y-80345872D01*
X121996284Y-80523184D01*
X121996116Y-80715174D01*
X102556486Y-80715174D01*
X102557678Y-80709185D01*
X102557678Y-80676782D01*
X102564000Y-80645000D01*
X102564000Y-79597574D01*
X125882316Y-79597574D01*
X125955633Y-79775014D01*
X126091272Y-79910890D01*
X126268584Y-79984516D01*
X126460574Y-79984684D01*
X126638014Y-79911367D01*
X126773890Y-79775728D01*
X126847516Y-79598416D01*
X126847684Y-79406426D01*
X126774367Y-79228986D01*
X126638728Y-79093110D01*
X126461416Y-79019484D01*
X126269426Y-79019316D01*
X126091986Y-79092633D01*
X125956110Y-79228272D01*
X125882484Y-79405584D01*
X125882316Y-79597574D01*
X102564000Y-79597574D01*
X102564000Y-78683174D01*
X129997116Y-78683174D01*
X130070433Y-78860614D01*
X130206072Y-78996490D01*
X130383384Y-79070116D01*
X130575374Y-79070284D01*
X130752814Y-78996967D01*
X130888690Y-78861328D01*
X130962316Y-78684016D01*
X130962484Y-78492026D01*
X130889167Y-78314586D01*
X130753528Y-78178710D01*
X130576216Y-78105084D01*
X130384226Y-78104916D01*
X130206786Y-78178233D01*
X130070910Y-78313872D01*
X129997284Y-78491184D01*
X129997116Y-78683174D01*
X102564000Y-78683174D01*
X102564000Y-78175174D01*
X127380916Y-78175174D01*
X127454233Y-78352614D01*
X127589872Y-78488490D01*
X127767184Y-78562116D01*
X127959174Y-78562284D01*
X128136614Y-78488967D01*
X128272490Y-78353328D01*
X128346116Y-78176016D01*
X128346284Y-77984026D01*
X128272967Y-77806586D01*
X128137328Y-77670710D01*
X127960016Y-77597084D01*
X127768026Y-77596916D01*
X127590586Y-77670233D01*
X127454710Y-77805872D01*
X127381084Y-77983184D01*
X127380916Y-78175174D01*
X102564000Y-78175174D01*
X102564000Y-77590974D01*
X123012116Y-77590974D01*
X123085433Y-77768414D01*
X123221072Y-77904290D01*
X123398384Y-77977916D01*
X123590374Y-77978084D01*
X123767814Y-77904767D01*
X123903690Y-77769128D01*
X123977316Y-77591816D01*
X123977484Y-77399826D01*
X123904167Y-77222386D01*
X123768528Y-77086510D01*
X123591216Y-77012884D01*
X123399226Y-77012716D01*
X123221786Y-77086033D01*
X123085910Y-77221672D01*
X123012284Y-77398984D01*
X123012116Y-77590974D01*
X102564000Y-77590974D01*
X102564000Y-75133723D01*
X118351122Y-75133723D01*
X118507402Y-75511950D01*
X118796528Y-75801581D01*
X119174481Y-75958521D01*
X119583723Y-75958878D01*
X119961950Y-75802598D01*
X120251581Y-75513472D01*
X120408521Y-75135519D01*
X120408522Y-75133723D01*
X120891122Y-75133723D01*
X121047402Y-75511950D01*
X121336528Y-75801581D01*
X121714481Y-75958521D01*
X122123723Y-75958878D01*
X122501950Y-75802598D01*
X122791581Y-75513472D01*
X122948521Y-75135519D01*
X122948522Y-75133723D01*
X123431122Y-75133723D01*
X123587402Y-75511950D01*
X123876528Y-75801581D01*
X124254481Y-75958521D01*
X124663723Y-75958878D01*
X125041950Y-75802598D01*
X125331581Y-75513472D01*
X125488521Y-75135519D01*
X125488522Y-75133723D01*
X125971122Y-75133723D01*
X126127402Y-75511950D01*
X126416528Y-75801581D01*
X126794481Y-75958521D01*
X127203723Y-75958878D01*
X127581950Y-75802598D01*
X127871581Y-75513472D01*
X128028521Y-75135519D01*
X128028522Y-75133723D01*
X128511122Y-75133723D01*
X128667402Y-75511950D01*
X128956528Y-75801581D01*
X129334481Y-75958521D01*
X129743723Y-75958878D01*
X129883774Y-75901010D01*
X131288595Y-75901010D01*
X131356499Y-76141880D01*
X131875339Y-76326503D01*
X132425336Y-76298521D01*
X132803501Y-76141880D01*
X132871405Y-75901010D01*
X132080000Y-75109605D01*
X131288595Y-75901010D01*
X129883774Y-75901010D01*
X130121950Y-75802598D01*
X130411581Y-75513472D01*
X130568521Y-75135519D01*
X130568878Y-74726277D01*
X130568491Y-74725339D01*
X130683497Y-74725339D01*
X130711479Y-75275336D01*
X130868120Y-75653501D01*
X131108990Y-75721405D01*
X131900395Y-74930000D01*
X132259605Y-74930000D01*
X133051010Y-75721405D01*
X133291880Y-75653501D01*
X133476503Y-75134661D01*
X133476456Y-75133723D01*
X133591122Y-75133723D01*
X133747402Y-75511950D01*
X134036528Y-75801581D01*
X134414481Y-75958521D01*
X134823723Y-75958878D01*
X135201950Y-75802598D01*
X135491581Y-75513472D01*
X135648521Y-75135519D01*
X135648878Y-74726277D01*
X135492598Y-74348050D01*
X135203472Y-74058419D01*
X134825519Y-73901479D01*
X134416277Y-73901122D01*
X134038050Y-74057402D01*
X133748419Y-74346528D01*
X133591479Y-74724481D01*
X133591122Y-75133723D01*
X133476456Y-75133723D01*
X133448521Y-74584664D01*
X133291880Y-74206499D01*
X133051010Y-74138595D01*
X132259605Y-74930000D01*
X131900395Y-74930000D01*
X131108990Y-74138595D01*
X130868120Y-74206499D01*
X130683497Y-74725339D01*
X130568491Y-74725339D01*
X130412598Y-74348050D01*
X130123472Y-74058419D01*
X129884021Y-73958990D01*
X131288595Y-73958990D01*
X132080000Y-74750395D01*
X132871405Y-73958990D01*
X132803501Y-73718120D01*
X132284661Y-73533497D01*
X131734664Y-73561479D01*
X131356499Y-73718120D01*
X131288595Y-73958990D01*
X129884021Y-73958990D01*
X129745519Y-73901479D01*
X129336277Y-73901122D01*
X128958050Y-74057402D01*
X128668419Y-74346528D01*
X128511479Y-74724481D01*
X128511122Y-75133723D01*
X128028522Y-75133723D01*
X128028878Y-74726277D01*
X127872598Y-74348050D01*
X127583472Y-74058419D01*
X127205519Y-73901479D01*
X126796277Y-73901122D01*
X126418050Y-74057402D01*
X126128419Y-74346528D01*
X125971479Y-74724481D01*
X125971122Y-75133723D01*
X125488522Y-75133723D01*
X125488878Y-74726277D01*
X125332598Y-74348050D01*
X125043472Y-74058419D01*
X124665519Y-73901479D01*
X124256277Y-73901122D01*
X123878050Y-74057402D01*
X123588419Y-74346528D01*
X123431479Y-74724481D01*
X123431122Y-75133723D01*
X122948522Y-75133723D01*
X122948878Y-74726277D01*
X122792598Y-74348050D01*
X122503472Y-74058419D01*
X122125519Y-73901479D01*
X121716277Y-73901122D01*
X121338050Y-74057402D01*
X121048419Y-74346528D01*
X120891479Y-74724481D01*
X120891122Y-75133723D01*
X120408522Y-75133723D01*
X120408878Y-74726277D01*
X120252598Y-74348050D01*
X119963472Y-74058419D01*
X119585519Y-73901479D01*
X119176277Y-73901122D01*
X118798050Y-74057402D01*
X118508419Y-74346528D01*
X118351479Y-74724481D01*
X118351122Y-75133723D01*
X102564000Y-75133723D01*
X102564000Y-72767265D01*
X104139670Y-72767265D01*
X104429078Y-73467686D01*
X104964495Y-74004039D01*
X105664410Y-74294668D01*
X106422265Y-74295330D01*
X107122686Y-74005922D01*
X107659039Y-73470505D01*
X107949668Y-72770590D01*
X107949822Y-72593723D01*
X118351122Y-72593723D01*
X118507402Y-72971950D01*
X118796528Y-73261581D01*
X119174481Y-73418521D01*
X119583723Y-73418878D01*
X119961950Y-73262598D01*
X120251581Y-72973472D01*
X120408521Y-72595519D01*
X120408522Y-72593723D01*
X120891122Y-72593723D01*
X121047402Y-72971950D01*
X121336528Y-73261581D01*
X121714481Y-73418521D01*
X122123723Y-73418878D01*
X122501950Y-73262598D01*
X122791581Y-72973472D01*
X122948521Y-72595519D01*
X122948522Y-72593723D01*
X123431122Y-72593723D01*
X123587402Y-72971950D01*
X123876528Y-73261581D01*
X124254481Y-73418521D01*
X124663723Y-73418878D01*
X125041950Y-73262598D01*
X125331581Y-72973472D01*
X125488521Y-72595519D01*
X125488522Y-72593723D01*
X125971122Y-72593723D01*
X126127402Y-72971950D01*
X126416528Y-73261581D01*
X126794481Y-73418521D01*
X127203723Y-73418878D01*
X127581950Y-73262598D01*
X127871581Y-72973472D01*
X128028521Y-72595519D01*
X128028522Y-72593723D01*
X128511122Y-72593723D01*
X128667402Y-72971950D01*
X128956528Y-73261581D01*
X129334481Y-73418521D01*
X129743723Y-73418878D01*
X130121950Y-73262598D01*
X130411581Y-72973472D01*
X130568521Y-72595519D01*
X130568522Y-72593723D01*
X131051122Y-72593723D01*
X131207402Y-72971950D01*
X131496528Y-73261581D01*
X131874481Y-73418521D01*
X132283723Y-73418878D01*
X132661950Y-73262598D01*
X132951581Y-72973472D01*
X133108521Y-72595519D01*
X133108878Y-72186277D01*
X132952598Y-71808050D01*
X132785540Y-71640700D01*
X133585827Y-71640700D01*
X133585827Y-73139300D01*
X133605309Y-73242839D01*
X133666501Y-73337934D01*
X133759868Y-73401729D01*
X133870700Y-73424173D01*
X135369300Y-73424173D01*
X135472839Y-73404691D01*
X135567934Y-73343499D01*
X135631729Y-73250132D01*
X135654173Y-73139300D01*
X135654173Y-72767265D01*
X146049670Y-72767265D01*
X146339078Y-73467686D01*
X146874495Y-74004039D01*
X147574410Y-74294668D01*
X148332265Y-74295330D01*
X149032686Y-74005922D01*
X149569039Y-73470505D01*
X149859668Y-72770590D01*
X149860330Y-72012735D01*
X149570922Y-71312314D01*
X149035505Y-70775961D01*
X148335590Y-70485332D01*
X147577735Y-70484670D01*
X146877314Y-70774078D01*
X146340961Y-71309495D01*
X146050332Y-72009410D01*
X146049670Y-72767265D01*
X135654173Y-72767265D01*
X135654173Y-71640700D01*
X135634691Y-71537161D01*
X135573499Y-71442066D01*
X135480132Y-71378271D01*
X135369300Y-71355827D01*
X133870700Y-71355827D01*
X133767161Y-71375309D01*
X133672066Y-71436501D01*
X133608271Y-71529868D01*
X133585827Y-71640700D01*
X132785540Y-71640700D01*
X132663472Y-71518419D01*
X132285519Y-71361479D01*
X131876277Y-71361122D01*
X131498050Y-71517402D01*
X131208419Y-71806528D01*
X131051479Y-72184481D01*
X131051122Y-72593723D01*
X130568522Y-72593723D01*
X130568878Y-72186277D01*
X130412598Y-71808050D01*
X130123472Y-71518419D01*
X129745519Y-71361479D01*
X129336277Y-71361122D01*
X128958050Y-71517402D01*
X128668419Y-71806528D01*
X128511479Y-72184481D01*
X128511122Y-72593723D01*
X128028522Y-72593723D01*
X128028878Y-72186277D01*
X127872598Y-71808050D01*
X127583472Y-71518419D01*
X127205519Y-71361479D01*
X126796277Y-71361122D01*
X126418050Y-71517402D01*
X126128419Y-71806528D01*
X125971479Y-72184481D01*
X125971122Y-72593723D01*
X125488522Y-72593723D01*
X125488878Y-72186277D01*
X125332598Y-71808050D01*
X125043472Y-71518419D01*
X124665519Y-71361479D01*
X124256277Y-71361122D01*
X123878050Y-71517402D01*
X123588419Y-71806528D01*
X123431479Y-72184481D01*
X123431122Y-72593723D01*
X122948522Y-72593723D01*
X122948878Y-72186277D01*
X122792598Y-71808050D01*
X122503472Y-71518419D01*
X122125519Y-71361479D01*
X121716277Y-71361122D01*
X121338050Y-71517402D01*
X121048419Y-71806528D01*
X120891479Y-72184481D01*
X120891122Y-72593723D01*
X120408522Y-72593723D01*
X120408878Y-72186277D01*
X120252598Y-71808050D01*
X119963472Y-71518419D01*
X119585519Y-71361479D01*
X119176277Y-71361122D01*
X118798050Y-71517402D01*
X118508419Y-71806528D01*
X118351479Y-72184481D01*
X118351122Y-72593723D01*
X107949822Y-72593723D01*
X107950330Y-72012735D01*
X107660922Y-71312314D01*
X107125505Y-70775961D01*
X106425590Y-70485332D01*
X105667735Y-70484670D01*
X104967314Y-70774078D01*
X104430961Y-71309495D01*
X104140332Y-72009410D01*
X104139670Y-72767265D01*
X102564000Y-72767265D01*
X102564000Y-68909000D01*
X151436000Y-68909000D01*
X151436000Y-80645000D01*
X151436000Y-80645000D01*
G37*
X151436000Y-80645000D02*
X151442322Y-80676782D01*
X151442322Y-80709185D01*
X151925687Y-83139224D01*
X151974812Y-83257823D01*
X153351319Y-85317911D01*
X153442089Y-85408681D01*
X155502177Y-86785189D01*
X155574615Y-86815193D01*
X155620775Y-86834313D01*
X158050815Y-87317678D01*
X158083218Y-87317678D01*
X158115000Y-87324000D01*
X160707000Y-87324000D01*
X160707000Y-115876000D01*
X158115000Y-115876000D01*
X158083218Y-115882322D01*
X158050815Y-115882322D01*
X155620775Y-116365687D01*
X155586039Y-116380075D01*
X155502177Y-116414811D01*
X153442091Y-117791317D01*
X153351319Y-117882089D01*
X151974812Y-119942177D01*
X151974812Y-119942178D01*
X151925687Y-120060776D01*
X151442322Y-122490815D01*
X151442322Y-122523218D01*
X151436000Y-122555000D01*
X151436000Y-134291000D01*
X102564000Y-134291000D01*
X102564000Y-131187265D01*
X104139670Y-131187265D01*
X104429078Y-131887686D01*
X104964495Y-132424039D01*
X105664410Y-132714668D01*
X106422265Y-132715330D01*
X107122686Y-132425922D01*
X107659039Y-131890505D01*
X107949668Y-131190590D01*
X107950330Y-130432735D01*
X107660922Y-129732314D01*
X107125505Y-129195961D01*
X106425590Y-128905332D01*
X105667735Y-128904670D01*
X104967314Y-129194078D01*
X104430961Y-129729495D01*
X104140332Y-130429410D01*
X104139670Y-131187265D01*
X102564000Y-131187265D01*
X102564000Y-128628042D01*
X113189400Y-128628042D01*
X113189400Y-130197958D01*
X113268139Y-130593806D01*
X113492369Y-130929389D01*
X113827952Y-131153619D01*
X114223800Y-131232358D01*
X114619648Y-131153619D01*
X114955231Y-130929389D01*
X115179461Y-130593806D01*
X115258200Y-130197958D01*
X115258200Y-128628042D01*
X115729400Y-128628042D01*
X115729400Y-130197958D01*
X115808139Y-130593806D01*
X116032369Y-130929389D01*
X116367952Y-131153619D01*
X116763800Y-131232358D01*
X117159648Y-131153619D01*
X117495231Y-130929389D01*
X117719461Y-130593806D01*
X117798200Y-130197958D01*
X117798200Y-130055000D01*
X122150127Y-130055000D01*
X122150127Y-131565000D01*
X122169609Y-131668539D01*
X122230801Y-131763634D01*
X122324168Y-131827429D01*
X122435000Y-131849873D01*
X123945000Y-131849873D01*
X124048539Y-131830391D01*
X124143634Y-131769199D01*
X124207429Y-131675832D01*
X124229873Y-131565000D01*
X124229873Y-131014852D01*
X124695421Y-131014852D01*
X124852567Y-131395175D01*
X125143294Y-131686410D01*
X125523342Y-131844220D01*
X125934852Y-131844579D01*
X126315175Y-131687433D01*
X126606410Y-131396706D01*
X126764220Y-131016658D01*
X126764221Y-131014852D01*
X127235421Y-131014852D01*
X127392567Y-131395175D01*
X127683294Y-131686410D01*
X128063342Y-131844220D01*
X128474852Y-131844579D01*
X128855175Y-131687433D01*
X129146410Y-131396706D01*
X129304220Y-131016658D01*
X129304221Y-131014852D01*
X129775421Y-131014852D01*
X129932567Y-131395175D01*
X130223294Y-131686410D01*
X130603342Y-131844220D01*
X131014852Y-131844579D01*
X131395175Y-131687433D01*
X131686410Y-131396706D01*
X131773377Y-131187265D01*
X146049670Y-131187265D01*
X146339078Y-131887686D01*
X146874495Y-132424039D01*
X147574410Y-132714668D01*
X148332265Y-132715330D01*
X149032686Y-132425922D01*
X149569039Y-131890505D01*
X149859668Y-131190590D01*
X149860330Y-130432735D01*
X149570922Y-129732314D01*
X149035505Y-129195961D01*
X148335590Y-128905332D01*
X147577735Y-128904670D01*
X146877314Y-129194078D01*
X146340961Y-129729495D01*
X146050332Y-130429410D01*
X146049670Y-131187265D01*
X131773377Y-131187265D01*
X131844220Y-131016658D01*
X131844579Y-130605148D01*
X131687433Y-130224825D01*
X131396706Y-129933590D01*
X131016658Y-129775780D01*
X130605148Y-129775421D01*
X130224825Y-129932567D01*
X129933590Y-130223294D01*
X129775780Y-130603342D01*
X129775421Y-131014852D01*
X129304221Y-131014852D01*
X129304579Y-130605148D01*
X129147433Y-130224825D01*
X128856706Y-129933590D01*
X128476658Y-129775780D01*
X128065148Y-129775421D01*
X127684825Y-129932567D01*
X127393590Y-130223294D01*
X127235780Y-130603342D01*
X127235421Y-131014852D01*
X126764221Y-131014852D01*
X126764579Y-130605148D01*
X126607433Y-130224825D01*
X126316706Y-129933590D01*
X125936658Y-129775780D01*
X125525148Y-129775421D01*
X125144825Y-129932567D01*
X124853590Y-130223294D01*
X124695780Y-130603342D01*
X124695421Y-131014852D01*
X124229873Y-131014852D01*
X124229873Y-130055000D01*
X124210391Y-129951461D01*
X124149199Y-129856366D01*
X124055832Y-129792571D01*
X123945000Y-129770127D01*
X122435000Y-129770127D01*
X122331461Y-129789609D01*
X122236366Y-129850801D01*
X122172571Y-129944168D01*
X122150127Y-130055000D01*
X117798200Y-130055000D01*
X117798200Y-128628042D01*
X117767729Y-128474852D01*
X122155421Y-128474852D01*
X122312567Y-128855175D01*
X122603294Y-129146410D01*
X122983342Y-129304220D01*
X123394852Y-129304579D01*
X123775175Y-129147433D01*
X124066410Y-128856706D01*
X124224220Y-128476658D01*
X124224221Y-128474852D01*
X124695421Y-128474852D01*
X124852567Y-128855175D01*
X125143294Y-129146410D01*
X125523342Y-129304220D01*
X125934852Y-129304579D01*
X126315175Y-129147433D01*
X126606410Y-128856706D01*
X126764220Y-128476658D01*
X126764221Y-128474852D01*
X127235421Y-128474852D01*
X127392567Y-128855175D01*
X127683294Y-129146410D01*
X128063342Y-129304220D01*
X128474852Y-129304579D01*
X128855175Y-129147433D01*
X129146410Y-128856706D01*
X129304220Y-128476658D01*
X129304221Y-128474852D01*
X129775421Y-128474852D01*
X129932567Y-128855175D01*
X130223294Y-129146410D01*
X130603342Y-129304220D01*
X131014852Y-129304579D01*
X131395175Y-129147433D01*
X131686410Y-128856706D01*
X131844220Y-128476658D01*
X131844579Y-128065148D01*
X131687433Y-127684825D01*
X131396706Y-127393590D01*
X131016658Y-127235780D01*
X130605148Y-127235421D01*
X130224825Y-127392567D01*
X129933590Y-127683294D01*
X129775780Y-128063342D01*
X129775421Y-128474852D01*
X129304221Y-128474852D01*
X129304579Y-128065148D01*
X129147433Y-127684825D01*
X128856706Y-127393590D01*
X128476658Y-127235780D01*
X128065148Y-127235421D01*
X127684825Y-127392567D01*
X127393590Y-127683294D01*
X127235780Y-128063342D01*
X127235421Y-128474852D01*
X126764221Y-128474852D01*
X126764579Y-128065148D01*
X126607433Y-127684825D01*
X126316706Y-127393590D01*
X125936658Y-127235780D01*
X125525148Y-127235421D01*
X125144825Y-127392567D01*
X124853590Y-127683294D01*
X124695780Y-128063342D01*
X124695421Y-128474852D01*
X124224221Y-128474852D01*
X124224579Y-128065148D01*
X124067433Y-127684825D01*
X123776706Y-127393590D01*
X123396658Y-127235780D01*
X122985148Y-127235421D01*
X122604825Y-127392567D01*
X122313590Y-127683294D01*
X122155780Y-128063342D01*
X122155421Y-128474852D01*
X117767729Y-128474852D01*
X117719461Y-128232194D01*
X117495231Y-127896611D01*
X117159648Y-127672381D01*
X116763800Y-127593642D01*
X116367952Y-127672381D01*
X116032369Y-127896611D01*
X115808139Y-128232194D01*
X115729400Y-128628042D01*
X115258200Y-128628042D01*
X115179461Y-128232194D01*
X114955231Y-127896611D01*
X114619648Y-127672381D01*
X114223800Y-127593642D01*
X113827952Y-127672381D01*
X113492369Y-127896611D01*
X113268139Y-128232194D01*
X113189400Y-128628042D01*
X102564000Y-128628042D01*
X102564000Y-122555000D01*
X102557678Y-122523218D01*
X102557678Y-122490815D01*
X102493565Y-122168492D01*
X111346114Y-122168492D01*
X111393034Y-122391752D01*
X111850062Y-122547879D01*
X112332047Y-122517225D01*
X112634966Y-122391752D01*
X112681886Y-122168492D01*
X112014000Y-121500605D01*
X111346114Y-122168492D01*
X102493565Y-122168492D01*
X102292379Y-121157062D01*
X110787121Y-121157062D01*
X110817775Y-121639047D01*
X110943248Y-121941966D01*
X111166508Y-121988886D01*
X111834395Y-121321000D01*
X112193605Y-121321000D01*
X112861492Y-121988886D01*
X113084752Y-121941966D01*
X113240879Y-121484938D01*
X113218088Y-121126574D01*
X124231316Y-121126574D01*
X124304633Y-121304014D01*
X124440272Y-121439890D01*
X124617584Y-121513516D01*
X124809574Y-121513684D01*
X124987014Y-121440367D01*
X125122890Y-121304728D01*
X125196516Y-121127416D01*
X125196684Y-120935426D01*
X125123367Y-120757986D01*
X124987728Y-120622110D01*
X124810416Y-120548484D01*
X124618426Y-120548316D01*
X124440986Y-120621633D01*
X124305110Y-120757272D01*
X124231484Y-120934584D01*
X124231316Y-121126574D01*
X113218088Y-121126574D01*
X113210225Y-121002953D01*
X113084752Y-120700034D01*
X112861492Y-120653114D01*
X112193605Y-121321000D01*
X111834395Y-121321000D01*
X111166508Y-120653114D01*
X110943248Y-120700034D01*
X110787121Y-121157062D01*
X102292379Y-121157062D01*
X102156412Y-120473508D01*
X111346114Y-120473508D01*
X112014000Y-121141395D01*
X112681886Y-120473508D01*
X112634966Y-120250248D01*
X112177938Y-120094121D01*
X111695953Y-120124775D01*
X111393034Y-120250248D01*
X111346114Y-120473508D01*
X102156412Y-120473508D01*
X102074313Y-120060775D01*
X102059925Y-120026039D01*
X102025189Y-119942177D01*
X100659979Y-117898997D01*
X107563451Y-117898997D01*
X107693860Y-118214609D01*
X107935121Y-118456292D01*
X108250505Y-118587251D01*
X108591997Y-118587549D01*
X108907609Y-118457140D01*
X109149292Y-118215879D01*
X109280251Y-117900495D01*
X109280252Y-117898997D01*
X111155451Y-117898997D01*
X111285860Y-118214609D01*
X111527121Y-118456292D01*
X111842505Y-118587251D01*
X112183997Y-118587549D01*
X112499609Y-118457140D01*
X112741292Y-118215879D01*
X112872251Y-117900495D01*
X112872549Y-117559003D01*
X112742140Y-117243391D01*
X112586995Y-117087974D01*
X140411116Y-117087974D01*
X140484433Y-117265414D01*
X140620072Y-117401290D01*
X140797384Y-117474916D01*
X140989374Y-117475084D01*
X141166814Y-117401767D01*
X141302690Y-117266128D01*
X141376316Y-117088816D01*
X141376484Y-116896826D01*
X141303167Y-116719386D01*
X141167528Y-116583510D01*
X140990216Y-116509884D01*
X140798226Y-116509716D01*
X140620786Y-116583033D01*
X140484910Y-116718672D01*
X140411284Y-116895984D01*
X140411116Y-117087974D01*
X112586995Y-117087974D01*
X112500879Y-117001708D01*
X112185495Y-116870749D01*
X111844003Y-116870451D01*
X111528391Y-117000860D01*
X111286708Y-117242121D01*
X111155749Y-117557505D01*
X111155451Y-117898997D01*
X109280252Y-117898997D01*
X109280549Y-117559003D01*
X109150140Y-117243391D01*
X108908879Y-117001708D01*
X108593495Y-116870749D01*
X108252003Y-116870451D01*
X107936391Y-117000860D01*
X107694708Y-117242121D01*
X107563749Y-117557505D01*
X107563451Y-117898997D01*
X100659979Y-117898997D01*
X100648681Y-117882089D01*
X100557911Y-117791319D01*
X98497823Y-116414812D01*
X98379224Y-116365687D01*
X97668796Y-116224374D01*
X129616116Y-116224374D01*
X129689433Y-116401814D01*
X129825072Y-116537690D01*
X130002384Y-116611316D01*
X130194374Y-116611484D01*
X130371814Y-116538167D01*
X130507690Y-116402528D01*
X130581316Y-116225216D01*
X130581484Y-116033226D01*
X130508167Y-115855786D01*
X130372528Y-115719910D01*
X130195216Y-115646284D01*
X130003226Y-115646116D01*
X129825786Y-115719433D01*
X129689910Y-115855072D01*
X129616284Y-116032384D01*
X129616116Y-116224374D01*
X97668796Y-116224374D01*
X95949185Y-115882322D01*
X95916782Y-115882322D01*
X95885000Y-115876000D01*
X93293000Y-115876000D01*
X93293000Y-115462374D01*
X144195716Y-115462374D01*
X144269033Y-115639814D01*
X144404672Y-115775690D01*
X144581984Y-115849316D01*
X144773974Y-115849484D01*
X144951414Y-115776167D01*
X145087290Y-115640528D01*
X145160916Y-115463216D01*
X145161084Y-115271226D01*
X145087767Y-115093786D01*
X144952128Y-114957910D01*
X144774816Y-114884284D01*
X144582826Y-114884116D01*
X144405386Y-114957433D01*
X144269510Y-115093072D01*
X144195884Y-115270384D01*
X144195716Y-115462374D01*
X93293000Y-115462374D01*
X93293000Y-113531974D01*
X133045116Y-113531974D01*
X133118433Y-113709414D01*
X133254072Y-113845290D01*
X133431384Y-113918916D01*
X133623374Y-113919084D01*
X133800814Y-113845767D01*
X133936690Y-113710128D01*
X134010316Y-113532816D01*
X134010484Y-113340826D01*
X133937167Y-113163386D01*
X133801528Y-113027510D01*
X133731843Y-112998574D01*
X147802516Y-112998574D01*
X147875833Y-113176014D01*
X148011472Y-113311890D01*
X148188784Y-113385516D01*
X148380774Y-113385684D01*
X148558214Y-113312367D01*
X148694090Y-113176728D01*
X148767716Y-112999416D01*
X148767884Y-112807426D01*
X148694567Y-112629986D01*
X148558928Y-112494110D01*
X148381616Y-112420484D01*
X148189626Y-112420316D01*
X148012186Y-112493633D01*
X147876310Y-112629272D01*
X147802684Y-112806584D01*
X147802516Y-112998574D01*
X133731843Y-112998574D01*
X133624216Y-112953884D01*
X133432226Y-112953716D01*
X133254786Y-113027033D01*
X133118910Y-113162672D01*
X133045284Y-113339984D01*
X133045116Y-113531974D01*
X93293000Y-113531974D01*
X93293000Y-111855574D01*
X117500316Y-111855574D01*
X117573633Y-112033014D01*
X117709272Y-112168890D01*
X117886584Y-112242516D01*
X118078574Y-112242684D01*
X118256014Y-112169367D01*
X118391890Y-112033728D01*
X118465516Y-111856416D01*
X118465516Y-111855574D01*
X120167316Y-111855574D01*
X120240633Y-112033014D01*
X120376272Y-112168890D01*
X120553584Y-112242516D01*
X120745574Y-112242684D01*
X120923014Y-112169367D01*
X121058890Y-112033728D01*
X121132516Y-111856416D01*
X121132684Y-111664426D01*
X121059367Y-111486986D01*
X120923728Y-111351110D01*
X120746416Y-111277484D01*
X120554426Y-111277316D01*
X120376986Y-111350633D01*
X120241110Y-111486272D01*
X120167484Y-111663584D01*
X120167316Y-111855574D01*
X118465516Y-111855574D01*
X118465684Y-111664426D01*
X118392367Y-111486986D01*
X118256728Y-111351110D01*
X118079416Y-111277484D01*
X117887426Y-111277316D01*
X117709986Y-111350633D01*
X117574110Y-111486272D01*
X117500484Y-111663584D01*
X117500316Y-111855574D01*
X93293000Y-111855574D01*
X93293000Y-109213974D01*
X111556716Y-109213974D01*
X111630033Y-109391414D01*
X111765672Y-109527290D01*
X111942984Y-109600916D01*
X112134974Y-109601084D01*
X112312414Y-109527767D01*
X112448290Y-109392128D01*
X112521916Y-109214816D01*
X112522084Y-109022826D01*
X112448767Y-108845386D01*
X112360310Y-108756774D01*
X129616116Y-108756774D01*
X129689433Y-108934214D01*
X129825072Y-109070090D01*
X130002384Y-109143716D01*
X130194374Y-109143884D01*
X130371814Y-109070567D01*
X130507690Y-108934928D01*
X130581316Y-108757616D01*
X130581484Y-108565626D01*
X130508167Y-108388186D01*
X130372528Y-108252310D01*
X130195216Y-108178684D01*
X130003226Y-108178516D01*
X129825786Y-108251833D01*
X129689910Y-108387472D01*
X129616284Y-108564784D01*
X129616116Y-108756774D01*
X112360310Y-108756774D01*
X112313128Y-108709510D01*
X112135816Y-108635884D01*
X111943826Y-108635716D01*
X111766386Y-108709033D01*
X111630510Y-108844672D01*
X111556884Y-109021984D01*
X111556716Y-109213974D01*
X93293000Y-109213974D01*
X93293000Y-107689974D01*
X117500316Y-107689974D01*
X117573633Y-107867414D01*
X117709272Y-108003290D01*
X117886584Y-108076916D01*
X118078574Y-108077084D01*
X118256014Y-108003767D01*
X118391890Y-107868128D01*
X118465516Y-107690816D01*
X118465516Y-107689974D01*
X120167316Y-107689974D01*
X120240633Y-107867414D01*
X120376272Y-108003290D01*
X120553584Y-108076916D01*
X120745574Y-108077084D01*
X120923014Y-108003767D01*
X121058890Y-107868128D01*
X121122318Y-107715374D01*
X122961316Y-107715374D01*
X123034633Y-107892814D01*
X123170272Y-108028690D01*
X123347584Y-108102316D01*
X123539574Y-108102484D01*
X123717014Y-108029167D01*
X123852890Y-107893528D01*
X123926516Y-107716216D01*
X123926684Y-107524226D01*
X123853367Y-107346786D01*
X123717728Y-107210910D01*
X123540416Y-107137284D01*
X123348426Y-107137116D01*
X123170986Y-107210433D01*
X123035110Y-107346072D01*
X122961484Y-107523384D01*
X122961316Y-107715374D01*
X121122318Y-107715374D01*
X121132516Y-107690816D01*
X121132684Y-107498826D01*
X121059367Y-107321386D01*
X120923728Y-107185510D01*
X120746416Y-107111884D01*
X120554426Y-107111716D01*
X120376986Y-107185033D01*
X120241110Y-107320672D01*
X120167484Y-107497984D01*
X120167316Y-107689974D01*
X118465516Y-107689974D01*
X118465684Y-107498826D01*
X118392367Y-107321386D01*
X118256728Y-107185510D01*
X118079416Y-107111884D01*
X117887426Y-107111716D01*
X117709986Y-107185033D01*
X117574110Y-107320672D01*
X117500484Y-107497984D01*
X117500316Y-107689974D01*
X93293000Y-107689974D01*
X93293000Y-107061000D01*
X145193303Y-107061000D01*
X145271898Y-107456124D01*
X145495718Y-107791095D01*
X145830689Y-108014915D01*
X146225813Y-108093510D01*
X147804587Y-108093510D01*
X148199711Y-108014915D01*
X148534682Y-107791095D01*
X148758502Y-107456124D01*
X148837097Y-107061000D01*
X148758502Y-106665876D01*
X148534682Y-106330905D01*
X148199711Y-106107085D01*
X147804587Y-106028490D01*
X146225813Y-106028490D01*
X145830689Y-106107085D01*
X145495718Y-106330905D01*
X145271898Y-106665876D01*
X145193303Y-107061000D01*
X93293000Y-107061000D01*
X93293000Y-104521000D01*
X145193303Y-104521000D01*
X145271898Y-104916124D01*
X145495718Y-105251095D01*
X145830689Y-105474915D01*
X146225813Y-105553510D01*
X147804587Y-105553510D01*
X148199711Y-105474915D01*
X148534682Y-105251095D01*
X148758502Y-104916124D01*
X148837097Y-104521000D01*
X148758502Y-104125876D01*
X148534682Y-103790905D01*
X148199711Y-103567085D01*
X147804587Y-103488490D01*
X146225813Y-103488490D01*
X145830689Y-103567085D01*
X145495718Y-103790905D01*
X145271898Y-104125876D01*
X145193303Y-104521000D01*
X93293000Y-104521000D01*
X93293000Y-103371974D01*
X126644316Y-103371974D01*
X126717633Y-103549414D01*
X126853272Y-103685290D01*
X127030584Y-103758916D01*
X127222574Y-103759084D01*
X127400014Y-103685767D01*
X127535890Y-103550128D01*
X127609516Y-103372816D01*
X127609652Y-103217144D01*
X127690984Y-103250916D01*
X127882974Y-103251084D01*
X128060414Y-103177767D01*
X128196290Y-103042128D01*
X128269916Y-102864816D01*
X128270084Y-102672826D01*
X128196767Y-102495386D01*
X128061128Y-102359510D01*
X127883816Y-102285884D01*
X127691826Y-102285716D01*
X127514386Y-102359033D01*
X127378510Y-102494672D01*
X127304884Y-102671984D01*
X127304748Y-102827656D01*
X127223416Y-102793884D01*
X127031426Y-102793716D01*
X126853986Y-102867033D01*
X126718110Y-103002672D01*
X126644484Y-103179984D01*
X126644316Y-103371974D01*
X93293000Y-103371974D01*
X93293000Y-102609974D01*
X107035516Y-102609974D01*
X107108833Y-102787414D01*
X107244472Y-102923290D01*
X107421784Y-102996916D01*
X107613774Y-102997084D01*
X107791214Y-102923767D01*
X107927090Y-102788128D01*
X107937783Y-102762374D01*
X117678116Y-102762374D01*
X117751433Y-102939814D01*
X117887072Y-103075690D01*
X118064384Y-103149316D01*
X118256374Y-103149484D01*
X118433814Y-103076167D01*
X118569690Y-102940528D01*
X118643316Y-102763216D01*
X118643338Y-102736974D01*
X120014916Y-102736974D01*
X120088233Y-102914414D01*
X120223872Y-103050290D01*
X120401184Y-103123916D01*
X120593174Y-103124084D01*
X120770614Y-103050767D01*
X120906490Y-102915128D01*
X120980116Y-102737816D01*
X120980284Y-102545826D01*
X120906967Y-102368386D01*
X120771328Y-102232510D01*
X120594016Y-102158884D01*
X120402026Y-102158716D01*
X120224586Y-102232033D01*
X120088710Y-102367672D01*
X120015084Y-102544984D01*
X120014916Y-102736974D01*
X118643338Y-102736974D01*
X118643484Y-102571226D01*
X118570167Y-102393786D01*
X118434528Y-102257910D01*
X118257216Y-102184284D01*
X118065226Y-102184116D01*
X117887786Y-102257433D01*
X117751910Y-102393072D01*
X117678284Y-102570384D01*
X117678116Y-102762374D01*
X107937783Y-102762374D01*
X108000716Y-102610816D01*
X108000884Y-102418826D01*
X107927567Y-102241386D01*
X107791928Y-102105510D01*
X107614616Y-102031884D01*
X107422626Y-102031716D01*
X107245186Y-102105033D01*
X107109310Y-102240672D01*
X107035684Y-102417984D01*
X107035516Y-102609974D01*
X93293000Y-102609974D01*
X93293000Y-101898774D01*
X125171116Y-101898774D01*
X125244433Y-102076214D01*
X125380072Y-102212090D01*
X125557384Y-102285716D01*
X125749374Y-102285884D01*
X125926814Y-102212567D01*
X126062690Y-102076928D01*
X126102522Y-101981000D01*
X145193303Y-101981000D01*
X145271898Y-102376124D01*
X145495718Y-102711095D01*
X145830689Y-102934915D01*
X146225813Y-103013510D01*
X147804587Y-103013510D01*
X148199711Y-102934915D01*
X148534682Y-102711095D01*
X148758502Y-102376124D01*
X148837097Y-101981000D01*
X148758502Y-101585876D01*
X148534682Y-101250905D01*
X148199711Y-101027085D01*
X147804587Y-100948490D01*
X146225813Y-100948490D01*
X145830689Y-101027085D01*
X145495718Y-101250905D01*
X145271898Y-101585876D01*
X145193303Y-101981000D01*
X126102522Y-101981000D01*
X126136316Y-101899616D01*
X126136484Y-101707626D01*
X126068534Y-101543174D01*
X130936916Y-101543174D01*
X131010233Y-101720614D01*
X131145872Y-101856490D01*
X131323184Y-101930116D01*
X131515174Y-101930284D01*
X131692614Y-101856967D01*
X131828490Y-101721328D01*
X131902116Y-101544016D01*
X131902116Y-101543174D01*
X132714916Y-101543174D01*
X132788233Y-101720614D01*
X132923872Y-101856490D01*
X133101184Y-101930116D01*
X133293174Y-101930284D01*
X133470614Y-101856967D01*
X133606490Y-101721328D01*
X133680116Y-101544016D01*
X133680116Y-101543174D01*
X134365916Y-101543174D01*
X134439233Y-101720614D01*
X134574872Y-101856490D01*
X134752184Y-101930116D01*
X134944174Y-101930284D01*
X135121614Y-101856967D01*
X135257490Y-101721328D01*
X135331116Y-101544016D01*
X135331284Y-101352026D01*
X135257967Y-101174586D01*
X135122328Y-101038710D01*
X134945016Y-100965084D01*
X134753026Y-100964916D01*
X134575586Y-101038233D01*
X134439710Y-101173872D01*
X134366084Y-101351184D01*
X134365916Y-101543174D01*
X133680116Y-101543174D01*
X133680284Y-101352026D01*
X133606967Y-101174586D01*
X133471328Y-101038710D01*
X133294016Y-100965084D01*
X133102026Y-100964916D01*
X132924586Y-101038233D01*
X132788710Y-101173872D01*
X132715084Y-101351184D01*
X132714916Y-101543174D01*
X131902116Y-101543174D01*
X131902284Y-101352026D01*
X131828967Y-101174586D01*
X131693328Y-101038710D01*
X131516016Y-100965084D01*
X131324026Y-100964916D01*
X131146586Y-101038233D01*
X131010710Y-101173872D01*
X130937084Y-101351184D01*
X130936916Y-101543174D01*
X126068534Y-101543174D01*
X126063167Y-101530186D01*
X125927528Y-101394310D01*
X125750216Y-101320684D01*
X125558226Y-101320516D01*
X125380786Y-101393833D01*
X125244910Y-101529472D01*
X125171284Y-101706784D01*
X125171116Y-101898774D01*
X93293000Y-101898774D01*
X93293000Y-101492374D01*
X112039316Y-101492374D01*
X112112633Y-101669814D01*
X112248272Y-101805690D01*
X112425584Y-101879316D01*
X112617574Y-101879484D01*
X112795014Y-101806167D01*
X112930890Y-101670528D01*
X113004516Y-101493216D01*
X113004516Y-101492374D01*
X114452316Y-101492374D01*
X114525633Y-101669814D01*
X114661272Y-101805690D01*
X114838584Y-101879316D01*
X115030574Y-101879484D01*
X115208014Y-101806167D01*
X115343890Y-101670528D01*
X115417516Y-101493216D01*
X115417672Y-101314574D01*
X116230316Y-101314574D01*
X116303633Y-101492014D01*
X116439272Y-101627890D01*
X116616584Y-101701516D01*
X116808574Y-101701684D01*
X116986014Y-101628367D01*
X117121890Y-101492728D01*
X117195516Y-101315416D01*
X117195684Y-101123426D01*
X117122367Y-100945986D01*
X116986728Y-100810110D01*
X116809416Y-100736484D01*
X116617426Y-100736316D01*
X116439986Y-100809633D01*
X116304110Y-100945272D01*
X116230484Y-101122584D01*
X116230316Y-101314574D01*
X115417672Y-101314574D01*
X115417684Y-101301226D01*
X115344367Y-101123786D01*
X115208728Y-100987910D01*
X115031416Y-100914284D01*
X114839426Y-100914116D01*
X114661986Y-100987433D01*
X114526110Y-101123072D01*
X114452484Y-101300384D01*
X114452316Y-101492374D01*
X113004516Y-101492374D01*
X113004684Y-101301226D01*
X112931367Y-101123786D01*
X112795728Y-100987910D01*
X112618416Y-100914284D01*
X112426426Y-100914116D01*
X112248986Y-100987433D01*
X112113110Y-101123072D01*
X112039484Y-101300384D01*
X112039316Y-101492374D01*
X93293000Y-101492374D01*
X93293000Y-100654174D01*
X102946116Y-100654174D01*
X103019433Y-100831614D01*
X103155072Y-100967490D01*
X103332384Y-101041116D01*
X103524374Y-101041284D01*
X103701814Y-100967967D01*
X103837690Y-100832328D01*
X103911316Y-100655016D01*
X103911484Y-100463026D01*
X103838167Y-100285586D01*
X103702528Y-100149710D01*
X103525216Y-100076084D01*
X103333226Y-100075916D01*
X103155786Y-100149233D01*
X103019910Y-100284872D01*
X102946284Y-100462184D01*
X102946116Y-100654174D01*
X93293000Y-100654174D01*
X93293000Y-100120774D01*
X100914116Y-100120774D01*
X100987433Y-100298214D01*
X101123072Y-100434090D01*
X101300384Y-100507716D01*
X101492374Y-100507884D01*
X101669814Y-100434567D01*
X101805690Y-100298928D01*
X101879316Y-100121616D01*
X101879484Y-99929626D01*
X101806167Y-99752186D01*
X101717710Y-99663574D01*
X101828516Y-99663574D01*
X101901833Y-99841014D01*
X102037472Y-99976890D01*
X102214784Y-100050516D01*
X102406774Y-100050684D01*
X102584214Y-99977367D01*
X102720090Y-99841728D01*
X102793716Y-99664416D01*
X102793884Y-99472426D01*
X102720567Y-99294986D01*
X102584928Y-99159110D01*
X102407616Y-99085484D01*
X102215626Y-99085316D01*
X102038186Y-99158633D01*
X101902310Y-99294272D01*
X101828684Y-99471584D01*
X101828516Y-99663574D01*
X101717710Y-99663574D01*
X101670528Y-99616310D01*
X101493216Y-99542684D01*
X101301226Y-99542516D01*
X101123786Y-99615833D01*
X100987910Y-99751472D01*
X100914284Y-99928784D01*
X100914116Y-100120774D01*
X93293000Y-100120774D01*
X93293000Y-97656974D01*
X98475716Y-97656974D01*
X98549033Y-97834414D01*
X98684672Y-97970290D01*
X98861984Y-98043916D01*
X99053974Y-98044084D01*
X99142714Y-98007417D01*
X99142296Y-98486894D01*
X99365140Y-99026218D01*
X99777412Y-99439210D01*
X100316345Y-99662995D01*
X100899894Y-99663504D01*
X101439218Y-99440660D01*
X101852210Y-99028388D01*
X102075995Y-98489455D01*
X102076114Y-98352336D01*
X102361864Y-98352336D01*
X102481486Y-98641844D01*
X102702791Y-98863536D01*
X102868246Y-98932239D01*
X102844684Y-98988984D01*
X102844516Y-99180974D01*
X102917833Y-99358414D01*
X103053472Y-99494290D01*
X103230784Y-99567916D01*
X103422774Y-99568084D01*
X103600214Y-99494767D01*
X103736090Y-99359128D01*
X103809716Y-99181816D01*
X103809884Y-98989826D01*
X103736567Y-98812386D01*
X103691793Y-98767534D01*
X103816536Y-98643009D01*
X103881360Y-98486894D01*
X104222296Y-98486894D01*
X104445140Y-99026218D01*
X104857412Y-99439210D01*
X105396345Y-99662995D01*
X105979894Y-99663504D01*
X106519218Y-99440660D01*
X106524913Y-99434974D01*
X123596316Y-99434974D01*
X123669633Y-99612414D01*
X123805272Y-99748290D01*
X123982584Y-99821916D01*
X124174574Y-99822084D01*
X124352014Y-99748767D01*
X124487890Y-99613128D01*
X124559363Y-99441000D01*
X145193303Y-99441000D01*
X145271898Y-99836124D01*
X145495718Y-100171095D01*
X145830689Y-100394915D01*
X146225813Y-100473510D01*
X147804587Y-100473510D01*
X148199711Y-100394915D01*
X148534682Y-100171095D01*
X148758502Y-99836124D01*
X148837097Y-99441000D01*
X148758502Y-99045876D01*
X148534682Y-98710905D01*
X148199711Y-98487085D01*
X147804587Y-98408490D01*
X146225813Y-98408490D01*
X145830689Y-98487085D01*
X145495718Y-98710905D01*
X145271898Y-99045876D01*
X145193303Y-99441000D01*
X124559363Y-99441000D01*
X124561516Y-99435816D01*
X124561684Y-99243826D01*
X124488367Y-99066386D01*
X124352728Y-98930510D01*
X124175416Y-98856884D01*
X123983426Y-98856716D01*
X123805986Y-98930033D01*
X123670110Y-99065672D01*
X123596484Y-99242984D01*
X123596316Y-99434974D01*
X106524913Y-99434974D01*
X106932210Y-99028388D01*
X107155995Y-98489455D01*
X107156122Y-98342774D01*
X108965916Y-98342774D01*
X109039233Y-98520214D01*
X109174872Y-98656090D01*
X109352184Y-98729716D01*
X109544174Y-98729884D01*
X109721614Y-98656567D01*
X109857490Y-98520928D01*
X109931116Y-98343616D01*
X109931161Y-98291974D01*
X113258516Y-98291974D01*
X113331833Y-98469414D01*
X113467472Y-98605290D01*
X113644784Y-98678916D01*
X113836774Y-98679084D01*
X114014214Y-98605767D01*
X114150090Y-98470128D01*
X114223716Y-98292816D01*
X114223884Y-98100826D01*
X114150567Y-97923386D01*
X114014928Y-97787510D01*
X113837616Y-97713884D01*
X113645626Y-97713716D01*
X113468186Y-97787033D01*
X113332310Y-97922672D01*
X113258684Y-98099984D01*
X113258516Y-98291974D01*
X109931161Y-98291974D01*
X109931284Y-98151626D01*
X109857967Y-97974186D01*
X109722328Y-97838310D01*
X109545016Y-97764684D01*
X109353026Y-97764516D01*
X109175586Y-97837833D01*
X109039710Y-97973472D01*
X108966084Y-98150784D01*
X108965916Y-98342774D01*
X107156122Y-98342774D01*
X107156504Y-97905906D01*
X106933660Y-97366582D01*
X106521388Y-96953590D01*
X105982455Y-96729805D01*
X105398906Y-96729296D01*
X104859582Y-96952140D01*
X104446590Y-97364412D01*
X104222805Y-97903345D01*
X104222296Y-98486894D01*
X103881360Y-98486894D01*
X103936663Y-98353711D01*
X103936936Y-98040464D01*
X103817314Y-97750956D01*
X103596009Y-97529264D01*
X103306711Y-97409137D01*
X102993464Y-97408864D01*
X102703956Y-97528486D01*
X102482264Y-97749791D01*
X102362137Y-98039089D01*
X102361864Y-98352336D01*
X102076114Y-98352336D01*
X102076504Y-97905906D01*
X101853660Y-97366582D01*
X101519459Y-97031797D01*
X101644414Y-96980167D01*
X101780290Y-96844528D01*
X101853916Y-96667216D01*
X101854084Y-96475226D01*
X101780767Y-96297786D01*
X101645128Y-96161910D01*
X101573107Y-96132004D01*
X101852210Y-95853388D01*
X102075995Y-95314455D01*
X102075997Y-95311894D01*
X104222296Y-95311894D01*
X104445140Y-95851218D01*
X104857412Y-96264210D01*
X105396345Y-96487995D01*
X105979894Y-96488504D01*
X106519218Y-96265660D01*
X106601247Y-96183774D01*
X117805116Y-96183774D01*
X117878433Y-96361214D01*
X118014072Y-96497090D01*
X118191384Y-96570716D01*
X118211600Y-96570734D01*
X118211516Y-96666374D01*
X118284833Y-96843814D01*
X118420472Y-96979690D01*
X118597784Y-97053316D01*
X118789774Y-97053484D01*
X118967214Y-96980167D01*
X119103090Y-96844528D01*
X119104378Y-96841424D01*
X120667666Y-96841424D01*
X120740983Y-97018864D01*
X120876622Y-97154740D01*
X121053934Y-97228366D01*
X121245924Y-97228534D01*
X121423364Y-97155217D01*
X121559240Y-97019578D01*
X121632866Y-96842266D01*
X121632866Y-96841424D01*
X121955166Y-96841424D01*
X122028483Y-97018864D01*
X122164122Y-97154740D01*
X122341434Y-97228366D01*
X122533424Y-97228534D01*
X122710864Y-97155217D01*
X122846740Y-97019578D01*
X122920366Y-96842266D01*
X122920366Y-96841424D01*
X123242666Y-96841424D01*
X123315983Y-97018864D01*
X123451622Y-97154740D01*
X123628934Y-97228366D01*
X123820924Y-97228534D01*
X123998364Y-97155217D01*
X124134240Y-97019578D01*
X124207866Y-96842266D01*
X124207866Y-96841424D01*
X124530166Y-96841424D01*
X124603483Y-97018864D01*
X124739122Y-97154740D01*
X124916434Y-97228366D01*
X125108424Y-97228534D01*
X125285864Y-97155217D01*
X125421740Y-97019578D01*
X125495366Y-96842266D01*
X125495408Y-96793374D01*
X140207916Y-96793374D01*
X140281233Y-96970814D01*
X140416872Y-97106690D01*
X140594184Y-97180316D01*
X140786174Y-97180484D01*
X140963614Y-97107167D01*
X141099490Y-96971528D01*
X141128775Y-96901000D01*
X145193303Y-96901000D01*
X145271898Y-97296124D01*
X145495718Y-97631095D01*
X145830689Y-97854915D01*
X146225813Y-97933510D01*
X147804587Y-97933510D01*
X148199711Y-97854915D01*
X148534682Y-97631095D01*
X148758502Y-97296124D01*
X148837097Y-96901000D01*
X148758502Y-96505876D01*
X148534682Y-96170905D01*
X148199711Y-95947085D01*
X147804587Y-95868490D01*
X146225813Y-95868490D01*
X145830689Y-95947085D01*
X145495718Y-96170905D01*
X145271898Y-96505876D01*
X145193303Y-96901000D01*
X141128775Y-96901000D01*
X141173116Y-96794216D01*
X141173284Y-96602226D01*
X141099967Y-96424786D01*
X140964328Y-96288910D01*
X140787016Y-96215284D01*
X140595026Y-96215116D01*
X140417586Y-96288433D01*
X140281710Y-96424072D01*
X140208084Y-96601384D01*
X140207916Y-96793374D01*
X125495408Y-96793374D01*
X125495534Y-96650276D01*
X125422217Y-96472836D01*
X125286578Y-96336960D01*
X125109266Y-96263334D01*
X124917276Y-96263166D01*
X124739836Y-96336483D01*
X124603960Y-96472122D01*
X124530334Y-96649434D01*
X124530166Y-96841424D01*
X124207866Y-96841424D01*
X124208034Y-96650276D01*
X124134717Y-96472836D01*
X123999078Y-96336960D01*
X123821766Y-96263334D01*
X123629776Y-96263166D01*
X123452336Y-96336483D01*
X123316460Y-96472122D01*
X123242834Y-96649434D01*
X123242666Y-96841424D01*
X122920366Y-96841424D01*
X122920534Y-96650276D01*
X122847217Y-96472836D01*
X122711578Y-96336960D01*
X122534266Y-96263334D01*
X122342276Y-96263166D01*
X122164836Y-96336483D01*
X122028960Y-96472122D01*
X121955334Y-96649434D01*
X121955166Y-96841424D01*
X121632866Y-96841424D01*
X121633034Y-96650276D01*
X121559717Y-96472836D01*
X121424078Y-96336960D01*
X121246766Y-96263334D01*
X121054776Y-96263166D01*
X120877336Y-96336483D01*
X120741460Y-96472122D01*
X120667834Y-96649434D01*
X120667666Y-96841424D01*
X119104378Y-96841424D01*
X119176716Y-96667216D01*
X119176884Y-96475226D01*
X119103567Y-96297786D01*
X118967928Y-96161910D01*
X118790616Y-96088284D01*
X118770400Y-96088266D01*
X118770484Y-95992626D01*
X118697167Y-95815186D01*
X118561528Y-95679310D01*
X118384216Y-95605684D01*
X118192226Y-95605516D01*
X118014786Y-95678833D01*
X117878910Y-95814472D01*
X117805284Y-95991784D01*
X117805116Y-96183774D01*
X106601247Y-96183774D01*
X106932210Y-95853388D01*
X107056558Y-95553924D01*
X120667666Y-95553924D01*
X120740983Y-95731364D01*
X120876622Y-95867240D01*
X121053934Y-95940866D01*
X121245924Y-95941034D01*
X121423364Y-95867717D01*
X121559240Y-95732078D01*
X121632866Y-95554766D01*
X121632866Y-95553924D01*
X121955166Y-95553924D01*
X122028483Y-95731364D01*
X122164122Y-95867240D01*
X122341434Y-95940866D01*
X122533424Y-95941034D01*
X122710864Y-95867717D01*
X122846740Y-95732078D01*
X122920366Y-95554766D01*
X122920366Y-95553924D01*
X123242666Y-95553924D01*
X123315983Y-95731364D01*
X123451622Y-95867240D01*
X123628934Y-95940866D01*
X123820924Y-95941034D01*
X123998364Y-95867717D01*
X124134240Y-95732078D01*
X124207866Y-95554766D01*
X124207866Y-95553924D01*
X124530166Y-95553924D01*
X124603483Y-95731364D01*
X124739122Y-95867240D01*
X124916434Y-95940866D01*
X125108424Y-95941034D01*
X125285864Y-95867717D01*
X125376364Y-95777374D01*
X127228516Y-95777374D01*
X127301833Y-95954814D01*
X127437472Y-96090690D01*
X127614784Y-96164316D01*
X127806774Y-96164484D01*
X127984214Y-96091167D01*
X128120090Y-95955528D01*
X128193716Y-95778216D01*
X128193827Y-95650374D01*
X130911516Y-95650374D01*
X130984833Y-95827814D01*
X131120472Y-95963690D01*
X131297784Y-96037316D01*
X131489774Y-96037484D01*
X131667214Y-95964167D01*
X131803090Y-95828528D01*
X131855971Y-95701174D01*
X136194716Y-95701174D01*
X136268033Y-95878614D01*
X136403672Y-96014490D01*
X136580984Y-96088116D01*
X136772974Y-96088284D01*
X136950414Y-96014967D01*
X137086290Y-95879328D01*
X137159916Y-95702016D01*
X137159938Y-95675774D01*
X137921916Y-95675774D01*
X137995233Y-95853214D01*
X138130872Y-95989090D01*
X138308184Y-96062716D01*
X138500174Y-96062884D01*
X138677614Y-95989567D01*
X138813490Y-95853928D01*
X138887116Y-95676616D01*
X138887227Y-95548774D01*
X141554116Y-95548774D01*
X141627433Y-95726214D01*
X141763072Y-95862090D01*
X141940384Y-95935716D01*
X142132374Y-95935884D01*
X142309814Y-95862567D01*
X142445690Y-95726928D01*
X142519316Y-95549616D01*
X142519484Y-95357626D01*
X142446167Y-95180186D01*
X142310528Y-95044310D01*
X142133216Y-94970684D01*
X141941226Y-94970516D01*
X141763786Y-95043833D01*
X141627910Y-95179472D01*
X141554284Y-95356784D01*
X141554116Y-95548774D01*
X138887227Y-95548774D01*
X138887284Y-95484626D01*
X138813967Y-95307186D01*
X138678328Y-95171310D01*
X138501016Y-95097684D01*
X138309026Y-95097516D01*
X138131586Y-95170833D01*
X137995710Y-95306472D01*
X137922084Y-95483784D01*
X137921916Y-95675774D01*
X137159938Y-95675774D01*
X137160084Y-95510026D01*
X137086767Y-95332586D01*
X136951128Y-95196710D01*
X136773816Y-95123084D01*
X136581826Y-95122916D01*
X136404386Y-95196233D01*
X136268510Y-95331872D01*
X136194884Y-95509184D01*
X136194716Y-95701174D01*
X131855971Y-95701174D01*
X131876716Y-95651216D01*
X131876884Y-95459226D01*
X131803567Y-95281786D01*
X131667928Y-95145910D01*
X131490616Y-95072284D01*
X131298626Y-95072116D01*
X131121186Y-95145433D01*
X130985310Y-95281072D01*
X130911684Y-95458384D01*
X130911516Y-95650374D01*
X128193827Y-95650374D01*
X128193884Y-95586226D01*
X128120567Y-95408786D01*
X127984928Y-95272910D01*
X127807616Y-95199284D01*
X127615626Y-95199116D01*
X127438186Y-95272433D01*
X127302310Y-95408072D01*
X127228684Y-95585384D01*
X127228516Y-95777374D01*
X125376364Y-95777374D01*
X125421740Y-95732078D01*
X125495366Y-95554766D01*
X125495534Y-95362776D01*
X125422217Y-95185336D01*
X125286578Y-95049460D01*
X125109266Y-94975834D01*
X124917276Y-94975666D01*
X124739836Y-95048983D01*
X124603960Y-95184622D01*
X124530334Y-95361934D01*
X124530166Y-95553924D01*
X124207866Y-95553924D01*
X124208034Y-95362776D01*
X124134717Y-95185336D01*
X123999078Y-95049460D01*
X123821766Y-94975834D01*
X123629776Y-94975666D01*
X123452336Y-95048983D01*
X123316460Y-95184622D01*
X123242834Y-95361934D01*
X123242666Y-95553924D01*
X122920366Y-95553924D01*
X122920534Y-95362776D01*
X122847217Y-95185336D01*
X122711578Y-95049460D01*
X122534266Y-94975834D01*
X122342276Y-94975666D01*
X122164836Y-95048983D01*
X122028960Y-95184622D01*
X121955334Y-95361934D01*
X121955166Y-95553924D01*
X121632866Y-95553924D01*
X121633034Y-95362776D01*
X121559717Y-95185336D01*
X121424078Y-95049460D01*
X121246766Y-94975834D01*
X121054776Y-94975666D01*
X120877336Y-95048983D01*
X120741460Y-95184622D01*
X120667834Y-95361934D01*
X120667666Y-95553924D01*
X107056558Y-95553924D01*
X107155995Y-95314455D01*
X107156233Y-95040774D01*
X116281116Y-95040774D01*
X116354433Y-95218214D01*
X116490072Y-95354090D01*
X116667384Y-95427716D01*
X116859374Y-95427884D01*
X117036814Y-95354567D01*
X117172690Y-95218928D01*
X117246316Y-95041616D01*
X117246484Y-94849626D01*
X117173167Y-94672186D01*
X117037528Y-94536310D01*
X116860216Y-94462684D01*
X116668226Y-94462516D01*
X116490786Y-94535833D01*
X116354910Y-94671472D01*
X116281284Y-94848784D01*
X116281116Y-95040774D01*
X107156233Y-95040774D01*
X107156504Y-94730906D01*
X106964585Y-94266424D01*
X120667666Y-94266424D01*
X120740983Y-94443864D01*
X120876622Y-94579740D01*
X121053934Y-94653366D01*
X121245924Y-94653534D01*
X121423364Y-94580217D01*
X121559240Y-94444578D01*
X121632866Y-94267266D01*
X121632866Y-94266424D01*
X121955166Y-94266424D01*
X122028483Y-94443864D01*
X122164122Y-94579740D01*
X122341434Y-94653366D01*
X122533424Y-94653534D01*
X122710864Y-94580217D01*
X122846740Y-94444578D01*
X122920366Y-94267266D01*
X122920366Y-94266424D01*
X123242666Y-94266424D01*
X123315983Y-94443864D01*
X123451622Y-94579740D01*
X123628934Y-94653366D01*
X123820924Y-94653534D01*
X123998364Y-94580217D01*
X124134240Y-94444578D01*
X124207866Y-94267266D01*
X124207866Y-94266424D01*
X124530166Y-94266424D01*
X124603483Y-94443864D01*
X124739122Y-94579740D01*
X124916434Y-94653366D01*
X125108424Y-94653534D01*
X125285864Y-94580217D01*
X125421740Y-94444578D01*
X125495366Y-94267266D01*
X125495467Y-94151774D01*
X142976516Y-94151774D01*
X143049833Y-94329214D01*
X143185472Y-94465090D01*
X143362784Y-94538716D01*
X143554774Y-94538884D01*
X143732214Y-94465567D01*
X143836963Y-94361000D01*
X145193303Y-94361000D01*
X145271898Y-94756124D01*
X145495718Y-95091095D01*
X145830689Y-95314915D01*
X146225813Y-95393510D01*
X147804587Y-95393510D01*
X148199711Y-95314915D01*
X148534682Y-95091095D01*
X148758502Y-94756124D01*
X148837097Y-94361000D01*
X148758502Y-93965876D01*
X148534682Y-93630905D01*
X148199711Y-93407085D01*
X147804587Y-93328490D01*
X146225813Y-93328490D01*
X145830689Y-93407085D01*
X145495718Y-93630905D01*
X145271898Y-93965876D01*
X145193303Y-94361000D01*
X143836963Y-94361000D01*
X143868090Y-94329928D01*
X143941716Y-94152616D01*
X143941884Y-93960626D01*
X143868567Y-93783186D01*
X143732928Y-93647310D01*
X143555616Y-93573684D01*
X143363626Y-93573516D01*
X143186186Y-93646833D01*
X143050310Y-93782472D01*
X142976684Y-93959784D01*
X142976516Y-94151774D01*
X125495467Y-94151774D01*
X125495534Y-94075276D01*
X125422217Y-93897836D01*
X125286578Y-93761960D01*
X125109266Y-93688334D01*
X124917276Y-93688166D01*
X124739836Y-93761483D01*
X124603960Y-93897122D01*
X124530334Y-94074434D01*
X124530166Y-94266424D01*
X124207866Y-94266424D01*
X124208034Y-94075276D01*
X124134717Y-93897836D01*
X123999078Y-93761960D01*
X123821766Y-93688334D01*
X123629776Y-93688166D01*
X123452336Y-93761483D01*
X123316460Y-93897122D01*
X123242834Y-94074434D01*
X123242666Y-94266424D01*
X122920366Y-94266424D01*
X122920534Y-94075276D01*
X122847217Y-93897836D01*
X122711578Y-93761960D01*
X122534266Y-93688334D01*
X122342276Y-93688166D01*
X122164836Y-93761483D01*
X122028960Y-93897122D01*
X121955334Y-94074434D01*
X121955166Y-94266424D01*
X121632866Y-94266424D01*
X121633034Y-94075276D01*
X121559717Y-93897836D01*
X121424078Y-93761960D01*
X121246766Y-93688334D01*
X121054776Y-93688166D01*
X120877336Y-93761483D01*
X120741460Y-93897122D01*
X120667834Y-94074434D01*
X120667666Y-94266424D01*
X106964585Y-94266424D01*
X106933660Y-94191582D01*
X106521388Y-93778590D01*
X105982455Y-93554805D01*
X105398906Y-93554296D01*
X104859582Y-93777140D01*
X104446590Y-94189412D01*
X104222805Y-94728345D01*
X104222296Y-95311894D01*
X102075997Y-95311894D01*
X102076504Y-94730906D01*
X101853660Y-94191582D01*
X101441388Y-93778590D01*
X100902455Y-93554805D01*
X100318906Y-93554296D01*
X99779582Y-93777140D01*
X99366590Y-94189412D01*
X99142805Y-94728345D01*
X99142296Y-95311894D01*
X99365140Y-95851218D01*
X99777412Y-96264210D01*
X100316345Y-96487995D01*
X100888872Y-96488494D01*
X100888716Y-96666374D01*
X100917508Y-96736056D01*
X100902455Y-96729805D01*
X100318906Y-96729296D01*
X99779582Y-96952140D01*
X99389663Y-97341379D01*
X99367767Y-97288386D01*
X99232128Y-97152510D01*
X99054816Y-97078884D01*
X98862826Y-97078716D01*
X98685386Y-97152033D01*
X98549510Y-97287672D01*
X98475884Y-97464984D01*
X98475716Y-97656974D01*
X93293000Y-97656974D01*
X93293000Y-93272336D01*
X101345864Y-93272336D01*
X101465486Y-93561844D01*
X101686791Y-93783536D01*
X101976089Y-93903663D01*
X102289336Y-93903936D01*
X102578844Y-93784314D01*
X102800536Y-93563009D01*
X102920663Y-93273711D01*
X102920664Y-93272336D01*
X103377864Y-93272336D01*
X103497486Y-93561844D01*
X103718791Y-93783536D01*
X104008089Y-93903663D01*
X104321336Y-93903936D01*
X104610844Y-93784314D01*
X104832536Y-93563009D01*
X104952663Y-93273711D01*
X104952919Y-92978924D01*
X120667666Y-92978924D01*
X120740983Y-93156364D01*
X120876622Y-93292240D01*
X121053934Y-93365866D01*
X121245924Y-93366034D01*
X121423364Y-93292717D01*
X121559240Y-93157078D01*
X121632866Y-92979766D01*
X121632866Y-92978924D01*
X121955166Y-92978924D01*
X122028483Y-93156364D01*
X122164122Y-93292240D01*
X122341434Y-93365866D01*
X122533424Y-93366034D01*
X122710864Y-93292717D01*
X122846740Y-93157078D01*
X122920366Y-92979766D01*
X122920366Y-92978924D01*
X123242666Y-92978924D01*
X123315983Y-93156364D01*
X123451622Y-93292240D01*
X123628934Y-93365866D01*
X123820924Y-93366034D01*
X123998364Y-93292717D01*
X124134240Y-93157078D01*
X124207866Y-92979766D01*
X124207866Y-92978924D01*
X124530166Y-92978924D01*
X124603483Y-93156364D01*
X124739122Y-93292240D01*
X124916434Y-93365866D01*
X125108424Y-93366034D01*
X125285864Y-93292717D01*
X125418638Y-93160174D01*
X137997116Y-93160174D01*
X138070433Y-93337614D01*
X138206072Y-93473490D01*
X138383384Y-93547116D01*
X138575374Y-93547284D01*
X138752814Y-93473967D01*
X138888690Y-93338328D01*
X138962316Y-93161016D01*
X138962484Y-92969026D01*
X138889167Y-92791586D01*
X138753528Y-92655710D01*
X138576216Y-92582084D01*
X138384226Y-92581916D01*
X138206786Y-92655233D01*
X138070910Y-92790872D01*
X137997284Y-92968184D01*
X137997116Y-93160174D01*
X125418638Y-93160174D01*
X125421740Y-93157078D01*
X125495366Y-92979766D01*
X125495534Y-92787776D01*
X125439918Y-92653174D01*
X132003716Y-92653174D01*
X132077033Y-92830614D01*
X132212672Y-92966490D01*
X132389984Y-93040116D01*
X132581974Y-93040284D01*
X132759414Y-92966967D01*
X132895290Y-92831328D01*
X132968916Y-92654016D01*
X132969084Y-92462026D01*
X132895767Y-92284586D01*
X132760128Y-92148710D01*
X132582816Y-92075084D01*
X132390826Y-92074916D01*
X132213386Y-92148233D01*
X132077510Y-92283872D01*
X132003884Y-92461184D01*
X132003716Y-92653174D01*
X125439918Y-92653174D01*
X125422217Y-92610336D01*
X125286578Y-92474460D01*
X125109266Y-92400834D01*
X124917276Y-92400666D01*
X124739836Y-92473983D01*
X124603960Y-92609622D01*
X124530334Y-92786934D01*
X124530166Y-92978924D01*
X124207866Y-92978924D01*
X124208034Y-92787776D01*
X124134717Y-92610336D01*
X123999078Y-92474460D01*
X123821766Y-92400834D01*
X123629776Y-92400666D01*
X123452336Y-92473983D01*
X123316460Y-92609622D01*
X123242834Y-92786934D01*
X123242666Y-92978924D01*
X122920366Y-92978924D01*
X122920534Y-92787776D01*
X122847217Y-92610336D01*
X122711578Y-92474460D01*
X122534266Y-92400834D01*
X122342276Y-92400666D01*
X122164836Y-92473983D01*
X122028960Y-92609622D01*
X121955334Y-92786934D01*
X121955166Y-92978924D01*
X121632866Y-92978924D01*
X121633034Y-92787776D01*
X121559717Y-92610336D01*
X121424078Y-92474460D01*
X121246766Y-92400834D01*
X121054776Y-92400666D01*
X120877336Y-92473983D01*
X120741460Y-92609622D01*
X120667834Y-92786934D01*
X120667666Y-92978924D01*
X104952919Y-92978924D01*
X104952936Y-92960464D01*
X104833314Y-92670956D01*
X104714141Y-92551574D01*
X105765516Y-92551574D01*
X105838833Y-92729014D01*
X105974472Y-92864890D01*
X106151784Y-92938516D01*
X106343774Y-92938684D01*
X106521214Y-92865367D01*
X106657090Y-92729728D01*
X106730716Y-92552416D01*
X106730716Y-92551574D01*
X109702516Y-92551574D01*
X109775833Y-92729014D01*
X109911472Y-92864890D01*
X110088784Y-92938516D01*
X110280774Y-92938684D01*
X110458214Y-92865367D01*
X110594090Y-92729728D01*
X110667716Y-92552416D01*
X110667738Y-92526174D01*
X114122116Y-92526174D01*
X114195433Y-92703614D01*
X114331072Y-92839490D01*
X114508384Y-92913116D01*
X114700374Y-92913284D01*
X114877814Y-92839967D01*
X115013690Y-92704328D01*
X115087316Y-92527016D01*
X115087484Y-92335026D01*
X115014167Y-92157586D01*
X115001777Y-92145174D01*
X128422316Y-92145174D01*
X128495633Y-92322614D01*
X128631272Y-92458490D01*
X128808584Y-92532116D01*
X129000574Y-92532284D01*
X129178014Y-92458967D01*
X129313890Y-92323328D01*
X129387516Y-92146016D01*
X129387684Y-91954026D01*
X129314367Y-91776586D01*
X129178728Y-91640710D01*
X129001416Y-91567084D01*
X128809426Y-91566916D01*
X128631986Y-91640233D01*
X128496110Y-91775872D01*
X128422484Y-91953184D01*
X128422316Y-92145174D01*
X115001777Y-92145174D01*
X114878528Y-92021710D01*
X114701216Y-91948084D01*
X114509226Y-91947916D01*
X114331786Y-92021233D01*
X114195910Y-92156872D01*
X114122284Y-92334184D01*
X114122116Y-92526174D01*
X110667738Y-92526174D01*
X110667884Y-92360426D01*
X110594567Y-92182986D01*
X110458928Y-92047110D01*
X110281616Y-91973484D01*
X110089626Y-91973316D01*
X109912186Y-92046633D01*
X109776310Y-92182272D01*
X109702684Y-92359584D01*
X109702516Y-92551574D01*
X106730716Y-92551574D01*
X106730884Y-92360426D01*
X106657567Y-92182986D01*
X106521928Y-92047110D01*
X106344616Y-91973484D01*
X106152626Y-91973316D01*
X105975186Y-92046633D01*
X105839310Y-92182272D01*
X105765684Y-92359584D01*
X105765516Y-92551574D01*
X104714141Y-92551574D01*
X104612009Y-92449264D01*
X104322711Y-92329137D01*
X104009464Y-92328864D01*
X103719956Y-92448486D01*
X103498264Y-92669791D01*
X103378137Y-92959089D01*
X103377864Y-93272336D01*
X102920664Y-93272336D01*
X102920936Y-92960464D01*
X102801314Y-92670956D01*
X102580009Y-92449264D01*
X102290711Y-92329137D01*
X101977464Y-92328864D01*
X101687956Y-92448486D01*
X101466264Y-92669791D01*
X101346137Y-92959089D01*
X101345864Y-93272336D01*
X93293000Y-93272336D01*
X93293000Y-90392574D01*
X124637716Y-90392574D01*
X124711033Y-90570014D01*
X124846672Y-90705890D01*
X125023984Y-90779516D01*
X125215974Y-90779684D01*
X125338314Y-90729134D01*
X125346033Y-90747814D01*
X125481672Y-90883690D01*
X125658984Y-90957316D01*
X125850974Y-90957484D01*
X126028414Y-90884167D01*
X126164290Y-90748528D01*
X126168334Y-90738790D01*
X126235033Y-90900214D01*
X126370672Y-91036090D01*
X126547984Y-91109716D01*
X126739974Y-91109884D01*
X126917414Y-91036567D01*
X126977311Y-90976774D01*
X136651916Y-90976774D01*
X136725233Y-91154214D01*
X136860872Y-91290090D01*
X137038184Y-91363716D01*
X137230174Y-91363884D01*
X137407614Y-91290567D01*
X137543490Y-91154928D01*
X137564730Y-91103774D01*
X143408316Y-91103774D01*
X143481633Y-91281214D01*
X143617272Y-91417090D01*
X143794584Y-91490716D01*
X143986574Y-91490884D01*
X144164014Y-91417567D01*
X144299890Y-91281928D01*
X144373516Y-91104616D01*
X144373684Y-90912626D01*
X144300367Y-90735186D01*
X144164728Y-90599310D01*
X143987416Y-90525684D01*
X143795426Y-90525516D01*
X143617986Y-90598833D01*
X143482110Y-90734472D01*
X143408484Y-90911784D01*
X143408316Y-91103774D01*
X137564730Y-91103774D01*
X137617116Y-90977616D01*
X137617284Y-90785626D01*
X137543967Y-90608186D01*
X137408328Y-90472310D01*
X137231016Y-90398684D01*
X137039026Y-90398516D01*
X136861586Y-90471833D01*
X136725710Y-90607472D01*
X136652084Y-90784784D01*
X136651916Y-90976774D01*
X126977311Y-90976774D01*
X127053290Y-90900928D01*
X127126916Y-90723616D01*
X127127084Y-90531626D01*
X127053767Y-90354186D01*
X126918128Y-90218310D01*
X126740816Y-90144684D01*
X126548826Y-90144516D01*
X126371386Y-90217833D01*
X126235510Y-90353472D01*
X126231466Y-90363210D01*
X126164767Y-90201786D01*
X126029128Y-90065910D01*
X125851816Y-89992284D01*
X125659826Y-89992116D01*
X125537486Y-90042666D01*
X125529767Y-90023986D01*
X125394128Y-89888110D01*
X125216816Y-89814484D01*
X125024826Y-89814316D01*
X124847386Y-89887633D01*
X124711510Y-90023272D01*
X124637884Y-90200584D01*
X124637716Y-90392574D01*
X93293000Y-90392574D01*
X93293000Y-89325774D01*
X119837116Y-89325774D01*
X119910433Y-89503214D01*
X120046072Y-89639090D01*
X120223384Y-89712716D01*
X120415374Y-89712884D01*
X120592814Y-89639567D01*
X120703600Y-89528974D01*
X126593516Y-89528974D01*
X126666833Y-89706414D01*
X126802472Y-89842290D01*
X126979784Y-89915916D01*
X127171774Y-89916084D01*
X127349214Y-89842767D01*
X127485090Y-89707128D01*
X127558716Y-89529816D01*
X127558850Y-89376574D01*
X138429916Y-89376574D01*
X138503233Y-89554014D01*
X138638872Y-89689890D01*
X138816184Y-89763516D01*
X139008174Y-89763684D01*
X139185614Y-89690367D01*
X139321490Y-89554728D01*
X139395116Y-89377416D01*
X139395138Y-89351174D01*
X139445916Y-89351174D01*
X139519233Y-89528614D01*
X139654872Y-89664490D01*
X139832184Y-89738116D01*
X140002703Y-89738265D01*
X139979484Y-89794184D01*
X139979316Y-89986174D01*
X140052633Y-90163614D01*
X140188272Y-90299490D01*
X140365584Y-90373116D01*
X140557574Y-90373284D01*
X140735014Y-90299967D01*
X140870890Y-90164328D01*
X140944516Y-89987016D01*
X140944644Y-89839800D01*
X145193303Y-89839800D01*
X145271898Y-90234924D01*
X145495718Y-90569895D01*
X145830689Y-90793715D01*
X146225813Y-90872310D01*
X147804587Y-90872310D01*
X148199711Y-90793715D01*
X148534682Y-90569895D01*
X148758502Y-90234924D01*
X148837097Y-89839800D01*
X148758502Y-89444676D01*
X148534682Y-89109705D01*
X148199711Y-88885885D01*
X147804587Y-88807290D01*
X146225813Y-88807290D01*
X145830689Y-88885885D01*
X145495718Y-89109705D01*
X145271898Y-89444676D01*
X145193303Y-89839800D01*
X140944644Y-89839800D01*
X140944684Y-89795026D01*
X140931704Y-89763611D01*
X141014774Y-89763684D01*
X141192214Y-89690367D01*
X141328090Y-89554728D01*
X141401716Y-89377416D01*
X141401884Y-89185426D01*
X141328567Y-89007986D01*
X141192928Y-88872110D01*
X141015616Y-88798484D01*
X140823626Y-88798316D01*
X140646186Y-88871633D01*
X140510310Y-89007272D01*
X140436684Y-89184584D01*
X140436516Y-89376574D01*
X140449496Y-89407989D01*
X140387897Y-89407935D01*
X140411116Y-89352016D01*
X140411284Y-89160026D01*
X140337967Y-88982586D01*
X140202328Y-88846710D01*
X140025016Y-88773084D01*
X139833026Y-88772916D01*
X139655586Y-88846233D01*
X139519710Y-88981872D01*
X139446084Y-89159184D01*
X139445916Y-89351174D01*
X139395138Y-89351174D01*
X139395284Y-89185426D01*
X139321967Y-89007986D01*
X139186328Y-88872110D01*
X139009016Y-88798484D01*
X138817026Y-88798316D01*
X138639586Y-88871633D01*
X138503710Y-89007272D01*
X138430084Y-89184584D01*
X138429916Y-89376574D01*
X127558850Y-89376574D01*
X127558884Y-89337826D01*
X127485567Y-89160386D01*
X127349928Y-89024510D01*
X127172616Y-88950884D01*
X126980626Y-88950716D01*
X126803186Y-89024033D01*
X126667310Y-89159672D01*
X126593684Y-89336984D01*
X126593516Y-89528974D01*
X120703600Y-89528974D01*
X120728690Y-89503928D01*
X120802316Y-89326616D01*
X120802484Y-89134626D01*
X120729167Y-88957186D01*
X120593528Y-88821310D01*
X120416216Y-88747684D01*
X120224226Y-88747516D01*
X120046786Y-88820833D01*
X119910910Y-88956472D01*
X119837284Y-89133784D01*
X119837116Y-89325774D01*
X93293000Y-89325774D01*
X93293000Y-87324000D01*
X95885000Y-87324000D01*
X95916782Y-87317678D01*
X95949185Y-87317678D01*
X97838654Y-86941839D01*
X131319551Y-86941839D01*
X131392868Y-87119279D01*
X131528507Y-87255155D01*
X131705819Y-87328781D01*
X131897809Y-87328949D01*
X132075249Y-87255632D01*
X132183304Y-87147765D01*
X132290507Y-87255155D01*
X132467819Y-87328781D01*
X132659809Y-87328949D01*
X132730354Y-87299800D01*
X145193303Y-87299800D01*
X145271898Y-87694924D01*
X145495718Y-88029895D01*
X145830689Y-88253715D01*
X146225813Y-88332310D01*
X147804587Y-88332310D01*
X148199711Y-88253715D01*
X148534682Y-88029895D01*
X148758502Y-87694924D01*
X148837097Y-87299800D01*
X148758502Y-86904676D01*
X148534682Y-86569705D01*
X148199711Y-86345885D01*
X147804587Y-86267290D01*
X146225813Y-86267290D01*
X145830689Y-86345885D01*
X145495718Y-86569705D01*
X145271898Y-86904676D01*
X145193303Y-87299800D01*
X132730354Y-87299800D01*
X132837249Y-87255632D01*
X132973125Y-87119993D01*
X133046751Y-86942681D01*
X133046919Y-86750691D01*
X132999959Y-86637039D01*
X136501151Y-86637039D01*
X136574468Y-86814479D01*
X136710107Y-86950355D01*
X136887419Y-87023981D01*
X137079409Y-87024149D01*
X137256849Y-86950832D01*
X137392725Y-86815193D01*
X137466351Y-86637881D01*
X137466399Y-86582574D01*
X141935116Y-86582574D01*
X142008433Y-86760014D01*
X142144072Y-86895890D01*
X142321384Y-86969516D01*
X142513374Y-86969684D01*
X142690814Y-86896367D01*
X142826690Y-86760728D01*
X142900316Y-86583416D01*
X142900484Y-86391426D01*
X142827167Y-86213986D01*
X142691528Y-86078110D01*
X142514216Y-86004484D01*
X142322226Y-86004316D01*
X142144786Y-86077633D01*
X142008910Y-86213272D01*
X141935284Y-86390584D01*
X141935116Y-86582574D01*
X137466399Y-86582574D01*
X137466519Y-86445891D01*
X137393202Y-86268451D01*
X137257563Y-86132575D01*
X137080251Y-86058949D01*
X136888261Y-86058781D01*
X136710821Y-86132098D01*
X136574945Y-86267737D01*
X136501319Y-86445049D01*
X136501151Y-86637039D01*
X132999959Y-86637039D01*
X132973602Y-86573251D01*
X132837963Y-86437375D01*
X132660651Y-86363749D01*
X132468661Y-86363581D01*
X132291221Y-86436898D01*
X132183166Y-86544765D01*
X132075963Y-86437375D01*
X131898651Y-86363749D01*
X131706661Y-86363581D01*
X131529221Y-86436898D01*
X131393345Y-86572537D01*
X131319719Y-86749849D01*
X131319551Y-86941839D01*
X97838654Y-86941839D01*
X98379224Y-86834313D01*
X98497823Y-86785188D01*
X100245579Y-85617374D01*
X129006516Y-85617374D01*
X129079833Y-85794814D01*
X129215472Y-85930690D01*
X129392784Y-86004316D01*
X129584774Y-86004484D01*
X129762214Y-85931167D01*
X129898090Y-85795528D01*
X129971716Y-85618216D01*
X129971884Y-85426226D01*
X129898567Y-85248786D01*
X129762928Y-85112910D01*
X129585616Y-85039284D01*
X129393626Y-85039116D01*
X129216186Y-85112433D01*
X129080310Y-85248072D01*
X129006684Y-85425384D01*
X129006516Y-85617374D01*
X100245579Y-85617374D01*
X100557911Y-85408681D01*
X100648683Y-85317909D01*
X101021599Y-84759800D01*
X145193303Y-84759800D01*
X145271898Y-85154924D01*
X145495718Y-85489895D01*
X145830689Y-85713715D01*
X146225813Y-85792310D01*
X147804587Y-85792310D01*
X148199711Y-85713715D01*
X148534682Y-85489895D01*
X148758502Y-85154924D01*
X148837097Y-84759800D01*
X148758502Y-84364676D01*
X148534682Y-84029705D01*
X148199711Y-83805885D01*
X147804587Y-83727290D01*
X146225813Y-83727290D01*
X145830689Y-83805885D01*
X145495718Y-84029705D01*
X145271898Y-84364676D01*
X145193303Y-84759800D01*
X101021599Y-84759800D01*
X102025189Y-83257823D01*
X102074313Y-83139224D01*
X102197767Y-82518574D01*
X122961316Y-82518574D01*
X123034633Y-82696014D01*
X123170272Y-82831890D01*
X123347584Y-82905516D01*
X123539574Y-82905684D01*
X123717014Y-82832367D01*
X123852890Y-82696728D01*
X123926516Y-82519416D01*
X123926684Y-82327426D01*
X123853367Y-82149986D01*
X123717728Y-82014110D01*
X123540416Y-81940484D01*
X123348426Y-81940316D01*
X123170986Y-82013633D01*
X123035110Y-82149272D01*
X122961484Y-82326584D01*
X122961316Y-82518574D01*
X102197767Y-82518574D01*
X102556486Y-80715174D01*
X121996116Y-80715174D01*
X122069433Y-80892614D01*
X122205072Y-81028490D01*
X122382384Y-81102116D01*
X122574374Y-81102284D01*
X122751814Y-81028967D01*
X122887690Y-80893328D01*
X122919477Y-80816774D01*
X124663116Y-80816774D01*
X124736433Y-80994214D01*
X124872072Y-81130090D01*
X125049384Y-81203716D01*
X125241374Y-81203884D01*
X125418814Y-81130567D01*
X125427822Y-81121574D01*
X129946316Y-81121574D01*
X130019633Y-81299014D01*
X130155272Y-81434890D01*
X130332584Y-81508516D01*
X130524574Y-81508684D01*
X130702014Y-81435367D01*
X130837890Y-81299728D01*
X130911516Y-81122416D01*
X130911684Y-80930426D01*
X130838367Y-80752986D01*
X130702728Y-80617110D01*
X130525416Y-80543484D01*
X130333426Y-80543316D01*
X130155986Y-80616633D01*
X130020110Y-80752272D01*
X129946484Y-80929584D01*
X129946316Y-81121574D01*
X125427822Y-81121574D01*
X125554690Y-80994928D01*
X125628316Y-80817616D01*
X125628484Y-80625626D01*
X125555167Y-80448186D01*
X125419528Y-80312310D01*
X125288672Y-80257974D01*
X139649116Y-80257974D01*
X139722433Y-80435414D01*
X139858072Y-80571290D01*
X140035384Y-80644916D01*
X140227374Y-80645084D01*
X140404814Y-80571767D01*
X140540690Y-80436128D01*
X140614316Y-80258816D01*
X140614484Y-80066826D01*
X140541167Y-79889386D01*
X140405528Y-79753510D01*
X140228216Y-79679884D01*
X140036226Y-79679716D01*
X139858786Y-79753033D01*
X139722910Y-79888672D01*
X139649284Y-80065984D01*
X139649116Y-80257974D01*
X125288672Y-80257974D01*
X125242216Y-80238684D01*
X125050226Y-80238516D01*
X124872786Y-80311833D01*
X124736910Y-80447472D01*
X124663284Y-80624784D01*
X124663116Y-80816774D01*
X122919477Y-80816774D01*
X122961316Y-80716016D01*
X122961484Y-80524026D01*
X122888167Y-80346586D01*
X122752528Y-80210710D01*
X122575216Y-80137084D01*
X122383226Y-80136916D01*
X122205786Y-80210233D01*
X122069910Y-80345872D01*
X121996284Y-80523184D01*
X121996116Y-80715174D01*
X102556486Y-80715174D01*
X102557678Y-80709185D01*
X102557678Y-80676782D01*
X102564000Y-80645000D01*
X102564000Y-79597574D01*
X125882316Y-79597574D01*
X125955633Y-79775014D01*
X126091272Y-79910890D01*
X126268584Y-79984516D01*
X126460574Y-79984684D01*
X126638014Y-79911367D01*
X126773890Y-79775728D01*
X126847516Y-79598416D01*
X126847684Y-79406426D01*
X126774367Y-79228986D01*
X126638728Y-79093110D01*
X126461416Y-79019484D01*
X126269426Y-79019316D01*
X126091986Y-79092633D01*
X125956110Y-79228272D01*
X125882484Y-79405584D01*
X125882316Y-79597574D01*
X102564000Y-79597574D01*
X102564000Y-78683174D01*
X129997116Y-78683174D01*
X130070433Y-78860614D01*
X130206072Y-78996490D01*
X130383384Y-79070116D01*
X130575374Y-79070284D01*
X130752814Y-78996967D01*
X130888690Y-78861328D01*
X130962316Y-78684016D01*
X130962484Y-78492026D01*
X130889167Y-78314586D01*
X130753528Y-78178710D01*
X130576216Y-78105084D01*
X130384226Y-78104916D01*
X130206786Y-78178233D01*
X130070910Y-78313872D01*
X129997284Y-78491184D01*
X129997116Y-78683174D01*
X102564000Y-78683174D01*
X102564000Y-78175174D01*
X127380916Y-78175174D01*
X127454233Y-78352614D01*
X127589872Y-78488490D01*
X127767184Y-78562116D01*
X127959174Y-78562284D01*
X128136614Y-78488967D01*
X128272490Y-78353328D01*
X128346116Y-78176016D01*
X128346284Y-77984026D01*
X128272967Y-77806586D01*
X128137328Y-77670710D01*
X127960016Y-77597084D01*
X127768026Y-77596916D01*
X127590586Y-77670233D01*
X127454710Y-77805872D01*
X127381084Y-77983184D01*
X127380916Y-78175174D01*
X102564000Y-78175174D01*
X102564000Y-77590974D01*
X123012116Y-77590974D01*
X123085433Y-77768414D01*
X123221072Y-77904290D01*
X123398384Y-77977916D01*
X123590374Y-77978084D01*
X123767814Y-77904767D01*
X123903690Y-77769128D01*
X123977316Y-77591816D01*
X123977484Y-77399826D01*
X123904167Y-77222386D01*
X123768528Y-77086510D01*
X123591216Y-77012884D01*
X123399226Y-77012716D01*
X123221786Y-77086033D01*
X123085910Y-77221672D01*
X123012284Y-77398984D01*
X123012116Y-77590974D01*
X102564000Y-77590974D01*
X102564000Y-75133723D01*
X118351122Y-75133723D01*
X118507402Y-75511950D01*
X118796528Y-75801581D01*
X119174481Y-75958521D01*
X119583723Y-75958878D01*
X119961950Y-75802598D01*
X120251581Y-75513472D01*
X120408521Y-75135519D01*
X120408522Y-75133723D01*
X120891122Y-75133723D01*
X121047402Y-75511950D01*
X121336528Y-75801581D01*
X121714481Y-75958521D01*
X122123723Y-75958878D01*
X122501950Y-75802598D01*
X122791581Y-75513472D01*
X122948521Y-75135519D01*
X122948522Y-75133723D01*
X123431122Y-75133723D01*
X123587402Y-75511950D01*
X123876528Y-75801581D01*
X124254481Y-75958521D01*
X124663723Y-75958878D01*
X125041950Y-75802598D01*
X125331581Y-75513472D01*
X125488521Y-75135519D01*
X125488522Y-75133723D01*
X125971122Y-75133723D01*
X126127402Y-75511950D01*
X126416528Y-75801581D01*
X126794481Y-75958521D01*
X127203723Y-75958878D01*
X127581950Y-75802598D01*
X127871581Y-75513472D01*
X128028521Y-75135519D01*
X128028522Y-75133723D01*
X128511122Y-75133723D01*
X128667402Y-75511950D01*
X128956528Y-75801581D01*
X129334481Y-75958521D01*
X129743723Y-75958878D01*
X129883774Y-75901010D01*
X131288595Y-75901010D01*
X131356499Y-76141880D01*
X131875339Y-76326503D01*
X132425336Y-76298521D01*
X132803501Y-76141880D01*
X132871405Y-75901010D01*
X132080000Y-75109605D01*
X131288595Y-75901010D01*
X129883774Y-75901010D01*
X130121950Y-75802598D01*
X130411581Y-75513472D01*
X130568521Y-75135519D01*
X130568878Y-74726277D01*
X130568491Y-74725339D01*
X130683497Y-74725339D01*
X130711479Y-75275336D01*
X130868120Y-75653501D01*
X131108990Y-75721405D01*
X131900395Y-74930000D01*
X132259605Y-74930000D01*
X133051010Y-75721405D01*
X133291880Y-75653501D01*
X133476503Y-75134661D01*
X133476456Y-75133723D01*
X133591122Y-75133723D01*
X133747402Y-75511950D01*
X134036528Y-75801581D01*
X134414481Y-75958521D01*
X134823723Y-75958878D01*
X135201950Y-75802598D01*
X135491581Y-75513472D01*
X135648521Y-75135519D01*
X135648878Y-74726277D01*
X135492598Y-74348050D01*
X135203472Y-74058419D01*
X134825519Y-73901479D01*
X134416277Y-73901122D01*
X134038050Y-74057402D01*
X133748419Y-74346528D01*
X133591479Y-74724481D01*
X133591122Y-75133723D01*
X133476456Y-75133723D01*
X133448521Y-74584664D01*
X133291880Y-74206499D01*
X133051010Y-74138595D01*
X132259605Y-74930000D01*
X131900395Y-74930000D01*
X131108990Y-74138595D01*
X130868120Y-74206499D01*
X130683497Y-74725339D01*
X130568491Y-74725339D01*
X130412598Y-74348050D01*
X130123472Y-74058419D01*
X129884021Y-73958990D01*
X131288595Y-73958990D01*
X132080000Y-74750395D01*
X132871405Y-73958990D01*
X132803501Y-73718120D01*
X132284661Y-73533497D01*
X131734664Y-73561479D01*
X131356499Y-73718120D01*
X131288595Y-73958990D01*
X129884021Y-73958990D01*
X129745519Y-73901479D01*
X129336277Y-73901122D01*
X128958050Y-74057402D01*
X128668419Y-74346528D01*
X128511479Y-74724481D01*
X128511122Y-75133723D01*
X128028522Y-75133723D01*
X128028878Y-74726277D01*
X127872598Y-74348050D01*
X127583472Y-74058419D01*
X127205519Y-73901479D01*
X126796277Y-73901122D01*
X126418050Y-74057402D01*
X126128419Y-74346528D01*
X125971479Y-74724481D01*
X125971122Y-75133723D01*
X125488522Y-75133723D01*
X125488878Y-74726277D01*
X125332598Y-74348050D01*
X125043472Y-74058419D01*
X124665519Y-73901479D01*
X124256277Y-73901122D01*
X123878050Y-74057402D01*
X123588419Y-74346528D01*
X123431479Y-74724481D01*
X123431122Y-75133723D01*
X122948522Y-75133723D01*
X122948878Y-74726277D01*
X122792598Y-74348050D01*
X122503472Y-74058419D01*
X122125519Y-73901479D01*
X121716277Y-73901122D01*
X121338050Y-74057402D01*
X121048419Y-74346528D01*
X120891479Y-74724481D01*
X120891122Y-75133723D01*
X120408522Y-75133723D01*
X120408878Y-74726277D01*
X120252598Y-74348050D01*
X119963472Y-74058419D01*
X119585519Y-73901479D01*
X119176277Y-73901122D01*
X118798050Y-74057402D01*
X118508419Y-74346528D01*
X118351479Y-74724481D01*
X118351122Y-75133723D01*
X102564000Y-75133723D01*
X102564000Y-72767265D01*
X104139670Y-72767265D01*
X104429078Y-73467686D01*
X104964495Y-74004039D01*
X105664410Y-74294668D01*
X106422265Y-74295330D01*
X107122686Y-74005922D01*
X107659039Y-73470505D01*
X107949668Y-72770590D01*
X107949822Y-72593723D01*
X118351122Y-72593723D01*
X118507402Y-72971950D01*
X118796528Y-73261581D01*
X119174481Y-73418521D01*
X119583723Y-73418878D01*
X119961950Y-73262598D01*
X120251581Y-72973472D01*
X120408521Y-72595519D01*
X120408522Y-72593723D01*
X120891122Y-72593723D01*
X121047402Y-72971950D01*
X121336528Y-73261581D01*
X121714481Y-73418521D01*
X122123723Y-73418878D01*
X122501950Y-73262598D01*
X122791581Y-72973472D01*
X122948521Y-72595519D01*
X122948522Y-72593723D01*
X123431122Y-72593723D01*
X123587402Y-72971950D01*
X123876528Y-73261581D01*
X124254481Y-73418521D01*
X124663723Y-73418878D01*
X125041950Y-73262598D01*
X125331581Y-72973472D01*
X125488521Y-72595519D01*
X125488522Y-72593723D01*
X125971122Y-72593723D01*
X126127402Y-72971950D01*
X126416528Y-73261581D01*
X126794481Y-73418521D01*
X127203723Y-73418878D01*
X127581950Y-73262598D01*
X127871581Y-72973472D01*
X128028521Y-72595519D01*
X128028522Y-72593723D01*
X128511122Y-72593723D01*
X128667402Y-72971950D01*
X128956528Y-73261581D01*
X129334481Y-73418521D01*
X129743723Y-73418878D01*
X130121950Y-73262598D01*
X130411581Y-72973472D01*
X130568521Y-72595519D01*
X130568522Y-72593723D01*
X131051122Y-72593723D01*
X131207402Y-72971950D01*
X131496528Y-73261581D01*
X131874481Y-73418521D01*
X132283723Y-73418878D01*
X132661950Y-73262598D01*
X132951581Y-72973472D01*
X133108521Y-72595519D01*
X133108878Y-72186277D01*
X132952598Y-71808050D01*
X132785540Y-71640700D01*
X133585827Y-71640700D01*
X133585827Y-73139300D01*
X133605309Y-73242839D01*
X133666501Y-73337934D01*
X133759868Y-73401729D01*
X133870700Y-73424173D01*
X135369300Y-73424173D01*
X135472839Y-73404691D01*
X135567934Y-73343499D01*
X135631729Y-73250132D01*
X135654173Y-73139300D01*
X135654173Y-72767265D01*
X146049670Y-72767265D01*
X146339078Y-73467686D01*
X146874495Y-74004039D01*
X147574410Y-74294668D01*
X148332265Y-74295330D01*
X149032686Y-74005922D01*
X149569039Y-73470505D01*
X149859668Y-72770590D01*
X149860330Y-72012735D01*
X149570922Y-71312314D01*
X149035505Y-70775961D01*
X148335590Y-70485332D01*
X147577735Y-70484670D01*
X146877314Y-70774078D01*
X146340961Y-71309495D01*
X146050332Y-72009410D01*
X146049670Y-72767265D01*
X135654173Y-72767265D01*
X135654173Y-71640700D01*
X135634691Y-71537161D01*
X135573499Y-71442066D01*
X135480132Y-71378271D01*
X135369300Y-71355827D01*
X133870700Y-71355827D01*
X133767161Y-71375309D01*
X133672066Y-71436501D01*
X133608271Y-71529868D01*
X133585827Y-71640700D01*
X132785540Y-71640700D01*
X132663472Y-71518419D01*
X132285519Y-71361479D01*
X131876277Y-71361122D01*
X131498050Y-71517402D01*
X131208419Y-71806528D01*
X131051479Y-72184481D01*
X131051122Y-72593723D01*
X130568522Y-72593723D01*
X130568878Y-72186277D01*
X130412598Y-71808050D01*
X130123472Y-71518419D01*
X129745519Y-71361479D01*
X129336277Y-71361122D01*
X128958050Y-71517402D01*
X128668419Y-71806528D01*
X128511479Y-72184481D01*
X128511122Y-72593723D01*
X128028522Y-72593723D01*
X128028878Y-72186277D01*
X127872598Y-71808050D01*
X127583472Y-71518419D01*
X127205519Y-71361479D01*
X126796277Y-71361122D01*
X126418050Y-71517402D01*
X126128419Y-71806528D01*
X125971479Y-72184481D01*
X125971122Y-72593723D01*
X125488522Y-72593723D01*
X125488878Y-72186277D01*
X125332598Y-71808050D01*
X125043472Y-71518419D01*
X124665519Y-71361479D01*
X124256277Y-71361122D01*
X123878050Y-71517402D01*
X123588419Y-71806528D01*
X123431479Y-72184481D01*
X123431122Y-72593723D01*
X122948522Y-72593723D01*
X122948878Y-72186277D01*
X122792598Y-71808050D01*
X122503472Y-71518419D01*
X122125519Y-71361479D01*
X121716277Y-71361122D01*
X121338050Y-71517402D01*
X121048419Y-71806528D01*
X120891479Y-72184481D01*
X120891122Y-72593723D01*
X120408522Y-72593723D01*
X120408878Y-72186277D01*
X120252598Y-71808050D01*
X119963472Y-71518419D01*
X119585519Y-71361479D01*
X119176277Y-71361122D01*
X118798050Y-71517402D01*
X118508419Y-71806528D01*
X118351479Y-72184481D01*
X118351122Y-72593723D01*
X107949822Y-72593723D01*
X107950330Y-72012735D01*
X107660922Y-71312314D01*
X107125505Y-70775961D01*
X106425590Y-70485332D01*
X105667735Y-70484670D01*
X104967314Y-70774078D01*
X104430961Y-71309495D01*
X104140332Y-72009410D01*
X104139670Y-72767265D01*
X102564000Y-72767265D01*
X102564000Y-68909000D01*
X151436000Y-68909000D01*
X151436000Y-80645000D01*
M02*
