G04 #@! TF.FileFunction,Copper,L4,Bot,Signal*
%FSLAX46Y46*%
G04 Gerber Fmt 4.6, Leading zero omitted, Abs format (unit mm)*
G04 Created by KiCad (PCBNEW 4.0.4-stable) date 01/20/17 21:30:08*
%MOMM*%
%LPD*%
G01*
G04 APERTURE LIST*
%ADD10C,0.100000*%
%ADD11O,3.014980X1.506220*%
%ADD12R,1.498600X1.498600*%
%ADD13C,1.498600*%
%ADD14C,1.158000*%
%ADD15R,1.510000X1.510000*%
%ADD16C,1.510000*%
%ADD17O,1.510000X3.010000*%
%ADD18C,0.406400*%
%ADD19C,0.609600*%
%ADD20C,0.203200*%
%ADD21C,0.127000*%
G04 APERTURE END LIST*
D10*
D11*
X147015200Y-84759800D03*
X147015200Y-87299800D03*
X147015200Y-89839800D03*
X147015200Y-94361000D03*
X147015200Y-96901000D03*
X147015200Y-99441000D03*
X147015200Y-101981000D03*
X147015200Y-104521000D03*
X147015200Y-107061000D03*
D12*
X134620000Y-72390000D03*
D13*
X134620000Y-74930000D03*
X132080000Y-72390000D03*
X132080000Y-74930000D03*
X129540000Y-72390000D03*
X129540000Y-74930000D03*
X127000000Y-72390000D03*
X127000000Y-74930000D03*
X124460000Y-72390000D03*
X124460000Y-74930000D03*
X121920000Y-72390000D03*
X121920000Y-74930000D03*
X119380000Y-72390000D03*
X119380000Y-74930000D03*
D14*
X108422000Y-117729000D03*
X112014000Y-121321000D03*
X112014000Y-117729000D03*
D15*
X123190000Y-130810000D03*
D16*
X123190000Y-128270000D03*
X125730000Y-130810000D03*
X125730000Y-128270000D03*
X128270000Y-130810000D03*
X128270000Y-128270000D03*
X130810000Y-130810000D03*
X130810000Y-128270000D03*
D17*
X114223800Y-129413000D03*
X116763800Y-129413000D03*
D18*
X124714000Y-121031000D03*
X127863600Y-78079600D03*
X126365000Y-79502000D03*
X125145800Y-80721200D03*
X123444000Y-82423000D03*
X122478800Y-80619600D03*
X123494800Y-77495400D03*
X134848600Y-101447600D03*
X133197600Y-101447600D03*
X131419600Y-101447600D03*
X101396800Y-100025200D03*
X110185200Y-92456000D03*
X120497600Y-102641400D03*
X118160800Y-102666800D03*
X140893800Y-116992400D03*
X133527800Y-113436400D03*
X148285200Y-112903000D03*
X103327200Y-99085400D03*
X103428800Y-100558600D03*
X98958400Y-97561400D03*
X106248200Y-92456000D03*
X143891000Y-91008200D03*
X137134600Y-90881200D03*
X130479800Y-78587600D03*
X130429000Y-81026000D03*
X142417800Y-86487000D03*
X127076200Y-89433400D03*
X113741200Y-98196400D03*
X109448600Y-98247200D03*
X143459200Y-94056200D03*
X142036800Y-95453200D03*
X140690600Y-96697800D03*
X140919200Y-89281000D03*
X114604800Y-92430600D03*
X114935000Y-101396800D03*
X112522000Y-101396800D03*
X120319800Y-89230200D03*
X136677400Y-95605600D03*
X140131800Y-80162400D03*
X125012850Y-92883350D03*
X123725350Y-92883350D03*
X122437850Y-92883350D03*
X121150350Y-92883350D03*
X121150350Y-94170850D03*
X122437850Y-94170850D03*
X125012850Y-94170850D03*
X123725350Y-94170850D03*
X123725350Y-95458350D03*
X122437850Y-95458350D03*
X121150350Y-95458350D03*
X121150350Y-96745850D03*
X122437850Y-96745850D03*
X123725350Y-96745850D03*
X125012850Y-96745850D03*
X125012850Y-95458350D03*
X136983835Y-86541465D03*
X131802235Y-86846265D03*
X131394200Y-95554800D03*
X127711200Y-95681800D03*
X116763800Y-94945200D03*
X125415000Y-104709000D03*
X111302800Y-91922600D03*
X149352000Y-85953600D03*
X128524000Y-116535200D03*
X133629400Y-116306600D03*
X143459200Y-116230400D03*
X148640800Y-115341400D03*
X149352000Y-83362800D03*
X118160800Y-98552000D03*
X119329200Y-89230200D03*
X130760835Y-89128600D03*
X136956800Y-89712800D03*
X126288800Y-82981800D03*
X132080000Y-82905600D03*
X128529200Y-94564600D03*
X128458800Y-96564600D03*
D19*
X142570200Y-82905600D03*
D18*
X141960600Y-85750400D03*
X142417800Y-87553800D03*
X126290435Y-84306265D03*
X136958435Y-87506665D03*
X130760835Y-87989265D03*
X124333000Y-90424000D03*
X121818400Y-90424000D03*
X118668800Y-95554800D03*
X125755400Y-90474800D03*
X107518200Y-102514400D03*
X101371400Y-96570800D03*
X118287800Y-96088200D03*
X102311200Y-99568000D03*
X118694200Y-96570800D03*
X140462000Y-89890600D03*
X128905000Y-92049600D03*
X129489200Y-85521800D03*
X132486400Y-92557600D03*
X132564235Y-86846265D03*
X138404600Y-95580200D03*
X139928600Y-89255600D03*
X138479800Y-93064600D03*
X138912600Y-89281000D03*
X126644400Y-90627200D03*
X125120400Y-90297000D03*
X117983000Y-107594400D03*
X117983000Y-111760000D03*
X120650000Y-111760000D03*
X120650000Y-107594400D03*
X123444000Y-107619800D03*
X127787400Y-102768400D03*
X144678400Y-115366800D03*
X130098800Y-108661200D03*
X127127000Y-103276400D03*
X125653800Y-101803200D03*
X124079000Y-99339400D03*
X130098800Y-116128800D03*
X112039400Y-109118400D03*
X116713000Y-101219000D03*
D20*
X123190000Y-130810000D02*
X123190000Y-129851800D01*
X123190000Y-129851800D02*
X124714000Y-128327800D01*
X124714000Y-128327800D02*
X124714000Y-121031000D01*
X122478800Y-80619600D02*
X122478800Y-81457800D01*
X122478800Y-81457800D02*
X123444000Y-82423000D01*
X119380000Y-74930000D02*
X121945400Y-77495400D01*
X121945400Y-77495400D02*
X123494800Y-77495400D01*
X131394200Y-95554800D02*
X131394200Y-101422200D01*
X131394200Y-101422200D02*
X131419600Y-101447600D01*
X100838252Y-100558600D02*
X100863400Y-100558600D01*
X100863400Y-100558600D02*
X101396800Y-100025200D01*
X106248200Y-92456000D02*
X110185200Y-92456000D01*
X118160800Y-102666800D02*
X120472200Y-102666800D01*
X120472200Y-102666800D02*
X120497600Y-102641400D01*
X98958400Y-97561400D02*
X98958400Y-98678748D01*
X98958400Y-98678748D02*
X100838252Y-100558600D01*
X100838252Y-100558600D02*
X103428800Y-100558600D01*
X106248200Y-92456000D02*
X106045001Y-92252801D01*
X106045001Y-92252801D02*
X101244651Y-92252801D01*
X101244651Y-92252801D02*
X98958400Y-94539052D01*
X98958400Y-94539052D02*
X98958400Y-97561400D01*
X130429000Y-81026000D02*
X130429000Y-78638400D01*
X130429000Y-78638400D02*
X130479800Y-78587600D01*
X131802235Y-86846265D02*
X132310234Y-86338266D01*
X132310234Y-86338266D02*
X136780636Y-86338266D01*
X136780636Y-86338266D02*
X136983835Y-86541465D01*
X109448600Y-98247200D02*
X113690400Y-98247200D01*
X113690400Y-98247200D02*
X113741200Y-98196400D01*
X142036800Y-95453200D02*
X142062200Y-95453200D01*
X142062200Y-95453200D02*
X143459200Y-94056200D01*
X140690600Y-96697800D02*
X140792200Y-96697800D01*
X140792200Y-96697800D02*
X142036800Y-95453200D01*
X136677400Y-95605600D02*
X137769600Y-96697800D01*
X137769600Y-96697800D02*
X140690600Y-96697800D01*
X114604800Y-92607400D02*
X114604800Y-92430600D01*
X116763800Y-94945200D02*
X114604800Y-92786200D01*
X114604800Y-92786200D02*
X114604800Y-92607400D01*
X131394200Y-95554800D02*
X136626600Y-95554800D01*
X136626600Y-95554800D02*
X136677400Y-95605600D01*
X141960600Y-85750400D02*
X142357858Y-85750400D01*
X142357858Y-85750400D02*
X142875001Y-86267543D01*
X142875001Y-86267543D02*
X142875001Y-87096599D01*
X142875001Y-87096599D02*
X142620999Y-87350601D01*
X142620999Y-87350601D02*
X142417800Y-87553800D01*
X111607600Y-91922600D02*
X111302800Y-91922600D01*
X149352000Y-83362800D02*
X149352000Y-85953600D01*
X128473600Y-94564600D02*
X128529200Y-94564600D01*
X118668800Y-95554800D02*
X119151401Y-96037401D01*
X119151401Y-96037401D02*
X119151401Y-97561399D01*
X119151401Y-97561399D02*
X118160800Y-98552000D01*
X121818400Y-90424000D02*
X120523000Y-90424000D01*
X120523000Y-90424000D02*
X119329200Y-89230200D01*
X130760835Y-87989265D02*
X130760835Y-89128600D01*
X130760835Y-87989265D02*
X130760835Y-84224765D01*
X130760835Y-84224765D02*
X130793400Y-84192200D01*
X130793400Y-84192200D02*
X132080000Y-82905600D01*
X136958435Y-87506665D02*
X136958435Y-89711165D01*
X136958435Y-89711165D02*
X136956800Y-89712800D01*
X126288800Y-82981800D02*
X126288800Y-84304630D01*
X126288800Y-84304630D02*
X126290435Y-84306265D01*
X111607600Y-91922600D02*
X119989600Y-91922600D01*
X132080000Y-74930000D02*
X132080000Y-82905600D01*
X121818400Y-90424000D02*
X121488200Y-90424000D01*
X128529200Y-96494200D02*
X128458800Y-96564600D01*
X125755400Y-90474800D02*
X125755400Y-73634600D01*
X125755400Y-73634600D02*
X127000000Y-72390000D01*
X128270000Y-128270000D02*
X128270000Y-123266200D01*
X128270000Y-123266200D02*
X107518200Y-102514400D01*
X107594400Y-102514400D02*
X107518200Y-102514400D01*
X118287800Y-96088200D02*
X117754400Y-96621600D01*
X117754400Y-96621600D02*
X101422200Y-96621600D01*
X101422200Y-96621600D02*
X101371400Y-96570800D01*
X130810000Y-128270000D02*
X130810000Y-120827800D01*
X130810000Y-120827800D02*
X124790200Y-114808000D01*
X124790200Y-114808000D02*
X124790200Y-106121200D01*
X124790200Y-106121200D02*
X117398800Y-98729800D01*
X117398800Y-98729800D02*
X117398800Y-97866200D01*
X117398800Y-97866200D02*
X116967000Y-98298000D01*
X118694200Y-96570800D02*
X117398800Y-97866200D01*
X116967000Y-98298000D02*
X115627149Y-99637851D01*
X115627149Y-99637851D02*
X102381051Y-99637851D01*
X102381051Y-99637851D02*
X102311200Y-99568000D01*
X140462000Y-89890600D02*
X143670020Y-89890600D01*
X143670020Y-89890600D02*
X146260820Y-87299800D01*
X146260820Y-87299800D02*
X147015200Y-87299800D01*
X129489200Y-91160600D02*
X129489200Y-91465400D01*
X129489200Y-91465400D02*
X128905000Y-92049600D01*
X129489200Y-85521800D02*
X129489200Y-91160600D01*
X132564235Y-86846265D02*
X132564235Y-92479765D01*
X132564235Y-92479765D02*
X132486400Y-92557600D01*
X139928600Y-89255600D02*
X139928600Y-94056200D01*
X139928600Y-94056200D02*
X138404600Y-95580200D01*
X138912600Y-89281000D02*
X138912600Y-92631800D01*
X138912600Y-92631800D02*
X138479800Y-93064600D01*
X127000000Y-74930000D02*
X127000000Y-88832942D01*
X127000000Y-88832942D02*
X126618999Y-89213943D01*
X126618999Y-89213943D02*
X126618999Y-90601799D01*
X126618999Y-90601799D02*
X126644400Y-90627200D01*
X124460000Y-74930000D02*
X124460000Y-89636600D01*
X124460000Y-89636600D02*
X125120400Y-90297000D01*
X117983000Y-111760000D02*
X117983000Y-107594400D01*
X120650000Y-107594400D02*
X120650000Y-111760000D01*
X123444000Y-107619800D02*
X123444000Y-115773200D01*
X123444000Y-115773200D02*
X129540000Y-121869200D01*
X129540000Y-121869200D02*
X129540000Y-129540000D01*
X129540000Y-129540000D02*
X128270000Y-130810000D01*
X144678400Y-115366800D02*
X144678400Y-108643420D01*
X144678400Y-108643420D02*
X146260820Y-107061000D01*
X146260820Y-107061000D02*
X147015200Y-107061000D01*
X144678400Y-115366800D02*
X140385800Y-115366800D01*
X140385800Y-115366800D02*
X127787400Y-102768400D01*
X130098800Y-108966000D02*
X130098800Y-106248200D01*
X130098800Y-111556800D02*
X130098800Y-108966000D01*
X130098800Y-108966000D02*
X130098800Y-108661200D01*
X130098800Y-106248200D02*
X127127000Y-103276400D01*
X130098800Y-116128800D02*
X130098800Y-111556800D01*
X124079000Y-99339400D02*
X124079000Y-100228400D01*
X124079000Y-100228400D02*
X125653800Y-101803200D01*
X112014000Y-117729000D02*
X112014000Y-109143800D01*
X112014000Y-109143800D02*
X112039400Y-109118400D01*
D21*
G36*
X151499500Y-80645000D02*
X151504602Y-80670649D01*
X151504602Y-80696796D01*
X151987966Y-83126836D01*
X152011189Y-83182900D01*
X152027610Y-83222544D01*
X153404117Y-85282632D01*
X153477368Y-85355883D01*
X155537456Y-86732390D01*
X155633163Y-86772033D01*
X155633164Y-86772033D01*
X158063203Y-87255398D01*
X158089351Y-87255398D01*
X158115000Y-87260500D01*
X160770500Y-87260500D01*
X160770500Y-115939500D01*
X158115000Y-115939500D01*
X158089351Y-115944602D01*
X158063203Y-115944602D01*
X155633164Y-116427967D01*
X155633163Y-116427967D01*
X155537456Y-116467610D01*
X153477368Y-117844117D01*
X153404117Y-117917368D01*
X152027610Y-119977456D01*
X152027610Y-119977457D01*
X151987966Y-120073164D01*
X151504602Y-122503204D01*
X151504602Y-122529351D01*
X151499500Y-122555000D01*
X151499500Y-134354500D01*
X102500500Y-134354500D01*
X102500500Y-131174690D01*
X104203181Y-131174690D01*
X104482942Y-131851763D01*
X105000512Y-132370237D01*
X105677096Y-132651180D01*
X106409690Y-132651819D01*
X107086763Y-132372058D01*
X107605237Y-131854488D01*
X107886180Y-131177904D01*
X107886819Y-130445310D01*
X107607058Y-129768237D01*
X107089488Y-129249763D01*
X106412904Y-128968820D01*
X105680310Y-128968181D01*
X105003237Y-129247942D01*
X104484763Y-129765512D01*
X104203820Y-130442096D01*
X104203181Y-131174690D01*
X102500500Y-131174690D01*
X102500500Y-128629286D01*
X113252900Y-128629286D01*
X113252900Y-130196714D01*
X113326805Y-130568261D01*
X113537270Y-130883244D01*
X113852253Y-131093709D01*
X114223800Y-131167614D01*
X114595347Y-131093709D01*
X114910330Y-130883244D01*
X115120795Y-130568261D01*
X115194700Y-130196714D01*
X115194700Y-128629286D01*
X115792900Y-128629286D01*
X115792900Y-130196714D01*
X115866805Y-130568261D01*
X116077270Y-130883244D01*
X116392253Y-131093709D01*
X116763800Y-131167614D01*
X116885658Y-131143375D01*
X121863500Y-131143375D01*
X121863500Y-131678679D01*
X121950506Y-131888729D01*
X122111272Y-132049494D01*
X122321322Y-132136500D01*
X122856625Y-132136500D01*
X122999500Y-131993625D01*
X122999500Y-131000500D01*
X123380500Y-131000500D01*
X123380500Y-131993625D01*
X123523375Y-132136500D01*
X124058678Y-132136500D01*
X124268728Y-132049494D01*
X124429494Y-131888729D01*
X124516500Y-131678679D01*
X124516500Y-131143375D01*
X124375402Y-131002277D01*
X124758932Y-131002277D01*
X124906431Y-131359252D01*
X125179311Y-131632609D01*
X125536029Y-131780731D01*
X125922277Y-131781068D01*
X126279252Y-131633569D01*
X126552609Y-131360689D01*
X126700731Y-131003971D01*
X126701068Y-130617723D01*
X126553569Y-130260748D01*
X126280689Y-129987391D01*
X125923971Y-129839269D01*
X125537723Y-129838932D01*
X125180748Y-129986431D01*
X124907391Y-130259311D01*
X124759269Y-130616029D01*
X124758932Y-131002277D01*
X124375402Y-131002277D01*
X124373625Y-131000500D01*
X123380500Y-131000500D01*
X122999500Y-131000500D01*
X122006375Y-131000500D01*
X121863500Y-131143375D01*
X116885658Y-131143375D01*
X117135347Y-131093709D01*
X117450330Y-130883244D01*
X117660795Y-130568261D01*
X117734700Y-130196714D01*
X117734700Y-129941321D01*
X121863500Y-129941321D01*
X121863500Y-130476625D01*
X122006375Y-130619500D01*
X122999500Y-130619500D01*
X122999500Y-129626375D01*
X123380500Y-129626375D01*
X123380500Y-130619500D01*
X124373625Y-130619500D01*
X124516500Y-130476625D01*
X124516500Y-129941321D01*
X124429494Y-129731271D01*
X124268728Y-129570506D01*
X124058678Y-129483500D01*
X123523375Y-129483500D01*
X123380500Y-129626375D01*
X122999500Y-129626375D01*
X122856625Y-129483500D01*
X122321322Y-129483500D01*
X122111272Y-129570506D01*
X121950506Y-129731271D01*
X121863500Y-129941321D01*
X117734700Y-129941321D01*
X117734700Y-128629286D01*
X117701480Y-128462277D01*
X122218932Y-128462277D01*
X122366431Y-128819252D01*
X122639311Y-129092609D01*
X122996029Y-129240731D01*
X123382277Y-129241068D01*
X123739252Y-129093569D01*
X124012609Y-128820689D01*
X124160731Y-128463971D01*
X124160732Y-128462277D01*
X124758932Y-128462277D01*
X124906431Y-128819252D01*
X125179311Y-129092609D01*
X125536029Y-129240731D01*
X125922277Y-129241068D01*
X126279252Y-129093569D01*
X126552609Y-128820689D01*
X126700731Y-128463971D01*
X126701068Y-128077723D01*
X126553569Y-127720748D01*
X126280689Y-127447391D01*
X125923971Y-127299269D01*
X125537723Y-127298932D01*
X125180748Y-127446431D01*
X124907391Y-127719311D01*
X124759269Y-128076029D01*
X124758932Y-128462277D01*
X124160732Y-128462277D01*
X124161068Y-128077723D01*
X124013569Y-127720748D01*
X123740689Y-127447391D01*
X123383971Y-127299269D01*
X122997723Y-127298932D01*
X122640748Y-127446431D01*
X122367391Y-127719311D01*
X122219269Y-128076029D01*
X122218932Y-128462277D01*
X117701480Y-128462277D01*
X117660795Y-128257739D01*
X117450330Y-127942756D01*
X117135347Y-127732291D01*
X116763800Y-127658386D01*
X116392253Y-127732291D01*
X116077270Y-127942756D01*
X115866805Y-128257739D01*
X115792900Y-128629286D01*
X115194700Y-128629286D01*
X115120795Y-128257739D01*
X114910330Y-127942756D01*
X114595347Y-127732291D01*
X114223800Y-127658386D01*
X113852253Y-127732291D01*
X113537270Y-127942756D01*
X113326805Y-128257739D01*
X113252900Y-128629286D01*
X102500500Y-128629286D01*
X102500500Y-122555000D01*
X102495398Y-122529351D01*
X102495398Y-122503203D01*
X102291557Y-121478422D01*
X111218962Y-121478422D01*
X111339724Y-121770686D01*
X111563137Y-121994490D01*
X111855191Y-122115762D01*
X112171422Y-122116038D01*
X112463686Y-121995276D01*
X112687490Y-121771863D01*
X112808762Y-121479809D01*
X112809038Y-121163578D01*
X112688276Y-120871314D01*
X112464863Y-120647510D01*
X112172809Y-120526238D01*
X111856578Y-120525962D01*
X111564314Y-120646724D01*
X111340510Y-120870137D01*
X111219238Y-121162191D01*
X111218962Y-121478422D01*
X102291557Y-121478422D01*
X102012033Y-120073164D01*
X101972390Y-119977457D01*
X101972390Y-119977456D01*
X101038357Y-118579577D01*
X107840830Y-118579577D01*
X107895775Y-118777385D01*
X108337031Y-118898959D01*
X108791223Y-118842417D01*
X108948225Y-118777385D01*
X109003170Y-118579577D01*
X108422000Y-117998408D01*
X107840830Y-118579577D01*
X101038357Y-118579577D01*
X100595883Y-117917368D01*
X100522632Y-117844117D01*
X100223183Y-117644031D01*
X107252041Y-117644031D01*
X107308583Y-118098223D01*
X107373615Y-118255225D01*
X107571423Y-118310170D01*
X108152592Y-117729000D01*
X108691408Y-117729000D01*
X109272577Y-118310170D01*
X109470385Y-118255225D01*
X109571996Y-117886422D01*
X111218962Y-117886422D01*
X111339724Y-118178686D01*
X111563137Y-118402490D01*
X111855191Y-118523762D01*
X112171422Y-118524038D01*
X112463686Y-118403276D01*
X112687490Y-118179863D01*
X112808762Y-117887809D01*
X112809038Y-117571578D01*
X112688276Y-117279314D01*
X112464863Y-117055510D01*
X112331500Y-117000133D01*
X112331500Y-109418990D01*
X112394489Y-109356111D01*
X112458427Y-109202130D01*
X112458573Y-109035402D01*
X112394903Y-108881309D01*
X112277111Y-108763311D01*
X112123130Y-108699373D01*
X111956402Y-108699227D01*
X111802309Y-108762897D01*
X111684311Y-108880689D01*
X111620373Y-109034670D01*
X111620227Y-109201398D01*
X111683897Y-109355491D01*
X111696500Y-109368116D01*
X111696500Y-117000105D01*
X111564314Y-117054724D01*
X111340510Y-117278137D01*
X111219238Y-117570191D01*
X111218962Y-117886422D01*
X109571996Y-117886422D01*
X109591959Y-117813969D01*
X109535417Y-117359777D01*
X109470385Y-117202775D01*
X109272577Y-117147830D01*
X108691408Y-117729000D01*
X108152592Y-117729000D01*
X107571423Y-117147830D01*
X107373615Y-117202775D01*
X107252041Y-117644031D01*
X100223183Y-117644031D01*
X99077370Y-116878423D01*
X107840830Y-116878423D01*
X108422000Y-117459592D01*
X109003170Y-116878423D01*
X108948225Y-116680615D01*
X108506969Y-116559041D01*
X108052777Y-116615583D01*
X107895775Y-116680615D01*
X107840830Y-116878423D01*
X99077370Y-116878423D01*
X98462544Y-116467610D01*
X98411097Y-116446300D01*
X98366836Y-116427966D01*
X95936796Y-115944602D01*
X95910649Y-115944602D01*
X95885000Y-115939500D01*
X93229500Y-115939500D01*
X93229500Y-101301998D01*
X116293827Y-101301998D01*
X116357497Y-101456091D01*
X116475289Y-101574089D01*
X116629270Y-101638027D01*
X116795998Y-101638173D01*
X116950091Y-101574503D01*
X117068089Y-101456711D01*
X117132027Y-101302730D01*
X117132173Y-101136002D01*
X117068503Y-100981909D01*
X116950711Y-100863911D01*
X116796730Y-100799973D01*
X116630002Y-100799827D01*
X116475909Y-100863497D01*
X116357911Y-100981289D01*
X116293973Y-101135270D01*
X116293827Y-101301998D01*
X93229500Y-101301998D01*
X93229500Y-95299319D01*
X99205807Y-95299319D01*
X99419004Y-95815295D01*
X99813428Y-96210408D01*
X100329032Y-96424506D01*
X100887319Y-96424993D01*
X100996961Y-96379690D01*
X100952373Y-96487070D01*
X100952227Y-96653798D01*
X101015897Y-96807891D01*
X101080306Y-96872412D01*
X100889768Y-96793294D01*
X100331481Y-96792807D01*
X99815505Y-97006004D01*
X99420392Y-97400428D01*
X99206294Y-97916032D01*
X99205807Y-98474319D01*
X99419004Y-98990295D01*
X99813428Y-99385408D01*
X100329032Y-99599506D01*
X100887319Y-99599993D01*
X101403295Y-99386796D01*
X101798408Y-98992372D01*
X102012506Y-98476768D01*
X102012625Y-98339761D01*
X102425375Y-98339761D01*
X102535350Y-98605921D01*
X102738808Y-98809735D01*
X103004776Y-98920174D01*
X103292761Y-98920425D01*
X103558921Y-98810450D01*
X103762735Y-98606992D01*
X103873174Y-98341024D01*
X103873425Y-98053039D01*
X103763450Y-97786879D01*
X103559992Y-97583065D01*
X103294024Y-97472626D01*
X103006039Y-97472375D01*
X102739879Y-97582350D01*
X102536065Y-97785808D01*
X102425626Y-98051776D01*
X102425375Y-98339761D01*
X102012625Y-98339761D01*
X102012993Y-97918481D01*
X101799796Y-97402505D01*
X101405372Y-97007392D01*
X101363230Y-96989893D01*
X101454398Y-96989973D01*
X101577520Y-96939100D01*
X105057425Y-96939100D01*
X104895505Y-97006004D01*
X104500392Y-97400428D01*
X104286294Y-97916032D01*
X104285807Y-98474319D01*
X104499004Y-98990295D01*
X104828484Y-99320351D01*
X102656163Y-99320351D01*
X102548911Y-99212911D01*
X102394930Y-99148973D01*
X102228202Y-99148827D01*
X102074109Y-99212497D01*
X101956111Y-99330289D01*
X101892173Y-99484270D01*
X101892027Y-99650998D01*
X101955697Y-99805091D01*
X102073489Y-99923089D01*
X102227470Y-99987027D01*
X102394198Y-99987173D01*
X102471213Y-99955351D01*
X115627149Y-99955351D01*
X115748651Y-99931183D01*
X115851655Y-99862357D01*
X117081300Y-98632713D01*
X117081300Y-98729800D01*
X117093094Y-98789091D01*
X117105468Y-98851302D01*
X117174294Y-98954306D01*
X124472700Y-106252712D01*
X124472700Y-114808000D01*
X124495421Y-114922227D01*
X124496868Y-114929502D01*
X124565694Y-115032506D01*
X130492500Y-120959313D01*
X130492500Y-127350673D01*
X130260748Y-127446431D01*
X129987391Y-127719311D01*
X129857500Y-128032124D01*
X129857500Y-121869200D01*
X129833332Y-121747698D01*
X129764506Y-121644694D01*
X123761500Y-115641688D01*
X123761500Y-107895034D01*
X123799089Y-107857511D01*
X123863027Y-107703530D01*
X123863173Y-107536802D01*
X123799503Y-107382709D01*
X123681711Y-107264711D01*
X123527730Y-107200773D01*
X123361002Y-107200627D01*
X123206909Y-107264297D01*
X123088911Y-107382089D01*
X123024973Y-107536070D01*
X123024827Y-107702798D01*
X123088497Y-107856891D01*
X123126500Y-107894960D01*
X123126500Y-115773200D01*
X123146729Y-115874897D01*
X123150668Y-115894702D01*
X123219494Y-115997706D01*
X129222500Y-122000712D01*
X129222500Y-128032785D01*
X129093569Y-127720748D01*
X128820689Y-127447391D01*
X128587500Y-127350563D01*
X128587500Y-123266200D01*
X128563332Y-123144698D01*
X128494506Y-123041694D01*
X113130210Y-107677398D01*
X117563827Y-107677398D01*
X117627497Y-107831491D01*
X117665500Y-107869560D01*
X117665500Y-111484766D01*
X117627911Y-111522289D01*
X117563973Y-111676270D01*
X117563827Y-111842998D01*
X117627497Y-111997091D01*
X117745289Y-112115089D01*
X117899270Y-112179027D01*
X118065998Y-112179173D01*
X118220091Y-112115503D01*
X118338089Y-111997711D01*
X118402027Y-111843730D01*
X118402173Y-111677002D01*
X118338503Y-111522909D01*
X118300500Y-111484840D01*
X118300500Y-107869634D01*
X118338089Y-107832111D01*
X118402027Y-107678130D01*
X118402027Y-107677398D01*
X120230827Y-107677398D01*
X120294497Y-107831491D01*
X120332500Y-107869560D01*
X120332500Y-111484766D01*
X120294911Y-111522289D01*
X120230973Y-111676270D01*
X120230827Y-111842998D01*
X120294497Y-111997091D01*
X120412289Y-112115089D01*
X120566270Y-112179027D01*
X120732998Y-112179173D01*
X120887091Y-112115503D01*
X121005089Y-111997711D01*
X121069027Y-111843730D01*
X121069173Y-111677002D01*
X121005503Y-111522909D01*
X120967500Y-111484840D01*
X120967500Y-107869634D01*
X121005089Y-107832111D01*
X121069027Y-107678130D01*
X121069173Y-107511402D01*
X121005503Y-107357309D01*
X120887711Y-107239311D01*
X120733730Y-107175373D01*
X120567002Y-107175227D01*
X120412909Y-107238897D01*
X120294911Y-107356689D01*
X120230973Y-107510670D01*
X120230827Y-107677398D01*
X118402027Y-107677398D01*
X118402173Y-107511402D01*
X118338503Y-107357309D01*
X118220711Y-107239311D01*
X118066730Y-107175373D01*
X117900002Y-107175227D01*
X117745909Y-107238897D01*
X117627911Y-107356689D01*
X117563973Y-107510670D01*
X117563827Y-107677398D01*
X113130210Y-107677398D01*
X107937326Y-102484514D01*
X107937373Y-102431402D01*
X107873703Y-102277309D01*
X107755911Y-102159311D01*
X107601930Y-102095373D01*
X107435202Y-102095227D01*
X107281109Y-102158897D01*
X107163111Y-102276689D01*
X107099173Y-102430670D01*
X107099027Y-102597398D01*
X107162697Y-102751491D01*
X107280489Y-102869489D01*
X107434470Y-102933427D01*
X107488262Y-102933474D01*
X127952500Y-123397712D01*
X127952500Y-127350673D01*
X127720748Y-127446431D01*
X127447391Y-127719311D01*
X127299269Y-128076029D01*
X127298932Y-128462277D01*
X127446431Y-128819252D01*
X127719311Y-129092609D01*
X128076029Y-129240731D01*
X128462277Y-129241068D01*
X128819252Y-129093569D01*
X129092609Y-128820689D01*
X129222500Y-128507876D01*
X129222500Y-129408487D01*
X128695556Y-129935431D01*
X128463971Y-129839269D01*
X128077723Y-129838932D01*
X127720748Y-129986431D01*
X127447391Y-130259311D01*
X127299269Y-130616029D01*
X127298932Y-131002277D01*
X127446431Y-131359252D01*
X127719311Y-131632609D01*
X128076029Y-131780731D01*
X128462277Y-131781068D01*
X128819252Y-131633569D01*
X129092609Y-131360689D01*
X129240731Y-131003971D01*
X129240732Y-131002277D01*
X129838932Y-131002277D01*
X129986431Y-131359252D01*
X130259311Y-131632609D01*
X130616029Y-131780731D01*
X131002277Y-131781068D01*
X131359252Y-131633569D01*
X131632609Y-131360689D01*
X131709842Y-131174690D01*
X146113181Y-131174690D01*
X146392942Y-131851763D01*
X146910512Y-132370237D01*
X147587096Y-132651180D01*
X148319690Y-132651819D01*
X148996763Y-132372058D01*
X149515237Y-131854488D01*
X149796180Y-131177904D01*
X149796819Y-130445310D01*
X149517058Y-129768237D01*
X148999488Y-129249763D01*
X148322904Y-128968820D01*
X147590310Y-128968181D01*
X146913237Y-129247942D01*
X146394763Y-129765512D01*
X146113820Y-130442096D01*
X146113181Y-131174690D01*
X131709842Y-131174690D01*
X131780731Y-131003971D01*
X131781068Y-130617723D01*
X131633569Y-130260748D01*
X131360689Y-129987391D01*
X131003971Y-129839269D01*
X130617723Y-129838932D01*
X130260748Y-129986431D01*
X129987391Y-130259311D01*
X129839269Y-130616029D01*
X129838932Y-131002277D01*
X129240732Y-131002277D01*
X129241068Y-130617723D01*
X129144647Y-130384366D01*
X129764506Y-129764507D01*
X129833332Y-129661502D01*
X129840319Y-129626375D01*
X129857500Y-129540000D01*
X129857500Y-128507215D01*
X129986431Y-128819252D01*
X130259311Y-129092609D01*
X130616029Y-129240731D01*
X131002277Y-129241068D01*
X131359252Y-129093569D01*
X131632609Y-128820689D01*
X131780731Y-128463971D01*
X131781068Y-128077723D01*
X131633569Y-127720748D01*
X131360689Y-127447391D01*
X131127500Y-127350563D01*
X131127500Y-120827800D01*
X131103332Y-120706298D01*
X131064051Y-120647510D01*
X131034507Y-120603294D01*
X127049411Y-116618198D01*
X128104827Y-116618198D01*
X128168497Y-116772291D01*
X128286289Y-116890289D01*
X128440270Y-116954227D01*
X128606998Y-116954373D01*
X128761091Y-116890703D01*
X128879089Y-116772911D01*
X128943027Y-116618930D01*
X128943173Y-116452202D01*
X128879503Y-116298109D01*
X128761711Y-116180111D01*
X128607730Y-116116173D01*
X128441002Y-116116027D01*
X128286909Y-116179697D01*
X128168911Y-116297489D01*
X128104973Y-116451470D01*
X128104827Y-116618198D01*
X127049411Y-116618198D01*
X125107700Y-114676488D01*
X125107700Y-106121200D01*
X125083532Y-105999698D01*
X125014706Y-105896694D01*
X123910010Y-104791998D01*
X124995827Y-104791998D01*
X125059497Y-104946091D01*
X125177289Y-105064089D01*
X125331270Y-105128027D01*
X125497998Y-105128173D01*
X125652091Y-105064503D01*
X125770089Y-104946711D01*
X125834027Y-104792730D01*
X125834173Y-104626002D01*
X125770503Y-104471909D01*
X125652711Y-104353911D01*
X125498730Y-104289973D01*
X125332002Y-104289827D01*
X125177909Y-104353497D01*
X125059911Y-104471289D01*
X124995973Y-104625270D01*
X124995827Y-104791998D01*
X123910010Y-104791998D01*
X122477410Y-103359398D01*
X126707827Y-103359398D01*
X126771497Y-103513491D01*
X126889289Y-103631489D01*
X127043270Y-103695427D01*
X127097062Y-103695474D01*
X129781300Y-106379712D01*
X129781300Y-108385966D01*
X129743711Y-108423489D01*
X129679773Y-108577470D01*
X129679627Y-108744198D01*
X129743297Y-108898291D01*
X129781300Y-108936360D01*
X129781300Y-115853566D01*
X129743711Y-115891089D01*
X129679773Y-116045070D01*
X129679627Y-116211798D01*
X129743297Y-116365891D01*
X129861089Y-116483889D01*
X130015070Y-116547827D01*
X130181798Y-116547973D01*
X130335891Y-116484303D01*
X130430761Y-116389598D01*
X133210227Y-116389598D01*
X133273897Y-116543691D01*
X133391689Y-116661689D01*
X133545670Y-116725627D01*
X133712398Y-116725773D01*
X133866491Y-116662103D01*
X133984489Y-116544311D01*
X134048427Y-116390330D01*
X134048494Y-116313398D01*
X143040027Y-116313398D01*
X143103697Y-116467491D01*
X143221489Y-116585489D01*
X143375470Y-116649427D01*
X143542198Y-116649573D01*
X143696291Y-116585903D01*
X143814289Y-116468111D01*
X143878227Y-116314130D01*
X143878373Y-116147402D01*
X143814703Y-115993309D01*
X143696911Y-115875311D01*
X143542930Y-115811373D01*
X143376202Y-115811227D01*
X143222109Y-115874897D01*
X143104111Y-115992689D01*
X143040173Y-116146670D01*
X143040027Y-116313398D01*
X134048494Y-116313398D01*
X134048573Y-116223602D01*
X133984903Y-116069509D01*
X133867111Y-115951511D01*
X133713130Y-115887573D01*
X133546402Y-115887427D01*
X133392309Y-115951097D01*
X133274311Y-116068889D01*
X133210373Y-116222870D01*
X133210227Y-116389598D01*
X130430761Y-116389598D01*
X130453889Y-116366511D01*
X130517827Y-116212530D01*
X130517973Y-116045802D01*
X130454303Y-115891709D01*
X130416300Y-115853640D01*
X130416300Y-108936434D01*
X130453889Y-108898911D01*
X130517827Y-108744930D01*
X130517973Y-108578202D01*
X130454303Y-108424109D01*
X130416300Y-108386040D01*
X130416300Y-106248200D01*
X130392132Y-106126698D01*
X130323306Y-106023694D01*
X127546126Y-103246514D01*
X127546173Y-103193402D01*
X127494401Y-103068104D01*
X127549689Y-103123489D01*
X127703670Y-103187427D01*
X127757462Y-103187474D01*
X140161293Y-115591306D01*
X140181056Y-115604511D01*
X140264298Y-115660132D01*
X140385800Y-115684300D01*
X144403166Y-115684300D01*
X144440689Y-115721889D01*
X144594670Y-115785827D01*
X144761398Y-115785973D01*
X144915491Y-115722303D01*
X145033489Y-115604511D01*
X145097427Y-115450530D01*
X145097449Y-115424398D01*
X148221627Y-115424398D01*
X148285297Y-115578491D01*
X148403089Y-115696489D01*
X148557070Y-115760427D01*
X148723798Y-115760573D01*
X148877891Y-115696903D01*
X148995889Y-115579111D01*
X149059827Y-115425130D01*
X149059973Y-115258402D01*
X148996303Y-115104309D01*
X148878511Y-114986311D01*
X148724530Y-114922373D01*
X148557802Y-114922227D01*
X148403709Y-114985897D01*
X148285711Y-115103689D01*
X148221773Y-115257670D01*
X148221627Y-115424398D01*
X145097449Y-115424398D01*
X145097573Y-115283802D01*
X145033903Y-115129709D01*
X144995900Y-115091640D01*
X144995900Y-108774932D01*
X145831266Y-107939567D01*
X145856233Y-107956249D01*
X146227057Y-108030010D01*
X147803343Y-108030010D01*
X148174167Y-107956249D01*
X148488537Y-107746194D01*
X148698592Y-107431824D01*
X148772353Y-107061000D01*
X148698592Y-106690176D01*
X148488537Y-106375806D01*
X148174167Y-106165751D01*
X147803343Y-106091990D01*
X146227057Y-106091990D01*
X145856233Y-106165751D01*
X145541863Y-106375806D01*
X145331808Y-106690176D01*
X145258047Y-107061000D01*
X145331808Y-107431824D01*
X145375537Y-107497270D01*
X144453894Y-108418914D01*
X144385068Y-108521918D01*
X144360900Y-108643420D01*
X144360900Y-115049300D01*
X140517313Y-115049300D01*
X129989013Y-104521000D01*
X145258047Y-104521000D01*
X145331808Y-104891824D01*
X145541863Y-105206194D01*
X145856233Y-105416249D01*
X146227057Y-105490010D01*
X147803343Y-105490010D01*
X148174167Y-105416249D01*
X148488537Y-105206194D01*
X148698592Y-104891824D01*
X148772353Y-104521000D01*
X148698592Y-104150176D01*
X148488537Y-103835806D01*
X148174167Y-103625751D01*
X147803343Y-103551990D01*
X146227057Y-103551990D01*
X145856233Y-103625751D01*
X145541863Y-103835806D01*
X145331808Y-104150176D01*
X145258047Y-104521000D01*
X129989013Y-104521000D01*
X128206526Y-102738514D01*
X128206573Y-102685402D01*
X128142903Y-102531309D01*
X128025111Y-102413311D01*
X127871130Y-102349373D01*
X127704402Y-102349227D01*
X127550309Y-102412897D01*
X127432311Y-102530689D01*
X127368373Y-102684670D01*
X127368227Y-102851398D01*
X127419999Y-102976696D01*
X127364711Y-102921311D01*
X127210730Y-102857373D01*
X127044002Y-102857227D01*
X126889909Y-102920897D01*
X126771911Y-103038689D01*
X126707973Y-103192670D01*
X126707827Y-103359398D01*
X122477410Y-103359398D01*
X118540410Y-99422398D01*
X123659827Y-99422398D01*
X123723497Y-99576491D01*
X123761500Y-99614560D01*
X123761500Y-100228400D01*
X123782952Y-100336249D01*
X123785668Y-100349902D01*
X123854494Y-100452906D01*
X125234674Y-101833086D01*
X125234627Y-101886198D01*
X125298297Y-102040291D01*
X125416089Y-102158289D01*
X125570070Y-102222227D01*
X125736798Y-102222373D01*
X125890891Y-102158703D01*
X126008889Y-102040911D01*
X126033766Y-101981000D01*
X145258047Y-101981000D01*
X145331808Y-102351824D01*
X145541863Y-102666194D01*
X145856233Y-102876249D01*
X146227057Y-102950010D01*
X147803343Y-102950010D01*
X148174167Y-102876249D01*
X148488537Y-102666194D01*
X148698592Y-102351824D01*
X148772353Y-101981000D01*
X148698592Y-101610176D01*
X148488537Y-101295806D01*
X148174167Y-101085751D01*
X147803343Y-101011990D01*
X146227057Y-101011990D01*
X145856233Y-101085751D01*
X145541863Y-101295806D01*
X145331808Y-101610176D01*
X145258047Y-101981000D01*
X126033766Y-101981000D01*
X126072827Y-101886930D01*
X126072973Y-101720202D01*
X126009303Y-101566109D01*
X125891511Y-101448111D01*
X125737530Y-101384173D01*
X125683739Y-101384126D01*
X124396500Y-100096888D01*
X124396500Y-99614634D01*
X124434089Y-99577111D01*
X124490606Y-99441000D01*
X145258047Y-99441000D01*
X145331808Y-99811824D01*
X145541863Y-100126194D01*
X145856233Y-100336249D01*
X146227057Y-100410010D01*
X147803343Y-100410010D01*
X148174167Y-100336249D01*
X148488537Y-100126194D01*
X148698592Y-99811824D01*
X148772353Y-99441000D01*
X148698592Y-99070176D01*
X148488537Y-98755806D01*
X148174167Y-98545751D01*
X147803343Y-98471990D01*
X146227057Y-98471990D01*
X145856233Y-98545751D01*
X145541863Y-98755806D01*
X145331808Y-99070176D01*
X145258047Y-99441000D01*
X124490606Y-99441000D01*
X124498027Y-99423130D01*
X124498173Y-99256402D01*
X124434503Y-99102309D01*
X124316711Y-98984311D01*
X124162730Y-98920373D01*
X123996002Y-98920227D01*
X123841909Y-98983897D01*
X123723911Y-99101689D01*
X123659973Y-99255670D01*
X123659827Y-99422398D01*
X118540410Y-99422398D01*
X118089049Y-98971037D01*
X118243798Y-98971173D01*
X118397891Y-98907503D01*
X118515889Y-98789711D01*
X118579827Y-98635730D01*
X118579874Y-98581938D01*
X119375907Y-97785906D01*
X119444733Y-97682901D01*
X119452929Y-97641694D01*
X119468901Y-97561399D01*
X119468901Y-96647598D01*
X128039627Y-96647598D01*
X128103297Y-96801691D01*
X128221089Y-96919689D01*
X128375070Y-96983627D01*
X128541798Y-96983773D01*
X128695891Y-96920103D01*
X128715027Y-96901000D01*
X145258047Y-96901000D01*
X145331808Y-97271824D01*
X145541863Y-97586194D01*
X145856233Y-97796249D01*
X146227057Y-97870010D01*
X147803343Y-97870010D01*
X148174167Y-97796249D01*
X148488537Y-97586194D01*
X148698592Y-97271824D01*
X148772353Y-96901000D01*
X148698592Y-96530176D01*
X148488537Y-96215806D01*
X148174167Y-96005751D01*
X147803343Y-95931990D01*
X146227057Y-95931990D01*
X145856233Y-96005751D01*
X145541863Y-96215806D01*
X145331808Y-96530176D01*
X145258047Y-96901000D01*
X128715027Y-96901000D01*
X128813889Y-96802311D01*
X128877827Y-96648330D01*
X128877973Y-96481602D01*
X128814303Y-96327509D01*
X128696511Y-96209511D01*
X128542530Y-96145573D01*
X128375802Y-96145427D01*
X128221709Y-96209097D01*
X128103711Y-96326889D01*
X128039773Y-96480870D01*
X128039627Y-96647598D01*
X119468901Y-96647598D01*
X119468901Y-96037401D01*
X119444733Y-95915899D01*
X119375907Y-95812895D01*
X119226210Y-95663198D01*
X137985427Y-95663198D01*
X138049097Y-95817291D01*
X138166889Y-95935289D01*
X138320870Y-95999227D01*
X138487598Y-95999373D01*
X138641691Y-95935703D01*
X138759689Y-95817911D01*
X138823627Y-95663930D01*
X138823674Y-95610138D01*
X140072812Y-94361000D01*
X145258047Y-94361000D01*
X145331808Y-94731824D01*
X145541863Y-95046194D01*
X145856233Y-95256249D01*
X146227057Y-95330010D01*
X147803343Y-95330010D01*
X148174167Y-95256249D01*
X148488537Y-95046194D01*
X148698592Y-94731824D01*
X148772353Y-94361000D01*
X148698592Y-93990176D01*
X148488537Y-93675806D01*
X148174167Y-93465751D01*
X147803343Y-93391990D01*
X146227057Y-93391990D01*
X145856233Y-93465751D01*
X145541863Y-93675806D01*
X145331808Y-93990176D01*
X145258047Y-94361000D01*
X140072812Y-94361000D01*
X140153106Y-94280707D01*
X140221932Y-94177702D01*
X140228352Y-94145427D01*
X140246100Y-94056200D01*
X140246100Y-90254746D01*
X140378270Y-90309627D01*
X140544998Y-90309773D01*
X140699091Y-90246103D01*
X140712201Y-90233015D01*
X144995919Y-90233015D01*
X145189476Y-90641737D01*
X145577915Y-90990679D01*
X146070320Y-91164410D01*
X146824700Y-91164410D01*
X146824700Y-90030300D01*
X147205700Y-90030300D01*
X147205700Y-91164410D01*
X147960080Y-91164410D01*
X148452485Y-90990679D01*
X148840924Y-90641737D01*
X149034481Y-90233015D01*
X148935859Y-90030300D01*
X147205700Y-90030300D01*
X146824700Y-90030300D01*
X145094541Y-90030300D01*
X144995919Y-90233015D01*
X140712201Y-90233015D01*
X140737160Y-90208100D01*
X143670020Y-90208100D01*
X143791522Y-90183932D01*
X143894526Y-90115106D01*
X144563047Y-89446585D01*
X144995919Y-89446585D01*
X145094541Y-89649300D01*
X146824700Y-89649300D01*
X146824700Y-88515190D01*
X147205700Y-88515190D01*
X147205700Y-89649300D01*
X148935859Y-89649300D01*
X149034481Y-89446585D01*
X148840924Y-89037863D01*
X148452485Y-88688921D01*
X147960080Y-88515190D01*
X147205700Y-88515190D01*
X146824700Y-88515190D01*
X146070320Y-88515190D01*
X145577915Y-88688921D01*
X145189476Y-89037863D01*
X144995919Y-89446585D01*
X144563047Y-89446585D01*
X145831266Y-88178367D01*
X145856233Y-88195049D01*
X146227057Y-88268810D01*
X147803343Y-88268810D01*
X148174167Y-88195049D01*
X148488537Y-87984994D01*
X148698592Y-87670624D01*
X148772353Y-87299800D01*
X148698592Y-86928976D01*
X148488537Y-86614606D01*
X148174167Y-86404551D01*
X147803343Y-86330790D01*
X146227057Y-86330790D01*
X145856233Y-86404551D01*
X145541863Y-86614606D01*
X145331808Y-86928976D01*
X145258047Y-87299800D01*
X145331808Y-87670624D01*
X145375537Y-87736070D01*
X143538508Y-89573100D01*
X140737234Y-89573100D01*
X140699711Y-89535511D01*
X140545730Y-89471573D01*
X140379002Y-89471427D01*
X140253780Y-89523168D01*
X140283689Y-89493311D01*
X140347627Y-89339330D01*
X140347773Y-89172602D01*
X140284103Y-89018509D01*
X140166311Y-88900511D01*
X140012330Y-88836573D01*
X139845602Y-88836427D01*
X139691509Y-88900097D01*
X139573511Y-89017889D01*
X139509573Y-89171870D01*
X139509427Y-89338598D01*
X139573097Y-89492691D01*
X139611100Y-89530760D01*
X139611100Y-93924687D01*
X138374714Y-95161074D01*
X138321602Y-95161027D01*
X138167509Y-95224697D01*
X138049511Y-95342489D01*
X137985573Y-95496470D01*
X137985427Y-95663198D01*
X119226210Y-95663198D01*
X119087926Y-95524914D01*
X119087973Y-95471802D01*
X119024303Y-95317709D01*
X118906511Y-95199711D01*
X118752530Y-95135773D01*
X118585802Y-95135627D01*
X118431709Y-95199297D01*
X118313711Y-95317089D01*
X118249773Y-95471070D01*
X118249627Y-95637798D01*
X118262551Y-95669078D01*
X118204802Y-95669027D01*
X118050709Y-95732697D01*
X117932711Y-95850489D01*
X117868773Y-96004470D01*
X117868726Y-96058261D01*
X117622888Y-96304100D01*
X106259902Y-96304100D01*
X106483295Y-96211796D01*
X106878408Y-95817372D01*
X107092506Y-95301768D01*
X107092993Y-94743481D01*
X107053375Y-94647598D01*
X128110027Y-94647598D01*
X128173697Y-94801691D01*
X128291489Y-94919689D01*
X128445470Y-94983627D01*
X128612198Y-94983773D01*
X128766291Y-94920103D01*
X128884289Y-94802311D01*
X128948227Y-94648330D01*
X128948373Y-94481602D01*
X128884703Y-94327509D01*
X128766911Y-94209511D01*
X128612930Y-94145573D01*
X128446202Y-94145427D01*
X128292109Y-94209097D01*
X128174111Y-94326889D01*
X128110173Y-94480870D01*
X128110027Y-94647598D01*
X107053375Y-94647598D01*
X106879796Y-94227505D01*
X106485372Y-93832392D01*
X105969768Y-93618294D01*
X105411481Y-93617807D01*
X104895505Y-93831004D01*
X104500392Y-94225428D01*
X104286294Y-94741032D01*
X104285807Y-95299319D01*
X104499004Y-95815295D01*
X104893428Y-96210408D01*
X105119063Y-96304100D01*
X101697346Y-96304100D01*
X101609111Y-96215711D01*
X101460987Y-96154205D01*
X101798408Y-95817372D01*
X102012506Y-95301768D01*
X102012993Y-94743481D01*
X101799796Y-94227505D01*
X101405372Y-93832392D01*
X100889768Y-93618294D01*
X100331481Y-93617807D01*
X99815505Y-93831004D01*
X99420392Y-94225428D01*
X99206294Y-94741032D01*
X99205807Y-95299319D01*
X93229500Y-95299319D01*
X93229500Y-93259761D01*
X101409375Y-93259761D01*
X101519350Y-93525921D01*
X101722808Y-93729735D01*
X101988776Y-93840174D01*
X102276761Y-93840425D01*
X102542921Y-93730450D01*
X102746735Y-93526992D01*
X102857174Y-93261024D01*
X102857175Y-93259761D01*
X103441375Y-93259761D01*
X103551350Y-93525921D01*
X103754808Y-93729735D01*
X104020776Y-93840174D01*
X104308761Y-93840425D01*
X104574921Y-93730450D01*
X104778735Y-93526992D01*
X104889174Y-93261024D01*
X104889272Y-93147598D01*
X138060627Y-93147598D01*
X138124297Y-93301691D01*
X138242089Y-93419689D01*
X138396070Y-93483627D01*
X138562798Y-93483773D01*
X138716891Y-93420103D01*
X138834889Y-93302311D01*
X138898827Y-93148330D01*
X138898874Y-93094538D01*
X139137107Y-92856306D01*
X139205932Y-92753302D01*
X139230100Y-92631800D01*
X139230100Y-89556234D01*
X139267689Y-89518711D01*
X139331627Y-89364730D01*
X139331773Y-89198002D01*
X139268103Y-89043909D01*
X139150311Y-88925911D01*
X138996330Y-88861973D01*
X138829602Y-88861827D01*
X138675509Y-88925497D01*
X138557511Y-89043289D01*
X138493573Y-89197270D01*
X138493427Y-89363998D01*
X138557097Y-89518091D01*
X138595100Y-89556160D01*
X138595100Y-92500287D01*
X138449914Y-92645474D01*
X138396802Y-92645427D01*
X138242709Y-92709097D01*
X138124711Y-92826889D01*
X138060773Y-92980870D01*
X138060627Y-93147598D01*
X104889272Y-93147598D01*
X104889425Y-92973039D01*
X104779450Y-92706879D01*
X104713285Y-92640598D01*
X132067227Y-92640598D01*
X132130897Y-92794691D01*
X132248689Y-92912689D01*
X132402670Y-92976627D01*
X132569398Y-92976773D01*
X132723491Y-92913103D01*
X132841489Y-92795311D01*
X132905427Y-92641330D01*
X132905573Y-92474602D01*
X132881735Y-92416910D01*
X132881735Y-89795798D01*
X136537627Y-89795798D01*
X136601297Y-89949891D01*
X136719089Y-90067889D01*
X136873070Y-90131827D01*
X137039798Y-90131973D01*
X137193891Y-90068303D01*
X137311889Y-89950511D01*
X137375827Y-89796530D01*
X137375973Y-89629802D01*
X137312303Y-89475709D01*
X137275935Y-89439277D01*
X137275935Y-87781899D01*
X137313524Y-87744376D01*
X137377462Y-87590395D01*
X137377608Y-87423667D01*
X137313938Y-87269574D01*
X137196146Y-87151576D01*
X137042165Y-87087638D01*
X136875437Y-87087492D01*
X136721344Y-87151162D01*
X136603346Y-87268954D01*
X136539408Y-87422935D01*
X136539262Y-87589663D01*
X136602932Y-87743756D01*
X136640935Y-87781825D01*
X136640935Y-89435933D01*
X136601711Y-89475089D01*
X136537773Y-89629070D01*
X136537627Y-89795798D01*
X132881735Y-89795798D01*
X132881735Y-87121499D01*
X132919324Y-87083976D01*
X132983262Y-86929995D01*
X132983408Y-86763267D01*
X132919738Y-86609174D01*
X132801946Y-86491176D01*
X132647965Y-86427238D01*
X132481237Y-86427092D01*
X132327144Y-86490762D01*
X132209146Y-86608554D01*
X132145208Y-86762535D01*
X132145062Y-86929263D01*
X132208732Y-87083356D01*
X132246735Y-87121425D01*
X132246735Y-92204667D01*
X132131311Y-92319889D01*
X132067373Y-92473870D01*
X132067227Y-92640598D01*
X104713285Y-92640598D01*
X104575992Y-92503065D01*
X104310024Y-92392626D01*
X104022039Y-92392375D01*
X103755879Y-92502350D01*
X103552065Y-92705808D01*
X103441626Y-92971776D01*
X103441375Y-93259761D01*
X102857175Y-93259761D01*
X102857425Y-92973039D01*
X102747450Y-92706879D01*
X102543992Y-92503065D01*
X102278024Y-92392626D01*
X101990039Y-92392375D01*
X101723879Y-92502350D01*
X101520065Y-92705808D01*
X101409626Y-92971776D01*
X101409375Y-93259761D01*
X93229500Y-93259761D01*
X93229500Y-92005598D01*
X110883627Y-92005598D01*
X110947297Y-92159691D01*
X111065089Y-92277689D01*
X111219070Y-92341627D01*
X111385798Y-92341773D01*
X111539891Y-92278103D01*
X111577960Y-92240100D01*
X119989600Y-92240100D01*
X120111102Y-92215932D01*
X120214106Y-92147106D01*
X120223800Y-92132598D01*
X128485827Y-92132598D01*
X128549497Y-92286691D01*
X128667289Y-92404689D01*
X128821270Y-92468627D01*
X128987998Y-92468773D01*
X129142091Y-92405103D01*
X129260089Y-92287311D01*
X129324027Y-92133330D01*
X129324074Y-92079538D01*
X129713707Y-91689906D01*
X129782532Y-91586902D01*
X129806700Y-91465400D01*
X129806700Y-88072263D01*
X130341662Y-88072263D01*
X130405332Y-88226356D01*
X130443335Y-88264425D01*
X130443335Y-88853366D01*
X130405746Y-88890889D01*
X130341808Y-89044870D01*
X130341662Y-89211598D01*
X130405332Y-89365691D01*
X130523124Y-89483689D01*
X130677105Y-89547627D01*
X130843833Y-89547773D01*
X130997926Y-89484103D01*
X131115924Y-89366311D01*
X131179862Y-89212330D01*
X131180008Y-89045602D01*
X131116338Y-88891509D01*
X131078335Y-88853440D01*
X131078335Y-88264499D01*
X131115924Y-88226976D01*
X131179862Y-88072995D01*
X131180008Y-87906267D01*
X131116338Y-87752174D01*
X131078335Y-87714105D01*
X131078335Y-85833398D01*
X141541427Y-85833398D01*
X141605097Y-85987491D01*
X141722889Y-86105489D01*
X141876870Y-86169427D01*
X142043598Y-86169573D01*
X142197691Y-86105903D01*
X142231049Y-86072603D01*
X142557501Y-86399056D01*
X142557501Y-86965087D01*
X142396496Y-87126092D01*
X142396493Y-87126094D01*
X142387914Y-87134674D01*
X142334802Y-87134627D01*
X142180709Y-87198297D01*
X142062711Y-87316089D01*
X141998773Y-87470070D01*
X141998627Y-87636798D01*
X142062297Y-87790891D01*
X142180089Y-87908889D01*
X142334070Y-87972827D01*
X142500798Y-87972973D01*
X142654891Y-87909303D01*
X142772889Y-87791511D01*
X142836827Y-87637530D01*
X142836874Y-87583739D01*
X142845506Y-87575107D01*
X142845508Y-87575104D01*
X143099507Y-87321105D01*
X143168333Y-87218101D01*
X143172272Y-87198297D01*
X143192501Y-87096599D01*
X143192501Y-86267543D01*
X143168333Y-86146041D01*
X143099508Y-86043037D01*
X142582364Y-85525894D01*
X142479360Y-85457068D01*
X142357858Y-85432900D01*
X142235834Y-85432900D01*
X142198311Y-85395311D01*
X142044330Y-85331373D01*
X141877602Y-85331227D01*
X141723509Y-85394897D01*
X141605511Y-85512689D01*
X141541573Y-85666670D01*
X141541427Y-85833398D01*
X131078335Y-85833398D01*
X131078335Y-84759800D01*
X145258047Y-84759800D01*
X145331808Y-85130624D01*
X145541863Y-85444994D01*
X145856233Y-85655049D01*
X146227057Y-85728810D01*
X147803343Y-85728810D01*
X148174167Y-85655049D01*
X148488537Y-85444994D01*
X148698592Y-85130624D01*
X148772353Y-84759800D01*
X148698592Y-84388976D01*
X148488537Y-84074606D01*
X148174167Y-83864551D01*
X147803343Y-83790790D01*
X146227057Y-83790790D01*
X145856233Y-83864551D01*
X145541863Y-84074606D01*
X145331808Y-84388976D01*
X145258047Y-84759800D01*
X131078335Y-84759800D01*
X131078335Y-84356277D01*
X131988814Y-83445798D01*
X148932827Y-83445798D01*
X148996497Y-83599891D01*
X149034500Y-83637960D01*
X149034500Y-85678366D01*
X148996911Y-85715889D01*
X148932973Y-85869870D01*
X148932827Y-86036598D01*
X148996497Y-86190691D01*
X149114289Y-86308689D01*
X149268270Y-86372627D01*
X149434998Y-86372773D01*
X149589091Y-86309103D01*
X149707089Y-86191311D01*
X149771027Y-86037330D01*
X149771173Y-85870602D01*
X149707503Y-85716509D01*
X149669500Y-85678440D01*
X149669500Y-83638034D01*
X149707089Y-83600511D01*
X149771027Y-83446530D01*
X149771173Y-83279802D01*
X149707503Y-83125709D01*
X149589711Y-83007711D01*
X149435730Y-82943773D01*
X149269002Y-82943627D01*
X149114909Y-83007297D01*
X148996911Y-83125089D01*
X148932973Y-83279070D01*
X148932827Y-83445798D01*
X131988814Y-83445798D01*
X132109886Y-83324726D01*
X132162998Y-83324773D01*
X132317091Y-83261103D01*
X132435089Y-83143311D01*
X132490976Y-83008719D01*
X142049410Y-83008719D01*
X142128515Y-83200167D01*
X142274862Y-83346770D01*
X142466172Y-83426209D01*
X142673319Y-83426390D01*
X142864767Y-83347285D01*
X143011370Y-83200938D01*
X143090809Y-83009628D01*
X143090990Y-82802481D01*
X143011885Y-82611033D01*
X142865538Y-82464430D01*
X142674228Y-82384991D01*
X142467081Y-82384810D01*
X142275633Y-82463915D01*
X142129030Y-82610262D01*
X142049591Y-82801572D01*
X142049410Y-83008719D01*
X132490976Y-83008719D01*
X132499027Y-82989330D01*
X132499173Y-82822602D01*
X132435503Y-82668509D01*
X132397500Y-82630440D01*
X132397500Y-75843159D01*
X132626027Y-75748734D01*
X132897779Y-75477456D01*
X133045032Y-75122832D01*
X133045033Y-75121148D01*
X133654633Y-75121148D01*
X133801266Y-75476027D01*
X134072544Y-75747779D01*
X134427168Y-75895032D01*
X134811148Y-75895367D01*
X135166027Y-75748734D01*
X135437779Y-75477456D01*
X135585032Y-75122832D01*
X135585367Y-74738852D01*
X135438734Y-74383973D01*
X135167456Y-74112221D01*
X134812832Y-73964968D01*
X134428852Y-73964633D01*
X134073973Y-74111266D01*
X133802221Y-74382544D01*
X133654968Y-74737168D01*
X133654633Y-75121148D01*
X133045033Y-75121148D01*
X133045367Y-74738852D01*
X132898734Y-74383973D01*
X132627456Y-74112221D01*
X132272832Y-73964968D01*
X131888852Y-73964633D01*
X131533973Y-74111266D01*
X131262221Y-74382544D01*
X131114968Y-74737168D01*
X131114633Y-75121148D01*
X131261266Y-75476027D01*
X131532544Y-75747779D01*
X131762500Y-75843265D01*
X131762500Y-82630366D01*
X131724911Y-82667889D01*
X131660973Y-82821870D01*
X131660926Y-82875661D01*
X130568894Y-83967694D01*
X130536329Y-84000259D01*
X130467503Y-84103263D01*
X130443335Y-84224765D01*
X130443335Y-87714031D01*
X130405746Y-87751554D01*
X130341808Y-87905535D01*
X130341662Y-88072263D01*
X129806700Y-88072263D01*
X129806700Y-85797034D01*
X129844289Y-85759511D01*
X129908227Y-85605530D01*
X129908373Y-85438802D01*
X129844703Y-85284709D01*
X129726911Y-85166711D01*
X129572930Y-85102773D01*
X129406202Y-85102627D01*
X129252109Y-85166297D01*
X129134111Y-85284089D01*
X129070173Y-85438070D01*
X129070027Y-85604798D01*
X129133697Y-85758891D01*
X129171700Y-85796960D01*
X129171700Y-91333887D01*
X128875114Y-91630474D01*
X128822002Y-91630427D01*
X128667909Y-91694097D01*
X128549911Y-91811889D01*
X128485973Y-91965870D01*
X128485827Y-92132598D01*
X120223800Y-92132598D01*
X120282932Y-92044102D01*
X120307100Y-91922600D01*
X120282932Y-91801098D01*
X120214106Y-91698094D01*
X120111102Y-91629268D01*
X119989600Y-91605100D01*
X111578034Y-91605100D01*
X111540511Y-91567511D01*
X111386530Y-91503573D01*
X111219802Y-91503427D01*
X111065709Y-91567097D01*
X110947711Y-91684889D01*
X110883773Y-91838870D01*
X110883627Y-92005598D01*
X93229500Y-92005598D01*
X93229500Y-89313198D01*
X118910027Y-89313198D01*
X118973697Y-89467291D01*
X119091489Y-89585289D01*
X119245470Y-89649227D01*
X119299262Y-89649274D01*
X120298493Y-90648506D01*
X120390821Y-90710198D01*
X120401498Y-90717332D01*
X120523000Y-90741500D01*
X121543166Y-90741500D01*
X121580689Y-90779089D01*
X121734670Y-90843027D01*
X121901398Y-90843173D01*
X122055491Y-90779503D01*
X122173489Y-90661711D01*
X122237427Y-90507730D01*
X122237573Y-90341002D01*
X122173903Y-90186909D01*
X122056111Y-90068911D01*
X121902130Y-90004973D01*
X121735402Y-90004827D01*
X121581309Y-90068497D01*
X121543240Y-90106500D01*
X120654513Y-90106500D01*
X119748326Y-89200314D01*
X119748373Y-89147202D01*
X119684703Y-88993109D01*
X119566911Y-88875111D01*
X119412930Y-88811173D01*
X119246202Y-88811027D01*
X119092109Y-88874697D01*
X118974111Y-88992489D01*
X118910173Y-89146470D01*
X118910027Y-89313198D01*
X93229500Y-89313198D01*
X93229500Y-87260500D01*
X95885000Y-87260500D01*
X95910649Y-87255398D01*
X95936796Y-87255398D01*
X98366836Y-86772034D01*
X98422900Y-86748811D01*
X98462544Y-86732390D01*
X100522632Y-85355883D01*
X100595883Y-85282632D01*
X101972390Y-83222544D01*
X102012033Y-83126837D01*
X102012033Y-83126836D01*
X102495398Y-80696797D01*
X102495398Y-80670649D01*
X102500500Y-80645000D01*
X102500500Y-75905194D01*
X118674214Y-75905194D01*
X118750522Y-76120501D01*
X119254023Y-76270771D01*
X119776703Y-76216919D01*
X120009478Y-76120501D01*
X120085786Y-75905194D01*
X119380000Y-75199408D01*
X118674214Y-75905194D01*
X102500500Y-75905194D01*
X102500500Y-74804023D01*
X118039229Y-74804023D01*
X118093081Y-75326703D01*
X118189499Y-75559478D01*
X118404806Y-75635786D01*
X119110592Y-74930000D01*
X119649408Y-74930000D01*
X120355194Y-75635786D01*
X120570501Y-75559478D01*
X120701320Y-75121148D01*
X120954633Y-75121148D01*
X121101266Y-75476027D01*
X121372544Y-75747779D01*
X121727168Y-75895032D01*
X122111148Y-75895367D01*
X122466027Y-75748734D01*
X122737779Y-75477456D01*
X122885032Y-75122832D01*
X122885033Y-75121148D01*
X123494633Y-75121148D01*
X123641266Y-75476027D01*
X123912544Y-75747779D01*
X124142500Y-75843265D01*
X124142500Y-89636600D01*
X124157332Y-89711165D01*
X124166668Y-89758102D01*
X124235494Y-89861106D01*
X124379328Y-90004940D01*
X124250002Y-90004827D01*
X124095909Y-90068497D01*
X123977911Y-90186289D01*
X123913973Y-90340270D01*
X123913827Y-90506998D01*
X123977497Y-90661091D01*
X124095289Y-90779089D01*
X124249270Y-90843027D01*
X124415998Y-90843173D01*
X124570091Y-90779503D01*
X124688089Y-90661711D01*
X124752027Y-90507730D01*
X124752031Y-90502953D01*
X124764897Y-90534091D01*
X124882689Y-90652089D01*
X125036670Y-90716027D01*
X125203398Y-90716173D01*
X125357491Y-90652503D01*
X125370141Y-90639875D01*
X125399897Y-90711891D01*
X125517689Y-90829889D01*
X125671670Y-90893827D01*
X125838398Y-90893973D01*
X125992491Y-90830303D01*
X126110489Y-90712511D01*
X126174427Y-90558530D01*
X126174573Y-90391802D01*
X126110903Y-90237709D01*
X126072900Y-90199640D01*
X126072900Y-84669732D01*
X126206705Y-84725292D01*
X126373433Y-84725438D01*
X126527526Y-84661768D01*
X126645524Y-84543976D01*
X126682500Y-84454927D01*
X126682500Y-88701429D01*
X126394493Y-88989437D01*
X126325667Y-89092441D01*
X126301499Y-89213943D01*
X126301499Y-90377322D01*
X126289311Y-90389489D01*
X126225373Y-90543470D01*
X126225227Y-90710198D01*
X126288897Y-90864291D01*
X126406689Y-90982289D01*
X126560670Y-91046227D01*
X126727398Y-91046373D01*
X126881491Y-90982703D01*
X126999489Y-90864911D01*
X127063427Y-90710930D01*
X127063573Y-90544202D01*
X126999903Y-90390109D01*
X126936499Y-90326594D01*
X126936499Y-89345455D01*
X127224507Y-89057448D01*
X127293332Y-88954444D01*
X127317500Y-88832942D01*
X127317500Y-75843159D01*
X127546027Y-75748734D01*
X127817779Y-75477456D01*
X127965032Y-75122832D01*
X127965033Y-75121148D01*
X128574633Y-75121148D01*
X128721266Y-75476027D01*
X128992544Y-75747779D01*
X129347168Y-75895032D01*
X129731148Y-75895367D01*
X130086027Y-75748734D01*
X130357779Y-75477456D01*
X130505032Y-75122832D01*
X130505367Y-74738852D01*
X130358734Y-74383973D01*
X130087456Y-74112221D01*
X129732832Y-73964968D01*
X129348852Y-73964633D01*
X128993973Y-74111266D01*
X128722221Y-74382544D01*
X128574968Y-74737168D01*
X128574633Y-75121148D01*
X127965033Y-75121148D01*
X127965367Y-74738852D01*
X127818734Y-74383973D01*
X127547456Y-74112221D01*
X127192832Y-73964968D01*
X126808852Y-73964633D01*
X126453973Y-74111266D01*
X126182221Y-74382544D01*
X126072900Y-74645818D01*
X126072900Y-73766112D01*
X126578805Y-73260207D01*
X126807168Y-73355032D01*
X127191148Y-73355367D01*
X127546027Y-73208734D01*
X127817779Y-72937456D01*
X127965032Y-72582832D01*
X127965033Y-72581148D01*
X128574633Y-72581148D01*
X128721266Y-72936027D01*
X128992544Y-73207779D01*
X129347168Y-73355032D01*
X129731148Y-73355367D01*
X130086027Y-73208734D01*
X130357779Y-72937456D01*
X130505032Y-72582832D01*
X130505033Y-72581148D01*
X131114633Y-72581148D01*
X131261266Y-72936027D01*
X131532544Y-73207779D01*
X131887168Y-73355032D01*
X132271148Y-73355367D01*
X132626027Y-73208734D01*
X132897779Y-72937456D01*
X132986673Y-72723375D01*
X133299200Y-72723375D01*
X133299200Y-73252979D01*
X133386206Y-73463029D01*
X133546972Y-73623794D01*
X133757022Y-73710800D01*
X134286625Y-73710800D01*
X134429500Y-73567925D01*
X134429500Y-72580500D01*
X134810500Y-72580500D01*
X134810500Y-73567925D01*
X134953375Y-73710800D01*
X135482978Y-73710800D01*
X135693028Y-73623794D01*
X135853794Y-73463029D01*
X135940800Y-73252979D01*
X135940800Y-72754690D01*
X146113181Y-72754690D01*
X146392942Y-73431763D01*
X146910512Y-73950237D01*
X147587096Y-74231180D01*
X148319690Y-74231819D01*
X148996763Y-73952058D01*
X149515237Y-73434488D01*
X149796180Y-72757904D01*
X149796819Y-72025310D01*
X149517058Y-71348237D01*
X148999488Y-70829763D01*
X148322904Y-70548820D01*
X147590310Y-70548181D01*
X146913237Y-70827942D01*
X146394763Y-71345512D01*
X146113820Y-72022096D01*
X146113181Y-72754690D01*
X135940800Y-72754690D01*
X135940800Y-72723375D01*
X135797925Y-72580500D01*
X134810500Y-72580500D01*
X134429500Y-72580500D01*
X133442075Y-72580500D01*
X133299200Y-72723375D01*
X132986673Y-72723375D01*
X133045032Y-72582832D01*
X133045367Y-72198852D01*
X132898734Y-71843973D01*
X132627456Y-71572221D01*
X132518603Y-71527021D01*
X133299200Y-71527021D01*
X133299200Y-72056625D01*
X133442075Y-72199500D01*
X134429500Y-72199500D01*
X134429500Y-71212075D01*
X134810500Y-71212075D01*
X134810500Y-72199500D01*
X135797925Y-72199500D01*
X135940800Y-72056625D01*
X135940800Y-71527021D01*
X135853794Y-71316971D01*
X135693028Y-71156206D01*
X135482978Y-71069200D01*
X134953375Y-71069200D01*
X134810500Y-71212075D01*
X134429500Y-71212075D01*
X134286625Y-71069200D01*
X133757022Y-71069200D01*
X133546972Y-71156206D01*
X133386206Y-71316971D01*
X133299200Y-71527021D01*
X132518603Y-71527021D01*
X132272832Y-71424968D01*
X131888852Y-71424633D01*
X131533973Y-71571266D01*
X131262221Y-71842544D01*
X131114968Y-72197168D01*
X131114633Y-72581148D01*
X130505033Y-72581148D01*
X130505367Y-72198852D01*
X130358734Y-71843973D01*
X130087456Y-71572221D01*
X129732832Y-71424968D01*
X129348852Y-71424633D01*
X128993973Y-71571266D01*
X128722221Y-71842544D01*
X128574968Y-72197168D01*
X128574633Y-72581148D01*
X127965033Y-72581148D01*
X127965367Y-72198852D01*
X127818734Y-71843973D01*
X127547456Y-71572221D01*
X127192832Y-71424968D01*
X126808852Y-71424633D01*
X126453973Y-71571266D01*
X126182221Y-71842544D01*
X126034968Y-72197168D01*
X126034633Y-72581148D01*
X126129717Y-72811270D01*
X125530894Y-73410094D01*
X125462068Y-73513098D01*
X125437900Y-73634600D01*
X125437900Y-90021840D01*
X125358111Y-89941911D01*
X125204130Y-89877973D01*
X125150339Y-89877926D01*
X124777500Y-89505088D01*
X124777500Y-75843159D01*
X125006027Y-75748734D01*
X125277779Y-75477456D01*
X125425032Y-75122832D01*
X125425367Y-74738852D01*
X125278734Y-74383973D01*
X125007456Y-74112221D01*
X124652832Y-73964968D01*
X124268852Y-73964633D01*
X123913973Y-74111266D01*
X123642221Y-74382544D01*
X123494968Y-74737168D01*
X123494633Y-75121148D01*
X122885033Y-75121148D01*
X122885367Y-74738852D01*
X122738734Y-74383973D01*
X122467456Y-74112221D01*
X122112832Y-73964968D01*
X121728852Y-73964633D01*
X121373973Y-74111266D01*
X121102221Y-74382544D01*
X120954968Y-74737168D01*
X120954633Y-75121148D01*
X120701320Y-75121148D01*
X120720771Y-75055977D01*
X120666919Y-74533297D01*
X120570501Y-74300522D01*
X120355194Y-74224214D01*
X119649408Y-74930000D01*
X119110592Y-74930000D01*
X118404806Y-74224214D01*
X118189499Y-74300522D01*
X118039229Y-74804023D01*
X102500500Y-74804023D01*
X102500500Y-72754690D01*
X104203181Y-72754690D01*
X104482942Y-73431763D01*
X105000512Y-73950237D01*
X105677096Y-74231180D01*
X106409690Y-74231819D01*
X107080112Y-73954806D01*
X118674214Y-73954806D01*
X119380000Y-74660592D01*
X120085786Y-73954806D01*
X120009478Y-73739499D01*
X119505977Y-73589229D01*
X118983297Y-73643081D01*
X118750522Y-73739499D01*
X118674214Y-73954806D01*
X107080112Y-73954806D01*
X107086763Y-73952058D01*
X107605237Y-73434488D01*
X107886180Y-72757904D01*
X107886334Y-72581148D01*
X118414633Y-72581148D01*
X118561266Y-72936027D01*
X118832544Y-73207779D01*
X119187168Y-73355032D01*
X119571148Y-73355367D01*
X119926027Y-73208734D01*
X120197779Y-72937456D01*
X120345032Y-72582832D01*
X120345033Y-72581148D01*
X120954633Y-72581148D01*
X121101266Y-72936027D01*
X121372544Y-73207779D01*
X121727168Y-73355032D01*
X122111148Y-73355367D01*
X122466027Y-73208734D01*
X122737779Y-72937456D01*
X122885032Y-72582832D01*
X122885033Y-72581148D01*
X123494633Y-72581148D01*
X123641266Y-72936027D01*
X123912544Y-73207779D01*
X124267168Y-73355032D01*
X124651148Y-73355367D01*
X125006027Y-73208734D01*
X125277779Y-72937456D01*
X125425032Y-72582832D01*
X125425367Y-72198852D01*
X125278734Y-71843973D01*
X125007456Y-71572221D01*
X124652832Y-71424968D01*
X124268852Y-71424633D01*
X123913973Y-71571266D01*
X123642221Y-71842544D01*
X123494968Y-72197168D01*
X123494633Y-72581148D01*
X122885033Y-72581148D01*
X122885367Y-72198852D01*
X122738734Y-71843973D01*
X122467456Y-71572221D01*
X122112832Y-71424968D01*
X121728852Y-71424633D01*
X121373973Y-71571266D01*
X121102221Y-71842544D01*
X120954968Y-72197168D01*
X120954633Y-72581148D01*
X120345033Y-72581148D01*
X120345367Y-72198852D01*
X120198734Y-71843973D01*
X119927456Y-71572221D01*
X119572832Y-71424968D01*
X119188852Y-71424633D01*
X118833973Y-71571266D01*
X118562221Y-71842544D01*
X118414968Y-72197168D01*
X118414633Y-72581148D01*
X107886334Y-72581148D01*
X107886819Y-72025310D01*
X107607058Y-71348237D01*
X107089488Y-70829763D01*
X106412904Y-70548820D01*
X105680310Y-70548181D01*
X105003237Y-70827942D01*
X104484763Y-71345512D01*
X104203820Y-72022096D01*
X104203181Y-72754690D01*
X102500500Y-72754690D01*
X102500500Y-68845500D01*
X151499500Y-68845500D01*
X151499500Y-80645000D01*
X151499500Y-80645000D01*
G37*
X151499500Y-80645000D02*
X151504602Y-80670649D01*
X151504602Y-80696796D01*
X151987966Y-83126836D01*
X152011189Y-83182900D01*
X152027610Y-83222544D01*
X153404117Y-85282632D01*
X153477368Y-85355883D01*
X155537456Y-86732390D01*
X155633163Y-86772033D01*
X155633164Y-86772033D01*
X158063203Y-87255398D01*
X158089351Y-87255398D01*
X158115000Y-87260500D01*
X160770500Y-87260500D01*
X160770500Y-115939500D01*
X158115000Y-115939500D01*
X158089351Y-115944602D01*
X158063203Y-115944602D01*
X155633164Y-116427967D01*
X155633163Y-116427967D01*
X155537456Y-116467610D01*
X153477368Y-117844117D01*
X153404117Y-117917368D01*
X152027610Y-119977456D01*
X152027610Y-119977457D01*
X151987966Y-120073164D01*
X151504602Y-122503204D01*
X151504602Y-122529351D01*
X151499500Y-122555000D01*
X151499500Y-134354500D01*
X102500500Y-134354500D01*
X102500500Y-131174690D01*
X104203181Y-131174690D01*
X104482942Y-131851763D01*
X105000512Y-132370237D01*
X105677096Y-132651180D01*
X106409690Y-132651819D01*
X107086763Y-132372058D01*
X107605237Y-131854488D01*
X107886180Y-131177904D01*
X107886819Y-130445310D01*
X107607058Y-129768237D01*
X107089488Y-129249763D01*
X106412904Y-128968820D01*
X105680310Y-128968181D01*
X105003237Y-129247942D01*
X104484763Y-129765512D01*
X104203820Y-130442096D01*
X104203181Y-131174690D01*
X102500500Y-131174690D01*
X102500500Y-128629286D01*
X113252900Y-128629286D01*
X113252900Y-130196714D01*
X113326805Y-130568261D01*
X113537270Y-130883244D01*
X113852253Y-131093709D01*
X114223800Y-131167614D01*
X114595347Y-131093709D01*
X114910330Y-130883244D01*
X115120795Y-130568261D01*
X115194700Y-130196714D01*
X115194700Y-128629286D01*
X115792900Y-128629286D01*
X115792900Y-130196714D01*
X115866805Y-130568261D01*
X116077270Y-130883244D01*
X116392253Y-131093709D01*
X116763800Y-131167614D01*
X116885658Y-131143375D01*
X121863500Y-131143375D01*
X121863500Y-131678679D01*
X121950506Y-131888729D01*
X122111272Y-132049494D01*
X122321322Y-132136500D01*
X122856625Y-132136500D01*
X122999500Y-131993625D01*
X122999500Y-131000500D01*
X123380500Y-131000500D01*
X123380500Y-131993625D01*
X123523375Y-132136500D01*
X124058678Y-132136500D01*
X124268728Y-132049494D01*
X124429494Y-131888729D01*
X124516500Y-131678679D01*
X124516500Y-131143375D01*
X124375402Y-131002277D01*
X124758932Y-131002277D01*
X124906431Y-131359252D01*
X125179311Y-131632609D01*
X125536029Y-131780731D01*
X125922277Y-131781068D01*
X126279252Y-131633569D01*
X126552609Y-131360689D01*
X126700731Y-131003971D01*
X126701068Y-130617723D01*
X126553569Y-130260748D01*
X126280689Y-129987391D01*
X125923971Y-129839269D01*
X125537723Y-129838932D01*
X125180748Y-129986431D01*
X124907391Y-130259311D01*
X124759269Y-130616029D01*
X124758932Y-131002277D01*
X124375402Y-131002277D01*
X124373625Y-131000500D01*
X123380500Y-131000500D01*
X122999500Y-131000500D01*
X122006375Y-131000500D01*
X121863500Y-131143375D01*
X116885658Y-131143375D01*
X117135347Y-131093709D01*
X117450330Y-130883244D01*
X117660795Y-130568261D01*
X117734700Y-130196714D01*
X117734700Y-129941321D01*
X121863500Y-129941321D01*
X121863500Y-130476625D01*
X122006375Y-130619500D01*
X122999500Y-130619500D01*
X122999500Y-129626375D01*
X123380500Y-129626375D01*
X123380500Y-130619500D01*
X124373625Y-130619500D01*
X124516500Y-130476625D01*
X124516500Y-129941321D01*
X124429494Y-129731271D01*
X124268728Y-129570506D01*
X124058678Y-129483500D01*
X123523375Y-129483500D01*
X123380500Y-129626375D01*
X122999500Y-129626375D01*
X122856625Y-129483500D01*
X122321322Y-129483500D01*
X122111272Y-129570506D01*
X121950506Y-129731271D01*
X121863500Y-129941321D01*
X117734700Y-129941321D01*
X117734700Y-128629286D01*
X117701480Y-128462277D01*
X122218932Y-128462277D01*
X122366431Y-128819252D01*
X122639311Y-129092609D01*
X122996029Y-129240731D01*
X123382277Y-129241068D01*
X123739252Y-129093569D01*
X124012609Y-128820689D01*
X124160731Y-128463971D01*
X124160732Y-128462277D01*
X124758932Y-128462277D01*
X124906431Y-128819252D01*
X125179311Y-129092609D01*
X125536029Y-129240731D01*
X125922277Y-129241068D01*
X126279252Y-129093569D01*
X126552609Y-128820689D01*
X126700731Y-128463971D01*
X126701068Y-128077723D01*
X126553569Y-127720748D01*
X126280689Y-127447391D01*
X125923971Y-127299269D01*
X125537723Y-127298932D01*
X125180748Y-127446431D01*
X124907391Y-127719311D01*
X124759269Y-128076029D01*
X124758932Y-128462277D01*
X124160732Y-128462277D01*
X124161068Y-128077723D01*
X124013569Y-127720748D01*
X123740689Y-127447391D01*
X123383971Y-127299269D01*
X122997723Y-127298932D01*
X122640748Y-127446431D01*
X122367391Y-127719311D01*
X122219269Y-128076029D01*
X122218932Y-128462277D01*
X117701480Y-128462277D01*
X117660795Y-128257739D01*
X117450330Y-127942756D01*
X117135347Y-127732291D01*
X116763800Y-127658386D01*
X116392253Y-127732291D01*
X116077270Y-127942756D01*
X115866805Y-128257739D01*
X115792900Y-128629286D01*
X115194700Y-128629286D01*
X115120795Y-128257739D01*
X114910330Y-127942756D01*
X114595347Y-127732291D01*
X114223800Y-127658386D01*
X113852253Y-127732291D01*
X113537270Y-127942756D01*
X113326805Y-128257739D01*
X113252900Y-128629286D01*
X102500500Y-128629286D01*
X102500500Y-122555000D01*
X102495398Y-122529351D01*
X102495398Y-122503203D01*
X102291557Y-121478422D01*
X111218962Y-121478422D01*
X111339724Y-121770686D01*
X111563137Y-121994490D01*
X111855191Y-122115762D01*
X112171422Y-122116038D01*
X112463686Y-121995276D01*
X112687490Y-121771863D01*
X112808762Y-121479809D01*
X112809038Y-121163578D01*
X112688276Y-120871314D01*
X112464863Y-120647510D01*
X112172809Y-120526238D01*
X111856578Y-120525962D01*
X111564314Y-120646724D01*
X111340510Y-120870137D01*
X111219238Y-121162191D01*
X111218962Y-121478422D01*
X102291557Y-121478422D01*
X102012033Y-120073164D01*
X101972390Y-119977457D01*
X101972390Y-119977456D01*
X101038357Y-118579577D01*
X107840830Y-118579577D01*
X107895775Y-118777385D01*
X108337031Y-118898959D01*
X108791223Y-118842417D01*
X108948225Y-118777385D01*
X109003170Y-118579577D01*
X108422000Y-117998408D01*
X107840830Y-118579577D01*
X101038357Y-118579577D01*
X100595883Y-117917368D01*
X100522632Y-117844117D01*
X100223183Y-117644031D01*
X107252041Y-117644031D01*
X107308583Y-118098223D01*
X107373615Y-118255225D01*
X107571423Y-118310170D01*
X108152592Y-117729000D01*
X108691408Y-117729000D01*
X109272577Y-118310170D01*
X109470385Y-118255225D01*
X109571996Y-117886422D01*
X111218962Y-117886422D01*
X111339724Y-118178686D01*
X111563137Y-118402490D01*
X111855191Y-118523762D01*
X112171422Y-118524038D01*
X112463686Y-118403276D01*
X112687490Y-118179863D01*
X112808762Y-117887809D01*
X112809038Y-117571578D01*
X112688276Y-117279314D01*
X112464863Y-117055510D01*
X112331500Y-117000133D01*
X112331500Y-109418990D01*
X112394489Y-109356111D01*
X112458427Y-109202130D01*
X112458573Y-109035402D01*
X112394903Y-108881309D01*
X112277111Y-108763311D01*
X112123130Y-108699373D01*
X111956402Y-108699227D01*
X111802309Y-108762897D01*
X111684311Y-108880689D01*
X111620373Y-109034670D01*
X111620227Y-109201398D01*
X111683897Y-109355491D01*
X111696500Y-109368116D01*
X111696500Y-117000105D01*
X111564314Y-117054724D01*
X111340510Y-117278137D01*
X111219238Y-117570191D01*
X111218962Y-117886422D01*
X109571996Y-117886422D01*
X109591959Y-117813969D01*
X109535417Y-117359777D01*
X109470385Y-117202775D01*
X109272577Y-117147830D01*
X108691408Y-117729000D01*
X108152592Y-117729000D01*
X107571423Y-117147830D01*
X107373615Y-117202775D01*
X107252041Y-117644031D01*
X100223183Y-117644031D01*
X99077370Y-116878423D01*
X107840830Y-116878423D01*
X108422000Y-117459592D01*
X109003170Y-116878423D01*
X108948225Y-116680615D01*
X108506969Y-116559041D01*
X108052777Y-116615583D01*
X107895775Y-116680615D01*
X107840830Y-116878423D01*
X99077370Y-116878423D01*
X98462544Y-116467610D01*
X98411097Y-116446300D01*
X98366836Y-116427966D01*
X95936796Y-115944602D01*
X95910649Y-115944602D01*
X95885000Y-115939500D01*
X93229500Y-115939500D01*
X93229500Y-101301998D01*
X116293827Y-101301998D01*
X116357497Y-101456091D01*
X116475289Y-101574089D01*
X116629270Y-101638027D01*
X116795998Y-101638173D01*
X116950091Y-101574503D01*
X117068089Y-101456711D01*
X117132027Y-101302730D01*
X117132173Y-101136002D01*
X117068503Y-100981909D01*
X116950711Y-100863911D01*
X116796730Y-100799973D01*
X116630002Y-100799827D01*
X116475909Y-100863497D01*
X116357911Y-100981289D01*
X116293973Y-101135270D01*
X116293827Y-101301998D01*
X93229500Y-101301998D01*
X93229500Y-95299319D01*
X99205807Y-95299319D01*
X99419004Y-95815295D01*
X99813428Y-96210408D01*
X100329032Y-96424506D01*
X100887319Y-96424993D01*
X100996961Y-96379690D01*
X100952373Y-96487070D01*
X100952227Y-96653798D01*
X101015897Y-96807891D01*
X101080306Y-96872412D01*
X100889768Y-96793294D01*
X100331481Y-96792807D01*
X99815505Y-97006004D01*
X99420392Y-97400428D01*
X99206294Y-97916032D01*
X99205807Y-98474319D01*
X99419004Y-98990295D01*
X99813428Y-99385408D01*
X100329032Y-99599506D01*
X100887319Y-99599993D01*
X101403295Y-99386796D01*
X101798408Y-98992372D01*
X102012506Y-98476768D01*
X102012625Y-98339761D01*
X102425375Y-98339761D01*
X102535350Y-98605921D01*
X102738808Y-98809735D01*
X103004776Y-98920174D01*
X103292761Y-98920425D01*
X103558921Y-98810450D01*
X103762735Y-98606992D01*
X103873174Y-98341024D01*
X103873425Y-98053039D01*
X103763450Y-97786879D01*
X103559992Y-97583065D01*
X103294024Y-97472626D01*
X103006039Y-97472375D01*
X102739879Y-97582350D01*
X102536065Y-97785808D01*
X102425626Y-98051776D01*
X102425375Y-98339761D01*
X102012625Y-98339761D01*
X102012993Y-97918481D01*
X101799796Y-97402505D01*
X101405372Y-97007392D01*
X101363230Y-96989893D01*
X101454398Y-96989973D01*
X101577520Y-96939100D01*
X105057425Y-96939100D01*
X104895505Y-97006004D01*
X104500392Y-97400428D01*
X104286294Y-97916032D01*
X104285807Y-98474319D01*
X104499004Y-98990295D01*
X104828484Y-99320351D01*
X102656163Y-99320351D01*
X102548911Y-99212911D01*
X102394930Y-99148973D01*
X102228202Y-99148827D01*
X102074109Y-99212497D01*
X101956111Y-99330289D01*
X101892173Y-99484270D01*
X101892027Y-99650998D01*
X101955697Y-99805091D01*
X102073489Y-99923089D01*
X102227470Y-99987027D01*
X102394198Y-99987173D01*
X102471213Y-99955351D01*
X115627149Y-99955351D01*
X115748651Y-99931183D01*
X115851655Y-99862357D01*
X117081300Y-98632713D01*
X117081300Y-98729800D01*
X117093094Y-98789091D01*
X117105468Y-98851302D01*
X117174294Y-98954306D01*
X124472700Y-106252712D01*
X124472700Y-114808000D01*
X124495421Y-114922227D01*
X124496868Y-114929502D01*
X124565694Y-115032506D01*
X130492500Y-120959313D01*
X130492500Y-127350673D01*
X130260748Y-127446431D01*
X129987391Y-127719311D01*
X129857500Y-128032124D01*
X129857500Y-121869200D01*
X129833332Y-121747698D01*
X129764506Y-121644694D01*
X123761500Y-115641688D01*
X123761500Y-107895034D01*
X123799089Y-107857511D01*
X123863027Y-107703530D01*
X123863173Y-107536802D01*
X123799503Y-107382709D01*
X123681711Y-107264711D01*
X123527730Y-107200773D01*
X123361002Y-107200627D01*
X123206909Y-107264297D01*
X123088911Y-107382089D01*
X123024973Y-107536070D01*
X123024827Y-107702798D01*
X123088497Y-107856891D01*
X123126500Y-107894960D01*
X123126500Y-115773200D01*
X123146729Y-115874897D01*
X123150668Y-115894702D01*
X123219494Y-115997706D01*
X129222500Y-122000712D01*
X129222500Y-128032785D01*
X129093569Y-127720748D01*
X128820689Y-127447391D01*
X128587500Y-127350563D01*
X128587500Y-123266200D01*
X128563332Y-123144698D01*
X128494506Y-123041694D01*
X113130210Y-107677398D01*
X117563827Y-107677398D01*
X117627497Y-107831491D01*
X117665500Y-107869560D01*
X117665500Y-111484766D01*
X117627911Y-111522289D01*
X117563973Y-111676270D01*
X117563827Y-111842998D01*
X117627497Y-111997091D01*
X117745289Y-112115089D01*
X117899270Y-112179027D01*
X118065998Y-112179173D01*
X118220091Y-112115503D01*
X118338089Y-111997711D01*
X118402027Y-111843730D01*
X118402173Y-111677002D01*
X118338503Y-111522909D01*
X118300500Y-111484840D01*
X118300500Y-107869634D01*
X118338089Y-107832111D01*
X118402027Y-107678130D01*
X118402027Y-107677398D01*
X120230827Y-107677398D01*
X120294497Y-107831491D01*
X120332500Y-107869560D01*
X120332500Y-111484766D01*
X120294911Y-111522289D01*
X120230973Y-111676270D01*
X120230827Y-111842998D01*
X120294497Y-111997091D01*
X120412289Y-112115089D01*
X120566270Y-112179027D01*
X120732998Y-112179173D01*
X120887091Y-112115503D01*
X121005089Y-111997711D01*
X121069027Y-111843730D01*
X121069173Y-111677002D01*
X121005503Y-111522909D01*
X120967500Y-111484840D01*
X120967500Y-107869634D01*
X121005089Y-107832111D01*
X121069027Y-107678130D01*
X121069173Y-107511402D01*
X121005503Y-107357309D01*
X120887711Y-107239311D01*
X120733730Y-107175373D01*
X120567002Y-107175227D01*
X120412909Y-107238897D01*
X120294911Y-107356689D01*
X120230973Y-107510670D01*
X120230827Y-107677398D01*
X118402027Y-107677398D01*
X118402173Y-107511402D01*
X118338503Y-107357309D01*
X118220711Y-107239311D01*
X118066730Y-107175373D01*
X117900002Y-107175227D01*
X117745909Y-107238897D01*
X117627911Y-107356689D01*
X117563973Y-107510670D01*
X117563827Y-107677398D01*
X113130210Y-107677398D01*
X107937326Y-102484514D01*
X107937373Y-102431402D01*
X107873703Y-102277309D01*
X107755911Y-102159311D01*
X107601930Y-102095373D01*
X107435202Y-102095227D01*
X107281109Y-102158897D01*
X107163111Y-102276689D01*
X107099173Y-102430670D01*
X107099027Y-102597398D01*
X107162697Y-102751491D01*
X107280489Y-102869489D01*
X107434470Y-102933427D01*
X107488262Y-102933474D01*
X127952500Y-123397712D01*
X127952500Y-127350673D01*
X127720748Y-127446431D01*
X127447391Y-127719311D01*
X127299269Y-128076029D01*
X127298932Y-128462277D01*
X127446431Y-128819252D01*
X127719311Y-129092609D01*
X128076029Y-129240731D01*
X128462277Y-129241068D01*
X128819252Y-129093569D01*
X129092609Y-128820689D01*
X129222500Y-128507876D01*
X129222500Y-129408487D01*
X128695556Y-129935431D01*
X128463971Y-129839269D01*
X128077723Y-129838932D01*
X127720748Y-129986431D01*
X127447391Y-130259311D01*
X127299269Y-130616029D01*
X127298932Y-131002277D01*
X127446431Y-131359252D01*
X127719311Y-131632609D01*
X128076029Y-131780731D01*
X128462277Y-131781068D01*
X128819252Y-131633569D01*
X129092609Y-131360689D01*
X129240731Y-131003971D01*
X129240732Y-131002277D01*
X129838932Y-131002277D01*
X129986431Y-131359252D01*
X130259311Y-131632609D01*
X130616029Y-131780731D01*
X131002277Y-131781068D01*
X131359252Y-131633569D01*
X131632609Y-131360689D01*
X131709842Y-131174690D01*
X146113181Y-131174690D01*
X146392942Y-131851763D01*
X146910512Y-132370237D01*
X147587096Y-132651180D01*
X148319690Y-132651819D01*
X148996763Y-132372058D01*
X149515237Y-131854488D01*
X149796180Y-131177904D01*
X149796819Y-130445310D01*
X149517058Y-129768237D01*
X148999488Y-129249763D01*
X148322904Y-128968820D01*
X147590310Y-128968181D01*
X146913237Y-129247942D01*
X146394763Y-129765512D01*
X146113820Y-130442096D01*
X146113181Y-131174690D01*
X131709842Y-131174690D01*
X131780731Y-131003971D01*
X131781068Y-130617723D01*
X131633569Y-130260748D01*
X131360689Y-129987391D01*
X131003971Y-129839269D01*
X130617723Y-129838932D01*
X130260748Y-129986431D01*
X129987391Y-130259311D01*
X129839269Y-130616029D01*
X129838932Y-131002277D01*
X129240732Y-131002277D01*
X129241068Y-130617723D01*
X129144647Y-130384366D01*
X129764506Y-129764507D01*
X129833332Y-129661502D01*
X129840319Y-129626375D01*
X129857500Y-129540000D01*
X129857500Y-128507215D01*
X129986431Y-128819252D01*
X130259311Y-129092609D01*
X130616029Y-129240731D01*
X131002277Y-129241068D01*
X131359252Y-129093569D01*
X131632609Y-128820689D01*
X131780731Y-128463971D01*
X131781068Y-128077723D01*
X131633569Y-127720748D01*
X131360689Y-127447391D01*
X131127500Y-127350563D01*
X131127500Y-120827800D01*
X131103332Y-120706298D01*
X131064051Y-120647510D01*
X131034507Y-120603294D01*
X127049411Y-116618198D01*
X128104827Y-116618198D01*
X128168497Y-116772291D01*
X128286289Y-116890289D01*
X128440270Y-116954227D01*
X128606998Y-116954373D01*
X128761091Y-116890703D01*
X128879089Y-116772911D01*
X128943027Y-116618930D01*
X128943173Y-116452202D01*
X128879503Y-116298109D01*
X128761711Y-116180111D01*
X128607730Y-116116173D01*
X128441002Y-116116027D01*
X128286909Y-116179697D01*
X128168911Y-116297489D01*
X128104973Y-116451470D01*
X128104827Y-116618198D01*
X127049411Y-116618198D01*
X125107700Y-114676488D01*
X125107700Y-106121200D01*
X125083532Y-105999698D01*
X125014706Y-105896694D01*
X123910010Y-104791998D01*
X124995827Y-104791998D01*
X125059497Y-104946091D01*
X125177289Y-105064089D01*
X125331270Y-105128027D01*
X125497998Y-105128173D01*
X125652091Y-105064503D01*
X125770089Y-104946711D01*
X125834027Y-104792730D01*
X125834173Y-104626002D01*
X125770503Y-104471909D01*
X125652711Y-104353911D01*
X125498730Y-104289973D01*
X125332002Y-104289827D01*
X125177909Y-104353497D01*
X125059911Y-104471289D01*
X124995973Y-104625270D01*
X124995827Y-104791998D01*
X123910010Y-104791998D01*
X122477410Y-103359398D01*
X126707827Y-103359398D01*
X126771497Y-103513491D01*
X126889289Y-103631489D01*
X127043270Y-103695427D01*
X127097062Y-103695474D01*
X129781300Y-106379712D01*
X129781300Y-108385966D01*
X129743711Y-108423489D01*
X129679773Y-108577470D01*
X129679627Y-108744198D01*
X129743297Y-108898291D01*
X129781300Y-108936360D01*
X129781300Y-115853566D01*
X129743711Y-115891089D01*
X129679773Y-116045070D01*
X129679627Y-116211798D01*
X129743297Y-116365891D01*
X129861089Y-116483889D01*
X130015070Y-116547827D01*
X130181798Y-116547973D01*
X130335891Y-116484303D01*
X130430761Y-116389598D01*
X133210227Y-116389598D01*
X133273897Y-116543691D01*
X133391689Y-116661689D01*
X133545670Y-116725627D01*
X133712398Y-116725773D01*
X133866491Y-116662103D01*
X133984489Y-116544311D01*
X134048427Y-116390330D01*
X134048494Y-116313398D01*
X143040027Y-116313398D01*
X143103697Y-116467491D01*
X143221489Y-116585489D01*
X143375470Y-116649427D01*
X143542198Y-116649573D01*
X143696291Y-116585903D01*
X143814289Y-116468111D01*
X143878227Y-116314130D01*
X143878373Y-116147402D01*
X143814703Y-115993309D01*
X143696911Y-115875311D01*
X143542930Y-115811373D01*
X143376202Y-115811227D01*
X143222109Y-115874897D01*
X143104111Y-115992689D01*
X143040173Y-116146670D01*
X143040027Y-116313398D01*
X134048494Y-116313398D01*
X134048573Y-116223602D01*
X133984903Y-116069509D01*
X133867111Y-115951511D01*
X133713130Y-115887573D01*
X133546402Y-115887427D01*
X133392309Y-115951097D01*
X133274311Y-116068889D01*
X133210373Y-116222870D01*
X133210227Y-116389598D01*
X130430761Y-116389598D01*
X130453889Y-116366511D01*
X130517827Y-116212530D01*
X130517973Y-116045802D01*
X130454303Y-115891709D01*
X130416300Y-115853640D01*
X130416300Y-108936434D01*
X130453889Y-108898911D01*
X130517827Y-108744930D01*
X130517973Y-108578202D01*
X130454303Y-108424109D01*
X130416300Y-108386040D01*
X130416300Y-106248200D01*
X130392132Y-106126698D01*
X130323306Y-106023694D01*
X127546126Y-103246514D01*
X127546173Y-103193402D01*
X127494401Y-103068104D01*
X127549689Y-103123489D01*
X127703670Y-103187427D01*
X127757462Y-103187474D01*
X140161293Y-115591306D01*
X140181056Y-115604511D01*
X140264298Y-115660132D01*
X140385800Y-115684300D01*
X144403166Y-115684300D01*
X144440689Y-115721889D01*
X144594670Y-115785827D01*
X144761398Y-115785973D01*
X144915491Y-115722303D01*
X145033489Y-115604511D01*
X145097427Y-115450530D01*
X145097449Y-115424398D01*
X148221627Y-115424398D01*
X148285297Y-115578491D01*
X148403089Y-115696489D01*
X148557070Y-115760427D01*
X148723798Y-115760573D01*
X148877891Y-115696903D01*
X148995889Y-115579111D01*
X149059827Y-115425130D01*
X149059973Y-115258402D01*
X148996303Y-115104309D01*
X148878511Y-114986311D01*
X148724530Y-114922373D01*
X148557802Y-114922227D01*
X148403709Y-114985897D01*
X148285711Y-115103689D01*
X148221773Y-115257670D01*
X148221627Y-115424398D01*
X145097449Y-115424398D01*
X145097573Y-115283802D01*
X145033903Y-115129709D01*
X144995900Y-115091640D01*
X144995900Y-108774932D01*
X145831266Y-107939567D01*
X145856233Y-107956249D01*
X146227057Y-108030010D01*
X147803343Y-108030010D01*
X148174167Y-107956249D01*
X148488537Y-107746194D01*
X148698592Y-107431824D01*
X148772353Y-107061000D01*
X148698592Y-106690176D01*
X148488537Y-106375806D01*
X148174167Y-106165751D01*
X147803343Y-106091990D01*
X146227057Y-106091990D01*
X145856233Y-106165751D01*
X145541863Y-106375806D01*
X145331808Y-106690176D01*
X145258047Y-107061000D01*
X145331808Y-107431824D01*
X145375537Y-107497270D01*
X144453894Y-108418914D01*
X144385068Y-108521918D01*
X144360900Y-108643420D01*
X144360900Y-115049300D01*
X140517313Y-115049300D01*
X129989013Y-104521000D01*
X145258047Y-104521000D01*
X145331808Y-104891824D01*
X145541863Y-105206194D01*
X145856233Y-105416249D01*
X146227057Y-105490010D01*
X147803343Y-105490010D01*
X148174167Y-105416249D01*
X148488537Y-105206194D01*
X148698592Y-104891824D01*
X148772353Y-104521000D01*
X148698592Y-104150176D01*
X148488537Y-103835806D01*
X148174167Y-103625751D01*
X147803343Y-103551990D01*
X146227057Y-103551990D01*
X145856233Y-103625751D01*
X145541863Y-103835806D01*
X145331808Y-104150176D01*
X145258047Y-104521000D01*
X129989013Y-104521000D01*
X128206526Y-102738514D01*
X128206573Y-102685402D01*
X128142903Y-102531309D01*
X128025111Y-102413311D01*
X127871130Y-102349373D01*
X127704402Y-102349227D01*
X127550309Y-102412897D01*
X127432311Y-102530689D01*
X127368373Y-102684670D01*
X127368227Y-102851398D01*
X127419999Y-102976696D01*
X127364711Y-102921311D01*
X127210730Y-102857373D01*
X127044002Y-102857227D01*
X126889909Y-102920897D01*
X126771911Y-103038689D01*
X126707973Y-103192670D01*
X126707827Y-103359398D01*
X122477410Y-103359398D01*
X118540410Y-99422398D01*
X123659827Y-99422398D01*
X123723497Y-99576491D01*
X123761500Y-99614560D01*
X123761500Y-100228400D01*
X123782952Y-100336249D01*
X123785668Y-100349902D01*
X123854494Y-100452906D01*
X125234674Y-101833086D01*
X125234627Y-101886198D01*
X125298297Y-102040291D01*
X125416089Y-102158289D01*
X125570070Y-102222227D01*
X125736798Y-102222373D01*
X125890891Y-102158703D01*
X126008889Y-102040911D01*
X126033766Y-101981000D01*
X145258047Y-101981000D01*
X145331808Y-102351824D01*
X145541863Y-102666194D01*
X145856233Y-102876249D01*
X146227057Y-102950010D01*
X147803343Y-102950010D01*
X148174167Y-102876249D01*
X148488537Y-102666194D01*
X148698592Y-102351824D01*
X148772353Y-101981000D01*
X148698592Y-101610176D01*
X148488537Y-101295806D01*
X148174167Y-101085751D01*
X147803343Y-101011990D01*
X146227057Y-101011990D01*
X145856233Y-101085751D01*
X145541863Y-101295806D01*
X145331808Y-101610176D01*
X145258047Y-101981000D01*
X126033766Y-101981000D01*
X126072827Y-101886930D01*
X126072973Y-101720202D01*
X126009303Y-101566109D01*
X125891511Y-101448111D01*
X125737530Y-101384173D01*
X125683739Y-101384126D01*
X124396500Y-100096888D01*
X124396500Y-99614634D01*
X124434089Y-99577111D01*
X124490606Y-99441000D01*
X145258047Y-99441000D01*
X145331808Y-99811824D01*
X145541863Y-100126194D01*
X145856233Y-100336249D01*
X146227057Y-100410010D01*
X147803343Y-100410010D01*
X148174167Y-100336249D01*
X148488537Y-100126194D01*
X148698592Y-99811824D01*
X148772353Y-99441000D01*
X148698592Y-99070176D01*
X148488537Y-98755806D01*
X148174167Y-98545751D01*
X147803343Y-98471990D01*
X146227057Y-98471990D01*
X145856233Y-98545751D01*
X145541863Y-98755806D01*
X145331808Y-99070176D01*
X145258047Y-99441000D01*
X124490606Y-99441000D01*
X124498027Y-99423130D01*
X124498173Y-99256402D01*
X124434503Y-99102309D01*
X124316711Y-98984311D01*
X124162730Y-98920373D01*
X123996002Y-98920227D01*
X123841909Y-98983897D01*
X123723911Y-99101689D01*
X123659973Y-99255670D01*
X123659827Y-99422398D01*
X118540410Y-99422398D01*
X118089049Y-98971037D01*
X118243798Y-98971173D01*
X118397891Y-98907503D01*
X118515889Y-98789711D01*
X118579827Y-98635730D01*
X118579874Y-98581938D01*
X119375907Y-97785906D01*
X119444733Y-97682901D01*
X119452929Y-97641694D01*
X119468901Y-97561399D01*
X119468901Y-96647598D01*
X128039627Y-96647598D01*
X128103297Y-96801691D01*
X128221089Y-96919689D01*
X128375070Y-96983627D01*
X128541798Y-96983773D01*
X128695891Y-96920103D01*
X128715027Y-96901000D01*
X145258047Y-96901000D01*
X145331808Y-97271824D01*
X145541863Y-97586194D01*
X145856233Y-97796249D01*
X146227057Y-97870010D01*
X147803343Y-97870010D01*
X148174167Y-97796249D01*
X148488537Y-97586194D01*
X148698592Y-97271824D01*
X148772353Y-96901000D01*
X148698592Y-96530176D01*
X148488537Y-96215806D01*
X148174167Y-96005751D01*
X147803343Y-95931990D01*
X146227057Y-95931990D01*
X145856233Y-96005751D01*
X145541863Y-96215806D01*
X145331808Y-96530176D01*
X145258047Y-96901000D01*
X128715027Y-96901000D01*
X128813889Y-96802311D01*
X128877827Y-96648330D01*
X128877973Y-96481602D01*
X128814303Y-96327509D01*
X128696511Y-96209511D01*
X128542530Y-96145573D01*
X128375802Y-96145427D01*
X128221709Y-96209097D01*
X128103711Y-96326889D01*
X128039773Y-96480870D01*
X128039627Y-96647598D01*
X119468901Y-96647598D01*
X119468901Y-96037401D01*
X119444733Y-95915899D01*
X119375907Y-95812895D01*
X119226210Y-95663198D01*
X137985427Y-95663198D01*
X138049097Y-95817291D01*
X138166889Y-95935289D01*
X138320870Y-95999227D01*
X138487598Y-95999373D01*
X138641691Y-95935703D01*
X138759689Y-95817911D01*
X138823627Y-95663930D01*
X138823674Y-95610138D01*
X140072812Y-94361000D01*
X145258047Y-94361000D01*
X145331808Y-94731824D01*
X145541863Y-95046194D01*
X145856233Y-95256249D01*
X146227057Y-95330010D01*
X147803343Y-95330010D01*
X148174167Y-95256249D01*
X148488537Y-95046194D01*
X148698592Y-94731824D01*
X148772353Y-94361000D01*
X148698592Y-93990176D01*
X148488537Y-93675806D01*
X148174167Y-93465751D01*
X147803343Y-93391990D01*
X146227057Y-93391990D01*
X145856233Y-93465751D01*
X145541863Y-93675806D01*
X145331808Y-93990176D01*
X145258047Y-94361000D01*
X140072812Y-94361000D01*
X140153106Y-94280707D01*
X140221932Y-94177702D01*
X140228352Y-94145427D01*
X140246100Y-94056200D01*
X140246100Y-90254746D01*
X140378270Y-90309627D01*
X140544998Y-90309773D01*
X140699091Y-90246103D01*
X140712201Y-90233015D01*
X144995919Y-90233015D01*
X145189476Y-90641737D01*
X145577915Y-90990679D01*
X146070320Y-91164410D01*
X146824700Y-91164410D01*
X146824700Y-90030300D01*
X147205700Y-90030300D01*
X147205700Y-91164410D01*
X147960080Y-91164410D01*
X148452485Y-90990679D01*
X148840924Y-90641737D01*
X149034481Y-90233015D01*
X148935859Y-90030300D01*
X147205700Y-90030300D01*
X146824700Y-90030300D01*
X145094541Y-90030300D01*
X144995919Y-90233015D01*
X140712201Y-90233015D01*
X140737160Y-90208100D01*
X143670020Y-90208100D01*
X143791522Y-90183932D01*
X143894526Y-90115106D01*
X144563047Y-89446585D01*
X144995919Y-89446585D01*
X145094541Y-89649300D01*
X146824700Y-89649300D01*
X146824700Y-88515190D01*
X147205700Y-88515190D01*
X147205700Y-89649300D01*
X148935859Y-89649300D01*
X149034481Y-89446585D01*
X148840924Y-89037863D01*
X148452485Y-88688921D01*
X147960080Y-88515190D01*
X147205700Y-88515190D01*
X146824700Y-88515190D01*
X146070320Y-88515190D01*
X145577915Y-88688921D01*
X145189476Y-89037863D01*
X144995919Y-89446585D01*
X144563047Y-89446585D01*
X145831266Y-88178367D01*
X145856233Y-88195049D01*
X146227057Y-88268810D01*
X147803343Y-88268810D01*
X148174167Y-88195049D01*
X148488537Y-87984994D01*
X148698592Y-87670624D01*
X148772353Y-87299800D01*
X148698592Y-86928976D01*
X148488537Y-86614606D01*
X148174167Y-86404551D01*
X147803343Y-86330790D01*
X146227057Y-86330790D01*
X145856233Y-86404551D01*
X145541863Y-86614606D01*
X145331808Y-86928976D01*
X145258047Y-87299800D01*
X145331808Y-87670624D01*
X145375537Y-87736070D01*
X143538508Y-89573100D01*
X140737234Y-89573100D01*
X140699711Y-89535511D01*
X140545730Y-89471573D01*
X140379002Y-89471427D01*
X140253780Y-89523168D01*
X140283689Y-89493311D01*
X140347627Y-89339330D01*
X140347773Y-89172602D01*
X140284103Y-89018509D01*
X140166311Y-88900511D01*
X140012330Y-88836573D01*
X139845602Y-88836427D01*
X139691509Y-88900097D01*
X139573511Y-89017889D01*
X139509573Y-89171870D01*
X139509427Y-89338598D01*
X139573097Y-89492691D01*
X139611100Y-89530760D01*
X139611100Y-93924687D01*
X138374714Y-95161074D01*
X138321602Y-95161027D01*
X138167509Y-95224697D01*
X138049511Y-95342489D01*
X137985573Y-95496470D01*
X137985427Y-95663198D01*
X119226210Y-95663198D01*
X119087926Y-95524914D01*
X119087973Y-95471802D01*
X119024303Y-95317709D01*
X118906511Y-95199711D01*
X118752530Y-95135773D01*
X118585802Y-95135627D01*
X118431709Y-95199297D01*
X118313711Y-95317089D01*
X118249773Y-95471070D01*
X118249627Y-95637798D01*
X118262551Y-95669078D01*
X118204802Y-95669027D01*
X118050709Y-95732697D01*
X117932711Y-95850489D01*
X117868773Y-96004470D01*
X117868726Y-96058261D01*
X117622888Y-96304100D01*
X106259902Y-96304100D01*
X106483295Y-96211796D01*
X106878408Y-95817372D01*
X107092506Y-95301768D01*
X107092993Y-94743481D01*
X107053375Y-94647598D01*
X128110027Y-94647598D01*
X128173697Y-94801691D01*
X128291489Y-94919689D01*
X128445470Y-94983627D01*
X128612198Y-94983773D01*
X128766291Y-94920103D01*
X128884289Y-94802311D01*
X128948227Y-94648330D01*
X128948373Y-94481602D01*
X128884703Y-94327509D01*
X128766911Y-94209511D01*
X128612930Y-94145573D01*
X128446202Y-94145427D01*
X128292109Y-94209097D01*
X128174111Y-94326889D01*
X128110173Y-94480870D01*
X128110027Y-94647598D01*
X107053375Y-94647598D01*
X106879796Y-94227505D01*
X106485372Y-93832392D01*
X105969768Y-93618294D01*
X105411481Y-93617807D01*
X104895505Y-93831004D01*
X104500392Y-94225428D01*
X104286294Y-94741032D01*
X104285807Y-95299319D01*
X104499004Y-95815295D01*
X104893428Y-96210408D01*
X105119063Y-96304100D01*
X101697346Y-96304100D01*
X101609111Y-96215711D01*
X101460987Y-96154205D01*
X101798408Y-95817372D01*
X102012506Y-95301768D01*
X102012993Y-94743481D01*
X101799796Y-94227505D01*
X101405372Y-93832392D01*
X100889768Y-93618294D01*
X100331481Y-93617807D01*
X99815505Y-93831004D01*
X99420392Y-94225428D01*
X99206294Y-94741032D01*
X99205807Y-95299319D01*
X93229500Y-95299319D01*
X93229500Y-93259761D01*
X101409375Y-93259761D01*
X101519350Y-93525921D01*
X101722808Y-93729735D01*
X101988776Y-93840174D01*
X102276761Y-93840425D01*
X102542921Y-93730450D01*
X102746735Y-93526992D01*
X102857174Y-93261024D01*
X102857175Y-93259761D01*
X103441375Y-93259761D01*
X103551350Y-93525921D01*
X103754808Y-93729735D01*
X104020776Y-93840174D01*
X104308761Y-93840425D01*
X104574921Y-93730450D01*
X104778735Y-93526992D01*
X104889174Y-93261024D01*
X104889272Y-93147598D01*
X138060627Y-93147598D01*
X138124297Y-93301691D01*
X138242089Y-93419689D01*
X138396070Y-93483627D01*
X138562798Y-93483773D01*
X138716891Y-93420103D01*
X138834889Y-93302311D01*
X138898827Y-93148330D01*
X138898874Y-93094538D01*
X139137107Y-92856306D01*
X139205932Y-92753302D01*
X139230100Y-92631800D01*
X139230100Y-89556234D01*
X139267689Y-89518711D01*
X139331627Y-89364730D01*
X139331773Y-89198002D01*
X139268103Y-89043909D01*
X139150311Y-88925911D01*
X138996330Y-88861973D01*
X138829602Y-88861827D01*
X138675509Y-88925497D01*
X138557511Y-89043289D01*
X138493573Y-89197270D01*
X138493427Y-89363998D01*
X138557097Y-89518091D01*
X138595100Y-89556160D01*
X138595100Y-92500287D01*
X138449914Y-92645474D01*
X138396802Y-92645427D01*
X138242709Y-92709097D01*
X138124711Y-92826889D01*
X138060773Y-92980870D01*
X138060627Y-93147598D01*
X104889272Y-93147598D01*
X104889425Y-92973039D01*
X104779450Y-92706879D01*
X104713285Y-92640598D01*
X132067227Y-92640598D01*
X132130897Y-92794691D01*
X132248689Y-92912689D01*
X132402670Y-92976627D01*
X132569398Y-92976773D01*
X132723491Y-92913103D01*
X132841489Y-92795311D01*
X132905427Y-92641330D01*
X132905573Y-92474602D01*
X132881735Y-92416910D01*
X132881735Y-89795798D01*
X136537627Y-89795798D01*
X136601297Y-89949891D01*
X136719089Y-90067889D01*
X136873070Y-90131827D01*
X137039798Y-90131973D01*
X137193891Y-90068303D01*
X137311889Y-89950511D01*
X137375827Y-89796530D01*
X137375973Y-89629802D01*
X137312303Y-89475709D01*
X137275935Y-89439277D01*
X137275935Y-87781899D01*
X137313524Y-87744376D01*
X137377462Y-87590395D01*
X137377608Y-87423667D01*
X137313938Y-87269574D01*
X137196146Y-87151576D01*
X137042165Y-87087638D01*
X136875437Y-87087492D01*
X136721344Y-87151162D01*
X136603346Y-87268954D01*
X136539408Y-87422935D01*
X136539262Y-87589663D01*
X136602932Y-87743756D01*
X136640935Y-87781825D01*
X136640935Y-89435933D01*
X136601711Y-89475089D01*
X136537773Y-89629070D01*
X136537627Y-89795798D01*
X132881735Y-89795798D01*
X132881735Y-87121499D01*
X132919324Y-87083976D01*
X132983262Y-86929995D01*
X132983408Y-86763267D01*
X132919738Y-86609174D01*
X132801946Y-86491176D01*
X132647965Y-86427238D01*
X132481237Y-86427092D01*
X132327144Y-86490762D01*
X132209146Y-86608554D01*
X132145208Y-86762535D01*
X132145062Y-86929263D01*
X132208732Y-87083356D01*
X132246735Y-87121425D01*
X132246735Y-92204667D01*
X132131311Y-92319889D01*
X132067373Y-92473870D01*
X132067227Y-92640598D01*
X104713285Y-92640598D01*
X104575992Y-92503065D01*
X104310024Y-92392626D01*
X104022039Y-92392375D01*
X103755879Y-92502350D01*
X103552065Y-92705808D01*
X103441626Y-92971776D01*
X103441375Y-93259761D01*
X102857175Y-93259761D01*
X102857425Y-92973039D01*
X102747450Y-92706879D01*
X102543992Y-92503065D01*
X102278024Y-92392626D01*
X101990039Y-92392375D01*
X101723879Y-92502350D01*
X101520065Y-92705808D01*
X101409626Y-92971776D01*
X101409375Y-93259761D01*
X93229500Y-93259761D01*
X93229500Y-92005598D01*
X110883627Y-92005598D01*
X110947297Y-92159691D01*
X111065089Y-92277689D01*
X111219070Y-92341627D01*
X111385798Y-92341773D01*
X111539891Y-92278103D01*
X111577960Y-92240100D01*
X119989600Y-92240100D01*
X120111102Y-92215932D01*
X120214106Y-92147106D01*
X120223800Y-92132598D01*
X128485827Y-92132598D01*
X128549497Y-92286691D01*
X128667289Y-92404689D01*
X128821270Y-92468627D01*
X128987998Y-92468773D01*
X129142091Y-92405103D01*
X129260089Y-92287311D01*
X129324027Y-92133330D01*
X129324074Y-92079538D01*
X129713707Y-91689906D01*
X129782532Y-91586902D01*
X129806700Y-91465400D01*
X129806700Y-88072263D01*
X130341662Y-88072263D01*
X130405332Y-88226356D01*
X130443335Y-88264425D01*
X130443335Y-88853366D01*
X130405746Y-88890889D01*
X130341808Y-89044870D01*
X130341662Y-89211598D01*
X130405332Y-89365691D01*
X130523124Y-89483689D01*
X130677105Y-89547627D01*
X130843833Y-89547773D01*
X130997926Y-89484103D01*
X131115924Y-89366311D01*
X131179862Y-89212330D01*
X131180008Y-89045602D01*
X131116338Y-88891509D01*
X131078335Y-88853440D01*
X131078335Y-88264499D01*
X131115924Y-88226976D01*
X131179862Y-88072995D01*
X131180008Y-87906267D01*
X131116338Y-87752174D01*
X131078335Y-87714105D01*
X131078335Y-85833398D01*
X141541427Y-85833398D01*
X141605097Y-85987491D01*
X141722889Y-86105489D01*
X141876870Y-86169427D01*
X142043598Y-86169573D01*
X142197691Y-86105903D01*
X142231049Y-86072603D01*
X142557501Y-86399056D01*
X142557501Y-86965087D01*
X142396496Y-87126092D01*
X142396493Y-87126094D01*
X142387914Y-87134674D01*
X142334802Y-87134627D01*
X142180709Y-87198297D01*
X142062711Y-87316089D01*
X141998773Y-87470070D01*
X141998627Y-87636798D01*
X142062297Y-87790891D01*
X142180089Y-87908889D01*
X142334070Y-87972827D01*
X142500798Y-87972973D01*
X142654891Y-87909303D01*
X142772889Y-87791511D01*
X142836827Y-87637530D01*
X142836874Y-87583739D01*
X142845506Y-87575107D01*
X142845508Y-87575104D01*
X143099507Y-87321105D01*
X143168333Y-87218101D01*
X143172272Y-87198297D01*
X143192501Y-87096599D01*
X143192501Y-86267543D01*
X143168333Y-86146041D01*
X143099508Y-86043037D01*
X142582364Y-85525894D01*
X142479360Y-85457068D01*
X142357858Y-85432900D01*
X142235834Y-85432900D01*
X142198311Y-85395311D01*
X142044330Y-85331373D01*
X141877602Y-85331227D01*
X141723509Y-85394897D01*
X141605511Y-85512689D01*
X141541573Y-85666670D01*
X141541427Y-85833398D01*
X131078335Y-85833398D01*
X131078335Y-84759800D01*
X145258047Y-84759800D01*
X145331808Y-85130624D01*
X145541863Y-85444994D01*
X145856233Y-85655049D01*
X146227057Y-85728810D01*
X147803343Y-85728810D01*
X148174167Y-85655049D01*
X148488537Y-85444994D01*
X148698592Y-85130624D01*
X148772353Y-84759800D01*
X148698592Y-84388976D01*
X148488537Y-84074606D01*
X148174167Y-83864551D01*
X147803343Y-83790790D01*
X146227057Y-83790790D01*
X145856233Y-83864551D01*
X145541863Y-84074606D01*
X145331808Y-84388976D01*
X145258047Y-84759800D01*
X131078335Y-84759800D01*
X131078335Y-84356277D01*
X131988814Y-83445798D01*
X148932827Y-83445798D01*
X148996497Y-83599891D01*
X149034500Y-83637960D01*
X149034500Y-85678366D01*
X148996911Y-85715889D01*
X148932973Y-85869870D01*
X148932827Y-86036598D01*
X148996497Y-86190691D01*
X149114289Y-86308689D01*
X149268270Y-86372627D01*
X149434998Y-86372773D01*
X149589091Y-86309103D01*
X149707089Y-86191311D01*
X149771027Y-86037330D01*
X149771173Y-85870602D01*
X149707503Y-85716509D01*
X149669500Y-85678440D01*
X149669500Y-83638034D01*
X149707089Y-83600511D01*
X149771027Y-83446530D01*
X149771173Y-83279802D01*
X149707503Y-83125709D01*
X149589711Y-83007711D01*
X149435730Y-82943773D01*
X149269002Y-82943627D01*
X149114909Y-83007297D01*
X148996911Y-83125089D01*
X148932973Y-83279070D01*
X148932827Y-83445798D01*
X131988814Y-83445798D01*
X132109886Y-83324726D01*
X132162998Y-83324773D01*
X132317091Y-83261103D01*
X132435089Y-83143311D01*
X132490976Y-83008719D01*
X142049410Y-83008719D01*
X142128515Y-83200167D01*
X142274862Y-83346770D01*
X142466172Y-83426209D01*
X142673319Y-83426390D01*
X142864767Y-83347285D01*
X143011370Y-83200938D01*
X143090809Y-83009628D01*
X143090990Y-82802481D01*
X143011885Y-82611033D01*
X142865538Y-82464430D01*
X142674228Y-82384991D01*
X142467081Y-82384810D01*
X142275633Y-82463915D01*
X142129030Y-82610262D01*
X142049591Y-82801572D01*
X142049410Y-83008719D01*
X132490976Y-83008719D01*
X132499027Y-82989330D01*
X132499173Y-82822602D01*
X132435503Y-82668509D01*
X132397500Y-82630440D01*
X132397500Y-75843159D01*
X132626027Y-75748734D01*
X132897779Y-75477456D01*
X133045032Y-75122832D01*
X133045033Y-75121148D01*
X133654633Y-75121148D01*
X133801266Y-75476027D01*
X134072544Y-75747779D01*
X134427168Y-75895032D01*
X134811148Y-75895367D01*
X135166027Y-75748734D01*
X135437779Y-75477456D01*
X135585032Y-75122832D01*
X135585367Y-74738852D01*
X135438734Y-74383973D01*
X135167456Y-74112221D01*
X134812832Y-73964968D01*
X134428852Y-73964633D01*
X134073973Y-74111266D01*
X133802221Y-74382544D01*
X133654968Y-74737168D01*
X133654633Y-75121148D01*
X133045033Y-75121148D01*
X133045367Y-74738852D01*
X132898734Y-74383973D01*
X132627456Y-74112221D01*
X132272832Y-73964968D01*
X131888852Y-73964633D01*
X131533973Y-74111266D01*
X131262221Y-74382544D01*
X131114968Y-74737168D01*
X131114633Y-75121148D01*
X131261266Y-75476027D01*
X131532544Y-75747779D01*
X131762500Y-75843265D01*
X131762500Y-82630366D01*
X131724911Y-82667889D01*
X131660973Y-82821870D01*
X131660926Y-82875661D01*
X130568894Y-83967694D01*
X130536329Y-84000259D01*
X130467503Y-84103263D01*
X130443335Y-84224765D01*
X130443335Y-87714031D01*
X130405746Y-87751554D01*
X130341808Y-87905535D01*
X130341662Y-88072263D01*
X129806700Y-88072263D01*
X129806700Y-85797034D01*
X129844289Y-85759511D01*
X129908227Y-85605530D01*
X129908373Y-85438802D01*
X129844703Y-85284709D01*
X129726911Y-85166711D01*
X129572930Y-85102773D01*
X129406202Y-85102627D01*
X129252109Y-85166297D01*
X129134111Y-85284089D01*
X129070173Y-85438070D01*
X129070027Y-85604798D01*
X129133697Y-85758891D01*
X129171700Y-85796960D01*
X129171700Y-91333887D01*
X128875114Y-91630474D01*
X128822002Y-91630427D01*
X128667909Y-91694097D01*
X128549911Y-91811889D01*
X128485973Y-91965870D01*
X128485827Y-92132598D01*
X120223800Y-92132598D01*
X120282932Y-92044102D01*
X120307100Y-91922600D01*
X120282932Y-91801098D01*
X120214106Y-91698094D01*
X120111102Y-91629268D01*
X119989600Y-91605100D01*
X111578034Y-91605100D01*
X111540511Y-91567511D01*
X111386530Y-91503573D01*
X111219802Y-91503427D01*
X111065709Y-91567097D01*
X110947711Y-91684889D01*
X110883773Y-91838870D01*
X110883627Y-92005598D01*
X93229500Y-92005598D01*
X93229500Y-89313198D01*
X118910027Y-89313198D01*
X118973697Y-89467291D01*
X119091489Y-89585289D01*
X119245470Y-89649227D01*
X119299262Y-89649274D01*
X120298493Y-90648506D01*
X120390821Y-90710198D01*
X120401498Y-90717332D01*
X120523000Y-90741500D01*
X121543166Y-90741500D01*
X121580689Y-90779089D01*
X121734670Y-90843027D01*
X121901398Y-90843173D01*
X122055491Y-90779503D01*
X122173489Y-90661711D01*
X122237427Y-90507730D01*
X122237573Y-90341002D01*
X122173903Y-90186909D01*
X122056111Y-90068911D01*
X121902130Y-90004973D01*
X121735402Y-90004827D01*
X121581309Y-90068497D01*
X121543240Y-90106500D01*
X120654513Y-90106500D01*
X119748326Y-89200314D01*
X119748373Y-89147202D01*
X119684703Y-88993109D01*
X119566911Y-88875111D01*
X119412930Y-88811173D01*
X119246202Y-88811027D01*
X119092109Y-88874697D01*
X118974111Y-88992489D01*
X118910173Y-89146470D01*
X118910027Y-89313198D01*
X93229500Y-89313198D01*
X93229500Y-87260500D01*
X95885000Y-87260500D01*
X95910649Y-87255398D01*
X95936796Y-87255398D01*
X98366836Y-86772034D01*
X98422900Y-86748811D01*
X98462544Y-86732390D01*
X100522632Y-85355883D01*
X100595883Y-85282632D01*
X101972390Y-83222544D01*
X102012033Y-83126837D01*
X102012033Y-83126836D01*
X102495398Y-80696797D01*
X102495398Y-80670649D01*
X102500500Y-80645000D01*
X102500500Y-75905194D01*
X118674214Y-75905194D01*
X118750522Y-76120501D01*
X119254023Y-76270771D01*
X119776703Y-76216919D01*
X120009478Y-76120501D01*
X120085786Y-75905194D01*
X119380000Y-75199408D01*
X118674214Y-75905194D01*
X102500500Y-75905194D01*
X102500500Y-74804023D01*
X118039229Y-74804023D01*
X118093081Y-75326703D01*
X118189499Y-75559478D01*
X118404806Y-75635786D01*
X119110592Y-74930000D01*
X119649408Y-74930000D01*
X120355194Y-75635786D01*
X120570501Y-75559478D01*
X120701320Y-75121148D01*
X120954633Y-75121148D01*
X121101266Y-75476027D01*
X121372544Y-75747779D01*
X121727168Y-75895032D01*
X122111148Y-75895367D01*
X122466027Y-75748734D01*
X122737779Y-75477456D01*
X122885032Y-75122832D01*
X122885033Y-75121148D01*
X123494633Y-75121148D01*
X123641266Y-75476027D01*
X123912544Y-75747779D01*
X124142500Y-75843265D01*
X124142500Y-89636600D01*
X124157332Y-89711165D01*
X124166668Y-89758102D01*
X124235494Y-89861106D01*
X124379328Y-90004940D01*
X124250002Y-90004827D01*
X124095909Y-90068497D01*
X123977911Y-90186289D01*
X123913973Y-90340270D01*
X123913827Y-90506998D01*
X123977497Y-90661091D01*
X124095289Y-90779089D01*
X124249270Y-90843027D01*
X124415998Y-90843173D01*
X124570091Y-90779503D01*
X124688089Y-90661711D01*
X124752027Y-90507730D01*
X124752031Y-90502953D01*
X124764897Y-90534091D01*
X124882689Y-90652089D01*
X125036670Y-90716027D01*
X125203398Y-90716173D01*
X125357491Y-90652503D01*
X125370141Y-90639875D01*
X125399897Y-90711891D01*
X125517689Y-90829889D01*
X125671670Y-90893827D01*
X125838398Y-90893973D01*
X125992491Y-90830303D01*
X126110489Y-90712511D01*
X126174427Y-90558530D01*
X126174573Y-90391802D01*
X126110903Y-90237709D01*
X126072900Y-90199640D01*
X126072900Y-84669732D01*
X126206705Y-84725292D01*
X126373433Y-84725438D01*
X126527526Y-84661768D01*
X126645524Y-84543976D01*
X126682500Y-84454927D01*
X126682500Y-88701429D01*
X126394493Y-88989437D01*
X126325667Y-89092441D01*
X126301499Y-89213943D01*
X126301499Y-90377322D01*
X126289311Y-90389489D01*
X126225373Y-90543470D01*
X126225227Y-90710198D01*
X126288897Y-90864291D01*
X126406689Y-90982289D01*
X126560670Y-91046227D01*
X126727398Y-91046373D01*
X126881491Y-90982703D01*
X126999489Y-90864911D01*
X127063427Y-90710930D01*
X127063573Y-90544202D01*
X126999903Y-90390109D01*
X126936499Y-90326594D01*
X126936499Y-89345455D01*
X127224507Y-89057448D01*
X127293332Y-88954444D01*
X127317500Y-88832942D01*
X127317500Y-75843159D01*
X127546027Y-75748734D01*
X127817779Y-75477456D01*
X127965032Y-75122832D01*
X127965033Y-75121148D01*
X128574633Y-75121148D01*
X128721266Y-75476027D01*
X128992544Y-75747779D01*
X129347168Y-75895032D01*
X129731148Y-75895367D01*
X130086027Y-75748734D01*
X130357779Y-75477456D01*
X130505032Y-75122832D01*
X130505367Y-74738852D01*
X130358734Y-74383973D01*
X130087456Y-74112221D01*
X129732832Y-73964968D01*
X129348852Y-73964633D01*
X128993973Y-74111266D01*
X128722221Y-74382544D01*
X128574968Y-74737168D01*
X128574633Y-75121148D01*
X127965033Y-75121148D01*
X127965367Y-74738852D01*
X127818734Y-74383973D01*
X127547456Y-74112221D01*
X127192832Y-73964968D01*
X126808852Y-73964633D01*
X126453973Y-74111266D01*
X126182221Y-74382544D01*
X126072900Y-74645818D01*
X126072900Y-73766112D01*
X126578805Y-73260207D01*
X126807168Y-73355032D01*
X127191148Y-73355367D01*
X127546027Y-73208734D01*
X127817779Y-72937456D01*
X127965032Y-72582832D01*
X127965033Y-72581148D01*
X128574633Y-72581148D01*
X128721266Y-72936027D01*
X128992544Y-73207779D01*
X129347168Y-73355032D01*
X129731148Y-73355367D01*
X130086027Y-73208734D01*
X130357779Y-72937456D01*
X130505032Y-72582832D01*
X130505033Y-72581148D01*
X131114633Y-72581148D01*
X131261266Y-72936027D01*
X131532544Y-73207779D01*
X131887168Y-73355032D01*
X132271148Y-73355367D01*
X132626027Y-73208734D01*
X132897779Y-72937456D01*
X132986673Y-72723375D01*
X133299200Y-72723375D01*
X133299200Y-73252979D01*
X133386206Y-73463029D01*
X133546972Y-73623794D01*
X133757022Y-73710800D01*
X134286625Y-73710800D01*
X134429500Y-73567925D01*
X134429500Y-72580500D01*
X134810500Y-72580500D01*
X134810500Y-73567925D01*
X134953375Y-73710800D01*
X135482978Y-73710800D01*
X135693028Y-73623794D01*
X135853794Y-73463029D01*
X135940800Y-73252979D01*
X135940800Y-72754690D01*
X146113181Y-72754690D01*
X146392942Y-73431763D01*
X146910512Y-73950237D01*
X147587096Y-74231180D01*
X148319690Y-74231819D01*
X148996763Y-73952058D01*
X149515237Y-73434488D01*
X149796180Y-72757904D01*
X149796819Y-72025310D01*
X149517058Y-71348237D01*
X148999488Y-70829763D01*
X148322904Y-70548820D01*
X147590310Y-70548181D01*
X146913237Y-70827942D01*
X146394763Y-71345512D01*
X146113820Y-72022096D01*
X146113181Y-72754690D01*
X135940800Y-72754690D01*
X135940800Y-72723375D01*
X135797925Y-72580500D01*
X134810500Y-72580500D01*
X134429500Y-72580500D01*
X133442075Y-72580500D01*
X133299200Y-72723375D01*
X132986673Y-72723375D01*
X133045032Y-72582832D01*
X133045367Y-72198852D01*
X132898734Y-71843973D01*
X132627456Y-71572221D01*
X132518603Y-71527021D01*
X133299200Y-71527021D01*
X133299200Y-72056625D01*
X133442075Y-72199500D01*
X134429500Y-72199500D01*
X134429500Y-71212075D01*
X134810500Y-71212075D01*
X134810500Y-72199500D01*
X135797925Y-72199500D01*
X135940800Y-72056625D01*
X135940800Y-71527021D01*
X135853794Y-71316971D01*
X135693028Y-71156206D01*
X135482978Y-71069200D01*
X134953375Y-71069200D01*
X134810500Y-71212075D01*
X134429500Y-71212075D01*
X134286625Y-71069200D01*
X133757022Y-71069200D01*
X133546972Y-71156206D01*
X133386206Y-71316971D01*
X133299200Y-71527021D01*
X132518603Y-71527021D01*
X132272832Y-71424968D01*
X131888852Y-71424633D01*
X131533973Y-71571266D01*
X131262221Y-71842544D01*
X131114968Y-72197168D01*
X131114633Y-72581148D01*
X130505033Y-72581148D01*
X130505367Y-72198852D01*
X130358734Y-71843973D01*
X130087456Y-71572221D01*
X129732832Y-71424968D01*
X129348852Y-71424633D01*
X128993973Y-71571266D01*
X128722221Y-71842544D01*
X128574968Y-72197168D01*
X128574633Y-72581148D01*
X127965033Y-72581148D01*
X127965367Y-72198852D01*
X127818734Y-71843973D01*
X127547456Y-71572221D01*
X127192832Y-71424968D01*
X126808852Y-71424633D01*
X126453973Y-71571266D01*
X126182221Y-71842544D01*
X126034968Y-72197168D01*
X126034633Y-72581148D01*
X126129717Y-72811270D01*
X125530894Y-73410094D01*
X125462068Y-73513098D01*
X125437900Y-73634600D01*
X125437900Y-90021840D01*
X125358111Y-89941911D01*
X125204130Y-89877973D01*
X125150339Y-89877926D01*
X124777500Y-89505088D01*
X124777500Y-75843159D01*
X125006027Y-75748734D01*
X125277779Y-75477456D01*
X125425032Y-75122832D01*
X125425367Y-74738852D01*
X125278734Y-74383973D01*
X125007456Y-74112221D01*
X124652832Y-73964968D01*
X124268852Y-73964633D01*
X123913973Y-74111266D01*
X123642221Y-74382544D01*
X123494968Y-74737168D01*
X123494633Y-75121148D01*
X122885033Y-75121148D01*
X122885367Y-74738852D01*
X122738734Y-74383973D01*
X122467456Y-74112221D01*
X122112832Y-73964968D01*
X121728852Y-73964633D01*
X121373973Y-74111266D01*
X121102221Y-74382544D01*
X120954968Y-74737168D01*
X120954633Y-75121148D01*
X120701320Y-75121148D01*
X120720771Y-75055977D01*
X120666919Y-74533297D01*
X120570501Y-74300522D01*
X120355194Y-74224214D01*
X119649408Y-74930000D01*
X119110592Y-74930000D01*
X118404806Y-74224214D01*
X118189499Y-74300522D01*
X118039229Y-74804023D01*
X102500500Y-74804023D01*
X102500500Y-72754690D01*
X104203181Y-72754690D01*
X104482942Y-73431763D01*
X105000512Y-73950237D01*
X105677096Y-74231180D01*
X106409690Y-74231819D01*
X107080112Y-73954806D01*
X118674214Y-73954806D01*
X119380000Y-74660592D01*
X120085786Y-73954806D01*
X120009478Y-73739499D01*
X119505977Y-73589229D01*
X118983297Y-73643081D01*
X118750522Y-73739499D01*
X118674214Y-73954806D01*
X107080112Y-73954806D01*
X107086763Y-73952058D01*
X107605237Y-73434488D01*
X107886180Y-72757904D01*
X107886334Y-72581148D01*
X118414633Y-72581148D01*
X118561266Y-72936027D01*
X118832544Y-73207779D01*
X119187168Y-73355032D01*
X119571148Y-73355367D01*
X119926027Y-73208734D01*
X120197779Y-72937456D01*
X120345032Y-72582832D01*
X120345033Y-72581148D01*
X120954633Y-72581148D01*
X121101266Y-72936027D01*
X121372544Y-73207779D01*
X121727168Y-73355032D01*
X122111148Y-73355367D01*
X122466027Y-73208734D01*
X122737779Y-72937456D01*
X122885032Y-72582832D01*
X122885033Y-72581148D01*
X123494633Y-72581148D01*
X123641266Y-72936027D01*
X123912544Y-73207779D01*
X124267168Y-73355032D01*
X124651148Y-73355367D01*
X125006027Y-73208734D01*
X125277779Y-72937456D01*
X125425032Y-72582832D01*
X125425367Y-72198852D01*
X125278734Y-71843973D01*
X125007456Y-71572221D01*
X124652832Y-71424968D01*
X124268852Y-71424633D01*
X123913973Y-71571266D01*
X123642221Y-71842544D01*
X123494968Y-72197168D01*
X123494633Y-72581148D01*
X122885033Y-72581148D01*
X122885367Y-72198852D01*
X122738734Y-71843973D01*
X122467456Y-71572221D01*
X122112832Y-71424968D01*
X121728852Y-71424633D01*
X121373973Y-71571266D01*
X121102221Y-71842544D01*
X120954968Y-72197168D01*
X120954633Y-72581148D01*
X120345033Y-72581148D01*
X120345367Y-72198852D01*
X120198734Y-71843973D01*
X119927456Y-71572221D01*
X119572832Y-71424968D01*
X119188852Y-71424633D01*
X118833973Y-71571266D01*
X118562221Y-71842544D01*
X118414968Y-72197168D01*
X118414633Y-72581148D01*
X107886334Y-72581148D01*
X107886819Y-72025310D01*
X107607058Y-71348237D01*
X107089488Y-70829763D01*
X106412904Y-70548820D01*
X105680310Y-70548181D01*
X105003237Y-70827942D01*
X104484763Y-71345512D01*
X104203820Y-72022096D01*
X104203181Y-72754690D01*
X102500500Y-72754690D01*
X102500500Y-68845500D01*
X151499500Y-68845500D01*
X151499500Y-80645000D01*
G36*
X117174296Y-97641692D02*
X117174293Y-97641694D01*
X116742496Y-98073492D01*
X116742493Y-98073494D01*
X115495637Y-99320351D01*
X106549856Y-99320351D01*
X106878408Y-98992372D01*
X107092506Y-98476768D01*
X107092993Y-97918481D01*
X106879796Y-97402505D01*
X106485372Y-97007392D01*
X106320907Y-96939100D01*
X117754400Y-96939100D01*
X117875902Y-96914932D01*
X117951708Y-96864279D01*
X117174296Y-97641692D01*
X117174296Y-97641692D01*
G37*
X117174296Y-97641692D02*
X117174293Y-97641694D01*
X116742496Y-98073492D01*
X116742493Y-98073494D01*
X115495637Y-99320351D01*
X106549856Y-99320351D01*
X106878408Y-98992372D01*
X107092506Y-98476768D01*
X107092993Y-97918481D01*
X106879796Y-97402505D01*
X106485372Y-97007392D01*
X106320907Y-96939100D01*
X117754400Y-96939100D01*
X117875902Y-96914932D01*
X117951708Y-96864279D01*
X117174296Y-97641692D01*
G36*
X126181266Y-75476027D02*
X126452544Y-75747779D01*
X126682500Y-75843265D01*
X126682500Y-82837153D01*
X126644303Y-82744709D01*
X126526511Y-82626711D01*
X126372530Y-82562773D01*
X126205802Y-82562627D01*
X126072900Y-82617541D01*
X126072900Y-75213761D01*
X126181266Y-75476027D01*
X126181266Y-75476027D01*
G37*
X126181266Y-75476027D02*
X126452544Y-75747779D01*
X126682500Y-75843265D01*
X126682500Y-82837153D01*
X126644303Y-82744709D01*
X126526511Y-82626711D01*
X126372530Y-82562773D01*
X126205802Y-82562627D01*
X126072900Y-82617541D01*
X126072900Y-75213761D01*
X126181266Y-75476027D01*
M02*
