G04 #@! TF.FileFunction,Soldermask,Bot*
%FSLAX46Y46*%
G04 Gerber Fmt 4.6, Leading zero omitted, Abs format (unit mm)*
G04 Created by KiCad (PCBNEW 4.0.4-stable) date 01/20/17 21:30:08*
%MOMM*%
%LPD*%
G01*
G04 APERTURE LIST*
%ADD10C,0.100000*%
%ADD11O,3.414980X1.906220*%
%ADD12R,1.898600X1.898600*%
%ADD13C,1.898600*%
%ADD14C,3.651200*%
%ADD15C,1.558000*%
%ADD16R,1.910000X1.910000*%
%ADD17C,1.910000*%
%ADD18O,1.910000X3.410000*%
G04 APERTURE END LIST*
D10*
D11*
X147015200Y-84759800D03*
X147015200Y-87299800D03*
X147015200Y-89839800D03*
X147015200Y-94361000D03*
X147015200Y-96901000D03*
X147015200Y-99441000D03*
X147015200Y-101981000D03*
X147015200Y-104521000D03*
X147015200Y-107061000D03*
D12*
X134620000Y-72390000D03*
D13*
X134620000Y-74930000D03*
X132080000Y-72390000D03*
X132080000Y-74930000D03*
X129540000Y-72390000D03*
X129540000Y-74930000D03*
X127000000Y-72390000D03*
X127000000Y-74930000D03*
X124460000Y-72390000D03*
X124460000Y-74930000D03*
X121920000Y-72390000D03*
X121920000Y-74930000D03*
X119380000Y-72390000D03*
X119380000Y-74930000D03*
D14*
X147955000Y-130810000D03*
X147955000Y-72390000D03*
X106045000Y-72390000D03*
X106045000Y-130810000D03*
D15*
X108422000Y-117729000D03*
X112014000Y-121321000D03*
X112014000Y-117729000D03*
D16*
X123190000Y-130810000D03*
D17*
X123190000Y-128270000D03*
X125730000Y-130810000D03*
X125730000Y-128270000D03*
X128270000Y-130810000D03*
X128270000Y-128270000D03*
X130810000Y-130810000D03*
X130810000Y-128270000D03*
D18*
X114223800Y-129413000D03*
X116763800Y-129413000D03*
M02*
