G04 #@! TF.FileFunction,Copper,L2,Inr,Signal*
%FSLAX46Y46*%
G04 Gerber Fmt 4.6, Leading zero omitted, Abs format (unit mm)*
G04 Created by KiCad (PCBNEW 4.0.4-stable) date 01/20/17 21:30:08*
%MOMM*%
%LPD*%
G01*
G04 APERTURE LIST*
%ADD10C,0.100000*%
%ADD11O,3.014980X1.506220*%
%ADD12R,1.498600X1.498600*%
%ADD13C,1.498600*%
%ADD14C,1.158000*%
%ADD15R,1.510000X1.510000*%
%ADD16C,1.510000*%
%ADD17O,1.510000X3.010000*%
%ADD18C,0.406400*%
%ADD19C,0.609600*%
%ADD20C,0.254000*%
G04 APERTURE END LIST*
D10*
D11*
X147015200Y-84759800D03*
X147015200Y-87299800D03*
X147015200Y-89839800D03*
X147015200Y-94361000D03*
X147015200Y-96901000D03*
X147015200Y-99441000D03*
X147015200Y-101981000D03*
X147015200Y-104521000D03*
X147015200Y-107061000D03*
D12*
X134620000Y-72390000D03*
D13*
X134620000Y-74930000D03*
X132080000Y-72390000D03*
X132080000Y-74930000D03*
X129540000Y-72390000D03*
X129540000Y-74930000D03*
X127000000Y-72390000D03*
X127000000Y-74930000D03*
X124460000Y-72390000D03*
X124460000Y-74930000D03*
X121920000Y-72390000D03*
X121920000Y-74930000D03*
X119380000Y-72390000D03*
X119380000Y-74930000D03*
D14*
X108422000Y-117729000D03*
X112014000Y-121321000D03*
X112014000Y-117729000D03*
D15*
X123190000Y-130810000D03*
D16*
X123190000Y-128270000D03*
X125730000Y-130810000D03*
X125730000Y-128270000D03*
X128270000Y-130810000D03*
X128270000Y-128270000D03*
X130810000Y-130810000D03*
X130810000Y-128270000D03*
D17*
X114223800Y-129413000D03*
X116763800Y-129413000D03*
D18*
X124714000Y-121031000D03*
X127863600Y-78079600D03*
X126365000Y-79502000D03*
X125145800Y-80721200D03*
X123444000Y-82423000D03*
X122478800Y-80619600D03*
X123494800Y-77495400D03*
X134848600Y-101447600D03*
X133197600Y-101447600D03*
X131419600Y-101447600D03*
X101396800Y-100025200D03*
X110185200Y-92456000D03*
X120497600Y-102641400D03*
X118160800Y-102666800D03*
X140893800Y-116992400D03*
X133527800Y-113436400D03*
X148285200Y-112903000D03*
X103327200Y-99085400D03*
X103428800Y-100558600D03*
X98958400Y-97561400D03*
X106248200Y-92456000D03*
X143891000Y-91008200D03*
X137134600Y-90881200D03*
X130479800Y-78587600D03*
X130429000Y-81026000D03*
X142417800Y-86487000D03*
X127076200Y-89433400D03*
X113741200Y-98196400D03*
X109448600Y-98247200D03*
X143459200Y-94056200D03*
X142036800Y-95453200D03*
X140690600Y-96697800D03*
X140919200Y-89281000D03*
X114604800Y-92430600D03*
X114935000Y-101396800D03*
X112522000Y-101396800D03*
X120319800Y-89230200D03*
X136677400Y-95605600D03*
X140131800Y-80162400D03*
X125012850Y-92883350D03*
X123725350Y-92883350D03*
X122437850Y-92883350D03*
X121150350Y-92883350D03*
X121150350Y-94170850D03*
X122437850Y-94170850D03*
X125012850Y-94170850D03*
X123725350Y-94170850D03*
X123725350Y-95458350D03*
X122437850Y-95458350D03*
X121150350Y-95458350D03*
X121150350Y-96745850D03*
X122437850Y-96745850D03*
X123725350Y-96745850D03*
X125012850Y-96745850D03*
X125012850Y-95458350D03*
X136983835Y-86541465D03*
X131802235Y-86846265D03*
X131394200Y-95554800D03*
X127711200Y-95681800D03*
X116763800Y-94945200D03*
X125415000Y-104709000D03*
X111302800Y-91922600D03*
X149352000Y-85953600D03*
X128524000Y-116535200D03*
X133629400Y-116306600D03*
X143459200Y-116230400D03*
X148640800Y-115341400D03*
X149352000Y-83362800D03*
X118160800Y-98552000D03*
X119329200Y-89230200D03*
X130760835Y-89128600D03*
X136956800Y-89712800D03*
X126288800Y-82981800D03*
X132080000Y-82905600D03*
X128529200Y-94564600D03*
X128458800Y-96564600D03*
D19*
X142570200Y-82905600D03*
D18*
X141960600Y-85750400D03*
X142417800Y-87553800D03*
X126290435Y-84306265D03*
X136958435Y-87506665D03*
X130760835Y-87989265D03*
X124333000Y-90424000D03*
X121818400Y-90424000D03*
X118668800Y-95554800D03*
X125755400Y-90474800D03*
X107518200Y-102514400D03*
X101371400Y-96570800D03*
X118287800Y-96088200D03*
X102311200Y-99568000D03*
X118694200Y-96570800D03*
X140462000Y-89890600D03*
X128905000Y-92049600D03*
X129489200Y-85521800D03*
X132486400Y-92557600D03*
X132564235Y-86846265D03*
X138404600Y-95580200D03*
X139928600Y-89255600D03*
X138479800Y-93064600D03*
X138912600Y-89281000D03*
X126644400Y-90627200D03*
X125120400Y-90297000D03*
X117983000Y-107594400D03*
X117983000Y-111760000D03*
X120650000Y-111760000D03*
X120650000Y-107594400D03*
X123444000Y-107619800D03*
X127787400Y-102768400D03*
X144678400Y-115366800D03*
X130098800Y-108661200D03*
X127127000Y-103276400D03*
X125653800Y-101803200D03*
X124079000Y-99339400D03*
X130098800Y-116128800D03*
X112039400Y-109118400D03*
X116713000Y-101219000D03*
D20*
G36*
X151436000Y-80645000D02*
X151442322Y-80676782D01*
X151442322Y-80709185D01*
X151925687Y-83139224D01*
X151974812Y-83257823D01*
X153351319Y-85317911D01*
X153442089Y-85408681D01*
X155502177Y-86785189D01*
X155586039Y-86819925D01*
X155620775Y-86834313D01*
X158050815Y-87317678D01*
X158083218Y-87317678D01*
X158115000Y-87324000D01*
X160707000Y-87324000D01*
X160707000Y-115876000D01*
X158115000Y-115876000D01*
X158083218Y-115882322D01*
X158050815Y-115882322D01*
X155620775Y-116365687D01*
X155586039Y-116380075D01*
X155502177Y-116414811D01*
X153442091Y-117791317D01*
X153351319Y-117882089D01*
X151974812Y-119942177D01*
X151974812Y-119942178D01*
X151925687Y-120060776D01*
X151442322Y-122490815D01*
X151442322Y-122523218D01*
X151436000Y-122555000D01*
X151436000Y-134291000D01*
X102564000Y-134291000D01*
X102564000Y-131187265D01*
X104139670Y-131187265D01*
X104429078Y-131887686D01*
X104964495Y-132424039D01*
X105664410Y-132714668D01*
X106422265Y-132715330D01*
X107122686Y-132425922D01*
X107659039Y-131890505D01*
X107949668Y-131190590D01*
X107950330Y-130432735D01*
X107660922Y-129732314D01*
X107125505Y-129195961D01*
X106425590Y-128905332D01*
X105667735Y-128904670D01*
X104967314Y-129194078D01*
X104430961Y-129729495D01*
X104140332Y-130429410D01*
X104139670Y-131187265D01*
X102564000Y-131187265D01*
X102564000Y-128628042D01*
X113189400Y-128628042D01*
X113189400Y-130197958D01*
X113268139Y-130593806D01*
X113492369Y-130929389D01*
X113827952Y-131153619D01*
X114223800Y-131232358D01*
X114619648Y-131153619D01*
X114955231Y-130929389D01*
X115179461Y-130593806D01*
X115258200Y-130197958D01*
X115258200Y-128628042D01*
X115729400Y-128628042D01*
X115729400Y-130197958D01*
X115808139Y-130593806D01*
X116032369Y-130929389D01*
X116367952Y-131153619D01*
X116763800Y-131232358D01*
X117159648Y-131153619D01*
X117246254Y-131095750D01*
X121800000Y-131095750D01*
X121800000Y-131691310D01*
X121896673Y-131924699D01*
X122075302Y-132103327D01*
X122308691Y-132200000D01*
X122904250Y-132200000D01*
X123063000Y-132041250D01*
X123063000Y-130937000D01*
X123317000Y-130937000D01*
X123317000Y-132041250D01*
X123475750Y-132200000D01*
X124071309Y-132200000D01*
X124304698Y-132103327D01*
X124483327Y-131924699D01*
X124580000Y-131691310D01*
X124580000Y-131095750D01*
X124499102Y-131014852D01*
X124695421Y-131014852D01*
X124852567Y-131395175D01*
X125143294Y-131686410D01*
X125523342Y-131844220D01*
X125934852Y-131844579D01*
X126315175Y-131687433D01*
X126606410Y-131396706D01*
X126764220Y-131016658D01*
X126764221Y-131014852D01*
X127235421Y-131014852D01*
X127392567Y-131395175D01*
X127683294Y-131686410D01*
X128063342Y-131844220D01*
X128474852Y-131844579D01*
X128855175Y-131687433D01*
X129146410Y-131396706D01*
X129304220Y-131016658D01*
X129304221Y-131014852D01*
X129775421Y-131014852D01*
X129932567Y-131395175D01*
X130223294Y-131686410D01*
X130603342Y-131844220D01*
X131014852Y-131844579D01*
X131395175Y-131687433D01*
X131686410Y-131396706D01*
X131773377Y-131187265D01*
X146049670Y-131187265D01*
X146339078Y-131887686D01*
X146874495Y-132424039D01*
X147574410Y-132714668D01*
X148332265Y-132715330D01*
X149032686Y-132425922D01*
X149569039Y-131890505D01*
X149859668Y-131190590D01*
X149860330Y-130432735D01*
X149570922Y-129732314D01*
X149035505Y-129195961D01*
X148335590Y-128905332D01*
X147577735Y-128904670D01*
X146877314Y-129194078D01*
X146340961Y-129729495D01*
X146050332Y-130429410D01*
X146049670Y-131187265D01*
X131773377Y-131187265D01*
X131844220Y-131016658D01*
X131844579Y-130605148D01*
X131687433Y-130224825D01*
X131396706Y-129933590D01*
X131016658Y-129775780D01*
X130605148Y-129775421D01*
X130224825Y-129932567D01*
X129933590Y-130223294D01*
X129775780Y-130603342D01*
X129775421Y-131014852D01*
X129304221Y-131014852D01*
X129304579Y-130605148D01*
X129147433Y-130224825D01*
X128856706Y-129933590D01*
X128476658Y-129775780D01*
X128065148Y-129775421D01*
X127684825Y-129932567D01*
X127393590Y-130223294D01*
X127235780Y-130603342D01*
X127235421Y-131014852D01*
X126764221Y-131014852D01*
X126764579Y-130605148D01*
X126607433Y-130224825D01*
X126316706Y-129933590D01*
X125936658Y-129775780D01*
X125525148Y-129775421D01*
X125144825Y-129932567D01*
X124853590Y-130223294D01*
X124695780Y-130603342D01*
X124695421Y-131014852D01*
X124499102Y-131014852D01*
X124421250Y-130937000D01*
X123317000Y-130937000D01*
X123063000Y-130937000D01*
X121958750Y-130937000D01*
X121800000Y-131095750D01*
X117246254Y-131095750D01*
X117495231Y-130929389D01*
X117719461Y-130593806D01*
X117798200Y-130197958D01*
X117798200Y-129928690D01*
X121800000Y-129928690D01*
X121800000Y-130524250D01*
X121958750Y-130683000D01*
X123063000Y-130683000D01*
X123063000Y-129578750D01*
X123317000Y-129578750D01*
X123317000Y-130683000D01*
X124421250Y-130683000D01*
X124580000Y-130524250D01*
X124580000Y-129928690D01*
X124483327Y-129695301D01*
X124304698Y-129516673D01*
X124071309Y-129420000D01*
X123475750Y-129420000D01*
X123317000Y-129578750D01*
X123063000Y-129578750D01*
X122904250Y-129420000D01*
X122308691Y-129420000D01*
X122075302Y-129516673D01*
X121896673Y-129695301D01*
X121800000Y-129928690D01*
X117798200Y-129928690D01*
X117798200Y-128628042D01*
X117767729Y-128474852D01*
X122155421Y-128474852D01*
X122312567Y-128855175D01*
X122603294Y-129146410D01*
X122983342Y-129304220D01*
X123394852Y-129304579D01*
X123775175Y-129147433D01*
X124066410Y-128856706D01*
X124224220Y-128476658D01*
X124224221Y-128474852D01*
X124695421Y-128474852D01*
X124852567Y-128855175D01*
X125143294Y-129146410D01*
X125523342Y-129304220D01*
X125934852Y-129304579D01*
X126315175Y-129147433D01*
X126606410Y-128856706D01*
X126764220Y-128476658D01*
X126764221Y-128474852D01*
X127235421Y-128474852D01*
X127392567Y-128855175D01*
X127683294Y-129146410D01*
X128063342Y-129304220D01*
X128474852Y-129304579D01*
X128855175Y-129147433D01*
X129146410Y-128856706D01*
X129304220Y-128476658D01*
X129304221Y-128474852D01*
X129775421Y-128474852D01*
X129932567Y-128855175D01*
X130223294Y-129146410D01*
X130603342Y-129304220D01*
X131014852Y-129304579D01*
X131395175Y-129147433D01*
X131686410Y-128856706D01*
X131844220Y-128476658D01*
X131844579Y-128065148D01*
X131687433Y-127684825D01*
X131396706Y-127393590D01*
X131016658Y-127235780D01*
X130605148Y-127235421D01*
X130224825Y-127392567D01*
X129933590Y-127683294D01*
X129775780Y-128063342D01*
X129775421Y-128474852D01*
X129304221Y-128474852D01*
X129304579Y-128065148D01*
X129147433Y-127684825D01*
X128856706Y-127393590D01*
X128476658Y-127235780D01*
X128065148Y-127235421D01*
X127684825Y-127392567D01*
X127393590Y-127683294D01*
X127235780Y-128063342D01*
X127235421Y-128474852D01*
X126764221Y-128474852D01*
X126764579Y-128065148D01*
X126607433Y-127684825D01*
X126316706Y-127393590D01*
X125936658Y-127235780D01*
X125525148Y-127235421D01*
X125144825Y-127392567D01*
X124853590Y-127683294D01*
X124695780Y-128063342D01*
X124695421Y-128474852D01*
X124224221Y-128474852D01*
X124224579Y-128065148D01*
X124067433Y-127684825D01*
X123776706Y-127393590D01*
X123396658Y-127235780D01*
X122985148Y-127235421D01*
X122604825Y-127392567D01*
X122313590Y-127683294D01*
X122155780Y-128063342D01*
X122155421Y-128474852D01*
X117767729Y-128474852D01*
X117719461Y-128232194D01*
X117495231Y-127896611D01*
X117159648Y-127672381D01*
X116763800Y-127593642D01*
X116367952Y-127672381D01*
X116032369Y-127896611D01*
X115808139Y-128232194D01*
X115729400Y-128628042D01*
X115258200Y-128628042D01*
X115179461Y-128232194D01*
X114955231Y-127896611D01*
X114619648Y-127672381D01*
X114223800Y-127593642D01*
X113827952Y-127672381D01*
X113492369Y-127896611D01*
X113268139Y-128232194D01*
X113189400Y-128628042D01*
X102564000Y-128628042D01*
X102564000Y-122555000D01*
X102557678Y-122523218D01*
X102557678Y-122490815D01*
X102358802Y-121490997D01*
X111155451Y-121490997D01*
X111285860Y-121806609D01*
X111527121Y-122048292D01*
X111842505Y-122179251D01*
X112183997Y-122179549D01*
X112499609Y-122049140D01*
X112741292Y-121807879D01*
X112872251Y-121492495D01*
X112872549Y-121151003D01*
X112742140Y-120835391D01*
X112500879Y-120593708D01*
X112185495Y-120462749D01*
X111844003Y-120462451D01*
X111528391Y-120592860D01*
X111286708Y-120834121D01*
X111155749Y-121149505D01*
X111155451Y-121490997D01*
X102358802Y-121490997D01*
X102074313Y-120060775D01*
X102059925Y-120026039D01*
X102025189Y-119942177D01*
X101112667Y-118576492D01*
X107754114Y-118576492D01*
X107801034Y-118799752D01*
X108258062Y-118955879D01*
X108740047Y-118925225D01*
X109042966Y-118799752D01*
X109089886Y-118576492D01*
X108422000Y-117908605D01*
X107754114Y-118576492D01*
X101112667Y-118576492D01*
X100648681Y-117882089D01*
X100557911Y-117791319D01*
X100219294Y-117565062D01*
X107195121Y-117565062D01*
X107225775Y-118047047D01*
X107351248Y-118349966D01*
X107574508Y-118396886D01*
X108242395Y-117729000D01*
X108601605Y-117729000D01*
X109269492Y-118396886D01*
X109492752Y-118349966D01*
X109646809Y-117898997D01*
X111155451Y-117898997D01*
X111285860Y-118214609D01*
X111527121Y-118456292D01*
X111842505Y-118587251D01*
X112183997Y-118587549D01*
X112499609Y-118457140D01*
X112741292Y-118215879D01*
X112872251Y-117900495D01*
X112872549Y-117559003D01*
X112742140Y-117243391D01*
X112500879Y-117001708D01*
X112185495Y-116870749D01*
X111844003Y-116870451D01*
X111528391Y-117000860D01*
X111286708Y-117242121D01*
X111155749Y-117557505D01*
X111155451Y-117898997D01*
X109646809Y-117898997D01*
X109648879Y-117892938D01*
X109618225Y-117410953D01*
X109492752Y-117108034D01*
X109269492Y-117061114D01*
X108601605Y-117729000D01*
X108242395Y-117729000D01*
X107574508Y-117061114D01*
X107351248Y-117108034D01*
X107195121Y-117565062D01*
X100219294Y-117565062D01*
X99196284Y-116881508D01*
X107754114Y-116881508D01*
X108422000Y-117549395D01*
X109089886Y-116881508D01*
X109042966Y-116658248D01*
X108962542Y-116630774D01*
X128041316Y-116630774D01*
X128114633Y-116808214D01*
X128250272Y-116944090D01*
X128427584Y-117017716D01*
X128619574Y-117017884D01*
X128797014Y-116944567D01*
X128932890Y-116808928D01*
X129006516Y-116631616D01*
X129006684Y-116439626D01*
X128933367Y-116262186D01*
X128895621Y-116224374D01*
X129616116Y-116224374D01*
X129689433Y-116401814D01*
X129825072Y-116537690D01*
X130002384Y-116611316D01*
X130194374Y-116611484D01*
X130371814Y-116538167D01*
X130507690Y-116402528D01*
X130507836Y-116402174D01*
X133146716Y-116402174D01*
X133220033Y-116579614D01*
X133355672Y-116715490D01*
X133532984Y-116789116D01*
X133724974Y-116789284D01*
X133902414Y-116715967D01*
X134038290Y-116580328D01*
X134111916Y-116403016D01*
X134111983Y-116325974D01*
X142976516Y-116325974D01*
X143049833Y-116503414D01*
X143185472Y-116639290D01*
X143362784Y-116712916D01*
X143554774Y-116713084D01*
X143732214Y-116639767D01*
X143868090Y-116504128D01*
X143941716Y-116326816D01*
X143941884Y-116134826D01*
X143868567Y-115957386D01*
X143732928Y-115821510D01*
X143555616Y-115747884D01*
X143363626Y-115747716D01*
X143186186Y-115821033D01*
X143050310Y-115956672D01*
X142976684Y-116133984D01*
X142976516Y-116325974D01*
X134111983Y-116325974D01*
X134112084Y-116211026D01*
X134038767Y-116033586D01*
X133903128Y-115897710D01*
X133725816Y-115824084D01*
X133533826Y-115823916D01*
X133356386Y-115897233D01*
X133220510Y-116032872D01*
X133146884Y-116210184D01*
X133146716Y-116402174D01*
X130507836Y-116402174D01*
X130581316Y-116225216D01*
X130581484Y-116033226D01*
X130508167Y-115855786D01*
X130372528Y-115719910D01*
X130195216Y-115646284D01*
X130003226Y-115646116D01*
X129825786Y-115719433D01*
X129689910Y-115855072D01*
X129616284Y-116032384D01*
X129616116Y-116224374D01*
X128895621Y-116224374D01*
X128797728Y-116126310D01*
X128620416Y-116052684D01*
X128428426Y-116052516D01*
X128250986Y-116125833D01*
X128115110Y-116261472D01*
X128041484Y-116438784D01*
X128041316Y-116630774D01*
X108962542Y-116630774D01*
X108585938Y-116502121D01*
X108103953Y-116532775D01*
X107801034Y-116658248D01*
X107754114Y-116881508D01*
X99196284Y-116881508D01*
X98497823Y-116414812D01*
X98379224Y-116365687D01*
X95949185Y-115882322D01*
X95916782Y-115882322D01*
X95885000Y-115876000D01*
X93293000Y-115876000D01*
X93293000Y-115462374D01*
X144195716Y-115462374D01*
X144269033Y-115639814D01*
X144404672Y-115775690D01*
X144581984Y-115849316D01*
X144773974Y-115849484D01*
X144951414Y-115776167D01*
X145087290Y-115640528D01*
X145160916Y-115463216D01*
X145160938Y-115436974D01*
X148158116Y-115436974D01*
X148231433Y-115614414D01*
X148367072Y-115750290D01*
X148544384Y-115823916D01*
X148736374Y-115824084D01*
X148913814Y-115750767D01*
X149049690Y-115615128D01*
X149123316Y-115437816D01*
X149123484Y-115245826D01*
X149050167Y-115068386D01*
X148914528Y-114932510D01*
X148737216Y-114858884D01*
X148545226Y-114858716D01*
X148367786Y-114932033D01*
X148231910Y-115067672D01*
X148158284Y-115244984D01*
X148158116Y-115436974D01*
X145160938Y-115436974D01*
X145161084Y-115271226D01*
X145087767Y-115093786D01*
X144952128Y-114957910D01*
X144774816Y-114884284D01*
X144582826Y-114884116D01*
X144405386Y-114957433D01*
X144269510Y-115093072D01*
X144195884Y-115270384D01*
X144195716Y-115462374D01*
X93293000Y-115462374D01*
X93293000Y-111855574D01*
X117500316Y-111855574D01*
X117573633Y-112033014D01*
X117709272Y-112168890D01*
X117886584Y-112242516D01*
X118078574Y-112242684D01*
X118256014Y-112169367D01*
X118391890Y-112033728D01*
X118465516Y-111856416D01*
X118465516Y-111855574D01*
X120167316Y-111855574D01*
X120240633Y-112033014D01*
X120376272Y-112168890D01*
X120553584Y-112242516D01*
X120745574Y-112242684D01*
X120923014Y-112169367D01*
X121058890Y-112033728D01*
X121132516Y-111856416D01*
X121132684Y-111664426D01*
X121059367Y-111486986D01*
X120923728Y-111351110D01*
X120746416Y-111277484D01*
X120554426Y-111277316D01*
X120376986Y-111350633D01*
X120241110Y-111486272D01*
X120167484Y-111663584D01*
X120167316Y-111855574D01*
X118465516Y-111855574D01*
X118465684Y-111664426D01*
X118392367Y-111486986D01*
X118256728Y-111351110D01*
X118079416Y-111277484D01*
X117887426Y-111277316D01*
X117709986Y-111350633D01*
X117574110Y-111486272D01*
X117500484Y-111663584D01*
X117500316Y-111855574D01*
X93293000Y-111855574D01*
X93293000Y-109213974D01*
X111556716Y-109213974D01*
X111630033Y-109391414D01*
X111765672Y-109527290D01*
X111942984Y-109600916D01*
X112134974Y-109601084D01*
X112312414Y-109527767D01*
X112448290Y-109392128D01*
X112521916Y-109214816D01*
X112522084Y-109022826D01*
X112448767Y-108845386D01*
X112360310Y-108756774D01*
X129616116Y-108756774D01*
X129689433Y-108934214D01*
X129825072Y-109070090D01*
X130002384Y-109143716D01*
X130194374Y-109143884D01*
X130371814Y-109070567D01*
X130507690Y-108934928D01*
X130581316Y-108757616D01*
X130581484Y-108565626D01*
X130508167Y-108388186D01*
X130372528Y-108252310D01*
X130195216Y-108178684D01*
X130003226Y-108178516D01*
X129825786Y-108251833D01*
X129689910Y-108387472D01*
X129616284Y-108564784D01*
X129616116Y-108756774D01*
X112360310Y-108756774D01*
X112313128Y-108709510D01*
X112135816Y-108635884D01*
X111943826Y-108635716D01*
X111766386Y-108709033D01*
X111630510Y-108844672D01*
X111556884Y-109021984D01*
X111556716Y-109213974D01*
X93293000Y-109213974D01*
X93293000Y-107689974D01*
X117500316Y-107689974D01*
X117573633Y-107867414D01*
X117709272Y-108003290D01*
X117886584Y-108076916D01*
X118078574Y-108077084D01*
X118256014Y-108003767D01*
X118391890Y-107868128D01*
X118465516Y-107690816D01*
X118465516Y-107689974D01*
X120167316Y-107689974D01*
X120240633Y-107867414D01*
X120376272Y-108003290D01*
X120553584Y-108076916D01*
X120745574Y-108077084D01*
X120923014Y-108003767D01*
X121058890Y-107868128D01*
X121122318Y-107715374D01*
X122961316Y-107715374D01*
X123034633Y-107892814D01*
X123170272Y-108028690D01*
X123347584Y-108102316D01*
X123539574Y-108102484D01*
X123717014Y-108029167D01*
X123852890Y-107893528D01*
X123926516Y-107716216D01*
X123926684Y-107524226D01*
X123853367Y-107346786D01*
X123717728Y-107210910D01*
X123540416Y-107137284D01*
X123348426Y-107137116D01*
X123170986Y-107210433D01*
X123035110Y-107346072D01*
X122961484Y-107523384D01*
X122961316Y-107715374D01*
X121122318Y-107715374D01*
X121132516Y-107690816D01*
X121132684Y-107498826D01*
X121059367Y-107321386D01*
X120923728Y-107185510D01*
X120746416Y-107111884D01*
X120554426Y-107111716D01*
X120376986Y-107185033D01*
X120241110Y-107320672D01*
X120167484Y-107497984D01*
X120167316Y-107689974D01*
X118465516Y-107689974D01*
X118465684Y-107498826D01*
X118392367Y-107321386D01*
X118256728Y-107185510D01*
X118079416Y-107111884D01*
X117887426Y-107111716D01*
X117709986Y-107185033D01*
X117574110Y-107320672D01*
X117500484Y-107497984D01*
X117500316Y-107689974D01*
X93293000Y-107689974D01*
X93293000Y-107061000D01*
X145193303Y-107061000D01*
X145271898Y-107456124D01*
X145495718Y-107791095D01*
X145830689Y-108014915D01*
X146225813Y-108093510D01*
X147804587Y-108093510D01*
X148199711Y-108014915D01*
X148534682Y-107791095D01*
X148758502Y-107456124D01*
X148837097Y-107061000D01*
X148758502Y-106665876D01*
X148534682Y-106330905D01*
X148199711Y-106107085D01*
X147804587Y-106028490D01*
X146225813Y-106028490D01*
X145830689Y-106107085D01*
X145495718Y-106330905D01*
X145271898Y-106665876D01*
X145193303Y-107061000D01*
X93293000Y-107061000D01*
X93293000Y-104804574D01*
X124932316Y-104804574D01*
X125005633Y-104982014D01*
X125141272Y-105117890D01*
X125318584Y-105191516D01*
X125510574Y-105191684D01*
X125688014Y-105118367D01*
X125823890Y-104982728D01*
X125897516Y-104805416D01*
X125897684Y-104613426D01*
X125859495Y-104521000D01*
X145193303Y-104521000D01*
X145271898Y-104916124D01*
X145495718Y-105251095D01*
X145830689Y-105474915D01*
X146225813Y-105553510D01*
X147804587Y-105553510D01*
X148199711Y-105474915D01*
X148534682Y-105251095D01*
X148758502Y-104916124D01*
X148837097Y-104521000D01*
X148758502Y-104125876D01*
X148534682Y-103790905D01*
X148199711Y-103567085D01*
X147804587Y-103488490D01*
X146225813Y-103488490D01*
X145830689Y-103567085D01*
X145495718Y-103790905D01*
X145271898Y-104125876D01*
X145193303Y-104521000D01*
X125859495Y-104521000D01*
X125824367Y-104435986D01*
X125688728Y-104300110D01*
X125511416Y-104226484D01*
X125319426Y-104226316D01*
X125141986Y-104299633D01*
X125006110Y-104435272D01*
X124932484Y-104612584D01*
X124932316Y-104804574D01*
X93293000Y-104804574D01*
X93293000Y-103371974D01*
X126644316Y-103371974D01*
X126717633Y-103549414D01*
X126853272Y-103685290D01*
X127030584Y-103758916D01*
X127222574Y-103759084D01*
X127400014Y-103685767D01*
X127535890Y-103550128D01*
X127609516Y-103372816D01*
X127609652Y-103217144D01*
X127690984Y-103250916D01*
X127882974Y-103251084D01*
X128060414Y-103177767D01*
X128196290Y-103042128D01*
X128269916Y-102864816D01*
X128270084Y-102672826D01*
X128196767Y-102495386D01*
X128061128Y-102359510D01*
X127883816Y-102285884D01*
X127691826Y-102285716D01*
X127514386Y-102359033D01*
X127378510Y-102494672D01*
X127304884Y-102671984D01*
X127304748Y-102827656D01*
X127223416Y-102793884D01*
X127031426Y-102793716D01*
X126853986Y-102867033D01*
X126718110Y-103002672D01*
X126644484Y-103179984D01*
X126644316Y-103371974D01*
X93293000Y-103371974D01*
X93293000Y-102609974D01*
X107035516Y-102609974D01*
X107108833Y-102787414D01*
X107244472Y-102923290D01*
X107421784Y-102996916D01*
X107613774Y-102997084D01*
X107791214Y-102923767D01*
X107927090Y-102788128D01*
X108000716Y-102610816D01*
X108000884Y-102418826D01*
X107927567Y-102241386D01*
X107791928Y-102105510D01*
X107614616Y-102031884D01*
X107422626Y-102031716D01*
X107245186Y-102105033D01*
X107109310Y-102240672D01*
X107035684Y-102417984D01*
X107035516Y-102609974D01*
X93293000Y-102609974D01*
X93293000Y-101898774D01*
X125171116Y-101898774D01*
X125244433Y-102076214D01*
X125380072Y-102212090D01*
X125557384Y-102285716D01*
X125749374Y-102285884D01*
X125926814Y-102212567D01*
X126062690Y-102076928D01*
X126102522Y-101981000D01*
X145193303Y-101981000D01*
X145271898Y-102376124D01*
X145495718Y-102711095D01*
X145830689Y-102934915D01*
X146225813Y-103013510D01*
X147804587Y-103013510D01*
X148199711Y-102934915D01*
X148534682Y-102711095D01*
X148758502Y-102376124D01*
X148837097Y-101981000D01*
X148758502Y-101585876D01*
X148534682Y-101250905D01*
X148199711Y-101027085D01*
X147804587Y-100948490D01*
X146225813Y-100948490D01*
X145830689Y-101027085D01*
X145495718Y-101250905D01*
X145271898Y-101585876D01*
X145193303Y-101981000D01*
X126102522Y-101981000D01*
X126136316Y-101899616D01*
X126136484Y-101707626D01*
X126063167Y-101530186D01*
X125927528Y-101394310D01*
X125750216Y-101320684D01*
X125558226Y-101320516D01*
X125380786Y-101393833D01*
X125244910Y-101529472D01*
X125171284Y-101706784D01*
X125171116Y-101898774D01*
X93293000Y-101898774D01*
X93293000Y-101314574D01*
X116230316Y-101314574D01*
X116303633Y-101492014D01*
X116439272Y-101627890D01*
X116616584Y-101701516D01*
X116808574Y-101701684D01*
X116986014Y-101628367D01*
X117121890Y-101492728D01*
X117195516Y-101315416D01*
X117195684Y-101123426D01*
X117122367Y-100945986D01*
X116986728Y-100810110D01*
X116809416Y-100736484D01*
X116617426Y-100736316D01*
X116439986Y-100809633D01*
X116304110Y-100945272D01*
X116230484Y-101122584D01*
X116230316Y-101314574D01*
X93293000Y-101314574D01*
X93293000Y-99663574D01*
X101828516Y-99663574D01*
X101901833Y-99841014D01*
X102037472Y-99976890D01*
X102214784Y-100050516D01*
X102406774Y-100050684D01*
X102584214Y-99977367D01*
X102720090Y-99841728D01*
X102793716Y-99664416D01*
X102793884Y-99472426D01*
X102720567Y-99294986D01*
X102584928Y-99159110D01*
X102407616Y-99085484D01*
X102215626Y-99085316D01*
X102038186Y-99158633D01*
X101902310Y-99294272D01*
X101828684Y-99471584D01*
X101828516Y-99663574D01*
X93293000Y-99663574D01*
X93293000Y-95311894D01*
X99142296Y-95311894D01*
X99365140Y-95851218D01*
X99777412Y-96264210D01*
X100316345Y-96487995D01*
X100888872Y-96488494D01*
X100888716Y-96666374D01*
X100917508Y-96736056D01*
X100902455Y-96729805D01*
X100318906Y-96729296D01*
X99779582Y-96952140D01*
X99366590Y-97364412D01*
X99142805Y-97903345D01*
X99142296Y-98486894D01*
X99365140Y-99026218D01*
X99777412Y-99439210D01*
X100316345Y-99662995D01*
X100899894Y-99663504D01*
X101439218Y-99440660D01*
X101852210Y-99028388D01*
X102075995Y-98489455D01*
X102076114Y-98352336D01*
X102361864Y-98352336D01*
X102481486Y-98641844D01*
X102702791Y-98863536D01*
X102992089Y-98983663D01*
X103305336Y-98983936D01*
X103594844Y-98864314D01*
X103816536Y-98643009D01*
X103881360Y-98486894D01*
X104222296Y-98486894D01*
X104445140Y-99026218D01*
X104857412Y-99439210D01*
X105396345Y-99662995D01*
X105979894Y-99663504D01*
X106519218Y-99440660D01*
X106524913Y-99434974D01*
X123596316Y-99434974D01*
X123669633Y-99612414D01*
X123805272Y-99748290D01*
X123982584Y-99821916D01*
X124174574Y-99822084D01*
X124352014Y-99748767D01*
X124487890Y-99613128D01*
X124559363Y-99441000D01*
X145193303Y-99441000D01*
X145271898Y-99836124D01*
X145495718Y-100171095D01*
X145830689Y-100394915D01*
X146225813Y-100473510D01*
X147804587Y-100473510D01*
X148199711Y-100394915D01*
X148534682Y-100171095D01*
X148758502Y-99836124D01*
X148837097Y-99441000D01*
X148758502Y-99045876D01*
X148534682Y-98710905D01*
X148199711Y-98487085D01*
X147804587Y-98408490D01*
X146225813Y-98408490D01*
X145830689Y-98487085D01*
X145495718Y-98710905D01*
X145271898Y-99045876D01*
X145193303Y-99441000D01*
X124559363Y-99441000D01*
X124561516Y-99435816D01*
X124561684Y-99243826D01*
X124488367Y-99066386D01*
X124352728Y-98930510D01*
X124175416Y-98856884D01*
X123983426Y-98856716D01*
X123805986Y-98930033D01*
X123670110Y-99065672D01*
X123596484Y-99242984D01*
X123596316Y-99434974D01*
X106524913Y-99434974D01*
X106932210Y-99028388D01*
X107090338Y-98647574D01*
X117678116Y-98647574D01*
X117751433Y-98825014D01*
X117887072Y-98960890D01*
X118064384Y-99034516D01*
X118256374Y-99034684D01*
X118433814Y-98961367D01*
X118569690Y-98825728D01*
X118643316Y-98648416D01*
X118643484Y-98456426D01*
X118570167Y-98278986D01*
X118434528Y-98143110D01*
X118257216Y-98069484D01*
X118065226Y-98069316D01*
X117887786Y-98142633D01*
X117751910Y-98278272D01*
X117678284Y-98455584D01*
X117678116Y-98647574D01*
X107090338Y-98647574D01*
X107155995Y-98489455D01*
X107156504Y-97905906D01*
X106933660Y-97366582D01*
X106521388Y-96953590D01*
X105982455Y-96729805D01*
X105398906Y-96729296D01*
X104859582Y-96952140D01*
X104446590Y-97364412D01*
X104222805Y-97903345D01*
X104222296Y-98486894D01*
X103881360Y-98486894D01*
X103936663Y-98353711D01*
X103936936Y-98040464D01*
X103817314Y-97750956D01*
X103596009Y-97529264D01*
X103306711Y-97409137D01*
X102993464Y-97408864D01*
X102703956Y-97528486D01*
X102482264Y-97749791D01*
X102362137Y-98039089D01*
X102361864Y-98352336D01*
X102076114Y-98352336D01*
X102076504Y-97905906D01*
X101853660Y-97366582D01*
X101519459Y-97031797D01*
X101644414Y-96980167D01*
X101780290Y-96844528D01*
X101853916Y-96667216D01*
X101854084Y-96475226D01*
X101780767Y-96297786D01*
X101645128Y-96161910D01*
X101573107Y-96132004D01*
X101852210Y-95853388D01*
X102075995Y-95314455D01*
X102075997Y-95311894D01*
X104222296Y-95311894D01*
X104445140Y-95851218D01*
X104857412Y-96264210D01*
X105396345Y-96487995D01*
X105979894Y-96488504D01*
X106519218Y-96265660D01*
X106601247Y-96183774D01*
X117805116Y-96183774D01*
X117878433Y-96361214D01*
X118014072Y-96497090D01*
X118191384Y-96570716D01*
X118211600Y-96570734D01*
X118211516Y-96666374D01*
X118284833Y-96843814D01*
X118420472Y-96979690D01*
X118597784Y-97053316D01*
X118789774Y-97053484D01*
X118967214Y-96980167D01*
X119103090Y-96844528D01*
X119176716Y-96667216D01*
X119176722Y-96660174D01*
X127976116Y-96660174D01*
X128049433Y-96837614D01*
X128185072Y-96973490D01*
X128362384Y-97047116D01*
X128554374Y-97047284D01*
X128731814Y-96973967D01*
X128804908Y-96901000D01*
X145193303Y-96901000D01*
X145271898Y-97296124D01*
X145495718Y-97631095D01*
X145830689Y-97854915D01*
X146225813Y-97933510D01*
X147804587Y-97933510D01*
X148199711Y-97854915D01*
X148534682Y-97631095D01*
X148758502Y-97296124D01*
X148837097Y-96901000D01*
X148758502Y-96505876D01*
X148534682Y-96170905D01*
X148199711Y-95947085D01*
X147804587Y-95868490D01*
X146225813Y-95868490D01*
X145830689Y-95947085D01*
X145495718Y-96170905D01*
X145271898Y-96505876D01*
X145193303Y-96901000D01*
X128804908Y-96901000D01*
X128867690Y-96838328D01*
X128941316Y-96661016D01*
X128941484Y-96469026D01*
X128868167Y-96291586D01*
X128732528Y-96155710D01*
X128555216Y-96082084D01*
X128363226Y-96081916D01*
X128185786Y-96155233D01*
X128049910Y-96290872D01*
X127976284Y-96468184D01*
X127976116Y-96660174D01*
X119176722Y-96660174D01*
X119176884Y-96475226D01*
X119103567Y-96297786D01*
X118967928Y-96161910D01*
X118790616Y-96088284D01*
X118770400Y-96088266D01*
X118770447Y-96034975D01*
X118941814Y-95964167D01*
X119077690Y-95828528D01*
X119141118Y-95675774D01*
X137921916Y-95675774D01*
X137995233Y-95853214D01*
X138130872Y-95989090D01*
X138308184Y-96062716D01*
X138500174Y-96062884D01*
X138677614Y-95989567D01*
X138813490Y-95853928D01*
X138887116Y-95676616D01*
X138887284Y-95484626D01*
X138813967Y-95307186D01*
X138678328Y-95171310D01*
X138501016Y-95097684D01*
X138309026Y-95097516D01*
X138131586Y-95170833D01*
X137995710Y-95306472D01*
X137922084Y-95483784D01*
X137921916Y-95675774D01*
X119141118Y-95675774D01*
X119151316Y-95651216D01*
X119151484Y-95459226D01*
X119078167Y-95281786D01*
X118942528Y-95145910D01*
X118765216Y-95072284D01*
X118573226Y-95072116D01*
X118395786Y-95145433D01*
X118259910Y-95281072D01*
X118186284Y-95458384D01*
X118186153Y-95608025D01*
X118014786Y-95678833D01*
X117878910Y-95814472D01*
X117805284Y-95991784D01*
X117805116Y-96183774D01*
X106601247Y-96183774D01*
X106932210Y-95853388D01*
X107155995Y-95314455D01*
X107156504Y-94730906D01*
X107127279Y-94660174D01*
X128046516Y-94660174D01*
X128119833Y-94837614D01*
X128255472Y-94973490D01*
X128432784Y-95047116D01*
X128624774Y-95047284D01*
X128802214Y-94973967D01*
X128938090Y-94838328D01*
X129011716Y-94661016D01*
X129011884Y-94469026D01*
X128967249Y-94361000D01*
X145193303Y-94361000D01*
X145271898Y-94756124D01*
X145495718Y-95091095D01*
X145830689Y-95314915D01*
X146225813Y-95393510D01*
X147804587Y-95393510D01*
X148199711Y-95314915D01*
X148534682Y-95091095D01*
X148758502Y-94756124D01*
X148837097Y-94361000D01*
X148758502Y-93965876D01*
X148534682Y-93630905D01*
X148199711Y-93407085D01*
X147804587Y-93328490D01*
X146225813Y-93328490D01*
X145830689Y-93407085D01*
X145495718Y-93630905D01*
X145271898Y-93965876D01*
X145193303Y-94361000D01*
X128967249Y-94361000D01*
X128938567Y-94291586D01*
X128802928Y-94155710D01*
X128625616Y-94082084D01*
X128433626Y-94081916D01*
X128256186Y-94155233D01*
X128120310Y-94290872D01*
X128046684Y-94468184D01*
X128046516Y-94660174D01*
X107127279Y-94660174D01*
X106933660Y-94191582D01*
X106521388Y-93778590D01*
X105982455Y-93554805D01*
X105398906Y-93554296D01*
X104859582Y-93777140D01*
X104446590Y-94189412D01*
X104222805Y-94728345D01*
X104222296Y-95311894D01*
X102075997Y-95311894D01*
X102076504Y-94730906D01*
X101853660Y-94191582D01*
X101441388Y-93778590D01*
X100902455Y-93554805D01*
X100318906Y-93554296D01*
X99779582Y-93777140D01*
X99366590Y-94189412D01*
X99142805Y-94728345D01*
X99142296Y-95311894D01*
X93293000Y-95311894D01*
X93293000Y-93272336D01*
X101345864Y-93272336D01*
X101465486Y-93561844D01*
X101686791Y-93783536D01*
X101976089Y-93903663D01*
X102289336Y-93903936D01*
X102578844Y-93784314D01*
X102800536Y-93563009D01*
X102920663Y-93273711D01*
X102920664Y-93272336D01*
X103377864Y-93272336D01*
X103497486Y-93561844D01*
X103718791Y-93783536D01*
X104008089Y-93903663D01*
X104321336Y-93903936D01*
X104610844Y-93784314D01*
X104832536Y-93563009D01*
X104952663Y-93273711D01*
X104952761Y-93160174D01*
X137997116Y-93160174D01*
X138070433Y-93337614D01*
X138206072Y-93473490D01*
X138383384Y-93547116D01*
X138575374Y-93547284D01*
X138752814Y-93473967D01*
X138888690Y-93338328D01*
X138962316Y-93161016D01*
X138962484Y-92969026D01*
X138889167Y-92791586D01*
X138753528Y-92655710D01*
X138576216Y-92582084D01*
X138384226Y-92581916D01*
X138206786Y-92655233D01*
X138070910Y-92790872D01*
X137997284Y-92968184D01*
X137997116Y-93160174D01*
X104952761Y-93160174D01*
X104952936Y-92960464D01*
X104833314Y-92670956D01*
X104815564Y-92653174D01*
X132003716Y-92653174D01*
X132077033Y-92830614D01*
X132212672Y-92966490D01*
X132389984Y-93040116D01*
X132581974Y-93040284D01*
X132759414Y-92966967D01*
X132895290Y-92831328D01*
X132968916Y-92654016D01*
X132969084Y-92462026D01*
X132895767Y-92284586D01*
X132760128Y-92148710D01*
X132582816Y-92075084D01*
X132390826Y-92074916D01*
X132213386Y-92148233D01*
X132077510Y-92283872D01*
X132003884Y-92461184D01*
X132003716Y-92653174D01*
X104815564Y-92653174D01*
X104612009Y-92449264D01*
X104322711Y-92329137D01*
X104009464Y-92328864D01*
X103719956Y-92448486D01*
X103498264Y-92669791D01*
X103378137Y-92959089D01*
X103377864Y-93272336D01*
X102920664Y-93272336D01*
X102920936Y-92960464D01*
X102801314Y-92670956D01*
X102580009Y-92449264D01*
X102290711Y-92329137D01*
X101977464Y-92328864D01*
X101687956Y-92448486D01*
X101466264Y-92669791D01*
X101346137Y-92959089D01*
X101345864Y-93272336D01*
X93293000Y-93272336D01*
X93293000Y-92018174D01*
X110820116Y-92018174D01*
X110893433Y-92195614D01*
X111029072Y-92331490D01*
X111206384Y-92405116D01*
X111398374Y-92405284D01*
X111575814Y-92331967D01*
X111711690Y-92196328D01*
X111732930Y-92145174D01*
X128422316Y-92145174D01*
X128495633Y-92322614D01*
X128631272Y-92458490D01*
X128808584Y-92532116D01*
X129000574Y-92532284D01*
X129178014Y-92458967D01*
X129313890Y-92323328D01*
X129387516Y-92146016D01*
X129387684Y-91954026D01*
X129314367Y-91776586D01*
X129178728Y-91640710D01*
X129001416Y-91567084D01*
X128809426Y-91566916D01*
X128631986Y-91640233D01*
X128496110Y-91775872D01*
X128422484Y-91953184D01*
X128422316Y-92145174D01*
X111732930Y-92145174D01*
X111785316Y-92019016D01*
X111785484Y-91827026D01*
X111712167Y-91649586D01*
X111576528Y-91513710D01*
X111399216Y-91440084D01*
X111207226Y-91439916D01*
X111029786Y-91513233D01*
X110893910Y-91648872D01*
X110820284Y-91826184D01*
X110820116Y-92018174D01*
X93293000Y-92018174D01*
X93293000Y-90519574D01*
X121335716Y-90519574D01*
X121409033Y-90697014D01*
X121544672Y-90832890D01*
X121721984Y-90906516D01*
X121913974Y-90906684D01*
X122091414Y-90833367D01*
X122227290Y-90697728D01*
X122300916Y-90520416D01*
X122300916Y-90519574D01*
X123850316Y-90519574D01*
X123923633Y-90697014D01*
X124059272Y-90832890D01*
X124236584Y-90906516D01*
X124428574Y-90906684D01*
X124606014Y-90833367D01*
X124741890Y-90697728D01*
X124770278Y-90629362D01*
X124846672Y-90705890D01*
X125023984Y-90779516D01*
X125215974Y-90779684D01*
X125338314Y-90729134D01*
X125346033Y-90747814D01*
X125481672Y-90883690D01*
X125658984Y-90957316D01*
X125850974Y-90957484D01*
X126028414Y-90884167D01*
X126164290Y-90748528D01*
X126168334Y-90738790D01*
X126235033Y-90900214D01*
X126370672Y-91036090D01*
X126547984Y-91109716D01*
X126739974Y-91109884D01*
X126917414Y-91036567D01*
X127053290Y-90900928D01*
X127126916Y-90723616D01*
X127127084Y-90531626D01*
X127053767Y-90354186D01*
X126918128Y-90218310D01*
X126740816Y-90144684D01*
X126548826Y-90144516D01*
X126371386Y-90217833D01*
X126235510Y-90353472D01*
X126231466Y-90363210D01*
X126164767Y-90201786D01*
X126029128Y-90065910D01*
X125851816Y-89992284D01*
X125659826Y-89992116D01*
X125537486Y-90042666D01*
X125529767Y-90023986D01*
X125394128Y-89888110D01*
X125216816Y-89814484D01*
X125024826Y-89814316D01*
X124847386Y-89887633D01*
X124711510Y-90023272D01*
X124683122Y-90091638D01*
X124606728Y-90015110D01*
X124429416Y-89941484D01*
X124237426Y-89941316D01*
X124059986Y-90014633D01*
X123924110Y-90150272D01*
X123850484Y-90327584D01*
X123850316Y-90519574D01*
X122300916Y-90519574D01*
X122301084Y-90328426D01*
X122227767Y-90150986D01*
X122092128Y-90015110D01*
X121914816Y-89941484D01*
X121722826Y-89941316D01*
X121545386Y-90014633D01*
X121409510Y-90150272D01*
X121335884Y-90327584D01*
X121335716Y-90519574D01*
X93293000Y-90519574D01*
X93293000Y-89808374D01*
X136474116Y-89808374D01*
X136547433Y-89985814D01*
X136683072Y-90121690D01*
X136860384Y-90195316D01*
X137052374Y-90195484D01*
X137229814Y-90122167D01*
X137365690Y-89986528D01*
X137439316Y-89809216D01*
X137439484Y-89617226D01*
X137366167Y-89439786D01*
X137303066Y-89376574D01*
X138429916Y-89376574D01*
X138503233Y-89554014D01*
X138638872Y-89689890D01*
X138816184Y-89763516D01*
X139008174Y-89763684D01*
X139185614Y-89690367D01*
X139321490Y-89554728D01*
X139395116Y-89377416D01*
X139395138Y-89351174D01*
X139445916Y-89351174D01*
X139519233Y-89528614D01*
X139654872Y-89664490D01*
X139832184Y-89738116D01*
X140002703Y-89738265D01*
X139979484Y-89794184D01*
X139979316Y-89986174D01*
X140052633Y-90163614D01*
X140188272Y-90299490D01*
X140365584Y-90373116D01*
X140557574Y-90373284D01*
X140735014Y-90299967D01*
X140853714Y-90181474D01*
X144915417Y-90181474D01*
X144929773Y-90253675D01*
X145189476Y-90731540D01*
X145612281Y-91073646D01*
X146133820Y-91227910D01*
X146888200Y-91227910D01*
X146888200Y-89966800D01*
X147142200Y-89966800D01*
X147142200Y-91227910D01*
X147896580Y-91227910D01*
X148418119Y-91073646D01*
X148840924Y-90731540D01*
X149100627Y-90253675D01*
X149114983Y-90181474D01*
X148992362Y-89966800D01*
X147142200Y-89966800D01*
X146888200Y-89966800D01*
X145038038Y-89966800D01*
X144915417Y-90181474D01*
X140853714Y-90181474D01*
X140870890Y-90164328D01*
X140944516Y-89987016D01*
X140944684Y-89795026D01*
X140871367Y-89617586D01*
X140752116Y-89498126D01*
X144915417Y-89498126D01*
X145038038Y-89712800D01*
X146888200Y-89712800D01*
X146888200Y-88451690D01*
X147142200Y-88451690D01*
X147142200Y-89712800D01*
X148992362Y-89712800D01*
X149114983Y-89498126D01*
X149100627Y-89425925D01*
X148840924Y-88948060D01*
X148418119Y-88605954D01*
X147896580Y-88451690D01*
X147142200Y-88451690D01*
X146888200Y-88451690D01*
X146133820Y-88451690D01*
X145612281Y-88605954D01*
X145189476Y-88948060D01*
X144929773Y-89425925D01*
X144915417Y-89498126D01*
X140752116Y-89498126D01*
X140735728Y-89481710D01*
X140558416Y-89408084D01*
X140387897Y-89407935D01*
X140411116Y-89352016D01*
X140411284Y-89160026D01*
X140337967Y-88982586D01*
X140202328Y-88846710D01*
X140025016Y-88773084D01*
X139833026Y-88772916D01*
X139655586Y-88846233D01*
X139519710Y-88981872D01*
X139446084Y-89159184D01*
X139445916Y-89351174D01*
X139395138Y-89351174D01*
X139395284Y-89185426D01*
X139321967Y-89007986D01*
X139186328Y-88872110D01*
X139009016Y-88798484D01*
X138817026Y-88798316D01*
X138639586Y-88871633D01*
X138503710Y-89007272D01*
X138430084Y-89184584D01*
X138429916Y-89376574D01*
X137303066Y-89376574D01*
X137230528Y-89303910D01*
X137053216Y-89230284D01*
X136861226Y-89230116D01*
X136683786Y-89303433D01*
X136547910Y-89439072D01*
X136474284Y-89616384D01*
X136474116Y-89808374D01*
X93293000Y-89808374D01*
X93293000Y-89325774D01*
X118846516Y-89325774D01*
X118919833Y-89503214D01*
X119055472Y-89639090D01*
X119232784Y-89712716D01*
X119424774Y-89712884D01*
X119602214Y-89639567D01*
X119738090Y-89503928D01*
X119811716Y-89326616D01*
X119811805Y-89224174D01*
X130278151Y-89224174D01*
X130351468Y-89401614D01*
X130487107Y-89537490D01*
X130664419Y-89611116D01*
X130856409Y-89611284D01*
X131033849Y-89537967D01*
X131169725Y-89402328D01*
X131243351Y-89225016D01*
X131243519Y-89033026D01*
X131170202Y-88855586D01*
X131034563Y-88719710D01*
X130857251Y-88646084D01*
X130665261Y-88645916D01*
X130487821Y-88719233D01*
X130351945Y-88854872D01*
X130278319Y-89032184D01*
X130278151Y-89224174D01*
X119811805Y-89224174D01*
X119811884Y-89134626D01*
X119738567Y-88957186D01*
X119602928Y-88821310D01*
X119425616Y-88747684D01*
X119233626Y-88747516D01*
X119056186Y-88820833D01*
X118920310Y-88956472D01*
X118846684Y-89133784D01*
X118846516Y-89325774D01*
X93293000Y-89325774D01*
X93293000Y-88084839D01*
X130278151Y-88084839D01*
X130351468Y-88262279D01*
X130487107Y-88398155D01*
X130664419Y-88471781D01*
X130856409Y-88471949D01*
X131033849Y-88398632D01*
X131169725Y-88262993D01*
X131243351Y-88085681D01*
X131243519Y-87893691D01*
X131170202Y-87716251D01*
X131056389Y-87602239D01*
X136475751Y-87602239D01*
X136549068Y-87779679D01*
X136684707Y-87915555D01*
X136862019Y-87989181D01*
X137054009Y-87989349D01*
X137231449Y-87916032D01*
X137367325Y-87780393D01*
X137421728Y-87649374D01*
X141935116Y-87649374D01*
X142008433Y-87826814D01*
X142144072Y-87962690D01*
X142321384Y-88036316D01*
X142513374Y-88036484D01*
X142690814Y-87963167D01*
X142826690Y-87827528D01*
X142900316Y-87650216D01*
X142900484Y-87458226D01*
X142835024Y-87299800D01*
X145193303Y-87299800D01*
X145271898Y-87694924D01*
X145495718Y-88029895D01*
X145830689Y-88253715D01*
X146225813Y-88332310D01*
X147804587Y-88332310D01*
X148199711Y-88253715D01*
X148534682Y-88029895D01*
X148758502Y-87694924D01*
X148837097Y-87299800D01*
X148758502Y-86904676D01*
X148534682Y-86569705D01*
X148199711Y-86345885D01*
X147804587Y-86267290D01*
X146225813Y-86267290D01*
X145830689Y-86345885D01*
X145495718Y-86569705D01*
X145271898Y-86904676D01*
X145193303Y-87299800D01*
X142835024Y-87299800D01*
X142827167Y-87280786D01*
X142691528Y-87144910D01*
X142514216Y-87071284D01*
X142322226Y-87071116D01*
X142144786Y-87144433D01*
X142008910Y-87280072D01*
X141935284Y-87457384D01*
X141935116Y-87649374D01*
X137421728Y-87649374D01*
X137440951Y-87603081D01*
X137441119Y-87411091D01*
X137367802Y-87233651D01*
X137232163Y-87097775D01*
X137054851Y-87024149D01*
X136862861Y-87023981D01*
X136685421Y-87097298D01*
X136549545Y-87232937D01*
X136475919Y-87410249D01*
X136475751Y-87602239D01*
X131056389Y-87602239D01*
X131034563Y-87580375D01*
X130857251Y-87506749D01*
X130665261Y-87506581D01*
X130487821Y-87579898D01*
X130351945Y-87715537D01*
X130278319Y-87892849D01*
X130278151Y-88084839D01*
X93293000Y-88084839D01*
X93293000Y-87324000D01*
X95885000Y-87324000D01*
X95916782Y-87317678D01*
X95949185Y-87317678D01*
X97838654Y-86941839D01*
X132081551Y-86941839D01*
X132154868Y-87119279D01*
X132290507Y-87255155D01*
X132467819Y-87328781D01*
X132659809Y-87328949D01*
X132837249Y-87255632D01*
X132973125Y-87119993D01*
X133046751Y-86942681D01*
X133046919Y-86750691D01*
X132973602Y-86573251D01*
X132837963Y-86437375D01*
X132660651Y-86363749D01*
X132468661Y-86363581D01*
X132291221Y-86436898D01*
X132155345Y-86572537D01*
X132081719Y-86749849D01*
X132081551Y-86941839D01*
X97838654Y-86941839D01*
X98379224Y-86834313D01*
X98497823Y-86785188D01*
X100245579Y-85617374D01*
X129006516Y-85617374D01*
X129079833Y-85794814D01*
X129215472Y-85930690D01*
X129392784Y-86004316D01*
X129584774Y-86004484D01*
X129762214Y-85931167D01*
X129847555Y-85845974D01*
X141477916Y-85845974D01*
X141551233Y-86023414D01*
X141686872Y-86159290D01*
X141864184Y-86232916D01*
X142056174Y-86233084D01*
X142233614Y-86159767D01*
X142344400Y-86049174D01*
X148869316Y-86049174D01*
X148942633Y-86226614D01*
X149078272Y-86362490D01*
X149255584Y-86436116D01*
X149447574Y-86436284D01*
X149625014Y-86362967D01*
X149760890Y-86227328D01*
X149834516Y-86050016D01*
X149834684Y-85858026D01*
X149761367Y-85680586D01*
X149625728Y-85544710D01*
X149448416Y-85471084D01*
X149256426Y-85470916D01*
X149078986Y-85544233D01*
X148943110Y-85679872D01*
X148869484Y-85857184D01*
X148869316Y-86049174D01*
X142344400Y-86049174D01*
X142369490Y-86024128D01*
X142443116Y-85846816D01*
X142443284Y-85654826D01*
X142369967Y-85477386D01*
X142234328Y-85341510D01*
X142057016Y-85267884D01*
X141865026Y-85267716D01*
X141687586Y-85341033D01*
X141551710Y-85476672D01*
X141478084Y-85653984D01*
X141477916Y-85845974D01*
X129847555Y-85845974D01*
X129898090Y-85795528D01*
X129971716Y-85618216D01*
X129971884Y-85426226D01*
X129898567Y-85248786D01*
X129762928Y-85112910D01*
X129585616Y-85039284D01*
X129393626Y-85039116D01*
X129216186Y-85112433D01*
X129080310Y-85248072D01*
X129006684Y-85425384D01*
X129006516Y-85617374D01*
X100245579Y-85617374D01*
X100557911Y-85408681D01*
X100648683Y-85317909D01*
X101260781Y-84401839D01*
X125807751Y-84401839D01*
X125881068Y-84579279D01*
X126016707Y-84715155D01*
X126194019Y-84788781D01*
X126386009Y-84788949D01*
X126456554Y-84759800D01*
X145193303Y-84759800D01*
X145271898Y-85154924D01*
X145495718Y-85489895D01*
X145830689Y-85713715D01*
X146225813Y-85792310D01*
X147804587Y-85792310D01*
X148199711Y-85713715D01*
X148534682Y-85489895D01*
X148758502Y-85154924D01*
X148837097Y-84759800D01*
X148758502Y-84364676D01*
X148534682Y-84029705D01*
X148199711Y-83805885D01*
X147804587Y-83727290D01*
X146225813Y-83727290D01*
X145830689Y-83805885D01*
X145495718Y-84029705D01*
X145271898Y-84364676D01*
X145193303Y-84759800D01*
X126456554Y-84759800D01*
X126563449Y-84715632D01*
X126699325Y-84579993D01*
X126772951Y-84402681D01*
X126773119Y-84210691D01*
X126699802Y-84033251D01*
X126564163Y-83897375D01*
X126386851Y-83823749D01*
X126194861Y-83823581D01*
X126017421Y-83896898D01*
X125881545Y-84032537D01*
X125807919Y-84209849D01*
X125807751Y-84401839D01*
X101260781Y-84401839D01*
X102025189Y-83257823D01*
X102074313Y-83139224D01*
X102086615Y-83077374D01*
X125806116Y-83077374D01*
X125879433Y-83254814D01*
X126015072Y-83390690D01*
X126192384Y-83464316D01*
X126384374Y-83464484D01*
X126561814Y-83391167D01*
X126697690Y-83255528D01*
X126771316Y-83078216D01*
X126771383Y-83001174D01*
X131597316Y-83001174D01*
X131670633Y-83178614D01*
X131806272Y-83314490D01*
X131983584Y-83388116D01*
X132175574Y-83388284D01*
X132353014Y-83314967D01*
X132488890Y-83179328D01*
X132554510Y-83021295D01*
X141985899Y-83021295D01*
X142074651Y-83236090D01*
X142238845Y-83400572D01*
X142453486Y-83489698D01*
X142685895Y-83489901D01*
X142762195Y-83458374D01*
X148869316Y-83458374D01*
X148942633Y-83635814D01*
X149078272Y-83771690D01*
X149255584Y-83845316D01*
X149447574Y-83845484D01*
X149625014Y-83772167D01*
X149760890Y-83636528D01*
X149834516Y-83459216D01*
X149834684Y-83267226D01*
X149761367Y-83089786D01*
X149625728Y-82953910D01*
X149448416Y-82880284D01*
X149256426Y-82880116D01*
X149078986Y-82953433D01*
X148943110Y-83089072D01*
X148869484Y-83266384D01*
X148869316Y-83458374D01*
X142762195Y-83458374D01*
X142900690Y-83401149D01*
X143065172Y-83236955D01*
X143154298Y-83022314D01*
X143154501Y-82789905D01*
X143065749Y-82575110D01*
X142901555Y-82410628D01*
X142686914Y-82321502D01*
X142454505Y-82321299D01*
X142239710Y-82410051D01*
X142075228Y-82574245D01*
X141986102Y-82788886D01*
X141985899Y-83021295D01*
X132554510Y-83021295D01*
X132562516Y-83002016D01*
X132562684Y-82810026D01*
X132489367Y-82632586D01*
X132353728Y-82496710D01*
X132176416Y-82423084D01*
X131984426Y-82422916D01*
X131806986Y-82496233D01*
X131671110Y-82631872D01*
X131597484Y-82809184D01*
X131597316Y-83001174D01*
X126771383Y-83001174D01*
X126771484Y-82886226D01*
X126698167Y-82708786D01*
X126562528Y-82572910D01*
X126385216Y-82499284D01*
X126193226Y-82499116D01*
X126015786Y-82572433D01*
X125879910Y-82708072D01*
X125806284Y-82885384D01*
X125806116Y-83077374D01*
X102086615Y-83077374D01*
X102557678Y-80709185D01*
X102557678Y-80676782D01*
X102564000Y-80645000D01*
X102564000Y-75901010D01*
X118588595Y-75901010D01*
X118656499Y-76141880D01*
X119175339Y-76326503D01*
X119725336Y-76298521D01*
X120103501Y-76141880D01*
X120171405Y-75901010D01*
X119380000Y-75109605D01*
X118588595Y-75901010D01*
X102564000Y-75901010D01*
X102564000Y-74725339D01*
X117983497Y-74725339D01*
X118011479Y-75275336D01*
X118168120Y-75653501D01*
X118408990Y-75721405D01*
X119200395Y-74930000D01*
X119559605Y-74930000D01*
X120351010Y-75721405D01*
X120591880Y-75653501D01*
X120776503Y-75134661D01*
X120776456Y-75133723D01*
X120891122Y-75133723D01*
X121047402Y-75511950D01*
X121336528Y-75801581D01*
X121714481Y-75958521D01*
X122123723Y-75958878D01*
X122501950Y-75802598D01*
X122791581Y-75513472D01*
X122948521Y-75135519D01*
X122948522Y-75133723D01*
X123431122Y-75133723D01*
X123587402Y-75511950D01*
X123876528Y-75801581D01*
X124254481Y-75958521D01*
X124663723Y-75958878D01*
X125041950Y-75802598D01*
X125331581Y-75513472D01*
X125488521Y-75135519D01*
X125488522Y-75133723D01*
X125971122Y-75133723D01*
X126127402Y-75511950D01*
X126416528Y-75801581D01*
X126794481Y-75958521D01*
X127203723Y-75958878D01*
X127581950Y-75802598D01*
X127871581Y-75513472D01*
X128028521Y-75135519D01*
X128028522Y-75133723D01*
X128511122Y-75133723D01*
X128667402Y-75511950D01*
X128956528Y-75801581D01*
X129334481Y-75958521D01*
X129743723Y-75958878D01*
X130121950Y-75802598D01*
X130411581Y-75513472D01*
X130568521Y-75135519D01*
X130568522Y-75133723D01*
X131051122Y-75133723D01*
X131207402Y-75511950D01*
X131496528Y-75801581D01*
X131874481Y-75958521D01*
X132283723Y-75958878D01*
X132661950Y-75802598D01*
X132951581Y-75513472D01*
X133108521Y-75135519D01*
X133108522Y-75133723D01*
X133591122Y-75133723D01*
X133747402Y-75511950D01*
X134036528Y-75801581D01*
X134414481Y-75958521D01*
X134823723Y-75958878D01*
X135201950Y-75802598D01*
X135491581Y-75513472D01*
X135648521Y-75135519D01*
X135648878Y-74726277D01*
X135492598Y-74348050D01*
X135203472Y-74058419D01*
X134825519Y-73901479D01*
X134416277Y-73901122D01*
X134038050Y-74057402D01*
X133748419Y-74346528D01*
X133591479Y-74724481D01*
X133591122Y-75133723D01*
X133108522Y-75133723D01*
X133108878Y-74726277D01*
X132952598Y-74348050D01*
X132663472Y-74058419D01*
X132285519Y-73901479D01*
X131876277Y-73901122D01*
X131498050Y-74057402D01*
X131208419Y-74346528D01*
X131051479Y-74724481D01*
X131051122Y-75133723D01*
X130568522Y-75133723D01*
X130568878Y-74726277D01*
X130412598Y-74348050D01*
X130123472Y-74058419D01*
X129745519Y-73901479D01*
X129336277Y-73901122D01*
X128958050Y-74057402D01*
X128668419Y-74346528D01*
X128511479Y-74724481D01*
X128511122Y-75133723D01*
X128028522Y-75133723D01*
X128028878Y-74726277D01*
X127872598Y-74348050D01*
X127583472Y-74058419D01*
X127205519Y-73901479D01*
X126796277Y-73901122D01*
X126418050Y-74057402D01*
X126128419Y-74346528D01*
X125971479Y-74724481D01*
X125971122Y-75133723D01*
X125488522Y-75133723D01*
X125488878Y-74726277D01*
X125332598Y-74348050D01*
X125043472Y-74058419D01*
X124665519Y-73901479D01*
X124256277Y-73901122D01*
X123878050Y-74057402D01*
X123588419Y-74346528D01*
X123431479Y-74724481D01*
X123431122Y-75133723D01*
X122948522Y-75133723D01*
X122948878Y-74726277D01*
X122792598Y-74348050D01*
X122503472Y-74058419D01*
X122125519Y-73901479D01*
X121716277Y-73901122D01*
X121338050Y-74057402D01*
X121048419Y-74346528D01*
X120891479Y-74724481D01*
X120891122Y-75133723D01*
X120776456Y-75133723D01*
X120748521Y-74584664D01*
X120591880Y-74206499D01*
X120351010Y-74138595D01*
X119559605Y-74930000D01*
X119200395Y-74930000D01*
X118408990Y-74138595D01*
X118168120Y-74206499D01*
X117983497Y-74725339D01*
X102564000Y-74725339D01*
X102564000Y-72767265D01*
X104139670Y-72767265D01*
X104429078Y-73467686D01*
X104964495Y-74004039D01*
X105664410Y-74294668D01*
X106422265Y-74295330D01*
X107122686Y-74005922D01*
X107169700Y-73958990D01*
X118588595Y-73958990D01*
X119380000Y-74750395D01*
X120171405Y-73958990D01*
X120103501Y-73718120D01*
X119584661Y-73533497D01*
X119034664Y-73561479D01*
X118656499Y-73718120D01*
X118588595Y-73958990D01*
X107169700Y-73958990D01*
X107659039Y-73470505D01*
X107949668Y-72770590D01*
X107949822Y-72593723D01*
X118351122Y-72593723D01*
X118507402Y-72971950D01*
X118796528Y-73261581D01*
X119174481Y-73418521D01*
X119583723Y-73418878D01*
X119961950Y-73262598D01*
X120251581Y-72973472D01*
X120408521Y-72595519D01*
X120408522Y-72593723D01*
X120891122Y-72593723D01*
X121047402Y-72971950D01*
X121336528Y-73261581D01*
X121714481Y-73418521D01*
X122123723Y-73418878D01*
X122501950Y-73262598D01*
X122791581Y-72973472D01*
X122948521Y-72595519D01*
X122948522Y-72593723D01*
X123431122Y-72593723D01*
X123587402Y-72971950D01*
X123876528Y-73261581D01*
X124254481Y-73418521D01*
X124663723Y-73418878D01*
X125041950Y-73262598D01*
X125331581Y-72973472D01*
X125488521Y-72595519D01*
X125488522Y-72593723D01*
X125971122Y-72593723D01*
X126127402Y-72971950D01*
X126416528Y-73261581D01*
X126794481Y-73418521D01*
X127203723Y-73418878D01*
X127581950Y-73262598D01*
X127871581Y-72973472D01*
X128028521Y-72595519D01*
X128028522Y-72593723D01*
X128511122Y-72593723D01*
X128667402Y-72971950D01*
X128956528Y-73261581D01*
X129334481Y-73418521D01*
X129743723Y-73418878D01*
X130121950Y-73262598D01*
X130411581Y-72973472D01*
X130568521Y-72595519D01*
X130568522Y-72593723D01*
X131051122Y-72593723D01*
X131207402Y-72971950D01*
X131496528Y-73261581D01*
X131874481Y-73418521D01*
X132283723Y-73418878D01*
X132661950Y-73262598D01*
X132951581Y-72973472D01*
X133075206Y-72675750D01*
X133235700Y-72675750D01*
X133235700Y-73265610D01*
X133332373Y-73498999D01*
X133511002Y-73677627D01*
X133744391Y-73774300D01*
X134334250Y-73774300D01*
X134493000Y-73615550D01*
X134493000Y-72517000D01*
X134747000Y-72517000D01*
X134747000Y-73615550D01*
X134905750Y-73774300D01*
X135495609Y-73774300D01*
X135728998Y-73677627D01*
X135907627Y-73498999D01*
X136004300Y-73265610D01*
X136004300Y-72767265D01*
X146049670Y-72767265D01*
X146339078Y-73467686D01*
X146874495Y-74004039D01*
X147574410Y-74294668D01*
X148332265Y-74295330D01*
X149032686Y-74005922D01*
X149569039Y-73470505D01*
X149859668Y-72770590D01*
X149860330Y-72012735D01*
X149570922Y-71312314D01*
X149035505Y-70775961D01*
X148335590Y-70485332D01*
X147577735Y-70484670D01*
X146877314Y-70774078D01*
X146340961Y-71309495D01*
X146050332Y-72009410D01*
X146049670Y-72767265D01*
X136004300Y-72767265D01*
X136004300Y-72675750D01*
X135845550Y-72517000D01*
X134747000Y-72517000D01*
X134493000Y-72517000D01*
X133394450Y-72517000D01*
X133235700Y-72675750D01*
X133075206Y-72675750D01*
X133108521Y-72595519D01*
X133108878Y-72186277D01*
X132952598Y-71808050D01*
X132663472Y-71518419D01*
X132653770Y-71514390D01*
X133235700Y-71514390D01*
X133235700Y-72104250D01*
X133394450Y-72263000D01*
X134493000Y-72263000D01*
X134493000Y-71164450D01*
X134747000Y-71164450D01*
X134747000Y-72263000D01*
X135845550Y-72263000D01*
X136004300Y-72104250D01*
X136004300Y-71514390D01*
X135907627Y-71281001D01*
X135728998Y-71102373D01*
X135495609Y-71005700D01*
X134905750Y-71005700D01*
X134747000Y-71164450D01*
X134493000Y-71164450D01*
X134334250Y-71005700D01*
X133744391Y-71005700D01*
X133511002Y-71102373D01*
X133332373Y-71281001D01*
X133235700Y-71514390D01*
X132653770Y-71514390D01*
X132285519Y-71361479D01*
X131876277Y-71361122D01*
X131498050Y-71517402D01*
X131208419Y-71806528D01*
X131051479Y-72184481D01*
X131051122Y-72593723D01*
X130568522Y-72593723D01*
X130568878Y-72186277D01*
X130412598Y-71808050D01*
X130123472Y-71518419D01*
X129745519Y-71361479D01*
X129336277Y-71361122D01*
X128958050Y-71517402D01*
X128668419Y-71806528D01*
X128511479Y-72184481D01*
X128511122Y-72593723D01*
X128028522Y-72593723D01*
X128028878Y-72186277D01*
X127872598Y-71808050D01*
X127583472Y-71518419D01*
X127205519Y-71361479D01*
X126796277Y-71361122D01*
X126418050Y-71517402D01*
X126128419Y-71806528D01*
X125971479Y-72184481D01*
X125971122Y-72593723D01*
X125488522Y-72593723D01*
X125488878Y-72186277D01*
X125332598Y-71808050D01*
X125043472Y-71518419D01*
X124665519Y-71361479D01*
X124256277Y-71361122D01*
X123878050Y-71517402D01*
X123588419Y-71806528D01*
X123431479Y-72184481D01*
X123431122Y-72593723D01*
X122948522Y-72593723D01*
X122948878Y-72186277D01*
X122792598Y-71808050D01*
X122503472Y-71518419D01*
X122125519Y-71361479D01*
X121716277Y-71361122D01*
X121338050Y-71517402D01*
X121048419Y-71806528D01*
X120891479Y-72184481D01*
X120891122Y-72593723D01*
X120408522Y-72593723D01*
X120408878Y-72186277D01*
X120252598Y-71808050D01*
X119963472Y-71518419D01*
X119585519Y-71361479D01*
X119176277Y-71361122D01*
X118798050Y-71517402D01*
X118508419Y-71806528D01*
X118351479Y-72184481D01*
X118351122Y-72593723D01*
X107949822Y-72593723D01*
X107950330Y-72012735D01*
X107660922Y-71312314D01*
X107125505Y-70775961D01*
X106425590Y-70485332D01*
X105667735Y-70484670D01*
X104967314Y-70774078D01*
X104430961Y-71309495D01*
X104140332Y-72009410D01*
X104139670Y-72767265D01*
X102564000Y-72767265D01*
X102564000Y-68909000D01*
X151436000Y-68909000D01*
X151436000Y-80645000D01*
X151436000Y-80645000D01*
G37*
X151436000Y-80645000D02*
X151442322Y-80676782D01*
X151442322Y-80709185D01*
X151925687Y-83139224D01*
X151974812Y-83257823D01*
X153351319Y-85317911D01*
X153442089Y-85408681D01*
X155502177Y-86785189D01*
X155586039Y-86819925D01*
X155620775Y-86834313D01*
X158050815Y-87317678D01*
X158083218Y-87317678D01*
X158115000Y-87324000D01*
X160707000Y-87324000D01*
X160707000Y-115876000D01*
X158115000Y-115876000D01*
X158083218Y-115882322D01*
X158050815Y-115882322D01*
X155620775Y-116365687D01*
X155586039Y-116380075D01*
X155502177Y-116414811D01*
X153442091Y-117791317D01*
X153351319Y-117882089D01*
X151974812Y-119942177D01*
X151974812Y-119942178D01*
X151925687Y-120060776D01*
X151442322Y-122490815D01*
X151442322Y-122523218D01*
X151436000Y-122555000D01*
X151436000Y-134291000D01*
X102564000Y-134291000D01*
X102564000Y-131187265D01*
X104139670Y-131187265D01*
X104429078Y-131887686D01*
X104964495Y-132424039D01*
X105664410Y-132714668D01*
X106422265Y-132715330D01*
X107122686Y-132425922D01*
X107659039Y-131890505D01*
X107949668Y-131190590D01*
X107950330Y-130432735D01*
X107660922Y-129732314D01*
X107125505Y-129195961D01*
X106425590Y-128905332D01*
X105667735Y-128904670D01*
X104967314Y-129194078D01*
X104430961Y-129729495D01*
X104140332Y-130429410D01*
X104139670Y-131187265D01*
X102564000Y-131187265D01*
X102564000Y-128628042D01*
X113189400Y-128628042D01*
X113189400Y-130197958D01*
X113268139Y-130593806D01*
X113492369Y-130929389D01*
X113827952Y-131153619D01*
X114223800Y-131232358D01*
X114619648Y-131153619D01*
X114955231Y-130929389D01*
X115179461Y-130593806D01*
X115258200Y-130197958D01*
X115258200Y-128628042D01*
X115729400Y-128628042D01*
X115729400Y-130197958D01*
X115808139Y-130593806D01*
X116032369Y-130929389D01*
X116367952Y-131153619D01*
X116763800Y-131232358D01*
X117159648Y-131153619D01*
X117246254Y-131095750D01*
X121800000Y-131095750D01*
X121800000Y-131691310D01*
X121896673Y-131924699D01*
X122075302Y-132103327D01*
X122308691Y-132200000D01*
X122904250Y-132200000D01*
X123063000Y-132041250D01*
X123063000Y-130937000D01*
X123317000Y-130937000D01*
X123317000Y-132041250D01*
X123475750Y-132200000D01*
X124071309Y-132200000D01*
X124304698Y-132103327D01*
X124483327Y-131924699D01*
X124580000Y-131691310D01*
X124580000Y-131095750D01*
X124499102Y-131014852D01*
X124695421Y-131014852D01*
X124852567Y-131395175D01*
X125143294Y-131686410D01*
X125523342Y-131844220D01*
X125934852Y-131844579D01*
X126315175Y-131687433D01*
X126606410Y-131396706D01*
X126764220Y-131016658D01*
X126764221Y-131014852D01*
X127235421Y-131014852D01*
X127392567Y-131395175D01*
X127683294Y-131686410D01*
X128063342Y-131844220D01*
X128474852Y-131844579D01*
X128855175Y-131687433D01*
X129146410Y-131396706D01*
X129304220Y-131016658D01*
X129304221Y-131014852D01*
X129775421Y-131014852D01*
X129932567Y-131395175D01*
X130223294Y-131686410D01*
X130603342Y-131844220D01*
X131014852Y-131844579D01*
X131395175Y-131687433D01*
X131686410Y-131396706D01*
X131773377Y-131187265D01*
X146049670Y-131187265D01*
X146339078Y-131887686D01*
X146874495Y-132424039D01*
X147574410Y-132714668D01*
X148332265Y-132715330D01*
X149032686Y-132425922D01*
X149569039Y-131890505D01*
X149859668Y-131190590D01*
X149860330Y-130432735D01*
X149570922Y-129732314D01*
X149035505Y-129195961D01*
X148335590Y-128905332D01*
X147577735Y-128904670D01*
X146877314Y-129194078D01*
X146340961Y-129729495D01*
X146050332Y-130429410D01*
X146049670Y-131187265D01*
X131773377Y-131187265D01*
X131844220Y-131016658D01*
X131844579Y-130605148D01*
X131687433Y-130224825D01*
X131396706Y-129933590D01*
X131016658Y-129775780D01*
X130605148Y-129775421D01*
X130224825Y-129932567D01*
X129933590Y-130223294D01*
X129775780Y-130603342D01*
X129775421Y-131014852D01*
X129304221Y-131014852D01*
X129304579Y-130605148D01*
X129147433Y-130224825D01*
X128856706Y-129933590D01*
X128476658Y-129775780D01*
X128065148Y-129775421D01*
X127684825Y-129932567D01*
X127393590Y-130223294D01*
X127235780Y-130603342D01*
X127235421Y-131014852D01*
X126764221Y-131014852D01*
X126764579Y-130605148D01*
X126607433Y-130224825D01*
X126316706Y-129933590D01*
X125936658Y-129775780D01*
X125525148Y-129775421D01*
X125144825Y-129932567D01*
X124853590Y-130223294D01*
X124695780Y-130603342D01*
X124695421Y-131014852D01*
X124499102Y-131014852D01*
X124421250Y-130937000D01*
X123317000Y-130937000D01*
X123063000Y-130937000D01*
X121958750Y-130937000D01*
X121800000Y-131095750D01*
X117246254Y-131095750D01*
X117495231Y-130929389D01*
X117719461Y-130593806D01*
X117798200Y-130197958D01*
X117798200Y-129928690D01*
X121800000Y-129928690D01*
X121800000Y-130524250D01*
X121958750Y-130683000D01*
X123063000Y-130683000D01*
X123063000Y-129578750D01*
X123317000Y-129578750D01*
X123317000Y-130683000D01*
X124421250Y-130683000D01*
X124580000Y-130524250D01*
X124580000Y-129928690D01*
X124483327Y-129695301D01*
X124304698Y-129516673D01*
X124071309Y-129420000D01*
X123475750Y-129420000D01*
X123317000Y-129578750D01*
X123063000Y-129578750D01*
X122904250Y-129420000D01*
X122308691Y-129420000D01*
X122075302Y-129516673D01*
X121896673Y-129695301D01*
X121800000Y-129928690D01*
X117798200Y-129928690D01*
X117798200Y-128628042D01*
X117767729Y-128474852D01*
X122155421Y-128474852D01*
X122312567Y-128855175D01*
X122603294Y-129146410D01*
X122983342Y-129304220D01*
X123394852Y-129304579D01*
X123775175Y-129147433D01*
X124066410Y-128856706D01*
X124224220Y-128476658D01*
X124224221Y-128474852D01*
X124695421Y-128474852D01*
X124852567Y-128855175D01*
X125143294Y-129146410D01*
X125523342Y-129304220D01*
X125934852Y-129304579D01*
X126315175Y-129147433D01*
X126606410Y-128856706D01*
X126764220Y-128476658D01*
X126764221Y-128474852D01*
X127235421Y-128474852D01*
X127392567Y-128855175D01*
X127683294Y-129146410D01*
X128063342Y-129304220D01*
X128474852Y-129304579D01*
X128855175Y-129147433D01*
X129146410Y-128856706D01*
X129304220Y-128476658D01*
X129304221Y-128474852D01*
X129775421Y-128474852D01*
X129932567Y-128855175D01*
X130223294Y-129146410D01*
X130603342Y-129304220D01*
X131014852Y-129304579D01*
X131395175Y-129147433D01*
X131686410Y-128856706D01*
X131844220Y-128476658D01*
X131844579Y-128065148D01*
X131687433Y-127684825D01*
X131396706Y-127393590D01*
X131016658Y-127235780D01*
X130605148Y-127235421D01*
X130224825Y-127392567D01*
X129933590Y-127683294D01*
X129775780Y-128063342D01*
X129775421Y-128474852D01*
X129304221Y-128474852D01*
X129304579Y-128065148D01*
X129147433Y-127684825D01*
X128856706Y-127393590D01*
X128476658Y-127235780D01*
X128065148Y-127235421D01*
X127684825Y-127392567D01*
X127393590Y-127683294D01*
X127235780Y-128063342D01*
X127235421Y-128474852D01*
X126764221Y-128474852D01*
X126764579Y-128065148D01*
X126607433Y-127684825D01*
X126316706Y-127393590D01*
X125936658Y-127235780D01*
X125525148Y-127235421D01*
X125144825Y-127392567D01*
X124853590Y-127683294D01*
X124695780Y-128063342D01*
X124695421Y-128474852D01*
X124224221Y-128474852D01*
X124224579Y-128065148D01*
X124067433Y-127684825D01*
X123776706Y-127393590D01*
X123396658Y-127235780D01*
X122985148Y-127235421D01*
X122604825Y-127392567D01*
X122313590Y-127683294D01*
X122155780Y-128063342D01*
X122155421Y-128474852D01*
X117767729Y-128474852D01*
X117719461Y-128232194D01*
X117495231Y-127896611D01*
X117159648Y-127672381D01*
X116763800Y-127593642D01*
X116367952Y-127672381D01*
X116032369Y-127896611D01*
X115808139Y-128232194D01*
X115729400Y-128628042D01*
X115258200Y-128628042D01*
X115179461Y-128232194D01*
X114955231Y-127896611D01*
X114619648Y-127672381D01*
X114223800Y-127593642D01*
X113827952Y-127672381D01*
X113492369Y-127896611D01*
X113268139Y-128232194D01*
X113189400Y-128628042D01*
X102564000Y-128628042D01*
X102564000Y-122555000D01*
X102557678Y-122523218D01*
X102557678Y-122490815D01*
X102358802Y-121490997D01*
X111155451Y-121490997D01*
X111285860Y-121806609D01*
X111527121Y-122048292D01*
X111842505Y-122179251D01*
X112183997Y-122179549D01*
X112499609Y-122049140D01*
X112741292Y-121807879D01*
X112872251Y-121492495D01*
X112872549Y-121151003D01*
X112742140Y-120835391D01*
X112500879Y-120593708D01*
X112185495Y-120462749D01*
X111844003Y-120462451D01*
X111528391Y-120592860D01*
X111286708Y-120834121D01*
X111155749Y-121149505D01*
X111155451Y-121490997D01*
X102358802Y-121490997D01*
X102074313Y-120060775D01*
X102059925Y-120026039D01*
X102025189Y-119942177D01*
X101112667Y-118576492D01*
X107754114Y-118576492D01*
X107801034Y-118799752D01*
X108258062Y-118955879D01*
X108740047Y-118925225D01*
X109042966Y-118799752D01*
X109089886Y-118576492D01*
X108422000Y-117908605D01*
X107754114Y-118576492D01*
X101112667Y-118576492D01*
X100648681Y-117882089D01*
X100557911Y-117791319D01*
X100219294Y-117565062D01*
X107195121Y-117565062D01*
X107225775Y-118047047D01*
X107351248Y-118349966D01*
X107574508Y-118396886D01*
X108242395Y-117729000D01*
X108601605Y-117729000D01*
X109269492Y-118396886D01*
X109492752Y-118349966D01*
X109646809Y-117898997D01*
X111155451Y-117898997D01*
X111285860Y-118214609D01*
X111527121Y-118456292D01*
X111842505Y-118587251D01*
X112183997Y-118587549D01*
X112499609Y-118457140D01*
X112741292Y-118215879D01*
X112872251Y-117900495D01*
X112872549Y-117559003D01*
X112742140Y-117243391D01*
X112500879Y-117001708D01*
X112185495Y-116870749D01*
X111844003Y-116870451D01*
X111528391Y-117000860D01*
X111286708Y-117242121D01*
X111155749Y-117557505D01*
X111155451Y-117898997D01*
X109646809Y-117898997D01*
X109648879Y-117892938D01*
X109618225Y-117410953D01*
X109492752Y-117108034D01*
X109269492Y-117061114D01*
X108601605Y-117729000D01*
X108242395Y-117729000D01*
X107574508Y-117061114D01*
X107351248Y-117108034D01*
X107195121Y-117565062D01*
X100219294Y-117565062D01*
X99196284Y-116881508D01*
X107754114Y-116881508D01*
X108422000Y-117549395D01*
X109089886Y-116881508D01*
X109042966Y-116658248D01*
X108962542Y-116630774D01*
X128041316Y-116630774D01*
X128114633Y-116808214D01*
X128250272Y-116944090D01*
X128427584Y-117017716D01*
X128619574Y-117017884D01*
X128797014Y-116944567D01*
X128932890Y-116808928D01*
X129006516Y-116631616D01*
X129006684Y-116439626D01*
X128933367Y-116262186D01*
X128895621Y-116224374D01*
X129616116Y-116224374D01*
X129689433Y-116401814D01*
X129825072Y-116537690D01*
X130002384Y-116611316D01*
X130194374Y-116611484D01*
X130371814Y-116538167D01*
X130507690Y-116402528D01*
X130507836Y-116402174D01*
X133146716Y-116402174D01*
X133220033Y-116579614D01*
X133355672Y-116715490D01*
X133532984Y-116789116D01*
X133724974Y-116789284D01*
X133902414Y-116715967D01*
X134038290Y-116580328D01*
X134111916Y-116403016D01*
X134111983Y-116325974D01*
X142976516Y-116325974D01*
X143049833Y-116503414D01*
X143185472Y-116639290D01*
X143362784Y-116712916D01*
X143554774Y-116713084D01*
X143732214Y-116639767D01*
X143868090Y-116504128D01*
X143941716Y-116326816D01*
X143941884Y-116134826D01*
X143868567Y-115957386D01*
X143732928Y-115821510D01*
X143555616Y-115747884D01*
X143363626Y-115747716D01*
X143186186Y-115821033D01*
X143050310Y-115956672D01*
X142976684Y-116133984D01*
X142976516Y-116325974D01*
X134111983Y-116325974D01*
X134112084Y-116211026D01*
X134038767Y-116033586D01*
X133903128Y-115897710D01*
X133725816Y-115824084D01*
X133533826Y-115823916D01*
X133356386Y-115897233D01*
X133220510Y-116032872D01*
X133146884Y-116210184D01*
X133146716Y-116402174D01*
X130507836Y-116402174D01*
X130581316Y-116225216D01*
X130581484Y-116033226D01*
X130508167Y-115855786D01*
X130372528Y-115719910D01*
X130195216Y-115646284D01*
X130003226Y-115646116D01*
X129825786Y-115719433D01*
X129689910Y-115855072D01*
X129616284Y-116032384D01*
X129616116Y-116224374D01*
X128895621Y-116224374D01*
X128797728Y-116126310D01*
X128620416Y-116052684D01*
X128428426Y-116052516D01*
X128250986Y-116125833D01*
X128115110Y-116261472D01*
X128041484Y-116438784D01*
X128041316Y-116630774D01*
X108962542Y-116630774D01*
X108585938Y-116502121D01*
X108103953Y-116532775D01*
X107801034Y-116658248D01*
X107754114Y-116881508D01*
X99196284Y-116881508D01*
X98497823Y-116414812D01*
X98379224Y-116365687D01*
X95949185Y-115882322D01*
X95916782Y-115882322D01*
X95885000Y-115876000D01*
X93293000Y-115876000D01*
X93293000Y-115462374D01*
X144195716Y-115462374D01*
X144269033Y-115639814D01*
X144404672Y-115775690D01*
X144581984Y-115849316D01*
X144773974Y-115849484D01*
X144951414Y-115776167D01*
X145087290Y-115640528D01*
X145160916Y-115463216D01*
X145160938Y-115436974D01*
X148158116Y-115436974D01*
X148231433Y-115614414D01*
X148367072Y-115750290D01*
X148544384Y-115823916D01*
X148736374Y-115824084D01*
X148913814Y-115750767D01*
X149049690Y-115615128D01*
X149123316Y-115437816D01*
X149123484Y-115245826D01*
X149050167Y-115068386D01*
X148914528Y-114932510D01*
X148737216Y-114858884D01*
X148545226Y-114858716D01*
X148367786Y-114932033D01*
X148231910Y-115067672D01*
X148158284Y-115244984D01*
X148158116Y-115436974D01*
X145160938Y-115436974D01*
X145161084Y-115271226D01*
X145087767Y-115093786D01*
X144952128Y-114957910D01*
X144774816Y-114884284D01*
X144582826Y-114884116D01*
X144405386Y-114957433D01*
X144269510Y-115093072D01*
X144195884Y-115270384D01*
X144195716Y-115462374D01*
X93293000Y-115462374D01*
X93293000Y-111855574D01*
X117500316Y-111855574D01*
X117573633Y-112033014D01*
X117709272Y-112168890D01*
X117886584Y-112242516D01*
X118078574Y-112242684D01*
X118256014Y-112169367D01*
X118391890Y-112033728D01*
X118465516Y-111856416D01*
X118465516Y-111855574D01*
X120167316Y-111855574D01*
X120240633Y-112033014D01*
X120376272Y-112168890D01*
X120553584Y-112242516D01*
X120745574Y-112242684D01*
X120923014Y-112169367D01*
X121058890Y-112033728D01*
X121132516Y-111856416D01*
X121132684Y-111664426D01*
X121059367Y-111486986D01*
X120923728Y-111351110D01*
X120746416Y-111277484D01*
X120554426Y-111277316D01*
X120376986Y-111350633D01*
X120241110Y-111486272D01*
X120167484Y-111663584D01*
X120167316Y-111855574D01*
X118465516Y-111855574D01*
X118465684Y-111664426D01*
X118392367Y-111486986D01*
X118256728Y-111351110D01*
X118079416Y-111277484D01*
X117887426Y-111277316D01*
X117709986Y-111350633D01*
X117574110Y-111486272D01*
X117500484Y-111663584D01*
X117500316Y-111855574D01*
X93293000Y-111855574D01*
X93293000Y-109213974D01*
X111556716Y-109213974D01*
X111630033Y-109391414D01*
X111765672Y-109527290D01*
X111942984Y-109600916D01*
X112134974Y-109601084D01*
X112312414Y-109527767D01*
X112448290Y-109392128D01*
X112521916Y-109214816D01*
X112522084Y-109022826D01*
X112448767Y-108845386D01*
X112360310Y-108756774D01*
X129616116Y-108756774D01*
X129689433Y-108934214D01*
X129825072Y-109070090D01*
X130002384Y-109143716D01*
X130194374Y-109143884D01*
X130371814Y-109070567D01*
X130507690Y-108934928D01*
X130581316Y-108757616D01*
X130581484Y-108565626D01*
X130508167Y-108388186D01*
X130372528Y-108252310D01*
X130195216Y-108178684D01*
X130003226Y-108178516D01*
X129825786Y-108251833D01*
X129689910Y-108387472D01*
X129616284Y-108564784D01*
X129616116Y-108756774D01*
X112360310Y-108756774D01*
X112313128Y-108709510D01*
X112135816Y-108635884D01*
X111943826Y-108635716D01*
X111766386Y-108709033D01*
X111630510Y-108844672D01*
X111556884Y-109021984D01*
X111556716Y-109213974D01*
X93293000Y-109213974D01*
X93293000Y-107689974D01*
X117500316Y-107689974D01*
X117573633Y-107867414D01*
X117709272Y-108003290D01*
X117886584Y-108076916D01*
X118078574Y-108077084D01*
X118256014Y-108003767D01*
X118391890Y-107868128D01*
X118465516Y-107690816D01*
X118465516Y-107689974D01*
X120167316Y-107689974D01*
X120240633Y-107867414D01*
X120376272Y-108003290D01*
X120553584Y-108076916D01*
X120745574Y-108077084D01*
X120923014Y-108003767D01*
X121058890Y-107868128D01*
X121122318Y-107715374D01*
X122961316Y-107715374D01*
X123034633Y-107892814D01*
X123170272Y-108028690D01*
X123347584Y-108102316D01*
X123539574Y-108102484D01*
X123717014Y-108029167D01*
X123852890Y-107893528D01*
X123926516Y-107716216D01*
X123926684Y-107524226D01*
X123853367Y-107346786D01*
X123717728Y-107210910D01*
X123540416Y-107137284D01*
X123348426Y-107137116D01*
X123170986Y-107210433D01*
X123035110Y-107346072D01*
X122961484Y-107523384D01*
X122961316Y-107715374D01*
X121122318Y-107715374D01*
X121132516Y-107690816D01*
X121132684Y-107498826D01*
X121059367Y-107321386D01*
X120923728Y-107185510D01*
X120746416Y-107111884D01*
X120554426Y-107111716D01*
X120376986Y-107185033D01*
X120241110Y-107320672D01*
X120167484Y-107497984D01*
X120167316Y-107689974D01*
X118465516Y-107689974D01*
X118465684Y-107498826D01*
X118392367Y-107321386D01*
X118256728Y-107185510D01*
X118079416Y-107111884D01*
X117887426Y-107111716D01*
X117709986Y-107185033D01*
X117574110Y-107320672D01*
X117500484Y-107497984D01*
X117500316Y-107689974D01*
X93293000Y-107689974D01*
X93293000Y-107061000D01*
X145193303Y-107061000D01*
X145271898Y-107456124D01*
X145495718Y-107791095D01*
X145830689Y-108014915D01*
X146225813Y-108093510D01*
X147804587Y-108093510D01*
X148199711Y-108014915D01*
X148534682Y-107791095D01*
X148758502Y-107456124D01*
X148837097Y-107061000D01*
X148758502Y-106665876D01*
X148534682Y-106330905D01*
X148199711Y-106107085D01*
X147804587Y-106028490D01*
X146225813Y-106028490D01*
X145830689Y-106107085D01*
X145495718Y-106330905D01*
X145271898Y-106665876D01*
X145193303Y-107061000D01*
X93293000Y-107061000D01*
X93293000Y-104804574D01*
X124932316Y-104804574D01*
X125005633Y-104982014D01*
X125141272Y-105117890D01*
X125318584Y-105191516D01*
X125510574Y-105191684D01*
X125688014Y-105118367D01*
X125823890Y-104982728D01*
X125897516Y-104805416D01*
X125897684Y-104613426D01*
X125859495Y-104521000D01*
X145193303Y-104521000D01*
X145271898Y-104916124D01*
X145495718Y-105251095D01*
X145830689Y-105474915D01*
X146225813Y-105553510D01*
X147804587Y-105553510D01*
X148199711Y-105474915D01*
X148534682Y-105251095D01*
X148758502Y-104916124D01*
X148837097Y-104521000D01*
X148758502Y-104125876D01*
X148534682Y-103790905D01*
X148199711Y-103567085D01*
X147804587Y-103488490D01*
X146225813Y-103488490D01*
X145830689Y-103567085D01*
X145495718Y-103790905D01*
X145271898Y-104125876D01*
X145193303Y-104521000D01*
X125859495Y-104521000D01*
X125824367Y-104435986D01*
X125688728Y-104300110D01*
X125511416Y-104226484D01*
X125319426Y-104226316D01*
X125141986Y-104299633D01*
X125006110Y-104435272D01*
X124932484Y-104612584D01*
X124932316Y-104804574D01*
X93293000Y-104804574D01*
X93293000Y-103371974D01*
X126644316Y-103371974D01*
X126717633Y-103549414D01*
X126853272Y-103685290D01*
X127030584Y-103758916D01*
X127222574Y-103759084D01*
X127400014Y-103685767D01*
X127535890Y-103550128D01*
X127609516Y-103372816D01*
X127609652Y-103217144D01*
X127690984Y-103250916D01*
X127882974Y-103251084D01*
X128060414Y-103177767D01*
X128196290Y-103042128D01*
X128269916Y-102864816D01*
X128270084Y-102672826D01*
X128196767Y-102495386D01*
X128061128Y-102359510D01*
X127883816Y-102285884D01*
X127691826Y-102285716D01*
X127514386Y-102359033D01*
X127378510Y-102494672D01*
X127304884Y-102671984D01*
X127304748Y-102827656D01*
X127223416Y-102793884D01*
X127031426Y-102793716D01*
X126853986Y-102867033D01*
X126718110Y-103002672D01*
X126644484Y-103179984D01*
X126644316Y-103371974D01*
X93293000Y-103371974D01*
X93293000Y-102609974D01*
X107035516Y-102609974D01*
X107108833Y-102787414D01*
X107244472Y-102923290D01*
X107421784Y-102996916D01*
X107613774Y-102997084D01*
X107791214Y-102923767D01*
X107927090Y-102788128D01*
X108000716Y-102610816D01*
X108000884Y-102418826D01*
X107927567Y-102241386D01*
X107791928Y-102105510D01*
X107614616Y-102031884D01*
X107422626Y-102031716D01*
X107245186Y-102105033D01*
X107109310Y-102240672D01*
X107035684Y-102417984D01*
X107035516Y-102609974D01*
X93293000Y-102609974D01*
X93293000Y-101898774D01*
X125171116Y-101898774D01*
X125244433Y-102076214D01*
X125380072Y-102212090D01*
X125557384Y-102285716D01*
X125749374Y-102285884D01*
X125926814Y-102212567D01*
X126062690Y-102076928D01*
X126102522Y-101981000D01*
X145193303Y-101981000D01*
X145271898Y-102376124D01*
X145495718Y-102711095D01*
X145830689Y-102934915D01*
X146225813Y-103013510D01*
X147804587Y-103013510D01*
X148199711Y-102934915D01*
X148534682Y-102711095D01*
X148758502Y-102376124D01*
X148837097Y-101981000D01*
X148758502Y-101585876D01*
X148534682Y-101250905D01*
X148199711Y-101027085D01*
X147804587Y-100948490D01*
X146225813Y-100948490D01*
X145830689Y-101027085D01*
X145495718Y-101250905D01*
X145271898Y-101585876D01*
X145193303Y-101981000D01*
X126102522Y-101981000D01*
X126136316Y-101899616D01*
X126136484Y-101707626D01*
X126063167Y-101530186D01*
X125927528Y-101394310D01*
X125750216Y-101320684D01*
X125558226Y-101320516D01*
X125380786Y-101393833D01*
X125244910Y-101529472D01*
X125171284Y-101706784D01*
X125171116Y-101898774D01*
X93293000Y-101898774D01*
X93293000Y-101314574D01*
X116230316Y-101314574D01*
X116303633Y-101492014D01*
X116439272Y-101627890D01*
X116616584Y-101701516D01*
X116808574Y-101701684D01*
X116986014Y-101628367D01*
X117121890Y-101492728D01*
X117195516Y-101315416D01*
X117195684Y-101123426D01*
X117122367Y-100945986D01*
X116986728Y-100810110D01*
X116809416Y-100736484D01*
X116617426Y-100736316D01*
X116439986Y-100809633D01*
X116304110Y-100945272D01*
X116230484Y-101122584D01*
X116230316Y-101314574D01*
X93293000Y-101314574D01*
X93293000Y-99663574D01*
X101828516Y-99663574D01*
X101901833Y-99841014D01*
X102037472Y-99976890D01*
X102214784Y-100050516D01*
X102406774Y-100050684D01*
X102584214Y-99977367D01*
X102720090Y-99841728D01*
X102793716Y-99664416D01*
X102793884Y-99472426D01*
X102720567Y-99294986D01*
X102584928Y-99159110D01*
X102407616Y-99085484D01*
X102215626Y-99085316D01*
X102038186Y-99158633D01*
X101902310Y-99294272D01*
X101828684Y-99471584D01*
X101828516Y-99663574D01*
X93293000Y-99663574D01*
X93293000Y-95311894D01*
X99142296Y-95311894D01*
X99365140Y-95851218D01*
X99777412Y-96264210D01*
X100316345Y-96487995D01*
X100888872Y-96488494D01*
X100888716Y-96666374D01*
X100917508Y-96736056D01*
X100902455Y-96729805D01*
X100318906Y-96729296D01*
X99779582Y-96952140D01*
X99366590Y-97364412D01*
X99142805Y-97903345D01*
X99142296Y-98486894D01*
X99365140Y-99026218D01*
X99777412Y-99439210D01*
X100316345Y-99662995D01*
X100899894Y-99663504D01*
X101439218Y-99440660D01*
X101852210Y-99028388D01*
X102075995Y-98489455D01*
X102076114Y-98352336D01*
X102361864Y-98352336D01*
X102481486Y-98641844D01*
X102702791Y-98863536D01*
X102992089Y-98983663D01*
X103305336Y-98983936D01*
X103594844Y-98864314D01*
X103816536Y-98643009D01*
X103881360Y-98486894D01*
X104222296Y-98486894D01*
X104445140Y-99026218D01*
X104857412Y-99439210D01*
X105396345Y-99662995D01*
X105979894Y-99663504D01*
X106519218Y-99440660D01*
X106524913Y-99434974D01*
X123596316Y-99434974D01*
X123669633Y-99612414D01*
X123805272Y-99748290D01*
X123982584Y-99821916D01*
X124174574Y-99822084D01*
X124352014Y-99748767D01*
X124487890Y-99613128D01*
X124559363Y-99441000D01*
X145193303Y-99441000D01*
X145271898Y-99836124D01*
X145495718Y-100171095D01*
X145830689Y-100394915D01*
X146225813Y-100473510D01*
X147804587Y-100473510D01*
X148199711Y-100394915D01*
X148534682Y-100171095D01*
X148758502Y-99836124D01*
X148837097Y-99441000D01*
X148758502Y-99045876D01*
X148534682Y-98710905D01*
X148199711Y-98487085D01*
X147804587Y-98408490D01*
X146225813Y-98408490D01*
X145830689Y-98487085D01*
X145495718Y-98710905D01*
X145271898Y-99045876D01*
X145193303Y-99441000D01*
X124559363Y-99441000D01*
X124561516Y-99435816D01*
X124561684Y-99243826D01*
X124488367Y-99066386D01*
X124352728Y-98930510D01*
X124175416Y-98856884D01*
X123983426Y-98856716D01*
X123805986Y-98930033D01*
X123670110Y-99065672D01*
X123596484Y-99242984D01*
X123596316Y-99434974D01*
X106524913Y-99434974D01*
X106932210Y-99028388D01*
X107090338Y-98647574D01*
X117678116Y-98647574D01*
X117751433Y-98825014D01*
X117887072Y-98960890D01*
X118064384Y-99034516D01*
X118256374Y-99034684D01*
X118433814Y-98961367D01*
X118569690Y-98825728D01*
X118643316Y-98648416D01*
X118643484Y-98456426D01*
X118570167Y-98278986D01*
X118434528Y-98143110D01*
X118257216Y-98069484D01*
X118065226Y-98069316D01*
X117887786Y-98142633D01*
X117751910Y-98278272D01*
X117678284Y-98455584D01*
X117678116Y-98647574D01*
X107090338Y-98647574D01*
X107155995Y-98489455D01*
X107156504Y-97905906D01*
X106933660Y-97366582D01*
X106521388Y-96953590D01*
X105982455Y-96729805D01*
X105398906Y-96729296D01*
X104859582Y-96952140D01*
X104446590Y-97364412D01*
X104222805Y-97903345D01*
X104222296Y-98486894D01*
X103881360Y-98486894D01*
X103936663Y-98353711D01*
X103936936Y-98040464D01*
X103817314Y-97750956D01*
X103596009Y-97529264D01*
X103306711Y-97409137D01*
X102993464Y-97408864D01*
X102703956Y-97528486D01*
X102482264Y-97749791D01*
X102362137Y-98039089D01*
X102361864Y-98352336D01*
X102076114Y-98352336D01*
X102076504Y-97905906D01*
X101853660Y-97366582D01*
X101519459Y-97031797D01*
X101644414Y-96980167D01*
X101780290Y-96844528D01*
X101853916Y-96667216D01*
X101854084Y-96475226D01*
X101780767Y-96297786D01*
X101645128Y-96161910D01*
X101573107Y-96132004D01*
X101852210Y-95853388D01*
X102075995Y-95314455D01*
X102075997Y-95311894D01*
X104222296Y-95311894D01*
X104445140Y-95851218D01*
X104857412Y-96264210D01*
X105396345Y-96487995D01*
X105979894Y-96488504D01*
X106519218Y-96265660D01*
X106601247Y-96183774D01*
X117805116Y-96183774D01*
X117878433Y-96361214D01*
X118014072Y-96497090D01*
X118191384Y-96570716D01*
X118211600Y-96570734D01*
X118211516Y-96666374D01*
X118284833Y-96843814D01*
X118420472Y-96979690D01*
X118597784Y-97053316D01*
X118789774Y-97053484D01*
X118967214Y-96980167D01*
X119103090Y-96844528D01*
X119176716Y-96667216D01*
X119176722Y-96660174D01*
X127976116Y-96660174D01*
X128049433Y-96837614D01*
X128185072Y-96973490D01*
X128362384Y-97047116D01*
X128554374Y-97047284D01*
X128731814Y-96973967D01*
X128804908Y-96901000D01*
X145193303Y-96901000D01*
X145271898Y-97296124D01*
X145495718Y-97631095D01*
X145830689Y-97854915D01*
X146225813Y-97933510D01*
X147804587Y-97933510D01*
X148199711Y-97854915D01*
X148534682Y-97631095D01*
X148758502Y-97296124D01*
X148837097Y-96901000D01*
X148758502Y-96505876D01*
X148534682Y-96170905D01*
X148199711Y-95947085D01*
X147804587Y-95868490D01*
X146225813Y-95868490D01*
X145830689Y-95947085D01*
X145495718Y-96170905D01*
X145271898Y-96505876D01*
X145193303Y-96901000D01*
X128804908Y-96901000D01*
X128867690Y-96838328D01*
X128941316Y-96661016D01*
X128941484Y-96469026D01*
X128868167Y-96291586D01*
X128732528Y-96155710D01*
X128555216Y-96082084D01*
X128363226Y-96081916D01*
X128185786Y-96155233D01*
X128049910Y-96290872D01*
X127976284Y-96468184D01*
X127976116Y-96660174D01*
X119176722Y-96660174D01*
X119176884Y-96475226D01*
X119103567Y-96297786D01*
X118967928Y-96161910D01*
X118790616Y-96088284D01*
X118770400Y-96088266D01*
X118770447Y-96034975D01*
X118941814Y-95964167D01*
X119077690Y-95828528D01*
X119141118Y-95675774D01*
X137921916Y-95675774D01*
X137995233Y-95853214D01*
X138130872Y-95989090D01*
X138308184Y-96062716D01*
X138500174Y-96062884D01*
X138677614Y-95989567D01*
X138813490Y-95853928D01*
X138887116Y-95676616D01*
X138887284Y-95484626D01*
X138813967Y-95307186D01*
X138678328Y-95171310D01*
X138501016Y-95097684D01*
X138309026Y-95097516D01*
X138131586Y-95170833D01*
X137995710Y-95306472D01*
X137922084Y-95483784D01*
X137921916Y-95675774D01*
X119141118Y-95675774D01*
X119151316Y-95651216D01*
X119151484Y-95459226D01*
X119078167Y-95281786D01*
X118942528Y-95145910D01*
X118765216Y-95072284D01*
X118573226Y-95072116D01*
X118395786Y-95145433D01*
X118259910Y-95281072D01*
X118186284Y-95458384D01*
X118186153Y-95608025D01*
X118014786Y-95678833D01*
X117878910Y-95814472D01*
X117805284Y-95991784D01*
X117805116Y-96183774D01*
X106601247Y-96183774D01*
X106932210Y-95853388D01*
X107155995Y-95314455D01*
X107156504Y-94730906D01*
X107127279Y-94660174D01*
X128046516Y-94660174D01*
X128119833Y-94837614D01*
X128255472Y-94973490D01*
X128432784Y-95047116D01*
X128624774Y-95047284D01*
X128802214Y-94973967D01*
X128938090Y-94838328D01*
X129011716Y-94661016D01*
X129011884Y-94469026D01*
X128967249Y-94361000D01*
X145193303Y-94361000D01*
X145271898Y-94756124D01*
X145495718Y-95091095D01*
X145830689Y-95314915D01*
X146225813Y-95393510D01*
X147804587Y-95393510D01*
X148199711Y-95314915D01*
X148534682Y-95091095D01*
X148758502Y-94756124D01*
X148837097Y-94361000D01*
X148758502Y-93965876D01*
X148534682Y-93630905D01*
X148199711Y-93407085D01*
X147804587Y-93328490D01*
X146225813Y-93328490D01*
X145830689Y-93407085D01*
X145495718Y-93630905D01*
X145271898Y-93965876D01*
X145193303Y-94361000D01*
X128967249Y-94361000D01*
X128938567Y-94291586D01*
X128802928Y-94155710D01*
X128625616Y-94082084D01*
X128433626Y-94081916D01*
X128256186Y-94155233D01*
X128120310Y-94290872D01*
X128046684Y-94468184D01*
X128046516Y-94660174D01*
X107127279Y-94660174D01*
X106933660Y-94191582D01*
X106521388Y-93778590D01*
X105982455Y-93554805D01*
X105398906Y-93554296D01*
X104859582Y-93777140D01*
X104446590Y-94189412D01*
X104222805Y-94728345D01*
X104222296Y-95311894D01*
X102075997Y-95311894D01*
X102076504Y-94730906D01*
X101853660Y-94191582D01*
X101441388Y-93778590D01*
X100902455Y-93554805D01*
X100318906Y-93554296D01*
X99779582Y-93777140D01*
X99366590Y-94189412D01*
X99142805Y-94728345D01*
X99142296Y-95311894D01*
X93293000Y-95311894D01*
X93293000Y-93272336D01*
X101345864Y-93272336D01*
X101465486Y-93561844D01*
X101686791Y-93783536D01*
X101976089Y-93903663D01*
X102289336Y-93903936D01*
X102578844Y-93784314D01*
X102800536Y-93563009D01*
X102920663Y-93273711D01*
X102920664Y-93272336D01*
X103377864Y-93272336D01*
X103497486Y-93561844D01*
X103718791Y-93783536D01*
X104008089Y-93903663D01*
X104321336Y-93903936D01*
X104610844Y-93784314D01*
X104832536Y-93563009D01*
X104952663Y-93273711D01*
X104952761Y-93160174D01*
X137997116Y-93160174D01*
X138070433Y-93337614D01*
X138206072Y-93473490D01*
X138383384Y-93547116D01*
X138575374Y-93547284D01*
X138752814Y-93473967D01*
X138888690Y-93338328D01*
X138962316Y-93161016D01*
X138962484Y-92969026D01*
X138889167Y-92791586D01*
X138753528Y-92655710D01*
X138576216Y-92582084D01*
X138384226Y-92581916D01*
X138206786Y-92655233D01*
X138070910Y-92790872D01*
X137997284Y-92968184D01*
X137997116Y-93160174D01*
X104952761Y-93160174D01*
X104952936Y-92960464D01*
X104833314Y-92670956D01*
X104815564Y-92653174D01*
X132003716Y-92653174D01*
X132077033Y-92830614D01*
X132212672Y-92966490D01*
X132389984Y-93040116D01*
X132581974Y-93040284D01*
X132759414Y-92966967D01*
X132895290Y-92831328D01*
X132968916Y-92654016D01*
X132969084Y-92462026D01*
X132895767Y-92284586D01*
X132760128Y-92148710D01*
X132582816Y-92075084D01*
X132390826Y-92074916D01*
X132213386Y-92148233D01*
X132077510Y-92283872D01*
X132003884Y-92461184D01*
X132003716Y-92653174D01*
X104815564Y-92653174D01*
X104612009Y-92449264D01*
X104322711Y-92329137D01*
X104009464Y-92328864D01*
X103719956Y-92448486D01*
X103498264Y-92669791D01*
X103378137Y-92959089D01*
X103377864Y-93272336D01*
X102920664Y-93272336D01*
X102920936Y-92960464D01*
X102801314Y-92670956D01*
X102580009Y-92449264D01*
X102290711Y-92329137D01*
X101977464Y-92328864D01*
X101687956Y-92448486D01*
X101466264Y-92669791D01*
X101346137Y-92959089D01*
X101345864Y-93272336D01*
X93293000Y-93272336D01*
X93293000Y-92018174D01*
X110820116Y-92018174D01*
X110893433Y-92195614D01*
X111029072Y-92331490D01*
X111206384Y-92405116D01*
X111398374Y-92405284D01*
X111575814Y-92331967D01*
X111711690Y-92196328D01*
X111732930Y-92145174D01*
X128422316Y-92145174D01*
X128495633Y-92322614D01*
X128631272Y-92458490D01*
X128808584Y-92532116D01*
X129000574Y-92532284D01*
X129178014Y-92458967D01*
X129313890Y-92323328D01*
X129387516Y-92146016D01*
X129387684Y-91954026D01*
X129314367Y-91776586D01*
X129178728Y-91640710D01*
X129001416Y-91567084D01*
X128809426Y-91566916D01*
X128631986Y-91640233D01*
X128496110Y-91775872D01*
X128422484Y-91953184D01*
X128422316Y-92145174D01*
X111732930Y-92145174D01*
X111785316Y-92019016D01*
X111785484Y-91827026D01*
X111712167Y-91649586D01*
X111576528Y-91513710D01*
X111399216Y-91440084D01*
X111207226Y-91439916D01*
X111029786Y-91513233D01*
X110893910Y-91648872D01*
X110820284Y-91826184D01*
X110820116Y-92018174D01*
X93293000Y-92018174D01*
X93293000Y-90519574D01*
X121335716Y-90519574D01*
X121409033Y-90697014D01*
X121544672Y-90832890D01*
X121721984Y-90906516D01*
X121913974Y-90906684D01*
X122091414Y-90833367D01*
X122227290Y-90697728D01*
X122300916Y-90520416D01*
X122300916Y-90519574D01*
X123850316Y-90519574D01*
X123923633Y-90697014D01*
X124059272Y-90832890D01*
X124236584Y-90906516D01*
X124428574Y-90906684D01*
X124606014Y-90833367D01*
X124741890Y-90697728D01*
X124770278Y-90629362D01*
X124846672Y-90705890D01*
X125023984Y-90779516D01*
X125215974Y-90779684D01*
X125338314Y-90729134D01*
X125346033Y-90747814D01*
X125481672Y-90883690D01*
X125658984Y-90957316D01*
X125850974Y-90957484D01*
X126028414Y-90884167D01*
X126164290Y-90748528D01*
X126168334Y-90738790D01*
X126235033Y-90900214D01*
X126370672Y-91036090D01*
X126547984Y-91109716D01*
X126739974Y-91109884D01*
X126917414Y-91036567D01*
X127053290Y-90900928D01*
X127126916Y-90723616D01*
X127127084Y-90531626D01*
X127053767Y-90354186D01*
X126918128Y-90218310D01*
X126740816Y-90144684D01*
X126548826Y-90144516D01*
X126371386Y-90217833D01*
X126235510Y-90353472D01*
X126231466Y-90363210D01*
X126164767Y-90201786D01*
X126029128Y-90065910D01*
X125851816Y-89992284D01*
X125659826Y-89992116D01*
X125537486Y-90042666D01*
X125529767Y-90023986D01*
X125394128Y-89888110D01*
X125216816Y-89814484D01*
X125024826Y-89814316D01*
X124847386Y-89887633D01*
X124711510Y-90023272D01*
X124683122Y-90091638D01*
X124606728Y-90015110D01*
X124429416Y-89941484D01*
X124237426Y-89941316D01*
X124059986Y-90014633D01*
X123924110Y-90150272D01*
X123850484Y-90327584D01*
X123850316Y-90519574D01*
X122300916Y-90519574D01*
X122301084Y-90328426D01*
X122227767Y-90150986D01*
X122092128Y-90015110D01*
X121914816Y-89941484D01*
X121722826Y-89941316D01*
X121545386Y-90014633D01*
X121409510Y-90150272D01*
X121335884Y-90327584D01*
X121335716Y-90519574D01*
X93293000Y-90519574D01*
X93293000Y-89808374D01*
X136474116Y-89808374D01*
X136547433Y-89985814D01*
X136683072Y-90121690D01*
X136860384Y-90195316D01*
X137052374Y-90195484D01*
X137229814Y-90122167D01*
X137365690Y-89986528D01*
X137439316Y-89809216D01*
X137439484Y-89617226D01*
X137366167Y-89439786D01*
X137303066Y-89376574D01*
X138429916Y-89376574D01*
X138503233Y-89554014D01*
X138638872Y-89689890D01*
X138816184Y-89763516D01*
X139008174Y-89763684D01*
X139185614Y-89690367D01*
X139321490Y-89554728D01*
X139395116Y-89377416D01*
X139395138Y-89351174D01*
X139445916Y-89351174D01*
X139519233Y-89528614D01*
X139654872Y-89664490D01*
X139832184Y-89738116D01*
X140002703Y-89738265D01*
X139979484Y-89794184D01*
X139979316Y-89986174D01*
X140052633Y-90163614D01*
X140188272Y-90299490D01*
X140365584Y-90373116D01*
X140557574Y-90373284D01*
X140735014Y-90299967D01*
X140853714Y-90181474D01*
X144915417Y-90181474D01*
X144929773Y-90253675D01*
X145189476Y-90731540D01*
X145612281Y-91073646D01*
X146133820Y-91227910D01*
X146888200Y-91227910D01*
X146888200Y-89966800D01*
X147142200Y-89966800D01*
X147142200Y-91227910D01*
X147896580Y-91227910D01*
X148418119Y-91073646D01*
X148840924Y-90731540D01*
X149100627Y-90253675D01*
X149114983Y-90181474D01*
X148992362Y-89966800D01*
X147142200Y-89966800D01*
X146888200Y-89966800D01*
X145038038Y-89966800D01*
X144915417Y-90181474D01*
X140853714Y-90181474D01*
X140870890Y-90164328D01*
X140944516Y-89987016D01*
X140944684Y-89795026D01*
X140871367Y-89617586D01*
X140752116Y-89498126D01*
X144915417Y-89498126D01*
X145038038Y-89712800D01*
X146888200Y-89712800D01*
X146888200Y-88451690D01*
X147142200Y-88451690D01*
X147142200Y-89712800D01*
X148992362Y-89712800D01*
X149114983Y-89498126D01*
X149100627Y-89425925D01*
X148840924Y-88948060D01*
X148418119Y-88605954D01*
X147896580Y-88451690D01*
X147142200Y-88451690D01*
X146888200Y-88451690D01*
X146133820Y-88451690D01*
X145612281Y-88605954D01*
X145189476Y-88948060D01*
X144929773Y-89425925D01*
X144915417Y-89498126D01*
X140752116Y-89498126D01*
X140735728Y-89481710D01*
X140558416Y-89408084D01*
X140387897Y-89407935D01*
X140411116Y-89352016D01*
X140411284Y-89160026D01*
X140337967Y-88982586D01*
X140202328Y-88846710D01*
X140025016Y-88773084D01*
X139833026Y-88772916D01*
X139655586Y-88846233D01*
X139519710Y-88981872D01*
X139446084Y-89159184D01*
X139445916Y-89351174D01*
X139395138Y-89351174D01*
X139395284Y-89185426D01*
X139321967Y-89007986D01*
X139186328Y-88872110D01*
X139009016Y-88798484D01*
X138817026Y-88798316D01*
X138639586Y-88871633D01*
X138503710Y-89007272D01*
X138430084Y-89184584D01*
X138429916Y-89376574D01*
X137303066Y-89376574D01*
X137230528Y-89303910D01*
X137053216Y-89230284D01*
X136861226Y-89230116D01*
X136683786Y-89303433D01*
X136547910Y-89439072D01*
X136474284Y-89616384D01*
X136474116Y-89808374D01*
X93293000Y-89808374D01*
X93293000Y-89325774D01*
X118846516Y-89325774D01*
X118919833Y-89503214D01*
X119055472Y-89639090D01*
X119232784Y-89712716D01*
X119424774Y-89712884D01*
X119602214Y-89639567D01*
X119738090Y-89503928D01*
X119811716Y-89326616D01*
X119811805Y-89224174D01*
X130278151Y-89224174D01*
X130351468Y-89401614D01*
X130487107Y-89537490D01*
X130664419Y-89611116D01*
X130856409Y-89611284D01*
X131033849Y-89537967D01*
X131169725Y-89402328D01*
X131243351Y-89225016D01*
X131243519Y-89033026D01*
X131170202Y-88855586D01*
X131034563Y-88719710D01*
X130857251Y-88646084D01*
X130665261Y-88645916D01*
X130487821Y-88719233D01*
X130351945Y-88854872D01*
X130278319Y-89032184D01*
X130278151Y-89224174D01*
X119811805Y-89224174D01*
X119811884Y-89134626D01*
X119738567Y-88957186D01*
X119602928Y-88821310D01*
X119425616Y-88747684D01*
X119233626Y-88747516D01*
X119056186Y-88820833D01*
X118920310Y-88956472D01*
X118846684Y-89133784D01*
X118846516Y-89325774D01*
X93293000Y-89325774D01*
X93293000Y-88084839D01*
X130278151Y-88084839D01*
X130351468Y-88262279D01*
X130487107Y-88398155D01*
X130664419Y-88471781D01*
X130856409Y-88471949D01*
X131033849Y-88398632D01*
X131169725Y-88262993D01*
X131243351Y-88085681D01*
X131243519Y-87893691D01*
X131170202Y-87716251D01*
X131056389Y-87602239D01*
X136475751Y-87602239D01*
X136549068Y-87779679D01*
X136684707Y-87915555D01*
X136862019Y-87989181D01*
X137054009Y-87989349D01*
X137231449Y-87916032D01*
X137367325Y-87780393D01*
X137421728Y-87649374D01*
X141935116Y-87649374D01*
X142008433Y-87826814D01*
X142144072Y-87962690D01*
X142321384Y-88036316D01*
X142513374Y-88036484D01*
X142690814Y-87963167D01*
X142826690Y-87827528D01*
X142900316Y-87650216D01*
X142900484Y-87458226D01*
X142835024Y-87299800D01*
X145193303Y-87299800D01*
X145271898Y-87694924D01*
X145495718Y-88029895D01*
X145830689Y-88253715D01*
X146225813Y-88332310D01*
X147804587Y-88332310D01*
X148199711Y-88253715D01*
X148534682Y-88029895D01*
X148758502Y-87694924D01*
X148837097Y-87299800D01*
X148758502Y-86904676D01*
X148534682Y-86569705D01*
X148199711Y-86345885D01*
X147804587Y-86267290D01*
X146225813Y-86267290D01*
X145830689Y-86345885D01*
X145495718Y-86569705D01*
X145271898Y-86904676D01*
X145193303Y-87299800D01*
X142835024Y-87299800D01*
X142827167Y-87280786D01*
X142691528Y-87144910D01*
X142514216Y-87071284D01*
X142322226Y-87071116D01*
X142144786Y-87144433D01*
X142008910Y-87280072D01*
X141935284Y-87457384D01*
X141935116Y-87649374D01*
X137421728Y-87649374D01*
X137440951Y-87603081D01*
X137441119Y-87411091D01*
X137367802Y-87233651D01*
X137232163Y-87097775D01*
X137054851Y-87024149D01*
X136862861Y-87023981D01*
X136685421Y-87097298D01*
X136549545Y-87232937D01*
X136475919Y-87410249D01*
X136475751Y-87602239D01*
X131056389Y-87602239D01*
X131034563Y-87580375D01*
X130857251Y-87506749D01*
X130665261Y-87506581D01*
X130487821Y-87579898D01*
X130351945Y-87715537D01*
X130278319Y-87892849D01*
X130278151Y-88084839D01*
X93293000Y-88084839D01*
X93293000Y-87324000D01*
X95885000Y-87324000D01*
X95916782Y-87317678D01*
X95949185Y-87317678D01*
X97838654Y-86941839D01*
X132081551Y-86941839D01*
X132154868Y-87119279D01*
X132290507Y-87255155D01*
X132467819Y-87328781D01*
X132659809Y-87328949D01*
X132837249Y-87255632D01*
X132973125Y-87119993D01*
X133046751Y-86942681D01*
X133046919Y-86750691D01*
X132973602Y-86573251D01*
X132837963Y-86437375D01*
X132660651Y-86363749D01*
X132468661Y-86363581D01*
X132291221Y-86436898D01*
X132155345Y-86572537D01*
X132081719Y-86749849D01*
X132081551Y-86941839D01*
X97838654Y-86941839D01*
X98379224Y-86834313D01*
X98497823Y-86785188D01*
X100245579Y-85617374D01*
X129006516Y-85617374D01*
X129079833Y-85794814D01*
X129215472Y-85930690D01*
X129392784Y-86004316D01*
X129584774Y-86004484D01*
X129762214Y-85931167D01*
X129847555Y-85845974D01*
X141477916Y-85845974D01*
X141551233Y-86023414D01*
X141686872Y-86159290D01*
X141864184Y-86232916D01*
X142056174Y-86233084D01*
X142233614Y-86159767D01*
X142344400Y-86049174D01*
X148869316Y-86049174D01*
X148942633Y-86226614D01*
X149078272Y-86362490D01*
X149255584Y-86436116D01*
X149447574Y-86436284D01*
X149625014Y-86362967D01*
X149760890Y-86227328D01*
X149834516Y-86050016D01*
X149834684Y-85858026D01*
X149761367Y-85680586D01*
X149625728Y-85544710D01*
X149448416Y-85471084D01*
X149256426Y-85470916D01*
X149078986Y-85544233D01*
X148943110Y-85679872D01*
X148869484Y-85857184D01*
X148869316Y-86049174D01*
X142344400Y-86049174D01*
X142369490Y-86024128D01*
X142443116Y-85846816D01*
X142443284Y-85654826D01*
X142369967Y-85477386D01*
X142234328Y-85341510D01*
X142057016Y-85267884D01*
X141865026Y-85267716D01*
X141687586Y-85341033D01*
X141551710Y-85476672D01*
X141478084Y-85653984D01*
X141477916Y-85845974D01*
X129847555Y-85845974D01*
X129898090Y-85795528D01*
X129971716Y-85618216D01*
X129971884Y-85426226D01*
X129898567Y-85248786D01*
X129762928Y-85112910D01*
X129585616Y-85039284D01*
X129393626Y-85039116D01*
X129216186Y-85112433D01*
X129080310Y-85248072D01*
X129006684Y-85425384D01*
X129006516Y-85617374D01*
X100245579Y-85617374D01*
X100557911Y-85408681D01*
X100648683Y-85317909D01*
X101260781Y-84401839D01*
X125807751Y-84401839D01*
X125881068Y-84579279D01*
X126016707Y-84715155D01*
X126194019Y-84788781D01*
X126386009Y-84788949D01*
X126456554Y-84759800D01*
X145193303Y-84759800D01*
X145271898Y-85154924D01*
X145495718Y-85489895D01*
X145830689Y-85713715D01*
X146225813Y-85792310D01*
X147804587Y-85792310D01*
X148199711Y-85713715D01*
X148534682Y-85489895D01*
X148758502Y-85154924D01*
X148837097Y-84759800D01*
X148758502Y-84364676D01*
X148534682Y-84029705D01*
X148199711Y-83805885D01*
X147804587Y-83727290D01*
X146225813Y-83727290D01*
X145830689Y-83805885D01*
X145495718Y-84029705D01*
X145271898Y-84364676D01*
X145193303Y-84759800D01*
X126456554Y-84759800D01*
X126563449Y-84715632D01*
X126699325Y-84579993D01*
X126772951Y-84402681D01*
X126773119Y-84210691D01*
X126699802Y-84033251D01*
X126564163Y-83897375D01*
X126386851Y-83823749D01*
X126194861Y-83823581D01*
X126017421Y-83896898D01*
X125881545Y-84032537D01*
X125807919Y-84209849D01*
X125807751Y-84401839D01*
X101260781Y-84401839D01*
X102025189Y-83257823D01*
X102074313Y-83139224D01*
X102086615Y-83077374D01*
X125806116Y-83077374D01*
X125879433Y-83254814D01*
X126015072Y-83390690D01*
X126192384Y-83464316D01*
X126384374Y-83464484D01*
X126561814Y-83391167D01*
X126697690Y-83255528D01*
X126771316Y-83078216D01*
X126771383Y-83001174D01*
X131597316Y-83001174D01*
X131670633Y-83178614D01*
X131806272Y-83314490D01*
X131983584Y-83388116D01*
X132175574Y-83388284D01*
X132353014Y-83314967D01*
X132488890Y-83179328D01*
X132554510Y-83021295D01*
X141985899Y-83021295D01*
X142074651Y-83236090D01*
X142238845Y-83400572D01*
X142453486Y-83489698D01*
X142685895Y-83489901D01*
X142762195Y-83458374D01*
X148869316Y-83458374D01*
X148942633Y-83635814D01*
X149078272Y-83771690D01*
X149255584Y-83845316D01*
X149447574Y-83845484D01*
X149625014Y-83772167D01*
X149760890Y-83636528D01*
X149834516Y-83459216D01*
X149834684Y-83267226D01*
X149761367Y-83089786D01*
X149625728Y-82953910D01*
X149448416Y-82880284D01*
X149256426Y-82880116D01*
X149078986Y-82953433D01*
X148943110Y-83089072D01*
X148869484Y-83266384D01*
X148869316Y-83458374D01*
X142762195Y-83458374D01*
X142900690Y-83401149D01*
X143065172Y-83236955D01*
X143154298Y-83022314D01*
X143154501Y-82789905D01*
X143065749Y-82575110D01*
X142901555Y-82410628D01*
X142686914Y-82321502D01*
X142454505Y-82321299D01*
X142239710Y-82410051D01*
X142075228Y-82574245D01*
X141986102Y-82788886D01*
X141985899Y-83021295D01*
X132554510Y-83021295D01*
X132562516Y-83002016D01*
X132562684Y-82810026D01*
X132489367Y-82632586D01*
X132353728Y-82496710D01*
X132176416Y-82423084D01*
X131984426Y-82422916D01*
X131806986Y-82496233D01*
X131671110Y-82631872D01*
X131597484Y-82809184D01*
X131597316Y-83001174D01*
X126771383Y-83001174D01*
X126771484Y-82886226D01*
X126698167Y-82708786D01*
X126562528Y-82572910D01*
X126385216Y-82499284D01*
X126193226Y-82499116D01*
X126015786Y-82572433D01*
X125879910Y-82708072D01*
X125806284Y-82885384D01*
X125806116Y-83077374D01*
X102086615Y-83077374D01*
X102557678Y-80709185D01*
X102557678Y-80676782D01*
X102564000Y-80645000D01*
X102564000Y-75901010D01*
X118588595Y-75901010D01*
X118656499Y-76141880D01*
X119175339Y-76326503D01*
X119725336Y-76298521D01*
X120103501Y-76141880D01*
X120171405Y-75901010D01*
X119380000Y-75109605D01*
X118588595Y-75901010D01*
X102564000Y-75901010D01*
X102564000Y-74725339D01*
X117983497Y-74725339D01*
X118011479Y-75275336D01*
X118168120Y-75653501D01*
X118408990Y-75721405D01*
X119200395Y-74930000D01*
X119559605Y-74930000D01*
X120351010Y-75721405D01*
X120591880Y-75653501D01*
X120776503Y-75134661D01*
X120776456Y-75133723D01*
X120891122Y-75133723D01*
X121047402Y-75511950D01*
X121336528Y-75801581D01*
X121714481Y-75958521D01*
X122123723Y-75958878D01*
X122501950Y-75802598D01*
X122791581Y-75513472D01*
X122948521Y-75135519D01*
X122948522Y-75133723D01*
X123431122Y-75133723D01*
X123587402Y-75511950D01*
X123876528Y-75801581D01*
X124254481Y-75958521D01*
X124663723Y-75958878D01*
X125041950Y-75802598D01*
X125331581Y-75513472D01*
X125488521Y-75135519D01*
X125488522Y-75133723D01*
X125971122Y-75133723D01*
X126127402Y-75511950D01*
X126416528Y-75801581D01*
X126794481Y-75958521D01*
X127203723Y-75958878D01*
X127581950Y-75802598D01*
X127871581Y-75513472D01*
X128028521Y-75135519D01*
X128028522Y-75133723D01*
X128511122Y-75133723D01*
X128667402Y-75511950D01*
X128956528Y-75801581D01*
X129334481Y-75958521D01*
X129743723Y-75958878D01*
X130121950Y-75802598D01*
X130411581Y-75513472D01*
X130568521Y-75135519D01*
X130568522Y-75133723D01*
X131051122Y-75133723D01*
X131207402Y-75511950D01*
X131496528Y-75801581D01*
X131874481Y-75958521D01*
X132283723Y-75958878D01*
X132661950Y-75802598D01*
X132951581Y-75513472D01*
X133108521Y-75135519D01*
X133108522Y-75133723D01*
X133591122Y-75133723D01*
X133747402Y-75511950D01*
X134036528Y-75801581D01*
X134414481Y-75958521D01*
X134823723Y-75958878D01*
X135201950Y-75802598D01*
X135491581Y-75513472D01*
X135648521Y-75135519D01*
X135648878Y-74726277D01*
X135492598Y-74348050D01*
X135203472Y-74058419D01*
X134825519Y-73901479D01*
X134416277Y-73901122D01*
X134038050Y-74057402D01*
X133748419Y-74346528D01*
X133591479Y-74724481D01*
X133591122Y-75133723D01*
X133108522Y-75133723D01*
X133108878Y-74726277D01*
X132952598Y-74348050D01*
X132663472Y-74058419D01*
X132285519Y-73901479D01*
X131876277Y-73901122D01*
X131498050Y-74057402D01*
X131208419Y-74346528D01*
X131051479Y-74724481D01*
X131051122Y-75133723D01*
X130568522Y-75133723D01*
X130568878Y-74726277D01*
X130412598Y-74348050D01*
X130123472Y-74058419D01*
X129745519Y-73901479D01*
X129336277Y-73901122D01*
X128958050Y-74057402D01*
X128668419Y-74346528D01*
X128511479Y-74724481D01*
X128511122Y-75133723D01*
X128028522Y-75133723D01*
X128028878Y-74726277D01*
X127872598Y-74348050D01*
X127583472Y-74058419D01*
X127205519Y-73901479D01*
X126796277Y-73901122D01*
X126418050Y-74057402D01*
X126128419Y-74346528D01*
X125971479Y-74724481D01*
X125971122Y-75133723D01*
X125488522Y-75133723D01*
X125488878Y-74726277D01*
X125332598Y-74348050D01*
X125043472Y-74058419D01*
X124665519Y-73901479D01*
X124256277Y-73901122D01*
X123878050Y-74057402D01*
X123588419Y-74346528D01*
X123431479Y-74724481D01*
X123431122Y-75133723D01*
X122948522Y-75133723D01*
X122948878Y-74726277D01*
X122792598Y-74348050D01*
X122503472Y-74058419D01*
X122125519Y-73901479D01*
X121716277Y-73901122D01*
X121338050Y-74057402D01*
X121048419Y-74346528D01*
X120891479Y-74724481D01*
X120891122Y-75133723D01*
X120776456Y-75133723D01*
X120748521Y-74584664D01*
X120591880Y-74206499D01*
X120351010Y-74138595D01*
X119559605Y-74930000D01*
X119200395Y-74930000D01*
X118408990Y-74138595D01*
X118168120Y-74206499D01*
X117983497Y-74725339D01*
X102564000Y-74725339D01*
X102564000Y-72767265D01*
X104139670Y-72767265D01*
X104429078Y-73467686D01*
X104964495Y-74004039D01*
X105664410Y-74294668D01*
X106422265Y-74295330D01*
X107122686Y-74005922D01*
X107169700Y-73958990D01*
X118588595Y-73958990D01*
X119380000Y-74750395D01*
X120171405Y-73958990D01*
X120103501Y-73718120D01*
X119584661Y-73533497D01*
X119034664Y-73561479D01*
X118656499Y-73718120D01*
X118588595Y-73958990D01*
X107169700Y-73958990D01*
X107659039Y-73470505D01*
X107949668Y-72770590D01*
X107949822Y-72593723D01*
X118351122Y-72593723D01*
X118507402Y-72971950D01*
X118796528Y-73261581D01*
X119174481Y-73418521D01*
X119583723Y-73418878D01*
X119961950Y-73262598D01*
X120251581Y-72973472D01*
X120408521Y-72595519D01*
X120408522Y-72593723D01*
X120891122Y-72593723D01*
X121047402Y-72971950D01*
X121336528Y-73261581D01*
X121714481Y-73418521D01*
X122123723Y-73418878D01*
X122501950Y-73262598D01*
X122791581Y-72973472D01*
X122948521Y-72595519D01*
X122948522Y-72593723D01*
X123431122Y-72593723D01*
X123587402Y-72971950D01*
X123876528Y-73261581D01*
X124254481Y-73418521D01*
X124663723Y-73418878D01*
X125041950Y-73262598D01*
X125331581Y-72973472D01*
X125488521Y-72595519D01*
X125488522Y-72593723D01*
X125971122Y-72593723D01*
X126127402Y-72971950D01*
X126416528Y-73261581D01*
X126794481Y-73418521D01*
X127203723Y-73418878D01*
X127581950Y-73262598D01*
X127871581Y-72973472D01*
X128028521Y-72595519D01*
X128028522Y-72593723D01*
X128511122Y-72593723D01*
X128667402Y-72971950D01*
X128956528Y-73261581D01*
X129334481Y-73418521D01*
X129743723Y-73418878D01*
X130121950Y-73262598D01*
X130411581Y-72973472D01*
X130568521Y-72595519D01*
X130568522Y-72593723D01*
X131051122Y-72593723D01*
X131207402Y-72971950D01*
X131496528Y-73261581D01*
X131874481Y-73418521D01*
X132283723Y-73418878D01*
X132661950Y-73262598D01*
X132951581Y-72973472D01*
X133075206Y-72675750D01*
X133235700Y-72675750D01*
X133235700Y-73265610D01*
X133332373Y-73498999D01*
X133511002Y-73677627D01*
X133744391Y-73774300D01*
X134334250Y-73774300D01*
X134493000Y-73615550D01*
X134493000Y-72517000D01*
X134747000Y-72517000D01*
X134747000Y-73615550D01*
X134905750Y-73774300D01*
X135495609Y-73774300D01*
X135728998Y-73677627D01*
X135907627Y-73498999D01*
X136004300Y-73265610D01*
X136004300Y-72767265D01*
X146049670Y-72767265D01*
X146339078Y-73467686D01*
X146874495Y-74004039D01*
X147574410Y-74294668D01*
X148332265Y-74295330D01*
X149032686Y-74005922D01*
X149569039Y-73470505D01*
X149859668Y-72770590D01*
X149860330Y-72012735D01*
X149570922Y-71312314D01*
X149035505Y-70775961D01*
X148335590Y-70485332D01*
X147577735Y-70484670D01*
X146877314Y-70774078D01*
X146340961Y-71309495D01*
X146050332Y-72009410D01*
X146049670Y-72767265D01*
X136004300Y-72767265D01*
X136004300Y-72675750D01*
X135845550Y-72517000D01*
X134747000Y-72517000D01*
X134493000Y-72517000D01*
X133394450Y-72517000D01*
X133235700Y-72675750D01*
X133075206Y-72675750D01*
X133108521Y-72595519D01*
X133108878Y-72186277D01*
X132952598Y-71808050D01*
X132663472Y-71518419D01*
X132653770Y-71514390D01*
X133235700Y-71514390D01*
X133235700Y-72104250D01*
X133394450Y-72263000D01*
X134493000Y-72263000D01*
X134493000Y-71164450D01*
X134747000Y-71164450D01*
X134747000Y-72263000D01*
X135845550Y-72263000D01*
X136004300Y-72104250D01*
X136004300Y-71514390D01*
X135907627Y-71281001D01*
X135728998Y-71102373D01*
X135495609Y-71005700D01*
X134905750Y-71005700D01*
X134747000Y-71164450D01*
X134493000Y-71164450D01*
X134334250Y-71005700D01*
X133744391Y-71005700D01*
X133511002Y-71102373D01*
X133332373Y-71281001D01*
X133235700Y-71514390D01*
X132653770Y-71514390D01*
X132285519Y-71361479D01*
X131876277Y-71361122D01*
X131498050Y-71517402D01*
X131208419Y-71806528D01*
X131051479Y-72184481D01*
X131051122Y-72593723D01*
X130568522Y-72593723D01*
X130568878Y-72186277D01*
X130412598Y-71808050D01*
X130123472Y-71518419D01*
X129745519Y-71361479D01*
X129336277Y-71361122D01*
X128958050Y-71517402D01*
X128668419Y-71806528D01*
X128511479Y-72184481D01*
X128511122Y-72593723D01*
X128028522Y-72593723D01*
X128028878Y-72186277D01*
X127872598Y-71808050D01*
X127583472Y-71518419D01*
X127205519Y-71361479D01*
X126796277Y-71361122D01*
X126418050Y-71517402D01*
X126128419Y-71806528D01*
X125971479Y-72184481D01*
X125971122Y-72593723D01*
X125488522Y-72593723D01*
X125488878Y-72186277D01*
X125332598Y-71808050D01*
X125043472Y-71518419D01*
X124665519Y-71361479D01*
X124256277Y-71361122D01*
X123878050Y-71517402D01*
X123588419Y-71806528D01*
X123431479Y-72184481D01*
X123431122Y-72593723D01*
X122948522Y-72593723D01*
X122948878Y-72186277D01*
X122792598Y-71808050D01*
X122503472Y-71518419D01*
X122125519Y-71361479D01*
X121716277Y-71361122D01*
X121338050Y-71517402D01*
X121048419Y-71806528D01*
X120891479Y-72184481D01*
X120891122Y-72593723D01*
X120408522Y-72593723D01*
X120408878Y-72186277D01*
X120252598Y-71808050D01*
X119963472Y-71518419D01*
X119585519Y-71361479D01*
X119176277Y-71361122D01*
X118798050Y-71517402D01*
X118508419Y-71806528D01*
X118351479Y-72184481D01*
X118351122Y-72593723D01*
X107949822Y-72593723D01*
X107950330Y-72012735D01*
X107660922Y-71312314D01*
X107125505Y-70775961D01*
X106425590Y-70485332D01*
X105667735Y-70484670D01*
X104967314Y-70774078D01*
X104430961Y-71309495D01*
X104140332Y-72009410D01*
X104139670Y-72767265D01*
X102564000Y-72767265D01*
X102564000Y-68909000D01*
X151436000Y-68909000D01*
X151436000Y-80645000D01*
M02*
