G75*
%MOIN*%
%OFA0B0*%
%FSLAX24Y24*%
%IPPOS*%
%LPD*%
%AMOC8*
5,1,8,0,0,1.08239X$1,22.5*
%
%ADD10R,0.0585X0.0585*%
%ADD11OC8,0.0585*%
%ADD12OC8,0.0680*%
%ADD13C,0.0610*%
%ADD14R,0.0354X0.0268*%
%ADD15C,0.0709*%
%ADD16C,0.0600*%
%ADD17C,0.0100*%
%ADD18C,0.2500*%
%ADD19C,0.0280*%
%ADD20C,0.0200*%
D10*
X012950Y005650D03*
X017450Y028650D03*
D11*
X017450Y027650D03*
X016450Y027650D03*
X016450Y028650D03*
X015450Y028650D03*
X015450Y027650D03*
X014450Y027650D03*
X014450Y028650D03*
X013450Y028650D03*
X013450Y027650D03*
X012450Y027650D03*
X012450Y028650D03*
X011450Y028650D03*
X011450Y027650D03*
X012950Y006650D03*
X013950Y006650D03*
X013950Y005650D03*
X014950Y005650D03*
X014950Y006650D03*
X015950Y006650D03*
X015950Y005650D03*
D12*
X007150Y013850D03*
X006150Y013850D03*
X005150Y013850D03*
X004150Y013850D03*
X004150Y016850D03*
X005150Y016850D03*
X006150Y016850D03*
X007150Y016850D03*
X006850Y018250D03*
X005850Y018250D03*
X004850Y018250D03*
X004850Y021250D03*
X005850Y021250D03*
X006850Y021250D03*
X007850Y021250D03*
X007850Y018250D03*
D13*
X011454Y006770D03*
D14*
X010856Y006530D03*
X010856Y007010D03*
D15*
X016007Y021491D03*
X015015Y021727D03*
X016685Y022357D03*
X016685Y024207D03*
X015693Y024404D03*
D16*
X011430Y020440D03*
X011400Y019360D03*
X011400Y018260D03*
X011400Y017160D03*
X011400Y015930D03*
X011430Y014820D03*
X011430Y013730D03*
X011390Y012670D03*
X007650Y010760D03*
X007850Y023350D03*
D17*
X004975Y009213D02*
X004975Y004425D01*
X023925Y004425D01*
X023925Y009213D01*
X024064Y009822D01*
X024064Y009822D01*
X024335Y010386D01*
X024335Y010386D01*
X024725Y010875D01*
X024725Y010875D01*
X024725Y010875D01*
X025214Y011265D01*
X025214Y011265D01*
X025778Y011536D01*
X025778Y011536D01*
X026387Y011675D01*
X027575Y011675D01*
X027575Y016441D01*
X027550Y016416D01*
X027550Y015044D01*
X027456Y014950D01*
X024096Y011590D01*
X018784Y011590D01*
X018732Y011538D01*
X018640Y011500D01*
X018566Y011500D01*
X018106Y011040D01*
X018150Y011040D01*
X018242Y011002D01*
X018264Y010980D01*
X018306Y010980D01*
X018336Y010950D01*
X020521Y010950D01*
X020500Y011000D01*
X020500Y011100D01*
X020538Y011192D01*
X020608Y011262D01*
X020700Y011300D01*
X020800Y011300D01*
X020892Y011262D01*
X020894Y011260D01*
X023006Y011260D01*
X023008Y011262D01*
X023100Y011300D01*
X023200Y011300D01*
X023292Y011262D01*
X023362Y011192D01*
X023400Y011100D01*
X023400Y011000D01*
X023362Y010908D01*
X023292Y010838D01*
X023200Y010800D01*
X023100Y010800D01*
X023008Y010838D01*
X023006Y010840D01*
X022686Y010840D01*
X022686Y010840D01*
X022760Y010840D01*
X022852Y010802D01*
X022922Y010732D01*
X022960Y010640D01*
X022960Y010540D01*
X022922Y010448D01*
X022852Y010378D01*
X022760Y010340D01*
X022660Y010340D01*
X022568Y010378D01*
X022498Y010448D01*
X022460Y010540D01*
X022460Y010614D01*
X022444Y010630D01*
X020813Y010630D01*
X020830Y010590D01*
X020830Y010490D01*
X020792Y010398D01*
X020722Y010328D01*
X020630Y010290D01*
X020530Y010290D01*
X020438Y010328D01*
X020386Y010380D01*
X018024Y010380D01*
X017992Y010348D01*
X017900Y010310D01*
X017800Y010310D01*
X017708Y010348D01*
X017638Y010418D01*
X017600Y010510D01*
X017600Y010534D01*
X017263Y010197D01*
X017270Y010200D01*
X017370Y010200D01*
X017462Y010162D01*
X017514Y010110D01*
X021026Y010110D01*
X021078Y010162D01*
X021170Y010200D01*
X021270Y010200D01*
X021362Y010162D01*
X021432Y010092D01*
X021470Y010000D01*
X021470Y009900D01*
X021432Y009808D01*
X021362Y009738D01*
X021270Y009700D01*
X021170Y009700D01*
X021078Y009738D01*
X021026Y009790D01*
X020534Y009790D01*
X020572Y009752D01*
X020610Y009660D01*
X020610Y009560D01*
X020572Y009468D01*
X020544Y009440D01*
X021746Y009440D01*
X021798Y009492D01*
X021890Y009530D01*
X021990Y009530D01*
X022082Y009492D01*
X022152Y009422D01*
X022190Y009330D01*
X022190Y009230D01*
X022152Y009138D01*
X022082Y009068D01*
X021990Y009030D01*
X021890Y009030D01*
X021798Y009068D01*
X021746Y009120D01*
X016654Y009120D01*
X016644Y009130D01*
X016570Y009130D01*
X016478Y009168D01*
X016408Y009238D01*
X016378Y009312D01*
X016200Y009134D01*
X016200Y009060D01*
X021818Y009060D01*
X021870Y008980D02*
X021778Y008942D01*
X021726Y008890D01*
X016427Y008890D01*
X016368Y008895D01*
X016362Y008890D01*
X016354Y008890D01*
X016312Y008848D01*
X014145Y007024D01*
X014117Y007052D01*
X013783Y007052D01*
X013548Y006817D01*
X013548Y006483D01*
X013783Y006248D01*
X014117Y006248D01*
X014352Y006483D01*
X014352Y006780D01*
X016478Y008570D01*
X021726Y008570D01*
X021761Y008535D01*
X021726Y008500D01*
X017258Y008500D01*
X017200Y008506D01*
X017193Y008500D01*
X017184Y008500D01*
X017143Y008459D01*
X015373Y007020D01*
X015364Y007020D01*
X015323Y006979D01*
X015278Y006942D01*
X015277Y006933D01*
X015270Y006926D01*
X015270Y006899D01*
X015117Y007052D01*
X014783Y007052D01*
X014548Y006817D01*
X014548Y006483D01*
X014781Y006250D01*
X014374Y006250D01*
X014146Y006023D01*
X014117Y006052D01*
X013783Y006052D01*
X013548Y005817D01*
X013548Y005483D01*
X013783Y005248D01*
X014117Y005248D01*
X014352Y005483D01*
X014352Y005776D01*
X014506Y005930D01*
X014661Y005930D01*
X014548Y005817D01*
X014548Y005483D01*
X014783Y005248D01*
X015117Y005248D01*
X015352Y005483D01*
X015352Y005817D01*
X015239Y005930D01*
X015446Y005930D01*
X015540Y006024D01*
X015590Y006074D01*
X015590Y006441D01*
X015783Y006248D01*
X016117Y006248D01*
X016352Y006483D01*
X016352Y006817D01*
X016117Y007052D01*
X015920Y007052D01*
X017307Y008180D01*
X021726Y008180D01*
X021778Y008128D01*
X021870Y008090D01*
X021970Y008090D01*
X022062Y008128D01*
X022132Y008198D01*
X022170Y008290D01*
X022170Y008390D01*
X022132Y008482D01*
X022079Y008535D01*
X022132Y008588D01*
X022170Y008680D01*
X022170Y008780D01*
X022132Y008872D01*
X022062Y008942D01*
X021970Y008980D01*
X021870Y008980D01*
X021826Y008962D02*
X016155Y008962D01*
X016162Y008968D02*
X016200Y009060D01*
X016162Y008968D02*
X016092Y008898D01*
X016000Y008860D01*
X015900Y008860D01*
X015808Y008898D01*
X015738Y008968D01*
X015700Y009060D01*
X015586Y009060D01*
X015700Y009060D02*
X015700Y009160D01*
X015710Y009184D01*
X013348Y006821D01*
X013352Y006817D01*
X013352Y006483D01*
X013117Y006248D01*
X012783Y006248D01*
X012548Y006483D01*
X012548Y006817D01*
X012783Y007052D01*
X013117Y007052D01*
X013121Y007048D01*
X015177Y009104D01*
X015118Y009128D01*
X015048Y009198D01*
X015011Y009289D01*
X014990Y009280D01*
X014890Y009280D01*
X014798Y009318D01*
X014728Y009388D01*
X014690Y009480D01*
X014690Y009580D01*
X014728Y009672D01*
X014798Y009742D01*
X014890Y009780D01*
X014970Y009780D01*
X017829Y012515D01*
X017798Y012528D01*
X017746Y012580D01*
X014616Y012580D01*
X014555Y012576D01*
X014550Y012580D01*
X014544Y012580D01*
X014501Y012623D01*
X014240Y012850D01*
X012754Y012850D01*
X012702Y012798D01*
X012610Y012760D01*
X012510Y012760D01*
X012418Y012798D01*
X012348Y012868D01*
X012310Y012960D01*
X012310Y013043D01*
X012230Y013010D01*
X012130Y013010D01*
X012038Y013048D01*
X011968Y013118D01*
X011940Y013187D01*
X011740Y012896D01*
X011800Y012752D01*
X011800Y012588D01*
X011738Y012438D01*
X011622Y012322D01*
X011472Y012260D01*
X011308Y012260D01*
X011158Y012322D01*
X011042Y012438D01*
X010980Y012588D01*
X010980Y012752D01*
X011042Y012902D01*
X011158Y013018D01*
X011308Y013080D01*
X011472Y013080D01*
X011476Y013078D01*
X011738Y013459D01*
X011662Y013382D01*
X011512Y013320D01*
X011348Y013320D01*
X011198Y013382D01*
X011082Y013498D01*
X011020Y013648D01*
X011020Y013812D01*
X011082Y013962D01*
X011198Y014078D01*
X011348Y014140D01*
X011512Y014140D01*
X011584Y014110D01*
X011661Y014187D01*
X011661Y014188D01*
X011708Y014234D01*
X011754Y014280D01*
X011755Y014280D01*
X011756Y014281D01*
X011821Y014280D01*
X011886Y014280D01*
X011887Y014279D01*
X014615Y014249D01*
X014064Y014800D01*
X013970Y014894D01*
X013970Y018496D01*
X014140Y018666D01*
X014140Y021872D01*
X014088Y021924D01*
X014050Y022016D01*
X014050Y022116D01*
X014088Y022208D01*
X014158Y022278D01*
X014250Y022316D01*
X014350Y022316D01*
X014442Y022278D01*
X014512Y022208D01*
X014550Y022116D01*
X014550Y022016D01*
X014512Y021924D01*
X014460Y021872D01*
X014460Y018534D01*
X014290Y018364D01*
X014290Y015026D01*
X014856Y014460D01*
X017656Y014460D01*
X018110Y014006D01*
X018110Y013624D01*
X018162Y013572D01*
X018200Y013480D01*
X018200Y013380D01*
X018162Y013288D01*
X018092Y013218D01*
X018000Y013180D01*
X017900Y013180D01*
X017808Y013218D01*
X017738Y013288D01*
X017700Y013380D01*
X017700Y013480D01*
X017738Y013572D01*
X017790Y013624D01*
X017790Y013874D01*
X017750Y013914D01*
X017750Y013830D01*
X017712Y013738D01*
X017642Y013668D01*
X017550Y013630D01*
X017450Y013630D01*
X017447Y013631D01*
X017416Y013600D01*
X017406Y013600D01*
X017400Y013595D01*
X017410Y013570D01*
X017410Y013470D01*
X017372Y013378D01*
X017302Y013308D01*
X017210Y013270D01*
X017165Y013270D01*
X017190Y013210D01*
X017190Y013110D01*
X017152Y013018D01*
X017082Y012948D01*
X016990Y012910D01*
X016916Y012910D01*
X016906Y012900D01*
X017746Y012900D01*
X017798Y012952D01*
X017890Y012990D01*
X017990Y012990D01*
X018082Y012952D01*
X018152Y012882D01*
X018169Y012840D01*
X019380Y013998D01*
X019380Y015476D01*
X019328Y015528D01*
X019290Y015620D01*
X019290Y015720D01*
X019328Y015812D01*
X019380Y015864D01*
X019380Y015896D01*
X019381Y015897D01*
X019381Y015899D01*
X019428Y015944D01*
X019474Y015990D01*
X019475Y015990D01*
X021038Y017504D01*
X021085Y017550D01*
X021086Y017550D01*
X021086Y017551D01*
X021152Y017550D01*
X022535Y017541D01*
X022548Y017572D01*
X022618Y017642D01*
X022689Y017671D01*
X022507Y017870D01*
X021564Y017870D01*
X021526Y017854D01*
X021426Y017854D01*
X021388Y017870D01*
X016817Y017870D01*
X016640Y017693D01*
X016640Y017374D01*
X016642Y017372D01*
X016680Y017280D01*
X016680Y017180D01*
X016642Y017088D01*
X016572Y017018D01*
X016480Y016980D01*
X016380Y016980D01*
X016288Y017018D01*
X016218Y017088D01*
X016180Y017180D01*
X016180Y017280D01*
X016218Y017372D01*
X016220Y017374D01*
X016220Y017867D01*
X016520Y018167D01*
X016520Y018167D01*
X016643Y018290D01*
X020247Y018290D01*
X020210Y018380D01*
X020210Y018480D01*
X020248Y018572D01*
X020300Y018624D01*
X020300Y020794D01*
X020047Y021046D01*
X020047Y019356D01*
X020099Y019304D01*
X020300Y019304D01*
X020300Y019206D02*
X020137Y019206D01*
X020137Y019212D02*
X020099Y019304D01*
X020137Y019212D02*
X020137Y019113D01*
X020099Y019021D01*
X020029Y018951D01*
X019937Y018913D01*
X019838Y018913D01*
X019746Y018951D01*
X019675Y019021D01*
X019640Y019106D01*
X019640Y019010D01*
X019602Y018918D01*
X019532Y018848D01*
X019440Y018810D01*
X019340Y018810D01*
X019248Y018848D01*
X019178Y018918D01*
X019140Y019010D01*
X019140Y019110D01*
X019178Y019202D01*
X019230Y019254D01*
X019230Y021124D01*
X018654Y021700D01*
X018560Y021794D01*
X018560Y023954D01*
X017674Y024840D01*
X016034Y024840D01*
X014064Y026810D01*
X013384Y026810D01*
X013352Y026778D01*
X013260Y026740D01*
X013160Y026740D01*
X013068Y026778D01*
X012998Y026848D01*
X012960Y026940D01*
X012960Y027040D01*
X012968Y027060D01*
X012814Y027060D01*
X012621Y027252D01*
X012617Y027248D01*
X012283Y027248D01*
X012048Y027483D01*
X012048Y027817D01*
X012283Y028052D01*
X012617Y028052D01*
X012852Y027817D01*
X012852Y027483D01*
X012848Y027479D01*
X012946Y027380D01*
X013151Y027380D01*
X013048Y027483D01*
X013048Y027817D01*
X013283Y028052D01*
X013617Y028052D01*
X013852Y027817D01*
X013852Y027483D01*
X013749Y027380D01*
X014151Y027380D01*
X014048Y027483D01*
X014048Y027817D01*
X014283Y028052D01*
X014617Y028052D01*
X014852Y027817D01*
X014852Y027483D01*
X014617Y027248D01*
X014579Y027248D01*
X016386Y025440D01*
X017906Y025440D01*
X018000Y025346D01*
X019120Y024226D01*
X019120Y026614D01*
X019014Y026720D01*
X018194Y026720D01*
X018142Y026668D01*
X018050Y026630D01*
X017950Y026630D01*
X017858Y026668D01*
X017788Y026738D01*
X017750Y026830D01*
X017750Y026930D01*
X017788Y027022D01*
X017858Y027092D01*
X017950Y027130D01*
X018050Y027130D01*
X018142Y027092D01*
X018194Y027040D01*
X019034Y027040D01*
X018184Y027890D01*
X017779Y027890D01*
X017852Y027817D01*
X017852Y027483D01*
X017617Y027248D01*
X017283Y027248D01*
X017048Y027483D01*
X017048Y027817D01*
X017121Y027890D01*
X016779Y027890D01*
X016852Y027817D01*
X016852Y027483D01*
X016617Y027248D01*
X016283Y027248D01*
X016048Y027483D01*
X016048Y027817D01*
X016121Y027890D01*
X015916Y027890D01*
X015848Y027821D01*
X015852Y027817D01*
X015852Y027483D01*
X015617Y027248D01*
X015283Y027248D01*
X015048Y027483D01*
X015048Y027817D01*
X015283Y028052D01*
X015617Y028052D01*
X015621Y028048D01*
X015690Y028116D01*
X015784Y028210D01*
X018316Y028210D01*
X018410Y028116D01*
X018410Y028116D01*
X019790Y026736D01*
X019790Y022146D01*
X021210Y020726D01*
X021210Y018644D01*
X021262Y018592D01*
X021267Y018579D01*
X021267Y018590D01*
X021267Y018739D01*
X021258Y018748D01*
X021220Y018840D01*
X021220Y018940D01*
X021258Y019032D01*
X021267Y019041D01*
X021266Y021736D01*
X021264Y021738D01*
X021226Y021830D01*
X021226Y021930D01*
X021264Y022022D01*
X021334Y022092D01*
X021426Y022130D01*
X021526Y022130D01*
X021618Y022092D01*
X021688Y022022D01*
X021726Y021930D01*
X021726Y021830D01*
X021688Y021738D01*
X021686Y021737D01*
X021687Y019019D01*
X021720Y018940D01*
X021720Y018840D01*
X021687Y018761D01*
X021687Y018676D01*
X021688Y018676D01*
X021687Y018589D01*
X021687Y018503D01*
X021687Y018502D01*
X021686Y018290D01*
X022519Y018290D01*
X022523Y018294D01*
X022605Y018290D01*
X022687Y018290D01*
X022691Y018286D01*
X022696Y018286D01*
X022752Y018225D01*
X022810Y018167D01*
X022810Y018161D01*
X023642Y017251D01*
X025206Y017259D01*
X025208Y017262D01*
X025300Y017300D01*
X025400Y017300D01*
X025492Y017262D01*
X025562Y017192D01*
X025600Y017100D01*
X025600Y017000D01*
X025562Y016908D01*
X025492Y016838D01*
X025400Y016800D01*
X025300Y016800D01*
X025208Y016838D01*
X025207Y016839D01*
X025145Y016839D01*
X025145Y016839D01*
X023759Y016831D01*
X023758Y016500D01*
X023830Y016530D01*
X023930Y016530D01*
X024022Y016492D01*
X024092Y016422D01*
X024130Y016330D01*
X024130Y016230D01*
X024092Y016138D01*
X024041Y016087D01*
X024049Y014044D01*
X024102Y013992D01*
X024140Y013900D01*
X024140Y013800D01*
X024102Y013708D01*
X024032Y013638D01*
X023940Y013600D01*
X023840Y013600D01*
X023767Y013631D01*
X023800Y013550D01*
X023800Y013450D01*
X023762Y013358D01*
X023760Y013356D01*
X023760Y012184D01*
X023762Y012182D01*
X023800Y012090D01*
X023800Y011990D01*
X023767Y011910D01*
X023964Y011910D01*
X027230Y015176D01*
X027230Y016416D01*
X027178Y016468D01*
X027140Y016560D01*
X027140Y016660D01*
X027178Y016752D01*
X027248Y016822D01*
X027340Y016860D01*
X027440Y016860D01*
X027532Y016822D01*
X027575Y016779D01*
X027575Y021248D01*
X027560Y021212D01*
X027560Y019491D01*
X027568Y019437D01*
X027560Y019426D01*
X027560Y019414D01*
X027521Y019375D01*
X027186Y018930D01*
X027190Y018920D01*
X027190Y018820D01*
X027152Y018728D01*
X027082Y018658D01*
X026990Y018620D01*
X026890Y018620D01*
X026798Y018658D01*
X026728Y018728D01*
X026690Y018820D01*
X026690Y018920D01*
X026694Y018930D01*
X026224Y018930D01*
X026145Y019009D01*
X026145Y019323D01*
X026124Y019332D01*
X025922Y019534D01*
X025905Y019574D01*
X025888Y019534D01*
X025686Y019332D01*
X025665Y019323D01*
X025665Y019009D01*
X025586Y018930D01*
X024974Y018930D01*
X024895Y019009D01*
X024895Y019323D01*
X024874Y019332D01*
X024672Y019534D01*
X024563Y019797D01*
X021687Y019797D01*
X021687Y019895D02*
X024563Y019895D01*
X024563Y019797D02*
X024563Y020083D01*
X024566Y020090D01*
X024440Y020090D01*
X024275Y020159D01*
X024149Y020285D01*
X024080Y020450D01*
X024080Y020630D01*
X024149Y020795D01*
X024275Y020921D01*
X024320Y020940D01*
X024275Y020959D01*
X024149Y021085D01*
X024080Y021250D01*
X024080Y021430D01*
X024149Y021595D01*
X024275Y021721D01*
X024440Y021790D01*
X024566Y021790D01*
X024563Y021797D01*
X024563Y022083D01*
X024672Y022346D01*
X024874Y022548D01*
X024895Y022557D01*
X024895Y022871D01*
X024974Y022950D01*
X025392Y022950D01*
X025214Y023035D01*
X025214Y023035D01*
X024725Y023425D01*
X024725Y023425D01*
X024335Y023914D01*
X024335Y023914D01*
X024064Y024478D01*
X023925Y025087D01*
X023925Y029875D01*
X004975Y029875D01*
X004975Y025087D01*
X004836Y024478D01*
X004836Y024478D01*
X004565Y023914D01*
X004565Y023914D01*
X004175Y023425D01*
X004175Y023425D01*
X003686Y023035D01*
X003686Y023035D01*
X003122Y022764D01*
X003122Y022764D01*
X002513Y022625D01*
X001325Y022625D01*
X001325Y011675D01*
X002513Y011675D01*
X003122Y011536D01*
X003122Y011536D01*
X003686Y011265D01*
X003686Y011265D01*
X004175Y010875D01*
X004175Y010875D01*
X004175Y010875D01*
X004565Y010386D01*
X004565Y010386D01*
X004836Y009822D01*
X004836Y009822D01*
X004975Y009213D01*
X004965Y009257D02*
X008941Y009257D01*
X009039Y009356D02*
X004942Y009356D01*
X004920Y009454D02*
X009110Y009454D01*
X009110Y009426D02*
X008384Y008700D01*
X008310Y008700D01*
X008218Y008662D01*
X008148Y008592D01*
X008110Y008500D01*
X008110Y008400D01*
X008148Y008308D01*
X008218Y008238D01*
X008310Y008200D01*
X008384Y008200D01*
X009860Y006724D01*
X009818Y006682D01*
X009780Y006590D01*
X009780Y006490D01*
X009818Y006398D01*
X009888Y006328D01*
X009980Y006290D01*
X010080Y006290D01*
X010172Y006328D01*
X010224Y006380D01*
X010569Y006380D01*
X010569Y006350D01*
X010633Y006286D01*
X011079Y006286D01*
X011143Y006350D01*
X011143Y006709D01*
X011082Y006770D01*
X011143Y006831D01*
X011143Y007190D01*
X011079Y007254D01*
X010633Y007254D01*
X010590Y007211D01*
X010552Y007302D01*
X010482Y007372D01*
X010390Y007410D01*
X010290Y007410D01*
X010198Y007372D01*
X010128Y007302D01*
X010090Y007210D01*
X010090Y007110D01*
X010128Y007018D01*
X010198Y006948D01*
X010290Y006910D01*
X010364Y006910D01*
X010424Y006850D01*
X010569Y006850D01*
X010569Y006831D01*
X010629Y006770D01*
X010569Y006709D01*
X010569Y006700D01*
X010224Y006700D01*
X010190Y006734D01*
X010190Y006846D01*
X010096Y006940D01*
X008610Y008426D01*
X008610Y008474D01*
X009430Y009294D01*
X009430Y010374D01*
X010154Y009650D01*
X010706Y009650D01*
X010758Y009598D01*
X010850Y009560D01*
X010950Y009560D01*
X011042Y009598D01*
X011112Y009668D01*
X011150Y009760D01*
X011150Y009860D01*
X011112Y009952D01*
X011042Y010022D01*
X010950Y010060D01*
X010850Y010060D01*
X010758Y010022D01*
X010706Y009970D01*
X010286Y009970D01*
X009520Y010736D01*
X009520Y010810D01*
X009482Y010902D01*
X009412Y010972D01*
X009320Y011010D01*
X009220Y011010D01*
X009128Y010972D01*
X009058Y010902D01*
X009020Y010810D01*
X009020Y010710D01*
X009058Y010618D01*
X009110Y010566D01*
X009110Y009426D01*
X009110Y009553D02*
X004897Y009553D01*
X004875Y009651D02*
X009110Y009651D01*
X009110Y009750D02*
X004852Y009750D01*
X004823Y009848D02*
X009110Y009848D01*
X009110Y009947D02*
X004776Y009947D01*
X004729Y010045D02*
X009110Y010045D01*
X009110Y010144D02*
X004681Y010144D01*
X004634Y010242D02*
X009110Y010242D01*
X009110Y010341D02*
X004586Y010341D01*
X004522Y010439D02*
X007391Y010439D01*
X007418Y010412D02*
X007568Y010350D01*
X007732Y010350D01*
X007882Y010412D01*
X007998Y010528D01*
X008060Y010678D01*
X008060Y010842D01*
X007999Y010990D01*
X008537Y010990D01*
X008660Y011113D01*
X009347Y011800D01*
X009350Y011800D01*
X009442Y011838D01*
X009512Y011908D01*
X009550Y012000D01*
X009550Y012100D01*
X009512Y012192D01*
X009442Y012262D01*
X009350Y012300D01*
X009250Y012300D01*
X009158Y012262D01*
X009088Y012192D01*
X009050Y012100D01*
X009050Y012097D01*
X008770Y011817D01*
X008770Y011820D01*
X008732Y011912D01*
X008680Y011964D01*
X008680Y014206D01*
X008722Y014248D01*
X008760Y014340D01*
X008760Y014440D01*
X008722Y014532D01*
X008652Y014602D01*
X008560Y014640D01*
X008460Y014640D01*
X008368Y014602D01*
X008298Y014532D01*
X008260Y014440D01*
X008260Y014340D01*
X008298Y014248D01*
X008360Y014186D01*
X008360Y011964D01*
X008308Y011912D01*
X008270Y011820D01*
X008270Y011720D01*
X008308Y011628D01*
X008378Y011558D01*
X008470Y011520D01*
X008473Y011520D01*
X008363Y011410D01*
X007157Y011410D01*
X006520Y012047D01*
X006397Y012170D01*
X003667Y012170D01*
X003340Y012497D01*
X003217Y012620D01*
X002227Y012620D01*
X001760Y013087D01*
X001760Y015463D01*
X003617Y017320D01*
X003740Y017443D01*
X003777Y017480D01*
X011140Y017480D01*
X011052Y017392D01*
X010990Y017242D01*
X010990Y017078D01*
X011052Y016928D01*
X011168Y016812D01*
X011318Y016750D01*
X011482Y016750D01*
X011632Y016812D01*
X011748Y016928D01*
X011810Y017078D01*
X011810Y017242D01*
X011748Y017392D01*
X011660Y017480D01*
X013046Y017480D01*
X013048Y017478D01*
X013140Y017440D01*
X013240Y017440D01*
X013332Y017478D01*
X013402Y017548D01*
X013440Y017640D01*
X013440Y017740D01*
X013402Y017832D01*
X013332Y017902D01*
X013240Y017940D01*
X013140Y017940D01*
X013048Y017902D01*
X013046Y017900D01*
X011602Y017900D01*
X011632Y017912D01*
X011748Y018028D01*
X011810Y018178D01*
X011810Y018342D01*
X011748Y018492D01*
X011632Y018608D01*
X011482Y018670D01*
X011318Y018670D01*
X011168Y018608D01*
X011052Y018492D01*
X010990Y018342D01*
X010990Y018178D01*
X011052Y018028D01*
X011168Y017912D01*
X011198Y017900D01*
X008136Y017900D01*
X008300Y018064D01*
X008300Y018436D01*
X008036Y018700D01*
X007664Y018700D01*
X007400Y018436D01*
X007400Y018064D01*
X007564Y017900D01*
X007136Y017900D01*
X007300Y018064D01*
X007300Y018436D01*
X007036Y018700D01*
X006664Y018700D01*
X006400Y018436D01*
X006400Y018064D01*
X006564Y017900D01*
X005136Y017900D01*
X005300Y018064D01*
X005300Y018436D01*
X005036Y018700D01*
X004664Y018700D01*
X004400Y018436D01*
X004400Y018064D01*
X004564Y017900D01*
X003603Y017900D01*
X003530Y017827D01*
X002700Y018657D01*
X002700Y019156D01*
X002702Y019158D01*
X002740Y019250D01*
X002740Y019350D01*
X002702Y019442D01*
X002632Y019512D01*
X002540Y019550D01*
X002440Y019550D01*
X002348Y019512D01*
X002278Y019442D01*
X002240Y019350D01*
X002240Y019250D01*
X002278Y019158D01*
X002280Y019156D01*
X002280Y018483D01*
X003233Y017530D01*
X001340Y015637D01*
X001340Y012913D01*
X001463Y012790D01*
X002053Y012200D01*
X003043Y012200D01*
X003493Y011750D01*
X006223Y011750D01*
X006983Y010990D01*
X007301Y010990D01*
X007240Y010842D01*
X007240Y010678D01*
X007302Y010528D01*
X007418Y010412D01*
X007298Y010538D02*
X004443Y010538D01*
X004365Y010636D02*
X007258Y010636D01*
X007240Y010735D02*
X004286Y010735D01*
X004208Y010833D02*
X007240Y010833D01*
X007277Y010932D02*
X004103Y010932D01*
X003980Y011030D02*
X006943Y011030D01*
X006844Y011129D02*
X003856Y011129D01*
X003733Y011227D02*
X006746Y011227D01*
X006647Y011326D02*
X003559Y011326D01*
X003355Y011424D02*
X006549Y011424D01*
X006450Y011523D02*
X003150Y011523D01*
X003425Y011818D02*
X001325Y011818D01*
X001325Y011720D02*
X006253Y011720D01*
X006352Y011621D02*
X002749Y011621D01*
X003228Y012015D02*
X001325Y012015D01*
X001325Y011917D02*
X003326Y011917D01*
X003129Y012114D02*
X001325Y012114D01*
X001325Y012212D02*
X002041Y012212D01*
X001942Y012311D02*
X001325Y012311D01*
X001325Y012409D02*
X001844Y012409D01*
X001745Y012508D02*
X001325Y012508D01*
X001325Y012606D02*
X001647Y012606D01*
X001548Y012705D02*
X001325Y012705D01*
X001325Y012803D02*
X001450Y012803D01*
X001351Y012902D02*
X001325Y012902D01*
X001325Y013000D02*
X001340Y013000D01*
X001340Y013099D02*
X001325Y013099D01*
X001325Y013197D02*
X001340Y013197D01*
X001340Y013296D02*
X001325Y013296D01*
X001325Y013394D02*
X001340Y013394D01*
X001340Y013493D02*
X001325Y013493D01*
X001325Y013591D02*
X001340Y013591D01*
X001340Y013690D02*
X001325Y013690D01*
X001325Y013788D02*
X001340Y013788D01*
X001340Y013887D02*
X001325Y013887D01*
X001325Y013985D02*
X001340Y013985D01*
X001340Y014084D02*
X001325Y014084D01*
X001325Y014182D02*
X001340Y014182D01*
X001340Y014281D02*
X001325Y014281D01*
X001325Y014379D02*
X001340Y014379D01*
X001340Y014478D02*
X001325Y014478D01*
X001325Y014576D02*
X001340Y014576D01*
X001340Y014675D02*
X001325Y014675D01*
X001325Y014773D02*
X001340Y014773D01*
X001340Y014872D02*
X001325Y014872D01*
X001325Y014970D02*
X001340Y014970D01*
X001340Y015069D02*
X001325Y015069D01*
X001325Y015167D02*
X001340Y015167D01*
X001340Y015266D02*
X001325Y015266D01*
X001325Y015364D02*
X001340Y015364D01*
X001340Y015463D02*
X001325Y015463D01*
X001325Y015561D02*
X001340Y015561D01*
X001325Y015660D02*
X001363Y015660D01*
X001325Y015758D02*
X001461Y015758D01*
X001560Y015857D02*
X001325Y015857D01*
X001325Y015955D02*
X001658Y015955D01*
X001757Y016054D02*
X001325Y016054D01*
X001325Y016152D02*
X001855Y016152D01*
X001954Y016251D02*
X001325Y016251D01*
X001325Y016349D02*
X002052Y016349D01*
X002151Y016448D02*
X001325Y016448D01*
X001325Y016546D02*
X002249Y016546D01*
X002348Y016645D02*
X001325Y016645D01*
X001325Y016743D02*
X002446Y016743D01*
X002545Y016842D02*
X001325Y016842D01*
X001325Y016940D02*
X002643Y016940D01*
X002742Y017039D02*
X001325Y017039D01*
X001325Y017137D02*
X002840Y017137D01*
X002939Y017236D02*
X001325Y017236D01*
X001325Y017334D02*
X003037Y017334D01*
X003136Y017433D02*
X001325Y017433D01*
X001325Y017531D02*
X003232Y017531D01*
X003133Y017630D02*
X001325Y017630D01*
X001325Y017728D02*
X003035Y017728D01*
X002936Y017827D02*
X001325Y017827D01*
X001325Y017925D02*
X002838Y017925D01*
X002739Y018024D02*
X001325Y018024D01*
X001325Y018122D02*
X002641Y018122D01*
X002542Y018221D02*
X001325Y018221D01*
X001325Y018319D02*
X002444Y018319D01*
X002345Y018418D02*
X001325Y018418D01*
X001325Y018516D02*
X002280Y018516D01*
X002280Y018615D02*
X001325Y018615D01*
X001325Y018713D02*
X002280Y018713D01*
X002280Y018812D02*
X001325Y018812D01*
X001325Y018910D02*
X002280Y018910D01*
X002280Y019009D02*
X001325Y019009D01*
X001325Y019107D02*
X002280Y019107D01*
X002259Y019206D02*
X001325Y019206D01*
X001325Y019304D02*
X002240Y019304D01*
X002262Y019403D02*
X001325Y019403D01*
X001325Y019501D02*
X002337Y019501D01*
X002643Y019501D02*
X003373Y019501D01*
X003360Y019470D02*
X003360Y019370D01*
X003398Y019278D01*
X003468Y019208D01*
X003560Y019170D01*
X003660Y019170D01*
X003752Y019208D01*
X003804Y019260D01*
X010994Y019270D01*
X011052Y019128D01*
X011168Y019012D01*
X011318Y018950D01*
X011482Y018950D01*
X011632Y019012D01*
X011748Y019128D01*
X011810Y019278D01*
X011810Y019442D01*
X011748Y019592D01*
X011632Y019708D01*
X011482Y019770D01*
X011318Y019770D01*
X011168Y019708D01*
X011052Y019592D01*
X011051Y019590D01*
X003803Y019580D01*
X003752Y019632D01*
X003660Y019670D01*
X003560Y019670D01*
X003468Y019632D01*
X003398Y019562D01*
X003360Y019470D01*
X003360Y019403D02*
X002718Y019403D01*
X002740Y019304D02*
X003387Y019304D01*
X003474Y019206D02*
X002721Y019206D01*
X002700Y019107D02*
X011073Y019107D01*
X011020Y019206D02*
X003746Y019206D01*
X003610Y019420D02*
X011330Y019430D01*
X011400Y019360D01*
X011780Y019206D02*
X014140Y019206D01*
X014140Y019304D02*
X011810Y019304D01*
X011810Y019403D02*
X014140Y019403D01*
X014140Y019501D02*
X011785Y019501D01*
X011740Y019600D02*
X014140Y019600D01*
X014140Y019698D02*
X011642Y019698D01*
X011512Y020030D02*
X011348Y020030D01*
X011198Y020092D01*
X011082Y020208D01*
X011053Y020279D01*
X006736Y020270D01*
X006736Y020270D01*
X006670Y020270D01*
X006604Y020270D01*
X006604Y020270D01*
X006604Y020270D01*
X006557Y020317D01*
X006510Y020363D01*
X006510Y020364D01*
X006055Y020819D01*
X006036Y020800D01*
X005664Y020800D01*
X005400Y021064D01*
X005400Y021436D01*
X005664Y021700D01*
X006036Y021700D01*
X006300Y021436D01*
X006300Y021064D01*
X006281Y021045D01*
X006736Y020590D01*
X011052Y020599D01*
X011082Y020672D01*
X011198Y020788D01*
X011348Y020850D01*
X011512Y020850D01*
X011662Y020788D01*
X011778Y020672D01*
X011840Y020522D01*
X011840Y020358D01*
X011778Y020208D01*
X011662Y020092D01*
X011512Y020030D01*
X011661Y020092D02*
X014140Y020092D01*
X014140Y019994D02*
X001325Y019994D01*
X001325Y020092D02*
X011199Y020092D01*
X011100Y020191D02*
X001325Y020191D01*
X001325Y020289D02*
X006585Y020289D01*
X006486Y020388D02*
X001325Y020388D01*
X001325Y020486D02*
X006388Y020486D01*
X006289Y020585D02*
X001325Y020585D01*
X001325Y020683D02*
X006191Y020683D01*
X006092Y020782D02*
X001325Y020782D01*
X001325Y020880D02*
X004584Y020880D01*
X004664Y020800D02*
X004400Y021064D01*
X004400Y021436D01*
X004664Y021700D01*
X005036Y021700D01*
X005300Y021436D01*
X005300Y021064D01*
X005036Y020800D01*
X004664Y020800D01*
X004485Y020979D02*
X001325Y020979D01*
X001325Y021077D02*
X004400Y021077D01*
X004400Y021176D02*
X001325Y021176D01*
X001325Y021274D02*
X004400Y021274D01*
X004400Y021373D02*
X001325Y021373D01*
X001325Y021471D02*
X004435Y021471D01*
X004533Y021570D02*
X001325Y021570D01*
X001325Y021668D02*
X004632Y021668D01*
X005068Y021668D02*
X005632Y021668D01*
X005533Y021570D02*
X005167Y021570D01*
X005265Y021471D02*
X005435Y021471D01*
X005400Y021373D02*
X005300Y021373D01*
X005300Y021274D02*
X005400Y021274D01*
X005400Y021176D02*
X005300Y021176D01*
X005300Y021077D02*
X005400Y021077D01*
X005485Y020979D02*
X005215Y020979D01*
X005116Y020880D02*
X005584Y020880D01*
X005850Y021250D02*
X006670Y020430D01*
X011430Y020440D01*
X011760Y020191D02*
X014140Y020191D01*
X014140Y020289D02*
X011811Y020289D01*
X011840Y020388D02*
X014140Y020388D01*
X014140Y020486D02*
X011840Y020486D01*
X011814Y020585D02*
X014140Y020585D01*
X014140Y020683D02*
X011767Y020683D01*
X011668Y020782D02*
X014140Y020782D01*
X014140Y020880D02*
X008116Y020880D01*
X008036Y020800D02*
X008300Y021064D01*
X008300Y021436D01*
X008036Y021700D01*
X007664Y021700D01*
X007400Y021436D01*
X007400Y021064D01*
X007664Y020800D01*
X008036Y020800D01*
X008215Y020979D02*
X014140Y020979D01*
X014140Y021077D02*
X008300Y021077D01*
X008300Y021176D02*
X014140Y021176D01*
X014140Y021274D02*
X008300Y021274D01*
X008300Y021373D02*
X014140Y021373D01*
X014140Y021471D02*
X008265Y021471D01*
X008167Y021570D02*
X014140Y021570D01*
X014140Y021668D02*
X008068Y021668D01*
X007632Y021668D02*
X007068Y021668D01*
X007036Y021700D02*
X006664Y021700D01*
X006400Y021436D01*
X006400Y021064D01*
X006664Y020800D01*
X007036Y020800D01*
X007300Y021064D01*
X007300Y021436D01*
X007036Y021700D01*
X007167Y021570D02*
X007533Y021570D01*
X007435Y021471D02*
X007265Y021471D01*
X007300Y021373D02*
X007400Y021373D01*
X007400Y021274D02*
X007300Y021274D01*
X007300Y021176D02*
X007400Y021176D01*
X007400Y021077D02*
X007300Y021077D01*
X007215Y020979D02*
X007485Y020979D01*
X007584Y020880D02*
X007116Y020880D01*
X006643Y020683D02*
X011093Y020683D01*
X011192Y020782D02*
X006545Y020782D01*
X006584Y020880D02*
X006446Y020880D01*
X006485Y020979D02*
X006348Y020979D01*
X006300Y021077D02*
X006400Y021077D01*
X006400Y021176D02*
X006300Y021176D01*
X006300Y021274D02*
X006400Y021274D01*
X006400Y021373D02*
X006300Y021373D01*
X006265Y021471D02*
X006435Y021471D01*
X006533Y021570D02*
X006167Y021570D01*
X006068Y021668D02*
X006632Y021668D01*
X007618Y023002D02*
X007768Y022940D01*
X007932Y022940D01*
X008082Y023002D01*
X008198Y023118D01*
X008260Y023268D01*
X008260Y023432D01*
X008198Y023582D01*
X008082Y023698D01*
X007932Y023760D01*
X007768Y023760D01*
X007618Y023698D01*
X007502Y023582D01*
X007440Y023432D01*
X007440Y023268D01*
X007502Y023118D01*
X007618Y023002D01*
X007573Y023047D02*
X003700Y023047D01*
X003824Y023146D02*
X007491Y023146D01*
X007450Y023244D02*
X003947Y023244D01*
X004071Y023343D02*
X007440Y023343D01*
X007444Y023441D02*
X004187Y023441D01*
X004266Y023540D02*
X007485Y023540D01*
X007558Y023638D02*
X004344Y023638D01*
X004423Y023737D02*
X007712Y023737D01*
X007988Y023737D02*
X008580Y023737D01*
X008580Y023835D02*
X004501Y023835D01*
X004574Y023934D02*
X008580Y023934D01*
X008580Y024032D02*
X004621Y024032D01*
X004669Y024131D02*
X008580Y024131D01*
X008580Y024229D02*
X004716Y024229D01*
X004764Y024328D02*
X008580Y024328D01*
X008580Y024426D02*
X004811Y024426D01*
X004847Y024525D02*
X008580Y024525D01*
X008580Y024623D02*
X004869Y024623D01*
X004892Y024722D02*
X008580Y024722D01*
X008580Y024820D02*
X004914Y024820D01*
X004936Y024919D02*
X008580Y024919D01*
X008580Y025017D02*
X004959Y025017D01*
X004975Y025116D02*
X008580Y025116D01*
X008580Y025196D02*
X008580Y023474D01*
X008528Y023422D01*
X008490Y023330D01*
X008490Y023230D01*
X008528Y023138D01*
X008598Y023068D01*
X008690Y023030D01*
X008790Y023030D01*
X008882Y023068D01*
X008952Y023138D01*
X008990Y023230D01*
X008990Y023330D01*
X008952Y023422D01*
X008900Y023474D01*
X008900Y025033D01*
X008962Y025058D01*
X009032Y025128D01*
X009070Y025220D01*
X009070Y026294D01*
X009356Y026580D01*
X010414Y026580D01*
X010674Y026320D01*
X013324Y026320D01*
X014220Y025424D01*
X014220Y023614D01*
X014168Y023562D01*
X014130Y023470D01*
X014130Y023370D01*
X014168Y023278D01*
X014238Y023208D01*
X014330Y023170D01*
X014430Y023170D01*
X014522Y023208D01*
X014592Y023278D01*
X014630Y023370D01*
X014630Y023470D01*
X014592Y023562D01*
X014540Y023614D01*
X014540Y025556D01*
X013550Y026546D01*
X013456Y026640D01*
X010806Y026640D01*
X010640Y026806D01*
X010546Y026900D01*
X009224Y026900D01*
X008844Y026520D01*
X008750Y026426D01*
X008750Y025512D01*
X008678Y025482D01*
X008608Y025412D01*
X008570Y025320D01*
X008570Y025220D01*
X008580Y025196D01*
X008573Y025214D02*
X004975Y025214D01*
X004975Y025313D02*
X008570Y025313D01*
X008608Y025411D02*
X004975Y025411D01*
X004975Y025510D02*
X008745Y025510D01*
X008750Y025608D02*
X004975Y025608D01*
X004975Y025707D02*
X008750Y025707D01*
X008750Y025805D02*
X004975Y025805D01*
X004975Y025904D02*
X008750Y025904D01*
X008750Y026002D02*
X004975Y026002D01*
X004975Y026101D02*
X008750Y026101D01*
X008750Y026199D02*
X004975Y026199D01*
X004975Y026298D02*
X008750Y026298D01*
X008750Y026396D02*
X004975Y026396D01*
X004975Y026495D02*
X008818Y026495D01*
X008917Y026593D02*
X004975Y026593D01*
X004975Y026692D02*
X009015Y026692D01*
X009114Y026790D02*
X004975Y026790D01*
X004975Y026889D02*
X009212Y026889D01*
X009290Y026740D02*
X008910Y026360D01*
X008910Y025360D01*
X008820Y025270D01*
X008740Y025190D01*
X008740Y023280D01*
X008831Y023047D02*
X010923Y023047D01*
X010851Y023146D02*
X008955Y023146D01*
X008990Y023244D02*
X009438Y023244D01*
X009428Y023248D02*
X009520Y023210D01*
X009620Y023210D01*
X009712Y023248D01*
X009764Y023300D01*
X010739Y023300D01*
X011036Y022893D01*
X011030Y022880D01*
X011030Y022780D01*
X011068Y022688D01*
X011138Y022618D01*
X011230Y022580D01*
X011330Y022580D01*
X011422Y022618D01*
X011492Y022688D01*
X011530Y022780D01*
X011530Y022880D01*
X011492Y022972D01*
X011422Y023042D01*
X011330Y023080D01*
X011296Y023080D01*
X010980Y023512D01*
X010980Y023526D01*
X010942Y023564D01*
X010910Y023608D01*
X010896Y023610D01*
X010886Y023620D01*
X010832Y023620D01*
X010779Y023628D01*
X010768Y023620D01*
X009764Y023620D01*
X009712Y023672D01*
X009620Y023710D01*
X009520Y023710D01*
X009428Y023672D01*
X009358Y023602D01*
X009320Y023510D01*
X009320Y023410D01*
X009358Y023318D01*
X009428Y023248D01*
X009348Y023343D02*
X008985Y023343D01*
X008933Y023441D02*
X009320Y023441D01*
X009332Y023540D02*
X008900Y023540D01*
X008900Y023638D02*
X009394Y023638D01*
X009570Y023460D02*
X010820Y023460D01*
X011280Y022830D01*
X011457Y022653D02*
X018560Y022653D01*
X018560Y022555D02*
X001325Y022555D01*
X001325Y022456D02*
X018560Y022456D01*
X018560Y022358D02*
X008706Y022358D01*
X008682Y022382D02*
X008590Y022420D01*
X008490Y022420D01*
X008398Y022382D01*
X008336Y022320D01*
X004074Y022320D01*
X004022Y022372D01*
X003930Y022410D01*
X003830Y022410D01*
X003738Y022372D01*
X003668Y022302D01*
X003630Y022210D01*
X003630Y022110D01*
X003668Y022018D01*
X003738Y021948D01*
X003830Y021910D01*
X003930Y021910D01*
X004022Y021948D01*
X004074Y022000D01*
X008356Y022000D01*
X008398Y021958D01*
X008490Y021920D01*
X008590Y021920D01*
X008682Y021958D01*
X008752Y022028D01*
X008790Y022120D01*
X008790Y022220D01*
X008752Y022312D01*
X008682Y022382D01*
X008774Y022259D02*
X014140Y022259D01*
X014069Y022161D02*
X008790Y022161D01*
X008766Y022062D02*
X014050Y022062D01*
X014072Y021964D02*
X008687Y021964D01*
X008530Y022160D02*
X008540Y022170D01*
X008530Y022160D02*
X003880Y022160D01*
X003630Y022161D02*
X001325Y022161D01*
X001325Y022259D02*
X003650Y022259D01*
X003724Y022358D02*
X001325Y022358D01*
X001325Y022062D02*
X003650Y022062D01*
X003723Y021964D02*
X001325Y021964D01*
X001325Y021865D02*
X014140Y021865D01*
X014140Y021767D02*
X001325Y021767D01*
X002636Y022653D02*
X011103Y022653D01*
X011042Y022752D02*
X003067Y022752D01*
X003301Y022850D02*
X011030Y022850D01*
X010995Y022949D02*
X007952Y022949D01*
X008127Y023047D02*
X008649Y023047D01*
X008525Y023146D02*
X008209Y023146D01*
X008250Y023244D02*
X008490Y023244D01*
X008495Y023343D02*
X008260Y023343D01*
X008256Y023441D02*
X008547Y023441D01*
X008580Y023540D02*
X008215Y023540D01*
X008142Y023638D02*
X008580Y023638D01*
X008900Y023737D02*
X014220Y023737D01*
X014220Y023835D02*
X008900Y023835D01*
X008900Y023934D02*
X014220Y023934D01*
X014220Y024032D02*
X008900Y024032D01*
X008900Y024131D02*
X014220Y024131D01*
X014220Y024229D02*
X008900Y024229D01*
X008900Y024328D02*
X014220Y024328D01*
X014220Y024426D02*
X008900Y024426D01*
X008900Y024525D02*
X014220Y024525D01*
X014220Y024623D02*
X008900Y024623D01*
X008900Y024722D02*
X014220Y024722D01*
X014220Y024820D02*
X008900Y024820D01*
X008900Y024919D02*
X014220Y024919D01*
X014220Y025017D02*
X008900Y025017D01*
X009019Y025116D02*
X014220Y025116D01*
X014220Y025214D02*
X009067Y025214D01*
X009070Y025313D02*
X014220Y025313D01*
X014220Y025411D02*
X009070Y025411D01*
X009070Y025510D02*
X014134Y025510D01*
X014036Y025608D02*
X009070Y025608D01*
X009070Y025707D02*
X013937Y025707D01*
X013839Y025805D02*
X009070Y025805D01*
X009070Y025904D02*
X013740Y025904D01*
X013642Y026002D02*
X009070Y026002D01*
X009070Y026101D02*
X013543Y026101D01*
X013445Y026199D02*
X009070Y026199D01*
X009074Y026298D02*
X013346Y026298D01*
X013390Y026480D02*
X010740Y026480D01*
X010480Y026740D01*
X009290Y026740D01*
X009271Y026495D02*
X010499Y026495D01*
X010598Y026396D02*
X009172Y026396D01*
X010558Y026889D02*
X012981Y026889D01*
X012960Y026987D02*
X004975Y026987D01*
X004975Y027086D02*
X012788Y027086D01*
X012690Y027184D02*
X004975Y027184D01*
X004975Y027283D02*
X012248Y027283D01*
X012150Y027381D02*
X004975Y027381D01*
X004975Y027480D02*
X012051Y027480D01*
X012048Y027578D02*
X004975Y027578D01*
X004975Y027677D02*
X012048Y027677D01*
X012048Y027775D02*
X004975Y027775D01*
X004975Y027874D02*
X012104Y027874D01*
X012203Y027972D02*
X004975Y027972D01*
X004975Y028071D02*
X015644Y028071D01*
X015743Y028169D02*
X004975Y028169D01*
X004975Y028268D02*
X011263Y028268D01*
X011283Y028248D02*
X011617Y028248D01*
X011852Y028483D01*
X011852Y028817D01*
X011617Y029052D01*
X011283Y029052D01*
X011048Y028817D01*
X011048Y028483D01*
X011283Y028248D01*
X011165Y028366D02*
X004975Y028366D01*
X004975Y028465D02*
X011066Y028465D01*
X011048Y028563D02*
X004975Y028563D01*
X004975Y028662D02*
X011048Y028662D01*
X011048Y028760D02*
X004975Y028760D01*
X004975Y028859D02*
X011089Y028859D01*
X011188Y028957D02*
X004975Y028957D01*
X004975Y029056D02*
X015689Y029056D01*
X015651Y029018D02*
X015617Y029052D01*
X015283Y029052D01*
X015048Y028817D01*
X015048Y028483D01*
X015283Y028248D01*
X015617Y028248D01*
X015852Y028483D01*
X015852Y028766D01*
X016146Y029060D01*
X017466Y029060D01*
X017518Y029008D01*
X017610Y028970D01*
X017710Y028970D01*
X017802Y029008D01*
X017872Y029078D01*
X017910Y029170D01*
X017910Y029270D01*
X017872Y029362D01*
X017802Y029432D01*
X017710Y029470D01*
X017610Y029470D01*
X017518Y029432D01*
X017466Y029380D01*
X016014Y029380D01*
X015651Y029018D01*
X015788Y029154D02*
X004975Y029154D01*
X004975Y029253D02*
X015886Y029253D01*
X015985Y029351D02*
X004975Y029351D01*
X004975Y029450D02*
X017561Y029450D01*
X017759Y029450D02*
X023925Y029450D01*
X023925Y029548D02*
X004975Y029548D01*
X004975Y029647D02*
X023925Y029647D01*
X023925Y029745D02*
X004975Y029745D01*
X004975Y029844D02*
X023925Y029844D01*
X023925Y029351D02*
X017876Y029351D01*
X017910Y029253D02*
X023925Y029253D01*
X023925Y029154D02*
X017903Y029154D01*
X017849Y029056D02*
X023925Y029056D01*
X023925Y028957D02*
X016712Y028957D01*
X016617Y029052D02*
X016283Y029052D01*
X016048Y028817D01*
X016048Y028483D01*
X016283Y028248D01*
X016617Y028248D01*
X016852Y028483D01*
X016852Y028817D01*
X016617Y029052D01*
X016811Y028859D02*
X023925Y028859D01*
X023925Y028760D02*
X016852Y028760D01*
X016852Y028662D02*
X023925Y028662D01*
X023925Y028563D02*
X016852Y028563D01*
X016834Y028465D02*
X023925Y028465D01*
X023925Y028366D02*
X016735Y028366D01*
X016637Y028268D02*
X023925Y028268D01*
X023925Y028169D02*
X018357Y028169D01*
X018456Y028071D02*
X023925Y028071D01*
X023925Y027972D02*
X018554Y027972D01*
X018653Y027874D02*
X023925Y027874D01*
X023925Y027775D02*
X018751Y027775D01*
X018850Y027677D02*
X023925Y027677D01*
X023925Y027578D02*
X018948Y027578D01*
X019047Y027480D02*
X023925Y027480D01*
X023925Y027381D02*
X019145Y027381D01*
X019244Y027283D02*
X023925Y027283D01*
X023925Y027184D02*
X019342Y027184D01*
X019441Y027086D02*
X023925Y027086D01*
X023925Y026987D02*
X019539Y026987D01*
X019638Y026889D02*
X023925Y026889D01*
X023925Y026790D02*
X019736Y026790D01*
X019790Y026692D02*
X023925Y026692D01*
X023925Y026593D02*
X019790Y026593D01*
X019790Y026495D02*
X023925Y026495D01*
X023925Y026396D02*
X019790Y026396D01*
X019790Y026298D02*
X023925Y026298D01*
X023925Y026199D02*
X019790Y026199D01*
X019790Y026101D02*
X023925Y026101D01*
X023925Y026002D02*
X019790Y026002D01*
X019790Y025904D02*
X023925Y025904D01*
X023925Y025805D02*
X019790Y025805D01*
X019790Y025707D02*
X023925Y025707D01*
X023925Y025608D02*
X019790Y025608D01*
X019790Y025510D02*
X023925Y025510D01*
X023925Y025411D02*
X019790Y025411D01*
X019790Y025313D02*
X023925Y025313D01*
X023925Y025214D02*
X019790Y025214D01*
X019790Y025116D02*
X023925Y025116D01*
X023941Y025017D02*
X019790Y025017D01*
X019790Y024919D02*
X023964Y024919D01*
X023986Y024820D02*
X019790Y024820D01*
X019790Y024722D02*
X024008Y024722D01*
X024031Y024623D02*
X019790Y024623D01*
X019790Y024525D02*
X024053Y024525D01*
X024089Y024426D02*
X019790Y024426D01*
X019790Y024328D02*
X024136Y024328D01*
X024184Y024229D02*
X019790Y024229D01*
X019790Y024131D02*
X024231Y024131D01*
X024279Y024032D02*
X019790Y024032D01*
X019790Y023934D02*
X024326Y023934D01*
X024399Y023835D02*
X019790Y023835D01*
X019790Y023737D02*
X024477Y023737D01*
X024556Y023638D02*
X019790Y023638D01*
X019790Y023540D02*
X024634Y023540D01*
X024713Y023441D02*
X019790Y023441D01*
X019790Y023343D02*
X024829Y023343D01*
X024953Y023244D02*
X019790Y023244D01*
X019790Y023146D02*
X025076Y023146D01*
X025200Y023047D02*
X019790Y023047D01*
X019790Y022949D02*
X024973Y022949D01*
X024895Y022850D02*
X019790Y022850D01*
X019790Y022752D02*
X024895Y022752D01*
X024895Y022653D02*
X019790Y022653D01*
X019790Y022555D02*
X024889Y022555D01*
X024781Y022456D02*
X019790Y022456D01*
X019790Y022358D02*
X024683Y022358D01*
X024636Y022259D02*
X019790Y022259D01*
X019790Y022161D02*
X024595Y022161D01*
X024563Y022062D02*
X021647Y022062D01*
X021712Y021964D02*
X024563Y021964D01*
X024563Y021865D02*
X021726Y021865D01*
X021700Y021767D02*
X024384Y021767D01*
X024222Y021668D02*
X021686Y021668D01*
X021686Y021570D02*
X024138Y021570D01*
X024097Y021471D02*
X021686Y021471D01*
X021686Y021373D02*
X024080Y021373D01*
X024080Y021274D02*
X021686Y021274D01*
X021686Y021176D02*
X024111Y021176D01*
X024157Y021077D02*
X021686Y021077D01*
X021686Y020979D02*
X024255Y020979D01*
X024234Y020880D02*
X021686Y020880D01*
X021686Y020782D02*
X024143Y020782D01*
X024102Y020683D02*
X021686Y020683D01*
X021686Y020585D02*
X024080Y020585D01*
X024080Y020486D02*
X021687Y020486D01*
X021687Y020388D02*
X024106Y020388D01*
X024147Y020289D02*
X021687Y020289D01*
X021687Y020191D02*
X024243Y020191D01*
X024436Y020092D02*
X021687Y020092D01*
X021687Y019994D02*
X024563Y019994D01*
X024604Y019698D02*
X021687Y019698D01*
X021687Y019600D02*
X024644Y019600D01*
X024704Y019501D02*
X021687Y019501D01*
X021687Y019403D02*
X024803Y019403D01*
X024895Y019304D02*
X021687Y019304D01*
X021687Y019206D02*
X024895Y019206D01*
X024895Y019107D02*
X021687Y019107D01*
X021691Y019009D02*
X024896Y019009D01*
X025664Y019009D02*
X026146Y019009D01*
X026145Y019107D02*
X025665Y019107D01*
X025665Y019206D02*
X026145Y019206D01*
X026145Y019304D02*
X025665Y019304D01*
X025757Y019403D02*
X026053Y019403D01*
X025954Y019501D02*
X025856Y019501D01*
X026690Y018910D02*
X021720Y018910D01*
X021708Y018812D02*
X026694Y018812D01*
X026743Y018713D02*
X021687Y018713D01*
X021687Y018615D02*
X027575Y018615D01*
X027575Y018713D02*
X027137Y018713D01*
X027186Y018812D02*
X027575Y018812D01*
X027575Y018910D02*
X027190Y018910D01*
X027245Y019009D02*
X027575Y019009D01*
X027575Y019107D02*
X027319Y019107D01*
X027393Y019206D02*
X027575Y019206D01*
X027575Y019304D02*
X027468Y019304D01*
X027549Y019403D02*
X027575Y019403D01*
X027575Y019501D02*
X027560Y019501D01*
X027560Y019600D02*
X027575Y019600D01*
X027575Y019698D02*
X027560Y019698D01*
X027560Y019797D02*
X027575Y019797D01*
X027575Y019895D02*
X027560Y019895D01*
X027560Y019994D02*
X027575Y019994D01*
X027575Y020092D02*
X027560Y020092D01*
X027560Y020191D02*
X027575Y020191D01*
X027575Y020289D02*
X027560Y020289D01*
X027560Y020388D02*
X027575Y020388D01*
X027575Y020486D02*
X027560Y020486D01*
X027560Y020585D02*
X027575Y020585D01*
X027575Y020683D02*
X027560Y020683D01*
X027560Y020782D02*
X027575Y020782D01*
X027575Y020880D02*
X027560Y020880D01*
X027560Y020979D02*
X027575Y020979D01*
X027575Y021077D02*
X027560Y021077D01*
X027560Y021176D02*
X027575Y021176D01*
X027400Y021240D02*
X027330Y021310D01*
X027400Y021240D02*
X027400Y019480D01*
X026940Y018870D01*
X027575Y018516D02*
X021687Y018516D01*
X021687Y018418D02*
X027575Y018418D01*
X027575Y018319D02*
X021687Y018319D01*
X021720Y018080D02*
X021500Y018080D01*
X021476Y018104D01*
X021477Y018589D02*
X021477Y018883D01*
X021470Y018890D01*
X021232Y018812D02*
X021210Y018812D01*
X021210Y018910D02*
X021220Y018910D01*
X021210Y019009D02*
X021249Y019009D01*
X021267Y019107D02*
X021210Y019107D01*
X021210Y019206D02*
X021267Y019206D01*
X021267Y019304D02*
X021210Y019304D01*
X021210Y019403D02*
X021267Y019403D01*
X021267Y019501D02*
X021210Y019501D01*
X021210Y019600D02*
X021267Y019600D01*
X021267Y019698D02*
X021210Y019698D01*
X021210Y019797D02*
X021267Y019797D01*
X021267Y019895D02*
X021210Y019895D01*
X021210Y019994D02*
X021267Y019994D01*
X021267Y020092D02*
X021210Y020092D01*
X021210Y020191D02*
X021267Y020191D01*
X021267Y020289D02*
X021210Y020289D01*
X021210Y020388D02*
X021267Y020388D01*
X021267Y020486D02*
X021210Y020486D01*
X021210Y020585D02*
X021266Y020585D01*
X021266Y020683D02*
X021210Y020683D01*
X021155Y020782D02*
X021266Y020782D01*
X021266Y020880D02*
X021056Y020880D01*
X020958Y020979D02*
X021266Y020979D01*
X021266Y021077D02*
X020859Y021077D01*
X020761Y021176D02*
X021266Y021176D01*
X021266Y021274D02*
X020662Y021274D01*
X020564Y021373D02*
X021266Y021373D01*
X021266Y021471D02*
X020465Y021471D01*
X020367Y021570D02*
X021266Y021570D01*
X021266Y021668D02*
X020268Y021668D01*
X020170Y021767D02*
X021252Y021767D01*
X021226Y021865D02*
X020071Y021865D01*
X019973Y021964D02*
X021240Y021964D01*
X021304Y022062D02*
X019874Y022062D01*
X019630Y022080D02*
X019630Y026670D01*
X018250Y028050D01*
X015850Y028050D01*
X015450Y027650D01*
X015750Y027381D02*
X016150Y027381D01*
X016248Y027283D02*
X015652Y027283D01*
X015849Y027480D02*
X016051Y027480D01*
X016048Y027578D02*
X015852Y027578D01*
X015852Y027677D02*
X016048Y027677D01*
X016048Y027775D02*
X015852Y027775D01*
X015900Y027874D02*
X016104Y027874D01*
X016263Y028268D02*
X015637Y028268D01*
X015735Y028366D02*
X016165Y028366D01*
X016066Y028465D02*
X015834Y028465D01*
X015852Y028563D02*
X016048Y028563D01*
X016048Y028662D02*
X015852Y028662D01*
X015852Y028760D02*
X016048Y028760D01*
X016089Y028859D02*
X015945Y028859D01*
X016043Y028957D02*
X016188Y028957D01*
X016142Y029056D02*
X017471Y029056D01*
X017660Y029220D02*
X016080Y029220D01*
X015510Y028650D01*
X015450Y028650D01*
X015165Y028366D02*
X014735Y028366D01*
X014637Y028268D02*
X015263Y028268D01*
X015066Y028465D02*
X014834Y028465D01*
X014852Y028483D02*
X014617Y028248D01*
X014283Y028248D01*
X014048Y028483D01*
X014048Y028817D01*
X014283Y029052D01*
X014617Y029052D01*
X014852Y028817D01*
X014852Y028483D01*
X014852Y028563D02*
X015048Y028563D01*
X015048Y028662D02*
X014852Y028662D01*
X014852Y028760D02*
X015048Y028760D01*
X015089Y028859D02*
X014811Y028859D01*
X014712Y028957D02*
X015188Y028957D01*
X015203Y027972D02*
X014697Y027972D01*
X014796Y027874D02*
X015104Y027874D01*
X015048Y027775D02*
X014852Y027775D01*
X014852Y027677D02*
X015048Y027677D01*
X015048Y027578D02*
X014852Y027578D01*
X014849Y027480D02*
X015051Y027480D01*
X015150Y027381D02*
X014750Y027381D01*
X014652Y027283D02*
X015248Y027283D01*
X014938Y026889D02*
X017750Y026889D01*
X017767Y026790D02*
X015036Y026790D01*
X015135Y026692D02*
X017835Y026692D01*
X018000Y026880D02*
X019080Y026880D01*
X019280Y026680D01*
X019280Y023970D01*
X019290Y023960D01*
X019290Y022030D01*
X020460Y020860D01*
X020460Y018430D01*
X020225Y018516D02*
X014442Y018516D01*
X014460Y018615D02*
X020291Y018615D01*
X020300Y018713D02*
X014460Y018713D01*
X014460Y018812D02*
X019337Y018812D01*
X019443Y018812D02*
X020300Y018812D01*
X020300Y018910D02*
X019594Y018910D01*
X019639Y019009D02*
X019688Y019009D01*
X019887Y019163D02*
X019887Y021103D01*
X019020Y021970D01*
X019020Y024100D01*
X017840Y025280D01*
X016320Y025280D01*
X014380Y027220D01*
X012880Y027220D01*
X012450Y027650D01*
X012697Y027972D02*
X013203Y027972D01*
X013104Y027874D02*
X012796Y027874D01*
X012852Y027775D02*
X013048Y027775D01*
X013048Y027677D02*
X012852Y027677D01*
X012852Y027578D02*
X013048Y027578D01*
X013051Y027480D02*
X012849Y027480D01*
X012945Y027381D02*
X013150Y027381D01*
X013750Y027381D02*
X014150Y027381D01*
X014051Y027480D02*
X013849Y027480D01*
X013852Y027578D02*
X014048Y027578D01*
X014048Y027677D02*
X013852Y027677D01*
X013852Y027775D02*
X014048Y027775D01*
X014104Y027874D02*
X013796Y027874D01*
X013697Y027972D02*
X014203Y027972D01*
X014263Y028268D02*
X013637Y028268D01*
X013617Y028248D02*
X013852Y028483D01*
X013852Y028817D01*
X013617Y029052D01*
X013283Y029052D01*
X013048Y028817D01*
X013048Y028483D01*
X013283Y028248D01*
X013617Y028248D01*
X013735Y028366D02*
X014165Y028366D01*
X014066Y028465D02*
X013834Y028465D01*
X013852Y028563D02*
X014048Y028563D01*
X014048Y028662D02*
X013852Y028662D01*
X013852Y028760D02*
X014048Y028760D01*
X014089Y028859D02*
X013811Y028859D01*
X013712Y028957D02*
X014188Y028957D01*
X013188Y028957D02*
X012712Y028957D01*
X012617Y029052D02*
X012283Y029052D01*
X012048Y028817D01*
X012048Y028483D01*
X012283Y028248D01*
X012617Y028248D01*
X012852Y028483D01*
X012852Y028817D01*
X012617Y029052D01*
X012811Y028859D02*
X013089Y028859D01*
X013048Y028760D02*
X012852Y028760D01*
X012852Y028662D02*
X013048Y028662D01*
X013048Y028563D02*
X012852Y028563D01*
X012834Y028465D02*
X013066Y028465D01*
X013165Y028366D02*
X012735Y028366D01*
X012637Y028268D02*
X013263Y028268D01*
X012263Y028268D02*
X011637Y028268D01*
X011735Y028366D02*
X012165Y028366D01*
X012066Y028465D02*
X011834Y028465D01*
X011852Y028563D02*
X012048Y028563D01*
X012048Y028662D02*
X011852Y028662D01*
X011852Y028760D02*
X012048Y028760D01*
X012089Y028859D02*
X011811Y028859D01*
X011712Y028957D02*
X012188Y028957D01*
X013210Y026990D02*
X013230Y026970D01*
X014130Y026970D01*
X016100Y025000D01*
X017740Y025000D01*
X018720Y024020D01*
X018720Y021860D01*
X019390Y021190D01*
X019390Y019060D01*
X019186Y018910D02*
X014460Y018910D01*
X014460Y019009D02*
X019141Y019009D01*
X019140Y019107D02*
X014460Y019107D01*
X014460Y019206D02*
X019182Y019206D01*
X019230Y019304D02*
X014460Y019304D01*
X014460Y019403D02*
X019230Y019403D01*
X019230Y019501D02*
X014460Y019501D01*
X014460Y019600D02*
X019230Y019600D01*
X019230Y019698D02*
X014460Y019698D01*
X014460Y019797D02*
X019230Y019797D01*
X019230Y019895D02*
X014460Y019895D01*
X014460Y019994D02*
X019230Y019994D01*
X019230Y020092D02*
X014460Y020092D01*
X014460Y020191D02*
X019230Y020191D01*
X019230Y020289D02*
X014460Y020289D01*
X014460Y020388D02*
X019230Y020388D01*
X019230Y020486D02*
X014460Y020486D01*
X014460Y020585D02*
X019230Y020585D01*
X019230Y020683D02*
X014460Y020683D01*
X014460Y020782D02*
X019230Y020782D01*
X019230Y020880D02*
X014460Y020880D01*
X014460Y020979D02*
X019230Y020979D01*
X019230Y021077D02*
X016222Y021077D01*
X016271Y021097D02*
X016401Y021228D01*
X016472Y021398D01*
X016472Y021583D01*
X016401Y021754D01*
X016271Y021884D01*
X016100Y021955D01*
X015915Y021955D01*
X015744Y021884D01*
X015614Y021754D01*
X015543Y021583D01*
X015543Y021398D01*
X015614Y021228D01*
X015744Y021097D01*
X015915Y021026D01*
X016100Y021026D01*
X016271Y021097D01*
X016349Y021176D02*
X019178Y021176D01*
X019080Y021274D02*
X016420Y021274D01*
X016461Y021373D02*
X018981Y021373D01*
X018883Y021471D02*
X016472Y021471D01*
X016472Y021570D02*
X018784Y021570D01*
X018686Y021668D02*
X016437Y021668D01*
X016388Y021767D02*
X018587Y021767D01*
X018560Y021865D02*
X016290Y021865D01*
X015725Y021865D02*
X015461Y021865D01*
X015480Y021819D02*
X015409Y021990D01*
X015278Y022121D01*
X015108Y022191D01*
X014923Y022191D01*
X014752Y022121D01*
X014622Y021990D01*
X014551Y021819D01*
X014551Y021635D01*
X014622Y021464D01*
X014752Y021333D01*
X014923Y021263D01*
X015108Y021263D01*
X015278Y021333D01*
X015409Y021464D01*
X015480Y021635D01*
X015480Y021819D01*
X015480Y021767D02*
X015627Y021767D01*
X015578Y021668D02*
X015480Y021668D01*
X015453Y021570D02*
X015543Y021570D01*
X015543Y021471D02*
X015412Y021471D01*
X015318Y021373D02*
X015554Y021373D01*
X015595Y021274D02*
X015135Y021274D01*
X014896Y021274D02*
X014460Y021274D01*
X014460Y021176D02*
X015666Y021176D01*
X015793Y021077D02*
X014460Y021077D01*
X014460Y021373D02*
X014713Y021373D01*
X014619Y021471D02*
X014460Y021471D01*
X014460Y021570D02*
X014578Y021570D01*
X014551Y021668D02*
X014460Y021668D01*
X014460Y021767D02*
X014551Y021767D01*
X014570Y021865D02*
X014460Y021865D01*
X014528Y021964D02*
X014611Y021964D01*
X014550Y022062D02*
X014694Y022062D01*
X014849Y022161D02*
X014531Y022161D01*
X014460Y022259D02*
X018560Y022259D01*
X018560Y022161D02*
X015182Y022161D01*
X015337Y022062D02*
X018560Y022062D01*
X018560Y021964D02*
X015420Y021964D01*
X014300Y022066D02*
X014300Y018600D01*
X014130Y018430D01*
X014130Y014960D01*
X014790Y014300D01*
X017590Y014300D01*
X017950Y013940D01*
X017950Y013430D01*
X018041Y013197D02*
X018542Y013197D01*
X018439Y013099D02*
X017185Y013099D01*
X017190Y013197D02*
X017859Y013197D01*
X017735Y013296D02*
X017271Y013296D01*
X017378Y013394D02*
X017700Y013394D01*
X017705Y013493D02*
X017410Y013493D01*
X017401Y013591D02*
X017757Y013591D01*
X017790Y013690D02*
X017663Y013690D01*
X017733Y013788D02*
X017790Y013788D01*
X017777Y013887D02*
X017750Y013887D01*
X017500Y013880D02*
X017350Y013760D01*
X012140Y013760D01*
X011390Y012670D01*
X011766Y012508D02*
X017821Y012508D01*
X017718Y012409D02*
X011709Y012409D01*
X011594Y012311D02*
X017615Y012311D01*
X017512Y012212D02*
X009492Y012212D01*
X009544Y012114D02*
X012160Y012114D01*
X012168Y012122D02*
X012098Y012052D01*
X012060Y011960D01*
X012060Y011860D01*
X012098Y011768D01*
X012150Y011716D01*
X012150Y007744D01*
X012220Y007674D01*
X012220Y007600D01*
X012258Y007508D01*
X012328Y007438D01*
X012420Y007400D01*
X012520Y007400D01*
X012612Y007438D01*
X012682Y007508D01*
X012720Y007600D01*
X012720Y007700D01*
X012682Y007792D01*
X012612Y007862D01*
X012520Y007900D01*
X012470Y007900D01*
X012470Y011716D01*
X012522Y011768D01*
X012560Y011860D01*
X012560Y011960D01*
X012522Y012052D01*
X012452Y012122D01*
X012360Y012160D01*
X012260Y012160D01*
X012168Y012122D01*
X012083Y012015D02*
X009550Y012015D01*
X009515Y011917D02*
X012060Y011917D01*
X012078Y011818D02*
X009393Y011818D01*
X009267Y011720D02*
X012147Y011720D01*
X012150Y011621D02*
X009168Y011621D01*
X009070Y011523D02*
X012150Y011523D01*
X012150Y011424D02*
X008971Y011424D01*
X008873Y011326D02*
X012150Y011326D01*
X012150Y011227D02*
X008774Y011227D01*
X008676Y011129D02*
X012150Y011129D01*
X012150Y011030D02*
X008577Y011030D01*
X008377Y011424D02*
X007143Y011424D01*
X007044Y011523D02*
X008464Y011523D01*
X008315Y011621D02*
X006946Y011621D01*
X006847Y011720D02*
X008270Y011720D01*
X008270Y011818D02*
X006749Y011818D01*
X006650Y011917D02*
X008313Y011917D01*
X008360Y012015D02*
X006552Y012015D01*
X006453Y012114D02*
X008360Y012114D01*
X008360Y012212D02*
X003625Y012212D01*
X003526Y012311D02*
X008360Y012311D01*
X008360Y012409D02*
X003428Y012409D01*
X003329Y012508D02*
X008360Y012508D01*
X008360Y012606D02*
X003231Y012606D01*
X002814Y013030D02*
X004556Y013030D01*
X004945Y013419D01*
X004964Y013400D01*
X005336Y013400D01*
X005600Y013664D01*
X005600Y014036D01*
X005336Y014300D01*
X004964Y014300D01*
X004700Y014036D01*
X004700Y013664D01*
X004719Y013645D01*
X004424Y013350D01*
X002814Y013350D01*
X002762Y013402D01*
X002670Y013440D01*
X002570Y013440D01*
X002478Y013402D01*
X002408Y013332D01*
X002370Y013240D01*
X002370Y013140D01*
X002408Y013048D01*
X002478Y012978D01*
X002570Y012940D01*
X002670Y012940D01*
X002762Y012978D01*
X002814Y013030D01*
X002784Y013000D02*
X008360Y013000D01*
X008360Y012902D02*
X001945Y012902D01*
X001847Y013000D02*
X002456Y013000D01*
X002387Y013099D02*
X001760Y013099D01*
X001760Y013197D02*
X002370Y013197D01*
X002393Y013296D02*
X001760Y013296D01*
X001760Y013394D02*
X002470Y013394D01*
X002620Y013190D02*
X004490Y013190D01*
X005150Y013850D01*
X004846Y014182D02*
X004454Y014182D01*
X004356Y014281D02*
X004944Y014281D01*
X004747Y014084D02*
X004553Y014084D01*
X004600Y014036D02*
X004336Y014300D01*
X003964Y014300D01*
X003700Y014036D01*
X003700Y013664D01*
X003964Y013400D01*
X004336Y013400D01*
X004600Y013664D01*
X004600Y014036D01*
X004600Y013985D02*
X004700Y013985D01*
X004700Y013887D02*
X004600Y013887D01*
X004600Y013788D02*
X004700Y013788D01*
X004700Y013690D02*
X004600Y013690D01*
X004665Y013591D02*
X004527Y013591D01*
X004566Y013493D02*
X004429Y013493D01*
X004468Y013394D02*
X002770Y013394D01*
X002142Y012705D02*
X008360Y012705D01*
X008360Y012803D02*
X002044Y012803D01*
X001760Y013493D02*
X003871Y013493D01*
X003773Y013591D02*
X001760Y013591D01*
X001760Y013690D02*
X003700Y013690D01*
X003700Y013788D02*
X001760Y013788D01*
X001760Y013887D02*
X003700Y013887D01*
X003700Y013985D02*
X001760Y013985D01*
X001760Y014084D02*
X003747Y014084D01*
X003846Y014182D02*
X001760Y014182D01*
X001760Y014281D02*
X003944Y014281D01*
X004920Y013394D02*
X008360Y013394D01*
X008360Y013296D02*
X004822Y013296D01*
X004723Y013197D02*
X008360Y013197D01*
X008360Y013099D02*
X004625Y013099D01*
X005429Y013493D02*
X005871Y013493D01*
X005964Y013400D02*
X005700Y013664D01*
X005700Y014036D01*
X005964Y014300D01*
X006336Y014300D01*
X006600Y014036D01*
X006600Y013664D01*
X006336Y013400D01*
X005964Y013400D01*
X005773Y013591D02*
X005527Y013591D01*
X005600Y013690D02*
X005700Y013690D01*
X005700Y013788D02*
X005600Y013788D01*
X005600Y013887D02*
X005700Y013887D01*
X005700Y013985D02*
X005600Y013985D01*
X005553Y014084D02*
X005747Y014084D01*
X005846Y014182D02*
X005454Y014182D01*
X005356Y014281D02*
X005944Y014281D01*
X006356Y014281D02*
X006944Y014281D01*
X006964Y014300D02*
X006700Y014036D01*
X006700Y013664D01*
X006964Y013400D01*
X007336Y013400D01*
X007600Y013664D01*
X007600Y014036D01*
X007336Y014300D01*
X006964Y014300D01*
X006846Y014182D02*
X006454Y014182D01*
X006553Y014084D02*
X006747Y014084D01*
X006700Y013985D02*
X006600Y013985D01*
X006600Y013887D02*
X006700Y013887D01*
X006700Y013788D02*
X006600Y013788D01*
X006600Y013690D02*
X006700Y013690D01*
X006773Y013591D02*
X006527Y013591D01*
X006429Y013493D02*
X006871Y013493D01*
X007429Y013493D02*
X008360Y013493D01*
X008360Y013591D02*
X007527Y013591D01*
X007600Y013690D02*
X008360Y013690D01*
X008360Y013788D02*
X007600Y013788D01*
X007600Y013887D02*
X008360Y013887D01*
X008360Y013985D02*
X007600Y013985D01*
X007553Y014084D02*
X008360Y014084D01*
X008360Y014182D02*
X007454Y014182D01*
X007356Y014281D02*
X008285Y014281D01*
X008260Y014379D02*
X001760Y014379D01*
X001760Y014478D02*
X008276Y014478D01*
X008342Y014576D02*
X001760Y014576D01*
X001760Y014675D02*
X010599Y014675D01*
X010614Y014660D02*
X011052Y014660D01*
X011082Y014588D01*
X011198Y014472D01*
X011348Y014410D01*
X011512Y014410D01*
X011662Y014472D01*
X011778Y014588D01*
X011808Y014660D01*
X012830Y014660D01*
X012830Y014630D01*
X012868Y014538D01*
X012938Y014468D01*
X013030Y014430D01*
X013130Y014430D01*
X013222Y014468D01*
X013292Y014538D01*
X013330Y014630D01*
X013330Y014730D01*
X013292Y014822D01*
X013222Y014892D01*
X013130Y014930D01*
X013056Y014930D01*
X013006Y014980D01*
X011808Y014980D01*
X011778Y015052D01*
X011662Y015168D01*
X011512Y015230D01*
X011348Y015230D01*
X011198Y015168D01*
X011082Y015052D01*
X011052Y014980D01*
X010746Y014980D01*
X009956Y015770D01*
X011022Y015770D01*
X011052Y015698D01*
X011168Y015582D01*
X011318Y015520D01*
X011482Y015520D01*
X011632Y015582D01*
X011748Y015698D01*
X011810Y015848D01*
X011810Y016012D01*
X011748Y016162D01*
X011632Y016278D01*
X011482Y016340D01*
X011318Y016340D01*
X011168Y016278D01*
X011052Y016162D01*
X011022Y016090D01*
X010046Y016090D01*
X010030Y016106D01*
X009936Y016200D01*
X006026Y016200D01*
X005581Y016645D01*
X005600Y016664D01*
X005600Y017036D01*
X005336Y017300D01*
X004964Y017300D01*
X004700Y017036D01*
X004700Y016664D01*
X004964Y016400D01*
X005336Y016400D01*
X005355Y016419D01*
X005864Y015910D01*
X005316Y015910D01*
X004581Y016645D01*
X004600Y016664D01*
X004600Y017036D01*
X004336Y017300D01*
X003964Y017300D01*
X003700Y017036D01*
X003700Y016664D01*
X003964Y016400D01*
X004336Y016400D01*
X004355Y016419D01*
X005184Y015590D01*
X009684Y015590D01*
X010614Y014660D01*
X010501Y014773D02*
X001760Y014773D01*
X001760Y014872D02*
X010402Y014872D01*
X010304Y014970D02*
X001760Y014970D01*
X001760Y015069D02*
X010205Y015069D01*
X010107Y015167D02*
X001760Y015167D01*
X001760Y015266D02*
X010008Y015266D01*
X009910Y015364D02*
X001760Y015364D01*
X001760Y015463D02*
X009811Y015463D01*
X009713Y015561D02*
X001858Y015561D01*
X001957Y015660D02*
X005114Y015660D01*
X005016Y015758D02*
X002055Y015758D01*
X002154Y015857D02*
X004917Y015857D01*
X004819Y015955D02*
X002252Y015955D01*
X002351Y016054D02*
X004720Y016054D01*
X004622Y016152D02*
X002449Y016152D01*
X002548Y016251D02*
X004523Y016251D01*
X004425Y016349D02*
X002646Y016349D01*
X002745Y016448D02*
X003916Y016448D01*
X003818Y016546D02*
X002843Y016546D01*
X002942Y016645D02*
X003719Y016645D01*
X003700Y016743D02*
X003040Y016743D01*
X003139Y016842D02*
X003700Y016842D01*
X003700Y016940D02*
X003237Y016940D01*
X003336Y017039D02*
X003702Y017039D01*
X003801Y017137D02*
X003434Y017137D01*
X003533Y017236D02*
X003899Y017236D01*
X003730Y017433D02*
X011093Y017433D01*
X011028Y017334D02*
X003631Y017334D01*
X003617Y017320D02*
X003617Y017320D01*
X003432Y017925D02*
X004539Y017925D01*
X004440Y018024D02*
X003333Y018024D01*
X003235Y018122D02*
X004400Y018122D01*
X004400Y018221D02*
X003136Y018221D01*
X003038Y018319D02*
X004400Y018319D01*
X004400Y018418D02*
X002939Y018418D01*
X002841Y018516D02*
X004480Y018516D01*
X004578Y018615D02*
X002742Y018615D01*
X002700Y018713D02*
X014140Y018713D01*
X014140Y018812D02*
X002700Y018812D01*
X002700Y018910D02*
X014140Y018910D01*
X014140Y019009D02*
X011623Y019009D01*
X011727Y019107D02*
X014140Y019107D01*
X014088Y018615D02*
X011615Y018615D01*
X011724Y018516D02*
X013990Y018516D01*
X013970Y018418D02*
X011779Y018418D01*
X011810Y018319D02*
X013970Y018319D01*
X013970Y018221D02*
X011810Y018221D01*
X011787Y018122D02*
X013970Y018122D01*
X013970Y018024D02*
X011743Y018024D01*
X011645Y017925D02*
X013104Y017925D01*
X013276Y017925D02*
X013970Y017925D01*
X013970Y017827D02*
X013404Y017827D01*
X013440Y017728D02*
X013970Y017728D01*
X013970Y017630D02*
X013436Y017630D01*
X013385Y017531D02*
X013970Y017531D01*
X013970Y017433D02*
X011707Y017433D01*
X011772Y017334D02*
X013970Y017334D01*
X013970Y017236D02*
X011810Y017236D01*
X011810Y017137D02*
X013970Y017137D01*
X013970Y017039D02*
X011793Y017039D01*
X011753Y016940D02*
X013970Y016940D01*
X013970Y016842D02*
X011661Y016842D01*
X011659Y016251D02*
X013970Y016251D01*
X013970Y016349D02*
X005877Y016349D01*
X005779Y016448D02*
X006916Y016448D01*
X006964Y016400D02*
X007336Y016400D01*
X007600Y016664D01*
X007600Y017036D01*
X007336Y017300D01*
X006964Y017300D01*
X006700Y017036D01*
X006700Y016664D01*
X006964Y016400D01*
X006818Y016546D02*
X005680Y016546D01*
X005582Y016645D02*
X006719Y016645D01*
X006700Y016743D02*
X005600Y016743D01*
X005600Y016842D02*
X006700Y016842D01*
X006700Y016940D02*
X005600Y016940D01*
X005598Y017039D02*
X006702Y017039D01*
X006801Y017137D02*
X005499Y017137D01*
X005401Y017236D02*
X006899Y017236D01*
X007401Y017236D02*
X010990Y017236D01*
X010990Y017137D02*
X007499Y017137D01*
X007598Y017039D02*
X011007Y017039D01*
X011047Y016940D02*
X007600Y016940D01*
X007600Y016842D02*
X011139Y016842D01*
X011141Y016251D02*
X005976Y016251D01*
X005960Y016040D02*
X005150Y016850D01*
X004700Y016842D02*
X004600Y016842D01*
X004600Y016940D02*
X004700Y016940D01*
X004702Y017039D02*
X004598Y017039D01*
X004499Y017137D02*
X004801Y017137D01*
X004899Y017236D02*
X004401Y017236D01*
X004150Y016850D02*
X005250Y015750D01*
X009750Y015750D01*
X010680Y014820D01*
X011430Y014820D01*
X012940Y014820D01*
X013080Y014680D01*
X013312Y014773D02*
X014091Y014773D01*
X014189Y014675D02*
X013330Y014675D01*
X013308Y014576D02*
X014288Y014576D01*
X014386Y014478D02*
X013231Y014478D01*
X012929Y014478D02*
X011667Y014478D01*
X011766Y014576D02*
X012852Y014576D01*
X013016Y014970D02*
X013970Y014970D01*
X013970Y015069D02*
X011761Y015069D01*
X011663Y015167D02*
X013970Y015167D01*
X013970Y015266D02*
X010461Y015266D01*
X010362Y015364D02*
X013970Y015364D01*
X013970Y015463D02*
X010264Y015463D01*
X010165Y015561D02*
X011219Y015561D01*
X011091Y015660D02*
X010067Y015660D01*
X009968Y015758D02*
X011027Y015758D01*
X011048Y016152D02*
X009984Y016152D01*
X009870Y016040D02*
X005960Y016040D01*
X005819Y015955D02*
X005271Y015955D01*
X005173Y016054D02*
X005720Y016054D01*
X005622Y016152D02*
X005074Y016152D01*
X004976Y016251D02*
X005523Y016251D01*
X005425Y016349D02*
X004877Y016349D01*
X004916Y016448D02*
X004779Y016448D01*
X004818Y016546D02*
X004680Y016546D01*
X004719Y016645D02*
X004582Y016645D01*
X004600Y016743D02*
X004700Y016743D01*
X005161Y017925D02*
X006539Y017925D01*
X006440Y018024D02*
X005260Y018024D01*
X005300Y018122D02*
X006400Y018122D01*
X006400Y018221D02*
X005300Y018221D01*
X005300Y018319D02*
X006400Y018319D01*
X006400Y018418D02*
X005300Y018418D01*
X005220Y018516D02*
X006480Y018516D01*
X006578Y018615D02*
X005122Y018615D01*
X003784Y019600D02*
X011060Y019600D01*
X011158Y019698D02*
X001325Y019698D01*
X001325Y019600D02*
X003436Y019600D01*
X002700Y019009D02*
X011177Y019009D01*
X011185Y018615D02*
X008122Y018615D01*
X008220Y018516D02*
X011076Y018516D01*
X011021Y018418D02*
X008300Y018418D01*
X008300Y018319D02*
X010990Y018319D01*
X010990Y018221D02*
X008300Y018221D01*
X008300Y018122D02*
X011013Y018122D01*
X011057Y018024D02*
X008260Y018024D01*
X008161Y017925D02*
X011155Y017925D01*
X011752Y016152D02*
X013970Y016152D01*
X013970Y016054D02*
X011793Y016054D01*
X011810Y015955D02*
X013970Y015955D01*
X013970Y015857D02*
X011810Y015857D01*
X011773Y015758D02*
X013970Y015758D01*
X013970Y015660D02*
X011709Y015660D01*
X011581Y015561D02*
X013970Y015561D01*
X014290Y015561D02*
X019315Y015561D01*
X019290Y015660D02*
X014290Y015660D01*
X014290Y015758D02*
X019306Y015758D01*
X019373Y015857D02*
X014290Y015857D01*
X014290Y015955D02*
X019439Y015955D01*
X019541Y016054D02*
X014290Y016054D01*
X014290Y016152D02*
X019642Y016152D01*
X019744Y016251D02*
X014290Y016251D01*
X014290Y016349D02*
X019846Y016349D01*
X019947Y016448D02*
X014290Y016448D01*
X014290Y016546D02*
X020049Y016546D01*
X020151Y016645D02*
X014290Y016645D01*
X014290Y016743D02*
X020252Y016743D01*
X020354Y016842D02*
X014290Y016842D01*
X014290Y016940D02*
X020456Y016940D01*
X020557Y017039D02*
X016592Y017039D01*
X016662Y017137D02*
X020659Y017137D01*
X020761Y017236D02*
X016680Y017236D01*
X016658Y017334D02*
X020862Y017334D01*
X020964Y017433D02*
X016640Y017433D01*
X016640Y017531D02*
X021065Y017531D01*
X021150Y017390D02*
X022710Y017380D01*
X022760Y017430D01*
X022991Y017334D02*
X022997Y017334D01*
X022993Y017339D02*
X023340Y016959D01*
X023339Y016785D01*
X023332Y016802D01*
X023262Y016872D01*
X023170Y016910D01*
X023070Y016910D01*
X022978Y016872D01*
X022908Y016802D01*
X022870Y016710D01*
X022870Y016636D01*
X022774Y016540D01*
X022680Y016446D01*
X022680Y012174D01*
X022628Y012122D01*
X022590Y012030D01*
X022590Y011930D01*
X022598Y011910D01*
X018784Y011910D01*
X018732Y011962D01*
X018640Y012000D01*
X018540Y012000D01*
X018516Y011990D01*
X020080Y013554D01*
X020080Y015334D01*
X020296Y015550D01*
X020756Y015550D01*
X020850Y015644D01*
X021006Y015800D01*
X021070Y015800D01*
X021162Y015838D01*
X021232Y015908D01*
X021270Y016000D01*
X021270Y016100D01*
X021232Y016192D01*
X021162Y016262D01*
X021070Y016300D01*
X020970Y016300D01*
X020878Y016262D01*
X020808Y016192D01*
X020770Y016100D01*
X020770Y016016D01*
X020699Y015945D01*
X020730Y016020D01*
X020730Y016120D01*
X020692Y016212D01*
X020622Y016282D01*
X020530Y016320D01*
X020430Y016320D01*
X020338Y016282D01*
X020268Y016212D01*
X020230Y016120D01*
X020230Y016080D01*
X020076Y016080D01*
X020058Y016091D01*
X020033Y016085D01*
X021214Y017230D01*
X022616Y017221D01*
X022618Y017218D01*
X022710Y017180D01*
X022810Y017180D01*
X022902Y017218D01*
X022972Y017288D01*
X022993Y017339D01*
X022919Y017236D02*
X023087Y017236D01*
X023177Y017137D02*
X021119Y017137D01*
X021017Y017039D02*
X023267Y017039D01*
X023340Y016940D02*
X020916Y016940D01*
X020814Y016842D02*
X022948Y016842D01*
X022884Y016743D02*
X020712Y016743D01*
X020611Y016645D02*
X022870Y016645D01*
X022780Y016546D02*
X020509Y016546D01*
X020407Y016448D02*
X022681Y016448D01*
X022680Y016349D02*
X020306Y016349D01*
X020307Y016251D02*
X020204Y016251D01*
X020243Y016152D02*
X020102Y016152D01*
X020030Y015920D02*
X020340Y015920D01*
X020480Y016070D01*
X020653Y016251D02*
X020867Y016251D01*
X020792Y016152D02*
X020717Y016152D01*
X020730Y016054D02*
X020770Y016054D01*
X020709Y015955D02*
X020703Y015955D01*
X020690Y015710D02*
X020230Y015710D01*
X019920Y015400D01*
X019920Y013620D01*
X012950Y006650D01*
X013352Y006696D02*
X013548Y006696D01*
X013548Y006598D02*
X013352Y006598D01*
X013352Y006499D02*
X013548Y006499D01*
X013630Y006401D02*
X013270Y006401D01*
X013171Y006302D02*
X013729Y006302D01*
X013737Y006007D02*
X004975Y006007D01*
X004975Y006105D02*
X014229Y006105D01*
X014327Y006204D02*
X004975Y006204D01*
X004975Y006302D02*
X009951Y006302D01*
X010109Y006302D02*
X010617Y006302D01*
X010846Y006540D02*
X010856Y006530D01*
X010846Y006540D02*
X010030Y006540D01*
X010030Y006780D01*
X008360Y008450D01*
X009270Y009360D01*
X009270Y010760D01*
X010220Y009810D01*
X010900Y009810D01*
X010986Y010045D02*
X012150Y010045D01*
X012150Y009947D02*
X011114Y009947D01*
X011150Y009848D02*
X012150Y009848D01*
X012150Y009750D02*
X011146Y009750D01*
X011095Y009651D02*
X012150Y009651D01*
X012150Y009553D02*
X009430Y009553D01*
X009430Y009651D02*
X010153Y009651D01*
X010054Y009750D02*
X009430Y009750D01*
X009430Y009848D02*
X009956Y009848D01*
X009857Y009947D02*
X009430Y009947D01*
X009430Y010045D02*
X009759Y010045D01*
X009660Y010144D02*
X009430Y010144D01*
X009430Y010242D02*
X009562Y010242D01*
X009463Y010341D02*
X009430Y010341D01*
X009110Y010439D02*
X007909Y010439D01*
X008002Y010538D02*
X009110Y010538D01*
X009051Y010636D02*
X008042Y010636D01*
X008060Y010735D02*
X009020Y010735D01*
X009030Y010833D02*
X008060Y010833D01*
X008023Y010932D02*
X009088Y010932D01*
X009452Y010932D02*
X012150Y010932D01*
X012150Y010833D02*
X009510Y010833D01*
X009522Y010735D02*
X012150Y010735D01*
X012150Y010636D02*
X009620Y010636D01*
X009719Y010538D02*
X012150Y010538D01*
X012150Y010439D02*
X009817Y010439D01*
X009916Y010341D02*
X012150Y010341D01*
X012150Y010242D02*
X010014Y010242D01*
X010113Y010144D02*
X012150Y010144D01*
X012470Y010144D02*
X015350Y010144D01*
X015453Y010242D02*
X012470Y010242D01*
X012470Y010341D02*
X015556Y010341D01*
X015659Y010439D02*
X012470Y010439D01*
X012470Y010538D02*
X015762Y010538D01*
X015865Y010636D02*
X012470Y010636D01*
X012470Y010735D02*
X015968Y010735D01*
X016071Y010833D02*
X012470Y010833D01*
X012470Y010932D02*
X016174Y010932D01*
X016277Y011030D02*
X012470Y011030D01*
X012470Y011129D02*
X016380Y011129D01*
X016483Y011227D02*
X012470Y011227D01*
X012470Y011326D02*
X016586Y011326D01*
X016689Y011424D02*
X012470Y011424D01*
X012470Y011523D02*
X016792Y011523D01*
X016895Y011621D02*
X012470Y011621D01*
X012473Y011720D02*
X016998Y011720D01*
X017101Y011818D02*
X012542Y011818D01*
X012560Y011917D02*
X017204Y011917D01*
X017307Y012015D02*
X012537Y012015D01*
X012460Y012114D02*
X017409Y012114D01*
X017730Y011790D02*
X017750Y011790D01*
X019750Y013790D01*
X019750Y015470D01*
X020030Y015920D01*
X020209Y015463D02*
X022680Y015463D01*
X022680Y015561D02*
X020767Y015561D01*
X020866Y015660D02*
X022680Y015660D01*
X022680Y015758D02*
X020964Y015758D01*
X021180Y015857D02*
X022680Y015857D01*
X022680Y015955D02*
X021251Y015955D01*
X021270Y016054D02*
X022680Y016054D01*
X022680Y016152D02*
X021248Y016152D01*
X021173Y016251D02*
X022680Y016251D01*
X022840Y016380D02*
X022840Y011980D01*
X022596Y011917D02*
X018777Y011917D01*
X018640Y012114D02*
X022625Y012114D01*
X022590Y012015D02*
X018541Y012015D01*
X018590Y011750D02*
X024030Y011750D01*
X027390Y015110D01*
X027390Y016610D01*
X027470Y016610D01*
X027484Y016842D02*
X027575Y016842D01*
X027575Y016940D02*
X025575Y016940D01*
X025600Y017039D02*
X027575Y017039D01*
X027575Y017137D02*
X025585Y017137D01*
X025518Y017236D02*
X027575Y017236D01*
X027575Y017334D02*
X023566Y017334D01*
X023476Y017433D02*
X027575Y017433D01*
X027575Y017531D02*
X023386Y017531D01*
X023296Y017630D02*
X027575Y017630D01*
X027575Y017728D02*
X023206Y017728D01*
X023116Y017827D02*
X027575Y017827D01*
X027575Y017925D02*
X023026Y017925D01*
X022936Y018024D02*
X027575Y018024D01*
X027575Y018122D02*
X022846Y018122D01*
X022756Y018221D02*
X027575Y018221D01*
X027296Y016842D02*
X025495Y016842D01*
X024122Y016349D02*
X027230Y016349D01*
X027230Y016251D02*
X024130Y016251D01*
X024098Y016152D02*
X027230Y016152D01*
X027230Y016054D02*
X024041Y016054D01*
X024041Y015955D02*
X027230Y015955D01*
X027230Y015857D02*
X024042Y015857D01*
X024042Y015758D02*
X027230Y015758D01*
X027230Y015660D02*
X024043Y015660D01*
X024043Y015561D02*
X027230Y015561D01*
X027230Y015463D02*
X024043Y015463D01*
X024044Y015364D02*
X027230Y015364D01*
X027230Y015266D02*
X024044Y015266D01*
X024045Y015167D02*
X027221Y015167D01*
X027122Y015069D02*
X024045Y015069D01*
X024045Y014970D02*
X027024Y014970D01*
X026925Y014872D02*
X024046Y014872D01*
X024046Y014773D02*
X026827Y014773D01*
X026728Y014675D02*
X024047Y014675D01*
X024047Y014576D02*
X026630Y014576D01*
X026531Y014478D02*
X024047Y014478D01*
X024048Y014379D02*
X026433Y014379D01*
X026334Y014281D02*
X024048Y014281D01*
X024049Y014182D02*
X026236Y014182D01*
X026137Y014084D02*
X024049Y014084D01*
X024105Y013985D02*
X026039Y013985D01*
X025940Y013887D02*
X024140Y013887D01*
X024135Y013788D02*
X025842Y013788D01*
X025743Y013690D02*
X024083Y013690D01*
X023890Y013850D02*
X023880Y016280D01*
X024066Y016448D02*
X027199Y016448D01*
X027146Y016546D02*
X023758Y016546D01*
X023758Y016645D02*
X027140Y016645D01*
X027175Y016743D02*
X023759Y016743D01*
X023339Y016842D02*
X023292Y016842D01*
X023120Y016660D02*
X022840Y016380D01*
X022680Y015364D02*
X020110Y015364D01*
X020080Y015266D02*
X022680Y015266D01*
X022680Y015167D02*
X020080Y015167D01*
X020080Y015069D02*
X022680Y015069D01*
X022680Y014970D02*
X020080Y014970D01*
X020080Y014872D02*
X022680Y014872D01*
X022680Y014773D02*
X020080Y014773D01*
X020080Y014675D02*
X022680Y014675D01*
X022680Y014576D02*
X020080Y014576D01*
X020080Y014478D02*
X022680Y014478D01*
X022680Y014379D02*
X020080Y014379D01*
X020080Y014281D02*
X022680Y014281D01*
X022680Y014182D02*
X020080Y014182D01*
X020080Y014084D02*
X022680Y014084D01*
X022680Y013985D02*
X020080Y013985D01*
X020080Y013887D02*
X022680Y013887D01*
X022680Y013788D02*
X020080Y013788D01*
X020080Y013690D02*
X022680Y013690D01*
X022680Y013591D02*
X020080Y013591D01*
X020019Y013493D02*
X022680Y013493D01*
X022680Y013394D02*
X019920Y013394D01*
X019822Y013296D02*
X022680Y013296D01*
X022680Y013197D02*
X019723Y013197D01*
X019625Y013099D02*
X022680Y013099D01*
X022680Y013000D02*
X019526Y013000D01*
X019428Y012902D02*
X022680Y012902D01*
X022680Y012803D02*
X019329Y012803D01*
X019231Y012705D02*
X022680Y012705D01*
X022680Y012606D02*
X019132Y012606D01*
X019034Y012508D02*
X022680Y012508D01*
X022680Y012409D02*
X018935Y012409D01*
X018837Y012311D02*
X022680Y012311D01*
X022680Y012212D02*
X018738Y012212D01*
X018590Y011750D02*
X015950Y009110D01*
X015745Y008962D02*
X015488Y008962D01*
X015389Y008863D02*
X015893Y008863D01*
X016007Y008863D02*
X016327Y008863D01*
X016213Y008765D02*
X015291Y008765D01*
X015192Y008666D02*
X016096Y008666D01*
X015979Y008568D02*
X015094Y008568D01*
X014995Y008469D02*
X015862Y008469D01*
X015745Y008371D02*
X014897Y008371D01*
X014798Y008272D02*
X015628Y008272D01*
X015511Y008174D02*
X014700Y008174D01*
X014601Y008075D02*
X015394Y008075D01*
X015277Y007977D02*
X014503Y007977D01*
X014404Y007878D02*
X015160Y007878D01*
X015043Y007780D02*
X014306Y007780D01*
X014207Y007681D02*
X014926Y007681D01*
X014809Y007583D02*
X014109Y007583D01*
X014010Y007484D02*
X014692Y007484D01*
X014575Y007386D02*
X013912Y007386D01*
X013813Y007287D02*
X014458Y007287D01*
X014341Y007189D02*
X013715Y007189D01*
X013616Y007090D02*
X014224Y007090D01*
X014487Y006893D02*
X014624Y006893D01*
X014604Y006992D02*
X014722Y006992D01*
X014721Y007090D02*
X015459Y007090D01*
X015580Y007189D02*
X014838Y007189D01*
X014955Y007287D02*
X015702Y007287D01*
X015823Y007386D02*
X015072Y007386D01*
X015189Y007484D02*
X015944Y007484D01*
X016065Y007583D02*
X015306Y007583D01*
X015423Y007681D02*
X016186Y007681D01*
X016307Y007780D02*
X015540Y007780D01*
X015657Y007878D02*
X016428Y007878D01*
X016549Y007977D02*
X015774Y007977D01*
X015891Y008075D02*
X016671Y008075D01*
X016792Y008174D02*
X016008Y008174D01*
X016125Y008272D02*
X016913Y008272D01*
X017034Y008371D02*
X016242Y008371D01*
X016358Y008469D02*
X017153Y008469D01*
X017250Y008340D02*
X015430Y006860D01*
X015430Y006140D01*
X015380Y006090D01*
X014440Y006090D01*
X014000Y005650D01*
X013950Y005650D01*
X014352Y005613D02*
X014548Y005613D01*
X014548Y005711D02*
X014352Y005711D01*
X014386Y005810D02*
X014548Y005810D01*
X014484Y005908D02*
X014639Y005908D01*
X014729Y006302D02*
X014171Y006302D01*
X014270Y006401D02*
X014630Y006401D01*
X014548Y006499D02*
X014352Y006499D01*
X014352Y006598D02*
X014548Y006598D01*
X014548Y006696D02*
X014352Y006696D01*
X014370Y006795D02*
X014548Y006795D01*
X013950Y006650D02*
X016420Y008730D01*
X021920Y008730D01*
X022014Y008962D02*
X023925Y008962D01*
X023925Y009060D02*
X022062Y009060D01*
X022160Y009159D02*
X023925Y009159D01*
X023935Y009257D02*
X022190Y009257D01*
X022179Y009356D02*
X023958Y009356D01*
X023980Y009454D02*
X022120Y009454D01*
X021940Y009280D02*
X016720Y009280D01*
X016620Y009380D01*
X016501Y009159D02*
X016225Y009159D01*
X016323Y009257D02*
X016400Y009257D01*
X016920Y009590D02*
X016950Y009590D01*
X016920Y009590D02*
X020360Y009610D01*
X020558Y009454D02*
X021760Y009454D01*
X021373Y009750D02*
X024048Y009750D01*
X024025Y009651D02*
X020610Y009651D01*
X020607Y009553D02*
X024003Y009553D01*
X024077Y009848D02*
X021448Y009848D01*
X021470Y009947D02*
X024124Y009947D01*
X024171Y010045D02*
X021451Y010045D01*
X021380Y010144D02*
X024219Y010144D01*
X024266Y010242D02*
X017308Y010242D01*
X017407Y010341D02*
X017727Y010341D01*
X017630Y010439D02*
X017505Y010439D01*
X017480Y010144D02*
X021060Y010144D01*
X021220Y009950D02*
X017320Y009950D01*
X017973Y010341D02*
X020426Y010341D01*
X020580Y010540D02*
X017870Y010540D01*
X017850Y010560D01*
X018100Y010790D02*
X018240Y010790D01*
X022510Y010790D01*
X022710Y010590D01*
X022777Y010833D02*
X023021Y010833D01*
X022919Y010735D02*
X024614Y010735D01*
X024692Y010833D02*
X023279Y010833D01*
X023372Y010932D02*
X024797Y010932D01*
X024920Y011030D02*
X023400Y011030D01*
X023388Y011129D02*
X025044Y011129D01*
X025167Y011227D02*
X023327Y011227D01*
X022960Y010636D02*
X024535Y010636D01*
X024457Y010538D02*
X022959Y010538D01*
X022913Y010439D02*
X024378Y010439D01*
X024314Y010341D02*
X022761Y010341D01*
X022659Y010341D02*
X020734Y010341D01*
X020809Y010439D02*
X022507Y010439D01*
X022461Y010538D02*
X020830Y010538D01*
X020500Y011030D02*
X018174Y011030D01*
X018195Y011129D02*
X020512Y011129D01*
X020573Y011227D02*
X018293Y011227D01*
X018392Y011326D02*
X025341Y011326D01*
X025545Y011424D02*
X018490Y011424D01*
X018694Y011523D02*
X025750Y011523D01*
X026151Y011621D02*
X024127Y011621D01*
X024226Y011720D02*
X027575Y011720D01*
X027575Y011818D02*
X024324Y011818D01*
X024423Y011917D02*
X027575Y011917D01*
X027575Y012015D02*
X024521Y012015D01*
X024620Y012114D02*
X027575Y012114D01*
X027575Y012212D02*
X024718Y012212D01*
X024817Y012311D02*
X027575Y012311D01*
X027575Y012409D02*
X024915Y012409D01*
X025014Y012508D02*
X027575Y012508D01*
X027575Y012606D02*
X025112Y012606D01*
X025211Y012705D02*
X027575Y012705D01*
X027575Y012803D02*
X025309Y012803D01*
X025408Y012902D02*
X027575Y012902D01*
X027575Y013000D02*
X025506Y013000D01*
X025605Y013099D02*
X027575Y013099D01*
X027575Y013197D02*
X025703Y013197D01*
X025802Y013296D02*
X027575Y013296D01*
X027575Y013394D02*
X025900Y013394D01*
X025999Y013493D02*
X027575Y013493D01*
X027575Y013591D02*
X026097Y013591D01*
X026196Y013690D02*
X027575Y013690D01*
X027575Y013788D02*
X026294Y013788D01*
X026393Y013887D02*
X027575Y013887D01*
X027575Y013985D02*
X026491Y013985D01*
X026590Y014084D02*
X027575Y014084D01*
X027575Y014182D02*
X026688Y014182D01*
X026787Y014281D02*
X027575Y014281D01*
X027575Y014379D02*
X026885Y014379D01*
X026984Y014478D02*
X027575Y014478D01*
X027575Y014576D02*
X027082Y014576D01*
X027181Y014675D02*
X027575Y014675D01*
X027575Y014773D02*
X027279Y014773D01*
X027378Y014872D02*
X027575Y014872D01*
X027575Y014970D02*
X027476Y014970D01*
X027550Y015069D02*
X027575Y015069D01*
X027575Y015167D02*
X027550Y015167D01*
X027550Y015266D02*
X027575Y015266D01*
X027575Y015364D02*
X027550Y015364D01*
X027550Y015463D02*
X027575Y015463D01*
X027575Y015561D02*
X027550Y015561D01*
X027550Y015660D02*
X027575Y015660D01*
X027575Y015758D02*
X027550Y015758D01*
X027550Y015857D02*
X027575Y015857D01*
X027575Y015955D02*
X027550Y015955D01*
X027550Y016054D02*
X027575Y016054D01*
X027575Y016152D02*
X027550Y016152D01*
X027550Y016251D02*
X027575Y016251D01*
X027575Y016349D02*
X027550Y016349D01*
X025645Y013591D02*
X023783Y013591D01*
X023800Y013493D02*
X025546Y013493D01*
X025448Y013394D02*
X023777Y013394D01*
X023760Y013296D02*
X025349Y013296D01*
X025251Y013197D02*
X023760Y013197D01*
X023760Y013099D02*
X025152Y013099D01*
X025054Y013000D02*
X023760Y013000D01*
X023760Y012902D02*
X024955Y012902D01*
X024857Y012803D02*
X023760Y012803D01*
X023760Y012705D02*
X024758Y012705D01*
X024660Y012606D02*
X023760Y012606D01*
X023760Y012508D02*
X024561Y012508D01*
X024463Y012409D02*
X023760Y012409D01*
X023760Y012311D02*
X024364Y012311D01*
X024266Y012212D02*
X023760Y012212D01*
X023790Y012114D02*
X024167Y012114D01*
X024069Y012015D02*
X023800Y012015D01*
X023769Y011917D02*
X023970Y011917D01*
X023180Y012800D02*
X023180Y014920D01*
X021020Y016040D02*
X020690Y015710D01*
X021020Y016040D02*
X021020Y016050D01*
X021150Y017390D02*
X019540Y015830D01*
X019540Y015670D01*
X019540Y013930D01*
X014940Y009530D01*
X014761Y009356D02*
X012470Y009356D01*
X012470Y009454D02*
X014701Y009454D01*
X014690Y009553D02*
X012470Y009553D01*
X012470Y009651D02*
X014720Y009651D01*
X014817Y009750D02*
X012470Y009750D01*
X012470Y009848D02*
X015041Y009848D01*
X015144Y009947D02*
X012470Y009947D01*
X012470Y010045D02*
X015247Y010045D01*
X015260Y009340D02*
X017320Y011400D01*
X017340Y011400D01*
X018240Y010820D02*
X018240Y010790D01*
X017940Y012740D02*
X014610Y012740D01*
X014300Y013010D01*
X012560Y013010D01*
X012310Y013000D02*
X011811Y013000D01*
X011744Y012902D02*
X012334Y012902D01*
X012413Y012803D02*
X011779Y012803D01*
X011800Y012705D02*
X014407Y012705D01*
X014518Y012606D02*
X011800Y012606D01*
X011879Y013099D02*
X011988Y013099D01*
X012180Y013260D02*
X014310Y013260D01*
X014710Y012920D01*
X016700Y012920D01*
X016940Y013160D01*
X017134Y013000D02*
X018336Y013000D01*
X018233Y012902D02*
X018132Y012902D01*
X017748Y012902D02*
X016908Y012902D01*
X017160Y013520D02*
X012930Y013530D01*
X012707Y012803D02*
X014294Y012803D01*
X014583Y014281D02*
X011774Y014281D01*
X011755Y014281D02*
X008735Y014281D01*
X008760Y014379D02*
X014485Y014379D01*
X014740Y014576D02*
X019380Y014576D01*
X019380Y014478D02*
X014839Y014478D01*
X014642Y014675D02*
X019380Y014675D01*
X019380Y014773D02*
X014543Y014773D01*
X014445Y014872D02*
X019380Y014872D01*
X019380Y014970D02*
X014346Y014970D01*
X014290Y015069D02*
X019380Y015069D01*
X019380Y015167D02*
X014290Y015167D01*
X014290Y015266D02*
X019380Y015266D01*
X019380Y015364D02*
X014290Y015364D01*
X014290Y015463D02*
X019380Y015463D01*
X019380Y014379D02*
X017737Y014379D01*
X017836Y014281D02*
X019380Y014281D01*
X019380Y014182D02*
X017934Y014182D01*
X018033Y014084D02*
X019380Y014084D01*
X019366Y013985D02*
X018110Y013985D01*
X018110Y013887D02*
X019263Y013887D01*
X019160Y013788D02*
X018110Y013788D01*
X018110Y013690D02*
X019057Y013690D01*
X018954Y013591D02*
X018143Y013591D01*
X018195Y013493D02*
X018851Y013493D01*
X018748Y013394D02*
X018200Y013394D01*
X018165Y013296D02*
X018645Y013296D01*
X017170Y014060D02*
X011820Y014120D01*
X011430Y013730D01*
X011051Y013887D02*
X008680Y013887D01*
X008680Y013985D02*
X011105Y013985D01*
X011212Y014084D02*
X008680Y014084D01*
X008680Y014182D02*
X011656Y014182D01*
X011193Y014478D02*
X008744Y014478D01*
X008678Y014576D02*
X011094Y014576D01*
X011099Y015069D02*
X010658Y015069D01*
X010559Y015167D02*
X011197Y015167D01*
X011400Y015930D02*
X009980Y015930D01*
X009870Y016040D01*
X008510Y014390D02*
X008520Y014380D01*
X008520Y011770D01*
X008727Y011917D02*
X008870Y011917D01*
X008968Y012015D02*
X008680Y012015D01*
X008680Y012114D02*
X009056Y012114D01*
X009108Y012212D02*
X008680Y012212D01*
X008680Y012311D02*
X011186Y012311D01*
X011071Y012409D02*
X008680Y012409D01*
X008680Y012508D02*
X011014Y012508D01*
X010980Y012606D02*
X008680Y012606D01*
X008680Y012705D02*
X010980Y012705D01*
X011001Y012803D02*
X008680Y012803D01*
X008680Y012902D02*
X011042Y012902D01*
X011140Y013000D02*
X008680Y013000D01*
X008680Y013099D02*
X011491Y013099D01*
X011558Y013197D02*
X008680Y013197D01*
X008680Y013296D02*
X011626Y013296D01*
X011674Y013394D02*
X011694Y013394D01*
X011186Y013394D02*
X008680Y013394D01*
X008680Y013493D02*
X011088Y013493D01*
X011044Y013591D02*
X008680Y013591D01*
X008680Y013690D02*
X011020Y013690D01*
X011020Y013788D02*
X008680Y013788D01*
X008770Y011818D02*
X008771Y011818D01*
X010211Y010045D02*
X010814Y010045D01*
X012150Y009454D02*
X009430Y009454D01*
X009430Y009356D02*
X012150Y009356D01*
X012150Y009257D02*
X009393Y009257D01*
X009295Y009159D02*
X012150Y009159D01*
X012150Y009060D02*
X009196Y009060D01*
X009098Y008962D02*
X012150Y008962D01*
X012150Y008863D02*
X008999Y008863D01*
X008901Y008765D02*
X012150Y008765D01*
X012150Y008666D02*
X008802Y008666D01*
X008704Y008568D02*
X012150Y008568D01*
X012150Y008469D02*
X008610Y008469D01*
X008666Y008371D02*
X012150Y008371D01*
X012150Y008272D02*
X008764Y008272D01*
X008863Y008174D02*
X012150Y008174D01*
X012150Y008075D02*
X008961Y008075D01*
X009060Y007977D02*
X012150Y007977D01*
X012150Y007878D02*
X009158Y007878D01*
X009257Y007780D02*
X012150Y007780D01*
X012213Y007681D02*
X009355Y007681D01*
X009454Y007583D02*
X012227Y007583D01*
X012282Y007484D02*
X009552Y007484D01*
X009651Y007386D02*
X010231Y007386D01*
X010122Y007287D02*
X009749Y007287D01*
X009848Y007189D02*
X010090Y007189D01*
X010098Y007090D02*
X009946Y007090D01*
X010045Y006992D02*
X010155Y006992D01*
X010143Y006893D02*
X010381Y006893D01*
X010490Y007010D02*
X010856Y007010D01*
X011143Y006992D02*
X012722Y006992D01*
X012624Y006893D02*
X011143Y006893D01*
X011107Y006795D02*
X012548Y006795D01*
X012548Y006696D02*
X011143Y006696D01*
X011143Y006598D02*
X012548Y006598D01*
X012548Y006499D02*
X011143Y006499D01*
X011143Y006401D02*
X012630Y006401D01*
X012729Y006302D02*
X011095Y006302D01*
X010605Y006795D02*
X010190Y006795D01*
X010490Y007010D02*
X010340Y007160D01*
X010449Y007386D02*
X013459Y007386D01*
X013558Y007484D02*
X012658Y007484D01*
X012713Y007583D02*
X013656Y007583D01*
X013755Y007681D02*
X012720Y007681D01*
X012687Y007780D02*
X013853Y007780D01*
X013952Y007878D02*
X012573Y007878D01*
X012470Y007977D02*
X014050Y007977D01*
X014149Y008075D02*
X012470Y008075D01*
X012470Y008174D02*
X014247Y008174D01*
X014346Y008272D02*
X012470Y008272D01*
X012470Y008371D02*
X014444Y008371D01*
X014543Y008469D02*
X012470Y008469D01*
X012470Y008568D02*
X014641Y008568D01*
X014740Y008666D02*
X012470Y008666D01*
X012470Y008765D02*
X014838Y008765D01*
X014937Y008863D02*
X012470Y008863D01*
X012470Y008962D02*
X015035Y008962D01*
X015134Y009060D02*
X012470Y009060D01*
X012470Y009159D02*
X015088Y009159D01*
X015024Y009257D02*
X012470Y009257D01*
X012310Y007810D02*
X012470Y007650D01*
X012310Y007810D02*
X012310Y011910D01*
X013242Y014872D02*
X013992Y014872D01*
X013970Y016448D02*
X007384Y016448D01*
X007482Y016546D02*
X013970Y016546D01*
X013970Y016645D02*
X007581Y016645D01*
X007600Y016743D02*
X013970Y016743D01*
X014290Y017039D02*
X016268Y017039D01*
X016198Y017137D02*
X014290Y017137D01*
X014290Y017236D02*
X016180Y017236D01*
X016202Y017334D02*
X014290Y017334D01*
X014290Y017433D02*
X016220Y017433D01*
X016220Y017531D02*
X014290Y017531D01*
X014290Y017630D02*
X016220Y017630D01*
X016220Y017728D02*
X014290Y017728D01*
X014290Y017827D02*
X016220Y017827D01*
X016278Y017925D02*
X014290Y017925D01*
X014290Y018024D02*
X016377Y018024D01*
X016475Y018122D02*
X014290Y018122D01*
X014290Y018221D02*
X016574Y018221D01*
X016774Y017827D02*
X022547Y017827D01*
X022637Y017728D02*
X016675Y017728D01*
X016640Y017630D02*
X022606Y017630D01*
X021267Y018615D02*
X021239Y018615D01*
X021267Y018713D02*
X021210Y018713D01*
X021050Y018450D02*
X021050Y020660D01*
X019630Y022080D01*
X020047Y020979D02*
X020115Y020979D01*
X020047Y020880D02*
X020214Y020880D01*
X020300Y020782D02*
X020047Y020782D01*
X020047Y020683D02*
X020300Y020683D01*
X020300Y020585D02*
X020047Y020585D01*
X020047Y020486D02*
X020300Y020486D01*
X020300Y020388D02*
X020047Y020388D01*
X020047Y020289D02*
X020300Y020289D01*
X020300Y020191D02*
X020047Y020191D01*
X020047Y020092D02*
X020300Y020092D01*
X020300Y019994D02*
X020047Y019994D01*
X020047Y019895D02*
X020300Y019895D01*
X020300Y019797D02*
X020047Y019797D01*
X020047Y019698D02*
X020300Y019698D01*
X020300Y019600D02*
X020047Y019600D01*
X020047Y019501D02*
X020300Y019501D01*
X020300Y019403D02*
X020047Y019403D01*
X020135Y019107D02*
X020300Y019107D01*
X020300Y019009D02*
X020087Y019009D01*
X020210Y018418D02*
X014344Y018418D01*
X014290Y018319D02*
X020235Y018319D01*
X018560Y022752D02*
X011518Y022752D01*
X011530Y022850D02*
X018560Y022850D01*
X018560Y022949D02*
X011501Y022949D01*
X011409Y023047D02*
X018560Y023047D01*
X018560Y023146D02*
X011248Y023146D01*
X011176Y023244D02*
X014202Y023244D01*
X014141Y023343D02*
X011104Y023343D01*
X011032Y023441D02*
X014130Y023441D01*
X014159Y023540D02*
X010967Y023540D01*
X010780Y023244D02*
X009702Y023244D01*
X009746Y023638D02*
X014220Y023638D01*
X014380Y023420D02*
X014380Y025490D01*
X013390Y026480D01*
X013503Y026593D02*
X014281Y026593D01*
X014379Y026495D02*
X013602Y026495D01*
X013700Y026396D02*
X014478Y026396D01*
X014576Y026298D02*
X013799Y026298D01*
X013897Y026199D02*
X014675Y026199D01*
X014773Y026101D02*
X013996Y026101D01*
X014094Y026002D02*
X014872Y026002D01*
X014970Y025904D02*
X014193Y025904D01*
X014291Y025805D02*
X015069Y025805D01*
X015167Y025707D02*
X014390Y025707D01*
X014488Y025608D02*
X015266Y025608D01*
X015364Y025510D02*
X014540Y025510D01*
X014540Y025411D02*
X015463Y025411D01*
X015561Y025313D02*
X014540Y025313D01*
X014540Y025214D02*
X015660Y025214D01*
X015758Y025116D02*
X014540Y025116D01*
X014540Y025017D02*
X015857Y025017D01*
X015955Y024919D02*
X014540Y024919D01*
X014540Y024820D02*
X015483Y024820D01*
X015429Y024798D02*
X015299Y024667D01*
X015228Y024497D01*
X015228Y024312D01*
X015299Y024141D01*
X015429Y024011D01*
X015600Y023940D01*
X015785Y023940D01*
X015956Y024011D01*
X016086Y024141D01*
X016157Y024312D01*
X016157Y024497D01*
X016086Y024667D01*
X015956Y024798D01*
X015785Y024869D01*
X015600Y024869D01*
X015429Y024798D01*
X015353Y024722D02*
X014540Y024722D01*
X014540Y024623D02*
X015281Y024623D01*
X015240Y024525D02*
X014540Y024525D01*
X014540Y024426D02*
X015228Y024426D01*
X015228Y024328D02*
X014540Y024328D01*
X014540Y024229D02*
X015262Y024229D01*
X015309Y024131D02*
X014540Y024131D01*
X014540Y024032D02*
X015408Y024032D01*
X015977Y024032D02*
X016255Y024032D01*
X016220Y024115D02*
X016291Y023944D01*
X016422Y023814D01*
X016592Y023743D01*
X016777Y023743D01*
X016948Y023814D01*
X017078Y023944D01*
X017149Y024115D01*
X017149Y024300D01*
X017078Y024470D01*
X016948Y024601D01*
X016777Y024672D01*
X016592Y024672D01*
X016422Y024601D01*
X016291Y024470D01*
X016220Y024300D01*
X016220Y024115D01*
X016220Y024131D02*
X016076Y024131D01*
X016123Y024229D02*
X016220Y024229D01*
X016232Y024328D02*
X016157Y024328D01*
X016157Y024426D02*
X016273Y024426D01*
X016345Y024525D02*
X016145Y024525D01*
X016104Y024623D02*
X016475Y024623D01*
X016894Y024623D02*
X017891Y024623D01*
X017989Y024525D02*
X017024Y024525D01*
X017097Y024426D02*
X018088Y024426D01*
X018186Y024328D02*
X017137Y024328D01*
X017149Y024229D02*
X018285Y024229D01*
X018383Y024131D02*
X017149Y024131D01*
X017115Y024032D02*
X018482Y024032D01*
X018560Y023934D02*
X017068Y023934D01*
X016969Y023835D02*
X018560Y023835D01*
X018560Y023737D02*
X014540Y023737D01*
X014540Y023835D02*
X016400Y023835D01*
X016302Y023934D02*
X014540Y023934D01*
X014540Y023638D02*
X018560Y023638D01*
X018560Y023540D02*
X014601Y023540D01*
X014630Y023441D02*
X018560Y023441D01*
X018560Y023343D02*
X014619Y023343D01*
X014558Y023244D02*
X018560Y023244D01*
X019117Y024229D02*
X019120Y024229D01*
X019120Y024328D02*
X019019Y024328D01*
X018920Y024426D02*
X019120Y024426D01*
X019120Y024525D02*
X018822Y024525D01*
X018723Y024623D02*
X019120Y024623D01*
X019120Y024722D02*
X018625Y024722D01*
X018526Y024820D02*
X019120Y024820D01*
X019120Y024919D02*
X018428Y024919D01*
X018329Y025017D02*
X019120Y025017D01*
X019120Y025116D02*
X018231Y025116D01*
X018132Y025214D02*
X019120Y025214D01*
X019120Y025313D02*
X018034Y025313D01*
X017935Y025411D02*
X019120Y025411D01*
X019120Y025510D02*
X016317Y025510D01*
X016218Y025608D02*
X019120Y025608D01*
X019120Y025707D02*
X016120Y025707D01*
X016021Y025805D02*
X019120Y025805D01*
X019120Y025904D02*
X015923Y025904D01*
X015824Y026002D02*
X019120Y026002D01*
X019120Y026101D02*
X015726Y026101D01*
X015627Y026199D02*
X019120Y026199D01*
X019120Y026298D02*
X015529Y026298D01*
X015430Y026396D02*
X019120Y026396D01*
X019120Y026495D02*
X015332Y026495D01*
X015233Y026593D02*
X019120Y026593D01*
X019042Y026692D02*
X018165Y026692D01*
X017774Y026987D02*
X014839Y026987D01*
X014741Y027086D02*
X017852Y027086D01*
X017652Y027283D02*
X018791Y027283D01*
X018693Y027381D02*
X017750Y027381D01*
X017849Y027480D02*
X018594Y027480D01*
X018496Y027578D02*
X017852Y027578D01*
X017852Y027677D02*
X018397Y027677D01*
X018299Y027775D02*
X017852Y027775D01*
X017796Y027874D02*
X018200Y027874D01*
X018148Y027086D02*
X018988Y027086D01*
X018890Y027184D02*
X014642Y027184D01*
X014182Y026692D02*
X010755Y026692D01*
X010656Y026790D02*
X013056Y026790D01*
X013364Y026790D02*
X014084Y026790D01*
X015902Y024820D02*
X017694Y024820D01*
X017792Y024722D02*
X016032Y024722D01*
X016652Y027283D02*
X017248Y027283D01*
X017150Y027381D02*
X016750Y027381D01*
X016849Y027480D02*
X017051Y027480D01*
X017048Y027578D02*
X016852Y027578D01*
X016852Y027677D02*
X017048Y027677D01*
X017048Y027775D02*
X016852Y027775D01*
X016796Y027874D02*
X017104Y027874D01*
X014140Y019895D02*
X001325Y019895D01*
X001325Y019797D02*
X014140Y019797D01*
X008393Y021964D02*
X004037Y021964D01*
X004036Y022358D02*
X008374Y022358D01*
X007748Y022949D02*
X003505Y022949D01*
X007122Y018615D02*
X007578Y018615D01*
X007480Y018516D02*
X007220Y018516D01*
X007300Y018418D02*
X007400Y018418D01*
X007400Y018319D02*
X007300Y018319D01*
X007300Y018221D02*
X007400Y018221D01*
X007400Y018122D02*
X007300Y018122D01*
X007260Y018024D02*
X007440Y018024D01*
X007539Y017925D02*
X007161Y017925D01*
X008240Y009220D02*
X008148Y009182D01*
X008078Y009112D01*
X008040Y009020D01*
X008040Y008946D01*
X007534Y008440D01*
X007512Y008462D01*
X007420Y008500D01*
X007320Y008500D01*
X007228Y008462D01*
X007158Y008392D01*
X007120Y008300D01*
X007120Y008200D01*
X007158Y008108D01*
X007166Y008100D01*
X006476Y008100D01*
X006000Y008576D01*
X006000Y008650D01*
X005962Y008742D01*
X005892Y008812D01*
X005800Y008850D01*
X005700Y008850D01*
X005608Y008812D01*
X005538Y008742D01*
X005500Y008650D01*
X005500Y008550D01*
X005538Y008458D01*
X005608Y008388D01*
X005700Y008350D01*
X005774Y008350D01*
X006344Y007780D01*
X007326Y007780D01*
X007378Y007728D01*
X007470Y007690D01*
X007570Y007690D01*
X007662Y007728D01*
X007732Y007798D01*
X007770Y007890D01*
X007770Y007990D01*
X007732Y008082D01*
X007680Y008134D01*
X008266Y008720D01*
X008340Y008720D01*
X008432Y008758D01*
X008502Y008828D01*
X008540Y008920D01*
X008540Y009020D01*
X008502Y009112D01*
X008432Y009182D01*
X008340Y009220D01*
X008240Y009220D01*
X008125Y009159D02*
X004975Y009159D01*
X004975Y009060D02*
X008057Y009060D01*
X008040Y008962D02*
X004975Y008962D01*
X004975Y008863D02*
X007957Y008863D01*
X007858Y008765D02*
X005939Y008765D01*
X005993Y008666D02*
X007760Y008666D01*
X007661Y008568D02*
X006009Y008568D01*
X006107Y008469D02*
X007245Y008469D01*
X007149Y008371D02*
X006206Y008371D01*
X006304Y008272D02*
X007120Y008272D01*
X007131Y008174D02*
X006403Y008174D01*
X006410Y007940D02*
X005750Y008600D01*
X005651Y008371D02*
X004975Y008371D01*
X004975Y008469D02*
X005534Y008469D01*
X005500Y008568D02*
X004975Y008568D01*
X004975Y008666D02*
X005507Y008666D01*
X005561Y008765D02*
X004975Y008765D01*
X004975Y008272D02*
X005852Y008272D01*
X005950Y008174D02*
X004975Y008174D01*
X004975Y008075D02*
X006049Y008075D01*
X006147Y007977D02*
X004975Y007977D01*
X004975Y007878D02*
X006246Y007878D01*
X006410Y007940D02*
X007520Y007940D01*
X007713Y007780D02*
X008804Y007780D01*
X008706Y007878D02*
X007765Y007878D01*
X007770Y007977D02*
X008607Y007977D01*
X008509Y008075D02*
X007735Y008075D01*
X007720Y008174D02*
X008410Y008174D01*
X008184Y008272D02*
X007818Y008272D01*
X007917Y008371D02*
X008122Y008371D01*
X008110Y008469D02*
X008015Y008469D01*
X008114Y008568D02*
X008138Y008568D01*
X008212Y008666D02*
X008228Y008666D01*
X008438Y008765D02*
X008448Y008765D01*
X008516Y008863D02*
X008547Y008863D01*
X008540Y008962D02*
X008645Y008962D01*
X008744Y009060D02*
X008523Y009060D01*
X008455Y009159D02*
X008842Y009159D01*
X008290Y008970D02*
X007570Y008250D01*
X007370Y008250D01*
X007495Y008469D02*
X007563Y008469D01*
X007327Y007780D02*
X004975Y007780D01*
X004975Y007681D02*
X008903Y007681D01*
X009001Y007583D02*
X004975Y007583D01*
X004975Y007484D02*
X009100Y007484D01*
X009198Y007386D02*
X004975Y007386D01*
X004975Y007287D02*
X009297Y007287D01*
X009395Y007189D02*
X004975Y007189D01*
X004975Y007090D02*
X009494Y007090D01*
X009592Y006992D02*
X004975Y006992D01*
X004975Y006893D02*
X009691Y006893D01*
X009789Y006795D02*
X004975Y006795D01*
X004975Y006696D02*
X009832Y006696D01*
X009783Y006598D02*
X004975Y006598D01*
X004975Y006499D02*
X009780Y006499D01*
X009817Y006401D02*
X004975Y006401D01*
X004975Y005908D02*
X013639Y005908D01*
X013548Y005810D02*
X004975Y005810D01*
X004975Y005711D02*
X013548Y005711D01*
X013548Y005613D02*
X004975Y005613D01*
X004975Y005514D02*
X013548Y005514D01*
X013615Y005416D02*
X004975Y005416D01*
X004975Y005317D02*
X013714Y005317D01*
X014186Y005317D02*
X014714Y005317D01*
X014615Y005416D02*
X014285Y005416D01*
X014352Y005514D02*
X014548Y005514D01*
X015186Y005317D02*
X015714Y005317D01*
X015783Y005248D02*
X015548Y005483D01*
X015548Y005817D01*
X015783Y006052D01*
X016117Y006052D01*
X016352Y005817D01*
X016352Y005483D01*
X016117Y005248D01*
X015783Y005248D01*
X015615Y005416D02*
X015285Y005416D01*
X015352Y005514D02*
X015548Y005514D01*
X015548Y005613D02*
X015352Y005613D01*
X015352Y005711D02*
X015548Y005711D01*
X015548Y005810D02*
X015352Y005810D01*
X015261Y005908D02*
X015639Y005908D01*
X015737Y006007D02*
X015523Y006007D01*
X015590Y006105D02*
X023925Y006105D01*
X023925Y006007D02*
X016163Y006007D01*
X016261Y005908D02*
X023925Y005908D01*
X023925Y005810D02*
X016352Y005810D01*
X016352Y005711D02*
X023925Y005711D01*
X023925Y005613D02*
X016352Y005613D01*
X016352Y005514D02*
X023925Y005514D01*
X023925Y005416D02*
X016285Y005416D01*
X016186Y005317D02*
X023925Y005317D01*
X023925Y005219D02*
X004975Y005219D01*
X004975Y005120D02*
X023925Y005120D01*
X023925Y005022D02*
X004975Y005022D01*
X004975Y004923D02*
X023925Y004923D01*
X023925Y004825D02*
X004975Y004825D01*
X004975Y004726D02*
X023925Y004726D01*
X023925Y004628D02*
X004975Y004628D01*
X004975Y004529D02*
X023925Y004529D01*
X023925Y004431D02*
X004975Y004431D01*
X010558Y007287D02*
X013361Y007287D01*
X013262Y007189D02*
X011143Y007189D01*
X011143Y007090D02*
X013164Y007090D01*
X013419Y006893D02*
X013624Y006893D01*
X013548Y006795D02*
X013352Y006795D01*
X013518Y006992D02*
X013722Y006992D01*
X015178Y006992D02*
X015335Y006992D01*
X015966Y007090D02*
X023925Y007090D01*
X023925Y006992D02*
X016178Y006992D01*
X016276Y006893D02*
X023925Y006893D01*
X023925Y006795D02*
X016352Y006795D01*
X016352Y006696D02*
X023925Y006696D01*
X023925Y006598D02*
X016352Y006598D01*
X016352Y006499D02*
X023925Y006499D01*
X023925Y006401D02*
X016270Y006401D01*
X016171Y006302D02*
X023925Y006302D01*
X023925Y006204D02*
X015590Y006204D01*
X015590Y006302D02*
X015729Y006302D01*
X015630Y006401D02*
X015590Y006401D01*
X016088Y007189D02*
X023925Y007189D01*
X023925Y007287D02*
X016209Y007287D01*
X016330Y007386D02*
X023925Y007386D01*
X023925Y007484D02*
X016451Y007484D01*
X016572Y007583D02*
X023925Y007583D01*
X023925Y007681D02*
X016693Y007681D01*
X016814Y007780D02*
X023925Y007780D01*
X023925Y007878D02*
X016935Y007878D01*
X017057Y007977D02*
X023925Y007977D01*
X023925Y008075D02*
X017178Y008075D01*
X017299Y008174D02*
X021733Y008174D01*
X021920Y008340D02*
X017250Y008340D01*
X016475Y008568D02*
X021729Y008568D01*
X022111Y008568D02*
X023925Y008568D01*
X023925Y008666D02*
X022164Y008666D01*
X022170Y008765D02*
X023925Y008765D01*
X023925Y008863D02*
X022136Y008863D01*
X022137Y008469D02*
X023925Y008469D01*
X023925Y008371D02*
X022170Y008371D01*
X022162Y008272D02*
X023925Y008272D01*
X023925Y008174D02*
X022107Y008174D01*
X021067Y009750D02*
X020573Y009750D01*
X015700Y009159D02*
X015685Y009159D01*
D18*
X022700Y005650D03*
X006200Y005650D03*
X006200Y028650D03*
X022700Y028650D03*
D19*
X020480Y028180D03*
X018000Y026880D03*
X017660Y029220D03*
X013210Y026990D03*
X014380Y023420D03*
X014300Y022066D03*
X012430Y021190D03*
X011280Y022830D03*
X009570Y023460D03*
X008740Y023280D03*
X008540Y022170D03*
X008820Y025270D03*
X008340Y028050D03*
X003880Y022160D03*
X003930Y021050D03*
X003610Y019420D03*
X002490Y019300D03*
X003120Y013850D03*
X002620Y013190D03*
X006960Y012950D03*
X008520Y011770D03*
X009300Y012050D03*
X009270Y010760D03*
X010900Y009810D03*
X012310Y011910D03*
X012560Y013010D03*
X012180Y013260D03*
X012930Y013530D03*
X013080Y014680D03*
X013190Y017690D03*
X015440Y020020D03*
X018050Y020420D03*
X019390Y019060D03*
X019887Y019163D03*
X020460Y018430D03*
X021050Y018450D03*
X021476Y018104D03*
X021470Y018890D03*
X022760Y017430D03*
X023120Y016660D03*
X023880Y016280D03*
X023180Y014920D03*
X023540Y014670D03*
X023890Y013850D03*
X023550Y013500D03*
X023180Y012800D03*
X023550Y012040D03*
X022840Y011980D03*
X023150Y011050D03*
X022710Y010590D03*
X021940Y009280D03*
X021920Y008730D03*
X021920Y008340D03*
X020360Y009610D03*
X021220Y009950D03*
X020580Y010540D03*
X020750Y011050D03*
X018590Y011750D03*
X017730Y011790D03*
X017340Y011400D03*
X017850Y010560D03*
X018100Y010790D03*
X017320Y009950D03*
X016950Y009590D03*
X016620Y009380D03*
X015950Y009110D03*
X015260Y009340D03*
X014940Y009530D03*
X012470Y007650D03*
X010340Y007160D03*
X010030Y006540D03*
X008360Y008450D03*
X008290Y008970D03*
X007370Y008250D03*
X007520Y007940D03*
X005750Y008600D03*
X008510Y014390D03*
X009130Y018810D03*
X015870Y012210D03*
X016940Y013160D03*
X017160Y013520D03*
X017500Y013880D03*
X017170Y014060D03*
X017950Y013430D03*
X017940Y012740D03*
X020250Y013650D03*
X020250Y014150D03*
X020250Y014650D03*
X020250Y015150D03*
X020750Y015150D03*
X020750Y014650D03*
X021250Y014650D03*
X021250Y015150D03*
X021250Y015550D03*
X021020Y016050D03*
X020480Y016070D03*
X019540Y015670D03*
X020750Y014150D03*
X020750Y013650D03*
X021250Y013650D03*
X021250Y014150D03*
X021850Y014150D03*
X021850Y013650D03*
X021850Y014650D03*
X021850Y015150D03*
X021850Y015550D03*
X025350Y017050D03*
X026940Y018870D03*
X027390Y016610D03*
X023590Y020420D03*
X021476Y021880D03*
X016430Y017230D03*
X024890Y011760D03*
X020150Y007850D03*
X018800Y005380D03*
X027330Y021310D03*
D20*
X025350Y017050D02*
X025231Y017049D01*
X023550Y017040D01*
X023540Y014670D01*
X023550Y013500D01*
X023550Y012040D01*
X023150Y011050D02*
X020750Y011050D01*
X023550Y017040D02*
X022600Y018080D01*
X021720Y018080D01*
X016730Y018080D01*
X016430Y017780D01*
X016430Y017230D01*
X013190Y017690D02*
X003690Y017690D01*
X003530Y017530D01*
X002490Y018570D01*
X002490Y019300D01*
X003530Y017530D02*
X001550Y015550D01*
X001550Y013000D01*
X002140Y012410D01*
X003130Y012410D01*
X003580Y011960D01*
X006310Y011960D01*
X007070Y011200D01*
X008450Y011200D01*
X009300Y012050D01*
X021476Y018104D02*
X021477Y018589D01*
X021476Y021880D01*
M02*
