G75*
%MOIN*%
%OFA0B0*%
%FSLAX24Y24*%
%IPPOS*%
%LPD*%
%AMOC8*
5,1,8,0,0,1.08239X$1,22.5*
%
%ADD10C,0.0995*%
%ADD11C,0.0460*%
%ADD12R,0.0645X0.0645*%
%ADD13OC8,0.0645*%
%ADD14OC8,0.0740*%
%ADD15C,0.0670*%
%ADD16R,0.0414X0.0328*%
%ADD17C,0.0769*%
%ADD18C,0.0660*%
%ADD19C,0.2560*%
D10*
X025280Y019940D03*
X026530Y019940D03*
X026530Y021940D03*
X025280Y021940D03*
D11*
X024530Y021340D03*
X024530Y020540D03*
X026530Y020940D03*
D12*
X017450Y028650D03*
X012950Y005650D03*
D13*
X012950Y006650D03*
X013950Y006650D03*
X013950Y005650D03*
X014950Y005650D03*
X014950Y006650D03*
X015950Y006650D03*
X015950Y005650D03*
X015450Y027650D03*
X015450Y028650D03*
X014450Y028650D03*
X014450Y027650D03*
X013450Y027650D03*
X013450Y028650D03*
X012450Y028650D03*
X012450Y027650D03*
X011450Y027650D03*
X011450Y028650D03*
X016450Y028650D03*
X016450Y027650D03*
X017450Y027650D03*
D14*
X007850Y021250D03*
X006850Y021250D03*
X005850Y021250D03*
X004850Y021250D03*
X004850Y018250D03*
X005850Y018250D03*
X006850Y018250D03*
X007850Y018250D03*
X007150Y016850D03*
X006150Y016850D03*
X005150Y016850D03*
X004150Y016850D03*
X004150Y013850D03*
X005150Y013850D03*
X006150Y013850D03*
X007150Y013850D03*
D15*
X011454Y006770D03*
D16*
X010856Y006530D03*
X010856Y007010D03*
D17*
X016007Y021491D03*
X015015Y021727D03*
X016685Y022357D03*
X016685Y024207D03*
X015693Y024404D03*
D18*
X011430Y020440D03*
X011400Y019360D03*
X011400Y018260D03*
X011400Y017160D03*
X011400Y015930D03*
X011430Y014820D03*
X011430Y013730D03*
X011390Y012670D03*
X007650Y010760D03*
X007850Y023350D03*
D19*
X006200Y005650D03*
X022700Y005650D03*
X022700Y028650D03*
X006200Y028650D03*
M02*
