%
M48
M72
T01C0.0120
T02C0.0320
T03C0.0374
T04C0.0390
T05C0.0400
T06C0.0472
T07C0.0935
T08C0.1160
%
T01
X7520Y7940
X7370Y8250
X8360Y8450
X8290Y8970
X9270Y10760
X8520Y11770
X9300Y12050
X10900Y9810
X12310Y11910
X12560Y13010
X12180Y13260
X12930Y13530
X13080Y14680
X13190Y17690
X15440Y20020
X14300Y22066
X14380Y23420
X12430Y21190
X11280Y22830
X9570Y23460
X8740Y23280
X8540Y22170
X8820Y25270
X8340Y28050
X13210Y26990
X17660Y29220
X18000Y26880
X20480Y28180
X21476Y21880
X23590Y20420
X21470Y18890
X21050Y18450
X21476Y18104
X20460Y18430
X19887Y19163
X19390Y19060
X18050Y20420
X16430Y17230
X17170Y14060
X17500Y13880
X17160Y13520
X16940Y13160
X17950Y13430
X17940Y12740
X17730Y11790
X17340Y11400
X17850Y10560
X18100Y10790
X18590Y11750
X17320Y9950
X16950Y9590
X16620Y9380
X15950Y9110
X15260Y9340
X14940Y9530
X12470Y7650
X10340Y7160
X10030Y6540
X5750Y8600
X6960Y12950
X8510Y14390
X9130Y18810
X3610Y19420
X2490Y19300
X3930Y21050
X3880Y22160
X3120Y13850
X2620Y13190
X15870Y12210
X19540Y15670
X20250Y15150
X20250Y14650
X20250Y14150
X20250Y13650
X20750Y13650
X20750Y14150
X21250Y14150
X21250Y13650
X21850Y13650
X21850Y14150
X21850Y14650
X21850Y15150
X21850Y15550
X21250Y15550
X21020Y16050
X20480Y16070
X20750Y15150
X20750Y14650
X21250Y14650
X21250Y15150
X23180Y14920
X23540Y14670
X23890Y13850
X23550Y13500
X23180Y12800
X23550Y12040
X22840Y11980
X23150Y11050
X22710Y10590
X21940Y9280
X21920Y8730
X21920Y8340
X20360Y9610
X21220Y9950
X20580Y10540
X20750Y11050
X20150Y7850
X18800Y5380
X24890Y11760
X23880Y16280
X23120Y16660
X22760Y17430
X25350Y17050
X26940Y18870
X27390Y16610
X27330Y21310
T02
X7850Y21250
X6850Y21250
X5850Y21250
X4850Y21250
X4850Y18250
X5850Y18250
X6850Y18250
X7850Y18250
X7150Y16850
X6150Y16850
X5150Y16850
X4150Y16850
X4150Y13850
X5150Y13850
X6150Y13850
X7150Y13850
T03
X11454Y6770
T04
X12950Y6650
X12950Y5650
X13950Y5650
X13950Y6650
X14950Y6650
X14950Y5650
X15950Y5650
X15950Y6650
X15450Y27650
X15450Y28650
X14450Y28650
X14450Y27650
X13450Y27650
X13450Y28650
X12450Y28650
X12450Y27650
X11450Y27650
X11450Y28650
X16450Y28650
X16450Y27650
X17450Y27650
X17450Y28650
T05
X24530Y21340
X24530Y20540
X26530Y20940
X11430Y20440
X11400Y19360
X11400Y18260
X11400Y17160
X11400Y15930
X11430Y14820
X11430Y13730
X11390Y12670
X7650Y10760
X7850Y23350
T06
X15015Y21727
X16007Y21491
X16685Y22357
X16685Y24207
X15693Y24404
T07
X25280Y21940
X26530Y21940
X26530Y19940
X25280Y19940
T08
X6200Y5650
X22700Y5650
X22700Y28650
X6200Y28650
M30
