G75*
%MOIN*%
%OFA0B0*%
%FSLAX24Y24*%
%IPPOS*%
%LPD*%
%AMOC8*
5,1,8,0,0,1.08239X$1,22.5*
%
%ADD10C,0.0370*%
%ADD11C,0.0995*%
%ADD12C,0.0460*%
%ADD13R,0.0336X0.0454*%
%ADD14R,0.0454X0.0336*%
%ADD15R,0.0454X0.0434*%
%ADD16R,0.1241X0.0611*%
%ADD17R,0.0275X0.0271*%
%ADD18R,0.0645X0.0645*%
%ADD19OC8,0.0645*%
%ADD20OC8,0.0740*%
%ADD21R,0.0414X0.0375*%
%ADD22R,0.0277X0.0532*%
%ADD23R,0.0690X0.0651*%
%ADD24R,0.0532X0.0532*%
%ADD25C,0.0670*%
%ADD26R,0.0178X0.0375*%
%ADD27R,0.0375X0.0178*%
%ADD28R,0.0702X0.0702*%
%ADD29R,0.0532X0.0651*%
%ADD30C,0.0769*%
%ADD31R,0.0375X0.0375*%
%ADD32C,0.0660*%
%ADD33R,0.0375X0.0729*%
%ADD34C,0.0170*%
%ADD35R,0.2422X0.2422*%
%ADD36R,0.0532X0.0296*%
%ADD37R,0.1399X0.1635*%
%ADD38C,0.2560*%
D10*
X025030Y020690D03*
X025030Y021190D03*
X025530Y021190D03*
X025530Y020690D03*
X026030Y020690D03*
X026030Y021190D03*
D11*
X026530Y021940D03*
X025280Y021940D03*
X025280Y019940D03*
X026530Y019940D03*
D12*
X026530Y020940D03*
X024530Y020540D03*
X024530Y021340D03*
D13*
X023396Y023740D03*
X022884Y023740D03*
X022884Y024640D03*
X023396Y024640D03*
X018846Y019250D03*
X018334Y019250D03*
X017506Y017650D03*
X016994Y017650D03*
X017394Y016950D03*
X017906Y016950D03*
X013616Y022530D03*
X013104Y022530D03*
X012346Y022530D03*
X011834Y022530D03*
X011366Y023890D03*
X010854Y023890D03*
X010844Y024680D03*
X011356Y024680D03*
X009506Y022650D03*
X008994Y022650D03*
X005406Y022250D03*
X004894Y022250D03*
X004894Y023050D03*
X005406Y023050D03*
X009194Y013250D03*
X009706Y013250D03*
X010634Y010160D03*
X011146Y010160D03*
X009536Y007010D03*
X009024Y007010D03*
X007516Y007480D03*
X007004Y007480D03*
X025504Y017890D03*
X026016Y017890D03*
X026434Y017050D03*
X026946Y017050D03*
D14*
X023480Y014346D03*
X023480Y013834D03*
X020870Y012036D03*
X020870Y011524D03*
X020110Y011546D03*
X020110Y011034D03*
X020160Y006526D03*
X020160Y006014D03*
X019490Y006024D03*
X019490Y006536D03*
X017610Y006726D03*
X017610Y006214D03*
X016970Y006214D03*
X016970Y006726D03*
X012930Y010924D03*
X012930Y011436D03*
X012230Y011406D03*
X012230Y010894D03*
X010950Y011004D03*
X010950Y011516D03*
X009650Y009706D03*
X009650Y009194D03*
X008750Y009194D03*
X008750Y009706D03*
X009330Y008226D03*
X009330Y007714D03*
X008260Y007016D03*
X008260Y006504D03*
X009170Y005846D03*
X009170Y005334D03*
X009920Y005334D03*
X009920Y005846D03*
X005750Y009294D03*
X005750Y009806D03*
X005750Y010894D03*
X005750Y011406D03*
X006650Y011406D03*
X006650Y010894D03*
X007650Y011494D03*
X007650Y012006D03*
X009250Y014194D03*
X009250Y014706D03*
X009250Y016194D03*
X009250Y016706D03*
X010260Y021864D03*
X010260Y022376D03*
X011140Y022376D03*
X011140Y021864D03*
X012110Y024374D03*
X012110Y024886D03*
X011810Y025604D03*
X011810Y026116D03*
X010930Y025946D03*
X010930Y025434D03*
X010310Y025614D03*
X010310Y026126D03*
X008450Y024606D03*
X008450Y024094D03*
X007650Y024094D03*
X007650Y024606D03*
X007850Y022706D03*
X007850Y022194D03*
X006850Y022194D03*
X006850Y022706D03*
X003550Y018706D03*
X003550Y018194D03*
X002450Y018194D03*
X002450Y018706D03*
X002150Y015006D03*
X002150Y014494D03*
X012800Y025614D03*
X012800Y026126D03*
X017050Y018906D03*
X017050Y018394D03*
X016020Y014726D03*
X016020Y014214D03*
X021350Y017104D03*
X021350Y017616D03*
X020740Y021384D03*
X020740Y021896D03*
X022140Y022684D03*
X022140Y023196D03*
X021840Y026484D03*
X021840Y026996D03*
X020940Y026996D03*
X020940Y026484D03*
X022740Y026484D03*
X022740Y026996D03*
D15*
X018884Y018445D03*
X018884Y017835D03*
X018156Y017835D03*
X018156Y018445D03*
D16*
X015750Y016322D03*
X015750Y015378D03*
D17*
X016950Y015480D03*
X016950Y015820D03*
X017850Y015820D03*
X017850Y015480D03*
D18*
X012950Y005650D03*
X017450Y028650D03*
D19*
X017450Y027650D03*
X016450Y027650D03*
X016450Y028650D03*
X015450Y028650D03*
X015450Y027650D03*
X014450Y027650D03*
X014450Y028650D03*
X013450Y028650D03*
X013450Y027650D03*
X012450Y027650D03*
X012450Y028650D03*
X011450Y028650D03*
X011450Y027650D03*
X012950Y006650D03*
X013950Y006650D03*
X013950Y005650D03*
X014950Y005650D03*
X014950Y006650D03*
X015950Y006650D03*
X015950Y005650D03*
D20*
X007150Y013850D03*
X006150Y013850D03*
X005150Y013850D03*
X004150Y013850D03*
X004150Y016850D03*
X005150Y016850D03*
X006150Y016850D03*
X007150Y016850D03*
X006850Y018250D03*
X005850Y018250D03*
X004850Y018250D03*
X004850Y021250D03*
X005850Y021250D03*
X006850Y021250D03*
X007850Y021250D03*
X007850Y018250D03*
D21*
X003283Y020250D03*
X002456Y019876D03*
X002456Y020624D03*
X010244Y011724D03*
X010244Y010976D03*
X009417Y011350D03*
D22*
X007624Y009762D03*
X007250Y009762D03*
X006876Y009762D03*
X006876Y008738D03*
X007624Y008738D03*
X012456Y008628D03*
X012830Y008628D03*
X013204Y008628D03*
X013204Y009652D03*
X012456Y009652D03*
X012956Y023368D03*
X013704Y023368D03*
X013704Y024392D03*
X013330Y024392D03*
X012956Y024392D03*
X010144Y024048D03*
X009770Y024048D03*
X009396Y024048D03*
X009396Y025072D03*
X010144Y025072D03*
D23*
X006150Y025245D03*
X010980Y007735D03*
D24*
X010429Y009014D03*
X011531Y009014D03*
X006701Y023966D03*
X005599Y023966D03*
D25*
X011454Y006770D03*
D26*
X020945Y024377D03*
X021142Y024377D03*
X021338Y024377D03*
X021535Y024377D03*
X021535Y025503D03*
X021338Y025503D03*
X021142Y025503D03*
X020945Y025503D03*
D27*
X020677Y025235D03*
X020677Y025038D03*
X020677Y024842D03*
X020677Y024645D03*
X021803Y024645D03*
X021803Y024842D03*
X021803Y025038D03*
X021803Y025235D03*
D28*
X021240Y024940D03*
D29*
X021271Y022840D03*
X020209Y022840D03*
D30*
X016685Y022357D03*
X016007Y021491D03*
X015015Y021727D03*
X016685Y024207D03*
X015693Y024404D03*
D31*
X016970Y005595D03*
X016970Y005005D03*
X017610Y005005D03*
X017610Y005595D03*
X019490Y005625D03*
X019490Y005035D03*
X020170Y005035D03*
X020170Y005625D03*
D32*
X011390Y012670D03*
X011430Y013730D03*
X011430Y014820D03*
X011400Y015930D03*
X011400Y017160D03*
X011400Y018260D03*
X011400Y019360D03*
X011430Y020440D03*
X007850Y023350D03*
X007650Y010760D03*
D33*
X022101Y021370D03*
X023439Y021370D03*
D34*
X022446Y016493D02*
X022446Y016309D01*
X022250Y016309D02*
X022250Y016493D01*
X022053Y016493D02*
X022053Y016309D01*
X021856Y016309D02*
X021856Y016493D01*
X021659Y016493D02*
X021659Y016309D01*
X021462Y016309D02*
X021462Y016493D01*
X021265Y016493D02*
X021265Y016309D01*
X021068Y016309D02*
X021068Y016493D01*
X020872Y016493D02*
X020872Y016309D01*
X020675Y016309D02*
X020675Y016493D01*
X020478Y016493D02*
X020478Y016309D01*
X020281Y016309D02*
X020281Y016493D01*
X020084Y016493D02*
X020084Y016309D01*
X019887Y016309D02*
X019887Y016493D01*
X019690Y016493D02*
X019690Y016309D01*
X019494Y016309D02*
X019494Y016493D01*
X019281Y016096D02*
X019097Y016096D01*
X019097Y015900D02*
X019281Y015900D01*
X019281Y015703D02*
X019097Y015703D01*
X019097Y015506D02*
X019281Y015506D01*
X019281Y015309D02*
X019097Y015309D01*
X019097Y015112D02*
X019281Y015112D01*
X019281Y014915D02*
X019097Y014915D01*
X019097Y014718D02*
X019281Y014718D01*
X019281Y014522D02*
X019097Y014522D01*
X019097Y014325D02*
X019281Y014325D01*
X019281Y014128D02*
X019097Y014128D01*
X019097Y013931D02*
X019281Y013931D01*
X019281Y013734D02*
X019097Y013734D01*
X019097Y013537D02*
X019281Y013537D01*
X019281Y013340D02*
X019097Y013340D01*
X019097Y013144D02*
X019281Y013144D01*
X019494Y012931D02*
X019494Y012747D01*
X019690Y012747D02*
X019690Y012931D01*
X019887Y012931D02*
X019887Y012747D01*
X020084Y012747D02*
X020084Y012931D01*
X020281Y012931D02*
X020281Y012747D01*
X020478Y012747D02*
X020478Y012931D01*
X020675Y012931D02*
X020675Y012747D01*
X020872Y012747D02*
X020872Y012931D01*
X021068Y012931D02*
X021068Y012747D01*
X021265Y012747D02*
X021265Y012931D01*
X021462Y012931D02*
X021462Y012747D01*
X021659Y012747D02*
X021659Y012931D01*
X021856Y012931D02*
X021856Y012747D01*
X022053Y012747D02*
X022053Y012931D01*
X022250Y012931D02*
X022250Y012747D01*
X022446Y012747D02*
X022446Y012931D01*
X022659Y013144D02*
X022843Y013144D01*
X022843Y013340D02*
X022659Y013340D01*
X022659Y013537D02*
X022843Y013537D01*
X022843Y013734D02*
X022659Y013734D01*
X022659Y013931D02*
X022843Y013931D01*
X022843Y014128D02*
X022659Y014128D01*
X022659Y014325D02*
X022843Y014325D01*
X022843Y014522D02*
X022659Y014522D01*
X022659Y014718D02*
X022843Y014718D01*
X022843Y014915D02*
X022659Y014915D01*
X022659Y015112D02*
X022843Y015112D01*
X022843Y015309D02*
X022659Y015309D01*
X022659Y015506D02*
X022843Y015506D01*
X022843Y015703D02*
X022659Y015703D01*
X022659Y015900D02*
X022843Y015900D01*
X022843Y016096D02*
X022659Y016096D01*
D35*
X020970Y014620D03*
D36*
X024388Y014779D03*
X024388Y014320D03*
X024388Y013820D03*
X024388Y013361D03*
X026632Y013361D03*
X026632Y013820D03*
X026632Y014320D03*
X026632Y014779D03*
D37*
X025510Y014070D03*
D38*
X006200Y005650D03*
X022700Y005650D03*
X022700Y028650D03*
X006200Y028650D03*
M02*
