G04 #@! TF.FileFunction,Soldermask,Top*
%FSLAX46Y46*%
G04 Gerber Fmt 4.6, Leading zero omitted, Abs format (unit mm)*
G04 Created by KiCad (PCBNEW 4.0.4-stable) date 10/12/16 23:00:51*
%MOMM*%
%LPD*%
G01*
G04 APERTURE LIST*
%ADD10C,0.100000*%
%ADD11R,1.650000X1.900000*%
%ADD12R,1.900000X1.650000*%
%ADD13R,0.900000X1.000000*%
%ADD14R,1.000000X0.900000*%
%ADD15R,1.200000X1.150000*%
%ADD16R,2.900000X1.150000*%
%ADD17R,1.800000X3.400000*%
%ADD18R,0.800000X1.000000*%
%ADD19R,0.650000X1.000000*%
%ADD20O,0.650000X1.000000*%
%ADD21R,0.700000X1.900000*%
%ADD22R,1.100000X0.650000*%
%ADD23R,0.650000X1.100000*%
%ADD24R,1.687500X1.687500*%
%ADD25R,1.200000X0.650000*%
%ADD26R,1.050000X0.650000*%
%ADD27R,0.850000X1.250000*%
%ADD28R,2.900000X2.000000*%
%ADD29R,1.400000X1.350000*%
%ADD30R,0.750000X1.200000*%
%ADD31R,1.200000X0.750000*%
%ADD32R,1.700000X0.800000*%
%ADD33O,3.414980X1.906220*%
%ADD34R,1.200000X1.000000*%
%ADD35R,1.000000X0.800000*%
%ADD36R,1.898600X1.898600*%
%ADD37C,1.898600*%
%ADD38C,1.187400*%
%ADD39R,1.150000X1.600000*%
%ADD40C,3.651200*%
%ADD41R,0.950000X0.800000*%
%ADD42R,0.800000X0.950000*%
%ADD43O,1.906220X3.414980*%
%ADD44R,1.400000X2.300000*%
G04 APERTURE END LIST*
D10*
D11*
X134620000Y-80080800D03*
X134620000Y-82580800D03*
D12*
X146400200Y-81203800D03*
X148900200Y-81203800D03*
D13*
X119329200Y-87976800D03*
X119329200Y-86876800D03*
D14*
X129040800Y-95529400D03*
X130140800Y-95529400D03*
X117186800Y-87960200D03*
X116086800Y-87960200D03*
D13*
X118160800Y-99576800D03*
X118160800Y-100676800D03*
D14*
X123351200Y-100431600D03*
X124451200Y-100431600D03*
D13*
X113461800Y-91431200D03*
X113461800Y-90331200D03*
X112522000Y-99018000D03*
X112522000Y-100118000D03*
X114935000Y-98967200D03*
X114935000Y-100067200D03*
D14*
X130768000Y-90220800D03*
X131868000Y-90220800D03*
D13*
X142748000Y-88781800D03*
X142748000Y-89881800D03*
D15*
X141212000Y-91008200D03*
X139712000Y-91008200D03*
D13*
X135864600Y-89721600D03*
X135864600Y-90821600D03*
X128574800Y-82998400D03*
X128574800Y-81898400D03*
D16*
X142570200Y-81209600D03*
X142570200Y-78759600D03*
D17*
X114935000Y-95859600D03*
X112535000Y-95859600D03*
D18*
X112656200Y-93040200D03*
X113556200Y-93040200D03*
D19*
X137752200Y-81432400D03*
D20*
X138252200Y-81432400D03*
D21*
X137902200Y-80082400D03*
X138502200Y-80082400D03*
X139102200Y-80082400D03*
D20*
X138752200Y-81432400D03*
X139252200Y-81432400D03*
D22*
X119681600Y-92064600D03*
X119681600Y-92564600D03*
X119681600Y-93064600D03*
X119681600Y-93564600D03*
X119681600Y-94064600D03*
X119681600Y-94564600D03*
X119681600Y-95064600D03*
X119681600Y-95564600D03*
X119681600Y-96064600D03*
X119681600Y-96564600D03*
X119681600Y-97064600D03*
X119681600Y-97564600D03*
D23*
X120331600Y-98214600D03*
X120831600Y-98214600D03*
X121331600Y-98214600D03*
X121831600Y-98214600D03*
X122331600Y-98214600D03*
X122831600Y-98214600D03*
X123331600Y-98214600D03*
X123831600Y-98214600D03*
X124331600Y-98214600D03*
X124831600Y-98214600D03*
X125331600Y-98214600D03*
X125831600Y-98214600D03*
D22*
X126481600Y-97564600D03*
X126481600Y-97064600D03*
X126481600Y-96564600D03*
X126481600Y-96064600D03*
X126481600Y-95564600D03*
X126481600Y-95064600D03*
X126481600Y-94564600D03*
X126481600Y-94064600D03*
X126481600Y-93564600D03*
X126481600Y-93064600D03*
X126481600Y-92564600D03*
X126481600Y-92064600D03*
D23*
X125831600Y-91414600D03*
X125331600Y-91414600D03*
X124831600Y-91414600D03*
X124331600Y-91414600D03*
X123831600Y-91414600D03*
X123331600Y-91414600D03*
X122831600Y-91414600D03*
X122331600Y-91414600D03*
X121831600Y-91414600D03*
X121331600Y-91414600D03*
X120831600Y-91414600D03*
X120331600Y-91414600D03*
D24*
X125012850Y-96745850D03*
X125012850Y-95458350D03*
X125012850Y-94170850D03*
X125012850Y-92883350D03*
X123725350Y-96745850D03*
X123725350Y-95458350D03*
X123725350Y-94170850D03*
X123725350Y-92883350D03*
X122437850Y-96745850D03*
X122437850Y-95458350D03*
X122437850Y-94170850D03*
X122437850Y-92883350D03*
X121150350Y-96745850D03*
X121150350Y-95458350D03*
X121150350Y-94170850D03*
X121150350Y-92883350D03*
D25*
X130751235Y-87320865D03*
D26*
X130826235Y-86820865D03*
X130826235Y-86320865D03*
X129476235Y-86320865D03*
X129476235Y-86820865D03*
X129476235Y-87320865D03*
D27*
X125290435Y-88294065D03*
X126290435Y-88294065D03*
X127290435Y-88294065D03*
X127290435Y-85394065D03*
X126290435Y-85394065D03*
X125290435Y-85394065D03*
D28*
X126290435Y-86844065D03*
D29*
X117180800Y-89852200D03*
X115330800Y-89852200D03*
X115330800Y-91402200D03*
X117180800Y-91402200D03*
D30*
X140930235Y-88248665D03*
X140430235Y-88248665D03*
X139930235Y-88248665D03*
X139430235Y-88248665D03*
X138930235Y-88248665D03*
D31*
X138680235Y-86498665D03*
X138680235Y-87498665D03*
X138680235Y-86998665D03*
D30*
X138930235Y-85748665D03*
X139430235Y-85748665D03*
X139930235Y-85748665D03*
X140430235Y-85748665D03*
X140930235Y-85748665D03*
D31*
X141180235Y-86498665D03*
X141180235Y-86998665D03*
X141180235Y-87498665D03*
D32*
X135421635Y-86846265D03*
X133821635Y-86846265D03*
X135421635Y-86196265D03*
X135421635Y-87496265D03*
X133821635Y-87496265D03*
X133821635Y-86196265D03*
D33*
X147015200Y-84759800D03*
X147015200Y-87299800D03*
X147015200Y-89839800D03*
X147015200Y-94361000D03*
X147015200Y-96901000D03*
X147015200Y-99441000D03*
X147015200Y-101981000D03*
X147015200Y-104521000D03*
X147015200Y-107061000D03*
D34*
X116713000Y-105398200D03*
X116713000Y-107098200D03*
X119303800Y-105372800D03*
X119303800Y-107072800D03*
X121945400Y-105372800D03*
X121945400Y-107072800D03*
D35*
X116713000Y-109582800D03*
X116713000Y-110482800D03*
X119303800Y-109582800D03*
X119303800Y-110482800D03*
X121945400Y-109582800D03*
X121945400Y-110482800D03*
D18*
X152407200Y-88011000D03*
X153307200Y-88011000D03*
X153332600Y-90347800D03*
X152432600Y-90347800D03*
D36*
X134620000Y-72390000D03*
D37*
X134620000Y-74930000D03*
X132080000Y-72390000D03*
X132080000Y-74930000D03*
X129540000Y-72390000D03*
X129540000Y-74930000D03*
X127000000Y-72390000D03*
X127000000Y-74930000D03*
X124460000Y-72390000D03*
X124460000Y-74930000D03*
X121920000Y-72390000D03*
X121920000Y-74930000D03*
X119380000Y-72390000D03*
X119380000Y-74930000D03*
D38*
X103784400Y-96926400D03*
X103784400Y-95656400D03*
X103784400Y-94386400D03*
X102514400Y-94386400D03*
X102514400Y-95656400D03*
X102514400Y-96926400D03*
D39*
X124333000Y-102809000D03*
X124333000Y-104709000D03*
D40*
X147955000Y-130810000D03*
X147955000Y-72390000D03*
X106045000Y-72390000D03*
X106045000Y-130810000D03*
D15*
X147079400Y-120269000D03*
X145579400Y-120269000D03*
D14*
X147057200Y-117551200D03*
X145957200Y-117551200D03*
X132604600Y-118465600D03*
X131504600Y-118465600D03*
D15*
X132626800Y-120954800D03*
X131126800Y-120954800D03*
D35*
X102336600Y-101048400D03*
X102336600Y-101948400D03*
X97866200Y-97478000D03*
X97866200Y-96578000D03*
X125933200Y-115461200D03*
X125933200Y-114561200D03*
X128549400Y-115454000D03*
X128549400Y-114554000D03*
X140893800Y-115029400D03*
X140893800Y-114129400D03*
X143408400Y-115029400D03*
X143408400Y-114129400D03*
D41*
X147376400Y-114727000D03*
X147376400Y-114127000D03*
D42*
X147056400Y-113507000D03*
X146456400Y-113507000D03*
X145856400Y-113507000D03*
D41*
X145536400Y-114127000D03*
X145536400Y-114727000D03*
D42*
X145856400Y-115347000D03*
X146456400Y-115347000D03*
X147056400Y-115347000D03*
D43*
X120650000Y-129667000D03*
X123190000Y-129667000D03*
X125730000Y-129667000D03*
X128270000Y-129667000D03*
X130810000Y-129667000D03*
X133350000Y-129667000D03*
D13*
X104292400Y-89373800D03*
X104292400Y-88273800D03*
D35*
X109194600Y-88577000D03*
X109194600Y-89477000D03*
X106705400Y-89477000D03*
X106705400Y-88577000D03*
D44*
X110107200Y-85369400D03*
X106707200Y-85369400D03*
D41*
X133428800Y-115133400D03*
X133428800Y-114533400D03*
D42*
X132603800Y-113408400D03*
X132003800Y-113408400D03*
X131403800Y-113408400D03*
D41*
X130578800Y-114533400D03*
X130578800Y-115133400D03*
D42*
X131403800Y-116258400D03*
X132003800Y-116258400D03*
X132603800Y-116258400D03*
M02*
