G04 #@! TF.FileFunction,Legend,Top*
%FSLAX46Y46*%
G04 Gerber Fmt 4.6, Leading zero omitted, Abs format (unit mm)*
G04 Created by KiCad (PCBNEW 4.0.4-stable) date 10/12/16 22:40:50*
%MOMM*%
%LPD*%
G01*
G04 APERTURE LIST*
%ADD10C,0.100000*%
%ADD11C,0.200000*%
%ADD12C,0.190500*%
%ADD13C,0.300000*%
%ADD14C,0.150000*%
%ADD15C,0.127000*%
%ADD16C,0.210000*%
%ADD17C,0.205000*%
%ADD18C,0.010000*%
G04 APERTURE END LIST*
D10*
D11*
X148325981Y-114767219D02*
G75*
G03X148325981Y-114767219I-91581J0D01*
G01*
X134366000Y-115112800D02*
G75*
G03X134366000Y-115112800I-91581J0D01*
G01*
D12*
X107351286Y-81948564D02*
X107097286Y-81585707D01*
X106915858Y-81948564D02*
X106915858Y-81186564D01*
X107206143Y-81186564D01*
X107278715Y-81222850D01*
X107315000Y-81259136D01*
X107351286Y-81331707D01*
X107351286Y-81440564D01*
X107315000Y-81513136D01*
X107278715Y-81549421D01*
X107206143Y-81585707D01*
X106915858Y-81585707D01*
X107677858Y-81549421D02*
X107931858Y-81549421D01*
X108040715Y-81948564D02*
X107677858Y-81948564D01*
X107677858Y-81186564D01*
X108040715Y-81186564D01*
X108331001Y-81912279D02*
X108439858Y-81948564D01*
X108621287Y-81948564D01*
X108693858Y-81912279D01*
X108730144Y-81875993D01*
X108766429Y-81803421D01*
X108766429Y-81730850D01*
X108730144Y-81658279D01*
X108693858Y-81621993D01*
X108621287Y-81585707D01*
X108476144Y-81549421D01*
X108403572Y-81513136D01*
X108367287Y-81476850D01*
X108331001Y-81404279D01*
X108331001Y-81331707D01*
X108367287Y-81259136D01*
X108403572Y-81222850D01*
X108476144Y-81186564D01*
X108657572Y-81186564D01*
X108766429Y-81222850D01*
X109093001Y-81549421D02*
X109347001Y-81549421D01*
X109455858Y-81948564D02*
X109093001Y-81948564D01*
X109093001Y-81186564D01*
X109455858Y-81186564D01*
X109673572Y-81186564D02*
X110109001Y-81186564D01*
X109891287Y-81948564D02*
X109891287Y-81186564D01*
X106553001Y-83245779D02*
X106661858Y-83282064D01*
X106843287Y-83282064D01*
X106915858Y-83245779D01*
X106952144Y-83209493D01*
X106988429Y-83136921D01*
X106988429Y-83064350D01*
X106952144Y-82991779D01*
X106915858Y-82955493D01*
X106843287Y-82919207D01*
X106698144Y-82882921D01*
X106625572Y-82846636D01*
X106589287Y-82810350D01*
X106553001Y-82737779D01*
X106553001Y-82665207D01*
X106589287Y-82592636D01*
X106625572Y-82556350D01*
X106698144Y-82520064D01*
X106879572Y-82520064D01*
X106988429Y-82556350D01*
X107242429Y-82520064D02*
X107423858Y-83282064D01*
X107569001Y-82737779D01*
X107714143Y-83282064D01*
X107895572Y-82520064D01*
X108185858Y-83282064D02*
X108185858Y-82520064D01*
X108439857Y-82520064D02*
X108875286Y-82520064D01*
X108657572Y-83282064D02*
X108657572Y-82520064D01*
X109564714Y-83209493D02*
X109528428Y-83245779D01*
X109419571Y-83282064D01*
X109347000Y-83282064D01*
X109238143Y-83245779D01*
X109165571Y-83173207D01*
X109129286Y-83100636D01*
X109093000Y-82955493D01*
X109093000Y-82846636D01*
X109129286Y-82701493D01*
X109165571Y-82628921D01*
X109238143Y-82556350D01*
X109347000Y-82520064D01*
X109419571Y-82520064D01*
X109528428Y-82556350D01*
X109564714Y-82592636D01*
X109891286Y-83282064D02*
X109891286Y-82520064D01*
X109891286Y-82882921D02*
X110326714Y-82882921D01*
X110326714Y-83282064D02*
X110326714Y-82520064D01*
X123331514Y-125769914D02*
X123331514Y-126132771D01*
X122569514Y-126132771D01*
X122932371Y-125515914D02*
X122932371Y-125261914D01*
X123331514Y-125153057D02*
X123331514Y-125515914D01*
X122569514Y-125515914D01*
X122569514Y-125153057D01*
X123331514Y-124826485D02*
X122569514Y-124826485D01*
X122569514Y-124645057D01*
X122605800Y-124536200D01*
X122678371Y-124463628D01*
X122750943Y-124427343D01*
X122896086Y-124391057D01*
X123004943Y-124391057D01*
X123150086Y-124427343D01*
X123222657Y-124463628D01*
X123295229Y-124536200D01*
X123331514Y-124645057D01*
X123331514Y-124826485D01*
X123331514Y-123665343D02*
X123331514Y-124100771D01*
X123331514Y-123883057D02*
X122569514Y-123883057D01*
X122678371Y-123955628D01*
X122750943Y-124028200D01*
X122787229Y-124100771D01*
X125998514Y-125795314D02*
X125998514Y-126158171D01*
X125236514Y-126158171D01*
X125599371Y-125541314D02*
X125599371Y-125287314D01*
X125998514Y-125178457D02*
X125998514Y-125541314D01*
X125236514Y-125541314D01*
X125236514Y-125178457D01*
X125998514Y-124851885D02*
X125236514Y-124851885D01*
X125236514Y-124670457D01*
X125272800Y-124561600D01*
X125345371Y-124489028D01*
X125417943Y-124452743D01*
X125563086Y-124416457D01*
X125671943Y-124416457D01*
X125817086Y-124452743D01*
X125889657Y-124489028D01*
X125962229Y-124561600D01*
X125998514Y-124670457D01*
X125998514Y-124851885D01*
X125309086Y-124126171D02*
X125272800Y-124089885D01*
X125236514Y-124017314D01*
X125236514Y-123835885D01*
X125272800Y-123763314D01*
X125309086Y-123727028D01*
X125381657Y-123690743D01*
X125454229Y-123690743D01*
X125563086Y-123727028D01*
X125998514Y-124162457D01*
X125998514Y-123690743D01*
X128589314Y-125795314D02*
X128589314Y-126158171D01*
X127827314Y-126158171D01*
X128190171Y-125541314D02*
X128190171Y-125287314D01*
X128589314Y-125178457D02*
X128589314Y-125541314D01*
X127827314Y-125541314D01*
X127827314Y-125178457D01*
X128589314Y-124851885D02*
X127827314Y-124851885D01*
X127827314Y-124670457D01*
X127863600Y-124561600D01*
X127936171Y-124489028D01*
X128008743Y-124452743D01*
X128153886Y-124416457D01*
X128262743Y-124416457D01*
X128407886Y-124452743D01*
X128480457Y-124489028D01*
X128553029Y-124561600D01*
X128589314Y-124670457D01*
X128589314Y-124851885D01*
X127827314Y-124162457D02*
X127827314Y-123690743D01*
X128117600Y-123944743D01*
X128117600Y-123835885D01*
X128153886Y-123763314D01*
X128190171Y-123727028D01*
X128262743Y-123690743D01*
X128444171Y-123690743D01*
X128516743Y-123727028D01*
X128553029Y-123763314D01*
X128589314Y-123835885D01*
X128589314Y-124053600D01*
X128553029Y-124126171D01*
X128516743Y-124162457D01*
X131173764Y-125769913D02*
X131173764Y-126132770D01*
X130411764Y-126132770D01*
X131173764Y-125515913D02*
X130411764Y-125515913D01*
X130411764Y-125225628D01*
X130448050Y-125153056D01*
X130484336Y-125116771D01*
X130556907Y-125080485D01*
X130665764Y-125080485D01*
X130738336Y-125116771D01*
X130774621Y-125153056D01*
X130810907Y-125225628D01*
X130810907Y-125515913D01*
X131137479Y-124790199D02*
X131173764Y-124681342D01*
X131173764Y-124499913D01*
X131137479Y-124427342D01*
X131101193Y-124391056D01*
X131028621Y-124354771D01*
X130956050Y-124354771D01*
X130883479Y-124391056D01*
X130847193Y-124427342D01*
X130810907Y-124499913D01*
X130774621Y-124645056D01*
X130738336Y-124717628D01*
X130702050Y-124753913D01*
X130629479Y-124790199D01*
X130556907Y-124790199D01*
X130484336Y-124753913D01*
X130448050Y-124717628D01*
X130411764Y-124645056D01*
X130411764Y-124463628D01*
X130448050Y-124354771D01*
X130411764Y-124100771D02*
X130411764Y-123629057D01*
X130702050Y-123883057D01*
X130702050Y-123774199D01*
X130738336Y-123701628D01*
X130774621Y-123665342D01*
X130847193Y-123629057D01*
X131028621Y-123629057D01*
X131101193Y-123665342D01*
X131137479Y-123701628D01*
X131173764Y-123774199D01*
X131173764Y-123991914D01*
X131137479Y-124064485D01*
X131101193Y-124100771D01*
X130411764Y-122939628D02*
X130411764Y-123302485D01*
X130774621Y-123338771D01*
X130738336Y-123302485D01*
X130702050Y-123229914D01*
X130702050Y-123048485D01*
X130738336Y-122975914D01*
X130774621Y-122939628D01*
X130847193Y-122903343D01*
X131028621Y-122903343D01*
X131101193Y-122939628D01*
X131137479Y-122975914D01*
X131173764Y-123048485D01*
X131173764Y-123229914D01*
X131137479Y-123302485D01*
X131101193Y-123338771D01*
X132507264Y-125225628D02*
X131745264Y-125225628D01*
X132507264Y-124862771D02*
X131745264Y-124862771D01*
X132507264Y-124427343D01*
X131745264Y-124427343D01*
X131745264Y-124173343D02*
X131745264Y-123737914D01*
X132507264Y-123955628D02*
X131745264Y-123955628D01*
X133637564Y-125769913D02*
X133637564Y-126132770D01*
X132875564Y-126132770D01*
X133637564Y-125515913D02*
X132875564Y-125515913D01*
X132875564Y-125225628D01*
X132911850Y-125153056D01*
X132948136Y-125116771D01*
X133020707Y-125080485D01*
X133129564Y-125080485D01*
X133202136Y-125116771D01*
X133238421Y-125153056D01*
X133274707Y-125225628D01*
X133274707Y-125515913D01*
X133601279Y-124790199D02*
X133637564Y-124681342D01*
X133637564Y-124499913D01*
X133601279Y-124427342D01*
X133564993Y-124391056D01*
X133492421Y-124354771D01*
X133419850Y-124354771D01*
X133347279Y-124391056D01*
X133310993Y-124427342D01*
X133274707Y-124499913D01*
X133238421Y-124645056D01*
X133202136Y-124717628D01*
X133165850Y-124753913D01*
X133093279Y-124790199D01*
X133020707Y-124790199D01*
X132948136Y-124753913D01*
X132911850Y-124717628D01*
X132875564Y-124645056D01*
X132875564Y-124463628D01*
X132911850Y-124354771D01*
X132948136Y-124064485D02*
X132911850Y-124028199D01*
X132875564Y-123955628D01*
X132875564Y-123774199D01*
X132911850Y-123701628D01*
X132948136Y-123665342D01*
X133020707Y-123629057D01*
X133093279Y-123629057D01*
X133202136Y-123665342D01*
X133637564Y-124100771D01*
X133637564Y-123629057D01*
X132875564Y-122939628D02*
X132875564Y-123302485D01*
X133238421Y-123338771D01*
X133202136Y-123302485D01*
X133165850Y-123229914D01*
X133165850Y-123048485D01*
X133202136Y-122975914D01*
X133238421Y-122939628D01*
X133310993Y-122903343D01*
X133492421Y-122903343D01*
X133564993Y-122939628D01*
X133601279Y-122975914D01*
X133637564Y-123048485D01*
X133637564Y-123229914D01*
X133601279Y-123302485D01*
X133564993Y-123338771D01*
X134971064Y-125225628D02*
X134209064Y-125225628D01*
X134971064Y-124862771D02*
X134209064Y-124862771D01*
X134971064Y-124427343D01*
X134209064Y-124427343D01*
X134209064Y-124173343D02*
X134209064Y-123737914D01*
X134971064Y-123955628D02*
X134209064Y-123955628D01*
D13*
X103502582Y-109802367D02*
X104107344Y-109802367D01*
X103381629Y-110165224D02*
X103804963Y-108895224D01*
X104228296Y-110165224D01*
X104651629Y-110165224D02*
X104651629Y-109318557D01*
X104651629Y-109439510D02*
X104712105Y-109379033D01*
X104833058Y-109318557D01*
X105014486Y-109318557D01*
X105135438Y-109379033D01*
X105195915Y-109499986D01*
X105195915Y-110165224D01*
X105195915Y-109499986D02*
X105256391Y-109379033D01*
X105377343Y-109318557D01*
X105558772Y-109318557D01*
X105679724Y-109379033D01*
X105740200Y-109499986D01*
X105740200Y-110165224D01*
X106344962Y-110165224D02*
X106344962Y-108895224D01*
X106344962Y-109379033D02*
X106465914Y-109318557D01*
X106707819Y-109318557D01*
X106828771Y-109379033D01*
X106889248Y-109439510D01*
X106949724Y-109560462D01*
X106949724Y-109923319D01*
X106889248Y-110044271D01*
X106828771Y-110104748D01*
X106707819Y-110165224D01*
X106465914Y-110165224D01*
X106344962Y-110104748D01*
X107494010Y-110165224D02*
X107494010Y-109318557D01*
X107494010Y-108895224D02*
X107433534Y-108955700D01*
X107494010Y-109016176D01*
X107554486Y-108955700D01*
X107494010Y-108895224D01*
X107494010Y-109016176D01*
X108582581Y-110104748D02*
X108461629Y-110165224D01*
X108219724Y-110165224D01*
X108098772Y-110104748D01*
X108038296Y-109983795D01*
X108038296Y-109499986D01*
X108098772Y-109379033D01*
X108219724Y-109318557D01*
X108461629Y-109318557D01*
X108582581Y-109379033D01*
X108643058Y-109499986D01*
X108643058Y-109620938D01*
X108038296Y-109741890D01*
X109187343Y-109318557D02*
X109187343Y-110165224D01*
X109187343Y-109439510D02*
X109247819Y-109379033D01*
X109368772Y-109318557D01*
X109550200Y-109318557D01*
X109671152Y-109379033D01*
X109731629Y-109499986D01*
X109731629Y-110165224D01*
X110154962Y-109318557D02*
X110638772Y-109318557D01*
X110336391Y-108895224D02*
X110336391Y-109983795D01*
X110396867Y-110104748D01*
X110517820Y-110165224D01*
X110638772Y-110165224D01*
X110759724Y-110286176D02*
X111727343Y-110286176D01*
X112029724Y-110165224D02*
X112029724Y-109318557D01*
X112029724Y-109560462D02*
X112090200Y-109439510D01*
X112150676Y-109379033D01*
X112271629Y-109318557D01*
X112392581Y-109318557D01*
X113299723Y-110104748D02*
X113178771Y-110165224D01*
X112936866Y-110165224D01*
X112815914Y-110104748D01*
X112755438Y-109983795D01*
X112755438Y-109499986D01*
X112815914Y-109379033D01*
X112936866Y-109318557D01*
X113178771Y-109318557D01*
X113299723Y-109379033D01*
X113360200Y-109499986D01*
X113360200Y-109620938D01*
X112755438Y-109741890D01*
X113783533Y-109318557D02*
X114085914Y-110165224D01*
X114388294Y-109318557D01*
X115295437Y-109499986D02*
X115476866Y-109560462D01*
X115537342Y-109620938D01*
X115597818Y-109741890D01*
X115597818Y-109923319D01*
X115537342Y-110044271D01*
X115476866Y-110104748D01*
X115355913Y-110165224D01*
X114872104Y-110165224D01*
X114872104Y-108895224D01*
X115295437Y-108895224D01*
X115416390Y-108955700D01*
X115476866Y-109016176D01*
X115537342Y-109137129D01*
X115537342Y-109258081D01*
X115476866Y-109379033D01*
X115416390Y-109439510D01*
X115295437Y-109499986D01*
X114872104Y-109499986D01*
X103684009Y-112370224D02*
X103684009Y-111100224D01*
X103684009Y-111704986D02*
X104409723Y-111704986D01*
X104409723Y-112370224D02*
X104409723Y-111100224D01*
X105558771Y-111523557D02*
X105558771Y-112370224D01*
X105014485Y-111523557D02*
X105014485Y-112188795D01*
X105074961Y-112309748D01*
X105195914Y-112370224D01*
X105377342Y-112370224D01*
X105498294Y-112309748D01*
X105558771Y-112249271D01*
X106707819Y-112370224D02*
X106707819Y-111704986D01*
X106647342Y-111584033D01*
X106526390Y-111523557D01*
X106284485Y-111523557D01*
X106163533Y-111584033D01*
X106707819Y-112309748D02*
X106586866Y-112370224D01*
X106284485Y-112370224D01*
X106163533Y-112309748D01*
X106103057Y-112188795D01*
X106103057Y-112067843D01*
X106163533Y-111946890D01*
X106284485Y-111886414D01*
X106586866Y-111886414D01*
X106707819Y-111825938D01*
X107312581Y-111523557D02*
X107312581Y-112370224D01*
X107312581Y-111644510D02*
X107373057Y-111584033D01*
X107494010Y-111523557D01*
X107675438Y-111523557D01*
X107796390Y-111584033D01*
X107856867Y-111704986D01*
X107856867Y-112370224D01*
X109005915Y-111523557D02*
X109005915Y-112551652D01*
X108945438Y-112672605D01*
X108884962Y-112733081D01*
X108764010Y-112793557D01*
X108582581Y-112793557D01*
X108461629Y-112733081D01*
X109005915Y-112309748D02*
X108884962Y-112370224D01*
X108643058Y-112370224D01*
X108522105Y-112309748D01*
X108461629Y-112249271D01*
X108401153Y-112128319D01*
X108401153Y-111765462D01*
X108461629Y-111644510D01*
X108522105Y-111584033D01*
X108643058Y-111523557D01*
X108884962Y-111523557D01*
X109005915Y-111584033D01*
X109671153Y-112309748D02*
X109671153Y-112370224D01*
X109610677Y-112491176D01*
X109550201Y-112551652D01*
X111122582Y-111221176D02*
X111183058Y-111160700D01*
X111304010Y-111100224D01*
X111606391Y-111100224D01*
X111727344Y-111160700D01*
X111787820Y-111221176D01*
X111848296Y-111342129D01*
X111848296Y-111463081D01*
X111787820Y-111644510D01*
X111062106Y-112370224D01*
X111848296Y-112370224D01*
X112634487Y-111100224D02*
X112755439Y-111100224D01*
X112876391Y-111160700D01*
X112936868Y-111221176D01*
X112997344Y-111342129D01*
X113057820Y-111584033D01*
X113057820Y-111886414D01*
X112997344Y-112128319D01*
X112936868Y-112249271D01*
X112876391Y-112309748D01*
X112755439Y-112370224D01*
X112634487Y-112370224D01*
X112513534Y-112309748D01*
X112453058Y-112249271D01*
X112392582Y-112128319D01*
X112332106Y-111886414D01*
X112332106Y-111584033D01*
X112392582Y-111342129D01*
X112453058Y-111221176D01*
X112513534Y-111160700D01*
X112634487Y-111100224D01*
X114267344Y-112370224D02*
X113541630Y-112370224D01*
X113904487Y-112370224D02*
X113904487Y-111100224D01*
X113783535Y-111281652D01*
X113662582Y-111402605D01*
X113541630Y-111463081D01*
X115355916Y-111100224D02*
X115114011Y-111100224D01*
X114993059Y-111160700D01*
X114932582Y-111221176D01*
X114811630Y-111402605D01*
X114751154Y-111644510D01*
X114751154Y-112128319D01*
X114811630Y-112249271D01*
X114872106Y-112309748D01*
X114993059Y-112370224D01*
X115234963Y-112370224D01*
X115355916Y-112309748D01*
X115416392Y-112249271D01*
X115476868Y-112128319D01*
X115476868Y-111825938D01*
X115416392Y-111704986D01*
X115355916Y-111644510D01*
X115234963Y-111584033D01*
X114993059Y-111584033D01*
X114872106Y-111644510D01*
X114811630Y-111704986D01*
X114751154Y-111825938D01*
D12*
X151358600Y-89564028D02*
X151394886Y-89491457D01*
X151394886Y-89382600D01*
X151358600Y-89273743D01*
X151286029Y-89201171D01*
X151213457Y-89164886D01*
X151068314Y-89128600D01*
X150959457Y-89128600D01*
X150814314Y-89164886D01*
X150741743Y-89201171D01*
X150669171Y-89273743D01*
X150632886Y-89382600D01*
X150632886Y-89455171D01*
X150669171Y-89564028D01*
X150705457Y-89600314D01*
X150959457Y-89600314D01*
X150959457Y-89455171D01*
X150632886Y-89926886D02*
X151394886Y-89926886D01*
X150632886Y-90362314D01*
X151394886Y-90362314D01*
X150632886Y-90725172D02*
X151394886Y-90725172D01*
X151394886Y-90906600D01*
X151358600Y-91015457D01*
X151286029Y-91088029D01*
X151213457Y-91124314D01*
X151068314Y-91160600D01*
X150959457Y-91160600D01*
X150814314Y-91124314D01*
X150741743Y-91088029D01*
X150669171Y-91015457D01*
X150632886Y-90906600D01*
X150632886Y-90725172D01*
X150694571Y-86628515D02*
X150658286Y-86737372D01*
X150658286Y-86918801D01*
X150694571Y-86991372D01*
X150730857Y-87027658D01*
X150803429Y-87063943D01*
X150876000Y-87063943D01*
X150948571Y-87027658D01*
X150984857Y-86991372D01*
X151021143Y-86918801D01*
X151057429Y-86773658D01*
X151093714Y-86701086D01*
X151130000Y-86664801D01*
X151202571Y-86628515D01*
X151275143Y-86628515D01*
X151347714Y-86664801D01*
X151384000Y-86701086D01*
X151420286Y-86773658D01*
X151420286Y-86955086D01*
X151384000Y-87063943D01*
X150658286Y-87390515D02*
X151420286Y-87390515D01*
X151420286Y-87571943D01*
X151384000Y-87680800D01*
X151311429Y-87753372D01*
X151238857Y-87789657D01*
X151093714Y-87825943D01*
X150984857Y-87825943D01*
X150839714Y-87789657D01*
X150767143Y-87753372D01*
X150694571Y-87680800D01*
X150658286Y-87571943D01*
X150658286Y-87390515D01*
X150876000Y-88116229D02*
X150876000Y-88479086D01*
X150658286Y-88043657D02*
X151420286Y-88297657D01*
X150658286Y-88551657D01*
X150719971Y-83801858D02*
X150683686Y-83910715D01*
X150683686Y-84092144D01*
X150719971Y-84164715D01*
X150756257Y-84201001D01*
X150828829Y-84237286D01*
X150901400Y-84237286D01*
X150973971Y-84201001D01*
X151010257Y-84164715D01*
X151046543Y-84092144D01*
X151082829Y-83947001D01*
X151119114Y-83874429D01*
X151155400Y-83838144D01*
X151227971Y-83801858D01*
X151300543Y-83801858D01*
X151373114Y-83838144D01*
X151409400Y-83874429D01*
X151445686Y-83947001D01*
X151445686Y-84128429D01*
X151409400Y-84237286D01*
X150756257Y-84999286D02*
X150719971Y-84963000D01*
X150683686Y-84854143D01*
X150683686Y-84781572D01*
X150719971Y-84672715D01*
X150792543Y-84600143D01*
X150865114Y-84563858D01*
X151010257Y-84527572D01*
X151119114Y-84527572D01*
X151264257Y-84563858D01*
X151336829Y-84600143D01*
X151409400Y-84672715D01*
X151445686Y-84781572D01*
X151445686Y-84854143D01*
X151409400Y-84963000D01*
X151373114Y-84999286D01*
X150683686Y-85688715D02*
X150683686Y-85325858D01*
X151445686Y-85325858D01*
X150567573Y-94756514D02*
X150567573Y-93994514D01*
X150894144Y-94720229D02*
X151003001Y-94756514D01*
X151184430Y-94756514D01*
X151257001Y-94720229D01*
X151293287Y-94683943D01*
X151329572Y-94611371D01*
X151329572Y-94538800D01*
X151293287Y-94466229D01*
X151257001Y-94429943D01*
X151184430Y-94393657D01*
X151039287Y-94357371D01*
X150966715Y-94321086D01*
X150930430Y-94284800D01*
X150894144Y-94212229D01*
X150894144Y-94139657D01*
X150930430Y-94067086D01*
X150966715Y-94030800D01*
X151039287Y-93994514D01*
X151220715Y-93994514D01*
X151329572Y-94030800D01*
X152019001Y-94756514D02*
X151656144Y-94756514D01*
X151656144Y-93994514D01*
X152091572Y-94829086D02*
X152672143Y-94829086D01*
X152853572Y-94756514D02*
X152853572Y-93994514D01*
X153216429Y-94756514D02*
X153216429Y-93994514D01*
X153651857Y-94756514D01*
X153651857Y-93994514D01*
X153905857Y-93994514D02*
X154341286Y-93994514D01*
X154123572Y-94756514D02*
X154123572Y-93994514D01*
X150458715Y-96610714D02*
X150894144Y-96610714D01*
X150676430Y-97372714D02*
X150676430Y-96610714D01*
X151111858Y-97336429D02*
X151220715Y-97372714D01*
X151402144Y-97372714D01*
X151474715Y-97336429D01*
X151511001Y-97300143D01*
X151547286Y-97227571D01*
X151547286Y-97155000D01*
X151511001Y-97082429D01*
X151474715Y-97046143D01*
X151402144Y-97009857D01*
X151257001Y-96973571D01*
X151184429Y-96937286D01*
X151148144Y-96901000D01*
X151111858Y-96828429D01*
X151111858Y-96755857D01*
X151148144Y-96683286D01*
X151184429Y-96647000D01*
X151257001Y-96610714D01*
X151438429Y-96610714D01*
X151547286Y-96647000D01*
X152236715Y-97372714D02*
X151873858Y-97372714D01*
X151873858Y-96610714D01*
X152309286Y-97445286D02*
X152889857Y-97445286D01*
X153071286Y-97372714D02*
X153071286Y-96610714D01*
X153434143Y-97372714D02*
X153434143Y-96610714D01*
X153869571Y-97372714D01*
X153869571Y-96610714D01*
X154123571Y-96610714D02*
X154559000Y-96610714D01*
X154341286Y-97372714D02*
X154341286Y-96610714D01*
X150930430Y-99861914D02*
X150567573Y-99861914D01*
X150567573Y-99099914D01*
X151184430Y-99861914D02*
X151184430Y-99099914D01*
X151474715Y-99099914D01*
X151547287Y-99136200D01*
X151583572Y-99172486D01*
X151619858Y-99245057D01*
X151619858Y-99353914D01*
X151583572Y-99426486D01*
X151547287Y-99462771D01*
X151474715Y-99499057D01*
X151184430Y-99499057D01*
X151910144Y-99825629D02*
X152019001Y-99861914D01*
X152200430Y-99861914D01*
X152273001Y-99825629D01*
X152309287Y-99789343D01*
X152345572Y-99716771D01*
X152345572Y-99644200D01*
X152309287Y-99571629D01*
X152273001Y-99535343D01*
X152200430Y-99499057D01*
X152055287Y-99462771D01*
X151982715Y-99426486D01*
X151946430Y-99390200D01*
X151910144Y-99317629D01*
X151910144Y-99245057D01*
X151946430Y-99172486D01*
X151982715Y-99136200D01*
X152055287Y-99099914D01*
X152236715Y-99099914D01*
X152345572Y-99136200D01*
X152490715Y-99934486D02*
X153071286Y-99934486D01*
X153252715Y-99861914D02*
X153252715Y-99099914D01*
X153615572Y-99861914D02*
X153615572Y-99099914D01*
X154051000Y-99861914D01*
X154051000Y-99099914D01*
X154305000Y-99099914D02*
X154740429Y-99099914D01*
X154522715Y-99861914D02*
X154522715Y-99099914D01*
X154958143Y-99172486D02*
X154994429Y-99136200D01*
X155067000Y-99099914D01*
X155248429Y-99099914D01*
X155321000Y-99136200D01*
X155357286Y-99172486D01*
X155393571Y-99245057D01*
X155393571Y-99317629D01*
X155357286Y-99426486D01*
X154921857Y-99861914D01*
X155393571Y-99861914D01*
X150930430Y-102401914D02*
X150567573Y-102401914D01*
X150567573Y-101639914D01*
X151184430Y-102401914D02*
X151184430Y-101639914D01*
X151474715Y-101639914D01*
X151547287Y-101676200D01*
X151583572Y-101712486D01*
X151619858Y-101785057D01*
X151619858Y-101893914D01*
X151583572Y-101966486D01*
X151547287Y-102002771D01*
X151474715Y-102039057D01*
X151184430Y-102039057D01*
X151910144Y-102365629D02*
X152019001Y-102401914D01*
X152200430Y-102401914D01*
X152273001Y-102365629D01*
X152309287Y-102329343D01*
X152345572Y-102256771D01*
X152345572Y-102184200D01*
X152309287Y-102111629D01*
X152273001Y-102075343D01*
X152200430Y-102039057D01*
X152055287Y-102002771D01*
X151982715Y-101966486D01*
X151946430Y-101930200D01*
X151910144Y-101857629D01*
X151910144Y-101785057D01*
X151946430Y-101712486D01*
X151982715Y-101676200D01*
X152055287Y-101639914D01*
X152236715Y-101639914D01*
X152345572Y-101676200D01*
X152490715Y-102474486D02*
X153071286Y-102474486D01*
X153252715Y-102401914D02*
X153252715Y-101639914D01*
X153615572Y-102401914D02*
X153615572Y-101639914D01*
X154051000Y-102401914D01*
X154051000Y-101639914D01*
X154305000Y-101639914D02*
X154740429Y-101639914D01*
X154522715Y-102401914D02*
X154522715Y-101639914D01*
X155393571Y-102401914D02*
X154958143Y-102401914D01*
X155175857Y-102401914D02*
X155175857Y-101639914D01*
X155103286Y-101748771D01*
X155030714Y-101821343D01*
X154958143Y-101857629D01*
X150567573Y-104256114D02*
X150567573Y-104872971D01*
X150603858Y-104945543D01*
X150640144Y-104981829D01*
X150712715Y-105018114D01*
X150857858Y-105018114D01*
X150930430Y-104981829D01*
X150966715Y-104945543D01*
X151003001Y-104872971D01*
X151003001Y-104256114D01*
X151329573Y-104981829D02*
X151438430Y-105018114D01*
X151619859Y-105018114D01*
X151692430Y-104981829D01*
X151728716Y-104945543D01*
X151765001Y-104872971D01*
X151765001Y-104800400D01*
X151728716Y-104727829D01*
X151692430Y-104691543D01*
X151619859Y-104655257D01*
X151474716Y-104618971D01*
X151402144Y-104582686D01*
X151365859Y-104546400D01*
X151329573Y-104473829D01*
X151329573Y-104401257D01*
X151365859Y-104328686D01*
X151402144Y-104292400D01*
X151474716Y-104256114D01*
X151656144Y-104256114D01*
X151765001Y-104292400D01*
X152055287Y-104800400D02*
X152418144Y-104800400D01*
X151982715Y-105018114D02*
X152236715Y-104256114D01*
X152490715Y-105018114D01*
X153180144Y-105018114D02*
X152926144Y-104655257D01*
X152744716Y-105018114D02*
X152744716Y-104256114D01*
X153035001Y-104256114D01*
X153107573Y-104292400D01*
X153143858Y-104328686D01*
X153180144Y-104401257D01*
X153180144Y-104510114D01*
X153143858Y-104582686D01*
X153107573Y-104618971D01*
X153035001Y-104655257D01*
X152744716Y-104655257D01*
X153397858Y-104256114D02*
X153833287Y-104256114D01*
X153615573Y-105018114D02*
X153615573Y-104256114D01*
X153905858Y-105090686D02*
X154486429Y-105090686D01*
X154559000Y-104256114D02*
X154994429Y-104256114D01*
X154776715Y-105018114D02*
X154776715Y-104256114D01*
X155175857Y-104256114D02*
X155683857Y-105018114D01*
X155683857Y-104256114D02*
X155175857Y-105018114D01*
X150567573Y-106694514D02*
X150567573Y-107311371D01*
X150603858Y-107383943D01*
X150640144Y-107420229D01*
X150712715Y-107456514D01*
X150857858Y-107456514D01*
X150930430Y-107420229D01*
X150966715Y-107383943D01*
X151003001Y-107311371D01*
X151003001Y-106694514D01*
X151329573Y-107420229D02*
X151438430Y-107456514D01*
X151619859Y-107456514D01*
X151692430Y-107420229D01*
X151728716Y-107383943D01*
X151765001Y-107311371D01*
X151765001Y-107238800D01*
X151728716Y-107166229D01*
X151692430Y-107129943D01*
X151619859Y-107093657D01*
X151474716Y-107057371D01*
X151402144Y-107021086D01*
X151365859Y-106984800D01*
X151329573Y-106912229D01*
X151329573Y-106839657D01*
X151365859Y-106767086D01*
X151402144Y-106730800D01*
X151474716Y-106694514D01*
X151656144Y-106694514D01*
X151765001Y-106730800D01*
X152055287Y-107238800D02*
X152418144Y-107238800D01*
X151982715Y-107456514D02*
X152236715Y-106694514D01*
X152490715Y-107456514D01*
X153180144Y-107456514D02*
X152926144Y-107093657D01*
X152744716Y-107456514D02*
X152744716Y-106694514D01*
X153035001Y-106694514D01*
X153107573Y-106730800D01*
X153143858Y-106767086D01*
X153180144Y-106839657D01*
X153180144Y-106948514D01*
X153143858Y-107021086D01*
X153107573Y-107057371D01*
X153035001Y-107093657D01*
X152744716Y-107093657D01*
X153397858Y-106694514D02*
X153833287Y-106694514D01*
X153615573Y-107456514D02*
X153615573Y-106694514D01*
X153905858Y-107529086D02*
X154486429Y-107529086D01*
X155103286Y-107456514D02*
X154849286Y-107093657D01*
X154667858Y-107456514D02*
X154667858Y-106694514D01*
X154958143Y-106694514D01*
X155030715Y-106730800D01*
X155067000Y-106767086D01*
X155103286Y-106839657D01*
X155103286Y-106948514D01*
X155067000Y-107021086D01*
X155030715Y-107057371D01*
X154958143Y-107093657D01*
X154667858Y-107093657D01*
X155357286Y-106694514D02*
X155865286Y-107456514D01*
X155865286Y-106694514D02*
X155357286Y-107456514D01*
D11*
X131714381Y-87477600D02*
G75*
G03X131714381Y-87477600I-91581J0D01*
G01*
X124615527Y-88392000D02*
G75*
G03X124615527Y-88392000I-104727J0D01*
G01*
D12*
X116048971Y-60822114D02*
X116048971Y-60060114D01*
X116302971Y-60604400D01*
X116556971Y-60060114D01*
X116556971Y-60822114D01*
X117028685Y-60822114D02*
X116956113Y-60785829D01*
X116919828Y-60749543D01*
X116883542Y-60676971D01*
X116883542Y-60459257D01*
X116919828Y-60386686D01*
X116956113Y-60350400D01*
X117028685Y-60314114D01*
X117137542Y-60314114D01*
X117210113Y-60350400D01*
X117246399Y-60386686D01*
X117282685Y-60459257D01*
X117282685Y-60676971D01*
X117246399Y-60749543D01*
X117210113Y-60785829D01*
X117137542Y-60822114D01*
X117028685Y-60822114D01*
X117935828Y-60822114D02*
X117935828Y-60060114D01*
X117935828Y-60785829D02*
X117863257Y-60822114D01*
X117718114Y-60822114D01*
X117645542Y-60785829D01*
X117609257Y-60749543D01*
X117572971Y-60676971D01*
X117572971Y-60459257D01*
X117609257Y-60386686D01*
X117645542Y-60350400D01*
X117718114Y-60314114D01*
X117863257Y-60314114D01*
X117935828Y-60350400D01*
X118625257Y-60314114D02*
X118625257Y-60822114D01*
X118298686Y-60314114D02*
X118298686Y-60713257D01*
X118334971Y-60785829D01*
X118407543Y-60822114D01*
X118516400Y-60822114D01*
X118588971Y-60785829D01*
X118625257Y-60749543D01*
X119096972Y-60822114D02*
X119024400Y-60785829D01*
X118988115Y-60713257D01*
X118988115Y-60060114D01*
X119677543Y-60785829D02*
X119604972Y-60822114D01*
X119459829Y-60822114D01*
X119387258Y-60785829D01*
X119350972Y-60713257D01*
X119350972Y-60422971D01*
X119387258Y-60350400D01*
X119459829Y-60314114D01*
X119604972Y-60314114D01*
X119677543Y-60350400D01*
X119713829Y-60422971D01*
X119713829Y-60495543D01*
X119350972Y-60568114D01*
X120983829Y-60822114D02*
X120620972Y-60822114D01*
X120620972Y-60060114D01*
X121346686Y-60822114D02*
X121274114Y-60785829D01*
X121237829Y-60749543D01*
X121201543Y-60676971D01*
X121201543Y-60459257D01*
X121237829Y-60386686D01*
X121274114Y-60350400D01*
X121346686Y-60314114D01*
X121455543Y-60314114D01*
X121528114Y-60350400D01*
X121564400Y-60386686D01*
X121600686Y-60459257D01*
X121600686Y-60676971D01*
X121564400Y-60749543D01*
X121528114Y-60785829D01*
X121455543Y-60822114D01*
X121346686Y-60822114D01*
X122253829Y-60785829D02*
X122181258Y-60822114D01*
X122036115Y-60822114D01*
X121963543Y-60785829D01*
X121927258Y-60749543D01*
X121890972Y-60676971D01*
X121890972Y-60459257D01*
X121927258Y-60386686D01*
X121963543Y-60350400D01*
X122036115Y-60314114D01*
X122181258Y-60314114D01*
X122253829Y-60350400D01*
X122906972Y-60822114D02*
X122906972Y-60422971D01*
X122870686Y-60350400D01*
X122798115Y-60314114D01*
X122652972Y-60314114D01*
X122580401Y-60350400D01*
X122906972Y-60785829D02*
X122834401Y-60822114D01*
X122652972Y-60822114D01*
X122580401Y-60785829D01*
X122544115Y-60713257D01*
X122544115Y-60640686D01*
X122580401Y-60568114D01*
X122652972Y-60531829D01*
X122834401Y-60531829D01*
X122906972Y-60495543D01*
X123160972Y-60314114D02*
X123451258Y-60314114D01*
X123269830Y-60060114D02*
X123269830Y-60713257D01*
X123306115Y-60785829D01*
X123378687Y-60822114D01*
X123451258Y-60822114D01*
X123705259Y-60822114D02*
X123705259Y-60314114D01*
X123705259Y-60060114D02*
X123668973Y-60096400D01*
X123705259Y-60132686D01*
X123741544Y-60096400D01*
X123705259Y-60060114D01*
X123705259Y-60132686D01*
X124176973Y-60822114D02*
X124104401Y-60785829D01*
X124068116Y-60749543D01*
X124031830Y-60676971D01*
X124031830Y-60459257D01*
X124068116Y-60386686D01*
X124104401Y-60350400D01*
X124176973Y-60314114D01*
X124285830Y-60314114D01*
X124358401Y-60350400D01*
X124394687Y-60386686D01*
X124430973Y-60459257D01*
X124430973Y-60676971D01*
X124394687Y-60749543D01*
X124358401Y-60785829D01*
X124285830Y-60822114D01*
X124176973Y-60822114D01*
X124757545Y-60314114D02*
X124757545Y-60822114D01*
X124757545Y-60386686D02*
X124793830Y-60350400D01*
X124866402Y-60314114D01*
X124975259Y-60314114D01*
X125047830Y-60350400D01*
X125084116Y-60422971D01*
X125084116Y-60822114D01*
X125446974Y-60749543D02*
X125483259Y-60785829D01*
X125446974Y-60822114D01*
X125410688Y-60785829D01*
X125446974Y-60749543D01*
X125446974Y-60822114D01*
X125446974Y-60350400D02*
X125483259Y-60386686D01*
X125446974Y-60422971D01*
X125410688Y-60386686D01*
X125446974Y-60350400D01*
X125446974Y-60422971D01*
X126753259Y-60060114D02*
X126390402Y-60060114D01*
X126354116Y-60422971D01*
X126390402Y-60386686D01*
X126462973Y-60350400D01*
X126644402Y-60350400D01*
X126716973Y-60386686D01*
X126753259Y-60422971D01*
X126789544Y-60495543D01*
X126789544Y-60676971D01*
X126753259Y-60749543D01*
X126716973Y-60785829D01*
X126644402Y-60822114D01*
X126462973Y-60822114D01*
X126390402Y-60785829D01*
X126354116Y-60749543D01*
X127152401Y-60785829D02*
X127152401Y-60822114D01*
X127116116Y-60894686D01*
X127079830Y-60930971D01*
X127805544Y-60314114D02*
X127805544Y-60822114D01*
X127624115Y-60023829D02*
X127442687Y-60568114D01*
X127914401Y-60568114D01*
D14*
X135470000Y-81830800D02*
X135470000Y-80830800D01*
X133770000Y-80830800D02*
X133770000Y-81830800D01*
X148150200Y-80353800D02*
X147150200Y-80353800D01*
X147150200Y-82053800D02*
X148150200Y-82053800D01*
X118854200Y-87176800D02*
X118854200Y-87676800D01*
X119804200Y-87676800D02*
X119804200Y-87176800D01*
X129840800Y-95054400D02*
X129340800Y-95054400D01*
X129340800Y-96004400D02*
X129840800Y-96004400D01*
X116386800Y-88435200D02*
X116886800Y-88435200D01*
X116886800Y-87485200D02*
X116386800Y-87485200D01*
X118635800Y-100376800D02*
X118635800Y-99876800D01*
X117685800Y-99876800D02*
X117685800Y-100376800D01*
X124151200Y-99956600D02*
X123651200Y-99956600D01*
X123651200Y-100906600D02*
X124151200Y-100906600D01*
X112986800Y-90631200D02*
X112986800Y-91131200D01*
X113936800Y-91131200D02*
X113936800Y-90631200D01*
X112997000Y-99818000D02*
X112997000Y-99318000D01*
X112047000Y-99318000D02*
X112047000Y-99818000D01*
X115410000Y-99767200D02*
X115410000Y-99267200D01*
X114460000Y-99267200D02*
X114460000Y-99767200D01*
X131568000Y-89745800D02*
X131068000Y-89745800D01*
X131068000Y-90695800D02*
X131568000Y-90695800D01*
X143223000Y-89581800D02*
X143223000Y-89081800D01*
X142273000Y-89081800D02*
X142273000Y-89581800D01*
X140812000Y-91608200D02*
X140112000Y-91608200D01*
X140112000Y-90408200D02*
X140812000Y-90408200D01*
X136339600Y-90521600D02*
X136339600Y-90021600D01*
X135389600Y-90021600D02*
X135389600Y-90521600D01*
X128099800Y-82198400D02*
X128099800Y-82698400D01*
X129049800Y-82698400D02*
X129049800Y-82198400D01*
D15*
X115235000Y-97359600D02*
X112235000Y-97359600D01*
X112235000Y-97359600D02*
X112235000Y-94359600D01*
X112235000Y-94359600D02*
X115235000Y-94359600D01*
X115235000Y-94359600D02*
X115235000Y-97359600D01*
D14*
X113356200Y-92515200D02*
X112856200Y-92515200D01*
X112856200Y-93565200D02*
X113356200Y-93565200D01*
D15*
X137502200Y-81532400D02*
X137502200Y-79532400D01*
X137502200Y-79532400D02*
X139502200Y-79532400D01*
X139502200Y-79532400D02*
X139502200Y-81532400D01*
X139502200Y-81532400D02*
X137502200Y-81532400D01*
D14*
X126706600Y-91189600D02*
X126706600Y-91714600D01*
X119456600Y-98439600D02*
X119456600Y-97914600D01*
X126706600Y-98439600D02*
X126706600Y-97914600D01*
X119456600Y-91189600D02*
X119981600Y-91189600D01*
X119456600Y-98439600D02*
X119981600Y-98439600D01*
X126706600Y-98439600D02*
X126181600Y-98439600D01*
X126706600Y-91189600D02*
X126181600Y-91189600D01*
D15*
X117505800Y-91627200D02*
X115005800Y-91627200D01*
X115005800Y-91627200D02*
X115005800Y-89627200D01*
X115005800Y-89627200D02*
X117505800Y-89627200D01*
X117505800Y-89627200D02*
X117505800Y-91627200D01*
X116665800Y-89057200D02*
X117965800Y-89057200D01*
X117965800Y-89057200D02*
X117965800Y-90357200D01*
D16*
X142153841Y-85098665D02*
G75*
G03X142153841Y-85098665I-223606J0D01*
G01*
X138280235Y-85398665D02*
X138280235Y-88648665D01*
X138280235Y-88648665D02*
X141580235Y-88648665D01*
X141580235Y-88648665D02*
X141580235Y-85348665D01*
X141580235Y-85348665D02*
X138280235Y-85348665D01*
D17*
X135710635Y-88243265D02*
G75*
G03X135710635Y-88243265I-200000J0D01*
G01*
D14*
X150190200Y-83489800D02*
X143840200Y-83489800D01*
X150190200Y-91109800D02*
X143840200Y-91109800D01*
X148285200Y-91109800D02*
X148285200Y-83489800D01*
X150190200Y-83489800D02*
X150190200Y-91109800D01*
X143840200Y-91109800D02*
X143840200Y-83489800D01*
X143840200Y-100711000D02*
X143840200Y-108331000D01*
X148285200Y-100711000D02*
X148285200Y-108331000D01*
X150190200Y-100711000D02*
X150190200Y-108331000D01*
X150190200Y-93091000D02*
X143840200Y-93091000D01*
X150190200Y-108331000D02*
X143840200Y-108331000D01*
X148285200Y-100711000D02*
X148285200Y-93091000D01*
X150190200Y-93091000D02*
X150190200Y-100711000D01*
X143840200Y-100711000D02*
X143840200Y-93091000D01*
X116113000Y-105148200D02*
X116113000Y-106948200D01*
X117313000Y-105148200D02*
X117313000Y-106948200D01*
X118703800Y-105122800D02*
X118703800Y-106922800D01*
X119903800Y-105122800D02*
X119903800Y-106922800D01*
X121345400Y-105122800D02*
X121345400Y-106922800D01*
X122545400Y-105122800D02*
X122545400Y-106922800D01*
X117238000Y-110282800D02*
X117238000Y-109782800D01*
X116188000Y-109782800D02*
X116188000Y-110282800D01*
X119828800Y-110282800D02*
X119828800Y-109782800D01*
X118778800Y-109782800D02*
X118778800Y-110282800D01*
X122470400Y-110282800D02*
X122470400Y-109782800D01*
X121420400Y-109782800D02*
X121420400Y-110282800D01*
X153107200Y-87486000D02*
X152607200Y-87486000D01*
X152607200Y-88536000D02*
X153107200Y-88536000D01*
X152632600Y-90872800D02*
X153132600Y-90872800D01*
X153132600Y-89822800D02*
X152632600Y-89822800D01*
D15*
X99339400Y-98196400D02*
X99339400Y-93116400D01*
X101053900Y-91401900D02*
X105244900Y-91401900D01*
X106959400Y-93116400D02*
X106959400Y-98196400D01*
X105244900Y-99910900D02*
X101053900Y-99910900D01*
X101053901Y-99910901D02*
G75*
G02X99339400Y-98196400I0J1714501D01*
G01*
X99339401Y-93116401D02*
G75*
G02X101053900Y-91401900I1714500J1D01*
G01*
X106959399Y-98196399D02*
G75*
G02X105244900Y-99910900I-1714500J-1D01*
G01*
X105244899Y-91401899D02*
G75*
G02X106959400Y-93116400I0J-1714501D01*
G01*
X104419400Y-96926400D02*
G75*
G03X104419400Y-96926400I-635000J0D01*
G01*
D14*
X124933000Y-103409000D02*
X124933000Y-104109000D01*
X123733000Y-104109000D02*
X123733000Y-103409000D01*
X146679400Y-120869000D02*
X145979400Y-120869000D01*
X145979400Y-119669000D02*
X146679400Y-119669000D01*
X146257200Y-118026200D02*
X146757200Y-118026200D01*
X146757200Y-117076200D02*
X146257200Y-117076200D01*
X131804600Y-118940600D02*
X132304600Y-118940600D01*
X132304600Y-117990600D02*
X131804600Y-117990600D01*
X132226800Y-121554800D02*
X131526800Y-121554800D01*
X131526800Y-120354800D02*
X132226800Y-120354800D01*
X102861600Y-101748400D02*
X102861600Y-101248400D01*
X101811600Y-101248400D02*
X101811600Y-101748400D01*
X97341200Y-96778000D02*
X97341200Y-97278000D01*
X98391200Y-97278000D02*
X98391200Y-96778000D01*
X125408200Y-114761200D02*
X125408200Y-115261200D01*
X126458200Y-115261200D02*
X126458200Y-114761200D01*
X128024400Y-114754000D02*
X128024400Y-115254000D01*
X129074400Y-115254000D02*
X129074400Y-114754000D01*
X140368800Y-114329400D02*
X140368800Y-114829400D01*
X141418800Y-114829400D02*
X141418800Y-114329400D01*
X142883400Y-114329400D02*
X142883400Y-114829400D01*
X143933400Y-114829400D02*
X143933400Y-114329400D01*
X127000000Y-132842000D02*
X134620000Y-132842000D01*
X127000000Y-128397000D02*
X134620000Y-128397000D01*
X127000000Y-126492000D02*
X134620000Y-126492000D01*
X119380000Y-126492000D02*
X119380000Y-132842000D01*
X134620000Y-126492000D02*
X134620000Y-132842000D01*
X127000000Y-128397000D02*
X119380000Y-128397000D01*
X119380000Y-126492000D02*
X127000000Y-126492000D01*
X127000000Y-132842000D02*
X119380000Y-132842000D01*
D18*
G36*
X119710200Y-113512600D02*
X119710200Y-116509800D01*
X118491000Y-116509800D01*
X118491000Y-121894600D01*
X119710200Y-121894600D01*
X119710200Y-124942600D01*
X113817400Y-124942600D01*
X113817400Y-121894600D01*
X115138200Y-121894600D01*
X115138200Y-118069448D01*
X114893601Y-118394524D01*
X114814319Y-118500775D01*
X114681896Y-118679304D01*
X114503391Y-118920549D01*
X114285868Y-119214946D01*
X114036388Y-119552932D01*
X113762014Y-119924946D01*
X113469807Y-120321423D01*
X113166829Y-120732801D01*
X113162339Y-120738900D01*
X112868481Y-121137044D01*
X112592420Y-121509152D01*
X112340056Y-121847407D01*
X112117291Y-122143988D01*
X111930025Y-122391079D01*
X111784159Y-122580859D01*
X111685593Y-122705512D01*
X111640229Y-122757217D01*
X111638338Y-122758200D01*
X111601493Y-122718433D01*
X111511506Y-122604787D01*
X111374724Y-122425745D01*
X111197499Y-122189787D01*
X110986179Y-121905396D01*
X110747113Y-121581054D01*
X110486651Y-121225242D01*
X110335918Y-121018300D01*
X110045779Y-120619440D01*
X109756578Y-120222198D01*
X109477701Y-119839444D01*
X109218536Y-119484048D01*
X108988470Y-119168883D01*
X108796890Y-118906819D01*
X108653183Y-118710727D01*
X108624718Y-118671999D01*
X108178600Y-118065599D01*
X108178600Y-121894600D01*
X109499400Y-121894600D01*
X109499400Y-124942600D01*
X103606600Y-124942600D01*
X103606600Y-121894600D01*
X104825800Y-121894600D01*
X104825800Y-116509800D01*
X103606600Y-116509800D01*
X103606600Y-113512600D01*
X108255695Y-113512600D01*
X109930628Y-115828221D01*
X110241284Y-116257250D01*
X110534450Y-116661245D01*
X110804681Y-117032758D01*
X111046527Y-117364343D01*
X111254543Y-117648551D01*
X111423280Y-117877935D01*
X111547291Y-118045049D01*
X111621128Y-118142445D01*
X111640057Y-118165161D01*
X111675322Y-118129148D01*
X111764515Y-118017902D01*
X111902233Y-117838670D01*
X112083075Y-117598696D01*
X112301637Y-117305226D01*
X112552516Y-116965505D01*
X112830312Y-116586778D01*
X113129621Y-116176290D01*
X113366708Y-115849540D01*
X115058865Y-113512599D01*
X117384532Y-113512599D01*
X119710200Y-113512600D01*
X119710200Y-113512600D01*
G37*
X119710200Y-113512600D02*
X119710200Y-116509800D01*
X118491000Y-116509800D01*
X118491000Y-121894600D01*
X119710200Y-121894600D01*
X119710200Y-124942600D01*
X113817400Y-124942600D01*
X113817400Y-121894600D01*
X115138200Y-121894600D01*
X115138200Y-118069448D01*
X114893601Y-118394524D01*
X114814319Y-118500775D01*
X114681896Y-118679304D01*
X114503391Y-118920549D01*
X114285868Y-119214946D01*
X114036388Y-119552932D01*
X113762014Y-119924946D01*
X113469807Y-120321423D01*
X113166829Y-120732801D01*
X113162339Y-120738900D01*
X112868481Y-121137044D01*
X112592420Y-121509152D01*
X112340056Y-121847407D01*
X112117291Y-122143988D01*
X111930025Y-122391079D01*
X111784159Y-122580859D01*
X111685593Y-122705512D01*
X111640229Y-122757217D01*
X111638338Y-122758200D01*
X111601493Y-122718433D01*
X111511506Y-122604787D01*
X111374724Y-122425745D01*
X111197499Y-122189787D01*
X110986179Y-121905396D01*
X110747113Y-121581054D01*
X110486651Y-121225242D01*
X110335918Y-121018300D01*
X110045779Y-120619440D01*
X109756578Y-120222198D01*
X109477701Y-119839444D01*
X109218536Y-119484048D01*
X108988470Y-119168883D01*
X108796890Y-118906819D01*
X108653183Y-118710727D01*
X108624718Y-118671999D01*
X108178600Y-118065599D01*
X108178600Y-121894600D01*
X109499400Y-121894600D01*
X109499400Y-124942600D01*
X103606600Y-124942600D01*
X103606600Y-121894600D01*
X104825800Y-121894600D01*
X104825800Y-116509800D01*
X103606600Y-116509800D01*
X103606600Y-113512600D01*
X108255695Y-113512600D01*
X109930628Y-115828221D01*
X110241284Y-116257250D01*
X110534450Y-116661245D01*
X110804681Y-117032758D01*
X111046527Y-117364343D01*
X111254543Y-117648551D01*
X111423280Y-117877935D01*
X111547291Y-118045049D01*
X111621128Y-118142445D01*
X111640057Y-118165161D01*
X111675322Y-118129148D01*
X111764515Y-118017902D01*
X111902233Y-117838670D01*
X112083075Y-117598696D01*
X112301637Y-117305226D01*
X112552516Y-116965505D01*
X112830312Y-116586778D01*
X113129621Y-116176290D01*
X113366708Y-115849540D01*
X115058865Y-113512599D01*
X117384532Y-113512599D01*
X119710200Y-113512600D01*
D14*
X103817400Y-88573800D02*
X103817400Y-89073800D01*
X104767400Y-89073800D02*
X104767400Y-88573800D01*
X109719600Y-89277000D02*
X109719600Y-88777000D01*
X108669600Y-88777000D02*
X108669600Y-89277000D01*
X106180400Y-88777000D02*
X106180400Y-89277000D01*
X107230400Y-89277000D02*
X107230400Y-88777000D01*
X132860143Y-81508600D02*
X132896429Y-81544886D01*
X132932714Y-81653743D01*
X132932714Y-81726314D01*
X132896429Y-81835171D01*
X132823857Y-81907743D01*
X132751286Y-81944028D01*
X132606143Y-81980314D01*
X132497286Y-81980314D01*
X132352143Y-81944028D01*
X132279571Y-81907743D01*
X132207000Y-81835171D01*
X132170714Y-81726314D01*
X132170714Y-81653743D01*
X132207000Y-81544886D01*
X132243286Y-81508600D01*
X132932714Y-80782886D02*
X132932714Y-81218314D01*
X132932714Y-81000600D02*
X132170714Y-81000600D01*
X132279571Y-81073171D01*
X132352143Y-81145743D01*
X132388429Y-81218314D01*
X147396200Y-79393143D02*
X147359914Y-79429429D01*
X147251057Y-79465714D01*
X147178486Y-79465714D01*
X147069629Y-79429429D01*
X146997057Y-79356857D01*
X146960772Y-79284286D01*
X146924486Y-79139143D01*
X146924486Y-79030286D01*
X146960772Y-78885143D01*
X146997057Y-78812571D01*
X147069629Y-78740000D01*
X147178486Y-78703714D01*
X147251057Y-78703714D01*
X147359914Y-78740000D01*
X147396200Y-78776286D01*
X147686486Y-78776286D02*
X147722772Y-78740000D01*
X147795343Y-78703714D01*
X147976772Y-78703714D01*
X148049343Y-78740000D01*
X148085629Y-78776286D01*
X148121914Y-78848857D01*
X148121914Y-78921429D01*
X148085629Y-79030286D01*
X147650200Y-79465714D01*
X148121914Y-79465714D01*
X119126000Y-86022543D02*
X119089714Y-86058829D01*
X118980857Y-86095114D01*
X118908286Y-86095114D01*
X118799429Y-86058829D01*
X118726857Y-85986257D01*
X118690572Y-85913686D01*
X118654286Y-85768543D01*
X118654286Y-85659686D01*
X118690572Y-85514543D01*
X118726857Y-85441971D01*
X118799429Y-85369400D01*
X118908286Y-85333114D01*
X118980857Y-85333114D01*
X119089714Y-85369400D01*
X119126000Y-85405686D01*
X119380000Y-85333114D02*
X119851714Y-85333114D01*
X119597714Y-85623400D01*
X119706572Y-85623400D01*
X119779143Y-85659686D01*
X119815429Y-85695971D01*
X119851714Y-85768543D01*
X119851714Y-85949971D01*
X119815429Y-86022543D01*
X119779143Y-86058829D01*
X119706572Y-86095114D01*
X119488857Y-86095114D01*
X119416286Y-86058829D01*
X119380000Y-86022543D01*
X129463800Y-94760143D02*
X129427514Y-94796429D01*
X129318657Y-94832714D01*
X129246086Y-94832714D01*
X129137229Y-94796429D01*
X129064657Y-94723857D01*
X129028372Y-94651286D01*
X128992086Y-94506143D01*
X128992086Y-94397286D01*
X129028372Y-94252143D01*
X129064657Y-94179571D01*
X129137229Y-94107000D01*
X129246086Y-94070714D01*
X129318657Y-94070714D01*
X129427514Y-94107000D01*
X129463800Y-94143286D01*
X130116943Y-94324714D02*
X130116943Y-94832714D01*
X129935514Y-94034429D02*
X129754086Y-94578714D01*
X130225800Y-94578714D01*
X116484400Y-87038543D02*
X116448114Y-87074829D01*
X116339257Y-87111114D01*
X116266686Y-87111114D01*
X116157829Y-87074829D01*
X116085257Y-87002257D01*
X116048972Y-86929686D01*
X116012686Y-86784543D01*
X116012686Y-86675686D01*
X116048972Y-86530543D01*
X116085257Y-86457971D01*
X116157829Y-86385400D01*
X116266686Y-86349114D01*
X116339257Y-86349114D01*
X116448114Y-86385400D01*
X116484400Y-86421686D01*
X117173829Y-86349114D02*
X116810972Y-86349114D01*
X116774686Y-86711971D01*
X116810972Y-86675686D01*
X116883543Y-86639400D01*
X117064972Y-86639400D01*
X117137543Y-86675686D01*
X117173829Y-86711971D01*
X117210114Y-86784543D01*
X117210114Y-86965971D01*
X117173829Y-87038543D01*
X117137543Y-87074829D01*
X117064972Y-87111114D01*
X116883543Y-87111114D01*
X116810972Y-87074829D01*
X116774686Y-87038543D01*
X118033800Y-102126143D02*
X117997514Y-102162429D01*
X117888657Y-102198714D01*
X117816086Y-102198714D01*
X117707229Y-102162429D01*
X117634657Y-102089857D01*
X117598372Y-102017286D01*
X117562086Y-101872143D01*
X117562086Y-101763286D01*
X117598372Y-101618143D01*
X117634657Y-101545571D01*
X117707229Y-101473000D01*
X117816086Y-101436714D01*
X117888657Y-101436714D01*
X117997514Y-101473000D01*
X118033800Y-101509286D01*
X118686943Y-101436714D02*
X118541800Y-101436714D01*
X118469229Y-101473000D01*
X118432943Y-101509286D01*
X118360372Y-101618143D01*
X118324086Y-101763286D01*
X118324086Y-102053571D01*
X118360372Y-102126143D01*
X118396657Y-102162429D01*
X118469229Y-102198714D01*
X118614372Y-102198714D01*
X118686943Y-102162429D01*
X118723229Y-102126143D01*
X118759514Y-102053571D01*
X118759514Y-101872143D01*
X118723229Y-101799571D01*
X118686943Y-101763286D01*
X118614372Y-101727000D01*
X118469229Y-101727000D01*
X118396657Y-101763286D01*
X118360372Y-101799571D01*
X118324086Y-101872143D01*
X121818400Y-100703743D02*
X121782114Y-100740029D01*
X121673257Y-100776314D01*
X121600686Y-100776314D01*
X121491829Y-100740029D01*
X121419257Y-100667457D01*
X121382972Y-100594886D01*
X121346686Y-100449743D01*
X121346686Y-100340886D01*
X121382972Y-100195743D01*
X121419257Y-100123171D01*
X121491829Y-100050600D01*
X121600686Y-100014314D01*
X121673257Y-100014314D01*
X121782114Y-100050600D01*
X121818400Y-100086886D01*
X122072400Y-100014314D02*
X122580400Y-100014314D01*
X122253829Y-100776314D01*
X112590943Y-91008200D02*
X112627229Y-91044486D01*
X112663514Y-91153343D01*
X112663514Y-91225914D01*
X112627229Y-91334771D01*
X112554657Y-91407343D01*
X112482086Y-91443628D01*
X112336943Y-91479914D01*
X112228086Y-91479914D01*
X112082943Y-91443628D01*
X112010371Y-91407343D01*
X111937800Y-91334771D01*
X111901514Y-91225914D01*
X111901514Y-91153343D01*
X111937800Y-91044486D01*
X111974086Y-91008200D01*
X112228086Y-90572771D02*
X112191800Y-90645343D01*
X112155514Y-90681628D01*
X112082943Y-90717914D01*
X112046657Y-90717914D01*
X111974086Y-90681628D01*
X111937800Y-90645343D01*
X111901514Y-90572771D01*
X111901514Y-90427628D01*
X111937800Y-90355057D01*
X111974086Y-90318771D01*
X112046657Y-90282486D01*
X112082943Y-90282486D01*
X112155514Y-90318771D01*
X112191800Y-90355057D01*
X112228086Y-90427628D01*
X112228086Y-90572771D01*
X112264371Y-90645343D01*
X112300657Y-90681628D01*
X112373229Y-90717914D01*
X112518371Y-90717914D01*
X112590943Y-90681628D01*
X112627229Y-90645343D01*
X112663514Y-90572771D01*
X112663514Y-90427628D01*
X112627229Y-90355057D01*
X112590943Y-90318771D01*
X112518371Y-90282486D01*
X112373229Y-90282486D01*
X112300657Y-90318771D01*
X112264371Y-90355057D01*
X112228086Y-90427628D01*
X111524143Y-99568000D02*
X111560429Y-99604286D01*
X111596714Y-99713143D01*
X111596714Y-99785714D01*
X111560429Y-99894571D01*
X111487857Y-99967143D01*
X111415286Y-100003428D01*
X111270143Y-100039714D01*
X111161286Y-100039714D01*
X111016143Y-100003428D01*
X110943571Y-99967143D01*
X110871000Y-99894571D01*
X110834714Y-99785714D01*
X110834714Y-99713143D01*
X110871000Y-99604286D01*
X110907286Y-99568000D01*
X111596714Y-99205143D02*
X111596714Y-99060000D01*
X111560429Y-98987428D01*
X111524143Y-98951143D01*
X111415286Y-98878571D01*
X111270143Y-98842286D01*
X110979857Y-98842286D01*
X110907286Y-98878571D01*
X110871000Y-98914857D01*
X110834714Y-98987428D01*
X110834714Y-99132571D01*
X110871000Y-99205143D01*
X110907286Y-99241428D01*
X110979857Y-99277714D01*
X111161286Y-99277714D01*
X111233857Y-99241428D01*
X111270143Y-99205143D01*
X111306429Y-99132571D01*
X111306429Y-98987428D01*
X111270143Y-98914857D01*
X111233857Y-98878571D01*
X111161286Y-98842286D01*
X116553343Y-100032457D02*
X116589629Y-100068743D01*
X116625914Y-100177600D01*
X116625914Y-100250171D01*
X116589629Y-100359028D01*
X116517057Y-100431600D01*
X116444486Y-100467885D01*
X116299343Y-100504171D01*
X116190486Y-100504171D01*
X116045343Y-100467885D01*
X115972771Y-100431600D01*
X115900200Y-100359028D01*
X115863914Y-100250171D01*
X115863914Y-100177600D01*
X115900200Y-100068743D01*
X115936486Y-100032457D01*
X116625914Y-99306743D02*
X116625914Y-99742171D01*
X116625914Y-99524457D02*
X115863914Y-99524457D01*
X115972771Y-99597028D01*
X116045343Y-99669600D01*
X116081629Y-99742171D01*
X115863914Y-98835029D02*
X115863914Y-98762457D01*
X115900200Y-98689886D01*
X115936486Y-98653600D01*
X116009057Y-98617314D01*
X116154200Y-98581029D01*
X116335629Y-98581029D01*
X116480771Y-98617314D01*
X116553343Y-98653600D01*
X116589629Y-98689886D01*
X116625914Y-98762457D01*
X116625914Y-98835029D01*
X116589629Y-98907600D01*
X116553343Y-98943886D01*
X116480771Y-98980171D01*
X116335629Y-99016457D01*
X116154200Y-99016457D01*
X116009057Y-98980171D01*
X115936486Y-98943886D01*
X115900200Y-98907600D01*
X115863914Y-98835029D01*
X128465943Y-90391343D02*
X128429657Y-90427629D01*
X128320800Y-90463914D01*
X128248229Y-90463914D01*
X128139372Y-90427629D01*
X128066800Y-90355057D01*
X128030515Y-90282486D01*
X127994229Y-90137343D01*
X127994229Y-90028486D01*
X128030515Y-89883343D01*
X128066800Y-89810771D01*
X128139372Y-89738200D01*
X128248229Y-89701914D01*
X128320800Y-89701914D01*
X128429657Y-89738200D01*
X128465943Y-89774486D01*
X129191657Y-90463914D02*
X128756229Y-90463914D01*
X128973943Y-90463914D02*
X128973943Y-89701914D01*
X128901372Y-89810771D01*
X128828800Y-89883343D01*
X128756229Y-89919629D01*
X129917371Y-90463914D02*
X129481943Y-90463914D01*
X129699657Y-90463914D02*
X129699657Y-89701914D01*
X129627086Y-89810771D01*
X129554514Y-89883343D01*
X129481943Y-89919629D01*
X143045543Y-92082257D02*
X143081829Y-92118543D01*
X143118114Y-92227400D01*
X143118114Y-92299971D01*
X143081829Y-92408828D01*
X143009257Y-92481400D01*
X142936686Y-92517685D01*
X142791543Y-92553971D01*
X142682686Y-92553971D01*
X142537543Y-92517685D01*
X142464971Y-92481400D01*
X142392400Y-92408828D01*
X142356114Y-92299971D01*
X142356114Y-92227400D01*
X142392400Y-92118543D01*
X142428686Y-92082257D01*
X143118114Y-91356543D02*
X143118114Y-91791971D01*
X143118114Y-91574257D02*
X142356114Y-91574257D01*
X142464971Y-91646828D01*
X142537543Y-91719400D01*
X142573829Y-91791971D01*
X142428686Y-91066257D02*
X142392400Y-91029971D01*
X142356114Y-90957400D01*
X142356114Y-90775971D01*
X142392400Y-90703400D01*
X142428686Y-90667114D01*
X142501257Y-90630829D01*
X142573829Y-90630829D01*
X142682686Y-90667114D01*
X143118114Y-91102543D01*
X143118114Y-90630829D01*
X139946743Y-92702743D02*
X139910457Y-92739029D01*
X139801600Y-92775314D01*
X139729029Y-92775314D01*
X139620172Y-92739029D01*
X139547600Y-92666457D01*
X139511315Y-92593886D01*
X139475029Y-92448743D01*
X139475029Y-92339886D01*
X139511315Y-92194743D01*
X139547600Y-92122171D01*
X139620172Y-92049600D01*
X139729029Y-92013314D01*
X139801600Y-92013314D01*
X139910457Y-92049600D01*
X139946743Y-92085886D01*
X140672457Y-92775314D02*
X140237029Y-92775314D01*
X140454743Y-92775314D02*
X140454743Y-92013314D01*
X140382172Y-92122171D01*
X140309600Y-92194743D01*
X140237029Y-92231029D01*
X140926457Y-92013314D02*
X141398171Y-92013314D01*
X141144171Y-92303600D01*
X141253029Y-92303600D01*
X141325600Y-92339886D01*
X141361886Y-92376171D01*
X141398171Y-92448743D01*
X141398171Y-92630171D01*
X141361886Y-92702743D01*
X141325600Y-92739029D01*
X141253029Y-92775314D01*
X141035314Y-92775314D01*
X140962743Y-92739029D01*
X140926457Y-92702743D01*
X134841343Y-90786857D02*
X134877629Y-90823143D01*
X134913914Y-90932000D01*
X134913914Y-91004571D01*
X134877629Y-91113428D01*
X134805057Y-91186000D01*
X134732486Y-91222285D01*
X134587343Y-91258571D01*
X134478486Y-91258571D01*
X134333343Y-91222285D01*
X134260771Y-91186000D01*
X134188200Y-91113428D01*
X134151914Y-91004571D01*
X134151914Y-90932000D01*
X134188200Y-90823143D01*
X134224486Y-90786857D01*
X134913914Y-90061143D02*
X134913914Y-90496571D01*
X134913914Y-90278857D02*
X134151914Y-90278857D01*
X134260771Y-90351428D01*
X134333343Y-90424000D01*
X134369629Y-90496571D01*
X134405914Y-89408000D02*
X134913914Y-89408000D01*
X134115629Y-89589429D02*
X134659914Y-89770857D01*
X134659914Y-89299143D01*
X127729343Y-83039857D02*
X127765629Y-83076143D01*
X127801914Y-83185000D01*
X127801914Y-83257571D01*
X127765629Y-83366428D01*
X127693057Y-83439000D01*
X127620486Y-83475285D01*
X127475343Y-83511571D01*
X127366486Y-83511571D01*
X127221343Y-83475285D01*
X127148771Y-83439000D01*
X127076200Y-83366428D01*
X127039914Y-83257571D01*
X127039914Y-83185000D01*
X127076200Y-83076143D01*
X127112486Y-83039857D01*
X127801914Y-82314143D02*
X127801914Y-82749571D01*
X127801914Y-82531857D02*
X127039914Y-82531857D01*
X127148771Y-82604428D01*
X127221343Y-82677000D01*
X127257629Y-82749571D01*
X127039914Y-81624714D02*
X127039914Y-81987571D01*
X127402771Y-82023857D01*
X127366486Y-81987571D01*
X127330200Y-81915000D01*
X127330200Y-81733571D01*
X127366486Y-81661000D01*
X127402771Y-81624714D01*
X127475343Y-81588429D01*
X127656771Y-81588429D01*
X127729343Y-81624714D01*
X127765629Y-81661000D01*
X127801914Y-81733571D01*
X127801914Y-81915000D01*
X127765629Y-81987571D01*
X127729343Y-82023857D01*
X142519401Y-77967114D02*
X142156544Y-77967114D01*
X142156544Y-77205114D01*
X143172543Y-77967114D02*
X142737115Y-77967114D01*
X142954829Y-77967114D02*
X142954829Y-77205114D01*
X142882258Y-77313971D01*
X142809686Y-77386543D01*
X142737115Y-77422829D01*
X111368114Y-95961199D02*
X111368114Y-96324056D01*
X110606114Y-96324056D01*
X110606114Y-95779771D02*
X110606114Y-95308057D01*
X110896400Y-95562057D01*
X110896400Y-95453199D01*
X110932686Y-95380628D01*
X110968971Y-95344342D01*
X111041543Y-95308057D01*
X111222971Y-95308057D01*
X111295543Y-95344342D01*
X111331829Y-95380628D01*
X111368114Y-95453199D01*
X111368114Y-95670914D01*
X111331829Y-95743485D01*
X111295543Y-95779771D01*
X111201200Y-93384914D02*
X110947200Y-93022057D01*
X110765772Y-93384914D02*
X110765772Y-92622914D01*
X111056057Y-92622914D01*
X111128629Y-92659200D01*
X111164914Y-92695486D01*
X111201200Y-92768057D01*
X111201200Y-92876914D01*
X111164914Y-92949486D01*
X111128629Y-92985771D01*
X111056057Y-93022057D01*
X110765772Y-93022057D01*
X111926914Y-93384914D02*
X111491486Y-93384914D01*
X111709200Y-93384914D02*
X111709200Y-92622914D01*
X111636629Y-92731771D01*
X111564057Y-92804343D01*
X111491486Y-92840629D01*
X136433914Y-81112971D02*
X137050771Y-81112971D01*
X137123343Y-81076686D01*
X137159629Y-81040400D01*
X137195914Y-80967829D01*
X137195914Y-80822686D01*
X137159629Y-80750114D01*
X137123343Y-80713829D01*
X137050771Y-80677543D01*
X136433914Y-80677543D01*
X136506486Y-80350971D02*
X136470200Y-80314685D01*
X136433914Y-80242114D01*
X136433914Y-80060685D01*
X136470200Y-79988114D01*
X136506486Y-79951828D01*
X136579057Y-79915543D01*
X136651629Y-79915543D01*
X136760486Y-79951828D01*
X137195914Y-80387257D01*
X137195914Y-79915543D01*
X118951829Y-89803514D02*
X118951829Y-90420371D01*
X118988114Y-90492943D01*
X119024400Y-90529229D01*
X119096971Y-90565514D01*
X119242114Y-90565514D01*
X119314686Y-90529229D01*
X119350971Y-90492943D01*
X119387257Y-90420371D01*
X119387257Y-89803514D01*
X120076686Y-90057514D02*
X120076686Y-90565514D01*
X119895257Y-89767229D02*
X119713829Y-90311514D01*
X120185543Y-90311514D01*
X130280229Y-85079114D02*
X130280229Y-85695971D01*
X130316514Y-85768543D01*
X130352800Y-85804829D01*
X130425371Y-85841114D01*
X130570514Y-85841114D01*
X130643086Y-85804829D01*
X130679371Y-85768543D01*
X130715657Y-85695971D01*
X130715657Y-85079114D01*
X131441372Y-85079114D02*
X131078515Y-85079114D01*
X131042229Y-85441971D01*
X131078515Y-85405686D01*
X131151086Y-85369400D01*
X131332515Y-85369400D01*
X131405086Y-85405686D01*
X131441372Y-85441971D01*
X131477657Y-85514543D01*
X131477657Y-85695971D01*
X131441372Y-85768543D01*
X131405086Y-85804829D01*
X131332515Y-85841114D01*
X131151086Y-85841114D01*
X131078515Y-85804829D01*
X131042229Y-85768543D01*
X124387429Y-83859914D02*
X124387429Y-84476771D01*
X124423714Y-84549343D01*
X124460000Y-84585629D01*
X124532571Y-84621914D01*
X124677714Y-84621914D01*
X124750286Y-84585629D01*
X124786571Y-84549343D01*
X124822857Y-84476771D01*
X124822857Y-83859914D01*
X125113143Y-83859914D02*
X125621143Y-83859914D01*
X125294572Y-84621914D01*
X114241943Y-88704057D02*
X114241943Y-89066914D01*
X113987943Y-88304914D02*
X114241943Y-88704057D01*
X114495943Y-88304914D01*
X115149086Y-89066914D02*
X114713658Y-89066914D01*
X114931372Y-89066914D02*
X114931372Y-88304914D01*
X114858801Y-88413771D01*
X114786229Y-88486343D01*
X114713658Y-88522629D01*
X138509829Y-84190114D02*
X138509829Y-84806971D01*
X138546114Y-84879543D01*
X138582400Y-84915829D01*
X138654971Y-84952114D01*
X138800114Y-84952114D01*
X138872686Y-84915829D01*
X138908971Y-84879543D01*
X138945257Y-84806971D01*
X138945257Y-84190114D01*
X139634686Y-84190114D02*
X139489543Y-84190114D01*
X139416972Y-84226400D01*
X139380686Y-84262686D01*
X139308115Y-84371543D01*
X139271829Y-84516686D01*
X139271829Y-84806971D01*
X139308115Y-84879543D01*
X139344400Y-84915829D01*
X139416972Y-84952114D01*
X139562115Y-84952114D01*
X139634686Y-84915829D01*
X139670972Y-84879543D01*
X139707257Y-84806971D01*
X139707257Y-84625543D01*
X139670972Y-84552971D01*
X139634686Y-84516686D01*
X139562115Y-84480400D01*
X139416972Y-84480400D01*
X139344400Y-84516686D01*
X139308115Y-84552971D01*
X139271829Y-84625543D01*
X133023429Y-84774314D02*
X133023429Y-85391171D01*
X133059714Y-85463743D01*
X133096000Y-85500029D01*
X133168571Y-85536314D01*
X133313714Y-85536314D01*
X133386286Y-85500029D01*
X133422571Y-85463743D01*
X133458857Y-85391171D01*
X133458857Y-84774314D01*
X133930572Y-85100886D02*
X133858000Y-85064600D01*
X133821715Y-85028314D01*
X133785429Y-84955743D01*
X133785429Y-84919457D01*
X133821715Y-84846886D01*
X133858000Y-84810600D01*
X133930572Y-84774314D01*
X134075715Y-84774314D01*
X134148286Y-84810600D01*
X134184572Y-84846886D01*
X134220857Y-84919457D01*
X134220857Y-84955743D01*
X134184572Y-85028314D01*
X134148286Y-85064600D01*
X134075715Y-85100886D01*
X133930572Y-85100886D01*
X133858000Y-85137171D01*
X133821715Y-85173457D01*
X133785429Y-85246029D01*
X133785429Y-85391171D01*
X133821715Y-85463743D01*
X133858000Y-85500029D01*
X133930572Y-85536314D01*
X134075715Y-85536314D01*
X134148286Y-85500029D01*
X134184572Y-85463743D01*
X134220857Y-85391171D01*
X134220857Y-85246029D01*
X134184572Y-85173457D01*
X134148286Y-85137171D01*
X134075715Y-85100886D01*
X146452772Y-92445114D02*
X146452772Y-91683114D01*
X146743057Y-91683114D01*
X146815629Y-91719400D01*
X146851914Y-91755686D01*
X146888200Y-91828257D01*
X146888200Y-91937114D01*
X146851914Y-92009686D01*
X146815629Y-92045971D01*
X146743057Y-92082257D01*
X146452772Y-92082257D01*
X147613914Y-92445114D02*
X147178486Y-92445114D01*
X147396200Y-92445114D02*
X147396200Y-91683114D01*
X147323629Y-91791971D01*
X147251057Y-91864543D01*
X147178486Y-91900829D01*
X146376572Y-109615514D02*
X146376572Y-108853514D01*
X146666857Y-108853514D01*
X146739429Y-108889800D01*
X146775714Y-108926086D01*
X146812000Y-108998657D01*
X146812000Y-109107514D01*
X146775714Y-109180086D01*
X146739429Y-109216371D01*
X146666857Y-109252657D01*
X146376572Y-109252657D01*
X147102286Y-108926086D02*
X147138572Y-108889800D01*
X147211143Y-108853514D01*
X147392572Y-108853514D01*
X147465143Y-108889800D01*
X147501429Y-108926086D01*
X147537714Y-108998657D01*
X147537714Y-109071229D01*
X147501429Y-109180086D01*
X147066000Y-109615514D01*
X147537714Y-109615514D01*
X115557714Y-106810628D02*
X114795714Y-106810628D01*
X114795714Y-106629200D01*
X114832000Y-106520343D01*
X114904571Y-106447771D01*
X114977143Y-106411486D01*
X115122286Y-106375200D01*
X115231143Y-106375200D01*
X115376286Y-106411486D01*
X115448857Y-106447771D01*
X115521429Y-106520343D01*
X115557714Y-106629200D01*
X115557714Y-106810628D01*
X115557714Y-105649486D02*
X115557714Y-106084914D01*
X115557714Y-105867200D02*
X114795714Y-105867200D01*
X114904571Y-105939771D01*
X114977143Y-106012343D01*
X115013429Y-106084914D01*
X118378514Y-106798828D02*
X117616514Y-106798828D01*
X117616514Y-106617400D01*
X117652800Y-106508543D01*
X117725371Y-106435971D01*
X117797943Y-106399686D01*
X117943086Y-106363400D01*
X118051943Y-106363400D01*
X118197086Y-106399686D01*
X118269657Y-106435971D01*
X118342229Y-106508543D01*
X118378514Y-106617400D01*
X118378514Y-106798828D01*
X117689086Y-106073114D02*
X117652800Y-106036828D01*
X117616514Y-105964257D01*
X117616514Y-105782828D01*
X117652800Y-105710257D01*
X117689086Y-105673971D01*
X117761657Y-105637686D01*
X117834229Y-105637686D01*
X117943086Y-105673971D01*
X118378514Y-106109400D01*
X118378514Y-105637686D01*
X121045514Y-106785228D02*
X120283514Y-106785228D01*
X120283514Y-106603800D01*
X120319800Y-106494943D01*
X120392371Y-106422371D01*
X120464943Y-106386086D01*
X120610086Y-106349800D01*
X120718943Y-106349800D01*
X120864086Y-106386086D01*
X120936657Y-106422371D01*
X121009229Y-106494943D01*
X121045514Y-106603800D01*
X121045514Y-106785228D01*
X120283514Y-106095800D02*
X120283514Y-105624086D01*
X120573800Y-105878086D01*
X120573800Y-105769228D01*
X120610086Y-105696657D01*
X120646371Y-105660371D01*
X120718943Y-105624086D01*
X120900371Y-105624086D01*
X120972943Y-105660371D01*
X121009229Y-105696657D01*
X121045514Y-105769228D01*
X121045514Y-105986943D01*
X121009229Y-106059514D01*
X120972943Y-106095800D01*
X117133914Y-112014000D02*
X116771057Y-112268000D01*
X117133914Y-112449428D02*
X116371914Y-112449428D01*
X116371914Y-112159143D01*
X116408200Y-112086571D01*
X116444486Y-112050286D01*
X116517057Y-112014000D01*
X116625914Y-112014000D01*
X116698486Y-112050286D01*
X116734771Y-112086571D01*
X116771057Y-112159143D01*
X116771057Y-112449428D01*
X116444486Y-111723714D02*
X116408200Y-111687428D01*
X116371914Y-111614857D01*
X116371914Y-111433428D01*
X116408200Y-111360857D01*
X116444486Y-111324571D01*
X116517057Y-111288286D01*
X116589629Y-111288286D01*
X116698486Y-111324571D01*
X117133914Y-111760000D01*
X117133914Y-111288286D01*
X119648514Y-112039400D02*
X119285657Y-112293400D01*
X119648514Y-112474828D02*
X118886514Y-112474828D01*
X118886514Y-112184543D01*
X118922800Y-112111971D01*
X118959086Y-112075686D01*
X119031657Y-112039400D01*
X119140514Y-112039400D01*
X119213086Y-112075686D01*
X119249371Y-112111971D01*
X119285657Y-112184543D01*
X119285657Y-112474828D01*
X118886514Y-111785400D02*
X118886514Y-111313686D01*
X119176800Y-111567686D01*
X119176800Y-111458828D01*
X119213086Y-111386257D01*
X119249371Y-111349971D01*
X119321943Y-111313686D01*
X119503371Y-111313686D01*
X119575943Y-111349971D01*
X119612229Y-111386257D01*
X119648514Y-111458828D01*
X119648514Y-111676543D01*
X119612229Y-111749114D01*
X119575943Y-111785400D01*
X122366314Y-112064800D02*
X122003457Y-112318800D01*
X122366314Y-112500228D02*
X121604314Y-112500228D01*
X121604314Y-112209943D01*
X121640600Y-112137371D01*
X121676886Y-112101086D01*
X121749457Y-112064800D01*
X121858314Y-112064800D01*
X121930886Y-112101086D01*
X121967171Y-112137371D01*
X122003457Y-112209943D01*
X122003457Y-112500228D01*
X121858314Y-111411657D02*
X122366314Y-111411657D01*
X121568029Y-111593086D02*
X122112314Y-111774514D01*
X122112314Y-111302800D01*
X152730200Y-87187314D02*
X152476200Y-86824457D01*
X152294772Y-87187314D02*
X152294772Y-86425314D01*
X152585057Y-86425314D01*
X152657629Y-86461600D01*
X152693914Y-86497886D01*
X152730200Y-86570457D01*
X152730200Y-86679314D01*
X152693914Y-86751886D01*
X152657629Y-86788171D01*
X152585057Y-86824457D01*
X152294772Y-86824457D01*
X153419629Y-86425314D02*
X153056772Y-86425314D01*
X153020486Y-86788171D01*
X153056772Y-86751886D01*
X153129343Y-86715600D01*
X153310772Y-86715600D01*
X153383343Y-86751886D01*
X153419629Y-86788171D01*
X153455914Y-86860743D01*
X153455914Y-87042171D01*
X153419629Y-87114743D01*
X153383343Y-87151029D01*
X153310772Y-87187314D01*
X153129343Y-87187314D01*
X153056772Y-87151029D01*
X153020486Y-87114743D01*
X152755600Y-89549514D02*
X152501600Y-89186657D01*
X152320172Y-89549514D02*
X152320172Y-88787514D01*
X152610457Y-88787514D01*
X152683029Y-88823800D01*
X152719314Y-88860086D01*
X152755600Y-88932657D01*
X152755600Y-89041514D01*
X152719314Y-89114086D01*
X152683029Y-89150371D01*
X152610457Y-89186657D01*
X152320172Y-89186657D01*
X153408743Y-88787514D02*
X153263600Y-88787514D01*
X153191029Y-88823800D01*
X153154743Y-88860086D01*
X153082172Y-88968943D01*
X153045886Y-89114086D01*
X153045886Y-89404371D01*
X153082172Y-89476943D01*
X153118457Y-89513229D01*
X153191029Y-89549514D01*
X153336172Y-89549514D01*
X153408743Y-89513229D01*
X153445029Y-89476943D01*
X153481314Y-89404371D01*
X153481314Y-89222943D01*
X153445029Y-89150371D01*
X153408743Y-89114086D01*
X153336172Y-89077800D01*
X153191029Y-89077800D01*
X153118457Y-89114086D01*
X153082172Y-89150371D01*
X153045886Y-89222943D01*
X111832572Y-74258714D02*
X111832572Y-73496714D01*
X112122857Y-73496714D01*
X112195429Y-73533000D01*
X112231714Y-73569286D01*
X112268000Y-73641857D01*
X112268000Y-73750714D01*
X112231714Y-73823286D01*
X112195429Y-73859571D01*
X112122857Y-73895857D01*
X111832572Y-73895857D01*
X112522000Y-73496714D02*
X112993714Y-73496714D01*
X112739714Y-73787000D01*
X112848572Y-73787000D01*
X112921143Y-73823286D01*
X112957429Y-73859571D01*
X112993714Y-73932143D01*
X112993714Y-74113571D01*
X112957429Y-74186143D01*
X112921143Y-74222429D01*
X112848572Y-74258714D01*
X112630857Y-74258714D01*
X112558286Y-74222429D01*
X112522000Y-74186143D01*
X100402572Y-91022714D02*
X100402572Y-90260714D01*
X100692857Y-90260714D01*
X100765429Y-90297000D01*
X100801714Y-90333286D01*
X100838000Y-90405857D01*
X100838000Y-90514714D01*
X100801714Y-90587286D01*
X100765429Y-90623571D01*
X100692857Y-90659857D01*
X100402572Y-90659857D01*
X101491143Y-90514714D02*
X101491143Y-91022714D01*
X101309714Y-90224429D02*
X101128286Y-90768714D01*
X101600000Y-90768714D01*
X124155201Y-101843114D02*
X123792344Y-101843114D01*
X123792344Y-101081114D01*
X124372915Y-101153686D02*
X124409201Y-101117400D01*
X124481772Y-101081114D01*
X124663201Y-101081114D01*
X124735772Y-101117400D01*
X124772058Y-101153686D01*
X124808343Y-101226257D01*
X124808343Y-101298829D01*
X124772058Y-101407686D01*
X124336629Y-101843114D01*
X124808343Y-101843114D01*
X146042743Y-119220343D02*
X146006457Y-119256629D01*
X145897600Y-119292914D01*
X145825029Y-119292914D01*
X145716172Y-119256629D01*
X145643600Y-119184057D01*
X145607315Y-119111486D01*
X145571029Y-118966343D01*
X145571029Y-118857486D01*
X145607315Y-118712343D01*
X145643600Y-118639771D01*
X145716172Y-118567200D01*
X145825029Y-118530914D01*
X145897600Y-118530914D01*
X146006457Y-118567200D01*
X146042743Y-118603486D01*
X146768457Y-119292914D02*
X146333029Y-119292914D01*
X146550743Y-119292914D02*
X146550743Y-118530914D01*
X146478172Y-118639771D01*
X146405600Y-118712343D01*
X146333029Y-118748629D01*
X147421600Y-118530914D02*
X147276457Y-118530914D01*
X147203886Y-118567200D01*
X147167600Y-118603486D01*
X147095029Y-118712343D01*
X147058743Y-118857486D01*
X147058743Y-119147771D01*
X147095029Y-119220343D01*
X147131314Y-119256629D01*
X147203886Y-119292914D01*
X147349029Y-119292914D01*
X147421600Y-119256629D01*
X147457886Y-119220343D01*
X147494171Y-119147771D01*
X147494171Y-118966343D01*
X147457886Y-118893771D01*
X147421600Y-118857486D01*
X147349029Y-118821200D01*
X147203886Y-118821200D01*
X147131314Y-118857486D01*
X147095029Y-118893771D01*
X147058743Y-118966343D01*
X146068143Y-116731143D02*
X146031857Y-116767429D01*
X145923000Y-116803714D01*
X145850429Y-116803714D01*
X145741572Y-116767429D01*
X145669000Y-116694857D01*
X145632715Y-116622286D01*
X145596429Y-116477143D01*
X145596429Y-116368286D01*
X145632715Y-116223143D01*
X145669000Y-116150571D01*
X145741572Y-116078000D01*
X145850429Y-116041714D01*
X145923000Y-116041714D01*
X146031857Y-116078000D01*
X146068143Y-116114286D01*
X146793857Y-116803714D02*
X146358429Y-116803714D01*
X146576143Y-116803714D02*
X146576143Y-116041714D01*
X146503572Y-116150571D01*
X146431000Y-116223143D01*
X146358429Y-116259429D01*
X147047857Y-116041714D02*
X147555857Y-116041714D01*
X147229286Y-116803714D01*
X131564743Y-117670943D02*
X131528457Y-117707229D01*
X131419600Y-117743514D01*
X131347029Y-117743514D01*
X131238172Y-117707229D01*
X131165600Y-117634657D01*
X131129315Y-117562086D01*
X131093029Y-117416943D01*
X131093029Y-117308086D01*
X131129315Y-117162943D01*
X131165600Y-117090371D01*
X131238172Y-117017800D01*
X131347029Y-116981514D01*
X131419600Y-116981514D01*
X131528457Y-117017800D01*
X131564743Y-117054086D01*
X132290457Y-117743514D02*
X131855029Y-117743514D01*
X132072743Y-117743514D02*
X132072743Y-116981514D01*
X132000172Y-117090371D01*
X131927600Y-117162943D01*
X131855029Y-117199229D01*
X132725886Y-117308086D02*
X132653314Y-117271800D01*
X132617029Y-117235514D01*
X132580743Y-117162943D01*
X132580743Y-117126657D01*
X132617029Y-117054086D01*
X132653314Y-117017800D01*
X132725886Y-116981514D01*
X132871029Y-116981514D01*
X132943600Y-117017800D01*
X132979886Y-117054086D01*
X133016171Y-117126657D01*
X133016171Y-117162943D01*
X132979886Y-117235514D01*
X132943600Y-117271800D01*
X132871029Y-117308086D01*
X132725886Y-117308086D01*
X132653314Y-117344371D01*
X132617029Y-117380657D01*
X132580743Y-117453229D01*
X132580743Y-117598371D01*
X132617029Y-117670943D01*
X132653314Y-117707229D01*
X132725886Y-117743514D01*
X132871029Y-117743514D01*
X132943600Y-117707229D01*
X132979886Y-117670943D01*
X133016171Y-117598371D01*
X133016171Y-117453229D01*
X132979886Y-117380657D01*
X132943600Y-117344371D01*
X132871029Y-117308086D01*
X131412343Y-119906143D02*
X131376057Y-119942429D01*
X131267200Y-119978714D01*
X131194629Y-119978714D01*
X131085772Y-119942429D01*
X131013200Y-119869857D01*
X130976915Y-119797286D01*
X130940629Y-119652143D01*
X130940629Y-119543286D01*
X130976915Y-119398143D01*
X131013200Y-119325571D01*
X131085772Y-119253000D01*
X131194629Y-119216714D01*
X131267200Y-119216714D01*
X131376057Y-119253000D01*
X131412343Y-119289286D01*
X132138057Y-119978714D02*
X131702629Y-119978714D01*
X131920343Y-119978714D02*
X131920343Y-119216714D01*
X131847772Y-119325571D01*
X131775200Y-119398143D01*
X131702629Y-119434429D01*
X132500914Y-119978714D02*
X132646057Y-119978714D01*
X132718629Y-119942429D01*
X132754914Y-119906143D01*
X132827486Y-119797286D01*
X132863771Y-119652143D01*
X132863771Y-119361857D01*
X132827486Y-119289286D01*
X132791200Y-119253000D01*
X132718629Y-119216714D01*
X132573486Y-119216714D01*
X132500914Y-119253000D01*
X132464629Y-119289286D01*
X132428343Y-119361857D01*
X132428343Y-119543286D01*
X132464629Y-119615857D01*
X132500914Y-119652143D01*
X132573486Y-119688429D01*
X132718629Y-119688429D01*
X132791200Y-119652143D01*
X132827486Y-119615857D01*
X132863771Y-119543286D01*
X102235000Y-103646514D02*
X101981000Y-103283657D01*
X101799572Y-103646514D02*
X101799572Y-102884514D01*
X102089857Y-102884514D01*
X102162429Y-102920800D01*
X102198714Y-102957086D01*
X102235000Y-103029657D01*
X102235000Y-103138514D01*
X102198714Y-103211086D01*
X102162429Y-103247371D01*
X102089857Y-103283657D01*
X101799572Y-103283657D01*
X102489000Y-102884514D02*
X102997000Y-102884514D01*
X102670429Y-103646514D01*
X97739200Y-95848714D02*
X97485200Y-95485857D01*
X97303772Y-95848714D02*
X97303772Y-95086714D01*
X97594057Y-95086714D01*
X97666629Y-95123000D01*
X97702914Y-95159286D01*
X97739200Y-95231857D01*
X97739200Y-95340714D01*
X97702914Y-95413286D01*
X97666629Y-95449571D01*
X97594057Y-95485857D01*
X97303772Y-95485857D01*
X98174629Y-95413286D02*
X98102057Y-95377000D01*
X98065772Y-95340714D01*
X98029486Y-95268143D01*
X98029486Y-95231857D01*
X98065772Y-95159286D01*
X98102057Y-95123000D01*
X98174629Y-95086714D01*
X98319772Y-95086714D01*
X98392343Y-95123000D01*
X98428629Y-95159286D01*
X98464914Y-95231857D01*
X98464914Y-95268143D01*
X98428629Y-95340714D01*
X98392343Y-95377000D01*
X98319772Y-95413286D01*
X98174629Y-95413286D01*
X98102057Y-95449571D01*
X98065772Y-95485857D01*
X98029486Y-95558429D01*
X98029486Y-95703571D01*
X98065772Y-95776143D01*
X98102057Y-95812429D01*
X98174629Y-95848714D01*
X98319772Y-95848714D01*
X98392343Y-95812429D01*
X98428629Y-95776143D01*
X98464914Y-95703571D01*
X98464914Y-95558429D01*
X98428629Y-95485857D01*
X98392343Y-95449571D01*
X98319772Y-95413286D01*
X125109514Y-115112800D02*
X124746657Y-115366800D01*
X125109514Y-115548228D02*
X124347514Y-115548228D01*
X124347514Y-115257943D01*
X124383800Y-115185371D01*
X124420086Y-115149086D01*
X124492657Y-115112800D01*
X124601514Y-115112800D01*
X124674086Y-115149086D01*
X124710371Y-115185371D01*
X124746657Y-115257943D01*
X124746657Y-115548228D01*
X125109514Y-114749943D02*
X125109514Y-114604800D01*
X125073229Y-114532228D01*
X125036943Y-114495943D01*
X124928086Y-114423371D01*
X124782943Y-114387086D01*
X124492657Y-114387086D01*
X124420086Y-114423371D01*
X124383800Y-114459657D01*
X124347514Y-114532228D01*
X124347514Y-114677371D01*
X124383800Y-114749943D01*
X124420086Y-114786228D01*
X124492657Y-114822514D01*
X124674086Y-114822514D01*
X124746657Y-114786228D01*
X124782943Y-114749943D01*
X124819229Y-114677371D01*
X124819229Y-114532228D01*
X124782943Y-114459657D01*
X124746657Y-114423371D01*
X124674086Y-114387086D01*
X127700314Y-115493857D02*
X127337457Y-115747857D01*
X127700314Y-115929285D02*
X126938314Y-115929285D01*
X126938314Y-115639000D01*
X126974600Y-115566428D01*
X127010886Y-115530143D01*
X127083457Y-115493857D01*
X127192314Y-115493857D01*
X127264886Y-115530143D01*
X127301171Y-115566428D01*
X127337457Y-115639000D01*
X127337457Y-115929285D01*
X127700314Y-114768143D02*
X127700314Y-115203571D01*
X127700314Y-114985857D02*
X126938314Y-114985857D01*
X127047171Y-115058428D01*
X127119743Y-115131000D01*
X127156029Y-115203571D01*
X126938314Y-114296429D02*
X126938314Y-114223857D01*
X126974600Y-114151286D01*
X127010886Y-114115000D01*
X127083457Y-114078714D01*
X127228600Y-114042429D01*
X127410029Y-114042429D01*
X127555171Y-114078714D01*
X127627743Y-114115000D01*
X127664029Y-114151286D01*
X127700314Y-114223857D01*
X127700314Y-114296429D01*
X127664029Y-114369000D01*
X127627743Y-114405286D01*
X127555171Y-114441571D01*
X127410029Y-114477857D01*
X127228600Y-114477857D01*
X127083457Y-114441571D01*
X127010886Y-114405286D01*
X126974600Y-114369000D01*
X126938314Y-114296429D01*
X139866914Y-115094657D02*
X139504057Y-115348657D01*
X139866914Y-115530085D02*
X139104914Y-115530085D01*
X139104914Y-115239800D01*
X139141200Y-115167228D01*
X139177486Y-115130943D01*
X139250057Y-115094657D01*
X139358914Y-115094657D01*
X139431486Y-115130943D01*
X139467771Y-115167228D01*
X139504057Y-115239800D01*
X139504057Y-115530085D01*
X139866914Y-114368943D02*
X139866914Y-114804371D01*
X139866914Y-114586657D02*
X139104914Y-114586657D01*
X139213771Y-114659228D01*
X139286343Y-114731800D01*
X139322629Y-114804371D01*
X139866914Y-113643229D02*
X139866914Y-114078657D01*
X139866914Y-113860943D02*
X139104914Y-113860943D01*
X139213771Y-113933514D01*
X139286343Y-114006086D01*
X139322629Y-114078657D01*
X142559314Y-115094657D02*
X142196457Y-115348657D01*
X142559314Y-115530085D02*
X141797314Y-115530085D01*
X141797314Y-115239800D01*
X141833600Y-115167228D01*
X141869886Y-115130943D01*
X141942457Y-115094657D01*
X142051314Y-115094657D01*
X142123886Y-115130943D01*
X142160171Y-115167228D01*
X142196457Y-115239800D01*
X142196457Y-115530085D01*
X142559314Y-114368943D02*
X142559314Y-114804371D01*
X142559314Y-114586657D02*
X141797314Y-114586657D01*
X141906171Y-114659228D01*
X141978743Y-114731800D01*
X142015029Y-114804371D01*
X141869886Y-114078657D02*
X141833600Y-114042371D01*
X141797314Y-113969800D01*
X141797314Y-113788371D01*
X141833600Y-113715800D01*
X141869886Y-113679514D01*
X141942457Y-113643229D01*
X142015029Y-113643229D01*
X142123886Y-113679514D01*
X142559314Y-114114943D01*
X142559314Y-113643229D01*
X145901229Y-111926914D02*
X145901229Y-112543771D01*
X145937514Y-112616343D01*
X145973800Y-112652629D01*
X146046371Y-112688914D01*
X146191514Y-112688914D01*
X146264086Y-112652629D01*
X146300371Y-112616343D01*
X146336657Y-112543771D01*
X146336657Y-111926914D01*
X147098657Y-112688914D02*
X146663229Y-112688914D01*
X146880943Y-112688914D02*
X146880943Y-111926914D01*
X146808372Y-112035771D01*
X146735800Y-112108343D01*
X146663229Y-112144629D01*
X126338105Y-134183381D02*
X126338105Y-133183381D01*
X126719058Y-133183381D01*
X126814296Y-133231000D01*
X126861915Y-133278619D01*
X126909534Y-133373857D01*
X126909534Y-133516714D01*
X126861915Y-133611952D01*
X126814296Y-133659571D01*
X126719058Y-133707190D01*
X126338105Y-133707190D01*
X127814296Y-133183381D02*
X127338105Y-133183381D01*
X127290486Y-133659571D01*
X127338105Y-133611952D01*
X127433343Y-133564333D01*
X127671439Y-133564333D01*
X127766677Y-133611952D01*
X127814296Y-133659571D01*
X127861915Y-133754810D01*
X127861915Y-133992905D01*
X127814296Y-134088143D01*
X127766677Y-134135762D01*
X127671439Y-134183381D01*
X127433343Y-134183381D01*
X127338105Y-134135762D01*
X127290486Y-134088143D01*
D15*
X103421543Y-89415257D02*
X103457829Y-89451543D01*
X103494114Y-89560400D01*
X103494114Y-89632971D01*
X103457829Y-89741828D01*
X103385257Y-89814400D01*
X103312686Y-89850685D01*
X103167543Y-89886971D01*
X103058686Y-89886971D01*
X102913543Y-89850685D01*
X102840971Y-89814400D01*
X102768400Y-89741828D01*
X102732114Y-89632971D01*
X102732114Y-89560400D01*
X102768400Y-89451543D01*
X102804686Y-89415257D01*
X102804686Y-89124971D02*
X102768400Y-89088685D01*
X102732114Y-89016114D01*
X102732114Y-88834685D01*
X102768400Y-88762114D01*
X102804686Y-88725828D01*
X102877257Y-88689543D01*
X102949829Y-88689543D01*
X103058686Y-88725828D01*
X103494114Y-89161257D01*
X103494114Y-88689543D01*
X102732114Y-88217829D02*
X102732114Y-88145257D01*
X102768400Y-88072686D01*
X102804686Y-88036400D01*
X102877257Y-88000114D01*
X103022400Y-87963829D01*
X103203829Y-87963829D01*
X103348971Y-88000114D01*
X103421543Y-88036400D01*
X103457829Y-88072686D01*
X103494114Y-88145257D01*
X103494114Y-88217829D01*
X103457829Y-88290400D01*
X103421543Y-88326686D01*
X103348971Y-88362971D01*
X103203829Y-88399257D01*
X103022400Y-88399257D01*
X102877257Y-88362971D01*
X102804686Y-88326686D01*
X102768400Y-88290400D01*
X102732114Y-88217829D01*
X108345514Y-89542257D02*
X107982657Y-89796257D01*
X108345514Y-89977685D02*
X107583514Y-89977685D01*
X107583514Y-89687400D01*
X107619800Y-89614828D01*
X107656086Y-89578543D01*
X107728657Y-89542257D01*
X107837514Y-89542257D01*
X107910086Y-89578543D01*
X107946371Y-89614828D01*
X107982657Y-89687400D01*
X107982657Y-89977685D01*
X108345514Y-88816543D02*
X108345514Y-89251971D01*
X108345514Y-89034257D02*
X107583514Y-89034257D01*
X107692371Y-89106828D01*
X107764943Y-89179400D01*
X107801229Y-89251971D01*
X107583514Y-88562543D02*
X107583514Y-88090829D01*
X107873800Y-88344829D01*
X107873800Y-88235971D01*
X107910086Y-88163400D01*
X107946371Y-88127114D01*
X108018943Y-88090829D01*
X108200371Y-88090829D01*
X108272943Y-88127114D01*
X108309229Y-88163400D01*
X108345514Y-88235971D01*
X108345514Y-88453686D01*
X108309229Y-88526257D01*
X108272943Y-88562543D01*
X105907114Y-89516857D02*
X105544257Y-89770857D01*
X105907114Y-89952285D02*
X105145114Y-89952285D01*
X105145114Y-89662000D01*
X105181400Y-89589428D01*
X105217686Y-89553143D01*
X105290257Y-89516857D01*
X105399114Y-89516857D01*
X105471686Y-89553143D01*
X105507971Y-89589428D01*
X105544257Y-89662000D01*
X105544257Y-89952285D01*
X105907114Y-88791143D02*
X105907114Y-89226571D01*
X105907114Y-89008857D02*
X105145114Y-89008857D01*
X105253971Y-89081428D01*
X105326543Y-89154000D01*
X105362829Y-89226571D01*
X105399114Y-88138000D02*
X105907114Y-88138000D01*
X105108829Y-88319429D02*
X105653114Y-88500857D01*
X105653114Y-88029143D01*
X105540629Y-86334599D02*
X105576914Y-86225742D01*
X105576914Y-86044313D01*
X105540629Y-85971742D01*
X105504343Y-85935456D01*
X105431771Y-85899171D01*
X105359200Y-85899171D01*
X105286629Y-85935456D01*
X105250343Y-85971742D01*
X105214057Y-86044313D01*
X105177771Y-86189456D01*
X105141486Y-86262028D01*
X105105200Y-86298313D01*
X105032629Y-86334599D01*
X104960057Y-86334599D01*
X104887486Y-86298313D01*
X104851200Y-86262028D01*
X104814914Y-86189456D01*
X104814914Y-86008028D01*
X104851200Y-85899171D01*
X104814914Y-85645171D02*
X105576914Y-85463742D01*
X105032629Y-85318599D01*
X105576914Y-85173457D01*
X104814914Y-84992028D01*
X105576914Y-84302600D02*
X105576914Y-84738028D01*
X105576914Y-84520314D02*
X104814914Y-84520314D01*
X104923771Y-84592885D01*
X104996343Y-84665457D01*
X105032629Y-84738028D01*
X131474029Y-111926914D02*
X131474029Y-112543771D01*
X131510314Y-112616343D01*
X131546600Y-112652629D01*
X131619171Y-112688914D01*
X131764314Y-112688914D01*
X131836886Y-112652629D01*
X131873171Y-112616343D01*
X131909457Y-112543771D01*
X131909457Y-111926914D01*
X132199743Y-111926914D02*
X132671457Y-111926914D01*
X132417457Y-112217200D01*
X132526315Y-112217200D01*
X132598886Y-112253486D01*
X132635172Y-112289771D01*
X132671457Y-112362343D01*
X132671457Y-112543771D01*
X132635172Y-112616343D01*
X132598886Y-112652629D01*
X132526315Y-112688914D01*
X132308600Y-112688914D01*
X132236029Y-112652629D01*
X132199743Y-112616343D01*
M02*
