G04 #@! TF.FileFunction,Copper,L2,Bot,Signal*
%FSLAX46Y46*%
G04 Gerber Fmt 4.6, Leading zero omitted, Abs format (unit mm)*
G04 Created by KiCad (PCBNEW 4.0.4-stable) date 10/14/16 04:38:19*
%MOMM*%
%LPD*%
G01*
G04 APERTURE LIST*
%ADD10C,0.100000*%
%ADD11O,3.014980X1.506220*%
%ADD12R,1.498600X1.498600*%
%ADD13C,1.498600*%
%ADD14O,1.506220X3.014980*%
%ADD15C,1.158000*%
%ADD16C,0.406400*%
%ADD17C,0.609600*%
%ADD18C,0.203200*%
%ADD19C,0.254000*%
G04 APERTURE END LIST*
D10*
D11*
X147015200Y-84759800D03*
X147015200Y-87299800D03*
X147015200Y-89839800D03*
X147015200Y-94361000D03*
X147015200Y-96901000D03*
X147015200Y-99441000D03*
X147015200Y-101981000D03*
X147015200Y-104521000D03*
X147015200Y-107061000D03*
D12*
X134620000Y-72390000D03*
D13*
X134620000Y-74930000D03*
X132080000Y-72390000D03*
X132080000Y-74930000D03*
X129540000Y-72390000D03*
X129540000Y-74930000D03*
X127000000Y-72390000D03*
X127000000Y-74930000D03*
X124460000Y-72390000D03*
X124460000Y-74930000D03*
X121920000Y-72390000D03*
X121920000Y-74930000D03*
X119380000Y-72390000D03*
X119380000Y-74930000D03*
D14*
X120650000Y-129667000D03*
X123190000Y-129667000D03*
X125730000Y-129667000D03*
X128270000Y-129667000D03*
X130810000Y-129667000D03*
X133350000Y-129667000D03*
D15*
X108422000Y-117729000D03*
X112014000Y-121321000D03*
X112014000Y-117729000D03*
D16*
X134848600Y-101447600D03*
X133197600Y-101447600D03*
X131419600Y-101447600D03*
X101396800Y-100025200D03*
X110185200Y-92456000D03*
X120497600Y-102641400D03*
X118160800Y-102666800D03*
X140893800Y-116992400D03*
X133527800Y-113436400D03*
X148285200Y-112903000D03*
X103327200Y-99085400D03*
X103428800Y-100558600D03*
X98958400Y-97561400D03*
X106248200Y-92456000D03*
X127863600Y-78079600D03*
X126365000Y-79502000D03*
X125145800Y-80721200D03*
X123444000Y-82423000D03*
X122478800Y-80619600D03*
X123494800Y-77495400D03*
X143891000Y-91008200D03*
X137134600Y-90881200D03*
X130479800Y-78587600D03*
X130429000Y-81026000D03*
X142417800Y-86487000D03*
X127076200Y-89433400D03*
X113741200Y-98196400D03*
X109448600Y-98247200D03*
X143459200Y-94056200D03*
X142036800Y-95453200D03*
X140690600Y-96697800D03*
X140919200Y-89281000D03*
X114604800Y-92430600D03*
X114935000Y-101396800D03*
X112522000Y-101396800D03*
X120319800Y-89230200D03*
X136677400Y-95605600D03*
X140131800Y-80162400D03*
X125012850Y-92883350D03*
X123725350Y-92883350D03*
X122437850Y-92883350D03*
X121150350Y-92883350D03*
X121150350Y-94170850D03*
X122437850Y-94170850D03*
X125012850Y-94170850D03*
X123725350Y-94170850D03*
X123725350Y-95458350D03*
X122437850Y-95458350D03*
X121150350Y-95458350D03*
X121150350Y-96745850D03*
X122437850Y-96745850D03*
X123725350Y-96745850D03*
X125012850Y-96745850D03*
X125012850Y-95458350D03*
X136983835Y-86541465D03*
X131802235Y-86846265D03*
X131394200Y-95554800D03*
X127711200Y-95681800D03*
X116763800Y-94945200D03*
X149352000Y-85953600D03*
X125984000Y-104140000D03*
X128524000Y-116535200D03*
X133629400Y-116306600D03*
X143459200Y-116230400D03*
X148640800Y-115341400D03*
X149352000Y-83362800D03*
X118160800Y-98552000D03*
X119329200Y-89230200D03*
X130760835Y-89128600D03*
X136956800Y-89712800D03*
X126288800Y-82981800D03*
X132080000Y-82905600D03*
X111302800Y-92227400D03*
X128529200Y-94564600D03*
X128458800Y-96564600D03*
D17*
X142570200Y-82905600D03*
D16*
X141960600Y-85750400D03*
X142417800Y-87553800D03*
X126290435Y-84306265D03*
X136958435Y-87506665D03*
X130760835Y-87989265D03*
X124333000Y-90424000D03*
X121818400Y-90424000D03*
X118668800Y-95554800D03*
X125755400Y-90474800D03*
X101371400Y-96570800D03*
X118287800Y-96088200D03*
X102311200Y-99568000D03*
X118694200Y-96570800D03*
X140462000Y-89890600D03*
X128905000Y-92049600D03*
X129489200Y-85521800D03*
X132486400Y-92557600D03*
X132564235Y-86846265D03*
X138404600Y-95580200D03*
X139928600Y-89255600D03*
X138479800Y-93064600D03*
X138912600Y-89281000D03*
X126644400Y-90627200D03*
X125120400Y-90297000D03*
X117983000Y-107594400D03*
X120523000Y-107594400D03*
X123444000Y-107619800D03*
X143230600Y-120218200D03*
X127787400Y-102768400D03*
X144678400Y-115366800D03*
X130073400Y-111531400D03*
X125653800Y-101803200D03*
X124079000Y-99339400D03*
X130098800Y-116128800D03*
X116713000Y-101219000D03*
D18*
X131394200Y-95554800D02*
X131394200Y-101422200D01*
X131394200Y-101422200D02*
X131419600Y-101447600D01*
X100838252Y-100558600D02*
X100863400Y-100558600D01*
X100863400Y-100558600D02*
X101396800Y-100025200D01*
X106248200Y-92456000D02*
X110185200Y-92456000D01*
X118160800Y-102666800D02*
X120472200Y-102666800D01*
X120472200Y-102666800D02*
X120497600Y-102641400D01*
X98958400Y-97561400D02*
X98958400Y-98678748D01*
X98958400Y-98678748D02*
X100838252Y-100558600D01*
X100838252Y-100558600D02*
X103428800Y-100558600D01*
X106248200Y-92456000D02*
X106045001Y-92252801D01*
X106045001Y-92252801D02*
X101244651Y-92252801D01*
X101244651Y-92252801D02*
X98958400Y-94539052D01*
X98958400Y-94539052D02*
X98958400Y-97561400D01*
X122478800Y-80619600D02*
X122478800Y-81457800D01*
X122478800Y-81457800D02*
X123444000Y-82423000D01*
X119380000Y-74930000D02*
X121945400Y-77495400D01*
X121945400Y-77495400D02*
X123494800Y-77495400D01*
X130429000Y-81026000D02*
X130429000Y-78638400D01*
X130429000Y-78638400D02*
X130479800Y-78587600D01*
X131802235Y-86846265D02*
X132310234Y-86338266D01*
X132310234Y-86338266D02*
X136780636Y-86338266D01*
X136780636Y-86338266D02*
X136983835Y-86541465D01*
X109448600Y-98247200D02*
X113690400Y-98247200D01*
X113690400Y-98247200D02*
X113741200Y-98196400D01*
X142036800Y-95453200D02*
X142062200Y-95453200D01*
X142062200Y-95453200D02*
X143459200Y-94056200D01*
X140690600Y-96697800D02*
X140792200Y-96697800D01*
X140792200Y-96697800D02*
X142036800Y-95453200D01*
X136677400Y-95605600D02*
X137769600Y-96697800D01*
X137769600Y-96697800D02*
X140690600Y-96697800D01*
X114604800Y-92607400D02*
X114604800Y-92430600D01*
X116763800Y-94945200D02*
X114604800Y-92786200D01*
X114604800Y-92786200D02*
X114604800Y-92607400D01*
X131394200Y-95554800D02*
X136626600Y-95554800D01*
X136626600Y-95554800D02*
X136677400Y-95605600D01*
X143459200Y-116230400D02*
X133705600Y-116230400D01*
X133705600Y-116230400D02*
X133629400Y-116306600D01*
X143459200Y-116230400D02*
X147751800Y-116230400D01*
X147751800Y-116230400D02*
X148437601Y-115544599D01*
X125984000Y-104140000D02*
X125984000Y-113995200D01*
X125984000Y-113995200D02*
X128524000Y-116535200D01*
X148437601Y-115544599D02*
X148640800Y-115341400D01*
X128524000Y-116535200D02*
X128727199Y-116738399D01*
X128727199Y-116738399D02*
X133197601Y-116738399D01*
X133197601Y-116738399D02*
X133426201Y-116509799D01*
X133426201Y-116509799D02*
X133629400Y-116306600D01*
X125984000Y-102793800D02*
X125984000Y-104140000D01*
X149352000Y-83362800D02*
X149352000Y-85953600D01*
X124333000Y-90424000D02*
X128473600Y-94564600D01*
X128473600Y-94564600D02*
X128529200Y-94564600D01*
X118668800Y-95554800D02*
X119151401Y-96037401D01*
X119151401Y-96037401D02*
X119151401Y-97561399D01*
X119151401Y-97561399D02*
X118160800Y-98552000D01*
X121818400Y-90424000D02*
X120523000Y-90424000D01*
X120523000Y-90424000D02*
X119329200Y-89230200D01*
X121818400Y-90424000D02*
X124333000Y-90424000D01*
X130760835Y-89128600D02*
X130760835Y-92332965D01*
X130760835Y-87989265D02*
X130760835Y-89128600D01*
X130760835Y-87989265D02*
X130760835Y-84224765D01*
X130760835Y-84224765D02*
X130793400Y-84192200D01*
X130793400Y-84192200D02*
X132080000Y-82905600D01*
X136958435Y-87506665D02*
X136958435Y-89711165D01*
X136958435Y-89711165D02*
X136956800Y-89712800D01*
X142570200Y-82905600D02*
X142570200Y-83336652D01*
X142875001Y-83641453D02*
X142875001Y-87096599D01*
X142570200Y-83336652D02*
X142875001Y-83641453D01*
X142875001Y-87096599D02*
X142620999Y-87350601D01*
X142620999Y-87350601D02*
X142417800Y-87553800D01*
X126288800Y-82981800D02*
X126288800Y-84304630D01*
X126288800Y-84304630D02*
X126290435Y-84306265D01*
X111607600Y-91922600D02*
X111302800Y-92227400D01*
X128458800Y-96564600D02*
X128458800Y-100319000D01*
X128458800Y-100319000D02*
X125984000Y-102793800D01*
X121488200Y-90424000D02*
X119989600Y-91922600D01*
X119989600Y-91922600D02*
X118668800Y-93243400D01*
X111607600Y-91922600D02*
X119989600Y-91922600D01*
X142570200Y-82905600D02*
X132080000Y-82905600D01*
X132080000Y-74930000D02*
X132080000Y-82905600D01*
X118668800Y-93243400D02*
X118668800Y-95554800D01*
X121818400Y-90424000D02*
X121488200Y-90424000D01*
X128529200Y-94564600D02*
X128529200Y-96494200D01*
X128529200Y-96494200D02*
X128458800Y-96564600D01*
X130760835Y-92332965D02*
X128529200Y-94564600D01*
X141960600Y-85750400D02*
X140204335Y-87506665D01*
X140204335Y-87506665D02*
X136958435Y-87506665D01*
X142570200Y-82905600D02*
X141960600Y-83515200D01*
X141960600Y-83515200D02*
X141960600Y-85750400D01*
X125755400Y-90474800D02*
X125755400Y-73634600D01*
X125755400Y-73634600D02*
X127000000Y-72390000D01*
X118287800Y-96088200D02*
X117754400Y-96621600D01*
X117754400Y-96621600D02*
X101422200Y-96621600D01*
X101422200Y-96621600D02*
X101371400Y-96570800D01*
X118694200Y-96570800D02*
X115627149Y-99637851D01*
X115627149Y-99637851D02*
X102381051Y-99637851D01*
X102381051Y-99637851D02*
X102311200Y-99568000D01*
X140462000Y-89890600D02*
X143670020Y-89890600D01*
X143670020Y-89890600D02*
X146260820Y-87299800D01*
X146260820Y-87299800D02*
X147015200Y-87299800D01*
X129489200Y-91160600D02*
X129489200Y-91465400D01*
X129489200Y-91465400D02*
X128905000Y-92049600D01*
X129489200Y-85521800D02*
X129489200Y-91160600D01*
X132564235Y-86846265D02*
X132564235Y-92479765D01*
X132564235Y-92479765D02*
X132486400Y-92557600D01*
X139928600Y-89255600D02*
X139928600Y-94056200D01*
X139928600Y-94056200D02*
X138404600Y-95580200D01*
X138912600Y-89281000D02*
X138912600Y-92631800D01*
X138912600Y-92631800D02*
X138479800Y-93064600D01*
X127000000Y-74930000D02*
X127000000Y-88832942D01*
X127000000Y-88832942D02*
X126618999Y-89213943D01*
X126618999Y-89213943D02*
X126618999Y-90601799D01*
X126618999Y-90601799D02*
X126644400Y-90627200D01*
X124460000Y-74930000D02*
X124460000Y-89636600D01*
X124460000Y-89636600D02*
X125120400Y-90297000D01*
X117983000Y-122504200D02*
X123190000Y-127711200D01*
X123190000Y-127711200D02*
X123190000Y-129667000D01*
X117983000Y-107594400D02*
X117983000Y-122504200D01*
X120523000Y-121386600D02*
X125730000Y-126593600D01*
X125730000Y-126593600D02*
X125730000Y-129667000D01*
X120523000Y-107594400D02*
X120523000Y-121386600D01*
X123444000Y-120954800D02*
X128270000Y-125780800D01*
X128270000Y-125780800D02*
X128270000Y-129667000D01*
X123444000Y-120802400D02*
X123444000Y-120904000D01*
X123444000Y-107619800D02*
X123444000Y-120802400D01*
X123444000Y-120802400D02*
X123444000Y-120954800D01*
X143230600Y-120218200D02*
X133781800Y-129667000D01*
X133781800Y-129667000D02*
X133350000Y-129667000D01*
X144678400Y-115366800D02*
X140385800Y-115366800D01*
X140385800Y-115366800D02*
X127787400Y-102768400D01*
X130098800Y-116128800D02*
X130098800Y-111556800D01*
X130098800Y-111556800D02*
X130073400Y-111531400D01*
X124079000Y-99339400D02*
X124079000Y-100228400D01*
X124079000Y-100228400D02*
X125653800Y-101803200D01*
X116713000Y-101219000D02*
X116713000Y-113030000D01*
X116713000Y-113030000D02*
X112014000Y-117729000D01*
D19*
G36*
X151359800Y-80645000D02*
X151367586Y-80684143D01*
X151367586Y-80724051D01*
X151850951Y-83154090D01*
X151911453Y-83300156D01*
X151911454Y-83300157D01*
X153287961Y-85360245D01*
X153399755Y-85472039D01*
X155459842Y-86848546D01*
X155459843Y-86848547D01*
X155605909Y-86909049D01*
X158035949Y-87392414D01*
X158075857Y-87392414D01*
X158115000Y-87400200D01*
X160630800Y-87400200D01*
X160630800Y-115799800D01*
X158115000Y-115799800D01*
X158075857Y-115807586D01*
X158035949Y-115807586D01*
X155605909Y-116290951D01*
X155459843Y-116351453D01*
X153399755Y-117727961D01*
X153287961Y-117839755D01*
X151911454Y-119899843D01*
X151911453Y-119899844D01*
X151850951Y-120045910D01*
X151367586Y-122475949D01*
X151367586Y-122515857D01*
X151359800Y-122555000D01*
X151359800Y-134214800D01*
X102640200Y-134214800D01*
X102640200Y-131197326D01*
X104088862Y-131197326D01*
X104385987Y-131916424D01*
X104935682Y-132467079D01*
X105654261Y-132765459D01*
X106432326Y-132766138D01*
X107151424Y-132469013D01*
X107702079Y-131919318D01*
X108000459Y-131200739D01*
X108001138Y-130422674D01*
X107704013Y-129703576D01*
X107154318Y-129152921D01*
X106488907Y-128876618D01*
X119566690Y-128876618D01*
X119566690Y-130457382D01*
X119649152Y-130871947D01*
X119883984Y-131223398D01*
X120235435Y-131458230D01*
X120650000Y-131540692D01*
X121064565Y-131458230D01*
X121416016Y-131223398D01*
X121650848Y-130871947D01*
X121733310Y-130457382D01*
X121733310Y-128876618D01*
X121650848Y-128462053D01*
X121416016Y-128110602D01*
X121064565Y-127875770D01*
X120650000Y-127793308D01*
X120235435Y-127875770D01*
X119883984Y-128110602D01*
X119649152Y-128462053D01*
X119566690Y-128876618D01*
X106488907Y-128876618D01*
X106435739Y-128854541D01*
X105657674Y-128853862D01*
X104938576Y-129150987D01*
X104387921Y-129700682D01*
X104089541Y-130419261D01*
X104088862Y-131197326D01*
X102640200Y-131197326D01*
X102640200Y-122555000D01*
X102632414Y-122515857D01*
X102632414Y-122475949D01*
X102438497Y-121501058D01*
X111104643Y-121501058D01*
X111242769Y-121835347D01*
X111498307Y-122091333D01*
X111832356Y-122230042D01*
X112194058Y-122230357D01*
X112528347Y-122092231D01*
X112784333Y-121836693D01*
X112923042Y-121502644D01*
X112923357Y-121140942D01*
X112785231Y-120806653D01*
X112529693Y-120550667D01*
X112195644Y-120411958D01*
X111833942Y-120411643D01*
X111499653Y-120549769D01*
X111243667Y-120805307D01*
X111104958Y-121139356D01*
X111104643Y-121501058D01*
X102438497Y-121501058D01*
X102149049Y-120045909D01*
X102088547Y-119899843D01*
X101204312Y-118576492D01*
X107754114Y-118576492D01*
X107801034Y-118799752D01*
X108258062Y-118955879D01*
X108740047Y-118925225D01*
X109042966Y-118799752D01*
X109089886Y-118576492D01*
X108422000Y-117908605D01*
X107754114Y-118576492D01*
X101204312Y-118576492D01*
X100712039Y-117839755D01*
X100600245Y-117727961D01*
X100356450Y-117565062D01*
X107195121Y-117565062D01*
X107225775Y-118047047D01*
X107351248Y-118349966D01*
X107574508Y-118396886D01*
X108242395Y-117729000D01*
X108601605Y-117729000D01*
X109269492Y-118396886D01*
X109492752Y-118349966D01*
X109643372Y-117909058D01*
X111104643Y-117909058D01*
X111242769Y-118243347D01*
X111498307Y-118499333D01*
X111832356Y-118638042D01*
X112194058Y-118638357D01*
X112528347Y-118500231D01*
X112784333Y-118244693D01*
X112923042Y-117910644D01*
X112923357Y-117548942D01*
X112888668Y-117464989D01*
X117018326Y-113335331D01*
X117018329Y-113335329D01*
X117111931Y-113195243D01*
X117111932Y-113195242D01*
X117144801Y-113030000D01*
X117144800Y-113029995D01*
X117144800Y-107700034D01*
X117449508Y-107700034D01*
X117530542Y-107896152D01*
X117551200Y-107916846D01*
X117551200Y-122504200D01*
X117584069Y-122669443D01*
X117658018Y-122780116D01*
X117677671Y-122809529D01*
X122756538Y-127888396D01*
X122423984Y-128110602D01*
X122189152Y-128462053D01*
X122106690Y-128876618D01*
X122106690Y-130457382D01*
X122189152Y-130871947D01*
X122423984Y-131223398D01*
X122775435Y-131458230D01*
X123190000Y-131540692D01*
X123604565Y-131458230D01*
X123956016Y-131223398D01*
X124190848Y-130871947D01*
X124273310Y-130457382D01*
X124273310Y-128876618D01*
X124190848Y-128462053D01*
X123956016Y-128110602D01*
X123621800Y-127887286D01*
X123621800Y-127711200D01*
X123588931Y-127545957D01*
X123495329Y-127405871D01*
X118414800Y-122325342D01*
X118414800Y-107917037D01*
X118434931Y-107896941D01*
X118516307Y-107700965D01*
X118516307Y-107700034D01*
X119989508Y-107700034D01*
X120070542Y-107896152D01*
X120091200Y-107916846D01*
X120091200Y-121386600D01*
X120124069Y-121551843D01*
X120217671Y-121691929D01*
X125298200Y-126772458D01*
X125298200Y-127887286D01*
X124963984Y-128110602D01*
X124729152Y-128462053D01*
X124646690Y-128876618D01*
X124646690Y-130457382D01*
X124729152Y-130871947D01*
X124963984Y-131223398D01*
X125315435Y-131458230D01*
X125730000Y-131540692D01*
X126144565Y-131458230D01*
X126496016Y-131223398D01*
X126730848Y-130871947D01*
X126813310Y-130457382D01*
X126813310Y-128876618D01*
X126730848Y-128462053D01*
X126496016Y-128110602D01*
X126161800Y-127887286D01*
X126161800Y-126593600D01*
X126128931Y-126428357D01*
X126035329Y-126288271D01*
X120954800Y-121207742D01*
X120954800Y-107917037D01*
X120974931Y-107896941D01*
X121046146Y-107725434D01*
X122910508Y-107725434D01*
X122991542Y-107921552D01*
X123012200Y-107942246D01*
X123012200Y-120954800D01*
X123045069Y-121120043D01*
X123099384Y-121201331D01*
X123138671Y-121260129D01*
X127838200Y-125959657D01*
X127838200Y-127887286D01*
X127503984Y-128110602D01*
X127269152Y-128462053D01*
X127186690Y-128876618D01*
X127186690Y-130457382D01*
X127269152Y-130871947D01*
X127503984Y-131223398D01*
X127855435Y-131458230D01*
X128270000Y-131540692D01*
X128684565Y-131458230D01*
X129036016Y-131223398D01*
X129270848Y-130871947D01*
X129353310Y-130457382D01*
X129353310Y-128876618D01*
X129726690Y-128876618D01*
X129726690Y-130457382D01*
X129809152Y-130871947D01*
X130043984Y-131223398D01*
X130395435Y-131458230D01*
X130810000Y-131540692D01*
X131224565Y-131458230D01*
X131576016Y-131223398D01*
X131810848Y-130871947D01*
X131893310Y-130457382D01*
X131893310Y-128876618D01*
X132266690Y-128876618D01*
X132266690Y-130457382D01*
X132349152Y-130871947D01*
X132583984Y-131223398D01*
X132935435Y-131458230D01*
X133350000Y-131540692D01*
X133764565Y-131458230D01*
X134116016Y-131223398D01*
X134133436Y-131197326D01*
X145998862Y-131197326D01*
X146295987Y-131916424D01*
X146845682Y-132467079D01*
X147564261Y-132765459D01*
X148342326Y-132766138D01*
X149061424Y-132469013D01*
X149612079Y-131919318D01*
X149910459Y-131200739D01*
X149911138Y-130422674D01*
X149614013Y-129703576D01*
X149064318Y-129152921D01*
X148345739Y-128854541D01*
X147567674Y-128853862D01*
X146848576Y-129150987D01*
X146297921Y-129700682D01*
X145999541Y-130419261D01*
X145998862Y-131197326D01*
X134133436Y-131197326D01*
X134350848Y-130871947D01*
X134433310Y-130457382D01*
X134433310Y-129626148D01*
X143307791Y-120751667D01*
X143336234Y-120751692D01*
X143532352Y-120670658D01*
X143682531Y-120520741D01*
X143763907Y-120324765D01*
X143764092Y-120112566D01*
X143683058Y-119916448D01*
X143533141Y-119766269D01*
X143337165Y-119684893D01*
X143124966Y-119684708D01*
X142928848Y-119765742D01*
X142778669Y-119915659D01*
X142697293Y-120111635D01*
X142697268Y-120140874D01*
X134355036Y-128483106D01*
X134350848Y-128462053D01*
X134116016Y-128110602D01*
X133764565Y-127875770D01*
X133350000Y-127793308D01*
X132935435Y-127875770D01*
X132583984Y-128110602D01*
X132349152Y-128462053D01*
X132266690Y-128876618D01*
X131893310Y-128876618D01*
X131810848Y-128462053D01*
X131576016Y-128110602D01*
X131224565Y-127875770D01*
X130810000Y-127793308D01*
X130395435Y-127875770D01*
X130043984Y-128110602D01*
X129809152Y-128462053D01*
X129726690Y-128876618D01*
X129353310Y-128876618D01*
X129270848Y-128462053D01*
X129036016Y-128110602D01*
X128701800Y-127887286D01*
X128701800Y-125780805D01*
X128701801Y-125780800D01*
X128668932Y-125615558D01*
X128637872Y-125569074D01*
X128575329Y-125475471D01*
X128575326Y-125475469D01*
X123875800Y-120775942D01*
X123875800Y-107942437D01*
X123895931Y-107922341D01*
X123977307Y-107726365D01*
X123977492Y-107514166D01*
X123896458Y-107318048D01*
X123746541Y-107167869D01*
X123550565Y-107086493D01*
X123338366Y-107086308D01*
X123142248Y-107167342D01*
X122992069Y-107317259D01*
X122910693Y-107513235D01*
X122910508Y-107725434D01*
X121046146Y-107725434D01*
X121056307Y-107700965D01*
X121056492Y-107488766D01*
X120975458Y-107292648D01*
X120825541Y-107142469D01*
X120629565Y-107061093D01*
X120417366Y-107060908D01*
X120221248Y-107141942D01*
X120071069Y-107291859D01*
X119989693Y-107487835D01*
X119989508Y-107700034D01*
X118516307Y-107700034D01*
X118516492Y-107488766D01*
X118435458Y-107292648D01*
X118285541Y-107142469D01*
X118089565Y-107061093D01*
X117877366Y-107060908D01*
X117681248Y-107141942D01*
X117531069Y-107291859D01*
X117449693Y-107487835D01*
X117449508Y-107700034D01*
X117144800Y-107700034D01*
X117144800Y-101541637D01*
X117164931Y-101521541D01*
X117246307Y-101325565D01*
X117246492Y-101113366D01*
X117165458Y-100917248D01*
X117015541Y-100767069D01*
X116819565Y-100685693D01*
X116607366Y-100685508D01*
X116411248Y-100766542D01*
X116261069Y-100916459D01*
X116179693Y-101112435D01*
X116179508Y-101324634D01*
X116260542Y-101520752D01*
X116281200Y-101541446D01*
X116281200Y-112851143D01*
X112278132Y-116854210D01*
X112195644Y-116819958D01*
X111833942Y-116819643D01*
X111499653Y-116957769D01*
X111243667Y-117213307D01*
X111104958Y-117547356D01*
X111104643Y-117909058D01*
X109643372Y-117909058D01*
X109648879Y-117892938D01*
X109618225Y-117410953D01*
X109492752Y-117108034D01*
X109269492Y-117061114D01*
X108601605Y-117729000D01*
X108242395Y-117729000D01*
X107574508Y-117061114D01*
X107351248Y-117108034D01*
X107195121Y-117565062D01*
X100356450Y-117565062D01*
X99333439Y-116881508D01*
X107754114Y-116881508D01*
X108422000Y-117549395D01*
X109089886Y-116881508D01*
X109042966Y-116658248D01*
X108585938Y-116502121D01*
X108103953Y-116532775D01*
X107801034Y-116658248D01*
X107754114Y-116881508D01*
X99333439Y-116881508D01*
X98540157Y-116351454D01*
X98540156Y-116351453D01*
X98454593Y-116316012D01*
X98394091Y-116290951D01*
X98394090Y-116290951D01*
X95964051Y-115807586D01*
X95924143Y-115807586D01*
X95885000Y-115799800D01*
X93369200Y-115799800D01*
X93369200Y-95321955D01*
X99091487Y-95321955D01*
X99322048Y-95879957D01*
X99748598Y-96307251D01*
X100306196Y-96538786D01*
X100838028Y-96539250D01*
X100837908Y-96676434D01*
X100838947Y-96678950D01*
X100308845Y-96678487D01*
X99750843Y-96909048D01*
X99323549Y-97335598D01*
X99092014Y-97893196D01*
X99091487Y-98496955D01*
X99322048Y-99054957D01*
X99748598Y-99482251D01*
X100306196Y-99713786D01*
X100909955Y-99714313D01*
X101467957Y-99483752D01*
X101895251Y-99057202D01*
X102126786Y-98499604D01*
X102126905Y-98362397D01*
X102311055Y-98362397D01*
X102438395Y-98670582D01*
X102673978Y-98906577D01*
X102981940Y-99034454D01*
X103315397Y-99034745D01*
X103623582Y-98907405D01*
X103859577Y-98671822D01*
X103987454Y-98363860D01*
X103987745Y-98030403D01*
X103860405Y-97722218D01*
X103624822Y-97486223D01*
X103316860Y-97358346D01*
X102983403Y-97358055D01*
X102675218Y-97485395D01*
X102439223Y-97720978D01*
X102311346Y-98028940D01*
X102311055Y-98362397D01*
X102126905Y-98362397D01*
X102127313Y-97895845D01*
X101896752Y-97337843D01*
X101612804Y-97053400D01*
X104686239Y-97053400D01*
X104403549Y-97335598D01*
X104172014Y-97893196D01*
X104171487Y-98496955D01*
X104402048Y-99054957D01*
X104552879Y-99206051D01*
X102703566Y-99206051D01*
X102613741Y-99116069D01*
X102417765Y-99034693D01*
X102205566Y-99034508D01*
X102009448Y-99115542D01*
X101859269Y-99265459D01*
X101777893Y-99461435D01*
X101777708Y-99673634D01*
X101858742Y-99869752D01*
X102008659Y-100019931D01*
X102204635Y-100101307D01*
X102416834Y-100101492D01*
X102493895Y-100069651D01*
X115627149Y-100069651D01*
X115792392Y-100036782D01*
X115932478Y-99943180D01*
X118719601Y-97156057D01*
X118719601Y-97382542D01*
X118083609Y-98018533D01*
X118055166Y-98018508D01*
X117859048Y-98099542D01*
X117708869Y-98249459D01*
X117627493Y-98445435D01*
X117627308Y-98657634D01*
X117708342Y-98853752D01*
X117858259Y-99003931D01*
X118054235Y-99085307D01*
X118266434Y-99085492D01*
X118462552Y-99004458D01*
X118612731Y-98854541D01*
X118694107Y-98658565D01*
X118694132Y-98629325D01*
X119456727Y-97866730D01*
X119456730Y-97866728D01*
X119550332Y-97726642D01*
X119583201Y-97561399D01*
X119583201Y-96037401D01*
X119550332Y-95872158D01*
X119456730Y-95732072D01*
X119202267Y-95477609D01*
X119202292Y-95449166D01*
X119121258Y-95253048D01*
X119100600Y-95232354D01*
X119100600Y-93422258D01*
X121608471Y-90914387D01*
X121711835Y-90957307D01*
X121924034Y-90957492D01*
X122120152Y-90876458D01*
X122140846Y-90855800D01*
X124010363Y-90855800D01*
X124030459Y-90875931D01*
X124226435Y-90957307D01*
X124255675Y-90957332D01*
X128014812Y-94716469D01*
X128076742Y-94866352D01*
X128097400Y-94887046D01*
X128097400Y-96171686D01*
X128006869Y-96262059D01*
X127925493Y-96458035D01*
X127925308Y-96670234D01*
X128006342Y-96866352D01*
X128027000Y-96887046D01*
X128027000Y-100140142D01*
X126137209Y-102029933D01*
X126187107Y-101909765D01*
X126187292Y-101697566D01*
X126106258Y-101501448D01*
X125956341Y-101351269D01*
X125760365Y-101269893D01*
X125731125Y-101269868D01*
X124510800Y-100049542D01*
X124510800Y-99662037D01*
X124530931Y-99641941D01*
X124612307Y-99445965D01*
X124612492Y-99233766D01*
X124531458Y-99037648D01*
X124381541Y-98887469D01*
X124185565Y-98806093D01*
X123973366Y-98805908D01*
X123777248Y-98886942D01*
X123627069Y-99036859D01*
X123545693Y-99232835D01*
X123545508Y-99445034D01*
X123626542Y-99641152D01*
X123647200Y-99661846D01*
X123647200Y-100228400D01*
X123680069Y-100393643D01*
X123773671Y-100533729D01*
X125120333Y-101880390D01*
X125120308Y-101908834D01*
X125201342Y-102104952D01*
X125351259Y-102255131D01*
X125547235Y-102336507D01*
X125759434Y-102336692D01*
X125880454Y-102286688D01*
X125678671Y-102488471D01*
X125585069Y-102628557D01*
X125552200Y-102793800D01*
X125552200Y-103817363D01*
X125532069Y-103837459D01*
X125450693Y-104033435D01*
X125450508Y-104245634D01*
X125531542Y-104441752D01*
X125552200Y-104462446D01*
X125552200Y-113995200D01*
X125585069Y-114160443D01*
X125678671Y-114300529D01*
X127990533Y-116612390D01*
X127990508Y-116640834D01*
X128071542Y-116836952D01*
X128221459Y-116987131D01*
X128417435Y-117068507D01*
X128459009Y-117068543D01*
X128561956Y-117137330D01*
X128589372Y-117142784D01*
X128727199Y-117170200D01*
X128727204Y-117170199D01*
X133197601Y-117170199D01*
X133362844Y-117137330D01*
X133502930Y-117043728D01*
X133706591Y-116840067D01*
X133735034Y-116840092D01*
X133931152Y-116759058D01*
X134028179Y-116662200D01*
X143136563Y-116662200D01*
X143156659Y-116682331D01*
X143352635Y-116763707D01*
X143564834Y-116763892D01*
X143760952Y-116682858D01*
X143781646Y-116662200D01*
X147751800Y-116662200D01*
X147917043Y-116629331D01*
X148057129Y-116535729D01*
X148717991Y-115874867D01*
X148746434Y-115874892D01*
X148942552Y-115793858D01*
X149092731Y-115643941D01*
X149174107Y-115447965D01*
X149174292Y-115235766D01*
X149093258Y-115039648D01*
X148943341Y-114889469D01*
X148747365Y-114808093D01*
X148535166Y-114807908D01*
X148339048Y-114888942D01*
X148188869Y-115038859D01*
X148107493Y-115234835D01*
X148107468Y-115264074D01*
X147572942Y-115798600D01*
X145000846Y-115798600D01*
X145130331Y-115669341D01*
X145211707Y-115473365D01*
X145211892Y-115261166D01*
X145130858Y-115065048D01*
X144980941Y-114914869D01*
X144784965Y-114833493D01*
X144572766Y-114833308D01*
X144376648Y-114914342D01*
X144355954Y-114935000D01*
X140564658Y-114935000D01*
X132690658Y-107061000D01*
X145141508Y-107061000D01*
X145223970Y-107475565D01*
X145458802Y-107827016D01*
X145810253Y-108061848D01*
X146224818Y-108144310D01*
X147805582Y-108144310D01*
X148220147Y-108061848D01*
X148571598Y-107827016D01*
X148806430Y-107475565D01*
X148888892Y-107061000D01*
X148806430Y-106646435D01*
X148571598Y-106294984D01*
X148220147Y-106060152D01*
X147805582Y-105977690D01*
X146224818Y-105977690D01*
X145810253Y-106060152D01*
X145458802Y-106294984D01*
X145223970Y-106646435D01*
X145141508Y-107061000D01*
X132690658Y-107061000D01*
X130150658Y-104521000D01*
X145141508Y-104521000D01*
X145223970Y-104935565D01*
X145458802Y-105287016D01*
X145810253Y-105521848D01*
X146224818Y-105604310D01*
X147805582Y-105604310D01*
X148220147Y-105521848D01*
X148571598Y-105287016D01*
X148806430Y-104935565D01*
X148888892Y-104521000D01*
X148806430Y-104106435D01*
X148571598Y-103754984D01*
X148220147Y-103520152D01*
X147805582Y-103437690D01*
X146224818Y-103437690D01*
X145810253Y-103520152D01*
X145458802Y-103754984D01*
X145223970Y-104106435D01*
X145141508Y-104521000D01*
X130150658Y-104521000D01*
X128320867Y-102691209D01*
X128320892Y-102662766D01*
X128239858Y-102466648D01*
X128089941Y-102316469D01*
X127893965Y-102235093D01*
X127681766Y-102234908D01*
X127485648Y-102315942D01*
X127335469Y-102465859D01*
X127254093Y-102661835D01*
X127253908Y-102874034D01*
X127334942Y-103070152D01*
X127484859Y-103220331D01*
X127680835Y-103301707D01*
X127710074Y-103301732D01*
X140080471Y-115672129D01*
X140220557Y-115765731D01*
X140385800Y-115798600D01*
X133796911Y-115798600D01*
X133735965Y-115773293D01*
X133523766Y-115773108D01*
X133327648Y-115854142D01*
X133177469Y-116004059D01*
X133096093Y-116200035D01*
X133096068Y-116229274D01*
X133018743Y-116306599D01*
X130602528Y-116306599D01*
X130632107Y-116235365D01*
X130632292Y-116023166D01*
X130551258Y-115827048D01*
X130530600Y-115806354D01*
X130530600Y-111821252D01*
X130606707Y-111637965D01*
X130606892Y-111425766D01*
X130525858Y-111229648D01*
X130375941Y-111079469D01*
X130179965Y-110998093D01*
X129967766Y-110997908D01*
X129771648Y-111078942D01*
X129621469Y-111228859D01*
X129540093Y-111424835D01*
X129539908Y-111637034D01*
X129620942Y-111833152D01*
X129667000Y-111879290D01*
X129667000Y-115806163D01*
X129646869Y-115826259D01*
X129565493Y-116022235D01*
X129565308Y-116234434D01*
X129595126Y-116306599D01*
X129006683Y-116306599D01*
X128976458Y-116233448D01*
X128826541Y-116083269D01*
X128630565Y-116001893D01*
X128601325Y-116001868D01*
X126415800Y-113816342D01*
X126415800Y-104462637D01*
X126435931Y-104442541D01*
X126517307Y-104246565D01*
X126517492Y-104034366D01*
X126436458Y-103838248D01*
X126415800Y-103817554D01*
X126415800Y-102972658D01*
X127407458Y-101981000D01*
X145141508Y-101981000D01*
X145223970Y-102395565D01*
X145458802Y-102747016D01*
X145810253Y-102981848D01*
X146224818Y-103064310D01*
X147805582Y-103064310D01*
X148220147Y-102981848D01*
X148571598Y-102747016D01*
X148806430Y-102395565D01*
X148888892Y-101981000D01*
X148806430Y-101566435D01*
X148571598Y-101214984D01*
X148220147Y-100980152D01*
X147805582Y-100897690D01*
X146224818Y-100897690D01*
X145810253Y-100980152D01*
X145458802Y-101214984D01*
X145223970Y-101566435D01*
X145141508Y-101981000D01*
X127407458Y-101981000D01*
X128764129Y-100624329D01*
X128857731Y-100484243D01*
X128875753Y-100393642D01*
X128890601Y-100319000D01*
X128890600Y-100318995D01*
X128890600Y-99441000D01*
X145141508Y-99441000D01*
X145223970Y-99855565D01*
X145458802Y-100207016D01*
X145810253Y-100441848D01*
X146224818Y-100524310D01*
X147805582Y-100524310D01*
X148220147Y-100441848D01*
X148571598Y-100207016D01*
X148806430Y-99855565D01*
X148888892Y-99441000D01*
X148806430Y-99026435D01*
X148571598Y-98674984D01*
X148220147Y-98440152D01*
X147805582Y-98357690D01*
X146224818Y-98357690D01*
X145810253Y-98440152D01*
X145458802Y-98674984D01*
X145223970Y-99026435D01*
X145141508Y-99441000D01*
X128890600Y-99441000D01*
X128890600Y-96901000D01*
X145141508Y-96901000D01*
X145223970Y-97315565D01*
X145458802Y-97667016D01*
X145810253Y-97901848D01*
X146224818Y-97984310D01*
X147805582Y-97984310D01*
X148220147Y-97901848D01*
X148571598Y-97667016D01*
X148806430Y-97315565D01*
X148888892Y-96901000D01*
X148806430Y-96486435D01*
X148571598Y-96134984D01*
X148220147Y-95900152D01*
X147805582Y-95817690D01*
X146224818Y-95817690D01*
X145810253Y-95900152D01*
X145458802Y-96134984D01*
X145223970Y-96486435D01*
X145141508Y-96901000D01*
X128890600Y-96901000D01*
X128890600Y-96887237D01*
X128910731Y-96867141D01*
X128992107Y-96671165D01*
X128992292Y-96458966D01*
X128961000Y-96383233D01*
X128961000Y-95685834D01*
X137871108Y-95685834D01*
X137952142Y-95881952D01*
X138102059Y-96032131D01*
X138298035Y-96113507D01*
X138510234Y-96113692D01*
X138706352Y-96032658D01*
X138856531Y-95882741D01*
X138937907Y-95686765D01*
X138937932Y-95657525D01*
X140233926Y-94361531D01*
X140233929Y-94361529D01*
X140234282Y-94361000D01*
X145141508Y-94361000D01*
X145223970Y-94775565D01*
X145458802Y-95127016D01*
X145810253Y-95361848D01*
X146224818Y-95444310D01*
X147805582Y-95444310D01*
X148220147Y-95361848D01*
X148571598Y-95127016D01*
X148806430Y-94775565D01*
X148888892Y-94361000D01*
X148806430Y-93946435D01*
X148571598Y-93594984D01*
X148220147Y-93360152D01*
X147805582Y-93277690D01*
X146224818Y-93277690D01*
X145810253Y-93360152D01*
X145458802Y-93594984D01*
X145223970Y-93946435D01*
X145141508Y-94361000D01*
X140234282Y-94361000D01*
X140327531Y-94221443D01*
X140360400Y-94056200D01*
X140360400Y-90423911D01*
X140567634Y-90424092D01*
X140763752Y-90343058D01*
X140784446Y-90322400D01*
X143670020Y-90322400D01*
X143835263Y-90289531D01*
X143975349Y-90195929D01*
X143989804Y-90181474D01*
X144915417Y-90181474D01*
X144929773Y-90253675D01*
X145189476Y-90731540D01*
X145612281Y-91073646D01*
X146133820Y-91227910D01*
X146888200Y-91227910D01*
X146888200Y-89966800D01*
X147142200Y-89966800D01*
X147142200Y-91227910D01*
X147896580Y-91227910D01*
X148418119Y-91073646D01*
X148840924Y-90731540D01*
X149100627Y-90253675D01*
X149114983Y-90181474D01*
X148992362Y-89966800D01*
X147142200Y-89966800D01*
X146888200Y-89966800D01*
X145038038Y-89966800D01*
X144915417Y-90181474D01*
X143989804Y-90181474D01*
X145149310Y-89021968D01*
X144929773Y-89425925D01*
X144915417Y-89498126D01*
X145038038Y-89712800D01*
X146888200Y-89712800D01*
X146888200Y-88451690D01*
X147142200Y-88451690D01*
X147142200Y-89712800D01*
X148992362Y-89712800D01*
X149114983Y-89498126D01*
X149100627Y-89425925D01*
X148840924Y-88948060D01*
X148418119Y-88605954D01*
X147896580Y-88451690D01*
X147142200Y-88451690D01*
X146888200Y-88451690D01*
X146133820Y-88451690D01*
X145612281Y-88605954D01*
X145366257Y-88805020D01*
X145860612Y-88310665D01*
X146224818Y-88383110D01*
X147805582Y-88383110D01*
X148220147Y-88300648D01*
X148571598Y-88065816D01*
X148806430Y-87714365D01*
X148888892Y-87299800D01*
X148806430Y-86885235D01*
X148571598Y-86533784D01*
X148220147Y-86298952D01*
X147805582Y-86216490D01*
X146224818Y-86216490D01*
X145810253Y-86298952D01*
X145458802Y-86533784D01*
X145223970Y-86885235D01*
X145141508Y-87299800D01*
X145223970Y-87714365D01*
X145228627Y-87721335D01*
X143491162Y-89458800D01*
X140784637Y-89458800D01*
X140764541Y-89438669D01*
X140568565Y-89357293D01*
X140461911Y-89357200D01*
X140462092Y-89149966D01*
X140381058Y-88953848D01*
X140231141Y-88803669D01*
X140035165Y-88722293D01*
X139822966Y-88722108D01*
X139626848Y-88803142D01*
X139476669Y-88953059D01*
X139415302Y-89100848D01*
X139365058Y-88979248D01*
X139215141Y-88829069D01*
X139019165Y-88747693D01*
X138806966Y-88747508D01*
X138610848Y-88828542D01*
X138460669Y-88978459D01*
X138379293Y-89174435D01*
X138379108Y-89386634D01*
X138460142Y-89582752D01*
X138480800Y-89603446D01*
X138480800Y-92452943D01*
X138402610Y-92531133D01*
X138374166Y-92531108D01*
X138178048Y-92612142D01*
X138027869Y-92762059D01*
X137946493Y-92958035D01*
X137946308Y-93170234D01*
X138027342Y-93366352D01*
X138177259Y-93516531D01*
X138373235Y-93597907D01*
X138585434Y-93598092D01*
X138781552Y-93517058D01*
X138931731Y-93367141D01*
X139013107Y-93171165D01*
X139013132Y-93141925D01*
X139217926Y-92937131D01*
X139217929Y-92937129D01*
X139280472Y-92843526D01*
X139311532Y-92797042D01*
X139344401Y-92631800D01*
X139344400Y-92631795D01*
X139344400Y-89603637D01*
X139364531Y-89583541D01*
X139425898Y-89435752D01*
X139476142Y-89557352D01*
X139496800Y-89578046D01*
X139496800Y-93877343D01*
X138327409Y-95046733D01*
X138298966Y-95046708D01*
X138102848Y-95127742D01*
X137952669Y-95277659D01*
X137871293Y-95473635D01*
X137871108Y-95685834D01*
X128961000Y-95685834D01*
X128961000Y-94887237D01*
X128981131Y-94867141D01*
X129062507Y-94671165D01*
X129062532Y-94641925D01*
X131041223Y-92663234D01*
X131952908Y-92663234D01*
X132033942Y-92859352D01*
X132183859Y-93009531D01*
X132379835Y-93090907D01*
X132592034Y-93091092D01*
X132788152Y-93010058D01*
X132938331Y-92860141D01*
X133019707Y-92664165D01*
X133019892Y-92451966D01*
X132996035Y-92394227D01*
X132996035Y-87168902D01*
X133016166Y-87148806D01*
X133097542Y-86952830D01*
X133097727Y-86740631D01*
X133016693Y-86544513D01*
X132866776Y-86394334D01*
X132670800Y-86312958D01*
X132458601Y-86312773D01*
X132262483Y-86393807D01*
X132112304Y-86543724D01*
X132030928Y-86739700D01*
X132030743Y-86951899D01*
X132111777Y-87148017D01*
X132132435Y-87168711D01*
X132132435Y-92157264D01*
X132034469Y-92255059D01*
X131953093Y-92451035D01*
X131952908Y-92663234D01*
X131041223Y-92663234D01*
X131066161Y-92638296D01*
X131066164Y-92638294D01*
X131159766Y-92498208D01*
X131192635Y-92332965D01*
X131192635Y-89451237D01*
X131212766Y-89431141D01*
X131294142Y-89235165D01*
X131294327Y-89022966D01*
X131213293Y-88826848D01*
X131192635Y-88806154D01*
X131192635Y-88311902D01*
X131212766Y-88291806D01*
X131294142Y-88095830D01*
X131294327Y-87883631D01*
X131213293Y-87687513D01*
X131192635Y-87666819D01*
X131192635Y-84403623D01*
X132157191Y-83439067D01*
X132185634Y-83439092D01*
X132381752Y-83358058D01*
X132402446Y-83337400D01*
X141570059Y-83337400D01*
X141561669Y-83349957D01*
X141528800Y-83515200D01*
X141528800Y-85427763D01*
X141508669Y-85447859D01*
X141427293Y-85643835D01*
X141427268Y-85673074D01*
X140025477Y-87074865D01*
X137281072Y-87074865D01*
X137260976Y-87054734D01*
X137065000Y-86973358D01*
X136852801Y-86973173D01*
X136656683Y-87054207D01*
X136506504Y-87204124D01*
X136425128Y-87400100D01*
X136424943Y-87612299D01*
X136505977Y-87808417D01*
X136526635Y-87829111D01*
X136526635Y-89388531D01*
X136504869Y-89410259D01*
X136423493Y-89606235D01*
X136423308Y-89818434D01*
X136504342Y-90014552D01*
X136654259Y-90164731D01*
X136850235Y-90246107D01*
X137062434Y-90246292D01*
X137258552Y-90165258D01*
X137408731Y-90015341D01*
X137490107Y-89819365D01*
X137490292Y-89607166D01*
X137409258Y-89411048D01*
X137390235Y-89391992D01*
X137390235Y-87938465D01*
X140204335Y-87938465D01*
X140369578Y-87905596D01*
X140509664Y-87811994D01*
X142037791Y-86283867D01*
X142066234Y-86283892D01*
X142262352Y-86202858D01*
X142412531Y-86052941D01*
X142443201Y-85979079D01*
X142443201Y-86917741D01*
X142340609Y-87020333D01*
X142312166Y-87020308D01*
X142116048Y-87101342D01*
X141965869Y-87251259D01*
X141884493Y-87447235D01*
X141884308Y-87659434D01*
X141965342Y-87855552D01*
X142115259Y-88005731D01*
X142311235Y-88087107D01*
X142523434Y-88087292D01*
X142719552Y-88006258D01*
X142869731Y-87856341D01*
X142951107Y-87660365D01*
X142951132Y-87631126D01*
X143180330Y-87401928D01*
X143186687Y-87392414D01*
X143273932Y-87261842D01*
X143306801Y-87096599D01*
X143306801Y-84759800D01*
X145141508Y-84759800D01*
X145223970Y-85174365D01*
X145458802Y-85525816D01*
X145810253Y-85760648D01*
X146224818Y-85843110D01*
X147805582Y-85843110D01*
X148220147Y-85760648D01*
X148571598Y-85525816D01*
X148806430Y-85174365D01*
X148888892Y-84759800D01*
X148806430Y-84345235D01*
X148571598Y-83993784D01*
X148220147Y-83758952D01*
X147805582Y-83676490D01*
X146224818Y-83676490D01*
X145810253Y-83758952D01*
X145458802Y-83993784D01*
X145223970Y-84345235D01*
X145141508Y-84759800D01*
X143306801Y-84759800D01*
X143306801Y-83641458D01*
X143306802Y-83641453D01*
X143273932Y-83476211D01*
X143273932Y-83476210D01*
X143268737Y-83468434D01*
X148818508Y-83468434D01*
X148899542Y-83664552D01*
X148920200Y-83685246D01*
X148920200Y-85630963D01*
X148900069Y-85651059D01*
X148818693Y-85847035D01*
X148818508Y-86059234D01*
X148899542Y-86255352D01*
X149049459Y-86405531D01*
X149245435Y-86486907D01*
X149457634Y-86487092D01*
X149653752Y-86406058D01*
X149803931Y-86256141D01*
X149885307Y-86060165D01*
X149885492Y-85847966D01*
X149804458Y-85651848D01*
X149783800Y-85631154D01*
X149783800Y-83685437D01*
X149803931Y-83665341D01*
X149885307Y-83469365D01*
X149885492Y-83257166D01*
X149804458Y-83061048D01*
X149654541Y-82910869D01*
X149458565Y-82829493D01*
X149246366Y-82829308D01*
X149050248Y-82910342D01*
X148900069Y-83060259D01*
X148818693Y-83256235D01*
X148818508Y-83468434D01*
X143268737Y-83468434D01*
X143180330Y-83336124D01*
X143108730Y-83264524D01*
X143205089Y-83032463D01*
X143205310Y-82779845D01*
X143108840Y-82546372D01*
X142930368Y-82367587D01*
X142697063Y-82270711D01*
X142444445Y-82270490D01*
X142210972Y-82366960D01*
X142103945Y-82473800D01*
X132511800Y-82473800D01*
X132511800Y-75919605D01*
X132690689Y-75845689D01*
X132994622Y-75542286D01*
X133159313Y-75145668D01*
X133159314Y-75143784D01*
X133540313Y-75143784D01*
X133704311Y-75540689D01*
X134007714Y-75844622D01*
X134404332Y-76009313D01*
X134833784Y-76009687D01*
X135230689Y-75845689D01*
X135534622Y-75542286D01*
X135699313Y-75145668D01*
X135699687Y-74716216D01*
X135535689Y-74319311D01*
X135232286Y-74015378D01*
X134835668Y-73850687D01*
X134406216Y-73850313D01*
X134009311Y-74014311D01*
X133705378Y-74317714D01*
X133540687Y-74714332D01*
X133540313Y-75143784D01*
X133159314Y-75143784D01*
X133159687Y-74716216D01*
X132995689Y-74319311D01*
X132692286Y-74015378D01*
X132295668Y-73850687D01*
X131866216Y-73850313D01*
X131469311Y-74014311D01*
X131165378Y-74317714D01*
X131000687Y-74714332D01*
X131000313Y-75143784D01*
X131164311Y-75540689D01*
X131467714Y-75844622D01*
X131648200Y-75919567D01*
X131648200Y-82582963D01*
X131628069Y-82603059D01*
X131546693Y-82799035D01*
X131546668Y-82828274D01*
X130455506Y-83919436D01*
X130361904Y-84059522D01*
X130329035Y-84224765D01*
X130329035Y-87666628D01*
X130308904Y-87686724D01*
X130227528Y-87882700D01*
X130227343Y-88094899D01*
X130308377Y-88291017D01*
X130329035Y-88311711D01*
X130329035Y-88805963D01*
X130308904Y-88826059D01*
X130227528Y-89022035D01*
X130227343Y-89234234D01*
X130308377Y-89430352D01*
X130329035Y-89451046D01*
X130329035Y-92154108D01*
X128501400Y-93981743D01*
X126674892Y-92155234D01*
X128371508Y-92155234D01*
X128452542Y-92351352D01*
X128602459Y-92501531D01*
X128798435Y-92582907D01*
X129010634Y-92583092D01*
X129206752Y-92502058D01*
X129356931Y-92352141D01*
X129438307Y-92156165D01*
X129438332Y-92126925D01*
X129794526Y-91770731D01*
X129794529Y-91770729D01*
X129888131Y-91630643D01*
X129888132Y-91630642D01*
X129921001Y-91465400D01*
X129921000Y-91465395D01*
X129921000Y-85844437D01*
X129941131Y-85824341D01*
X130022507Y-85628365D01*
X130022692Y-85416166D01*
X129941658Y-85220048D01*
X129791741Y-85069869D01*
X129595765Y-84988493D01*
X129383566Y-84988308D01*
X129187448Y-85069342D01*
X129037269Y-85219259D01*
X128955893Y-85415235D01*
X128955708Y-85627434D01*
X129036742Y-85823552D01*
X129057400Y-85844246D01*
X129057400Y-91286543D01*
X128827810Y-91516133D01*
X128799366Y-91516108D01*
X128603248Y-91597142D01*
X128453069Y-91747059D01*
X128371693Y-91943035D01*
X128371508Y-92155234D01*
X126674892Y-92155234D01*
X125313861Y-90794203D01*
X125318605Y-90792243D01*
X125452859Y-90926731D01*
X125648835Y-91008107D01*
X125861034Y-91008292D01*
X126057152Y-90927258D01*
X126152085Y-90832491D01*
X126191942Y-90928952D01*
X126341859Y-91079131D01*
X126537835Y-91160507D01*
X126750034Y-91160692D01*
X126946152Y-91079658D01*
X127096331Y-90929741D01*
X127177707Y-90733765D01*
X127177892Y-90521566D01*
X127096858Y-90325448D01*
X127050799Y-90279309D01*
X127050799Y-89392801D01*
X127305329Y-89138271D01*
X127365178Y-89048700D01*
X127398931Y-88998185D01*
X127416748Y-88908614D01*
X127431801Y-88832942D01*
X127431800Y-88832937D01*
X127431800Y-75919605D01*
X127610689Y-75845689D01*
X127914622Y-75542286D01*
X128079313Y-75145668D01*
X128079314Y-75143784D01*
X128460313Y-75143784D01*
X128624311Y-75540689D01*
X128927714Y-75844622D01*
X129324332Y-76009313D01*
X129753784Y-76009687D01*
X130150689Y-75845689D01*
X130454622Y-75542286D01*
X130619313Y-75145668D01*
X130619687Y-74716216D01*
X130455689Y-74319311D01*
X130152286Y-74015378D01*
X129755668Y-73850687D01*
X129326216Y-73850313D01*
X128929311Y-74014311D01*
X128625378Y-74317714D01*
X128460687Y-74714332D01*
X128460313Y-75143784D01*
X128079314Y-75143784D01*
X128079687Y-74716216D01*
X127915689Y-74319311D01*
X127612286Y-74015378D01*
X127215668Y-73850687D01*
X126786216Y-73850313D01*
X126389311Y-74014311D01*
X126187200Y-74216070D01*
X126187200Y-73813458D01*
X126605573Y-73395085D01*
X126784332Y-73469313D01*
X127213784Y-73469687D01*
X127610689Y-73305689D01*
X127914622Y-73002286D01*
X128079313Y-72605668D01*
X128079314Y-72603784D01*
X128460313Y-72603784D01*
X128624311Y-73000689D01*
X128927714Y-73304622D01*
X129324332Y-73469313D01*
X129753784Y-73469687D01*
X130150689Y-73305689D01*
X130454622Y-73002286D01*
X130619313Y-72605668D01*
X130619314Y-72603784D01*
X131000313Y-72603784D01*
X131164311Y-73000689D01*
X131467714Y-73304622D01*
X131864332Y-73469313D01*
X132293784Y-73469687D01*
X132690689Y-73305689D01*
X132994622Y-73002286D01*
X133130212Y-72675750D01*
X133235700Y-72675750D01*
X133235700Y-73265610D01*
X133332373Y-73498999D01*
X133511002Y-73677627D01*
X133744391Y-73774300D01*
X134334250Y-73774300D01*
X134493000Y-73615550D01*
X134493000Y-72517000D01*
X134747000Y-72517000D01*
X134747000Y-73615550D01*
X134905750Y-73774300D01*
X135495609Y-73774300D01*
X135728998Y-73677627D01*
X135907627Y-73498999D01*
X136004300Y-73265610D01*
X136004300Y-72777326D01*
X145998862Y-72777326D01*
X146295987Y-73496424D01*
X146845682Y-74047079D01*
X147564261Y-74345459D01*
X148342326Y-74346138D01*
X149061424Y-74049013D01*
X149612079Y-73499318D01*
X149910459Y-72780739D01*
X149911138Y-72002674D01*
X149614013Y-71283576D01*
X149064318Y-70732921D01*
X148345739Y-70434541D01*
X147567674Y-70433862D01*
X146848576Y-70730987D01*
X146297921Y-71280682D01*
X145999541Y-71999261D01*
X145998862Y-72777326D01*
X136004300Y-72777326D01*
X136004300Y-72675750D01*
X135845550Y-72517000D01*
X134747000Y-72517000D01*
X134493000Y-72517000D01*
X133394450Y-72517000D01*
X133235700Y-72675750D01*
X133130212Y-72675750D01*
X133159313Y-72605668D01*
X133159687Y-72176216D01*
X132995689Y-71779311D01*
X132731230Y-71514390D01*
X133235700Y-71514390D01*
X133235700Y-72104250D01*
X133394450Y-72263000D01*
X134493000Y-72263000D01*
X134493000Y-71164450D01*
X134747000Y-71164450D01*
X134747000Y-72263000D01*
X135845550Y-72263000D01*
X136004300Y-72104250D01*
X136004300Y-71514390D01*
X135907627Y-71281001D01*
X135728998Y-71102373D01*
X135495609Y-71005700D01*
X134905750Y-71005700D01*
X134747000Y-71164450D01*
X134493000Y-71164450D01*
X134334250Y-71005700D01*
X133744391Y-71005700D01*
X133511002Y-71102373D01*
X133332373Y-71281001D01*
X133235700Y-71514390D01*
X132731230Y-71514390D01*
X132692286Y-71475378D01*
X132295668Y-71310687D01*
X131866216Y-71310313D01*
X131469311Y-71474311D01*
X131165378Y-71777714D01*
X131000687Y-72174332D01*
X131000313Y-72603784D01*
X130619314Y-72603784D01*
X130619687Y-72176216D01*
X130455689Y-71779311D01*
X130152286Y-71475378D01*
X129755668Y-71310687D01*
X129326216Y-71310313D01*
X128929311Y-71474311D01*
X128625378Y-71777714D01*
X128460687Y-72174332D01*
X128460313Y-72603784D01*
X128079314Y-72603784D01*
X128079687Y-72176216D01*
X127915689Y-71779311D01*
X127612286Y-71475378D01*
X127215668Y-71310687D01*
X126786216Y-71310313D01*
X126389311Y-71474311D01*
X126085378Y-71777714D01*
X125920687Y-72174332D01*
X125920313Y-72603784D01*
X125994942Y-72784400D01*
X125450071Y-73329271D01*
X125356469Y-73469357D01*
X125323600Y-73634600D01*
X125323600Y-74267131D01*
X125072286Y-74015378D01*
X124675668Y-73850687D01*
X124246216Y-73850313D01*
X123849311Y-74014311D01*
X123545378Y-74317714D01*
X123380687Y-74714332D01*
X123380313Y-75143784D01*
X123544311Y-75540689D01*
X123847714Y-75844622D01*
X124028200Y-75919567D01*
X124028200Y-89636600D01*
X124061069Y-89801843D01*
X124143474Y-89925171D01*
X124031248Y-89971542D01*
X124010554Y-89992200D01*
X122141037Y-89992200D01*
X122120941Y-89972069D01*
X121924965Y-89890693D01*
X121712766Y-89890508D01*
X121516648Y-89971542D01*
X121495954Y-89992200D01*
X120701858Y-89992200D01*
X119862667Y-89153009D01*
X119862692Y-89124566D01*
X119781658Y-88928448D01*
X119631741Y-88778269D01*
X119435765Y-88696893D01*
X119223566Y-88696708D01*
X119027448Y-88777742D01*
X118877269Y-88927659D01*
X118795893Y-89123635D01*
X118795708Y-89335834D01*
X118876742Y-89531952D01*
X119026659Y-89682131D01*
X119222635Y-89763507D01*
X119251874Y-89763532D01*
X120217671Y-90729329D01*
X120357757Y-90822931D01*
X120458560Y-90842982D01*
X119810742Y-91490800D01*
X111607600Y-91490800D01*
X111442357Y-91523669D01*
X111302271Y-91617271D01*
X111225609Y-91693933D01*
X111197166Y-91693908D01*
X111001048Y-91774942D01*
X110850869Y-91924859D01*
X110769493Y-92120835D01*
X110769308Y-92333034D01*
X110850342Y-92529152D01*
X111000259Y-92679331D01*
X111196235Y-92760707D01*
X111408434Y-92760892D01*
X111604552Y-92679858D01*
X111754731Y-92529941D01*
X111827622Y-92354400D01*
X118947142Y-92354400D01*
X118363471Y-92938071D01*
X118269869Y-93078157D01*
X118237000Y-93243400D01*
X118237000Y-95232163D01*
X118216869Y-95252259D01*
X118135493Y-95448235D01*
X118135383Y-95574038D01*
X117986048Y-95635742D01*
X117835869Y-95785659D01*
X117754493Y-95981635D01*
X117754468Y-96010875D01*
X117575542Y-96189800D01*
X106667116Y-96189800D01*
X106975251Y-95882202D01*
X107206786Y-95324604D01*
X107207313Y-94720845D01*
X106976752Y-94162843D01*
X106550202Y-93735549D01*
X105992604Y-93504014D01*
X105388845Y-93503487D01*
X104830843Y-93734048D01*
X104403549Y-94160598D01*
X104172014Y-94718196D01*
X104171487Y-95321955D01*
X104402048Y-95879957D01*
X104711352Y-96189800D01*
X101744748Y-96189800D01*
X101673941Y-96118869D01*
X101662804Y-96114244D01*
X101895251Y-95882202D01*
X102126786Y-95324604D01*
X102127313Y-94720845D01*
X101896752Y-94162843D01*
X101470202Y-93735549D01*
X100912604Y-93504014D01*
X100308845Y-93503487D01*
X99750843Y-93734048D01*
X99323549Y-94160598D01*
X99092014Y-94718196D01*
X99091487Y-95321955D01*
X93369200Y-95321955D01*
X93369200Y-93282397D01*
X101295055Y-93282397D01*
X101422395Y-93590582D01*
X101657978Y-93826577D01*
X101965940Y-93954454D01*
X102299397Y-93954745D01*
X102607582Y-93827405D01*
X102843577Y-93591822D01*
X102971454Y-93283860D01*
X102971455Y-93282397D01*
X103327055Y-93282397D01*
X103454395Y-93590582D01*
X103689978Y-93826577D01*
X103997940Y-93954454D01*
X104331397Y-93954745D01*
X104639582Y-93827405D01*
X104875577Y-93591822D01*
X105003454Y-93283860D01*
X105003745Y-92950403D01*
X104876405Y-92642218D01*
X104640822Y-92406223D01*
X104332860Y-92278346D01*
X103999403Y-92278055D01*
X103691218Y-92405395D01*
X103455223Y-92640978D01*
X103327346Y-92948940D01*
X103327055Y-93282397D01*
X102971455Y-93282397D01*
X102971745Y-92950403D01*
X102844405Y-92642218D01*
X102608822Y-92406223D01*
X102300860Y-92278346D01*
X101967403Y-92278055D01*
X101659218Y-92405395D01*
X101423223Y-92640978D01*
X101295346Y-92948940D01*
X101295055Y-93282397D01*
X93369200Y-93282397D01*
X93369200Y-87400200D01*
X95885000Y-87400200D01*
X95924143Y-87392414D01*
X95964051Y-87392414D01*
X98394090Y-86909049D01*
X98394091Y-86909049D01*
X98454593Y-86883988D01*
X98540156Y-86848547D01*
X98540157Y-86848546D01*
X100600245Y-85472039D01*
X100712039Y-85360245D01*
X102088547Y-83300157D01*
X102149049Y-83154091D01*
X102149049Y-83154090D01*
X102632414Y-80724051D01*
X102632414Y-80684143D01*
X102640200Y-80645000D01*
X102640200Y-75901010D01*
X118588595Y-75901010D01*
X118656499Y-76141880D01*
X119175339Y-76326503D01*
X119725336Y-76298521D01*
X120103501Y-76141880D01*
X120171405Y-75901010D01*
X119380000Y-75109605D01*
X118588595Y-75901010D01*
X102640200Y-75901010D01*
X102640200Y-74725339D01*
X117983497Y-74725339D01*
X118011479Y-75275336D01*
X118168120Y-75653501D01*
X118408990Y-75721405D01*
X119200395Y-74930000D01*
X119559605Y-74930000D01*
X120351010Y-75721405D01*
X120591880Y-75653501D01*
X120773256Y-75143784D01*
X120840313Y-75143784D01*
X121004311Y-75540689D01*
X121307714Y-75844622D01*
X121704332Y-76009313D01*
X122133784Y-76009687D01*
X122530689Y-75845689D01*
X122834622Y-75542286D01*
X122999313Y-75145668D01*
X122999687Y-74716216D01*
X122835689Y-74319311D01*
X122532286Y-74015378D01*
X122135668Y-73850687D01*
X121706216Y-73850313D01*
X121309311Y-74014311D01*
X121005378Y-74317714D01*
X120840687Y-74714332D01*
X120840313Y-75143784D01*
X120773256Y-75143784D01*
X120776503Y-75134661D01*
X120748521Y-74584664D01*
X120591880Y-74206499D01*
X120351010Y-74138595D01*
X119559605Y-74930000D01*
X119200395Y-74930000D01*
X118408990Y-74138595D01*
X118168120Y-74206499D01*
X117983497Y-74725339D01*
X102640200Y-74725339D01*
X102640200Y-72777326D01*
X104088862Y-72777326D01*
X104385987Y-73496424D01*
X104935682Y-74047079D01*
X105654261Y-74345459D01*
X106432326Y-74346138D01*
X107151424Y-74049013D01*
X107241604Y-73958990D01*
X118588595Y-73958990D01*
X119380000Y-74750395D01*
X120171405Y-73958990D01*
X120103501Y-73718120D01*
X119584661Y-73533497D01*
X119034664Y-73561479D01*
X118656499Y-73718120D01*
X118588595Y-73958990D01*
X107241604Y-73958990D01*
X107702079Y-73499318D01*
X108000459Y-72780739D01*
X108000613Y-72603784D01*
X118300313Y-72603784D01*
X118464311Y-73000689D01*
X118767714Y-73304622D01*
X119164332Y-73469313D01*
X119593784Y-73469687D01*
X119990689Y-73305689D01*
X120294622Y-73002286D01*
X120459313Y-72605668D01*
X120459314Y-72603784D01*
X120840313Y-72603784D01*
X121004311Y-73000689D01*
X121307714Y-73304622D01*
X121704332Y-73469313D01*
X122133784Y-73469687D01*
X122530689Y-73305689D01*
X122834622Y-73002286D01*
X122999313Y-72605668D01*
X122999314Y-72603784D01*
X123380313Y-72603784D01*
X123544311Y-73000689D01*
X123847714Y-73304622D01*
X124244332Y-73469313D01*
X124673784Y-73469687D01*
X125070689Y-73305689D01*
X125374622Y-73002286D01*
X125539313Y-72605668D01*
X125539687Y-72176216D01*
X125375689Y-71779311D01*
X125072286Y-71475378D01*
X124675668Y-71310687D01*
X124246216Y-71310313D01*
X123849311Y-71474311D01*
X123545378Y-71777714D01*
X123380687Y-72174332D01*
X123380313Y-72603784D01*
X122999314Y-72603784D01*
X122999687Y-72176216D01*
X122835689Y-71779311D01*
X122532286Y-71475378D01*
X122135668Y-71310687D01*
X121706216Y-71310313D01*
X121309311Y-71474311D01*
X121005378Y-71777714D01*
X120840687Y-72174332D01*
X120840313Y-72603784D01*
X120459314Y-72603784D01*
X120459687Y-72176216D01*
X120295689Y-71779311D01*
X119992286Y-71475378D01*
X119595668Y-71310687D01*
X119166216Y-71310313D01*
X118769311Y-71474311D01*
X118465378Y-71777714D01*
X118300687Y-72174332D01*
X118300313Y-72603784D01*
X108000613Y-72603784D01*
X108001138Y-72002674D01*
X107704013Y-71283576D01*
X107154318Y-70732921D01*
X106435739Y-70434541D01*
X105657674Y-70433862D01*
X104938576Y-70730987D01*
X104387921Y-71280682D01*
X104089541Y-71999261D01*
X104088862Y-72777326D01*
X102640200Y-72777326D01*
X102640200Y-68985200D01*
X151359800Y-68985200D01*
X151359800Y-80645000D01*
X151359800Y-80645000D01*
G37*
X151359800Y-80645000D02*
X151367586Y-80684143D01*
X151367586Y-80724051D01*
X151850951Y-83154090D01*
X151911453Y-83300156D01*
X151911454Y-83300157D01*
X153287961Y-85360245D01*
X153399755Y-85472039D01*
X155459842Y-86848546D01*
X155459843Y-86848547D01*
X155605909Y-86909049D01*
X158035949Y-87392414D01*
X158075857Y-87392414D01*
X158115000Y-87400200D01*
X160630800Y-87400200D01*
X160630800Y-115799800D01*
X158115000Y-115799800D01*
X158075857Y-115807586D01*
X158035949Y-115807586D01*
X155605909Y-116290951D01*
X155459843Y-116351453D01*
X153399755Y-117727961D01*
X153287961Y-117839755D01*
X151911454Y-119899843D01*
X151911453Y-119899844D01*
X151850951Y-120045910D01*
X151367586Y-122475949D01*
X151367586Y-122515857D01*
X151359800Y-122555000D01*
X151359800Y-134214800D01*
X102640200Y-134214800D01*
X102640200Y-131197326D01*
X104088862Y-131197326D01*
X104385987Y-131916424D01*
X104935682Y-132467079D01*
X105654261Y-132765459D01*
X106432326Y-132766138D01*
X107151424Y-132469013D01*
X107702079Y-131919318D01*
X108000459Y-131200739D01*
X108001138Y-130422674D01*
X107704013Y-129703576D01*
X107154318Y-129152921D01*
X106488907Y-128876618D01*
X119566690Y-128876618D01*
X119566690Y-130457382D01*
X119649152Y-130871947D01*
X119883984Y-131223398D01*
X120235435Y-131458230D01*
X120650000Y-131540692D01*
X121064565Y-131458230D01*
X121416016Y-131223398D01*
X121650848Y-130871947D01*
X121733310Y-130457382D01*
X121733310Y-128876618D01*
X121650848Y-128462053D01*
X121416016Y-128110602D01*
X121064565Y-127875770D01*
X120650000Y-127793308D01*
X120235435Y-127875770D01*
X119883984Y-128110602D01*
X119649152Y-128462053D01*
X119566690Y-128876618D01*
X106488907Y-128876618D01*
X106435739Y-128854541D01*
X105657674Y-128853862D01*
X104938576Y-129150987D01*
X104387921Y-129700682D01*
X104089541Y-130419261D01*
X104088862Y-131197326D01*
X102640200Y-131197326D01*
X102640200Y-122555000D01*
X102632414Y-122515857D01*
X102632414Y-122475949D01*
X102438497Y-121501058D01*
X111104643Y-121501058D01*
X111242769Y-121835347D01*
X111498307Y-122091333D01*
X111832356Y-122230042D01*
X112194058Y-122230357D01*
X112528347Y-122092231D01*
X112784333Y-121836693D01*
X112923042Y-121502644D01*
X112923357Y-121140942D01*
X112785231Y-120806653D01*
X112529693Y-120550667D01*
X112195644Y-120411958D01*
X111833942Y-120411643D01*
X111499653Y-120549769D01*
X111243667Y-120805307D01*
X111104958Y-121139356D01*
X111104643Y-121501058D01*
X102438497Y-121501058D01*
X102149049Y-120045909D01*
X102088547Y-119899843D01*
X101204312Y-118576492D01*
X107754114Y-118576492D01*
X107801034Y-118799752D01*
X108258062Y-118955879D01*
X108740047Y-118925225D01*
X109042966Y-118799752D01*
X109089886Y-118576492D01*
X108422000Y-117908605D01*
X107754114Y-118576492D01*
X101204312Y-118576492D01*
X100712039Y-117839755D01*
X100600245Y-117727961D01*
X100356450Y-117565062D01*
X107195121Y-117565062D01*
X107225775Y-118047047D01*
X107351248Y-118349966D01*
X107574508Y-118396886D01*
X108242395Y-117729000D01*
X108601605Y-117729000D01*
X109269492Y-118396886D01*
X109492752Y-118349966D01*
X109643372Y-117909058D01*
X111104643Y-117909058D01*
X111242769Y-118243347D01*
X111498307Y-118499333D01*
X111832356Y-118638042D01*
X112194058Y-118638357D01*
X112528347Y-118500231D01*
X112784333Y-118244693D01*
X112923042Y-117910644D01*
X112923357Y-117548942D01*
X112888668Y-117464989D01*
X117018326Y-113335331D01*
X117018329Y-113335329D01*
X117111931Y-113195243D01*
X117111932Y-113195242D01*
X117144801Y-113030000D01*
X117144800Y-113029995D01*
X117144800Y-107700034D01*
X117449508Y-107700034D01*
X117530542Y-107896152D01*
X117551200Y-107916846D01*
X117551200Y-122504200D01*
X117584069Y-122669443D01*
X117658018Y-122780116D01*
X117677671Y-122809529D01*
X122756538Y-127888396D01*
X122423984Y-128110602D01*
X122189152Y-128462053D01*
X122106690Y-128876618D01*
X122106690Y-130457382D01*
X122189152Y-130871947D01*
X122423984Y-131223398D01*
X122775435Y-131458230D01*
X123190000Y-131540692D01*
X123604565Y-131458230D01*
X123956016Y-131223398D01*
X124190848Y-130871947D01*
X124273310Y-130457382D01*
X124273310Y-128876618D01*
X124190848Y-128462053D01*
X123956016Y-128110602D01*
X123621800Y-127887286D01*
X123621800Y-127711200D01*
X123588931Y-127545957D01*
X123495329Y-127405871D01*
X118414800Y-122325342D01*
X118414800Y-107917037D01*
X118434931Y-107896941D01*
X118516307Y-107700965D01*
X118516307Y-107700034D01*
X119989508Y-107700034D01*
X120070542Y-107896152D01*
X120091200Y-107916846D01*
X120091200Y-121386600D01*
X120124069Y-121551843D01*
X120217671Y-121691929D01*
X125298200Y-126772458D01*
X125298200Y-127887286D01*
X124963984Y-128110602D01*
X124729152Y-128462053D01*
X124646690Y-128876618D01*
X124646690Y-130457382D01*
X124729152Y-130871947D01*
X124963984Y-131223398D01*
X125315435Y-131458230D01*
X125730000Y-131540692D01*
X126144565Y-131458230D01*
X126496016Y-131223398D01*
X126730848Y-130871947D01*
X126813310Y-130457382D01*
X126813310Y-128876618D01*
X126730848Y-128462053D01*
X126496016Y-128110602D01*
X126161800Y-127887286D01*
X126161800Y-126593600D01*
X126128931Y-126428357D01*
X126035329Y-126288271D01*
X120954800Y-121207742D01*
X120954800Y-107917037D01*
X120974931Y-107896941D01*
X121046146Y-107725434D01*
X122910508Y-107725434D01*
X122991542Y-107921552D01*
X123012200Y-107942246D01*
X123012200Y-120954800D01*
X123045069Y-121120043D01*
X123099384Y-121201331D01*
X123138671Y-121260129D01*
X127838200Y-125959657D01*
X127838200Y-127887286D01*
X127503984Y-128110602D01*
X127269152Y-128462053D01*
X127186690Y-128876618D01*
X127186690Y-130457382D01*
X127269152Y-130871947D01*
X127503984Y-131223398D01*
X127855435Y-131458230D01*
X128270000Y-131540692D01*
X128684565Y-131458230D01*
X129036016Y-131223398D01*
X129270848Y-130871947D01*
X129353310Y-130457382D01*
X129353310Y-128876618D01*
X129726690Y-128876618D01*
X129726690Y-130457382D01*
X129809152Y-130871947D01*
X130043984Y-131223398D01*
X130395435Y-131458230D01*
X130810000Y-131540692D01*
X131224565Y-131458230D01*
X131576016Y-131223398D01*
X131810848Y-130871947D01*
X131893310Y-130457382D01*
X131893310Y-128876618D01*
X132266690Y-128876618D01*
X132266690Y-130457382D01*
X132349152Y-130871947D01*
X132583984Y-131223398D01*
X132935435Y-131458230D01*
X133350000Y-131540692D01*
X133764565Y-131458230D01*
X134116016Y-131223398D01*
X134133436Y-131197326D01*
X145998862Y-131197326D01*
X146295987Y-131916424D01*
X146845682Y-132467079D01*
X147564261Y-132765459D01*
X148342326Y-132766138D01*
X149061424Y-132469013D01*
X149612079Y-131919318D01*
X149910459Y-131200739D01*
X149911138Y-130422674D01*
X149614013Y-129703576D01*
X149064318Y-129152921D01*
X148345739Y-128854541D01*
X147567674Y-128853862D01*
X146848576Y-129150987D01*
X146297921Y-129700682D01*
X145999541Y-130419261D01*
X145998862Y-131197326D01*
X134133436Y-131197326D01*
X134350848Y-130871947D01*
X134433310Y-130457382D01*
X134433310Y-129626148D01*
X143307791Y-120751667D01*
X143336234Y-120751692D01*
X143532352Y-120670658D01*
X143682531Y-120520741D01*
X143763907Y-120324765D01*
X143764092Y-120112566D01*
X143683058Y-119916448D01*
X143533141Y-119766269D01*
X143337165Y-119684893D01*
X143124966Y-119684708D01*
X142928848Y-119765742D01*
X142778669Y-119915659D01*
X142697293Y-120111635D01*
X142697268Y-120140874D01*
X134355036Y-128483106D01*
X134350848Y-128462053D01*
X134116016Y-128110602D01*
X133764565Y-127875770D01*
X133350000Y-127793308D01*
X132935435Y-127875770D01*
X132583984Y-128110602D01*
X132349152Y-128462053D01*
X132266690Y-128876618D01*
X131893310Y-128876618D01*
X131810848Y-128462053D01*
X131576016Y-128110602D01*
X131224565Y-127875770D01*
X130810000Y-127793308D01*
X130395435Y-127875770D01*
X130043984Y-128110602D01*
X129809152Y-128462053D01*
X129726690Y-128876618D01*
X129353310Y-128876618D01*
X129270848Y-128462053D01*
X129036016Y-128110602D01*
X128701800Y-127887286D01*
X128701800Y-125780805D01*
X128701801Y-125780800D01*
X128668932Y-125615558D01*
X128637872Y-125569074D01*
X128575329Y-125475471D01*
X128575326Y-125475469D01*
X123875800Y-120775942D01*
X123875800Y-107942437D01*
X123895931Y-107922341D01*
X123977307Y-107726365D01*
X123977492Y-107514166D01*
X123896458Y-107318048D01*
X123746541Y-107167869D01*
X123550565Y-107086493D01*
X123338366Y-107086308D01*
X123142248Y-107167342D01*
X122992069Y-107317259D01*
X122910693Y-107513235D01*
X122910508Y-107725434D01*
X121046146Y-107725434D01*
X121056307Y-107700965D01*
X121056492Y-107488766D01*
X120975458Y-107292648D01*
X120825541Y-107142469D01*
X120629565Y-107061093D01*
X120417366Y-107060908D01*
X120221248Y-107141942D01*
X120071069Y-107291859D01*
X119989693Y-107487835D01*
X119989508Y-107700034D01*
X118516307Y-107700034D01*
X118516492Y-107488766D01*
X118435458Y-107292648D01*
X118285541Y-107142469D01*
X118089565Y-107061093D01*
X117877366Y-107060908D01*
X117681248Y-107141942D01*
X117531069Y-107291859D01*
X117449693Y-107487835D01*
X117449508Y-107700034D01*
X117144800Y-107700034D01*
X117144800Y-101541637D01*
X117164931Y-101521541D01*
X117246307Y-101325565D01*
X117246492Y-101113366D01*
X117165458Y-100917248D01*
X117015541Y-100767069D01*
X116819565Y-100685693D01*
X116607366Y-100685508D01*
X116411248Y-100766542D01*
X116261069Y-100916459D01*
X116179693Y-101112435D01*
X116179508Y-101324634D01*
X116260542Y-101520752D01*
X116281200Y-101541446D01*
X116281200Y-112851143D01*
X112278132Y-116854210D01*
X112195644Y-116819958D01*
X111833942Y-116819643D01*
X111499653Y-116957769D01*
X111243667Y-117213307D01*
X111104958Y-117547356D01*
X111104643Y-117909058D01*
X109643372Y-117909058D01*
X109648879Y-117892938D01*
X109618225Y-117410953D01*
X109492752Y-117108034D01*
X109269492Y-117061114D01*
X108601605Y-117729000D01*
X108242395Y-117729000D01*
X107574508Y-117061114D01*
X107351248Y-117108034D01*
X107195121Y-117565062D01*
X100356450Y-117565062D01*
X99333439Y-116881508D01*
X107754114Y-116881508D01*
X108422000Y-117549395D01*
X109089886Y-116881508D01*
X109042966Y-116658248D01*
X108585938Y-116502121D01*
X108103953Y-116532775D01*
X107801034Y-116658248D01*
X107754114Y-116881508D01*
X99333439Y-116881508D01*
X98540157Y-116351454D01*
X98540156Y-116351453D01*
X98454593Y-116316012D01*
X98394091Y-116290951D01*
X98394090Y-116290951D01*
X95964051Y-115807586D01*
X95924143Y-115807586D01*
X95885000Y-115799800D01*
X93369200Y-115799800D01*
X93369200Y-95321955D01*
X99091487Y-95321955D01*
X99322048Y-95879957D01*
X99748598Y-96307251D01*
X100306196Y-96538786D01*
X100838028Y-96539250D01*
X100837908Y-96676434D01*
X100838947Y-96678950D01*
X100308845Y-96678487D01*
X99750843Y-96909048D01*
X99323549Y-97335598D01*
X99092014Y-97893196D01*
X99091487Y-98496955D01*
X99322048Y-99054957D01*
X99748598Y-99482251D01*
X100306196Y-99713786D01*
X100909955Y-99714313D01*
X101467957Y-99483752D01*
X101895251Y-99057202D01*
X102126786Y-98499604D01*
X102126905Y-98362397D01*
X102311055Y-98362397D01*
X102438395Y-98670582D01*
X102673978Y-98906577D01*
X102981940Y-99034454D01*
X103315397Y-99034745D01*
X103623582Y-98907405D01*
X103859577Y-98671822D01*
X103987454Y-98363860D01*
X103987745Y-98030403D01*
X103860405Y-97722218D01*
X103624822Y-97486223D01*
X103316860Y-97358346D01*
X102983403Y-97358055D01*
X102675218Y-97485395D01*
X102439223Y-97720978D01*
X102311346Y-98028940D01*
X102311055Y-98362397D01*
X102126905Y-98362397D01*
X102127313Y-97895845D01*
X101896752Y-97337843D01*
X101612804Y-97053400D01*
X104686239Y-97053400D01*
X104403549Y-97335598D01*
X104172014Y-97893196D01*
X104171487Y-98496955D01*
X104402048Y-99054957D01*
X104552879Y-99206051D01*
X102703566Y-99206051D01*
X102613741Y-99116069D01*
X102417765Y-99034693D01*
X102205566Y-99034508D01*
X102009448Y-99115542D01*
X101859269Y-99265459D01*
X101777893Y-99461435D01*
X101777708Y-99673634D01*
X101858742Y-99869752D01*
X102008659Y-100019931D01*
X102204635Y-100101307D01*
X102416834Y-100101492D01*
X102493895Y-100069651D01*
X115627149Y-100069651D01*
X115792392Y-100036782D01*
X115932478Y-99943180D01*
X118719601Y-97156057D01*
X118719601Y-97382542D01*
X118083609Y-98018533D01*
X118055166Y-98018508D01*
X117859048Y-98099542D01*
X117708869Y-98249459D01*
X117627493Y-98445435D01*
X117627308Y-98657634D01*
X117708342Y-98853752D01*
X117858259Y-99003931D01*
X118054235Y-99085307D01*
X118266434Y-99085492D01*
X118462552Y-99004458D01*
X118612731Y-98854541D01*
X118694107Y-98658565D01*
X118694132Y-98629325D01*
X119456727Y-97866730D01*
X119456730Y-97866728D01*
X119550332Y-97726642D01*
X119583201Y-97561399D01*
X119583201Y-96037401D01*
X119550332Y-95872158D01*
X119456730Y-95732072D01*
X119202267Y-95477609D01*
X119202292Y-95449166D01*
X119121258Y-95253048D01*
X119100600Y-95232354D01*
X119100600Y-93422258D01*
X121608471Y-90914387D01*
X121711835Y-90957307D01*
X121924034Y-90957492D01*
X122120152Y-90876458D01*
X122140846Y-90855800D01*
X124010363Y-90855800D01*
X124030459Y-90875931D01*
X124226435Y-90957307D01*
X124255675Y-90957332D01*
X128014812Y-94716469D01*
X128076742Y-94866352D01*
X128097400Y-94887046D01*
X128097400Y-96171686D01*
X128006869Y-96262059D01*
X127925493Y-96458035D01*
X127925308Y-96670234D01*
X128006342Y-96866352D01*
X128027000Y-96887046D01*
X128027000Y-100140142D01*
X126137209Y-102029933D01*
X126187107Y-101909765D01*
X126187292Y-101697566D01*
X126106258Y-101501448D01*
X125956341Y-101351269D01*
X125760365Y-101269893D01*
X125731125Y-101269868D01*
X124510800Y-100049542D01*
X124510800Y-99662037D01*
X124530931Y-99641941D01*
X124612307Y-99445965D01*
X124612492Y-99233766D01*
X124531458Y-99037648D01*
X124381541Y-98887469D01*
X124185565Y-98806093D01*
X123973366Y-98805908D01*
X123777248Y-98886942D01*
X123627069Y-99036859D01*
X123545693Y-99232835D01*
X123545508Y-99445034D01*
X123626542Y-99641152D01*
X123647200Y-99661846D01*
X123647200Y-100228400D01*
X123680069Y-100393643D01*
X123773671Y-100533729D01*
X125120333Y-101880390D01*
X125120308Y-101908834D01*
X125201342Y-102104952D01*
X125351259Y-102255131D01*
X125547235Y-102336507D01*
X125759434Y-102336692D01*
X125880454Y-102286688D01*
X125678671Y-102488471D01*
X125585069Y-102628557D01*
X125552200Y-102793800D01*
X125552200Y-103817363D01*
X125532069Y-103837459D01*
X125450693Y-104033435D01*
X125450508Y-104245634D01*
X125531542Y-104441752D01*
X125552200Y-104462446D01*
X125552200Y-113995200D01*
X125585069Y-114160443D01*
X125678671Y-114300529D01*
X127990533Y-116612390D01*
X127990508Y-116640834D01*
X128071542Y-116836952D01*
X128221459Y-116987131D01*
X128417435Y-117068507D01*
X128459009Y-117068543D01*
X128561956Y-117137330D01*
X128589372Y-117142784D01*
X128727199Y-117170200D01*
X128727204Y-117170199D01*
X133197601Y-117170199D01*
X133362844Y-117137330D01*
X133502930Y-117043728D01*
X133706591Y-116840067D01*
X133735034Y-116840092D01*
X133931152Y-116759058D01*
X134028179Y-116662200D01*
X143136563Y-116662200D01*
X143156659Y-116682331D01*
X143352635Y-116763707D01*
X143564834Y-116763892D01*
X143760952Y-116682858D01*
X143781646Y-116662200D01*
X147751800Y-116662200D01*
X147917043Y-116629331D01*
X148057129Y-116535729D01*
X148717991Y-115874867D01*
X148746434Y-115874892D01*
X148942552Y-115793858D01*
X149092731Y-115643941D01*
X149174107Y-115447965D01*
X149174292Y-115235766D01*
X149093258Y-115039648D01*
X148943341Y-114889469D01*
X148747365Y-114808093D01*
X148535166Y-114807908D01*
X148339048Y-114888942D01*
X148188869Y-115038859D01*
X148107493Y-115234835D01*
X148107468Y-115264074D01*
X147572942Y-115798600D01*
X145000846Y-115798600D01*
X145130331Y-115669341D01*
X145211707Y-115473365D01*
X145211892Y-115261166D01*
X145130858Y-115065048D01*
X144980941Y-114914869D01*
X144784965Y-114833493D01*
X144572766Y-114833308D01*
X144376648Y-114914342D01*
X144355954Y-114935000D01*
X140564658Y-114935000D01*
X132690658Y-107061000D01*
X145141508Y-107061000D01*
X145223970Y-107475565D01*
X145458802Y-107827016D01*
X145810253Y-108061848D01*
X146224818Y-108144310D01*
X147805582Y-108144310D01*
X148220147Y-108061848D01*
X148571598Y-107827016D01*
X148806430Y-107475565D01*
X148888892Y-107061000D01*
X148806430Y-106646435D01*
X148571598Y-106294984D01*
X148220147Y-106060152D01*
X147805582Y-105977690D01*
X146224818Y-105977690D01*
X145810253Y-106060152D01*
X145458802Y-106294984D01*
X145223970Y-106646435D01*
X145141508Y-107061000D01*
X132690658Y-107061000D01*
X130150658Y-104521000D01*
X145141508Y-104521000D01*
X145223970Y-104935565D01*
X145458802Y-105287016D01*
X145810253Y-105521848D01*
X146224818Y-105604310D01*
X147805582Y-105604310D01*
X148220147Y-105521848D01*
X148571598Y-105287016D01*
X148806430Y-104935565D01*
X148888892Y-104521000D01*
X148806430Y-104106435D01*
X148571598Y-103754984D01*
X148220147Y-103520152D01*
X147805582Y-103437690D01*
X146224818Y-103437690D01*
X145810253Y-103520152D01*
X145458802Y-103754984D01*
X145223970Y-104106435D01*
X145141508Y-104521000D01*
X130150658Y-104521000D01*
X128320867Y-102691209D01*
X128320892Y-102662766D01*
X128239858Y-102466648D01*
X128089941Y-102316469D01*
X127893965Y-102235093D01*
X127681766Y-102234908D01*
X127485648Y-102315942D01*
X127335469Y-102465859D01*
X127254093Y-102661835D01*
X127253908Y-102874034D01*
X127334942Y-103070152D01*
X127484859Y-103220331D01*
X127680835Y-103301707D01*
X127710074Y-103301732D01*
X140080471Y-115672129D01*
X140220557Y-115765731D01*
X140385800Y-115798600D01*
X133796911Y-115798600D01*
X133735965Y-115773293D01*
X133523766Y-115773108D01*
X133327648Y-115854142D01*
X133177469Y-116004059D01*
X133096093Y-116200035D01*
X133096068Y-116229274D01*
X133018743Y-116306599D01*
X130602528Y-116306599D01*
X130632107Y-116235365D01*
X130632292Y-116023166D01*
X130551258Y-115827048D01*
X130530600Y-115806354D01*
X130530600Y-111821252D01*
X130606707Y-111637965D01*
X130606892Y-111425766D01*
X130525858Y-111229648D01*
X130375941Y-111079469D01*
X130179965Y-110998093D01*
X129967766Y-110997908D01*
X129771648Y-111078942D01*
X129621469Y-111228859D01*
X129540093Y-111424835D01*
X129539908Y-111637034D01*
X129620942Y-111833152D01*
X129667000Y-111879290D01*
X129667000Y-115806163D01*
X129646869Y-115826259D01*
X129565493Y-116022235D01*
X129565308Y-116234434D01*
X129595126Y-116306599D01*
X129006683Y-116306599D01*
X128976458Y-116233448D01*
X128826541Y-116083269D01*
X128630565Y-116001893D01*
X128601325Y-116001868D01*
X126415800Y-113816342D01*
X126415800Y-104462637D01*
X126435931Y-104442541D01*
X126517307Y-104246565D01*
X126517492Y-104034366D01*
X126436458Y-103838248D01*
X126415800Y-103817554D01*
X126415800Y-102972658D01*
X127407458Y-101981000D01*
X145141508Y-101981000D01*
X145223970Y-102395565D01*
X145458802Y-102747016D01*
X145810253Y-102981848D01*
X146224818Y-103064310D01*
X147805582Y-103064310D01*
X148220147Y-102981848D01*
X148571598Y-102747016D01*
X148806430Y-102395565D01*
X148888892Y-101981000D01*
X148806430Y-101566435D01*
X148571598Y-101214984D01*
X148220147Y-100980152D01*
X147805582Y-100897690D01*
X146224818Y-100897690D01*
X145810253Y-100980152D01*
X145458802Y-101214984D01*
X145223970Y-101566435D01*
X145141508Y-101981000D01*
X127407458Y-101981000D01*
X128764129Y-100624329D01*
X128857731Y-100484243D01*
X128875753Y-100393642D01*
X128890601Y-100319000D01*
X128890600Y-100318995D01*
X128890600Y-99441000D01*
X145141508Y-99441000D01*
X145223970Y-99855565D01*
X145458802Y-100207016D01*
X145810253Y-100441848D01*
X146224818Y-100524310D01*
X147805582Y-100524310D01*
X148220147Y-100441848D01*
X148571598Y-100207016D01*
X148806430Y-99855565D01*
X148888892Y-99441000D01*
X148806430Y-99026435D01*
X148571598Y-98674984D01*
X148220147Y-98440152D01*
X147805582Y-98357690D01*
X146224818Y-98357690D01*
X145810253Y-98440152D01*
X145458802Y-98674984D01*
X145223970Y-99026435D01*
X145141508Y-99441000D01*
X128890600Y-99441000D01*
X128890600Y-96901000D01*
X145141508Y-96901000D01*
X145223970Y-97315565D01*
X145458802Y-97667016D01*
X145810253Y-97901848D01*
X146224818Y-97984310D01*
X147805582Y-97984310D01*
X148220147Y-97901848D01*
X148571598Y-97667016D01*
X148806430Y-97315565D01*
X148888892Y-96901000D01*
X148806430Y-96486435D01*
X148571598Y-96134984D01*
X148220147Y-95900152D01*
X147805582Y-95817690D01*
X146224818Y-95817690D01*
X145810253Y-95900152D01*
X145458802Y-96134984D01*
X145223970Y-96486435D01*
X145141508Y-96901000D01*
X128890600Y-96901000D01*
X128890600Y-96887237D01*
X128910731Y-96867141D01*
X128992107Y-96671165D01*
X128992292Y-96458966D01*
X128961000Y-96383233D01*
X128961000Y-95685834D01*
X137871108Y-95685834D01*
X137952142Y-95881952D01*
X138102059Y-96032131D01*
X138298035Y-96113507D01*
X138510234Y-96113692D01*
X138706352Y-96032658D01*
X138856531Y-95882741D01*
X138937907Y-95686765D01*
X138937932Y-95657525D01*
X140233926Y-94361531D01*
X140233929Y-94361529D01*
X140234282Y-94361000D01*
X145141508Y-94361000D01*
X145223970Y-94775565D01*
X145458802Y-95127016D01*
X145810253Y-95361848D01*
X146224818Y-95444310D01*
X147805582Y-95444310D01*
X148220147Y-95361848D01*
X148571598Y-95127016D01*
X148806430Y-94775565D01*
X148888892Y-94361000D01*
X148806430Y-93946435D01*
X148571598Y-93594984D01*
X148220147Y-93360152D01*
X147805582Y-93277690D01*
X146224818Y-93277690D01*
X145810253Y-93360152D01*
X145458802Y-93594984D01*
X145223970Y-93946435D01*
X145141508Y-94361000D01*
X140234282Y-94361000D01*
X140327531Y-94221443D01*
X140360400Y-94056200D01*
X140360400Y-90423911D01*
X140567634Y-90424092D01*
X140763752Y-90343058D01*
X140784446Y-90322400D01*
X143670020Y-90322400D01*
X143835263Y-90289531D01*
X143975349Y-90195929D01*
X143989804Y-90181474D01*
X144915417Y-90181474D01*
X144929773Y-90253675D01*
X145189476Y-90731540D01*
X145612281Y-91073646D01*
X146133820Y-91227910D01*
X146888200Y-91227910D01*
X146888200Y-89966800D01*
X147142200Y-89966800D01*
X147142200Y-91227910D01*
X147896580Y-91227910D01*
X148418119Y-91073646D01*
X148840924Y-90731540D01*
X149100627Y-90253675D01*
X149114983Y-90181474D01*
X148992362Y-89966800D01*
X147142200Y-89966800D01*
X146888200Y-89966800D01*
X145038038Y-89966800D01*
X144915417Y-90181474D01*
X143989804Y-90181474D01*
X145149310Y-89021968D01*
X144929773Y-89425925D01*
X144915417Y-89498126D01*
X145038038Y-89712800D01*
X146888200Y-89712800D01*
X146888200Y-88451690D01*
X147142200Y-88451690D01*
X147142200Y-89712800D01*
X148992362Y-89712800D01*
X149114983Y-89498126D01*
X149100627Y-89425925D01*
X148840924Y-88948060D01*
X148418119Y-88605954D01*
X147896580Y-88451690D01*
X147142200Y-88451690D01*
X146888200Y-88451690D01*
X146133820Y-88451690D01*
X145612281Y-88605954D01*
X145366257Y-88805020D01*
X145860612Y-88310665D01*
X146224818Y-88383110D01*
X147805582Y-88383110D01*
X148220147Y-88300648D01*
X148571598Y-88065816D01*
X148806430Y-87714365D01*
X148888892Y-87299800D01*
X148806430Y-86885235D01*
X148571598Y-86533784D01*
X148220147Y-86298952D01*
X147805582Y-86216490D01*
X146224818Y-86216490D01*
X145810253Y-86298952D01*
X145458802Y-86533784D01*
X145223970Y-86885235D01*
X145141508Y-87299800D01*
X145223970Y-87714365D01*
X145228627Y-87721335D01*
X143491162Y-89458800D01*
X140784637Y-89458800D01*
X140764541Y-89438669D01*
X140568565Y-89357293D01*
X140461911Y-89357200D01*
X140462092Y-89149966D01*
X140381058Y-88953848D01*
X140231141Y-88803669D01*
X140035165Y-88722293D01*
X139822966Y-88722108D01*
X139626848Y-88803142D01*
X139476669Y-88953059D01*
X139415302Y-89100848D01*
X139365058Y-88979248D01*
X139215141Y-88829069D01*
X139019165Y-88747693D01*
X138806966Y-88747508D01*
X138610848Y-88828542D01*
X138460669Y-88978459D01*
X138379293Y-89174435D01*
X138379108Y-89386634D01*
X138460142Y-89582752D01*
X138480800Y-89603446D01*
X138480800Y-92452943D01*
X138402610Y-92531133D01*
X138374166Y-92531108D01*
X138178048Y-92612142D01*
X138027869Y-92762059D01*
X137946493Y-92958035D01*
X137946308Y-93170234D01*
X138027342Y-93366352D01*
X138177259Y-93516531D01*
X138373235Y-93597907D01*
X138585434Y-93598092D01*
X138781552Y-93517058D01*
X138931731Y-93367141D01*
X139013107Y-93171165D01*
X139013132Y-93141925D01*
X139217926Y-92937131D01*
X139217929Y-92937129D01*
X139280472Y-92843526D01*
X139311532Y-92797042D01*
X139344401Y-92631800D01*
X139344400Y-92631795D01*
X139344400Y-89603637D01*
X139364531Y-89583541D01*
X139425898Y-89435752D01*
X139476142Y-89557352D01*
X139496800Y-89578046D01*
X139496800Y-93877343D01*
X138327409Y-95046733D01*
X138298966Y-95046708D01*
X138102848Y-95127742D01*
X137952669Y-95277659D01*
X137871293Y-95473635D01*
X137871108Y-95685834D01*
X128961000Y-95685834D01*
X128961000Y-94887237D01*
X128981131Y-94867141D01*
X129062507Y-94671165D01*
X129062532Y-94641925D01*
X131041223Y-92663234D01*
X131952908Y-92663234D01*
X132033942Y-92859352D01*
X132183859Y-93009531D01*
X132379835Y-93090907D01*
X132592034Y-93091092D01*
X132788152Y-93010058D01*
X132938331Y-92860141D01*
X133019707Y-92664165D01*
X133019892Y-92451966D01*
X132996035Y-92394227D01*
X132996035Y-87168902D01*
X133016166Y-87148806D01*
X133097542Y-86952830D01*
X133097727Y-86740631D01*
X133016693Y-86544513D01*
X132866776Y-86394334D01*
X132670800Y-86312958D01*
X132458601Y-86312773D01*
X132262483Y-86393807D01*
X132112304Y-86543724D01*
X132030928Y-86739700D01*
X132030743Y-86951899D01*
X132111777Y-87148017D01*
X132132435Y-87168711D01*
X132132435Y-92157264D01*
X132034469Y-92255059D01*
X131953093Y-92451035D01*
X131952908Y-92663234D01*
X131041223Y-92663234D01*
X131066161Y-92638296D01*
X131066164Y-92638294D01*
X131159766Y-92498208D01*
X131192635Y-92332965D01*
X131192635Y-89451237D01*
X131212766Y-89431141D01*
X131294142Y-89235165D01*
X131294327Y-89022966D01*
X131213293Y-88826848D01*
X131192635Y-88806154D01*
X131192635Y-88311902D01*
X131212766Y-88291806D01*
X131294142Y-88095830D01*
X131294327Y-87883631D01*
X131213293Y-87687513D01*
X131192635Y-87666819D01*
X131192635Y-84403623D01*
X132157191Y-83439067D01*
X132185634Y-83439092D01*
X132381752Y-83358058D01*
X132402446Y-83337400D01*
X141570059Y-83337400D01*
X141561669Y-83349957D01*
X141528800Y-83515200D01*
X141528800Y-85427763D01*
X141508669Y-85447859D01*
X141427293Y-85643835D01*
X141427268Y-85673074D01*
X140025477Y-87074865D01*
X137281072Y-87074865D01*
X137260976Y-87054734D01*
X137065000Y-86973358D01*
X136852801Y-86973173D01*
X136656683Y-87054207D01*
X136506504Y-87204124D01*
X136425128Y-87400100D01*
X136424943Y-87612299D01*
X136505977Y-87808417D01*
X136526635Y-87829111D01*
X136526635Y-89388531D01*
X136504869Y-89410259D01*
X136423493Y-89606235D01*
X136423308Y-89818434D01*
X136504342Y-90014552D01*
X136654259Y-90164731D01*
X136850235Y-90246107D01*
X137062434Y-90246292D01*
X137258552Y-90165258D01*
X137408731Y-90015341D01*
X137490107Y-89819365D01*
X137490292Y-89607166D01*
X137409258Y-89411048D01*
X137390235Y-89391992D01*
X137390235Y-87938465D01*
X140204335Y-87938465D01*
X140369578Y-87905596D01*
X140509664Y-87811994D01*
X142037791Y-86283867D01*
X142066234Y-86283892D01*
X142262352Y-86202858D01*
X142412531Y-86052941D01*
X142443201Y-85979079D01*
X142443201Y-86917741D01*
X142340609Y-87020333D01*
X142312166Y-87020308D01*
X142116048Y-87101342D01*
X141965869Y-87251259D01*
X141884493Y-87447235D01*
X141884308Y-87659434D01*
X141965342Y-87855552D01*
X142115259Y-88005731D01*
X142311235Y-88087107D01*
X142523434Y-88087292D01*
X142719552Y-88006258D01*
X142869731Y-87856341D01*
X142951107Y-87660365D01*
X142951132Y-87631126D01*
X143180330Y-87401928D01*
X143186687Y-87392414D01*
X143273932Y-87261842D01*
X143306801Y-87096599D01*
X143306801Y-84759800D01*
X145141508Y-84759800D01*
X145223970Y-85174365D01*
X145458802Y-85525816D01*
X145810253Y-85760648D01*
X146224818Y-85843110D01*
X147805582Y-85843110D01*
X148220147Y-85760648D01*
X148571598Y-85525816D01*
X148806430Y-85174365D01*
X148888892Y-84759800D01*
X148806430Y-84345235D01*
X148571598Y-83993784D01*
X148220147Y-83758952D01*
X147805582Y-83676490D01*
X146224818Y-83676490D01*
X145810253Y-83758952D01*
X145458802Y-83993784D01*
X145223970Y-84345235D01*
X145141508Y-84759800D01*
X143306801Y-84759800D01*
X143306801Y-83641458D01*
X143306802Y-83641453D01*
X143273932Y-83476211D01*
X143273932Y-83476210D01*
X143268737Y-83468434D01*
X148818508Y-83468434D01*
X148899542Y-83664552D01*
X148920200Y-83685246D01*
X148920200Y-85630963D01*
X148900069Y-85651059D01*
X148818693Y-85847035D01*
X148818508Y-86059234D01*
X148899542Y-86255352D01*
X149049459Y-86405531D01*
X149245435Y-86486907D01*
X149457634Y-86487092D01*
X149653752Y-86406058D01*
X149803931Y-86256141D01*
X149885307Y-86060165D01*
X149885492Y-85847966D01*
X149804458Y-85651848D01*
X149783800Y-85631154D01*
X149783800Y-83685437D01*
X149803931Y-83665341D01*
X149885307Y-83469365D01*
X149885492Y-83257166D01*
X149804458Y-83061048D01*
X149654541Y-82910869D01*
X149458565Y-82829493D01*
X149246366Y-82829308D01*
X149050248Y-82910342D01*
X148900069Y-83060259D01*
X148818693Y-83256235D01*
X148818508Y-83468434D01*
X143268737Y-83468434D01*
X143180330Y-83336124D01*
X143108730Y-83264524D01*
X143205089Y-83032463D01*
X143205310Y-82779845D01*
X143108840Y-82546372D01*
X142930368Y-82367587D01*
X142697063Y-82270711D01*
X142444445Y-82270490D01*
X142210972Y-82366960D01*
X142103945Y-82473800D01*
X132511800Y-82473800D01*
X132511800Y-75919605D01*
X132690689Y-75845689D01*
X132994622Y-75542286D01*
X133159313Y-75145668D01*
X133159314Y-75143784D01*
X133540313Y-75143784D01*
X133704311Y-75540689D01*
X134007714Y-75844622D01*
X134404332Y-76009313D01*
X134833784Y-76009687D01*
X135230689Y-75845689D01*
X135534622Y-75542286D01*
X135699313Y-75145668D01*
X135699687Y-74716216D01*
X135535689Y-74319311D01*
X135232286Y-74015378D01*
X134835668Y-73850687D01*
X134406216Y-73850313D01*
X134009311Y-74014311D01*
X133705378Y-74317714D01*
X133540687Y-74714332D01*
X133540313Y-75143784D01*
X133159314Y-75143784D01*
X133159687Y-74716216D01*
X132995689Y-74319311D01*
X132692286Y-74015378D01*
X132295668Y-73850687D01*
X131866216Y-73850313D01*
X131469311Y-74014311D01*
X131165378Y-74317714D01*
X131000687Y-74714332D01*
X131000313Y-75143784D01*
X131164311Y-75540689D01*
X131467714Y-75844622D01*
X131648200Y-75919567D01*
X131648200Y-82582963D01*
X131628069Y-82603059D01*
X131546693Y-82799035D01*
X131546668Y-82828274D01*
X130455506Y-83919436D01*
X130361904Y-84059522D01*
X130329035Y-84224765D01*
X130329035Y-87666628D01*
X130308904Y-87686724D01*
X130227528Y-87882700D01*
X130227343Y-88094899D01*
X130308377Y-88291017D01*
X130329035Y-88311711D01*
X130329035Y-88805963D01*
X130308904Y-88826059D01*
X130227528Y-89022035D01*
X130227343Y-89234234D01*
X130308377Y-89430352D01*
X130329035Y-89451046D01*
X130329035Y-92154108D01*
X128501400Y-93981743D01*
X126674892Y-92155234D01*
X128371508Y-92155234D01*
X128452542Y-92351352D01*
X128602459Y-92501531D01*
X128798435Y-92582907D01*
X129010634Y-92583092D01*
X129206752Y-92502058D01*
X129356931Y-92352141D01*
X129438307Y-92156165D01*
X129438332Y-92126925D01*
X129794526Y-91770731D01*
X129794529Y-91770729D01*
X129888131Y-91630643D01*
X129888132Y-91630642D01*
X129921001Y-91465400D01*
X129921000Y-91465395D01*
X129921000Y-85844437D01*
X129941131Y-85824341D01*
X130022507Y-85628365D01*
X130022692Y-85416166D01*
X129941658Y-85220048D01*
X129791741Y-85069869D01*
X129595765Y-84988493D01*
X129383566Y-84988308D01*
X129187448Y-85069342D01*
X129037269Y-85219259D01*
X128955893Y-85415235D01*
X128955708Y-85627434D01*
X129036742Y-85823552D01*
X129057400Y-85844246D01*
X129057400Y-91286543D01*
X128827810Y-91516133D01*
X128799366Y-91516108D01*
X128603248Y-91597142D01*
X128453069Y-91747059D01*
X128371693Y-91943035D01*
X128371508Y-92155234D01*
X126674892Y-92155234D01*
X125313861Y-90794203D01*
X125318605Y-90792243D01*
X125452859Y-90926731D01*
X125648835Y-91008107D01*
X125861034Y-91008292D01*
X126057152Y-90927258D01*
X126152085Y-90832491D01*
X126191942Y-90928952D01*
X126341859Y-91079131D01*
X126537835Y-91160507D01*
X126750034Y-91160692D01*
X126946152Y-91079658D01*
X127096331Y-90929741D01*
X127177707Y-90733765D01*
X127177892Y-90521566D01*
X127096858Y-90325448D01*
X127050799Y-90279309D01*
X127050799Y-89392801D01*
X127305329Y-89138271D01*
X127365178Y-89048700D01*
X127398931Y-88998185D01*
X127416748Y-88908614D01*
X127431801Y-88832942D01*
X127431800Y-88832937D01*
X127431800Y-75919605D01*
X127610689Y-75845689D01*
X127914622Y-75542286D01*
X128079313Y-75145668D01*
X128079314Y-75143784D01*
X128460313Y-75143784D01*
X128624311Y-75540689D01*
X128927714Y-75844622D01*
X129324332Y-76009313D01*
X129753784Y-76009687D01*
X130150689Y-75845689D01*
X130454622Y-75542286D01*
X130619313Y-75145668D01*
X130619687Y-74716216D01*
X130455689Y-74319311D01*
X130152286Y-74015378D01*
X129755668Y-73850687D01*
X129326216Y-73850313D01*
X128929311Y-74014311D01*
X128625378Y-74317714D01*
X128460687Y-74714332D01*
X128460313Y-75143784D01*
X128079314Y-75143784D01*
X128079687Y-74716216D01*
X127915689Y-74319311D01*
X127612286Y-74015378D01*
X127215668Y-73850687D01*
X126786216Y-73850313D01*
X126389311Y-74014311D01*
X126187200Y-74216070D01*
X126187200Y-73813458D01*
X126605573Y-73395085D01*
X126784332Y-73469313D01*
X127213784Y-73469687D01*
X127610689Y-73305689D01*
X127914622Y-73002286D01*
X128079313Y-72605668D01*
X128079314Y-72603784D01*
X128460313Y-72603784D01*
X128624311Y-73000689D01*
X128927714Y-73304622D01*
X129324332Y-73469313D01*
X129753784Y-73469687D01*
X130150689Y-73305689D01*
X130454622Y-73002286D01*
X130619313Y-72605668D01*
X130619314Y-72603784D01*
X131000313Y-72603784D01*
X131164311Y-73000689D01*
X131467714Y-73304622D01*
X131864332Y-73469313D01*
X132293784Y-73469687D01*
X132690689Y-73305689D01*
X132994622Y-73002286D01*
X133130212Y-72675750D01*
X133235700Y-72675750D01*
X133235700Y-73265610D01*
X133332373Y-73498999D01*
X133511002Y-73677627D01*
X133744391Y-73774300D01*
X134334250Y-73774300D01*
X134493000Y-73615550D01*
X134493000Y-72517000D01*
X134747000Y-72517000D01*
X134747000Y-73615550D01*
X134905750Y-73774300D01*
X135495609Y-73774300D01*
X135728998Y-73677627D01*
X135907627Y-73498999D01*
X136004300Y-73265610D01*
X136004300Y-72777326D01*
X145998862Y-72777326D01*
X146295987Y-73496424D01*
X146845682Y-74047079D01*
X147564261Y-74345459D01*
X148342326Y-74346138D01*
X149061424Y-74049013D01*
X149612079Y-73499318D01*
X149910459Y-72780739D01*
X149911138Y-72002674D01*
X149614013Y-71283576D01*
X149064318Y-70732921D01*
X148345739Y-70434541D01*
X147567674Y-70433862D01*
X146848576Y-70730987D01*
X146297921Y-71280682D01*
X145999541Y-71999261D01*
X145998862Y-72777326D01*
X136004300Y-72777326D01*
X136004300Y-72675750D01*
X135845550Y-72517000D01*
X134747000Y-72517000D01*
X134493000Y-72517000D01*
X133394450Y-72517000D01*
X133235700Y-72675750D01*
X133130212Y-72675750D01*
X133159313Y-72605668D01*
X133159687Y-72176216D01*
X132995689Y-71779311D01*
X132731230Y-71514390D01*
X133235700Y-71514390D01*
X133235700Y-72104250D01*
X133394450Y-72263000D01*
X134493000Y-72263000D01*
X134493000Y-71164450D01*
X134747000Y-71164450D01*
X134747000Y-72263000D01*
X135845550Y-72263000D01*
X136004300Y-72104250D01*
X136004300Y-71514390D01*
X135907627Y-71281001D01*
X135728998Y-71102373D01*
X135495609Y-71005700D01*
X134905750Y-71005700D01*
X134747000Y-71164450D01*
X134493000Y-71164450D01*
X134334250Y-71005700D01*
X133744391Y-71005700D01*
X133511002Y-71102373D01*
X133332373Y-71281001D01*
X133235700Y-71514390D01*
X132731230Y-71514390D01*
X132692286Y-71475378D01*
X132295668Y-71310687D01*
X131866216Y-71310313D01*
X131469311Y-71474311D01*
X131165378Y-71777714D01*
X131000687Y-72174332D01*
X131000313Y-72603784D01*
X130619314Y-72603784D01*
X130619687Y-72176216D01*
X130455689Y-71779311D01*
X130152286Y-71475378D01*
X129755668Y-71310687D01*
X129326216Y-71310313D01*
X128929311Y-71474311D01*
X128625378Y-71777714D01*
X128460687Y-72174332D01*
X128460313Y-72603784D01*
X128079314Y-72603784D01*
X128079687Y-72176216D01*
X127915689Y-71779311D01*
X127612286Y-71475378D01*
X127215668Y-71310687D01*
X126786216Y-71310313D01*
X126389311Y-71474311D01*
X126085378Y-71777714D01*
X125920687Y-72174332D01*
X125920313Y-72603784D01*
X125994942Y-72784400D01*
X125450071Y-73329271D01*
X125356469Y-73469357D01*
X125323600Y-73634600D01*
X125323600Y-74267131D01*
X125072286Y-74015378D01*
X124675668Y-73850687D01*
X124246216Y-73850313D01*
X123849311Y-74014311D01*
X123545378Y-74317714D01*
X123380687Y-74714332D01*
X123380313Y-75143784D01*
X123544311Y-75540689D01*
X123847714Y-75844622D01*
X124028200Y-75919567D01*
X124028200Y-89636600D01*
X124061069Y-89801843D01*
X124143474Y-89925171D01*
X124031248Y-89971542D01*
X124010554Y-89992200D01*
X122141037Y-89992200D01*
X122120941Y-89972069D01*
X121924965Y-89890693D01*
X121712766Y-89890508D01*
X121516648Y-89971542D01*
X121495954Y-89992200D01*
X120701858Y-89992200D01*
X119862667Y-89153009D01*
X119862692Y-89124566D01*
X119781658Y-88928448D01*
X119631741Y-88778269D01*
X119435765Y-88696893D01*
X119223566Y-88696708D01*
X119027448Y-88777742D01*
X118877269Y-88927659D01*
X118795893Y-89123635D01*
X118795708Y-89335834D01*
X118876742Y-89531952D01*
X119026659Y-89682131D01*
X119222635Y-89763507D01*
X119251874Y-89763532D01*
X120217671Y-90729329D01*
X120357757Y-90822931D01*
X120458560Y-90842982D01*
X119810742Y-91490800D01*
X111607600Y-91490800D01*
X111442357Y-91523669D01*
X111302271Y-91617271D01*
X111225609Y-91693933D01*
X111197166Y-91693908D01*
X111001048Y-91774942D01*
X110850869Y-91924859D01*
X110769493Y-92120835D01*
X110769308Y-92333034D01*
X110850342Y-92529152D01*
X111000259Y-92679331D01*
X111196235Y-92760707D01*
X111408434Y-92760892D01*
X111604552Y-92679858D01*
X111754731Y-92529941D01*
X111827622Y-92354400D01*
X118947142Y-92354400D01*
X118363471Y-92938071D01*
X118269869Y-93078157D01*
X118237000Y-93243400D01*
X118237000Y-95232163D01*
X118216869Y-95252259D01*
X118135493Y-95448235D01*
X118135383Y-95574038D01*
X117986048Y-95635742D01*
X117835869Y-95785659D01*
X117754493Y-95981635D01*
X117754468Y-96010875D01*
X117575542Y-96189800D01*
X106667116Y-96189800D01*
X106975251Y-95882202D01*
X107206786Y-95324604D01*
X107207313Y-94720845D01*
X106976752Y-94162843D01*
X106550202Y-93735549D01*
X105992604Y-93504014D01*
X105388845Y-93503487D01*
X104830843Y-93734048D01*
X104403549Y-94160598D01*
X104172014Y-94718196D01*
X104171487Y-95321955D01*
X104402048Y-95879957D01*
X104711352Y-96189800D01*
X101744748Y-96189800D01*
X101673941Y-96118869D01*
X101662804Y-96114244D01*
X101895251Y-95882202D01*
X102126786Y-95324604D01*
X102127313Y-94720845D01*
X101896752Y-94162843D01*
X101470202Y-93735549D01*
X100912604Y-93504014D01*
X100308845Y-93503487D01*
X99750843Y-93734048D01*
X99323549Y-94160598D01*
X99092014Y-94718196D01*
X99091487Y-95321955D01*
X93369200Y-95321955D01*
X93369200Y-93282397D01*
X101295055Y-93282397D01*
X101422395Y-93590582D01*
X101657978Y-93826577D01*
X101965940Y-93954454D01*
X102299397Y-93954745D01*
X102607582Y-93827405D01*
X102843577Y-93591822D01*
X102971454Y-93283860D01*
X102971455Y-93282397D01*
X103327055Y-93282397D01*
X103454395Y-93590582D01*
X103689978Y-93826577D01*
X103997940Y-93954454D01*
X104331397Y-93954745D01*
X104639582Y-93827405D01*
X104875577Y-93591822D01*
X105003454Y-93283860D01*
X105003745Y-92950403D01*
X104876405Y-92642218D01*
X104640822Y-92406223D01*
X104332860Y-92278346D01*
X103999403Y-92278055D01*
X103691218Y-92405395D01*
X103455223Y-92640978D01*
X103327346Y-92948940D01*
X103327055Y-93282397D01*
X102971455Y-93282397D01*
X102971745Y-92950403D01*
X102844405Y-92642218D01*
X102608822Y-92406223D01*
X102300860Y-92278346D01*
X101967403Y-92278055D01*
X101659218Y-92405395D01*
X101423223Y-92640978D01*
X101295346Y-92948940D01*
X101295055Y-93282397D01*
X93369200Y-93282397D01*
X93369200Y-87400200D01*
X95885000Y-87400200D01*
X95924143Y-87392414D01*
X95964051Y-87392414D01*
X98394090Y-86909049D01*
X98394091Y-86909049D01*
X98454593Y-86883988D01*
X98540156Y-86848547D01*
X98540157Y-86848546D01*
X100600245Y-85472039D01*
X100712039Y-85360245D01*
X102088547Y-83300157D01*
X102149049Y-83154091D01*
X102149049Y-83154090D01*
X102632414Y-80724051D01*
X102632414Y-80684143D01*
X102640200Y-80645000D01*
X102640200Y-75901010D01*
X118588595Y-75901010D01*
X118656499Y-76141880D01*
X119175339Y-76326503D01*
X119725336Y-76298521D01*
X120103501Y-76141880D01*
X120171405Y-75901010D01*
X119380000Y-75109605D01*
X118588595Y-75901010D01*
X102640200Y-75901010D01*
X102640200Y-74725339D01*
X117983497Y-74725339D01*
X118011479Y-75275336D01*
X118168120Y-75653501D01*
X118408990Y-75721405D01*
X119200395Y-74930000D01*
X119559605Y-74930000D01*
X120351010Y-75721405D01*
X120591880Y-75653501D01*
X120773256Y-75143784D01*
X120840313Y-75143784D01*
X121004311Y-75540689D01*
X121307714Y-75844622D01*
X121704332Y-76009313D01*
X122133784Y-76009687D01*
X122530689Y-75845689D01*
X122834622Y-75542286D01*
X122999313Y-75145668D01*
X122999687Y-74716216D01*
X122835689Y-74319311D01*
X122532286Y-74015378D01*
X122135668Y-73850687D01*
X121706216Y-73850313D01*
X121309311Y-74014311D01*
X121005378Y-74317714D01*
X120840687Y-74714332D01*
X120840313Y-75143784D01*
X120773256Y-75143784D01*
X120776503Y-75134661D01*
X120748521Y-74584664D01*
X120591880Y-74206499D01*
X120351010Y-74138595D01*
X119559605Y-74930000D01*
X119200395Y-74930000D01*
X118408990Y-74138595D01*
X118168120Y-74206499D01*
X117983497Y-74725339D01*
X102640200Y-74725339D01*
X102640200Y-72777326D01*
X104088862Y-72777326D01*
X104385987Y-73496424D01*
X104935682Y-74047079D01*
X105654261Y-74345459D01*
X106432326Y-74346138D01*
X107151424Y-74049013D01*
X107241604Y-73958990D01*
X118588595Y-73958990D01*
X119380000Y-74750395D01*
X120171405Y-73958990D01*
X120103501Y-73718120D01*
X119584661Y-73533497D01*
X119034664Y-73561479D01*
X118656499Y-73718120D01*
X118588595Y-73958990D01*
X107241604Y-73958990D01*
X107702079Y-73499318D01*
X108000459Y-72780739D01*
X108000613Y-72603784D01*
X118300313Y-72603784D01*
X118464311Y-73000689D01*
X118767714Y-73304622D01*
X119164332Y-73469313D01*
X119593784Y-73469687D01*
X119990689Y-73305689D01*
X120294622Y-73002286D01*
X120459313Y-72605668D01*
X120459314Y-72603784D01*
X120840313Y-72603784D01*
X121004311Y-73000689D01*
X121307714Y-73304622D01*
X121704332Y-73469313D01*
X122133784Y-73469687D01*
X122530689Y-73305689D01*
X122834622Y-73002286D01*
X122999313Y-72605668D01*
X122999314Y-72603784D01*
X123380313Y-72603784D01*
X123544311Y-73000689D01*
X123847714Y-73304622D01*
X124244332Y-73469313D01*
X124673784Y-73469687D01*
X125070689Y-73305689D01*
X125374622Y-73002286D01*
X125539313Y-72605668D01*
X125539687Y-72176216D01*
X125375689Y-71779311D01*
X125072286Y-71475378D01*
X124675668Y-71310687D01*
X124246216Y-71310313D01*
X123849311Y-71474311D01*
X123545378Y-71777714D01*
X123380687Y-72174332D01*
X123380313Y-72603784D01*
X122999314Y-72603784D01*
X122999687Y-72176216D01*
X122835689Y-71779311D01*
X122532286Y-71475378D01*
X122135668Y-71310687D01*
X121706216Y-71310313D01*
X121309311Y-71474311D01*
X121005378Y-71777714D01*
X120840687Y-72174332D01*
X120840313Y-72603784D01*
X120459314Y-72603784D01*
X120459687Y-72176216D01*
X120295689Y-71779311D01*
X119992286Y-71475378D01*
X119595668Y-71310687D01*
X119166216Y-71310313D01*
X118769311Y-71474311D01*
X118465378Y-71777714D01*
X118300687Y-72174332D01*
X118300313Y-72603784D01*
X108000613Y-72603784D01*
X108001138Y-72002674D01*
X107704013Y-71283576D01*
X107154318Y-70732921D01*
X106435739Y-70434541D01*
X105657674Y-70433862D01*
X104938576Y-70730987D01*
X104387921Y-71280682D01*
X104089541Y-71999261D01*
X104088862Y-72777326D01*
X102640200Y-72777326D01*
X102640200Y-68985200D01*
X151359800Y-68985200D01*
X151359800Y-80645000D01*
G36*
X115448291Y-99206051D02*
X106826142Y-99206051D01*
X106975251Y-99057202D01*
X107206786Y-98499604D01*
X107207313Y-97895845D01*
X106976752Y-97337843D01*
X106692804Y-97053400D01*
X117600942Y-97053400D01*
X115448291Y-99206051D01*
X115448291Y-99206051D01*
G37*
X115448291Y-99206051D02*
X106826142Y-99206051D01*
X106975251Y-99057202D01*
X107206786Y-98499604D01*
X107207313Y-97895845D01*
X106976752Y-97337843D01*
X106692804Y-97053400D01*
X117600942Y-97053400D01*
X115448291Y-99206051D01*
G36*
X125323600Y-89803819D02*
X125226965Y-89763693D01*
X125197725Y-89763668D01*
X124891800Y-89457742D01*
X124891800Y-75919605D01*
X125070689Y-75845689D01*
X125323600Y-75593219D01*
X125323600Y-89803819D01*
X125323600Y-89803819D01*
G37*
X125323600Y-89803819D02*
X125226965Y-89763693D01*
X125197725Y-89763668D01*
X124891800Y-89457742D01*
X124891800Y-75919605D01*
X125070689Y-75845689D01*
X125323600Y-75593219D01*
X125323600Y-89803819D01*
G36*
X126387714Y-75844622D02*
X126568200Y-75919567D01*
X126568200Y-82520260D01*
X126395365Y-82448493D01*
X126187200Y-82448312D01*
X126187200Y-75643758D01*
X126387714Y-75844622D01*
X126387714Y-75844622D01*
G37*
X126387714Y-75844622D02*
X126568200Y-75919567D01*
X126568200Y-82520260D01*
X126395365Y-82448493D01*
X126187200Y-82448312D01*
X126187200Y-75643758D01*
X126387714Y-75844622D01*
M02*
