M48
;DRILL file {KiCad 4.0.4-stable} date 10/06/16 01:12:28
;FORMAT={2:4/ absolute / inch / suppress trailing zeros}
FMAT,2
INCH,LZ
T1C0.008
T2C0.016
T3C0.039
T4C0.039
T5C0.040
T6C0.093
T7C0.128
%
G90
G05
M72
T1
X03991Y-03802
X04028Y-0392
X04101Y-03997
X04183Y-0364
X04309Y-03868
X04382Y-03631
X0443Y-03992
X04478Y-03866
X04512Y-03639
X04525Y-03992
X04597Y-03738
X04652Y-0388
X04657Y-03783
X04672Y-03762
X04673Y-03802
X04698Y-03513
X04737Y-03513
X047697Y-036568
X047697Y-037075
X047697Y-037582
X047697Y-038089
X04796Y-0356
X048204Y-036568
X048204Y-037075
X048204Y-037582
X048204Y-038089
X04822Y-03174
X0486Y-03245
X04862Y-03051
X048711Y-036568
X048711Y-037075
X048711Y-037582
X048711Y-038089
X04895Y-0356
X049218Y-036568
X049218Y-037075
X049218Y-037582
X049218Y-038089
X04926Y-03555
X04927Y-03178
X04951Y-03562
X04956Y-03962
X0496Y-04047
X04972Y-03267
X049721Y-033191
X04975Y-0313
X04986Y-03568
X05003Y-03521
X05028Y-03767
X05034Y-03074
X05047Y-04036
X050574Y-038018
X050602Y-03723
X05075Y-03624
X05098Y-03367
X05135Y-0319
X05137Y-03094
X051481Y-034641
X051481Y-03509
X05152Y-03966
X05173Y-03762
X051891Y-034191
X052Y-03264
X05216Y-03644
X052191Y-034191
X05381Y-03764
X05392Y-03532
X053921Y-034451
X053931Y-034071
X05399Y-03578
X05449Y-03763
X05452Y-03664
X05469Y-03515
X05509Y-03514
X05517Y-03156
X0553Y-03539
X05539Y-03807
X05548Y-03515
X05589Y-03376
X05592Y-03758
X05607Y-03405
X05607Y-03447
X05648Y-03703
X05665Y-03583
T2
X05613Y-03264
T3
X047Y-0285
X047Y-0295
X048Y-0285
X048Y-0295
X049Y-0285
X049Y-0295
X05Y-0285
X05Y-0295
X051Y-0285
X051Y-0295
X052Y-0285
X052Y-0295
X053Y-0285
X053Y-0295
T4
X05788Y-03337
X05788Y-03437
X05788Y-03537
X05788Y-03715
X05788Y-03815
X05788Y-03915
X05788Y-04015
X05788Y-04115
X05788Y-04215
T5
X04021Y-03666
X04061Y-03866
X04101Y-03666
T6
X03961Y-03741
X03961Y-03866
X04161Y-03741
X04161Y-03866
T7
X04175Y-0285
X04175Y-0515
X05825Y-0285
X05825Y-0515
T0
M30
