G04 #@! TF.FileFunction,Paste,Top*
%FSLAX46Y46*%
G04 Gerber Fmt 4.6, Leading zero omitted, Abs format (unit mm)*
G04 Created by KiCad (PCBNEW (2016-07-14 BZR 6979)-product) date Monday, September 04, 2017 'PMt' 06:11:31 PM*
%MOMM*%
%LPD*%
G01*
G04 APERTURE LIST*
%ADD10C,0.100000*%
%ADD11R,0.400000X0.600000*%
%ADD12R,0.600000X0.400000*%
%ADD13R,3.000000X1.400000*%
%ADD14R,1.250000X1.500000*%
%ADD15R,1.500000X1.250000*%
%ADD16R,0.500000X0.600000*%
%ADD17R,0.600000X0.500000*%
%ADD18R,2.500000X0.750000*%
%ADD19R,0.250000X0.600000*%
%ADD20O,0.250000X0.600000*%
%ADD21R,0.300000X1.500000*%
%ADD22R,0.700000X0.250000*%
%ADD23R,0.250000X0.700000*%
%ADD24R,0.772500X0.772500*%
%ADD25R,0.800000X0.250000*%
%ADD26R,0.650000X0.250000*%
%ADD27R,0.450000X0.850000*%
%ADD28R,2.500000X1.600000*%
%ADD29R,1.000000X0.950000*%
%ADD30R,0.800000X0.600000*%
%ADD31C,0.787400*%
%ADD32R,0.750000X1.200000*%
%ADD33R,0.800000X0.750000*%
%ADD34R,0.550000X0.400000*%
%ADD35R,0.400000X0.550000*%
%ADD36R,1.000000X1.900000*%
%ADD37R,0.750000X0.800000*%
G04 APERTURE END LIST*
D10*
D11*
X110940000Y-91948000D03*
X110040000Y-91948000D03*
D12*
X111760000Y-88508000D03*
X111760000Y-89408000D03*
D13*
X113030000Y-96704000D03*
X113030000Y-94304000D03*
D12*
X121920000Y-84778000D03*
X121920000Y-83878000D03*
X119888000Y-84778000D03*
X119888000Y-83878000D03*
D14*
X134620000Y-80080800D03*
X134620000Y-82580800D03*
D15*
X146400200Y-81203800D03*
X148900200Y-81203800D03*
D16*
X122428000Y-88180000D03*
X122428000Y-87080000D03*
D17*
X129040800Y-95529400D03*
X130140800Y-95529400D03*
X117186800Y-87960200D03*
X116086800Y-87960200D03*
D16*
X118160800Y-99576800D03*
X118160800Y-100676800D03*
D17*
X123351200Y-100431600D03*
X124451200Y-100431600D03*
D16*
X113461800Y-91431200D03*
X113461800Y-90331200D03*
X116332000Y-94192000D03*
X116332000Y-95292000D03*
D17*
X130768000Y-90220800D03*
X131868000Y-90220800D03*
D16*
X128574800Y-82998400D03*
X128574800Y-81898400D03*
D18*
X142570200Y-81209600D03*
X142570200Y-78759600D03*
D19*
X137752200Y-81432400D03*
D20*
X138252200Y-81432400D03*
D21*
X137902200Y-80082400D03*
X138502200Y-80082400D03*
X139102200Y-80082400D03*
D20*
X138752200Y-81432400D03*
X139252200Y-81432400D03*
D22*
X119681600Y-92064600D03*
X119681600Y-92564600D03*
X119681600Y-93064600D03*
X119681600Y-93564600D03*
X119681600Y-94064600D03*
X119681600Y-94564600D03*
X119681600Y-95064600D03*
X119681600Y-95564600D03*
X119681600Y-96064600D03*
X119681600Y-96564600D03*
X119681600Y-97064600D03*
X119681600Y-97564600D03*
D23*
X120331600Y-98214600D03*
X120831600Y-98214600D03*
X121331600Y-98214600D03*
X121831600Y-98214600D03*
X122331600Y-98214600D03*
X122831600Y-98214600D03*
X123331600Y-98214600D03*
X123831600Y-98214600D03*
X124331600Y-98214600D03*
X124831600Y-98214600D03*
X125331600Y-98214600D03*
X125831600Y-98214600D03*
D22*
X126481600Y-97564600D03*
X126481600Y-97064600D03*
X126481600Y-96564600D03*
X126481600Y-96064600D03*
X126481600Y-95564600D03*
X126481600Y-95064600D03*
X126481600Y-94564600D03*
X126481600Y-94064600D03*
X126481600Y-93564600D03*
X126481600Y-93064600D03*
X126481600Y-92564600D03*
X126481600Y-92064600D03*
D23*
X125831600Y-91414600D03*
X125331600Y-91414600D03*
X124831600Y-91414600D03*
X124331600Y-91414600D03*
X123831600Y-91414600D03*
X123331600Y-91414600D03*
X122831600Y-91414600D03*
X122331600Y-91414600D03*
X121831600Y-91414600D03*
X121331600Y-91414600D03*
X120831600Y-91414600D03*
X120331600Y-91414600D03*
D24*
X125012850Y-96745850D03*
X125012850Y-95458350D03*
X125012850Y-94170850D03*
X125012850Y-92883350D03*
X123725350Y-96745850D03*
X123725350Y-95458350D03*
X123725350Y-94170850D03*
X123725350Y-92883350D03*
X122437850Y-96745850D03*
X122437850Y-95458350D03*
X122437850Y-94170850D03*
X122437850Y-92883350D03*
X121150350Y-96745850D03*
X121150350Y-95458350D03*
X121150350Y-94170850D03*
X121150350Y-92883350D03*
D25*
X130751235Y-87320865D03*
D26*
X130826235Y-86820865D03*
X130826235Y-86320865D03*
X129476235Y-86320865D03*
X129476235Y-86820865D03*
X129476235Y-87320865D03*
D27*
X125290435Y-88294065D03*
X126290435Y-88294065D03*
X127290435Y-88294065D03*
X127290435Y-85394065D03*
X126290435Y-85394065D03*
X125290435Y-85394065D03*
D28*
X126290435Y-86844065D03*
D29*
X117180800Y-89852200D03*
X115330800Y-89852200D03*
X115330800Y-91402200D03*
X117180800Y-91402200D03*
D30*
X116713000Y-105398200D03*
X116713000Y-107098200D03*
X119303800Y-105372800D03*
X119303800Y-107072800D03*
X121945400Y-105372800D03*
X121945400Y-107072800D03*
D12*
X116713000Y-109582800D03*
X116713000Y-110482800D03*
X119303800Y-109582800D03*
X119303800Y-110482800D03*
X121945400Y-109582800D03*
X121945400Y-110482800D03*
D11*
X152407200Y-88011000D03*
X153307200Y-88011000D03*
X153332600Y-90347800D03*
X152432600Y-90347800D03*
D31*
X103784400Y-96926400D03*
X103784400Y-95656400D03*
X103784400Y-94386400D03*
X102514400Y-94386400D03*
X102514400Y-95656400D03*
X102514400Y-96926400D03*
D32*
X124333000Y-102809000D03*
X124333000Y-104709000D03*
D33*
X147079400Y-120269000D03*
X145579400Y-120269000D03*
D17*
X147057200Y-117551200D03*
X145957200Y-117551200D03*
D12*
X102336600Y-101048400D03*
X102336600Y-101948400D03*
X97866200Y-97478000D03*
X97866200Y-96578000D03*
X140893800Y-115029400D03*
X140893800Y-114129400D03*
X143408400Y-115029400D03*
X143408400Y-114129400D03*
D34*
X147376400Y-114727000D03*
X147376400Y-114127000D03*
D35*
X147056400Y-113507000D03*
X146456400Y-113507000D03*
X145856400Y-113507000D03*
D34*
X145536400Y-114127000D03*
X145536400Y-114727000D03*
D35*
X145856400Y-115347000D03*
X146456400Y-115347000D03*
X147056400Y-115347000D03*
D16*
X104292400Y-89373800D03*
X104292400Y-88273800D03*
D12*
X109194600Y-88577000D03*
X109194600Y-89477000D03*
X106705400Y-89477000D03*
X106705400Y-88577000D03*
D36*
X110107200Y-84328000D03*
X106707200Y-84328000D03*
D17*
X111591000Y-112268000D03*
X112691000Y-112268000D03*
D37*
X109474000Y-94246000D03*
X109474000Y-95746000D03*
M02*
