G04 #@! TF.FileFunction,Copper,L2,Bot,Signal*
%FSLAX46Y46*%
G04 Gerber Fmt 4.6, Leading zero omitted, Abs format (unit mm)*
G04 Created by KiCad (PCBNEW (2016-07-14 BZR 6979)-product) date Monday, September 04, 2017 'PMt' 06:11:31 PM*
%MOMM*%
%LPD*%
G01*
G04 APERTURE LIST*
%ADD10C,0.100000*%
%ADD11R,1.498600X1.498600*%
%ADD12C,1.498600*%
%ADD13O,3.014980X1.506220*%
%ADD14C,6.451600*%
%ADD15C,1.158000*%
%ADD16R,1.510000X1.510000*%
%ADD17C,1.510000*%
%ADD18C,0.406400*%
%ADD19C,0.609600*%
%ADD20C,0.203200*%
%ADD21C,0.127000*%
G04 APERTURE END LIST*
D10*
D11*
X134620000Y-72390000D03*
D12*
X134620000Y-74930000D03*
X132080000Y-72390000D03*
X132080000Y-74930000D03*
X129540000Y-72390000D03*
X129540000Y-74930000D03*
X127000000Y-72390000D03*
X127000000Y-74930000D03*
X124460000Y-72390000D03*
X124460000Y-74930000D03*
X121920000Y-72390000D03*
X121920000Y-74930000D03*
X119380000Y-72390000D03*
X119380000Y-74930000D03*
D13*
X147015200Y-84759800D03*
X147015200Y-87299800D03*
X147015200Y-89839800D03*
X147015200Y-94361000D03*
X147015200Y-96901000D03*
X147015200Y-99441000D03*
X147015200Y-101981000D03*
X147015200Y-104521000D03*
X147015200Y-107061000D03*
D14*
X147955000Y-130810000D03*
X147955000Y-72390000D03*
X106045000Y-72390000D03*
X106045000Y-130810000D03*
D15*
X108422000Y-117729000D03*
X112014000Y-121321000D03*
X112014000Y-117729000D03*
D16*
X123190000Y-130810000D03*
D17*
X123190000Y-128270000D03*
X125730000Y-130810000D03*
X125730000Y-128270000D03*
X128270000Y-130810000D03*
X128270000Y-128270000D03*
X130810000Y-130810000D03*
X130810000Y-128270000D03*
D18*
X108458000Y-95758000D03*
X115316000Y-95250000D03*
X110490000Y-89916000D03*
X117348000Y-100584000D03*
X119126000Y-90932000D03*
X140893800Y-116992400D03*
X148285200Y-112903000D03*
X130479800Y-78587600D03*
X130429000Y-81026000D03*
X127076200Y-89433400D03*
X140131800Y-80162400D03*
X125012850Y-92883350D03*
X123725350Y-92883350D03*
X122437850Y-92883350D03*
X121150350Y-92883350D03*
X121150350Y-94170850D03*
X122437850Y-94170850D03*
X125012850Y-94170850D03*
X123725350Y-94170850D03*
X123725350Y-95458350D03*
X122437850Y-95458350D03*
X121150350Y-95458350D03*
X121150350Y-96745850D03*
X122437850Y-96745850D03*
X123725350Y-96745850D03*
X125012850Y-96745850D03*
X125012850Y-95458350D03*
X131802235Y-86846265D03*
X131394200Y-95554800D03*
X127711200Y-95681800D03*
X120142000Y-88900000D03*
X127762000Y-91186000D03*
X130810000Y-92710000D03*
X130810000Y-91440000D03*
X148844000Y-113538000D03*
X118618000Y-95564600D03*
X122428000Y-88900000D03*
X125415000Y-104709000D03*
X149352000Y-85953600D03*
X143459200Y-116230400D03*
X148640800Y-115341400D03*
X149352000Y-83362800D03*
X130760835Y-89128600D03*
X126288800Y-82981800D03*
X132080000Y-82905600D03*
X128529200Y-94564600D03*
X128458800Y-96564600D03*
D19*
X142570200Y-82905600D03*
D18*
X126290435Y-84306265D03*
X130760835Y-87989265D03*
X124333000Y-90424000D03*
X125755400Y-90474800D03*
X107518200Y-102514400D03*
X101371400Y-96570800D03*
X118287800Y-96088200D03*
X102311200Y-99568000D03*
X118694200Y-96570800D03*
X140462000Y-89890600D03*
X128905000Y-92049600D03*
X129489200Y-85521800D03*
X126644400Y-90627200D03*
X125120400Y-90297000D03*
X119681600Y-99060000D03*
X127254000Y-99060000D03*
X121331600Y-100838000D03*
X129794000Y-101092000D03*
X120650000Y-111760000D03*
X120650000Y-107594400D03*
X121831600Y-101854000D03*
X130302000Y-102362000D03*
X123444000Y-107619800D03*
X130302000Y-105918000D03*
X127762000Y-105918000D03*
X144678400Y-115366800D03*
X118618000Y-97536000D03*
X127508000Y-97790000D03*
X112039400Y-109118400D03*
D20*
X130429000Y-81026000D02*
X130429000Y-78638400D01*
X130429000Y-78638400D02*
X130479800Y-78587600D01*
X120374400Y-88900000D02*
X120142000Y-88900000D01*
X120142000Y-88900000D02*
X119380000Y-88900000D01*
X129987000Y-104709000D02*
X130759201Y-103936799D01*
X130759201Y-103936799D02*
X130759201Y-98865001D01*
X130759201Y-98865001D02*
X128661999Y-96767799D01*
X128661999Y-96767799D02*
X128458800Y-96564600D01*
X125415000Y-104709000D02*
X129987000Y-104709000D01*
X122428000Y-88900000D02*
X120374400Y-88900000D01*
X124333000Y-90424000D02*
X125095000Y-91186000D01*
X125095000Y-91186000D02*
X127762000Y-91186000D01*
X130810000Y-91440000D02*
X130810000Y-92710000D01*
X143459200Y-116230400D02*
X147751800Y-116230400D01*
X147751800Y-116230400D02*
X148640800Y-115341400D01*
X148844000Y-113538000D02*
X148844000Y-115138200D01*
X148844000Y-115138200D02*
X148640800Y-115341400D01*
X119380000Y-88900000D02*
X118668799Y-89611201D01*
X118668799Y-89611201D02*
X118668799Y-95513801D01*
X118668799Y-95513801D02*
X118618000Y-95564600D01*
X124333000Y-90424000D02*
X123952000Y-90424000D01*
X123952000Y-90424000D02*
X122428000Y-88900000D01*
X149352000Y-83362800D02*
X149352000Y-85953600D01*
X128473600Y-94564600D02*
X128529200Y-94564600D01*
X130760835Y-87989265D02*
X130760835Y-89128600D01*
X130760835Y-87989265D02*
X130760835Y-84224765D01*
X130760835Y-84224765D02*
X130793400Y-84192200D01*
X130793400Y-84192200D02*
X132080000Y-82905600D01*
X126288800Y-82981800D02*
X126288800Y-84304630D01*
X126288800Y-84304630D02*
X126290435Y-84306265D01*
X132080000Y-74930000D02*
X132080000Y-82905600D01*
X128529200Y-96494200D02*
X128458800Y-96564600D01*
X125755400Y-90474800D02*
X125755400Y-73634600D01*
X125755400Y-73634600D02*
X127000000Y-72390000D01*
X128270000Y-128270000D02*
X128270000Y-123266200D01*
X128270000Y-123266200D02*
X107518200Y-102514400D01*
X107594400Y-102514400D02*
X107518200Y-102514400D01*
X118287800Y-96088200D02*
X117754400Y-96621600D01*
X117754400Y-96621600D02*
X101422200Y-96621600D01*
X101422200Y-96621600D02*
X101371400Y-96570800D01*
X130810000Y-128270000D02*
X130810000Y-120827800D01*
X130810000Y-120827800D02*
X124790200Y-114808000D01*
X124790200Y-114808000D02*
X124790200Y-106121200D01*
X124790200Y-106121200D02*
X117398800Y-98729800D01*
X117398800Y-98729800D02*
X117398800Y-97866200D01*
X117398800Y-97866200D02*
X116967000Y-98298000D01*
X118694200Y-96570800D02*
X117398800Y-97866200D01*
X116967000Y-98298000D02*
X115627149Y-99637851D01*
X115627149Y-99637851D02*
X102381051Y-99637851D01*
X102381051Y-99637851D02*
X102311200Y-99568000D01*
X140462000Y-89890600D02*
X143670020Y-89890600D01*
X143670020Y-89890600D02*
X146260820Y-87299800D01*
X146260820Y-87299800D02*
X147015200Y-87299800D01*
X129489200Y-91160600D02*
X129489200Y-91465400D01*
X129489200Y-91465400D02*
X128905000Y-92049600D01*
X129489200Y-85521800D02*
X129489200Y-91160600D01*
X127000000Y-74930000D02*
X127000000Y-88832942D01*
X127000000Y-88832942D02*
X126618999Y-89213943D01*
X126618999Y-89213943D02*
X126618999Y-90601799D01*
X126618999Y-90601799D02*
X126644400Y-90627200D01*
X124460000Y-74930000D02*
X124460000Y-89636600D01*
X124460000Y-89636600D02*
X125120400Y-90297000D01*
X127254000Y-99060000D02*
X119681600Y-99060000D01*
X129794000Y-101092000D02*
X129540000Y-100838000D01*
X129540000Y-100838000D02*
X121331600Y-100838000D01*
X120650000Y-107594400D02*
X120650000Y-111760000D01*
X129794000Y-101854000D02*
X121831600Y-101854000D01*
X130302000Y-102362000D02*
X129794000Y-101854000D01*
X123444000Y-107619800D02*
X123444000Y-115773200D01*
X123444000Y-115773200D02*
X129540000Y-121869200D01*
X129540000Y-121869200D02*
X129540000Y-129540000D01*
X129540000Y-129540000D02*
X128270000Y-130810000D01*
X127762000Y-105918000D02*
X130302000Y-105918000D01*
X144678400Y-115366800D02*
X144678400Y-108643420D01*
X144678400Y-108643420D02*
X146260820Y-107061000D01*
X146260820Y-107061000D02*
X147015200Y-107061000D01*
X127508000Y-97790000D02*
X118872000Y-97790000D01*
X118872000Y-97790000D02*
X118618000Y-97536000D01*
X112014000Y-117729000D02*
X112014000Y-109143800D01*
X112014000Y-109143800D02*
X112039400Y-109118400D01*
D21*
G36*
X103926149Y-69149554D02*
X103546474Y-69622066D01*
X106045000Y-72120592D01*
X108543526Y-69622066D01*
X108163851Y-69149554D01*
X107408624Y-68845500D01*
X146570201Y-68845500D01*
X145836149Y-69149554D01*
X145456474Y-69622066D01*
X147955000Y-72120592D01*
X150453526Y-69622066D01*
X150073851Y-69149554D01*
X149318624Y-68845500D01*
X151499500Y-68845500D01*
X151499500Y-71005201D01*
X151195446Y-70271149D01*
X150722934Y-69891474D01*
X148224408Y-72390000D01*
X150722934Y-74888526D01*
X151195446Y-74508851D01*
X151499500Y-73753624D01*
X151499500Y-80645000D01*
X151504602Y-80670649D01*
X151504602Y-80696796D01*
X151987966Y-83126836D01*
X152011189Y-83182900D01*
X152027610Y-83222544D01*
X153404117Y-85282632D01*
X153477368Y-85355883D01*
X155537456Y-86732390D01*
X155633163Y-86772033D01*
X155633164Y-86772033D01*
X158063203Y-87255398D01*
X158089351Y-87255398D01*
X158115000Y-87260500D01*
X160770500Y-87260500D01*
X160770500Y-115939500D01*
X158115000Y-115939500D01*
X158089351Y-115944602D01*
X158063203Y-115944602D01*
X155633164Y-116427967D01*
X155633163Y-116427967D01*
X155537456Y-116467610D01*
X153477368Y-117844117D01*
X153404117Y-117917368D01*
X152027610Y-119977456D01*
X152027610Y-119977457D01*
X151987966Y-120073164D01*
X151504602Y-122503204D01*
X151504602Y-122529351D01*
X151499500Y-122555000D01*
X151499500Y-129425201D01*
X151195446Y-128691149D01*
X150722934Y-128311474D01*
X148224408Y-130810000D01*
X150722934Y-133308526D01*
X151195446Y-132928851D01*
X151499500Y-132173624D01*
X151499500Y-134354500D01*
X149339799Y-134354500D01*
X150073851Y-134050446D01*
X150453526Y-133577934D01*
X147955000Y-131079408D01*
X145456474Y-133577934D01*
X145836149Y-134050446D01*
X146591376Y-134354500D01*
X107429799Y-134354500D01*
X108163851Y-134050446D01*
X108543526Y-133577934D01*
X106045000Y-131079408D01*
X103546474Y-133577934D01*
X103926149Y-134050446D01*
X104681376Y-134354500D01*
X102500500Y-134354500D01*
X102500500Y-132194799D01*
X102804554Y-132928851D01*
X103277066Y-133308526D01*
X105775592Y-130810000D01*
X106314408Y-130810000D01*
X108812934Y-133308526D01*
X109285446Y-132928851D01*
X109849630Y-131527498D01*
X109834595Y-130016913D01*
X109285446Y-128691149D01*
X109208457Y-128629286D01*
X113252900Y-128629286D01*
X113252900Y-130196714D01*
X113326805Y-130568261D01*
X113537270Y-130883244D01*
X113852253Y-131093709D01*
X114223800Y-131167614D01*
X114595347Y-131093709D01*
X114910330Y-130883244D01*
X115120795Y-130568261D01*
X115194700Y-130196714D01*
X115194700Y-128629286D01*
X115792900Y-128629286D01*
X115792900Y-130196714D01*
X115866805Y-130568261D01*
X116077270Y-130883244D01*
X116392253Y-131093709D01*
X116763800Y-131167614D01*
X116885658Y-131143375D01*
X121863500Y-131143375D01*
X121863500Y-131678679D01*
X121950506Y-131888729D01*
X122111272Y-132049494D01*
X122321322Y-132136500D01*
X122856625Y-132136500D01*
X122999500Y-131993625D01*
X122999500Y-131000500D01*
X123380500Y-131000500D01*
X123380500Y-131993625D01*
X123523375Y-132136500D01*
X124058678Y-132136500D01*
X124268728Y-132049494D01*
X124429494Y-131888729D01*
X124516500Y-131678679D01*
X124516500Y-131143375D01*
X124375402Y-131002277D01*
X124758932Y-131002277D01*
X124906431Y-131359252D01*
X125179311Y-131632609D01*
X125536029Y-131780731D01*
X125922277Y-131781068D01*
X126279252Y-131633569D01*
X126552609Y-131360689D01*
X126700731Y-131003971D01*
X126701068Y-130617723D01*
X126553569Y-130260748D01*
X126280689Y-129987391D01*
X125923971Y-129839269D01*
X125537723Y-129838932D01*
X125180748Y-129986431D01*
X124907391Y-130259311D01*
X124759269Y-130616029D01*
X124758932Y-131002277D01*
X124375402Y-131002277D01*
X124373625Y-131000500D01*
X123380500Y-131000500D01*
X122999500Y-131000500D01*
X122006375Y-131000500D01*
X121863500Y-131143375D01*
X116885658Y-131143375D01*
X117135347Y-131093709D01*
X117450330Y-130883244D01*
X117660795Y-130568261D01*
X117734700Y-130196714D01*
X117734700Y-129941321D01*
X121863500Y-129941321D01*
X121863500Y-130476625D01*
X122006375Y-130619500D01*
X122999500Y-130619500D01*
X122999500Y-129626375D01*
X123380500Y-129626375D01*
X123380500Y-130619500D01*
X124373625Y-130619500D01*
X124516500Y-130476625D01*
X124516500Y-129941321D01*
X124429494Y-129731271D01*
X124268728Y-129570506D01*
X124058678Y-129483500D01*
X123523375Y-129483500D01*
X123380500Y-129626375D01*
X122999500Y-129626375D01*
X122856625Y-129483500D01*
X122321322Y-129483500D01*
X122111272Y-129570506D01*
X121950506Y-129731271D01*
X121863500Y-129941321D01*
X117734700Y-129941321D01*
X117734700Y-128629286D01*
X117701480Y-128462277D01*
X122218932Y-128462277D01*
X122366431Y-128819252D01*
X122639311Y-129092609D01*
X122996029Y-129240731D01*
X123382277Y-129241068D01*
X123739252Y-129093569D01*
X124012609Y-128820689D01*
X124160731Y-128463971D01*
X124160732Y-128462277D01*
X124758932Y-128462277D01*
X124906431Y-128819252D01*
X125179311Y-129092609D01*
X125536029Y-129240731D01*
X125922277Y-129241068D01*
X126279252Y-129093569D01*
X126552609Y-128820689D01*
X126700731Y-128463971D01*
X126701068Y-128077723D01*
X126553569Y-127720748D01*
X126280689Y-127447391D01*
X125923971Y-127299269D01*
X125537723Y-127298932D01*
X125180748Y-127446431D01*
X124907391Y-127719311D01*
X124759269Y-128076029D01*
X124758932Y-128462277D01*
X124160732Y-128462277D01*
X124161068Y-128077723D01*
X124013569Y-127720748D01*
X123740689Y-127447391D01*
X123383971Y-127299269D01*
X122997723Y-127298932D01*
X122640748Y-127446431D01*
X122367391Y-127719311D01*
X122219269Y-128076029D01*
X122218932Y-128462277D01*
X117701480Y-128462277D01*
X117660795Y-128257739D01*
X117450330Y-127942756D01*
X117135347Y-127732291D01*
X116763800Y-127658386D01*
X116392253Y-127732291D01*
X116077270Y-127942756D01*
X115866805Y-128257739D01*
X115792900Y-128629286D01*
X115194700Y-128629286D01*
X115120795Y-128257739D01*
X114910330Y-127942756D01*
X114595347Y-127732291D01*
X114223800Y-127658386D01*
X113852253Y-127732291D01*
X113537270Y-127942756D01*
X113326805Y-128257739D01*
X113252900Y-128629286D01*
X109208457Y-128629286D01*
X108812934Y-128311474D01*
X106314408Y-130810000D01*
X105775592Y-130810000D01*
X103277066Y-128311474D01*
X102804554Y-128691149D01*
X102500500Y-129446376D01*
X102500500Y-128042066D01*
X103546474Y-128042066D01*
X106045000Y-130540592D01*
X108543526Y-128042066D01*
X108163851Y-127569554D01*
X106762498Y-127005370D01*
X105251913Y-127020405D01*
X103926149Y-127569554D01*
X103546474Y-128042066D01*
X102500500Y-128042066D01*
X102500500Y-122555000D01*
X102495398Y-122529351D01*
X102495398Y-122503203D01*
X102291557Y-121478422D01*
X111218962Y-121478422D01*
X111339724Y-121770686D01*
X111563137Y-121994490D01*
X111855191Y-122115762D01*
X112171422Y-122116038D01*
X112463686Y-121995276D01*
X112687490Y-121771863D01*
X112808762Y-121479809D01*
X112809038Y-121163578D01*
X112688276Y-120871314D01*
X112464863Y-120647510D01*
X112172809Y-120526238D01*
X111856578Y-120525962D01*
X111564314Y-120646724D01*
X111340510Y-120870137D01*
X111219238Y-121162191D01*
X111218962Y-121478422D01*
X102291557Y-121478422D01*
X102012033Y-120073164D01*
X101972390Y-119977457D01*
X101972390Y-119977456D01*
X101038357Y-118579577D01*
X107840830Y-118579577D01*
X107895775Y-118777385D01*
X108337031Y-118898959D01*
X108791223Y-118842417D01*
X108948225Y-118777385D01*
X109003170Y-118579577D01*
X108422000Y-117998408D01*
X107840830Y-118579577D01*
X101038357Y-118579577D01*
X100595883Y-117917368D01*
X100522632Y-117844117D01*
X100223183Y-117644031D01*
X107252041Y-117644031D01*
X107308583Y-118098223D01*
X107373615Y-118255225D01*
X107571423Y-118310170D01*
X108152592Y-117729000D01*
X108691408Y-117729000D01*
X109272577Y-118310170D01*
X109470385Y-118255225D01*
X109571996Y-117886422D01*
X111218962Y-117886422D01*
X111339724Y-118178686D01*
X111563137Y-118402490D01*
X111855191Y-118523762D01*
X112171422Y-118524038D01*
X112463686Y-118403276D01*
X112687490Y-118179863D01*
X112808762Y-117887809D01*
X112809038Y-117571578D01*
X112688276Y-117279314D01*
X112464863Y-117055510D01*
X112331500Y-117000133D01*
X112331500Y-109418990D01*
X112394489Y-109356111D01*
X112458427Y-109202130D01*
X112458573Y-109035402D01*
X112394903Y-108881309D01*
X112277111Y-108763311D01*
X112123130Y-108699373D01*
X111956402Y-108699227D01*
X111802309Y-108762897D01*
X111684311Y-108880689D01*
X111620373Y-109034670D01*
X111620227Y-109201398D01*
X111683897Y-109355491D01*
X111696500Y-109368116D01*
X111696500Y-117000105D01*
X111564314Y-117054724D01*
X111340510Y-117278137D01*
X111219238Y-117570191D01*
X111218962Y-117886422D01*
X109571996Y-117886422D01*
X109591959Y-117813969D01*
X109535417Y-117359777D01*
X109470385Y-117202775D01*
X109272577Y-117147830D01*
X108691408Y-117729000D01*
X108152592Y-117729000D01*
X107571423Y-117147830D01*
X107373615Y-117202775D01*
X107252041Y-117644031D01*
X100223183Y-117644031D01*
X99077370Y-116878423D01*
X107840830Y-116878423D01*
X108422000Y-117459592D01*
X109003170Y-116878423D01*
X108948225Y-116680615D01*
X108506969Y-116559041D01*
X108052777Y-116615583D01*
X107895775Y-116680615D01*
X107840830Y-116878423D01*
X99077370Y-116878423D01*
X98462544Y-116467610D01*
X98420730Y-116450290D01*
X98366836Y-116427966D01*
X95936796Y-115944602D01*
X95910649Y-115944602D01*
X95885000Y-115939500D01*
X93229500Y-115939500D01*
X93229500Y-95299319D01*
X99205807Y-95299319D01*
X99419004Y-95815295D01*
X99813428Y-96210408D01*
X100329032Y-96424506D01*
X100887319Y-96424993D01*
X100996961Y-96379690D01*
X100952373Y-96487070D01*
X100952227Y-96653798D01*
X101015897Y-96807891D01*
X101080306Y-96872412D01*
X100889768Y-96793294D01*
X100331481Y-96792807D01*
X99815505Y-97006004D01*
X99420392Y-97400428D01*
X99206294Y-97916032D01*
X99205807Y-98474319D01*
X99419004Y-98990295D01*
X99813428Y-99385408D01*
X100329032Y-99599506D01*
X100887319Y-99599993D01*
X101403295Y-99386796D01*
X101798408Y-98992372D01*
X102012506Y-98476768D01*
X102012625Y-98339761D01*
X102425375Y-98339761D01*
X102535350Y-98605921D01*
X102738808Y-98809735D01*
X103004776Y-98920174D01*
X103292761Y-98920425D01*
X103558921Y-98810450D01*
X103762735Y-98606992D01*
X103873174Y-98341024D01*
X103873425Y-98053039D01*
X103763450Y-97786879D01*
X103559992Y-97583065D01*
X103294024Y-97472626D01*
X103006039Y-97472375D01*
X102739879Y-97582350D01*
X102536065Y-97785808D01*
X102425626Y-98051776D01*
X102425375Y-98339761D01*
X102012625Y-98339761D01*
X102012993Y-97918481D01*
X101799796Y-97402505D01*
X101405372Y-97007392D01*
X101363230Y-96989893D01*
X101454398Y-96989973D01*
X101577520Y-96939100D01*
X105057425Y-96939100D01*
X104895505Y-97006004D01*
X104500392Y-97400428D01*
X104286294Y-97916032D01*
X104285807Y-98474319D01*
X104499004Y-98990295D01*
X104828484Y-99320351D01*
X102656163Y-99320351D01*
X102548911Y-99212911D01*
X102394930Y-99148973D01*
X102228202Y-99148827D01*
X102074109Y-99212497D01*
X101956111Y-99330289D01*
X101892173Y-99484270D01*
X101892027Y-99650998D01*
X101955697Y-99805091D01*
X102073489Y-99923089D01*
X102227470Y-99987027D01*
X102394198Y-99987173D01*
X102471213Y-99955351D01*
X115627149Y-99955351D01*
X115748651Y-99931183D01*
X115851655Y-99862357D01*
X117081300Y-98632713D01*
X117081300Y-98729800D01*
X117102324Y-98835494D01*
X117105468Y-98851302D01*
X117174294Y-98954306D01*
X124472700Y-106252712D01*
X124472700Y-114808000D01*
X124493724Y-114913694D01*
X124496868Y-114929502D01*
X124565694Y-115032506D01*
X130492500Y-120959313D01*
X130492500Y-127350673D01*
X130260748Y-127446431D01*
X129987391Y-127719311D01*
X129857500Y-128032124D01*
X129857500Y-121869200D01*
X129833332Y-121747698D01*
X129764506Y-121644694D01*
X123761500Y-115641688D01*
X123761500Y-107895034D01*
X123799089Y-107857511D01*
X123863027Y-107703530D01*
X123863173Y-107536802D01*
X123799503Y-107382709D01*
X123681711Y-107264711D01*
X123527730Y-107200773D01*
X123361002Y-107200627D01*
X123206909Y-107264297D01*
X123088911Y-107382089D01*
X123024973Y-107536070D01*
X123024827Y-107702798D01*
X123088497Y-107856891D01*
X123126500Y-107894960D01*
X123126500Y-115773200D01*
X123146729Y-115874897D01*
X123150668Y-115894702D01*
X123219494Y-115997706D01*
X129222500Y-122000712D01*
X129222500Y-128032785D01*
X129093569Y-127720748D01*
X128820689Y-127447391D01*
X128587500Y-127350563D01*
X128587500Y-123266200D01*
X128563332Y-123144698D01*
X128494506Y-123041694D01*
X113130210Y-107677398D01*
X117563827Y-107677398D01*
X117627497Y-107831491D01*
X117665500Y-107869560D01*
X117665500Y-111484766D01*
X117627911Y-111522289D01*
X117563973Y-111676270D01*
X117563827Y-111842998D01*
X117627497Y-111997091D01*
X117745289Y-112115089D01*
X117899270Y-112179027D01*
X118065998Y-112179173D01*
X118220091Y-112115503D01*
X118338089Y-111997711D01*
X118402027Y-111843730D01*
X118402173Y-111677002D01*
X118338503Y-111522909D01*
X118300500Y-111484840D01*
X118300500Y-107869634D01*
X118338089Y-107832111D01*
X118402027Y-107678130D01*
X118402027Y-107677398D01*
X120230827Y-107677398D01*
X120294497Y-107831491D01*
X120332500Y-107869560D01*
X120332500Y-111484766D01*
X120294911Y-111522289D01*
X120230973Y-111676270D01*
X120230827Y-111842998D01*
X120294497Y-111997091D01*
X120412289Y-112115089D01*
X120566270Y-112179027D01*
X120732998Y-112179173D01*
X120887091Y-112115503D01*
X121005089Y-111997711D01*
X121069027Y-111843730D01*
X121069173Y-111677002D01*
X121005503Y-111522909D01*
X120967500Y-111484840D01*
X120967500Y-107869634D01*
X121005089Y-107832111D01*
X121069027Y-107678130D01*
X121069173Y-107511402D01*
X121005503Y-107357309D01*
X120887711Y-107239311D01*
X120733730Y-107175373D01*
X120567002Y-107175227D01*
X120412909Y-107238897D01*
X120294911Y-107356689D01*
X120230973Y-107510670D01*
X120230827Y-107677398D01*
X118402027Y-107677398D01*
X118402173Y-107511402D01*
X118338503Y-107357309D01*
X118220711Y-107239311D01*
X118066730Y-107175373D01*
X117900002Y-107175227D01*
X117745909Y-107238897D01*
X117627911Y-107356689D01*
X117563973Y-107510670D01*
X117563827Y-107677398D01*
X113130210Y-107677398D01*
X107937326Y-102484514D01*
X107937373Y-102431402D01*
X107873703Y-102277309D01*
X107755911Y-102159311D01*
X107601930Y-102095373D01*
X107435202Y-102095227D01*
X107281109Y-102158897D01*
X107163111Y-102276689D01*
X107099173Y-102430670D01*
X107099027Y-102597398D01*
X107162697Y-102751491D01*
X107280489Y-102869489D01*
X107434470Y-102933427D01*
X107488262Y-102933474D01*
X127952500Y-123397712D01*
X127952500Y-127350673D01*
X127720748Y-127446431D01*
X127447391Y-127719311D01*
X127299269Y-128076029D01*
X127298932Y-128462277D01*
X127446431Y-128819252D01*
X127719311Y-129092609D01*
X128076029Y-129240731D01*
X128462277Y-129241068D01*
X128819252Y-129093569D01*
X129092609Y-128820689D01*
X129222500Y-128507876D01*
X129222500Y-129408487D01*
X128695556Y-129935431D01*
X128463971Y-129839269D01*
X128077723Y-129838932D01*
X127720748Y-129986431D01*
X127447391Y-130259311D01*
X127299269Y-130616029D01*
X127298932Y-131002277D01*
X127446431Y-131359252D01*
X127719311Y-131632609D01*
X128076029Y-131780731D01*
X128462277Y-131781068D01*
X128819252Y-131633569D01*
X129092609Y-131360689D01*
X129240731Y-131003971D01*
X129240732Y-131002277D01*
X129838932Y-131002277D01*
X129986431Y-131359252D01*
X130259311Y-131632609D01*
X130616029Y-131780731D01*
X131002277Y-131781068D01*
X131359252Y-131633569D01*
X131632609Y-131360689D01*
X131780731Y-131003971D01*
X131781068Y-130617723D01*
X131633569Y-130260748D01*
X131465617Y-130092502D01*
X144150370Y-130092502D01*
X144165405Y-131603087D01*
X144714554Y-132928851D01*
X145187066Y-133308526D01*
X147685592Y-130810000D01*
X145187066Y-128311474D01*
X144714554Y-128691149D01*
X144150370Y-130092502D01*
X131465617Y-130092502D01*
X131360689Y-129987391D01*
X131003971Y-129839269D01*
X130617723Y-129838932D01*
X130260748Y-129986431D01*
X129987391Y-130259311D01*
X129839269Y-130616029D01*
X129838932Y-131002277D01*
X129240732Y-131002277D01*
X129241068Y-130617723D01*
X129144647Y-130384366D01*
X129764506Y-129764507D01*
X129833332Y-129661502D01*
X129840319Y-129626375D01*
X129857500Y-129540000D01*
X129857500Y-128507215D01*
X129986431Y-128819252D01*
X130259311Y-129092609D01*
X130616029Y-129240731D01*
X131002277Y-129241068D01*
X131359252Y-129093569D01*
X131632609Y-128820689D01*
X131780731Y-128463971D01*
X131781068Y-128077723D01*
X131766335Y-128042066D01*
X145456474Y-128042066D01*
X147955000Y-130540592D01*
X150453526Y-128042066D01*
X150073851Y-127569554D01*
X148672498Y-127005370D01*
X147161913Y-127020405D01*
X145836149Y-127569554D01*
X145456474Y-128042066D01*
X131766335Y-128042066D01*
X131633569Y-127720748D01*
X131360689Y-127447391D01*
X131127500Y-127350563D01*
X131127500Y-120827800D01*
X131103332Y-120706298D01*
X131064051Y-120647510D01*
X131034507Y-120603294D01*
X126744611Y-116313398D01*
X143040027Y-116313398D01*
X143103697Y-116467491D01*
X143221489Y-116585489D01*
X143375470Y-116649427D01*
X143542198Y-116649573D01*
X143696291Y-116585903D01*
X143734360Y-116547900D01*
X147751800Y-116547900D01*
X147873302Y-116523732D01*
X147976306Y-116454906D01*
X148670686Y-115760526D01*
X148723798Y-115760573D01*
X148877891Y-115696903D01*
X148995889Y-115579111D01*
X149059827Y-115425130D01*
X149059874Y-115371339D01*
X149068506Y-115362707D01*
X149137332Y-115259702D01*
X149145249Y-115219898D01*
X149161500Y-115138200D01*
X149161500Y-113813234D01*
X149199089Y-113775711D01*
X149263027Y-113621730D01*
X149263173Y-113455002D01*
X149199503Y-113300909D01*
X149081711Y-113182911D01*
X148927730Y-113118973D01*
X148761002Y-113118827D01*
X148606909Y-113182497D01*
X148488911Y-113300289D01*
X148424973Y-113454270D01*
X148424827Y-113620998D01*
X148488497Y-113775091D01*
X148526500Y-113813160D01*
X148526500Y-114935161D01*
X148403709Y-114985897D01*
X148285711Y-115103689D01*
X148221773Y-115257670D01*
X148221726Y-115311461D01*
X147620288Y-115912900D01*
X143734434Y-115912900D01*
X143696911Y-115875311D01*
X143542930Y-115811373D01*
X143376202Y-115811227D01*
X143222109Y-115874897D01*
X143104111Y-115992689D01*
X143040173Y-116146670D01*
X143040027Y-116313398D01*
X126744611Y-116313398D01*
X125881011Y-115449798D01*
X144259227Y-115449798D01*
X144322897Y-115603891D01*
X144440689Y-115721889D01*
X144594670Y-115785827D01*
X144761398Y-115785973D01*
X144915491Y-115722303D01*
X145033489Y-115604511D01*
X145097427Y-115450530D01*
X145097573Y-115283802D01*
X145033903Y-115129709D01*
X144995900Y-115091640D01*
X144995900Y-108774932D01*
X145831266Y-107939567D01*
X145856233Y-107956249D01*
X146227057Y-108030010D01*
X147803343Y-108030010D01*
X148174167Y-107956249D01*
X148488537Y-107746194D01*
X148698592Y-107431824D01*
X148772353Y-107061000D01*
X148698592Y-106690176D01*
X148488537Y-106375806D01*
X148174167Y-106165751D01*
X147803343Y-106091990D01*
X146227057Y-106091990D01*
X145856233Y-106165751D01*
X145541863Y-106375806D01*
X145331808Y-106690176D01*
X145258047Y-107061000D01*
X145331808Y-107431824D01*
X145375537Y-107497270D01*
X144453894Y-108418914D01*
X144385068Y-108521918D01*
X144360900Y-108643420D01*
X144360900Y-115091566D01*
X144323311Y-115129089D01*
X144259373Y-115283070D01*
X144259227Y-115449798D01*
X125881011Y-115449798D01*
X125107700Y-114676488D01*
X125107700Y-106121200D01*
X125083791Y-106000998D01*
X127342827Y-106000998D01*
X127406497Y-106155091D01*
X127524289Y-106273089D01*
X127678270Y-106337027D01*
X127844998Y-106337173D01*
X127999091Y-106273503D01*
X128037160Y-106235500D01*
X130026766Y-106235500D01*
X130064289Y-106273089D01*
X130218270Y-106337027D01*
X130384998Y-106337173D01*
X130539091Y-106273503D01*
X130657089Y-106155711D01*
X130721027Y-106001730D01*
X130721173Y-105835002D01*
X130657503Y-105680909D01*
X130539711Y-105562911D01*
X130385730Y-105498973D01*
X130219002Y-105498827D01*
X130064909Y-105562497D01*
X130026840Y-105600500D01*
X128037234Y-105600500D01*
X127999711Y-105562911D01*
X127845730Y-105498973D01*
X127679002Y-105498827D01*
X127524909Y-105562497D01*
X127406911Y-105680289D01*
X127342973Y-105834270D01*
X127342827Y-106000998D01*
X125083791Y-106000998D01*
X125083532Y-105999698D01*
X125014706Y-105896694D01*
X121055010Y-101936998D01*
X121412427Y-101936998D01*
X121476097Y-102091091D01*
X121593889Y-102209089D01*
X121747870Y-102273027D01*
X121914598Y-102273173D01*
X122068691Y-102209503D01*
X122106760Y-102171500D01*
X129662488Y-102171500D01*
X129882874Y-102391886D01*
X129882827Y-102444998D01*
X129946497Y-102599091D01*
X130064289Y-102717089D01*
X130218270Y-102781027D01*
X130384998Y-102781173D01*
X130441701Y-102757744D01*
X130441701Y-103805287D01*
X129855488Y-104391500D01*
X125690234Y-104391500D01*
X125652711Y-104353911D01*
X125498730Y-104289973D01*
X125332002Y-104289827D01*
X125177909Y-104353497D01*
X125059911Y-104471289D01*
X124995973Y-104625270D01*
X124995827Y-104791998D01*
X125059497Y-104946091D01*
X125177289Y-105064089D01*
X125331270Y-105128027D01*
X125497998Y-105128173D01*
X125652091Y-105064503D01*
X125690160Y-105026500D01*
X129987000Y-105026500D01*
X130108502Y-105002332D01*
X130211506Y-104933506D01*
X130624012Y-104521000D01*
X145258047Y-104521000D01*
X145331808Y-104891824D01*
X145541863Y-105206194D01*
X145856233Y-105416249D01*
X146227057Y-105490010D01*
X147803343Y-105490010D01*
X148174167Y-105416249D01*
X148488537Y-105206194D01*
X148698592Y-104891824D01*
X148772353Y-104521000D01*
X148698592Y-104150176D01*
X148488537Y-103835806D01*
X148174167Y-103625751D01*
X147803343Y-103551990D01*
X146227057Y-103551990D01*
X145856233Y-103625751D01*
X145541863Y-103835806D01*
X145331808Y-104150176D01*
X145258047Y-104521000D01*
X130624012Y-104521000D01*
X130983707Y-104161305D01*
X131052533Y-104058301D01*
X131076701Y-103936799D01*
X131076701Y-101981000D01*
X145258047Y-101981000D01*
X145331808Y-102351824D01*
X145541863Y-102666194D01*
X145856233Y-102876249D01*
X146227057Y-102950010D01*
X147803343Y-102950010D01*
X148174167Y-102876249D01*
X148488537Y-102666194D01*
X148698592Y-102351824D01*
X148772353Y-101981000D01*
X148698592Y-101610176D01*
X148488537Y-101295806D01*
X148174167Y-101085751D01*
X147803343Y-101011990D01*
X146227057Y-101011990D01*
X145856233Y-101085751D01*
X145541863Y-101295806D01*
X145331808Y-101610176D01*
X145258047Y-101981000D01*
X131076701Y-101981000D01*
X131076701Y-99441000D01*
X145258047Y-99441000D01*
X145331808Y-99811824D01*
X145541863Y-100126194D01*
X145856233Y-100336249D01*
X146227057Y-100410010D01*
X147803343Y-100410010D01*
X148174167Y-100336249D01*
X148488537Y-100126194D01*
X148698592Y-99811824D01*
X148772353Y-99441000D01*
X148698592Y-99070176D01*
X148488537Y-98755806D01*
X148174167Y-98545751D01*
X147803343Y-98471990D01*
X146227057Y-98471990D01*
X145856233Y-98545751D01*
X145541863Y-98755806D01*
X145331808Y-99070176D01*
X145258047Y-99441000D01*
X131076701Y-99441000D01*
X131076701Y-98865001D01*
X131052533Y-98743499D01*
X131051865Y-98742500D01*
X130983708Y-98640495D01*
X129244213Y-96901000D01*
X145258047Y-96901000D01*
X145331808Y-97271824D01*
X145541863Y-97586194D01*
X145856233Y-97796249D01*
X146227057Y-97870010D01*
X147803343Y-97870010D01*
X148174167Y-97796249D01*
X148488537Y-97586194D01*
X148698592Y-97271824D01*
X148772353Y-96901000D01*
X148698592Y-96530176D01*
X148488537Y-96215806D01*
X148174167Y-96005751D01*
X147803343Y-95931990D01*
X146227057Y-95931990D01*
X145856233Y-96005751D01*
X145541863Y-96215806D01*
X145331808Y-96530176D01*
X145258047Y-96901000D01*
X129244213Y-96901000D01*
X128886508Y-96543296D01*
X128886506Y-96543293D01*
X128877926Y-96534714D01*
X128877973Y-96481602D01*
X128814303Y-96327509D01*
X128696511Y-96209511D01*
X128542530Y-96145573D01*
X128375802Y-96145427D01*
X128221709Y-96209097D01*
X128103711Y-96326889D01*
X128039773Y-96480870D01*
X128039627Y-96647598D01*
X128103297Y-96801691D01*
X128221089Y-96919689D01*
X128375070Y-96983627D01*
X128428861Y-96983674D01*
X128437493Y-96992306D01*
X128437496Y-96992308D01*
X130441701Y-98996514D01*
X130441701Y-101966214D01*
X130385730Y-101942973D01*
X130331939Y-101942926D01*
X130018506Y-101629494D01*
X129915502Y-101560668D01*
X129794000Y-101536500D01*
X122106834Y-101536500D01*
X122069311Y-101498911D01*
X121915330Y-101434973D01*
X121748602Y-101434827D01*
X121594509Y-101498497D01*
X121476511Y-101616289D01*
X121412573Y-101770270D01*
X121412427Y-101936998D01*
X121055010Y-101936998D01*
X120039010Y-100920998D01*
X120912427Y-100920998D01*
X120976097Y-101075091D01*
X121093889Y-101193089D01*
X121247870Y-101257027D01*
X121414598Y-101257173D01*
X121568691Y-101193503D01*
X121606760Y-101155500D01*
X129374844Y-101155500D01*
X129374827Y-101174998D01*
X129438497Y-101329091D01*
X129556289Y-101447089D01*
X129710270Y-101511027D01*
X129876998Y-101511173D01*
X130031091Y-101447503D01*
X130149089Y-101329711D01*
X130213027Y-101175730D01*
X130213173Y-101009002D01*
X130149503Y-100854909D01*
X130031711Y-100736911D01*
X129877730Y-100672973D01*
X129823938Y-100672926D01*
X129764506Y-100613494D01*
X129661502Y-100544668D01*
X129540000Y-100520500D01*
X121606834Y-100520500D01*
X121569311Y-100482911D01*
X121415330Y-100418973D01*
X121248602Y-100418827D01*
X121094509Y-100482497D01*
X120976511Y-100600289D01*
X120912573Y-100754270D01*
X120912427Y-100920998D01*
X120039010Y-100920998D01*
X118261010Y-99142998D01*
X119262427Y-99142998D01*
X119326097Y-99297091D01*
X119443889Y-99415089D01*
X119597870Y-99479027D01*
X119764598Y-99479173D01*
X119918691Y-99415503D01*
X119956760Y-99377500D01*
X126978766Y-99377500D01*
X127016289Y-99415089D01*
X127170270Y-99479027D01*
X127336998Y-99479173D01*
X127491091Y-99415503D01*
X127609089Y-99297711D01*
X127673027Y-99143730D01*
X127673173Y-98977002D01*
X127609503Y-98822909D01*
X127491711Y-98704911D01*
X127337730Y-98640973D01*
X127171002Y-98640827D01*
X127016909Y-98704497D01*
X126978840Y-98742500D01*
X119956834Y-98742500D01*
X119919311Y-98704911D01*
X119765330Y-98640973D01*
X119598602Y-98640827D01*
X119444509Y-98704497D01*
X119326511Y-98822289D01*
X119262573Y-98976270D01*
X119262427Y-99142998D01*
X118261010Y-99142998D01*
X117716300Y-98598288D01*
X117716300Y-97997712D01*
X118198918Y-97515094D01*
X118198827Y-97618998D01*
X118262497Y-97773091D01*
X118380289Y-97891089D01*
X118534270Y-97955027D01*
X118588061Y-97955074D01*
X118647493Y-98014506D01*
X118750498Y-98083332D01*
X118872000Y-98107500D01*
X127232766Y-98107500D01*
X127270289Y-98145089D01*
X127424270Y-98209027D01*
X127590998Y-98209173D01*
X127745091Y-98145503D01*
X127863089Y-98027711D01*
X127927027Y-97873730D01*
X127927173Y-97707002D01*
X127863503Y-97552909D01*
X127745711Y-97434911D01*
X127591730Y-97370973D01*
X127425002Y-97370827D01*
X127270909Y-97434497D01*
X127232840Y-97472500D01*
X119037156Y-97472500D01*
X119037173Y-97453002D01*
X118973503Y-97298909D01*
X118855711Y-97180911D01*
X118701730Y-97116973D01*
X118597131Y-97116881D01*
X118724086Y-96989926D01*
X118777198Y-96989973D01*
X118931291Y-96926303D01*
X119049289Y-96808511D01*
X119113227Y-96654530D01*
X119113373Y-96487802D01*
X119049703Y-96333709D01*
X118931911Y-96215711D01*
X118777930Y-96151773D01*
X118706845Y-96151711D01*
X118706973Y-96005202D01*
X118698118Y-95983770D01*
X118700998Y-95983773D01*
X118855091Y-95920103D01*
X118973089Y-95802311D01*
X119037027Y-95648330D01*
X119037173Y-95481602D01*
X118986299Y-95358478D01*
X118986299Y-94647598D01*
X128110027Y-94647598D01*
X128173697Y-94801691D01*
X128291489Y-94919689D01*
X128445470Y-94983627D01*
X128612198Y-94983773D01*
X128766291Y-94920103D01*
X128884289Y-94802311D01*
X128948227Y-94648330D01*
X128948373Y-94481602D01*
X128898542Y-94361000D01*
X145258047Y-94361000D01*
X145331808Y-94731824D01*
X145541863Y-95046194D01*
X145856233Y-95256249D01*
X146227057Y-95330010D01*
X147803343Y-95330010D01*
X148174167Y-95256249D01*
X148488537Y-95046194D01*
X148698592Y-94731824D01*
X148772353Y-94361000D01*
X148698592Y-93990176D01*
X148488537Y-93675806D01*
X148174167Y-93465751D01*
X147803343Y-93391990D01*
X146227057Y-93391990D01*
X145856233Y-93465751D01*
X145541863Y-93675806D01*
X145331808Y-93990176D01*
X145258047Y-94361000D01*
X128898542Y-94361000D01*
X128884703Y-94327509D01*
X128766911Y-94209511D01*
X128612930Y-94145573D01*
X128446202Y-94145427D01*
X128292109Y-94209097D01*
X128174111Y-94326889D01*
X128110173Y-94480870D01*
X128110027Y-94647598D01*
X118986299Y-94647598D01*
X118986299Y-92132598D01*
X128485827Y-92132598D01*
X128549497Y-92286691D01*
X128667289Y-92404689D01*
X128821270Y-92468627D01*
X128987998Y-92468773D01*
X129142091Y-92405103D01*
X129260089Y-92287311D01*
X129324027Y-92133330D01*
X129324074Y-92079538D01*
X129713707Y-91689906D01*
X129782532Y-91586902D01*
X129795243Y-91522998D01*
X130390827Y-91522998D01*
X130454497Y-91677091D01*
X130492500Y-91715160D01*
X130492500Y-92434766D01*
X130454911Y-92472289D01*
X130390973Y-92626270D01*
X130390827Y-92792998D01*
X130454497Y-92947091D01*
X130572289Y-93065089D01*
X130726270Y-93129027D01*
X130892998Y-93129173D01*
X131047091Y-93065503D01*
X131165089Y-92947711D01*
X131229027Y-92793730D01*
X131229173Y-92627002D01*
X131165503Y-92472909D01*
X131127500Y-92434840D01*
X131127500Y-91715234D01*
X131165089Y-91677711D01*
X131229027Y-91523730D01*
X131229173Y-91357002D01*
X131165503Y-91202909D01*
X131047711Y-91084911D01*
X130893730Y-91020973D01*
X130727002Y-91020827D01*
X130572909Y-91084497D01*
X130454911Y-91202289D01*
X130390973Y-91356270D01*
X130390827Y-91522998D01*
X129795243Y-91522998D01*
X129806700Y-91465400D01*
X129806700Y-89973598D01*
X140042827Y-89973598D01*
X140106497Y-90127691D01*
X140224289Y-90245689D01*
X140378270Y-90309627D01*
X140544998Y-90309773D01*
X140699091Y-90246103D01*
X140712201Y-90233015D01*
X144995919Y-90233015D01*
X145189476Y-90641737D01*
X145577915Y-90990679D01*
X146070320Y-91164410D01*
X146824700Y-91164410D01*
X146824700Y-90030300D01*
X147205700Y-90030300D01*
X147205700Y-91164410D01*
X147960080Y-91164410D01*
X148452485Y-90990679D01*
X148840924Y-90641737D01*
X149034481Y-90233015D01*
X148935859Y-90030300D01*
X147205700Y-90030300D01*
X146824700Y-90030300D01*
X145094541Y-90030300D01*
X144995919Y-90233015D01*
X140712201Y-90233015D01*
X140737160Y-90208100D01*
X143670020Y-90208100D01*
X143791522Y-90183932D01*
X143894526Y-90115106D01*
X144563047Y-89446585D01*
X144995919Y-89446585D01*
X145094541Y-89649300D01*
X146824700Y-89649300D01*
X146824700Y-88515190D01*
X147205700Y-88515190D01*
X147205700Y-89649300D01*
X148935859Y-89649300D01*
X149034481Y-89446585D01*
X148840924Y-89037863D01*
X148452485Y-88688921D01*
X147960080Y-88515190D01*
X147205700Y-88515190D01*
X146824700Y-88515190D01*
X146070320Y-88515190D01*
X145577915Y-88688921D01*
X145189476Y-89037863D01*
X144995919Y-89446585D01*
X144563047Y-89446585D01*
X145831266Y-88178367D01*
X145856233Y-88195049D01*
X146227057Y-88268810D01*
X147803343Y-88268810D01*
X148174167Y-88195049D01*
X148488537Y-87984994D01*
X148698592Y-87670624D01*
X148772353Y-87299800D01*
X148698592Y-86928976D01*
X148488537Y-86614606D01*
X148174167Y-86404551D01*
X147803343Y-86330790D01*
X146227057Y-86330790D01*
X145856233Y-86404551D01*
X145541863Y-86614606D01*
X145331808Y-86928976D01*
X145258047Y-87299800D01*
X145331808Y-87670624D01*
X145375537Y-87736070D01*
X143538508Y-89573100D01*
X140737234Y-89573100D01*
X140699711Y-89535511D01*
X140545730Y-89471573D01*
X140379002Y-89471427D01*
X140224909Y-89535097D01*
X140106911Y-89652889D01*
X140042973Y-89806870D01*
X140042827Y-89973598D01*
X129806700Y-89973598D01*
X129806700Y-88072263D01*
X130341662Y-88072263D01*
X130405332Y-88226356D01*
X130443335Y-88264425D01*
X130443335Y-88853366D01*
X130405746Y-88890889D01*
X130341808Y-89044870D01*
X130341662Y-89211598D01*
X130405332Y-89365691D01*
X130523124Y-89483689D01*
X130677105Y-89547627D01*
X130843833Y-89547773D01*
X130997926Y-89484103D01*
X131115924Y-89366311D01*
X131179862Y-89212330D01*
X131180008Y-89045602D01*
X131116338Y-88891509D01*
X131078335Y-88853440D01*
X131078335Y-88264499D01*
X131115924Y-88226976D01*
X131179862Y-88072995D01*
X131180008Y-87906267D01*
X131116338Y-87752174D01*
X131078335Y-87714105D01*
X131078335Y-84759800D01*
X145258047Y-84759800D01*
X145331808Y-85130624D01*
X145541863Y-85444994D01*
X145856233Y-85655049D01*
X146227057Y-85728810D01*
X147803343Y-85728810D01*
X148174167Y-85655049D01*
X148488537Y-85444994D01*
X148698592Y-85130624D01*
X148772353Y-84759800D01*
X148698592Y-84388976D01*
X148488537Y-84074606D01*
X148174167Y-83864551D01*
X147803343Y-83790790D01*
X146227057Y-83790790D01*
X145856233Y-83864551D01*
X145541863Y-84074606D01*
X145331808Y-84388976D01*
X145258047Y-84759800D01*
X131078335Y-84759800D01*
X131078335Y-84356277D01*
X131988814Y-83445798D01*
X148932827Y-83445798D01*
X148996497Y-83599891D01*
X149034500Y-83637960D01*
X149034500Y-85678366D01*
X148996911Y-85715889D01*
X148932973Y-85869870D01*
X148932827Y-86036598D01*
X148996497Y-86190691D01*
X149114289Y-86308689D01*
X149268270Y-86372627D01*
X149434998Y-86372773D01*
X149589091Y-86309103D01*
X149707089Y-86191311D01*
X149771027Y-86037330D01*
X149771173Y-85870602D01*
X149707503Y-85716509D01*
X149669500Y-85678440D01*
X149669500Y-83638034D01*
X149707089Y-83600511D01*
X149771027Y-83446530D01*
X149771173Y-83279802D01*
X149707503Y-83125709D01*
X149589711Y-83007711D01*
X149435730Y-82943773D01*
X149269002Y-82943627D01*
X149114909Y-83007297D01*
X148996911Y-83125089D01*
X148932973Y-83279070D01*
X148932827Y-83445798D01*
X131988814Y-83445798D01*
X132109886Y-83324726D01*
X132162998Y-83324773D01*
X132317091Y-83261103D01*
X132435089Y-83143311D01*
X132490976Y-83008719D01*
X142049410Y-83008719D01*
X142128515Y-83200167D01*
X142274862Y-83346770D01*
X142466172Y-83426209D01*
X142673319Y-83426390D01*
X142864767Y-83347285D01*
X143011370Y-83200938D01*
X143090809Y-83009628D01*
X143090990Y-82802481D01*
X143011885Y-82611033D01*
X142865538Y-82464430D01*
X142674228Y-82384991D01*
X142467081Y-82384810D01*
X142275633Y-82463915D01*
X142129030Y-82610262D01*
X142049591Y-82801572D01*
X142049410Y-83008719D01*
X132490976Y-83008719D01*
X132499027Y-82989330D01*
X132499173Y-82822602D01*
X132435503Y-82668509D01*
X132397500Y-82630440D01*
X132397500Y-75843159D01*
X132626027Y-75748734D01*
X132897779Y-75477456D01*
X133045032Y-75122832D01*
X133045033Y-75121148D01*
X133654633Y-75121148D01*
X133801266Y-75476027D01*
X134072544Y-75747779D01*
X134427168Y-75895032D01*
X134811148Y-75895367D01*
X135166027Y-75748734D01*
X135437779Y-75477456D01*
X135570456Y-75157934D01*
X145456474Y-75157934D01*
X145836149Y-75630446D01*
X147237502Y-76194630D01*
X148748087Y-76179595D01*
X150073851Y-75630446D01*
X150453526Y-75157934D01*
X147955000Y-72659408D01*
X145456474Y-75157934D01*
X135570456Y-75157934D01*
X135585032Y-75122832D01*
X135585367Y-74738852D01*
X135438734Y-74383973D01*
X135167456Y-74112221D01*
X134812832Y-73964968D01*
X134428852Y-73964633D01*
X134073973Y-74111266D01*
X133802221Y-74382544D01*
X133654968Y-74737168D01*
X133654633Y-75121148D01*
X133045033Y-75121148D01*
X133045367Y-74738852D01*
X132898734Y-74383973D01*
X132627456Y-74112221D01*
X132272832Y-73964968D01*
X131888852Y-73964633D01*
X131533973Y-74111266D01*
X131262221Y-74382544D01*
X131114968Y-74737168D01*
X131114633Y-75121148D01*
X131261266Y-75476027D01*
X131532544Y-75747779D01*
X131762500Y-75843265D01*
X131762500Y-82630366D01*
X131724911Y-82667889D01*
X131660973Y-82821870D01*
X131660926Y-82875661D01*
X130568894Y-83967694D01*
X130536329Y-84000259D01*
X130467503Y-84103263D01*
X130443335Y-84224765D01*
X130443335Y-87714031D01*
X130405746Y-87751554D01*
X130341808Y-87905535D01*
X130341662Y-88072263D01*
X129806700Y-88072263D01*
X129806700Y-85797034D01*
X129844289Y-85759511D01*
X129908227Y-85605530D01*
X129908373Y-85438802D01*
X129844703Y-85284709D01*
X129726911Y-85166711D01*
X129572930Y-85102773D01*
X129406202Y-85102627D01*
X129252109Y-85166297D01*
X129134111Y-85284089D01*
X129070173Y-85438070D01*
X129070027Y-85604798D01*
X129133697Y-85758891D01*
X129171700Y-85796960D01*
X129171700Y-91333887D01*
X128875114Y-91630474D01*
X128822002Y-91630427D01*
X128667909Y-91694097D01*
X128549911Y-91811889D01*
X128485973Y-91965870D01*
X128485827Y-92132598D01*
X118986299Y-92132598D01*
X118986299Y-89742713D01*
X119511512Y-89217500D01*
X119866766Y-89217500D01*
X119904289Y-89255089D01*
X120058270Y-89319027D01*
X120224998Y-89319173D01*
X120379091Y-89255503D01*
X120417160Y-89217500D01*
X122152766Y-89217500D01*
X122190289Y-89255089D01*
X122344270Y-89319027D01*
X122398062Y-89319074D01*
X123727493Y-90648506D01*
X123819821Y-90710198D01*
X123830498Y-90717332D01*
X123952000Y-90741500D01*
X124057766Y-90741500D01*
X124095289Y-90779089D01*
X124249270Y-90843027D01*
X124303062Y-90843074D01*
X124870494Y-91410507D01*
X124973498Y-91479332D01*
X125095000Y-91503500D01*
X127486766Y-91503500D01*
X127524289Y-91541089D01*
X127678270Y-91605027D01*
X127844998Y-91605173D01*
X127999091Y-91541503D01*
X128117089Y-91423711D01*
X128181027Y-91269730D01*
X128181173Y-91103002D01*
X128117503Y-90948909D01*
X127999711Y-90830911D01*
X127845730Y-90766973D01*
X127679002Y-90766827D01*
X127524909Y-90830497D01*
X127486840Y-90868500D01*
X126995894Y-90868500D01*
X126999489Y-90864911D01*
X127063427Y-90710930D01*
X127063573Y-90544202D01*
X126999903Y-90390109D01*
X126936499Y-90326594D01*
X126936499Y-89345455D01*
X127224507Y-89057448D01*
X127293332Y-88954444D01*
X127317500Y-88832942D01*
X127317500Y-75843159D01*
X127546027Y-75748734D01*
X127817779Y-75477456D01*
X127965032Y-75122832D01*
X127965033Y-75121148D01*
X128574633Y-75121148D01*
X128721266Y-75476027D01*
X128992544Y-75747779D01*
X129347168Y-75895032D01*
X129731148Y-75895367D01*
X130086027Y-75748734D01*
X130357779Y-75477456D01*
X130505032Y-75122832D01*
X130505367Y-74738852D01*
X130358734Y-74383973D01*
X130087456Y-74112221D01*
X129732832Y-73964968D01*
X129348852Y-73964633D01*
X128993973Y-74111266D01*
X128722221Y-74382544D01*
X128574968Y-74737168D01*
X128574633Y-75121148D01*
X127965033Y-75121148D01*
X127965367Y-74738852D01*
X127818734Y-74383973D01*
X127547456Y-74112221D01*
X127192832Y-73964968D01*
X126808852Y-73964633D01*
X126453973Y-74111266D01*
X126182221Y-74382544D01*
X126072900Y-74645818D01*
X126072900Y-73766112D01*
X126578805Y-73260207D01*
X126807168Y-73355032D01*
X127191148Y-73355367D01*
X127546027Y-73208734D01*
X127817779Y-72937456D01*
X127965032Y-72582832D01*
X127965033Y-72581148D01*
X128574633Y-72581148D01*
X128721266Y-72936027D01*
X128992544Y-73207779D01*
X129347168Y-73355032D01*
X129731148Y-73355367D01*
X130086027Y-73208734D01*
X130357779Y-72937456D01*
X130505032Y-72582832D01*
X130505033Y-72581148D01*
X131114633Y-72581148D01*
X131261266Y-72936027D01*
X131532544Y-73207779D01*
X131887168Y-73355032D01*
X132271148Y-73355367D01*
X132626027Y-73208734D01*
X132897779Y-72937456D01*
X132986673Y-72723375D01*
X133299200Y-72723375D01*
X133299200Y-73252979D01*
X133386206Y-73463029D01*
X133546972Y-73623794D01*
X133757022Y-73710800D01*
X134286625Y-73710800D01*
X134429500Y-73567925D01*
X134429500Y-72580500D01*
X134810500Y-72580500D01*
X134810500Y-73567925D01*
X134953375Y-73710800D01*
X135482978Y-73710800D01*
X135693028Y-73623794D01*
X135853794Y-73463029D01*
X135940800Y-73252979D01*
X135940800Y-72723375D01*
X135797925Y-72580500D01*
X134810500Y-72580500D01*
X134429500Y-72580500D01*
X133442075Y-72580500D01*
X133299200Y-72723375D01*
X132986673Y-72723375D01*
X133045032Y-72582832D01*
X133045367Y-72198852D01*
X132898734Y-71843973D01*
X132627456Y-71572221D01*
X132518603Y-71527021D01*
X133299200Y-71527021D01*
X133299200Y-72056625D01*
X133442075Y-72199500D01*
X134429500Y-72199500D01*
X134429500Y-71212075D01*
X134810500Y-71212075D01*
X134810500Y-72199500D01*
X135797925Y-72199500D01*
X135940800Y-72056625D01*
X135940800Y-71672502D01*
X144150370Y-71672502D01*
X144165405Y-73183087D01*
X144714554Y-74508851D01*
X145187066Y-74888526D01*
X147685592Y-72390000D01*
X145187066Y-69891474D01*
X144714554Y-70271149D01*
X144150370Y-71672502D01*
X135940800Y-71672502D01*
X135940800Y-71527021D01*
X135853794Y-71316971D01*
X135693028Y-71156206D01*
X135482978Y-71069200D01*
X134953375Y-71069200D01*
X134810500Y-71212075D01*
X134429500Y-71212075D01*
X134286625Y-71069200D01*
X133757022Y-71069200D01*
X133546972Y-71156206D01*
X133386206Y-71316971D01*
X133299200Y-71527021D01*
X132518603Y-71527021D01*
X132272832Y-71424968D01*
X131888852Y-71424633D01*
X131533973Y-71571266D01*
X131262221Y-71842544D01*
X131114968Y-72197168D01*
X131114633Y-72581148D01*
X130505033Y-72581148D01*
X130505367Y-72198852D01*
X130358734Y-71843973D01*
X130087456Y-71572221D01*
X129732832Y-71424968D01*
X129348852Y-71424633D01*
X128993973Y-71571266D01*
X128722221Y-71842544D01*
X128574968Y-72197168D01*
X128574633Y-72581148D01*
X127965033Y-72581148D01*
X127965367Y-72198852D01*
X127818734Y-71843973D01*
X127547456Y-71572221D01*
X127192832Y-71424968D01*
X126808852Y-71424633D01*
X126453973Y-71571266D01*
X126182221Y-71842544D01*
X126034968Y-72197168D01*
X126034633Y-72581148D01*
X126129717Y-72811270D01*
X125530894Y-73410094D01*
X125462068Y-73513098D01*
X125437900Y-73634600D01*
X125437900Y-90021840D01*
X125358111Y-89941911D01*
X125204130Y-89877973D01*
X125150339Y-89877926D01*
X124777500Y-89505088D01*
X124777500Y-75843159D01*
X125006027Y-75748734D01*
X125277779Y-75477456D01*
X125425032Y-75122832D01*
X125425367Y-74738852D01*
X125278734Y-74383973D01*
X125007456Y-74112221D01*
X124652832Y-73964968D01*
X124268852Y-73964633D01*
X123913973Y-74111266D01*
X123642221Y-74382544D01*
X123494968Y-74737168D01*
X123494633Y-75121148D01*
X123641266Y-75476027D01*
X123912544Y-75747779D01*
X124142500Y-75843265D01*
X124142500Y-89636600D01*
X124148367Y-89666094D01*
X124166668Y-89758102D01*
X124235494Y-89861106D01*
X124379328Y-90004940D01*
X124250002Y-90004827D01*
X124095909Y-90068497D01*
X124070687Y-90093675D01*
X122847126Y-88870114D01*
X122847173Y-88817002D01*
X122783503Y-88662909D01*
X122665711Y-88544911D01*
X122511730Y-88480973D01*
X122345002Y-88480827D01*
X122190909Y-88544497D01*
X122152840Y-88582500D01*
X120417234Y-88582500D01*
X120379711Y-88544911D01*
X120225730Y-88480973D01*
X120059002Y-88480827D01*
X119904909Y-88544497D01*
X119866840Y-88582500D01*
X119380000Y-88582500D01*
X119258498Y-88606668D01*
X119155494Y-88675494D01*
X118444293Y-89386695D01*
X118375467Y-89489699D01*
X118351299Y-89611201D01*
X118351299Y-95238655D01*
X118262911Y-95326889D01*
X118198973Y-95480870D01*
X118198827Y-95647598D01*
X118207682Y-95669030D01*
X118204802Y-95669027D01*
X118050709Y-95732697D01*
X117932711Y-95850489D01*
X117868773Y-96004470D01*
X117868726Y-96058261D01*
X117622888Y-96304100D01*
X106259902Y-96304100D01*
X106483295Y-96211796D01*
X106878408Y-95817372D01*
X107092506Y-95301768D01*
X107092993Y-94743481D01*
X106879796Y-94227505D01*
X106485372Y-93832392D01*
X105969768Y-93618294D01*
X105411481Y-93617807D01*
X104895505Y-93831004D01*
X104500392Y-94225428D01*
X104286294Y-94741032D01*
X104285807Y-95299319D01*
X104499004Y-95815295D01*
X104893428Y-96210408D01*
X105119063Y-96304100D01*
X101697346Y-96304100D01*
X101609111Y-96215711D01*
X101460987Y-96154205D01*
X101798408Y-95817372D01*
X102012506Y-95301768D01*
X102012993Y-94743481D01*
X101799796Y-94227505D01*
X101405372Y-93832392D01*
X100889768Y-93618294D01*
X100331481Y-93617807D01*
X99815505Y-93831004D01*
X99420392Y-94225428D01*
X99206294Y-94741032D01*
X99205807Y-95299319D01*
X93229500Y-95299319D01*
X93229500Y-93259761D01*
X101409375Y-93259761D01*
X101519350Y-93525921D01*
X101722808Y-93729735D01*
X101988776Y-93840174D01*
X102276761Y-93840425D01*
X102542921Y-93730450D01*
X102746735Y-93526992D01*
X102857174Y-93261024D01*
X102857175Y-93259761D01*
X103441375Y-93259761D01*
X103551350Y-93525921D01*
X103754808Y-93729735D01*
X104020776Y-93840174D01*
X104308761Y-93840425D01*
X104574921Y-93730450D01*
X104778735Y-93526992D01*
X104889174Y-93261024D01*
X104889425Y-92973039D01*
X104779450Y-92706879D01*
X104575992Y-92503065D01*
X104310024Y-92392626D01*
X104022039Y-92392375D01*
X103755879Y-92502350D01*
X103552065Y-92705808D01*
X103441626Y-92971776D01*
X103441375Y-93259761D01*
X102857175Y-93259761D01*
X102857425Y-92973039D01*
X102747450Y-92706879D01*
X102543992Y-92503065D01*
X102278024Y-92392626D01*
X101990039Y-92392375D01*
X101723879Y-92502350D01*
X101520065Y-92705808D01*
X101409626Y-92971776D01*
X101409375Y-93259761D01*
X93229500Y-93259761D01*
X93229500Y-87260500D01*
X95885000Y-87260500D01*
X95910649Y-87255398D01*
X95936796Y-87255398D01*
X98366836Y-86772034D01*
X98422900Y-86748811D01*
X98462544Y-86732390D01*
X100522632Y-85355883D01*
X100595883Y-85282632D01*
X101972390Y-83222544D01*
X102012033Y-83126837D01*
X102012033Y-83126836D01*
X102495398Y-80696797D01*
X102495398Y-80670649D01*
X102500500Y-80645000D01*
X102500500Y-75157934D01*
X103546474Y-75157934D01*
X103926149Y-75630446D01*
X105327502Y-76194630D01*
X106838087Y-76179595D01*
X107500550Y-75905194D01*
X118674214Y-75905194D01*
X118750522Y-76120501D01*
X119254023Y-76270771D01*
X119776703Y-76216919D01*
X120009478Y-76120501D01*
X120085786Y-75905194D01*
X119380000Y-75199408D01*
X118674214Y-75905194D01*
X107500550Y-75905194D01*
X108163851Y-75630446D01*
X108543526Y-75157934D01*
X106045000Y-72659408D01*
X103546474Y-75157934D01*
X102500500Y-75157934D01*
X102500500Y-73774799D01*
X102804554Y-74508851D01*
X103277066Y-74888526D01*
X105775592Y-72390000D01*
X106314408Y-72390000D01*
X108812934Y-74888526D01*
X108918099Y-74804023D01*
X118039229Y-74804023D01*
X118093081Y-75326703D01*
X118189499Y-75559478D01*
X118404806Y-75635786D01*
X119110592Y-74930000D01*
X119649408Y-74930000D01*
X120355194Y-75635786D01*
X120570501Y-75559478D01*
X120701320Y-75121148D01*
X120954633Y-75121148D01*
X121101266Y-75476027D01*
X121372544Y-75747779D01*
X121727168Y-75895032D01*
X122111148Y-75895367D01*
X122466027Y-75748734D01*
X122737779Y-75477456D01*
X122885032Y-75122832D01*
X122885367Y-74738852D01*
X122738734Y-74383973D01*
X122467456Y-74112221D01*
X122112832Y-73964968D01*
X121728852Y-73964633D01*
X121373973Y-74111266D01*
X121102221Y-74382544D01*
X120954968Y-74737168D01*
X120954633Y-75121148D01*
X120701320Y-75121148D01*
X120720771Y-75055977D01*
X120666919Y-74533297D01*
X120570501Y-74300522D01*
X120355194Y-74224214D01*
X119649408Y-74930000D01*
X119110592Y-74930000D01*
X118404806Y-74224214D01*
X118189499Y-74300522D01*
X118039229Y-74804023D01*
X108918099Y-74804023D01*
X109285446Y-74508851D01*
X109508504Y-73954806D01*
X118674214Y-73954806D01*
X119380000Y-74660592D01*
X120085786Y-73954806D01*
X120009478Y-73739499D01*
X119505977Y-73589229D01*
X118983297Y-73643081D01*
X118750522Y-73739499D01*
X118674214Y-73954806D01*
X109508504Y-73954806D01*
X109849630Y-73107498D01*
X109844392Y-72581148D01*
X118414633Y-72581148D01*
X118561266Y-72936027D01*
X118832544Y-73207779D01*
X119187168Y-73355032D01*
X119571148Y-73355367D01*
X119926027Y-73208734D01*
X120197779Y-72937456D01*
X120345032Y-72582832D01*
X120345033Y-72581148D01*
X120954633Y-72581148D01*
X121101266Y-72936027D01*
X121372544Y-73207779D01*
X121727168Y-73355032D01*
X122111148Y-73355367D01*
X122466027Y-73208734D01*
X122737779Y-72937456D01*
X122885032Y-72582832D01*
X122885033Y-72581148D01*
X123494633Y-72581148D01*
X123641266Y-72936027D01*
X123912544Y-73207779D01*
X124267168Y-73355032D01*
X124651148Y-73355367D01*
X125006027Y-73208734D01*
X125277779Y-72937456D01*
X125425032Y-72582832D01*
X125425367Y-72198852D01*
X125278734Y-71843973D01*
X125007456Y-71572221D01*
X124652832Y-71424968D01*
X124268852Y-71424633D01*
X123913973Y-71571266D01*
X123642221Y-71842544D01*
X123494968Y-72197168D01*
X123494633Y-72581148D01*
X122885033Y-72581148D01*
X122885367Y-72198852D01*
X122738734Y-71843973D01*
X122467456Y-71572221D01*
X122112832Y-71424968D01*
X121728852Y-71424633D01*
X121373973Y-71571266D01*
X121102221Y-71842544D01*
X120954968Y-72197168D01*
X120954633Y-72581148D01*
X120345033Y-72581148D01*
X120345367Y-72198852D01*
X120198734Y-71843973D01*
X119927456Y-71572221D01*
X119572832Y-71424968D01*
X119188852Y-71424633D01*
X118833973Y-71571266D01*
X118562221Y-71842544D01*
X118414968Y-72197168D01*
X118414633Y-72581148D01*
X109844392Y-72581148D01*
X109834595Y-71596913D01*
X109285446Y-70271149D01*
X108812934Y-69891474D01*
X106314408Y-72390000D01*
X105775592Y-72390000D01*
X103277066Y-69891474D01*
X102804554Y-70271149D01*
X102500500Y-71026376D01*
X102500500Y-68845500D01*
X104660201Y-68845500D01*
X103926149Y-69149554D01*
X103926149Y-69149554D01*
G37*
X103926149Y-69149554D02*
X103546474Y-69622066D01*
X106045000Y-72120592D01*
X108543526Y-69622066D01*
X108163851Y-69149554D01*
X107408624Y-68845500D01*
X146570201Y-68845500D01*
X145836149Y-69149554D01*
X145456474Y-69622066D01*
X147955000Y-72120592D01*
X150453526Y-69622066D01*
X150073851Y-69149554D01*
X149318624Y-68845500D01*
X151499500Y-68845500D01*
X151499500Y-71005201D01*
X151195446Y-70271149D01*
X150722934Y-69891474D01*
X148224408Y-72390000D01*
X150722934Y-74888526D01*
X151195446Y-74508851D01*
X151499500Y-73753624D01*
X151499500Y-80645000D01*
X151504602Y-80670649D01*
X151504602Y-80696796D01*
X151987966Y-83126836D01*
X152011189Y-83182900D01*
X152027610Y-83222544D01*
X153404117Y-85282632D01*
X153477368Y-85355883D01*
X155537456Y-86732390D01*
X155633163Y-86772033D01*
X155633164Y-86772033D01*
X158063203Y-87255398D01*
X158089351Y-87255398D01*
X158115000Y-87260500D01*
X160770500Y-87260500D01*
X160770500Y-115939500D01*
X158115000Y-115939500D01*
X158089351Y-115944602D01*
X158063203Y-115944602D01*
X155633164Y-116427967D01*
X155633163Y-116427967D01*
X155537456Y-116467610D01*
X153477368Y-117844117D01*
X153404117Y-117917368D01*
X152027610Y-119977456D01*
X152027610Y-119977457D01*
X151987966Y-120073164D01*
X151504602Y-122503204D01*
X151504602Y-122529351D01*
X151499500Y-122555000D01*
X151499500Y-129425201D01*
X151195446Y-128691149D01*
X150722934Y-128311474D01*
X148224408Y-130810000D01*
X150722934Y-133308526D01*
X151195446Y-132928851D01*
X151499500Y-132173624D01*
X151499500Y-134354500D01*
X149339799Y-134354500D01*
X150073851Y-134050446D01*
X150453526Y-133577934D01*
X147955000Y-131079408D01*
X145456474Y-133577934D01*
X145836149Y-134050446D01*
X146591376Y-134354500D01*
X107429799Y-134354500D01*
X108163851Y-134050446D01*
X108543526Y-133577934D01*
X106045000Y-131079408D01*
X103546474Y-133577934D01*
X103926149Y-134050446D01*
X104681376Y-134354500D01*
X102500500Y-134354500D01*
X102500500Y-132194799D01*
X102804554Y-132928851D01*
X103277066Y-133308526D01*
X105775592Y-130810000D01*
X106314408Y-130810000D01*
X108812934Y-133308526D01*
X109285446Y-132928851D01*
X109849630Y-131527498D01*
X109834595Y-130016913D01*
X109285446Y-128691149D01*
X109208457Y-128629286D01*
X113252900Y-128629286D01*
X113252900Y-130196714D01*
X113326805Y-130568261D01*
X113537270Y-130883244D01*
X113852253Y-131093709D01*
X114223800Y-131167614D01*
X114595347Y-131093709D01*
X114910330Y-130883244D01*
X115120795Y-130568261D01*
X115194700Y-130196714D01*
X115194700Y-128629286D01*
X115792900Y-128629286D01*
X115792900Y-130196714D01*
X115866805Y-130568261D01*
X116077270Y-130883244D01*
X116392253Y-131093709D01*
X116763800Y-131167614D01*
X116885658Y-131143375D01*
X121863500Y-131143375D01*
X121863500Y-131678679D01*
X121950506Y-131888729D01*
X122111272Y-132049494D01*
X122321322Y-132136500D01*
X122856625Y-132136500D01*
X122999500Y-131993625D01*
X122999500Y-131000500D01*
X123380500Y-131000500D01*
X123380500Y-131993625D01*
X123523375Y-132136500D01*
X124058678Y-132136500D01*
X124268728Y-132049494D01*
X124429494Y-131888729D01*
X124516500Y-131678679D01*
X124516500Y-131143375D01*
X124375402Y-131002277D01*
X124758932Y-131002277D01*
X124906431Y-131359252D01*
X125179311Y-131632609D01*
X125536029Y-131780731D01*
X125922277Y-131781068D01*
X126279252Y-131633569D01*
X126552609Y-131360689D01*
X126700731Y-131003971D01*
X126701068Y-130617723D01*
X126553569Y-130260748D01*
X126280689Y-129987391D01*
X125923971Y-129839269D01*
X125537723Y-129838932D01*
X125180748Y-129986431D01*
X124907391Y-130259311D01*
X124759269Y-130616029D01*
X124758932Y-131002277D01*
X124375402Y-131002277D01*
X124373625Y-131000500D01*
X123380500Y-131000500D01*
X122999500Y-131000500D01*
X122006375Y-131000500D01*
X121863500Y-131143375D01*
X116885658Y-131143375D01*
X117135347Y-131093709D01*
X117450330Y-130883244D01*
X117660795Y-130568261D01*
X117734700Y-130196714D01*
X117734700Y-129941321D01*
X121863500Y-129941321D01*
X121863500Y-130476625D01*
X122006375Y-130619500D01*
X122999500Y-130619500D01*
X122999500Y-129626375D01*
X123380500Y-129626375D01*
X123380500Y-130619500D01*
X124373625Y-130619500D01*
X124516500Y-130476625D01*
X124516500Y-129941321D01*
X124429494Y-129731271D01*
X124268728Y-129570506D01*
X124058678Y-129483500D01*
X123523375Y-129483500D01*
X123380500Y-129626375D01*
X122999500Y-129626375D01*
X122856625Y-129483500D01*
X122321322Y-129483500D01*
X122111272Y-129570506D01*
X121950506Y-129731271D01*
X121863500Y-129941321D01*
X117734700Y-129941321D01*
X117734700Y-128629286D01*
X117701480Y-128462277D01*
X122218932Y-128462277D01*
X122366431Y-128819252D01*
X122639311Y-129092609D01*
X122996029Y-129240731D01*
X123382277Y-129241068D01*
X123739252Y-129093569D01*
X124012609Y-128820689D01*
X124160731Y-128463971D01*
X124160732Y-128462277D01*
X124758932Y-128462277D01*
X124906431Y-128819252D01*
X125179311Y-129092609D01*
X125536029Y-129240731D01*
X125922277Y-129241068D01*
X126279252Y-129093569D01*
X126552609Y-128820689D01*
X126700731Y-128463971D01*
X126701068Y-128077723D01*
X126553569Y-127720748D01*
X126280689Y-127447391D01*
X125923971Y-127299269D01*
X125537723Y-127298932D01*
X125180748Y-127446431D01*
X124907391Y-127719311D01*
X124759269Y-128076029D01*
X124758932Y-128462277D01*
X124160732Y-128462277D01*
X124161068Y-128077723D01*
X124013569Y-127720748D01*
X123740689Y-127447391D01*
X123383971Y-127299269D01*
X122997723Y-127298932D01*
X122640748Y-127446431D01*
X122367391Y-127719311D01*
X122219269Y-128076029D01*
X122218932Y-128462277D01*
X117701480Y-128462277D01*
X117660795Y-128257739D01*
X117450330Y-127942756D01*
X117135347Y-127732291D01*
X116763800Y-127658386D01*
X116392253Y-127732291D01*
X116077270Y-127942756D01*
X115866805Y-128257739D01*
X115792900Y-128629286D01*
X115194700Y-128629286D01*
X115120795Y-128257739D01*
X114910330Y-127942756D01*
X114595347Y-127732291D01*
X114223800Y-127658386D01*
X113852253Y-127732291D01*
X113537270Y-127942756D01*
X113326805Y-128257739D01*
X113252900Y-128629286D01*
X109208457Y-128629286D01*
X108812934Y-128311474D01*
X106314408Y-130810000D01*
X105775592Y-130810000D01*
X103277066Y-128311474D01*
X102804554Y-128691149D01*
X102500500Y-129446376D01*
X102500500Y-128042066D01*
X103546474Y-128042066D01*
X106045000Y-130540592D01*
X108543526Y-128042066D01*
X108163851Y-127569554D01*
X106762498Y-127005370D01*
X105251913Y-127020405D01*
X103926149Y-127569554D01*
X103546474Y-128042066D01*
X102500500Y-128042066D01*
X102500500Y-122555000D01*
X102495398Y-122529351D01*
X102495398Y-122503203D01*
X102291557Y-121478422D01*
X111218962Y-121478422D01*
X111339724Y-121770686D01*
X111563137Y-121994490D01*
X111855191Y-122115762D01*
X112171422Y-122116038D01*
X112463686Y-121995276D01*
X112687490Y-121771863D01*
X112808762Y-121479809D01*
X112809038Y-121163578D01*
X112688276Y-120871314D01*
X112464863Y-120647510D01*
X112172809Y-120526238D01*
X111856578Y-120525962D01*
X111564314Y-120646724D01*
X111340510Y-120870137D01*
X111219238Y-121162191D01*
X111218962Y-121478422D01*
X102291557Y-121478422D01*
X102012033Y-120073164D01*
X101972390Y-119977457D01*
X101972390Y-119977456D01*
X101038357Y-118579577D01*
X107840830Y-118579577D01*
X107895775Y-118777385D01*
X108337031Y-118898959D01*
X108791223Y-118842417D01*
X108948225Y-118777385D01*
X109003170Y-118579577D01*
X108422000Y-117998408D01*
X107840830Y-118579577D01*
X101038357Y-118579577D01*
X100595883Y-117917368D01*
X100522632Y-117844117D01*
X100223183Y-117644031D01*
X107252041Y-117644031D01*
X107308583Y-118098223D01*
X107373615Y-118255225D01*
X107571423Y-118310170D01*
X108152592Y-117729000D01*
X108691408Y-117729000D01*
X109272577Y-118310170D01*
X109470385Y-118255225D01*
X109571996Y-117886422D01*
X111218962Y-117886422D01*
X111339724Y-118178686D01*
X111563137Y-118402490D01*
X111855191Y-118523762D01*
X112171422Y-118524038D01*
X112463686Y-118403276D01*
X112687490Y-118179863D01*
X112808762Y-117887809D01*
X112809038Y-117571578D01*
X112688276Y-117279314D01*
X112464863Y-117055510D01*
X112331500Y-117000133D01*
X112331500Y-109418990D01*
X112394489Y-109356111D01*
X112458427Y-109202130D01*
X112458573Y-109035402D01*
X112394903Y-108881309D01*
X112277111Y-108763311D01*
X112123130Y-108699373D01*
X111956402Y-108699227D01*
X111802309Y-108762897D01*
X111684311Y-108880689D01*
X111620373Y-109034670D01*
X111620227Y-109201398D01*
X111683897Y-109355491D01*
X111696500Y-109368116D01*
X111696500Y-117000105D01*
X111564314Y-117054724D01*
X111340510Y-117278137D01*
X111219238Y-117570191D01*
X111218962Y-117886422D01*
X109571996Y-117886422D01*
X109591959Y-117813969D01*
X109535417Y-117359777D01*
X109470385Y-117202775D01*
X109272577Y-117147830D01*
X108691408Y-117729000D01*
X108152592Y-117729000D01*
X107571423Y-117147830D01*
X107373615Y-117202775D01*
X107252041Y-117644031D01*
X100223183Y-117644031D01*
X99077370Y-116878423D01*
X107840830Y-116878423D01*
X108422000Y-117459592D01*
X109003170Y-116878423D01*
X108948225Y-116680615D01*
X108506969Y-116559041D01*
X108052777Y-116615583D01*
X107895775Y-116680615D01*
X107840830Y-116878423D01*
X99077370Y-116878423D01*
X98462544Y-116467610D01*
X98420730Y-116450290D01*
X98366836Y-116427966D01*
X95936796Y-115944602D01*
X95910649Y-115944602D01*
X95885000Y-115939500D01*
X93229500Y-115939500D01*
X93229500Y-95299319D01*
X99205807Y-95299319D01*
X99419004Y-95815295D01*
X99813428Y-96210408D01*
X100329032Y-96424506D01*
X100887319Y-96424993D01*
X100996961Y-96379690D01*
X100952373Y-96487070D01*
X100952227Y-96653798D01*
X101015897Y-96807891D01*
X101080306Y-96872412D01*
X100889768Y-96793294D01*
X100331481Y-96792807D01*
X99815505Y-97006004D01*
X99420392Y-97400428D01*
X99206294Y-97916032D01*
X99205807Y-98474319D01*
X99419004Y-98990295D01*
X99813428Y-99385408D01*
X100329032Y-99599506D01*
X100887319Y-99599993D01*
X101403295Y-99386796D01*
X101798408Y-98992372D01*
X102012506Y-98476768D01*
X102012625Y-98339761D01*
X102425375Y-98339761D01*
X102535350Y-98605921D01*
X102738808Y-98809735D01*
X103004776Y-98920174D01*
X103292761Y-98920425D01*
X103558921Y-98810450D01*
X103762735Y-98606992D01*
X103873174Y-98341024D01*
X103873425Y-98053039D01*
X103763450Y-97786879D01*
X103559992Y-97583065D01*
X103294024Y-97472626D01*
X103006039Y-97472375D01*
X102739879Y-97582350D01*
X102536065Y-97785808D01*
X102425626Y-98051776D01*
X102425375Y-98339761D01*
X102012625Y-98339761D01*
X102012993Y-97918481D01*
X101799796Y-97402505D01*
X101405372Y-97007392D01*
X101363230Y-96989893D01*
X101454398Y-96989973D01*
X101577520Y-96939100D01*
X105057425Y-96939100D01*
X104895505Y-97006004D01*
X104500392Y-97400428D01*
X104286294Y-97916032D01*
X104285807Y-98474319D01*
X104499004Y-98990295D01*
X104828484Y-99320351D01*
X102656163Y-99320351D01*
X102548911Y-99212911D01*
X102394930Y-99148973D01*
X102228202Y-99148827D01*
X102074109Y-99212497D01*
X101956111Y-99330289D01*
X101892173Y-99484270D01*
X101892027Y-99650998D01*
X101955697Y-99805091D01*
X102073489Y-99923089D01*
X102227470Y-99987027D01*
X102394198Y-99987173D01*
X102471213Y-99955351D01*
X115627149Y-99955351D01*
X115748651Y-99931183D01*
X115851655Y-99862357D01*
X117081300Y-98632713D01*
X117081300Y-98729800D01*
X117102324Y-98835494D01*
X117105468Y-98851302D01*
X117174294Y-98954306D01*
X124472700Y-106252712D01*
X124472700Y-114808000D01*
X124493724Y-114913694D01*
X124496868Y-114929502D01*
X124565694Y-115032506D01*
X130492500Y-120959313D01*
X130492500Y-127350673D01*
X130260748Y-127446431D01*
X129987391Y-127719311D01*
X129857500Y-128032124D01*
X129857500Y-121869200D01*
X129833332Y-121747698D01*
X129764506Y-121644694D01*
X123761500Y-115641688D01*
X123761500Y-107895034D01*
X123799089Y-107857511D01*
X123863027Y-107703530D01*
X123863173Y-107536802D01*
X123799503Y-107382709D01*
X123681711Y-107264711D01*
X123527730Y-107200773D01*
X123361002Y-107200627D01*
X123206909Y-107264297D01*
X123088911Y-107382089D01*
X123024973Y-107536070D01*
X123024827Y-107702798D01*
X123088497Y-107856891D01*
X123126500Y-107894960D01*
X123126500Y-115773200D01*
X123146729Y-115874897D01*
X123150668Y-115894702D01*
X123219494Y-115997706D01*
X129222500Y-122000712D01*
X129222500Y-128032785D01*
X129093569Y-127720748D01*
X128820689Y-127447391D01*
X128587500Y-127350563D01*
X128587500Y-123266200D01*
X128563332Y-123144698D01*
X128494506Y-123041694D01*
X113130210Y-107677398D01*
X117563827Y-107677398D01*
X117627497Y-107831491D01*
X117665500Y-107869560D01*
X117665500Y-111484766D01*
X117627911Y-111522289D01*
X117563973Y-111676270D01*
X117563827Y-111842998D01*
X117627497Y-111997091D01*
X117745289Y-112115089D01*
X117899270Y-112179027D01*
X118065998Y-112179173D01*
X118220091Y-112115503D01*
X118338089Y-111997711D01*
X118402027Y-111843730D01*
X118402173Y-111677002D01*
X118338503Y-111522909D01*
X118300500Y-111484840D01*
X118300500Y-107869634D01*
X118338089Y-107832111D01*
X118402027Y-107678130D01*
X118402027Y-107677398D01*
X120230827Y-107677398D01*
X120294497Y-107831491D01*
X120332500Y-107869560D01*
X120332500Y-111484766D01*
X120294911Y-111522289D01*
X120230973Y-111676270D01*
X120230827Y-111842998D01*
X120294497Y-111997091D01*
X120412289Y-112115089D01*
X120566270Y-112179027D01*
X120732998Y-112179173D01*
X120887091Y-112115503D01*
X121005089Y-111997711D01*
X121069027Y-111843730D01*
X121069173Y-111677002D01*
X121005503Y-111522909D01*
X120967500Y-111484840D01*
X120967500Y-107869634D01*
X121005089Y-107832111D01*
X121069027Y-107678130D01*
X121069173Y-107511402D01*
X121005503Y-107357309D01*
X120887711Y-107239311D01*
X120733730Y-107175373D01*
X120567002Y-107175227D01*
X120412909Y-107238897D01*
X120294911Y-107356689D01*
X120230973Y-107510670D01*
X120230827Y-107677398D01*
X118402027Y-107677398D01*
X118402173Y-107511402D01*
X118338503Y-107357309D01*
X118220711Y-107239311D01*
X118066730Y-107175373D01*
X117900002Y-107175227D01*
X117745909Y-107238897D01*
X117627911Y-107356689D01*
X117563973Y-107510670D01*
X117563827Y-107677398D01*
X113130210Y-107677398D01*
X107937326Y-102484514D01*
X107937373Y-102431402D01*
X107873703Y-102277309D01*
X107755911Y-102159311D01*
X107601930Y-102095373D01*
X107435202Y-102095227D01*
X107281109Y-102158897D01*
X107163111Y-102276689D01*
X107099173Y-102430670D01*
X107099027Y-102597398D01*
X107162697Y-102751491D01*
X107280489Y-102869489D01*
X107434470Y-102933427D01*
X107488262Y-102933474D01*
X127952500Y-123397712D01*
X127952500Y-127350673D01*
X127720748Y-127446431D01*
X127447391Y-127719311D01*
X127299269Y-128076029D01*
X127298932Y-128462277D01*
X127446431Y-128819252D01*
X127719311Y-129092609D01*
X128076029Y-129240731D01*
X128462277Y-129241068D01*
X128819252Y-129093569D01*
X129092609Y-128820689D01*
X129222500Y-128507876D01*
X129222500Y-129408487D01*
X128695556Y-129935431D01*
X128463971Y-129839269D01*
X128077723Y-129838932D01*
X127720748Y-129986431D01*
X127447391Y-130259311D01*
X127299269Y-130616029D01*
X127298932Y-131002277D01*
X127446431Y-131359252D01*
X127719311Y-131632609D01*
X128076029Y-131780731D01*
X128462277Y-131781068D01*
X128819252Y-131633569D01*
X129092609Y-131360689D01*
X129240731Y-131003971D01*
X129240732Y-131002277D01*
X129838932Y-131002277D01*
X129986431Y-131359252D01*
X130259311Y-131632609D01*
X130616029Y-131780731D01*
X131002277Y-131781068D01*
X131359252Y-131633569D01*
X131632609Y-131360689D01*
X131780731Y-131003971D01*
X131781068Y-130617723D01*
X131633569Y-130260748D01*
X131465617Y-130092502D01*
X144150370Y-130092502D01*
X144165405Y-131603087D01*
X144714554Y-132928851D01*
X145187066Y-133308526D01*
X147685592Y-130810000D01*
X145187066Y-128311474D01*
X144714554Y-128691149D01*
X144150370Y-130092502D01*
X131465617Y-130092502D01*
X131360689Y-129987391D01*
X131003971Y-129839269D01*
X130617723Y-129838932D01*
X130260748Y-129986431D01*
X129987391Y-130259311D01*
X129839269Y-130616029D01*
X129838932Y-131002277D01*
X129240732Y-131002277D01*
X129241068Y-130617723D01*
X129144647Y-130384366D01*
X129764506Y-129764507D01*
X129833332Y-129661502D01*
X129840319Y-129626375D01*
X129857500Y-129540000D01*
X129857500Y-128507215D01*
X129986431Y-128819252D01*
X130259311Y-129092609D01*
X130616029Y-129240731D01*
X131002277Y-129241068D01*
X131359252Y-129093569D01*
X131632609Y-128820689D01*
X131780731Y-128463971D01*
X131781068Y-128077723D01*
X131766335Y-128042066D01*
X145456474Y-128042066D01*
X147955000Y-130540592D01*
X150453526Y-128042066D01*
X150073851Y-127569554D01*
X148672498Y-127005370D01*
X147161913Y-127020405D01*
X145836149Y-127569554D01*
X145456474Y-128042066D01*
X131766335Y-128042066D01*
X131633569Y-127720748D01*
X131360689Y-127447391D01*
X131127500Y-127350563D01*
X131127500Y-120827800D01*
X131103332Y-120706298D01*
X131064051Y-120647510D01*
X131034507Y-120603294D01*
X126744611Y-116313398D01*
X143040027Y-116313398D01*
X143103697Y-116467491D01*
X143221489Y-116585489D01*
X143375470Y-116649427D01*
X143542198Y-116649573D01*
X143696291Y-116585903D01*
X143734360Y-116547900D01*
X147751800Y-116547900D01*
X147873302Y-116523732D01*
X147976306Y-116454906D01*
X148670686Y-115760526D01*
X148723798Y-115760573D01*
X148877891Y-115696903D01*
X148995889Y-115579111D01*
X149059827Y-115425130D01*
X149059874Y-115371339D01*
X149068506Y-115362707D01*
X149137332Y-115259702D01*
X149145249Y-115219898D01*
X149161500Y-115138200D01*
X149161500Y-113813234D01*
X149199089Y-113775711D01*
X149263027Y-113621730D01*
X149263173Y-113455002D01*
X149199503Y-113300909D01*
X149081711Y-113182911D01*
X148927730Y-113118973D01*
X148761002Y-113118827D01*
X148606909Y-113182497D01*
X148488911Y-113300289D01*
X148424973Y-113454270D01*
X148424827Y-113620998D01*
X148488497Y-113775091D01*
X148526500Y-113813160D01*
X148526500Y-114935161D01*
X148403709Y-114985897D01*
X148285711Y-115103689D01*
X148221773Y-115257670D01*
X148221726Y-115311461D01*
X147620288Y-115912900D01*
X143734434Y-115912900D01*
X143696911Y-115875311D01*
X143542930Y-115811373D01*
X143376202Y-115811227D01*
X143222109Y-115874897D01*
X143104111Y-115992689D01*
X143040173Y-116146670D01*
X143040027Y-116313398D01*
X126744611Y-116313398D01*
X125881011Y-115449798D01*
X144259227Y-115449798D01*
X144322897Y-115603891D01*
X144440689Y-115721889D01*
X144594670Y-115785827D01*
X144761398Y-115785973D01*
X144915491Y-115722303D01*
X145033489Y-115604511D01*
X145097427Y-115450530D01*
X145097573Y-115283802D01*
X145033903Y-115129709D01*
X144995900Y-115091640D01*
X144995900Y-108774932D01*
X145831266Y-107939567D01*
X145856233Y-107956249D01*
X146227057Y-108030010D01*
X147803343Y-108030010D01*
X148174167Y-107956249D01*
X148488537Y-107746194D01*
X148698592Y-107431824D01*
X148772353Y-107061000D01*
X148698592Y-106690176D01*
X148488537Y-106375806D01*
X148174167Y-106165751D01*
X147803343Y-106091990D01*
X146227057Y-106091990D01*
X145856233Y-106165751D01*
X145541863Y-106375806D01*
X145331808Y-106690176D01*
X145258047Y-107061000D01*
X145331808Y-107431824D01*
X145375537Y-107497270D01*
X144453894Y-108418914D01*
X144385068Y-108521918D01*
X144360900Y-108643420D01*
X144360900Y-115091566D01*
X144323311Y-115129089D01*
X144259373Y-115283070D01*
X144259227Y-115449798D01*
X125881011Y-115449798D01*
X125107700Y-114676488D01*
X125107700Y-106121200D01*
X125083791Y-106000998D01*
X127342827Y-106000998D01*
X127406497Y-106155091D01*
X127524289Y-106273089D01*
X127678270Y-106337027D01*
X127844998Y-106337173D01*
X127999091Y-106273503D01*
X128037160Y-106235500D01*
X130026766Y-106235500D01*
X130064289Y-106273089D01*
X130218270Y-106337027D01*
X130384998Y-106337173D01*
X130539091Y-106273503D01*
X130657089Y-106155711D01*
X130721027Y-106001730D01*
X130721173Y-105835002D01*
X130657503Y-105680909D01*
X130539711Y-105562911D01*
X130385730Y-105498973D01*
X130219002Y-105498827D01*
X130064909Y-105562497D01*
X130026840Y-105600500D01*
X128037234Y-105600500D01*
X127999711Y-105562911D01*
X127845730Y-105498973D01*
X127679002Y-105498827D01*
X127524909Y-105562497D01*
X127406911Y-105680289D01*
X127342973Y-105834270D01*
X127342827Y-106000998D01*
X125083791Y-106000998D01*
X125083532Y-105999698D01*
X125014706Y-105896694D01*
X121055010Y-101936998D01*
X121412427Y-101936998D01*
X121476097Y-102091091D01*
X121593889Y-102209089D01*
X121747870Y-102273027D01*
X121914598Y-102273173D01*
X122068691Y-102209503D01*
X122106760Y-102171500D01*
X129662488Y-102171500D01*
X129882874Y-102391886D01*
X129882827Y-102444998D01*
X129946497Y-102599091D01*
X130064289Y-102717089D01*
X130218270Y-102781027D01*
X130384998Y-102781173D01*
X130441701Y-102757744D01*
X130441701Y-103805287D01*
X129855488Y-104391500D01*
X125690234Y-104391500D01*
X125652711Y-104353911D01*
X125498730Y-104289973D01*
X125332002Y-104289827D01*
X125177909Y-104353497D01*
X125059911Y-104471289D01*
X124995973Y-104625270D01*
X124995827Y-104791998D01*
X125059497Y-104946091D01*
X125177289Y-105064089D01*
X125331270Y-105128027D01*
X125497998Y-105128173D01*
X125652091Y-105064503D01*
X125690160Y-105026500D01*
X129987000Y-105026500D01*
X130108502Y-105002332D01*
X130211506Y-104933506D01*
X130624012Y-104521000D01*
X145258047Y-104521000D01*
X145331808Y-104891824D01*
X145541863Y-105206194D01*
X145856233Y-105416249D01*
X146227057Y-105490010D01*
X147803343Y-105490010D01*
X148174167Y-105416249D01*
X148488537Y-105206194D01*
X148698592Y-104891824D01*
X148772353Y-104521000D01*
X148698592Y-104150176D01*
X148488537Y-103835806D01*
X148174167Y-103625751D01*
X147803343Y-103551990D01*
X146227057Y-103551990D01*
X145856233Y-103625751D01*
X145541863Y-103835806D01*
X145331808Y-104150176D01*
X145258047Y-104521000D01*
X130624012Y-104521000D01*
X130983707Y-104161305D01*
X131052533Y-104058301D01*
X131076701Y-103936799D01*
X131076701Y-101981000D01*
X145258047Y-101981000D01*
X145331808Y-102351824D01*
X145541863Y-102666194D01*
X145856233Y-102876249D01*
X146227057Y-102950010D01*
X147803343Y-102950010D01*
X148174167Y-102876249D01*
X148488537Y-102666194D01*
X148698592Y-102351824D01*
X148772353Y-101981000D01*
X148698592Y-101610176D01*
X148488537Y-101295806D01*
X148174167Y-101085751D01*
X147803343Y-101011990D01*
X146227057Y-101011990D01*
X145856233Y-101085751D01*
X145541863Y-101295806D01*
X145331808Y-101610176D01*
X145258047Y-101981000D01*
X131076701Y-101981000D01*
X131076701Y-99441000D01*
X145258047Y-99441000D01*
X145331808Y-99811824D01*
X145541863Y-100126194D01*
X145856233Y-100336249D01*
X146227057Y-100410010D01*
X147803343Y-100410010D01*
X148174167Y-100336249D01*
X148488537Y-100126194D01*
X148698592Y-99811824D01*
X148772353Y-99441000D01*
X148698592Y-99070176D01*
X148488537Y-98755806D01*
X148174167Y-98545751D01*
X147803343Y-98471990D01*
X146227057Y-98471990D01*
X145856233Y-98545751D01*
X145541863Y-98755806D01*
X145331808Y-99070176D01*
X145258047Y-99441000D01*
X131076701Y-99441000D01*
X131076701Y-98865001D01*
X131052533Y-98743499D01*
X131051865Y-98742500D01*
X130983708Y-98640495D01*
X129244213Y-96901000D01*
X145258047Y-96901000D01*
X145331808Y-97271824D01*
X145541863Y-97586194D01*
X145856233Y-97796249D01*
X146227057Y-97870010D01*
X147803343Y-97870010D01*
X148174167Y-97796249D01*
X148488537Y-97586194D01*
X148698592Y-97271824D01*
X148772353Y-96901000D01*
X148698592Y-96530176D01*
X148488537Y-96215806D01*
X148174167Y-96005751D01*
X147803343Y-95931990D01*
X146227057Y-95931990D01*
X145856233Y-96005751D01*
X145541863Y-96215806D01*
X145331808Y-96530176D01*
X145258047Y-96901000D01*
X129244213Y-96901000D01*
X128886508Y-96543296D01*
X128886506Y-96543293D01*
X128877926Y-96534714D01*
X128877973Y-96481602D01*
X128814303Y-96327509D01*
X128696511Y-96209511D01*
X128542530Y-96145573D01*
X128375802Y-96145427D01*
X128221709Y-96209097D01*
X128103711Y-96326889D01*
X128039773Y-96480870D01*
X128039627Y-96647598D01*
X128103297Y-96801691D01*
X128221089Y-96919689D01*
X128375070Y-96983627D01*
X128428861Y-96983674D01*
X128437493Y-96992306D01*
X128437496Y-96992308D01*
X130441701Y-98996514D01*
X130441701Y-101966214D01*
X130385730Y-101942973D01*
X130331939Y-101942926D01*
X130018506Y-101629494D01*
X129915502Y-101560668D01*
X129794000Y-101536500D01*
X122106834Y-101536500D01*
X122069311Y-101498911D01*
X121915330Y-101434973D01*
X121748602Y-101434827D01*
X121594509Y-101498497D01*
X121476511Y-101616289D01*
X121412573Y-101770270D01*
X121412427Y-101936998D01*
X121055010Y-101936998D01*
X120039010Y-100920998D01*
X120912427Y-100920998D01*
X120976097Y-101075091D01*
X121093889Y-101193089D01*
X121247870Y-101257027D01*
X121414598Y-101257173D01*
X121568691Y-101193503D01*
X121606760Y-101155500D01*
X129374844Y-101155500D01*
X129374827Y-101174998D01*
X129438497Y-101329091D01*
X129556289Y-101447089D01*
X129710270Y-101511027D01*
X129876998Y-101511173D01*
X130031091Y-101447503D01*
X130149089Y-101329711D01*
X130213027Y-101175730D01*
X130213173Y-101009002D01*
X130149503Y-100854909D01*
X130031711Y-100736911D01*
X129877730Y-100672973D01*
X129823938Y-100672926D01*
X129764506Y-100613494D01*
X129661502Y-100544668D01*
X129540000Y-100520500D01*
X121606834Y-100520500D01*
X121569311Y-100482911D01*
X121415330Y-100418973D01*
X121248602Y-100418827D01*
X121094509Y-100482497D01*
X120976511Y-100600289D01*
X120912573Y-100754270D01*
X120912427Y-100920998D01*
X120039010Y-100920998D01*
X118261010Y-99142998D01*
X119262427Y-99142998D01*
X119326097Y-99297091D01*
X119443889Y-99415089D01*
X119597870Y-99479027D01*
X119764598Y-99479173D01*
X119918691Y-99415503D01*
X119956760Y-99377500D01*
X126978766Y-99377500D01*
X127016289Y-99415089D01*
X127170270Y-99479027D01*
X127336998Y-99479173D01*
X127491091Y-99415503D01*
X127609089Y-99297711D01*
X127673027Y-99143730D01*
X127673173Y-98977002D01*
X127609503Y-98822909D01*
X127491711Y-98704911D01*
X127337730Y-98640973D01*
X127171002Y-98640827D01*
X127016909Y-98704497D01*
X126978840Y-98742500D01*
X119956834Y-98742500D01*
X119919311Y-98704911D01*
X119765330Y-98640973D01*
X119598602Y-98640827D01*
X119444509Y-98704497D01*
X119326511Y-98822289D01*
X119262573Y-98976270D01*
X119262427Y-99142998D01*
X118261010Y-99142998D01*
X117716300Y-98598288D01*
X117716300Y-97997712D01*
X118198918Y-97515094D01*
X118198827Y-97618998D01*
X118262497Y-97773091D01*
X118380289Y-97891089D01*
X118534270Y-97955027D01*
X118588061Y-97955074D01*
X118647493Y-98014506D01*
X118750498Y-98083332D01*
X118872000Y-98107500D01*
X127232766Y-98107500D01*
X127270289Y-98145089D01*
X127424270Y-98209027D01*
X127590998Y-98209173D01*
X127745091Y-98145503D01*
X127863089Y-98027711D01*
X127927027Y-97873730D01*
X127927173Y-97707002D01*
X127863503Y-97552909D01*
X127745711Y-97434911D01*
X127591730Y-97370973D01*
X127425002Y-97370827D01*
X127270909Y-97434497D01*
X127232840Y-97472500D01*
X119037156Y-97472500D01*
X119037173Y-97453002D01*
X118973503Y-97298909D01*
X118855711Y-97180911D01*
X118701730Y-97116973D01*
X118597131Y-97116881D01*
X118724086Y-96989926D01*
X118777198Y-96989973D01*
X118931291Y-96926303D01*
X119049289Y-96808511D01*
X119113227Y-96654530D01*
X119113373Y-96487802D01*
X119049703Y-96333709D01*
X118931911Y-96215711D01*
X118777930Y-96151773D01*
X118706845Y-96151711D01*
X118706973Y-96005202D01*
X118698118Y-95983770D01*
X118700998Y-95983773D01*
X118855091Y-95920103D01*
X118973089Y-95802311D01*
X119037027Y-95648330D01*
X119037173Y-95481602D01*
X118986299Y-95358478D01*
X118986299Y-94647598D01*
X128110027Y-94647598D01*
X128173697Y-94801691D01*
X128291489Y-94919689D01*
X128445470Y-94983627D01*
X128612198Y-94983773D01*
X128766291Y-94920103D01*
X128884289Y-94802311D01*
X128948227Y-94648330D01*
X128948373Y-94481602D01*
X128898542Y-94361000D01*
X145258047Y-94361000D01*
X145331808Y-94731824D01*
X145541863Y-95046194D01*
X145856233Y-95256249D01*
X146227057Y-95330010D01*
X147803343Y-95330010D01*
X148174167Y-95256249D01*
X148488537Y-95046194D01*
X148698592Y-94731824D01*
X148772353Y-94361000D01*
X148698592Y-93990176D01*
X148488537Y-93675806D01*
X148174167Y-93465751D01*
X147803343Y-93391990D01*
X146227057Y-93391990D01*
X145856233Y-93465751D01*
X145541863Y-93675806D01*
X145331808Y-93990176D01*
X145258047Y-94361000D01*
X128898542Y-94361000D01*
X128884703Y-94327509D01*
X128766911Y-94209511D01*
X128612930Y-94145573D01*
X128446202Y-94145427D01*
X128292109Y-94209097D01*
X128174111Y-94326889D01*
X128110173Y-94480870D01*
X128110027Y-94647598D01*
X118986299Y-94647598D01*
X118986299Y-92132598D01*
X128485827Y-92132598D01*
X128549497Y-92286691D01*
X128667289Y-92404689D01*
X128821270Y-92468627D01*
X128987998Y-92468773D01*
X129142091Y-92405103D01*
X129260089Y-92287311D01*
X129324027Y-92133330D01*
X129324074Y-92079538D01*
X129713707Y-91689906D01*
X129782532Y-91586902D01*
X129795243Y-91522998D01*
X130390827Y-91522998D01*
X130454497Y-91677091D01*
X130492500Y-91715160D01*
X130492500Y-92434766D01*
X130454911Y-92472289D01*
X130390973Y-92626270D01*
X130390827Y-92792998D01*
X130454497Y-92947091D01*
X130572289Y-93065089D01*
X130726270Y-93129027D01*
X130892998Y-93129173D01*
X131047091Y-93065503D01*
X131165089Y-92947711D01*
X131229027Y-92793730D01*
X131229173Y-92627002D01*
X131165503Y-92472909D01*
X131127500Y-92434840D01*
X131127500Y-91715234D01*
X131165089Y-91677711D01*
X131229027Y-91523730D01*
X131229173Y-91357002D01*
X131165503Y-91202909D01*
X131047711Y-91084911D01*
X130893730Y-91020973D01*
X130727002Y-91020827D01*
X130572909Y-91084497D01*
X130454911Y-91202289D01*
X130390973Y-91356270D01*
X130390827Y-91522998D01*
X129795243Y-91522998D01*
X129806700Y-91465400D01*
X129806700Y-89973598D01*
X140042827Y-89973598D01*
X140106497Y-90127691D01*
X140224289Y-90245689D01*
X140378270Y-90309627D01*
X140544998Y-90309773D01*
X140699091Y-90246103D01*
X140712201Y-90233015D01*
X144995919Y-90233015D01*
X145189476Y-90641737D01*
X145577915Y-90990679D01*
X146070320Y-91164410D01*
X146824700Y-91164410D01*
X146824700Y-90030300D01*
X147205700Y-90030300D01*
X147205700Y-91164410D01*
X147960080Y-91164410D01*
X148452485Y-90990679D01*
X148840924Y-90641737D01*
X149034481Y-90233015D01*
X148935859Y-90030300D01*
X147205700Y-90030300D01*
X146824700Y-90030300D01*
X145094541Y-90030300D01*
X144995919Y-90233015D01*
X140712201Y-90233015D01*
X140737160Y-90208100D01*
X143670020Y-90208100D01*
X143791522Y-90183932D01*
X143894526Y-90115106D01*
X144563047Y-89446585D01*
X144995919Y-89446585D01*
X145094541Y-89649300D01*
X146824700Y-89649300D01*
X146824700Y-88515190D01*
X147205700Y-88515190D01*
X147205700Y-89649300D01*
X148935859Y-89649300D01*
X149034481Y-89446585D01*
X148840924Y-89037863D01*
X148452485Y-88688921D01*
X147960080Y-88515190D01*
X147205700Y-88515190D01*
X146824700Y-88515190D01*
X146070320Y-88515190D01*
X145577915Y-88688921D01*
X145189476Y-89037863D01*
X144995919Y-89446585D01*
X144563047Y-89446585D01*
X145831266Y-88178367D01*
X145856233Y-88195049D01*
X146227057Y-88268810D01*
X147803343Y-88268810D01*
X148174167Y-88195049D01*
X148488537Y-87984994D01*
X148698592Y-87670624D01*
X148772353Y-87299800D01*
X148698592Y-86928976D01*
X148488537Y-86614606D01*
X148174167Y-86404551D01*
X147803343Y-86330790D01*
X146227057Y-86330790D01*
X145856233Y-86404551D01*
X145541863Y-86614606D01*
X145331808Y-86928976D01*
X145258047Y-87299800D01*
X145331808Y-87670624D01*
X145375537Y-87736070D01*
X143538508Y-89573100D01*
X140737234Y-89573100D01*
X140699711Y-89535511D01*
X140545730Y-89471573D01*
X140379002Y-89471427D01*
X140224909Y-89535097D01*
X140106911Y-89652889D01*
X140042973Y-89806870D01*
X140042827Y-89973598D01*
X129806700Y-89973598D01*
X129806700Y-88072263D01*
X130341662Y-88072263D01*
X130405332Y-88226356D01*
X130443335Y-88264425D01*
X130443335Y-88853366D01*
X130405746Y-88890889D01*
X130341808Y-89044870D01*
X130341662Y-89211598D01*
X130405332Y-89365691D01*
X130523124Y-89483689D01*
X130677105Y-89547627D01*
X130843833Y-89547773D01*
X130997926Y-89484103D01*
X131115924Y-89366311D01*
X131179862Y-89212330D01*
X131180008Y-89045602D01*
X131116338Y-88891509D01*
X131078335Y-88853440D01*
X131078335Y-88264499D01*
X131115924Y-88226976D01*
X131179862Y-88072995D01*
X131180008Y-87906267D01*
X131116338Y-87752174D01*
X131078335Y-87714105D01*
X131078335Y-84759800D01*
X145258047Y-84759800D01*
X145331808Y-85130624D01*
X145541863Y-85444994D01*
X145856233Y-85655049D01*
X146227057Y-85728810D01*
X147803343Y-85728810D01*
X148174167Y-85655049D01*
X148488537Y-85444994D01*
X148698592Y-85130624D01*
X148772353Y-84759800D01*
X148698592Y-84388976D01*
X148488537Y-84074606D01*
X148174167Y-83864551D01*
X147803343Y-83790790D01*
X146227057Y-83790790D01*
X145856233Y-83864551D01*
X145541863Y-84074606D01*
X145331808Y-84388976D01*
X145258047Y-84759800D01*
X131078335Y-84759800D01*
X131078335Y-84356277D01*
X131988814Y-83445798D01*
X148932827Y-83445798D01*
X148996497Y-83599891D01*
X149034500Y-83637960D01*
X149034500Y-85678366D01*
X148996911Y-85715889D01*
X148932973Y-85869870D01*
X148932827Y-86036598D01*
X148996497Y-86190691D01*
X149114289Y-86308689D01*
X149268270Y-86372627D01*
X149434998Y-86372773D01*
X149589091Y-86309103D01*
X149707089Y-86191311D01*
X149771027Y-86037330D01*
X149771173Y-85870602D01*
X149707503Y-85716509D01*
X149669500Y-85678440D01*
X149669500Y-83638034D01*
X149707089Y-83600511D01*
X149771027Y-83446530D01*
X149771173Y-83279802D01*
X149707503Y-83125709D01*
X149589711Y-83007711D01*
X149435730Y-82943773D01*
X149269002Y-82943627D01*
X149114909Y-83007297D01*
X148996911Y-83125089D01*
X148932973Y-83279070D01*
X148932827Y-83445798D01*
X131988814Y-83445798D01*
X132109886Y-83324726D01*
X132162998Y-83324773D01*
X132317091Y-83261103D01*
X132435089Y-83143311D01*
X132490976Y-83008719D01*
X142049410Y-83008719D01*
X142128515Y-83200167D01*
X142274862Y-83346770D01*
X142466172Y-83426209D01*
X142673319Y-83426390D01*
X142864767Y-83347285D01*
X143011370Y-83200938D01*
X143090809Y-83009628D01*
X143090990Y-82802481D01*
X143011885Y-82611033D01*
X142865538Y-82464430D01*
X142674228Y-82384991D01*
X142467081Y-82384810D01*
X142275633Y-82463915D01*
X142129030Y-82610262D01*
X142049591Y-82801572D01*
X142049410Y-83008719D01*
X132490976Y-83008719D01*
X132499027Y-82989330D01*
X132499173Y-82822602D01*
X132435503Y-82668509D01*
X132397500Y-82630440D01*
X132397500Y-75843159D01*
X132626027Y-75748734D01*
X132897779Y-75477456D01*
X133045032Y-75122832D01*
X133045033Y-75121148D01*
X133654633Y-75121148D01*
X133801266Y-75476027D01*
X134072544Y-75747779D01*
X134427168Y-75895032D01*
X134811148Y-75895367D01*
X135166027Y-75748734D01*
X135437779Y-75477456D01*
X135570456Y-75157934D01*
X145456474Y-75157934D01*
X145836149Y-75630446D01*
X147237502Y-76194630D01*
X148748087Y-76179595D01*
X150073851Y-75630446D01*
X150453526Y-75157934D01*
X147955000Y-72659408D01*
X145456474Y-75157934D01*
X135570456Y-75157934D01*
X135585032Y-75122832D01*
X135585367Y-74738852D01*
X135438734Y-74383973D01*
X135167456Y-74112221D01*
X134812832Y-73964968D01*
X134428852Y-73964633D01*
X134073973Y-74111266D01*
X133802221Y-74382544D01*
X133654968Y-74737168D01*
X133654633Y-75121148D01*
X133045033Y-75121148D01*
X133045367Y-74738852D01*
X132898734Y-74383973D01*
X132627456Y-74112221D01*
X132272832Y-73964968D01*
X131888852Y-73964633D01*
X131533973Y-74111266D01*
X131262221Y-74382544D01*
X131114968Y-74737168D01*
X131114633Y-75121148D01*
X131261266Y-75476027D01*
X131532544Y-75747779D01*
X131762500Y-75843265D01*
X131762500Y-82630366D01*
X131724911Y-82667889D01*
X131660973Y-82821870D01*
X131660926Y-82875661D01*
X130568894Y-83967694D01*
X130536329Y-84000259D01*
X130467503Y-84103263D01*
X130443335Y-84224765D01*
X130443335Y-87714031D01*
X130405746Y-87751554D01*
X130341808Y-87905535D01*
X130341662Y-88072263D01*
X129806700Y-88072263D01*
X129806700Y-85797034D01*
X129844289Y-85759511D01*
X129908227Y-85605530D01*
X129908373Y-85438802D01*
X129844703Y-85284709D01*
X129726911Y-85166711D01*
X129572930Y-85102773D01*
X129406202Y-85102627D01*
X129252109Y-85166297D01*
X129134111Y-85284089D01*
X129070173Y-85438070D01*
X129070027Y-85604798D01*
X129133697Y-85758891D01*
X129171700Y-85796960D01*
X129171700Y-91333887D01*
X128875114Y-91630474D01*
X128822002Y-91630427D01*
X128667909Y-91694097D01*
X128549911Y-91811889D01*
X128485973Y-91965870D01*
X128485827Y-92132598D01*
X118986299Y-92132598D01*
X118986299Y-89742713D01*
X119511512Y-89217500D01*
X119866766Y-89217500D01*
X119904289Y-89255089D01*
X120058270Y-89319027D01*
X120224998Y-89319173D01*
X120379091Y-89255503D01*
X120417160Y-89217500D01*
X122152766Y-89217500D01*
X122190289Y-89255089D01*
X122344270Y-89319027D01*
X122398062Y-89319074D01*
X123727493Y-90648506D01*
X123819821Y-90710198D01*
X123830498Y-90717332D01*
X123952000Y-90741500D01*
X124057766Y-90741500D01*
X124095289Y-90779089D01*
X124249270Y-90843027D01*
X124303062Y-90843074D01*
X124870494Y-91410507D01*
X124973498Y-91479332D01*
X125095000Y-91503500D01*
X127486766Y-91503500D01*
X127524289Y-91541089D01*
X127678270Y-91605027D01*
X127844998Y-91605173D01*
X127999091Y-91541503D01*
X128117089Y-91423711D01*
X128181027Y-91269730D01*
X128181173Y-91103002D01*
X128117503Y-90948909D01*
X127999711Y-90830911D01*
X127845730Y-90766973D01*
X127679002Y-90766827D01*
X127524909Y-90830497D01*
X127486840Y-90868500D01*
X126995894Y-90868500D01*
X126999489Y-90864911D01*
X127063427Y-90710930D01*
X127063573Y-90544202D01*
X126999903Y-90390109D01*
X126936499Y-90326594D01*
X126936499Y-89345455D01*
X127224507Y-89057448D01*
X127293332Y-88954444D01*
X127317500Y-88832942D01*
X127317500Y-75843159D01*
X127546027Y-75748734D01*
X127817779Y-75477456D01*
X127965032Y-75122832D01*
X127965033Y-75121148D01*
X128574633Y-75121148D01*
X128721266Y-75476027D01*
X128992544Y-75747779D01*
X129347168Y-75895032D01*
X129731148Y-75895367D01*
X130086027Y-75748734D01*
X130357779Y-75477456D01*
X130505032Y-75122832D01*
X130505367Y-74738852D01*
X130358734Y-74383973D01*
X130087456Y-74112221D01*
X129732832Y-73964968D01*
X129348852Y-73964633D01*
X128993973Y-74111266D01*
X128722221Y-74382544D01*
X128574968Y-74737168D01*
X128574633Y-75121148D01*
X127965033Y-75121148D01*
X127965367Y-74738852D01*
X127818734Y-74383973D01*
X127547456Y-74112221D01*
X127192832Y-73964968D01*
X126808852Y-73964633D01*
X126453973Y-74111266D01*
X126182221Y-74382544D01*
X126072900Y-74645818D01*
X126072900Y-73766112D01*
X126578805Y-73260207D01*
X126807168Y-73355032D01*
X127191148Y-73355367D01*
X127546027Y-73208734D01*
X127817779Y-72937456D01*
X127965032Y-72582832D01*
X127965033Y-72581148D01*
X128574633Y-72581148D01*
X128721266Y-72936027D01*
X128992544Y-73207779D01*
X129347168Y-73355032D01*
X129731148Y-73355367D01*
X130086027Y-73208734D01*
X130357779Y-72937456D01*
X130505032Y-72582832D01*
X130505033Y-72581148D01*
X131114633Y-72581148D01*
X131261266Y-72936027D01*
X131532544Y-73207779D01*
X131887168Y-73355032D01*
X132271148Y-73355367D01*
X132626027Y-73208734D01*
X132897779Y-72937456D01*
X132986673Y-72723375D01*
X133299200Y-72723375D01*
X133299200Y-73252979D01*
X133386206Y-73463029D01*
X133546972Y-73623794D01*
X133757022Y-73710800D01*
X134286625Y-73710800D01*
X134429500Y-73567925D01*
X134429500Y-72580500D01*
X134810500Y-72580500D01*
X134810500Y-73567925D01*
X134953375Y-73710800D01*
X135482978Y-73710800D01*
X135693028Y-73623794D01*
X135853794Y-73463029D01*
X135940800Y-73252979D01*
X135940800Y-72723375D01*
X135797925Y-72580500D01*
X134810500Y-72580500D01*
X134429500Y-72580500D01*
X133442075Y-72580500D01*
X133299200Y-72723375D01*
X132986673Y-72723375D01*
X133045032Y-72582832D01*
X133045367Y-72198852D01*
X132898734Y-71843973D01*
X132627456Y-71572221D01*
X132518603Y-71527021D01*
X133299200Y-71527021D01*
X133299200Y-72056625D01*
X133442075Y-72199500D01*
X134429500Y-72199500D01*
X134429500Y-71212075D01*
X134810500Y-71212075D01*
X134810500Y-72199500D01*
X135797925Y-72199500D01*
X135940800Y-72056625D01*
X135940800Y-71672502D01*
X144150370Y-71672502D01*
X144165405Y-73183087D01*
X144714554Y-74508851D01*
X145187066Y-74888526D01*
X147685592Y-72390000D01*
X145187066Y-69891474D01*
X144714554Y-70271149D01*
X144150370Y-71672502D01*
X135940800Y-71672502D01*
X135940800Y-71527021D01*
X135853794Y-71316971D01*
X135693028Y-71156206D01*
X135482978Y-71069200D01*
X134953375Y-71069200D01*
X134810500Y-71212075D01*
X134429500Y-71212075D01*
X134286625Y-71069200D01*
X133757022Y-71069200D01*
X133546972Y-71156206D01*
X133386206Y-71316971D01*
X133299200Y-71527021D01*
X132518603Y-71527021D01*
X132272832Y-71424968D01*
X131888852Y-71424633D01*
X131533973Y-71571266D01*
X131262221Y-71842544D01*
X131114968Y-72197168D01*
X131114633Y-72581148D01*
X130505033Y-72581148D01*
X130505367Y-72198852D01*
X130358734Y-71843973D01*
X130087456Y-71572221D01*
X129732832Y-71424968D01*
X129348852Y-71424633D01*
X128993973Y-71571266D01*
X128722221Y-71842544D01*
X128574968Y-72197168D01*
X128574633Y-72581148D01*
X127965033Y-72581148D01*
X127965367Y-72198852D01*
X127818734Y-71843973D01*
X127547456Y-71572221D01*
X127192832Y-71424968D01*
X126808852Y-71424633D01*
X126453973Y-71571266D01*
X126182221Y-71842544D01*
X126034968Y-72197168D01*
X126034633Y-72581148D01*
X126129717Y-72811270D01*
X125530894Y-73410094D01*
X125462068Y-73513098D01*
X125437900Y-73634600D01*
X125437900Y-90021840D01*
X125358111Y-89941911D01*
X125204130Y-89877973D01*
X125150339Y-89877926D01*
X124777500Y-89505088D01*
X124777500Y-75843159D01*
X125006027Y-75748734D01*
X125277779Y-75477456D01*
X125425032Y-75122832D01*
X125425367Y-74738852D01*
X125278734Y-74383973D01*
X125007456Y-74112221D01*
X124652832Y-73964968D01*
X124268852Y-73964633D01*
X123913973Y-74111266D01*
X123642221Y-74382544D01*
X123494968Y-74737168D01*
X123494633Y-75121148D01*
X123641266Y-75476027D01*
X123912544Y-75747779D01*
X124142500Y-75843265D01*
X124142500Y-89636600D01*
X124148367Y-89666094D01*
X124166668Y-89758102D01*
X124235494Y-89861106D01*
X124379328Y-90004940D01*
X124250002Y-90004827D01*
X124095909Y-90068497D01*
X124070687Y-90093675D01*
X122847126Y-88870114D01*
X122847173Y-88817002D01*
X122783503Y-88662909D01*
X122665711Y-88544911D01*
X122511730Y-88480973D01*
X122345002Y-88480827D01*
X122190909Y-88544497D01*
X122152840Y-88582500D01*
X120417234Y-88582500D01*
X120379711Y-88544911D01*
X120225730Y-88480973D01*
X120059002Y-88480827D01*
X119904909Y-88544497D01*
X119866840Y-88582500D01*
X119380000Y-88582500D01*
X119258498Y-88606668D01*
X119155494Y-88675494D01*
X118444293Y-89386695D01*
X118375467Y-89489699D01*
X118351299Y-89611201D01*
X118351299Y-95238655D01*
X118262911Y-95326889D01*
X118198973Y-95480870D01*
X118198827Y-95647598D01*
X118207682Y-95669030D01*
X118204802Y-95669027D01*
X118050709Y-95732697D01*
X117932711Y-95850489D01*
X117868773Y-96004470D01*
X117868726Y-96058261D01*
X117622888Y-96304100D01*
X106259902Y-96304100D01*
X106483295Y-96211796D01*
X106878408Y-95817372D01*
X107092506Y-95301768D01*
X107092993Y-94743481D01*
X106879796Y-94227505D01*
X106485372Y-93832392D01*
X105969768Y-93618294D01*
X105411481Y-93617807D01*
X104895505Y-93831004D01*
X104500392Y-94225428D01*
X104286294Y-94741032D01*
X104285807Y-95299319D01*
X104499004Y-95815295D01*
X104893428Y-96210408D01*
X105119063Y-96304100D01*
X101697346Y-96304100D01*
X101609111Y-96215711D01*
X101460987Y-96154205D01*
X101798408Y-95817372D01*
X102012506Y-95301768D01*
X102012993Y-94743481D01*
X101799796Y-94227505D01*
X101405372Y-93832392D01*
X100889768Y-93618294D01*
X100331481Y-93617807D01*
X99815505Y-93831004D01*
X99420392Y-94225428D01*
X99206294Y-94741032D01*
X99205807Y-95299319D01*
X93229500Y-95299319D01*
X93229500Y-93259761D01*
X101409375Y-93259761D01*
X101519350Y-93525921D01*
X101722808Y-93729735D01*
X101988776Y-93840174D01*
X102276761Y-93840425D01*
X102542921Y-93730450D01*
X102746735Y-93526992D01*
X102857174Y-93261024D01*
X102857175Y-93259761D01*
X103441375Y-93259761D01*
X103551350Y-93525921D01*
X103754808Y-93729735D01*
X104020776Y-93840174D01*
X104308761Y-93840425D01*
X104574921Y-93730450D01*
X104778735Y-93526992D01*
X104889174Y-93261024D01*
X104889425Y-92973039D01*
X104779450Y-92706879D01*
X104575992Y-92503065D01*
X104310024Y-92392626D01*
X104022039Y-92392375D01*
X103755879Y-92502350D01*
X103552065Y-92705808D01*
X103441626Y-92971776D01*
X103441375Y-93259761D01*
X102857175Y-93259761D01*
X102857425Y-92973039D01*
X102747450Y-92706879D01*
X102543992Y-92503065D01*
X102278024Y-92392626D01*
X101990039Y-92392375D01*
X101723879Y-92502350D01*
X101520065Y-92705808D01*
X101409626Y-92971776D01*
X101409375Y-93259761D01*
X93229500Y-93259761D01*
X93229500Y-87260500D01*
X95885000Y-87260500D01*
X95910649Y-87255398D01*
X95936796Y-87255398D01*
X98366836Y-86772034D01*
X98422900Y-86748811D01*
X98462544Y-86732390D01*
X100522632Y-85355883D01*
X100595883Y-85282632D01*
X101972390Y-83222544D01*
X102012033Y-83126837D01*
X102012033Y-83126836D01*
X102495398Y-80696797D01*
X102495398Y-80670649D01*
X102500500Y-80645000D01*
X102500500Y-75157934D01*
X103546474Y-75157934D01*
X103926149Y-75630446D01*
X105327502Y-76194630D01*
X106838087Y-76179595D01*
X107500550Y-75905194D01*
X118674214Y-75905194D01*
X118750522Y-76120501D01*
X119254023Y-76270771D01*
X119776703Y-76216919D01*
X120009478Y-76120501D01*
X120085786Y-75905194D01*
X119380000Y-75199408D01*
X118674214Y-75905194D01*
X107500550Y-75905194D01*
X108163851Y-75630446D01*
X108543526Y-75157934D01*
X106045000Y-72659408D01*
X103546474Y-75157934D01*
X102500500Y-75157934D01*
X102500500Y-73774799D01*
X102804554Y-74508851D01*
X103277066Y-74888526D01*
X105775592Y-72390000D01*
X106314408Y-72390000D01*
X108812934Y-74888526D01*
X108918099Y-74804023D01*
X118039229Y-74804023D01*
X118093081Y-75326703D01*
X118189499Y-75559478D01*
X118404806Y-75635786D01*
X119110592Y-74930000D01*
X119649408Y-74930000D01*
X120355194Y-75635786D01*
X120570501Y-75559478D01*
X120701320Y-75121148D01*
X120954633Y-75121148D01*
X121101266Y-75476027D01*
X121372544Y-75747779D01*
X121727168Y-75895032D01*
X122111148Y-75895367D01*
X122466027Y-75748734D01*
X122737779Y-75477456D01*
X122885032Y-75122832D01*
X122885367Y-74738852D01*
X122738734Y-74383973D01*
X122467456Y-74112221D01*
X122112832Y-73964968D01*
X121728852Y-73964633D01*
X121373973Y-74111266D01*
X121102221Y-74382544D01*
X120954968Y-74737168D01*
X120954633Y-75121148D01*
X120701320Y-75121148D01*
X120720771Y-75055977D01*
X120666919Y-74533297D01*
X120570501Y-74300522D01*
X120355194Y-74224214D01*
X119649408Y-74930000D01*
X119110592Y-74930000D01*
X118404806Y-74224214D01*
X118189499Y-74300522D01*
X118039229Y-74804023D01*
X108918099Y-74804023D01*
X109285446Y-74508851D01*
X109508504Y-73954806D01*
X118674214Y-73954806D01*
X119380000Y-74660592D01*
X120085786Y-73954806D01*
X120009478Y-73739499D01*
X119505977Y-73589229D01*
X118983297Y-73643081D01*
X118750522Y-73739499D01*
X118674214Y-73954806D01*
X109508504Y-73954806D01*
X109849630Y-73107498D01*
X109844392Y-72581148D01*
X118414633Y-72581148D01*
X118561266Y-72936027D01*
X118832544Y-73207779D01*
X119187168Y-73355032D01*
X119571148Y-73355367D01*
X119926027Y-73208734D01*
X120197779Y-72937456D01*
X120345032Y-72582832D01*
X120345033Y-72581148D01*
X120954633Y-72581148D01*
X121101266Y-72936027D01*
X121372544Y-73207779D01*
X121727168Y-73355032D01*
X122111148Y-73355367D01*
X122466027Y-73208734D01*
X122737779Y-72937456D01*
X122885032Y-72582832D01*
X122885033Y-72581148D01*
X123494633Y-72581148D01*
X123641266Y-72936027D01*
X123912544Y-73207779D01*
X124267168Y-73355032D01*
X124651148Y-73355367D01*
X125006027Y-73208734D01*
X125277779Y-72937456D01*
X125425032Y-72582832D01*
X125425367Y-72198852D01*
X125278734Y-71843973D01*
X125007456Y-71572221D01*
X124652832Y-71424968D01*
X124268852Y-71424633D01*
X123913973Y-71571266D01*
X123642221Y-71842544D01*
X123494968Y-72197168D01*
X123494633Y-72581148D01*
X122885033Y-72581148D01*
X122885367Y-72198852D01*
X122738734Y-71843973D01*
X122467456Y-71572221D01*
X122112832Y-71424968D01*
X121728852Y-71424633D01*
X121373973Y-71571266D01*
X121102221Y-71842544D01*
X120954968Y-72197168D01*
X120954633Y-72581148D01*
X120345033Y-72581148D01*
X120345367Y-72198852D01*
X120198734Y-71843973D01*
X119927456Y-71572221D01*
X119572832Y-71424968D01*
X119188852Y-71424633D01*
X118833973Y-71571266D01*
X118562221Y-71842544D01*
X118414968Y-72197168D01*
X118414633Y-72581148D01*
X109844392Y-72581148D01*
X109834595Y-71596913D01*
X109285446Y-70271149D01*
X108812934Y-69891474D01*
X106314408Y-72390000D01*
X105775592Y-72390000D01*
X103277066Y-69891474D01*
X102804554Y-70271149D01*
X102500500Y-71026376D01*
X102500500Y-68845500D01*
X104660201Y-68845500D01*
X103926149Y-69149554D01*
M02*
