M48
;DRILL file {KiCad (2016-07-14 BZR 6979)-product} date Monday, September 04, 2017 'PMt' 06:11:34 PM
;FORMAT={2:4/ absolute / inch / suppress leading zeros}
FMAT,2
INCH,TZ
T1C0.008
T2C0.016
T3C0.026
T4C0.039
T5C0.039
T6C0.040
T7C0.128
T8C0.040
T9C0.093
%
G90
G05
M72
T1
X39910Y-38020
X40280Y-39200
X42330Y-40360
X42700Y-37700
X43500Y-35400
X44110Y-42960
X45400Y-37500
X46200Y-39600
X46570Y-37830
X46700Y-37624
X46700Y-38400
X46730Y-38020
X46900Y-35800
X47119Y-39000
X47300Y-35000
X47500Y-42360
X47500Y-44000
X47697Y-36568
X47697Y-37075
X47697Y-37582
X47697Y-38089
X47768Y-39700
X47965Y-40100
X48200Y-35000
X48204Y-36568
X48204Y-37075
X48204Y-37582
X48204Y-38089
X48600Y-42370
X48711Y-36568
X48711Y-37075
X48711Y-37582
X48711Y-38089
X48950Y-35600
X49218Y-36568
X49218Y-37075
X49218Y-37582
X49218Y-38089
X49260Y-35550
X49376Y-41224
X49510Y-35620
X49720Y-32670
X49721Y-33191
X49860Y-35680
X50030Y-35210
X50100Y-39000
X50200Y-38500
X50280Y-37670
X50300Y-35900
X50300Y-41700
X50574Y-38018
X50602Y-37230
X50750Y-36240
X50980Y-33670
X51100Y-39800
X51300Y-40300
X51300Y-41700
X51350Y-31900
X51370Y-30940
X51481Y-34641
X51481Y-35090
X51500Y-36000
X51500Y-36500
X51730Y-37620
X51891Y-34191
X52000Y-32640
X55170Y-31560
X55300Y-35390
X55470Y-46060
X56480Y-45760
X56960Y-45420
X58380Y-44450
X58520Y-45410
X58600Y-44700
X58800Y-32820
X58800Y-33840
T2
X56130Y-32640
T3
X42686Y-46350
X44100Y-46350
X44100Y-47764
T4
X47000Y-28500
X47000Y-29500
X48000Y-28500
X48000Y-29500
X49000Y-28500
X49000Y-29500
X50000Y-28500
X50000Y-29500
X51000Y-28500
X51000Y-29500
X52000Y-28500
X52000Y-29500
X53000Y-28500
X53000Y-29500
T5
X57880Y-33370
X57880Y-34370
X57880Y-35370
X57880Y-37150
X57880Y-38150
X57880Y-39150
X57880Y-40150
X57880Y-41150
X57880Y-42150
T6
X48500Y-50500
X48500Y-51500
X49500Y-50500
X49500Y-51500
X50500Y-50500
X50500Y-51500
X51500Y-50500
X51500Y-51500
T7
X41750Y-28500
X41750Y-51500
X58250Y-28500
X58250Y-51500
T8
X40210Y-36660
X40610Y-38660
X41010Y-36660
T9
X39610Y-37410
X39610Y-38660
X41610Y-37410
X41610Y-38660
T0
M30
