G75*
%MOIN*%
%OFA0B0*%
%FSLAX24Y24*%
%IPPOS*%
%LPD*%
%AMOC8*
5,1,8,0,0,1.08239X$1,22.5*
%
%ADD10C,0.0080*%
%ADD11R,0.1811X0.1811*%
%ADD12R,0.0157X0.0531*%
%ADD13R,0.0827X0.0787*%
%ADD14R,0.0630X0.0748*%
%ADD15R,0.0472X0.0748*%
%ADD16C,0.0310*%
%ADD17R,0.0180X0.0180*%
%ADD18R,0.0315X0.0669*%
%ADD19R,0.0315X0.0945*%
%ADD20C,0.0087*%
%ADD21C,0.0100*%
%ADD22C,0.0700*%
%ADD23C,0.0410*%
%ADD24C,0.0118*%
%ADD25R,0.0965X0.0965*%
%ADD26R,0.0211X0.0215*%
%ADD27R,0.0354X0.0315*%
%ADD28R,0.0215X0.0211*%
%ADD29R,0.0472X0.0236*%
%ADD30C,0.0177*%
%ADD31R,0.0630X0.0984*%
%ADD32R,0.0098X0.0315*%
%ADD33R,0.0098X0.0256*%
%ADD34R,0.0118X0.0315*%
%ADD35R,0.0315X0.0118*%
%ADD36C,0.0110*%
%ADD37R,0.2362X0.2362*%
%ADD38R,0.0374X0.0394*%
%ADD39R,0.0315X0.0315*%
%ADD40C,0.0160*%
%ADD41C,0.0240*%
%ADD42C,0.0150*%
D10*
X002801Y003662D02*
X002701Y003762D01*
X002801Y003662D02*
X003101Y003662D01*
X003351Y003912D02*
X003795Y003912D01*
X004151Y004268D01*
X004151Y004662D01*
X004351Y004862D01*
X004501Y004862D01*
X004351Y005112D02*
X004351Y005212D01*
X004491Y005352D01*
X004491Y005552D01*
X004491Y005893D02*
X004568Y005970D01*
X004568Y006731D01*
X004372Y006731D02*
X004372Y006532D01*
X004301Y006462D01*
X004175Y006588D01*
X004175Y006731D01*
X004275Y007036D02*
X004351Y007112D01*
X004275Y007036D02*
X003870Y007036D01*
X003870Y007232D02*
X004072Y007232D01*
X004251Y007412D01*
X004065Y007626D02*
X004251Y007812D01*
X004251Y008012D01*
X004106Y008217D02*
X004251Y008362D01*
X004251Y008462D01*
X004106Y008217D02*
X003870Y008217D01*
X003870Y008414D02*
X003479Y008414D01*
X003451Y008442D01*
X003110Y008783D01*
X002951Y008783D01*
X002951Y008442D02*
X002951Y008133D01*
X002951Y008442D02*
X003072Y008442D01*
X003351Y008162D01*
X003401Y007962D02*
X003301Y007862D01*
X003401Y007962D02*
X003701Y007962D01*
X003759Y008020D01*
X003870Y008020D01*
X003870Y007823D02*
X003632Y007823D01*
X003561Y007752D01*
X003351Y007612D02*
X003541Y007422D01*
X003541Y007322D01*
X003451Y007012D02*
X003661Y006802D01*
X003451Y007012D02*
X003392Y007012D01*
X003348Y006715D02*
X003348Y006578D01*
X003414Y006512D01*
X003751Y006512D01*
X003722Y006262D02*
X003751Y006233D01*
X004072Y006233D01*
X004101Y006262D01*
X004091Y005893D02*
X003752Y005893D01*
X003751Y005892D01*
X003551Y005892D01*
X003351Y005692D01*
X003171Y005692D01*
X002954Y005909D01*
X002954Y006076D01*
X003151Y006046D02*
X003151Y006212D01*
X003201Y006262D01*
X003722Y006262D01*
X004091Y005893D02*
X004491Y005893D01*
X004851Y005912D02*
X004881Y005942D01*
X004881Y006212D01*
X005151Y006483D01*
X005151Y006723D01*
X005159Y006731D01*
X005159Y008020D01*
X005651Y008512D01*
X005356Y008807D01*
X003870Y008807D01*
X003476Y008807D01*
X003451Y008783D01*
X003862Y009012D02*
X002551Y009012D01*
X002451Y009112D01*
X002451Y009292D01*
X001951Y009792D01*
X001951Y010112D01*
X002251Y010112D01*
X002531Y009582D02*
X002531Y009432D01*
X002762Y009201D01*
X003870Y009201D01*
X003862Y009012D02*
X003870Y009004D01*
X003870Y009398D02*
X003005Y009398D01*
X002811Y009592D01*
X003118Y009595D02*
X002801Y009912D01*
X003118Y009595D02*
X003870Y009595D01*
X004151Y010012D02*
X004301Y010012D01*
X004372Y010082D01*
X004372Y010294D01*
X004568Y010294D02*
X004568Y010495D01*
X004501Y010562D01*
X003001Y010562D01*
X002801Y010362D01*
X002801Y010662D02*
X002851Y010712D01*
X004601Y010712D01*
X004765Y010548D01*
X004765Y010294D01*
X004962Y010294D02*
X004962Y010123D01*
X004851Y010012D01*
X004751Y010012D01*
X004651Y009912D01*
X004962Y010294D02*
X004962Y010551D01*
X004651Y010862D01*
X003337Y010862D01*
X003080Y011118D01*
X002874Y011118D01*
X002381Y011612D01*
X002722Y011612D02*
X002722Y012203D01*
X002881Y012362D01*
X002901Y012362D01*
X002722Y011612D02*
X002822Y011512D01*
X003080Y011512D01*
X003401Y010412D02*
X003351Y010362D01*
X003401Y010412D02*
X004056Y010412D01*
X004175Y010294D01*
X003951Y010212D02*
X004151Y010012D01*
X003951Y010212D02*
X003651Y010212D01*
X004328Y011012D02*
X004222Y011118D01*
X004328Y011012D02*
X004701Y011012D01*
X005159Y010554D01*
X005159Y010294D01*
X005159Y009970D01*
X005101Y009912D01*
X005356Y010007D02*
X005356Y010294D01*
X005553Y010294D02*
X005553Y010110D01*
X005751Y009912D01*
X005901Y009912D01*
X005946Y010294D02*
X005946Y010467D01*
X005901Y010562D01*
X005901Y010842D01*
X005951Y010942D01*
X006351Y010942D01*
X006340Y010853D01*
X006340Y010294D01*
X006537Y010294D02*
X006537Y009998D01*
X006451Y009912D01*
X006734Y010294D02*
X006734Y010759D01*
X006701Y010692D01*
X006931Y010492D02*
X006931Y010294D01*
X006931Y010492D02*
X007051Y010612D01*
X007051Y011281D01*
X007346Y011576D01*
X007110Y011812D01*
X006781Y011812D01*
X006701Y011733D01*
X006551Y011962D02*
X007301Y011962D01*
X007401Y012062D01*
X007401Y012211D01*
X007204Y012211D02*
X007204Y012565D01*
X007401Y012762D01*
X007007Y013156D01*
X007007Y013313D01*
X007204Y013313D02*
X007204Y013765D01*
X007251Y013812D01*
X007351Y014142D02*
X007598Y013895D01*
X007598Y013313D01*
X007795Y013313D02*
X008351Y013870D01*
X008594Y014112D01*
X008951Y014112D01*
X008922Y014142D01*
X008051Y014142D01*
X007701Y014142D01*
X007701Y014483D02*
X007701Y015181D01*
X007732Y015212D01*
X007762Y015242D01*
X008201Y015242D01*
X008601Y015062D02*
X008051Y014512D01*
X008051Y014483D01*
X007701Y014483D02*
X007351Y014483D01*
X006851Y013662D02*
X006851Y012960D01*
X006850Y012959D01*
X006850Y012762D02*
X007401Y012762D01*
X007401Y013313D01*
X007598Y012959D02*
X007401Y012762D01*
X007598Y012565D01*
X007598Y012211D01*
X007795Y012211D02*
X007795Y012368D01*
X007598Y012565D01*
X007598Y012959D02*
X007952Y012959D01*
X007952Y012565D02*
X008204Y012565D01*
X008351Y012712D01*
X008351Y013870D01*
X008601Y015062D02*
X008751Y015212D01*
X009070Y015212D01*
X007007Y012211D02*
X006959Y012162D01*
X006751Y012162D01*
X006551Y011962D02*
X006401Y011812D01*
X006401Y011612D01*
X006460Y011392D02*
X006701Y011392D01*
X006801Y011392D01*
X006971Y011562D01*
X006701Y011392D02*
X006701Y011033D01*
X006351Y011283D02*
X006460Y011392D01*
X006351Y011283D02*
X005951Y011283D01*
X005931Y011492D02*
X005721Y011492D01*
X005681Y011452D01*
X005931Y011492D02*
X006051Y011612D01*
X006051Y012270D01*
X006199Y012418D01*
X006199Y012812D02*
X005451Y012812D01*
X004703Y012812D01*
X004551Y012812D01*
X004351Y012612D01*
X004451Y012512D01*
X004451Y011983D01*
X004651Y011783D01*
X004492Y011783D01*
X004222Y011512D01*
X004651Y011442D02*
X004681Y011442D01*
X004901Y011662D01*
X004901Y011862D01*
X004651Y012112D01*
X005051Y011712D02*
X005051Y011492D01*
X005021Y011462D01*
X005051Y011712D02*
X005254Y011915D01*
X005254Y012064D01*
X005451Y012064D02*
X005451Y011812D01*
X005351Y011712D01*
X005361Y011422D02*
X005648Y011709D01*
X005648Y012064D01*
X005845Y012064D02*
X005845Y011718D01*
X005851Y011712D01*
X005701Y010662D02*
X005750Y010614D01*
X005750Y010294D01*
X005946Y010294D02*
X005946Y010417D01*
X006131Y010306D02*
X006131Y010662D01*
X006131Y010306D02*
X006143Y010294D01*
X006143Y009004D01*
X005651Y008512D01*
X005451Y007112D02*
X006951Y007112D01*
X007268Y007429D01*
X007433Y007429D01*
X007447Y007612D02*
X007751Y007612D01*
X007781Y007582D01*
X007781Y007182D01*
X007781Y006842D02*
X008072Y006552D01*
X008072Y006512D01*
X008301Y006662D02*
X008121Y006842D01*
X008301Y006662D02*
X008301Y006312D01*
X008201Y006212D01*
X008072Y006212D01*
X008072Y005912D02*
X008251Y005912D01*
X008451Y006112D01*
X008451Y006912D01*
X008181Y007182D01*
X008121Y007182D01*
X008081Y007612D02*
X007751Y007612D01*
X007662Y007823D02*
X007751Y007912D01*
X007662Y007823D02*
X007433Y007823D01*
X007433Y007626D02*
X007447Y007612D01*
X007433Y008217D02*
X007856Y008217D01*
X008001Y008362D01*
X008131Y008102D02*
X008422Y007692D01*
X008422Y007612D01*
X008451Y007912D02*
X008951Y007412D01*
X008951Y007112D01*
X008451Y007912D02*
X008451Y008212D01*
X007659Y009004D01*
X007433Y009004D01*
X007433Y008807D02*
X007146Y008807D01*
X007051Y008712D01*
X007300Y008610D02*
X007051Y008362D01*
X007051Y008032D01*
X007433Y008414D02*
X007553Y008414D01*
X007751Y008612D01*
X007433Y008610D02*
X007300Y008610D01*
X007433Y009201D02*
X007662Y009201D01*
X008751Y008112D01*
X008951Y008112D01*
X008051Y009212D02*
X008181Y009342D01*
X008181Y009612D01*
X008522Y009612D02*
X008092Y010042D01*
X008051Y010042D01*
X007917Y010042D01*
X007701Y010257D01*
X007701Y010262D01*
X007701Y010257D02*
X007433Y009988D01*
X007433Y009792D02*
X007731Y009792D01*
X007801Y009862D01*
X007768Y009595D02*
X007851Y009512D01*
X007768Y009595D02*
X007433Y009595D01*
X007433Y009398D02*
X007665Y009398D01*
X007851Y009212D01*
X008051Y009212D01*
X008151Y009112D01*
X008051Y010383D02*
X008051Y010753D01*
X007956Y010848D01*
X007620Y010512D01*
X007346Y010512D01*
X007128Y010294D01*
X007346Y010848D02*
X007346Y010907D01*
X007956Y011517D01*
X007956Y011576D01*
X008487Y011576D01*
X008951Y011112D01*
X008951Y010942D01*
X007346Y011576D02*
X007346Y011617D01*
X006850Y012565D02*
X006598Y012565D01*
X006551Y012612D01*
X006551Y013342D01*
X006551Y013683D02*
X006522Y013712D01*
X006151Y013712D01*
X005451Y013560D02*
X005451Y014188D01*
X005195Y014188D02*
X005195Y013868D01*
X005251Y013812D01*
X005251Y013563D01*
X005254Y013560D01*
X004703Y013260D02*
X004551Y013412D01*
X004595Y013206D02*
X004501Y013112D01*
X004604Y013009D01*
X004703Y013009D01*
X004703Y013206D02*
X004595Y013206D01*
X004703Y013206D02*
X004703Y013260D01*
X003930Y013612D02*
X003904Y013586D01*
X003451Y013712D02*
X003451Y013012D01*
X003451Y013712D02*
X003272Y013892D01*
X003272Y014062D01*
X002931Y013654D02*
X002998Y013586D01*
X002951Y013633D01*
X002931Y013654D02*
X002931Y014062D01*
X002751Y015212D02*
X003170Y015212D01*
X002051Y014712D02*
X001832Y014931D01*
X001832Y015212D01*
X005356Y010007D02*
X005451Y009912D01*
X004065Y007626D02*
X003870Y007626D01*
X003351Y007612D02*
X003141Y007612D01*
X003096Y007567D01*
X002951Y007712D01*
X002951Y007792D01*
X003096Y007567D02*
X002724Y007195D01*
X002724Y006808D01*
X002954Y006578D01*
X003151Y006578D02*
X003151Y006690D01*
X003029Y006812D01*
X002921Y006812D01*
X002865Y006868D01*
X002865Y007156D01*
X002911Y007202D01*
X003071Y007202D01*
X003251Y007382D01*
X003051Y007012D02*
X003348Y006715D01*
X003351Y005692D02*
X003231Y005692D01*
X002907Y005368D01*
X002907Y004856D01*
X003101Y004662D01*
X003101Y004162D02*
X003351Y003912D01*
X003101Y004112D02*
X003101Y004162D01*
X003601Y004162D02*
X003801Y004162D01*
X004001Y004362D01*
X004001Y004762D01*
X004351Y005112D01*
X004091Y005302D02*
X004091Y005552D01*
X004091Y005302D02*
X004001Y005212D01*
X004001Y005062D01*
X003601Y004662D01*
X004404Y004533D02*
X004610Y004533D01*
X004831Y004312D01*
X004831Y004612D01*
X004881Y004662D01*
X004881Y004842D01*
X005001Y004962D01*
X005101Y004962D01*
X005231Y005092D01*
X005401Y005092D01*
X005720Y005143D02*
X005431Y005433D01*
X005401Y005433D01*
X005122Y005433D01*
X004951Y005262D01*
X004901Y005562D02*
X005001Y005662D01*
X005551Y005662D01*
X005701Y005512D01*
X006051Y005512D01*
X006051Y006002D01*
X006340Y006291D01*
X006340Y006731D01*
X006537Y006731D02*
X006537Y006416D01*
X006541Y006412D01*
X006734Y006529D02*
X006734Y006731D01*
X006734Y006529D02*
X006801Y006462D01*
X006801Y006362D01*
X006251Y005812D01*
X006251Y005612D01*
X006251Y005542D01*
X006507Y005286D01*
X006507Y005143D01*
X006507Y005260D02*
X006507Y005026D01*
X006507Y005143D02*
X006507Y005256D01*
X006350Y005260D02*
X006350Y005026D01*
X006192Y005143D02*
X006192Y005371D01*
X006051Y005512D01*
X005851Y005762D02*
X005851Y006462D01*
X005946Y006557D01*
X005946Y006731D01*
X005750Y006731D02*
X005701Y006682D01*
X005701Y006062D01*
X005551Y005912D01*
X005501Y006212D02*
X005553Y006264D01*
X005553Y006731D01*
X005356Y006731D02*
X005356Y006467D01*
X005222Y006333D01*
X005222Y006212D01*
X005222Y005983D01*
X005151Y005912D01*
X004851Y006462D02*
X004962Y006573D01*
X004962Y006731D01*
X004765Y006548D02*
X004851Y006462D01*
X004765Y006548D02*
X004765Y006731D01*
X005720Y005143D02*
X006035Y005143D01*
X006035Y005260D02*
X006035Y005026D01*
X006192Y005026D02*
X006192Y005260D01*
X006631Y005472D02*
X006631Y005992D01*
X006931Y006292D01*
X006931Y006731D01*
X007128Y006731D02*
X007143Y006731D01*
X007331Y006542D01*
X007451Y006282D02*
X007681Y006512D01*
X007731Y006512D01*
X007701Y006512D01*
X007701Y006212D02*
X007731Y006212D01*
X007701Y006212D02*
X007431Y005942D01*
X007431Y005832D01*
X007551Y005662D02*
X007731Y005842D01*
X007731Y005912D01*
X007551Y005662D02*
X007551Y005522D01*
X007491Y005462D01*
X007231Y005432D02*
X007231Y005912D01*
X007261Y005942D01*
X007261Y006192D01*
X007147Y006306D01*
X007147Y006328D01*
X007051Y006062D02*
X007111Y006002D01*
X007111Y005492D01*
X006980Y005361D01*
X006980Y005143D01*
X006980Y005260D02*
X006980Y005026D01*
X007137Y005026D02*
X007137Y005260D01*
X007137Y005338D02*
X007231Y005432D01*
X007137Y005338D02*
X007137Y005143D01*
X007295Y005260D02*
X007295Y005026D01*
X007452Y005026D02*
X007452Y005260D01*
X007610Y005260D02*
X007610Y005026D01*
X007767Y005143D02*
X007767Y004828D01*
X006901Y003962D01*
X006350Y003411D01*
X005720Y003411D01*
X005837Y003411D02*
X005603Y003411D01*
X005720Y003411D02*
X005052Y003411D01*
X005001Y003462D01*
X005001Y003731D01*
X004968Y003764D01*
X004968Y003960D02*
X005120Y004112D01*
X005172Y004164D01*
X005172Y004312D01*
X005120Y004112D02*
X005401Y004112D01*
X005472Y004041D01*
X005720Y004041D01*
X005837Y004041D02*
X005603Y004041D01*
X005515Y004198D02*
X005451Y004262D01*
X005451Y004433D01*
X005222Y004662D01*
X005515Y004198D02*
X005720Y004198D01*
X005837Y004198D02*
X005603Y004198D01*
X005603Y004356D02*
X005837Y004356D01*
X005837Y004513D02*
X005603Y004513D01*
X005603Y004671D02*
X005837Y004671D01*
X005837Y004828D02*
X005603Y004828D01*
X005720Y003883D02*
X005282Y003883D01*
X005205Y003960D01*
X005205Y003764D02*
X005242Y003726D01*
X005720Y003726D01*
X005837Y003726D02*
X005603Y003726D01*
X005603Y003883D02*
X005837Y003883D01*
X005837Y003568D02*
X005603Y003568D01*
X005720Y003568D02*
X005107Y003568D01*
X005001Y003462D01*
X005051Y003412D01*
X005351Y003162D02*
X005401Y003112D01*
X005401Y002843D01*
X005417Y003096D02*
X005720Y003096D01*
X005837Y003096D02*
X005603Y003096D01*
X005603Y003253D02*
X005837Y003253D01*
X005720Y003253D02*
X005442Y003253D01*
X005351Y003162D01*
X005417Y003096D01*
X005751Y002812D02*
X005441Y002502D01*
X005401Y002502D01*
X005401Y002183D01*
X005401Y001842D02*
X005631Y001842D01*
X005751Y001962D01*
X005918Y001795D01*
X006026Y001795D01*
X006018Y001795D01*
X005751Y001962D02*
X005751Y002504D01*
X006028Y002781D01*
X006035Y002781D01*
X006035Y002898D02*
X006035Y002664D01*
X006192Y002781D02*
X006192Y002521D01*
X006485Y002229D01*
X006577Y002229D01*
X006764Y002229D01*
X006981Y002012D01*
X007105Y001795D02*
X007278Y001795D01*
X007341Y001732D01*
X007105Y001795D02*
X007322Y002012D01*
X007322Y002362D01*
X007671Y002362D01*
X007696Y002036D02*
X008012Y002352D01*
X008012Y002362D01*
X008082Y002433D01*
X008082Y003096D01*
X008199Y003096D02*
X007965Y003096D01*
X007965Y003253D02*
X008199Y003253D01*
X008199Y003411D02*
X007965Y003411D01*
X007965Y003568D02*
X008199Y003568D01*
X008261Y003568D02*
X008421Y003408D01*
X008421Y002772D01*
X008681Y002512D01*
X008681Y002213D01*
X008401Y002312D02*
X008351Y002362D01*
X008012Y002362D01*
X007767Y002664D02*
X007767Y002898D01*
X007610Y002898D02*
X007610Y002664D01*
X007452Y002664D02*
X007452Y002898D01*
X007295Y002898D02*
X007295Y002664D01*
X007137Y002664D02*
X007137Y002898D01*
X006980Y002898D02*
X006980Y002664D01*
X006824Y002512D02*
X006981Y002362D01*
X006824Y002512D02*
X006401Y002512D01*
X006350Y002563D01*
X006350Y002781D01*
X006350Y002898D02*
X006350Y002664D01*
X006507Y002664D02*
X006507Y002898D01*
X006665Y002898D02*
X006665Y002664D01*
X006822Y002664D02*
X006822Y002898D01*
X006507Y003568D02*
X006901Y003962D01*
X006507Y003568D02*
X005720Y003568D01*
X006192Y002898D02*
X006192Y002664D01*
X006085Y002229D02*
X006518Y001795D01*
X006577Y001795D01*
X007105Y001795D01*
X007696Y001832D02*
X007696Y002036D01*
X008286Y001832D02*
X008326Y001872D01*
X008681Y001872D01*
X008261Y003568D02*
X008082Y003568D01*
X008199Y003726D02*
X007965Y003726D01*
X007965Y003883D02*
X008199Y003883D01*
X008199Y004041D02*
X007965Y004041D01*
X007965Y004198D02*
X008199Y004198D01*
X008199Y004356D02*
X007965Y004356D01*
X007965Y004513D02*
X008199Y004513D01*
X008199Y004671D02*
X007965Y004671D01*
X007965Y004828D02*
X008199Y004828D01*
X008082Y004828D02*
X008082Y005144D01*
X008082Y005223D01*
X008432Y005572D01*
X008091Y005572D02*
X007791Y005572D01*
X007767Y005549D01*
X007767Y005143D01*
X007767Y005260D02*
X007767Y005026D01*
X006901Y005492D02*
X006822Y005413D01*
X006822Y005143D01*
X006822Y005260D02*
X006822Y005026D01*
X006665Y005026D02*
X006665Y005260D01*
X006665Y005143D02*
X006665Y005438D01*
X006631Y005472D01*
X006901Y005492D02*
X006901Y005572D01*
X006121Y006382D02*
X006143Y006404D01*
X006143Y006731D01*
X007433Y007036D02*
X007511Y006957D01*
X007511Y006762D01*
X006085Y002229D02*
X006026Y002229D01*
D11*
X006901Y003962D03*
D12*
X005963Y014188D03*
X005707Y014188D03*
X005451Y014188D03*
X005195Y014188D03*
X004939Y014188D03*
D13*
X004231Y014316D03*
X006672Y014316D03*
D14*
X007065Y015241D03*
X003837Y015241D03*
D15*
X005116Y015241D03*
X005786Y015241D03*
D16*
X003601Y004662D03*
X003601Y004162D03*
X003601Y003662D03*
X003101Y003662D03*
X003101Y004162D03*
X003101Y004662D03*
D17*
X007781Y006842D03*
X007781Y007182D03*
X008121Y007182D03*
X008121Y006842D03*
D18*
X007732Y015212D03*
X009070Y015212D03*
X003170Y015212D03*
X001832Y015212D03*
D19*
X002328Y002112D03*
X003666Y002112D03*
D20*
X004798Y003862D03*
X004968Y003764D03*
X004968Y003960D03*
X005205Y003960D03*
X005205Y003764D03*
D21*
X001501Y003412D02*
X001501Y002812D01*
X001951Y002812D01*
X002010Y002818D01*
X002066Y002835D01*
X002118Y002863D01*
X002163Y002900D01*
X002201Y002945D01*
X002228Y002997D01*
X002245Y003053D01*
X002251Y003112D01*
X002245Y003171D01*
X002228Y003227D01*
X002201Y003279D01*
X002163Y003324D01*
X002118Y003361D01*
X002066Y003389D01*
X002010Y003406D01*
X001951Y003412D01*
X001501Y003412D01*
X001501Y003382D02*
X002079Y003382D01*
X002197Y003284D02*
X001501Y003284D01*
X001501Y003185D02*
X002241Y003185D01*
X002249Y003087D02*
X001501Y003087D01*
X001501Y002988D02*
X002223Y002988D01*
X002151Y002890D02*
X001501Y002890D01*
X001501Y003812D02*
X001501Y004412D01*
X001951Y004412D01*
X002010Y004406D01*
X002066Y004389D01*
X002118Y004361D01*
X002163Y004324D01*
X002201Y004279D01*
X002228Y004227D01*
X002245Y004171D01*
X002251Y004112D01*
X002245Y004053D01*
X002228Y003997D01*
X002201Y003945D01*
X002163Y003900D01*
X002118Y003863D01*
X002066Y003835D01*
X002010Y003818D01*
X001951Y003812D01*
X001501Y003812D01*
X001501Y003875D02*
X002132Y003875D01*
X002215Y003973D02*
X001501Y003973D01*
X001501Y004072D02*
X002247Y004072D01*
X002245Y004170D02*
X001501Y004170D01*
X001501Y004269D02*
X002206Y004269D01*
X002107Y004367D02*
X001501Y004367D01*
X001501Y004812D02*
X001501Y005412D01*
X001951Y005412D01*
X002010Y005406D01*
X002066Y005389D01*
X002118Y005361D01*
X002163Y005324D01*
X002201Y005279D01*
X002228Y005227D01*
X002245Y005171D01*
X002251Y005112D01*
X002245Y005053D01*
X002228Y004997D01*
X002201Y004945D01*
X002163Y004900D01*
X002118Y004863D01*
X002066Y004835D01*
X002010Y004818D01*
X001951Y004812D01*
X001501Y004812D01*
X001501Y004860D02*
X002112Y004860D01*
X002207Y004958D02*
X001501Y004958D01*
X001501Y005057D02*
X002246Y005057D01*
X002247Y005155D02*
X001501Y005155D01*
X001501Y005254D02*
X002214Y005254D01*
X002129Y005352D02*
X001501Y005352D01*
X001501Y005812D02*
X001501Y006412D01*
X001951Y006412D01*
X002010Y006406D01*
X002066Y006389D01*
X002118Y006361D01*
X002163Y006324D01*
X002201Y006279D01*
X002228Y006227D01*
X002245Y006171D01*
X002251Y006112D01*
X002245Y006053D01*
X002228Y005997D01*
X002201Y005945D01*
X002163Y005900D01*
X002118Y005863D01*
X002066Y005835D01*
X002010Y005818D01*
X001951Y005812D01*
X001501Y005812D01*
X001501Y005845D02*
X002084Y005845D01*
X002199Y005943D02*
X001501Y005943D01*
X001501Y006042D02*
X002242Y006042D01*
X002248Y006140D02*
X001501Y006140D01*
X001501Y006239D02*
X002222Y006239D01*
X002148Y006337D02*
X001501Y006337D01*
X001501Y006812D02*
X001501Y007412D01*
X001951Y007412D01*
X002010Y007406D01*
X002066Y007389D01*
X002118Y007361D01*
X002163Y007324D01*
X002201Y007279D01*
X002228Y007227D01*
X002245Y007171D01*
X002251Y007112D01*
X002245Y007053D01*
X002228Y006997D01*
X002201Y006945D01*
X002163Y006900D01*
X002118Y006863D01*
X002066Y006835D01*
X002010Y006818D01*
X001951Y006812D01*
X001501Y006812D01*
X001501Y006830D02*
X002048Y006830D01*
X002186Y006928D02*
X001501Y006928D01*
X001501Y007027D02*
X002237Y007027D01*
X002250Y007125D02*
X001501Y007125D01*
X001501Y007224D02*
X002229Y007224D01*
X002165Y007322D02*
X001501Y007322D01*
X001501Y007812D02*
X001501Y008412D01*
X001951Y008412D01*
X002010Y008406D01*
X002066Y008389D01*
X002118Y008361D01*
X002163Y008324D01*
X002201Y008279D01*
X002228Y008227D01*
X002245Y008171D01*
X002251Y008112D01*
X002245Y008053D01*
X002228Y007997D01*
X002201Y007945D01*
X002163Y007900D01*
X002118Y007863D01*
X002066Y007835D01*
X002010Y007818D01*
X001951Y007812D01*
X001501Y007812D01*
X001501Y007815D02*
X001977Y007815D01*
X002174Y007913D02*
X001501Y007913D01*
X001501Y008012D02*
X002233Y008012D01*
X002251Y008110D02*
X001501Y008110D01*
X001501Y008209D02*
X002234Y008209D01*
X002177Y008307D02*
X001501Y008307D01*
X001501Y008406D02*
X002012Y008406D01*
X001951Y008812D02*
X002010Y008818D01*
X002066Y008835D01*
X002118Y008863D01*
X002163Y008900D01*
X002201Y008945D01*
X002228Y008997D01*
X002245Y009053D01*
X002251Y009112D01*
X002245Y009171D01*
X002228Y009227D01*
X002201Y009279D01*
X002163Y009324D01*
X002118Y009361D01*
X002066Y009389D01*
X002010Y009406D01*
X001951Y009412D01*
X001501Y009412D01*
X001501Y008812D01*
X001951Y008812D01*
X002161Y008898D02*
X001501Y008898D01*
X001501Y008997D02*
X002228Y008997D01*
X002249Y009095D02*
X001501Y009095D01*
X001501Y009194D02*
X002238Y009194D01*
X002190Y009292D02*
X001501Y009292D01*
X001501Y009391D02*
X002061Y009391D01*
X002010Y009818D02*
X001951Y009812D01*
X001501Y009812D01*
X001501Y010412D01*
X001951Y010412D01*
X002010Y010406D01*
X002066Y010389D01*
X002118Y010361D01*
X002163Y010324D01*
X002201Y010279D01*
X002228Y010227D01*
X002245Y010171D01*
X002251Y010112D01*
X002245Y010053D01*
X002228Y009997D01*
X002201Y009945D01*
X002163Y009900D01*
X002118Y009863D01*
X002066Y009835D01*
X002010Y009818D01*
X002143Y009883D02*
X001501Y009883D01*
X001501Y009982D02*
X002220Y009982D01*
X002248Y010080D02*
X001501Y010080D01*
X001501Y010179D02*
X002243Y010179D01*
X002201Y010277D02*
X001501Y010277D01*
X001501Y010376D02*
X002091Y010376D01*
X002010Y010818D02*
X001951Y010812D01*
X001501Y010812D01*
X001501Y011412D01*
X001951Y011412D01*
X002010Y011406D01*
X002066Y011389D01*
X002118Y011361D01*
X002163Y011324D01*
X002201Y011279D01*
X002228Y011227D01*
X002245Y011171D01*
X002251Y011112D01*
X002245Y011053D01*
X002228Y010997D01*
X002201Y010945D01*
X002163Y010900D01*
X002118Y010863D01*
X002066Y010835D01*
X002010Y010818D01*
X002124Y010868D02*
X001501Y010868D01*
X001501Y010967D02*
X002212Y010967D01*
X002246Y011065D02*
X001501Y011065D01*
X001501Y011164D02*
X002246Y011164D01*
X002209Y011262D02*
X001501Y011262D01*
X001501Y011361D02*
X002119Y011361D01*
X002010Y011818D02*
X001951Y011812D01*
X001501Y011812D01*
X001501Y012412D01*
X001951Y012412D01*
X002010Y012406D01*
X002066Y012389D01*
X002118Y012361D01*
X002163Y012324D01*
X002201Y012279D01*
X002228Y012227D01*
X002245Y012171D01*
X002251Y012112D01*
X002245Y012053D01*
X002228Y011997D01*
X002201Y011945D01*
X002163Y011900D01*
X002118Y011863D01*
X002066Y011835D01*
X002010Y011818D01*
X002100Y011853D02*
X001501Y011853D01*
X001501Y011952D02*
X002204Y011952D01*
X002244Y012050D02*
X001501Y012050D01*
X001501Y012149D02*
X002248Y012149D01*
X002217Y012247D02*
X001501Y012247D01*
X001501Y012346D02*
X002137Y012346D01*
X002010Y012818D02*
X001951Y012812D01*
X001501Y012812D01*
X001501Y013412D01*
X001951Y013412D01*
X002010Y013406D01*
X002066Y013389D01*
X002118Y013361D01*
X002163Y013324D01*
X002201Y013279D01*
X002228Y013227D01*
X002245Y013171D01*
X002251Y013112D01*
X002245Y013053D01*
X002228Y012997D01*
X002201Y012945D01*
X002163Y012900D01*
X002118Y012863D01*
X002066Y012835D01*
X002010Y012818D01*
X002072Y012838D02*
X001501Y012838D01*
X001501Y012937D02*
X002193Y012937D01*
X002240Y013035D02*
X001501Y013035D01*
X001501Y013134D02*
X002249Y013134D01*
X002225Y013232D02*
X001501Y013232D01*
X001501Y013331D02*
X002155Y013331D01*
X002010Y013818D02*
X001951Y013812D01*
X001501Y013812D01*
X001501Y014412D01*
X001951Y014412D01*
X002010Y014406D01*
X002066Y014389D01*
X002118Y014361D01*
X002163Y014324D01*
X002201Y014279D01*
X002228Y014227D01*
X002245Y014171D01*
X002251Y014112D01*
X002245Y014053D01*
X002228Y013997D01*
X002201Y013945D01*
X002163Y013900D01*
X002118Y013863D01*
X002066Y013835D01*
X002010Y013818D01*
X002027Y013823D02*
X001501Y013823D01*
X001501Y013922D02*
X002181Y013922D01*
X002235Y014020D02*
X001501Y014020D01*
X001501Y014119D02*
X002250Y014119D01*
X002231Y014217D02*
X001501Y014217D01*
X001501Y014316D02*
X002170Y014316D01*
X008651Y014112D02*
X008657Y014053D01*
X008674Y013997D01*
X008702Y013945D01*
X008739Y013900D01*
X008784Y013863D01*
X008836Y013835D01*
X008893Y013818D01*
X008951Y013812D01*
X009401Y013812D01*
X009401Y014412D01*
X008951Y014412D01*
X008893Y014406D01*
X008836Y014389D01*
X008784Y014361D01*
X008739Y014324D01*
X008702Y014279D01*
X008674Y014227D01*
X008657Y014171D01*
X008651Y014112D01*
X008652Y014119D02*
X009401Y014119D01*
X009401Y014217D02*
X008671Y014217D01*
X008732Y014316D02*
X009401Y014316D01*
X009401Y014020D02*
X008667Y014020D01*
X008721Y013922D02*
X009401Y013922D01*
X009401Y013823D02*
X008875Y013823D01*
X008893Y013406D02*
X008836Y013389D01*
X008784Y013361D01*
X008739Y013324D01*
X008702Y013279D01*
X008674Y013227D01*
X008657Y013171D01*
X008651Y013112D01*
X008657Y013053D01*
X008674Y012997D01*
X008702Y012945D01*
X008739Y012900D01*
X008784Y012863D01*
X008836Y012835D01*
X008893Y012818D01*
X008951Y012812D01*
X009401Y012812D01*
X009401Y013412D01*
X008951Y013412D01*
X008893Y013406D01*
X008747Y013331D02*
X009401Y013331D01*
X009401Y013232D02*
X008677Y013232D01*
X008653Y013134D02*
X009401Y013134D01*
X009401Y013035D02*
X008662Y013035D01*
X008709Y012937D02*
X009401Y012937D01*
X009401Y012838D02*
X008830Y012838D01*
X008893Y012406D02*
X008836Y012389D01*
X008784Y012361D01*
X008739Y012324D01*
X008702Y012279D01*
X008674Y012227D01*
X008657Y012171D01*
X008651Y012112D01*
X008657Y012053D01*
X008674Y011997D01*
X008702Y011945D01*
X008739Y011900D01*
X008784Y011863D01*
X008836Y011835D01*
X008893Y011818D01*
X008951Y011812D01*
X009401Y011812D01*
X009401Y012412D01*
X008951Y012412D01*
X008893Y012406D01*
X008765Y012346D02*
X009401Y012346D01*
X009401Y012247D02*
X008685Y012247D01*
X008655Y012149D02*
X009401Y012149D01*
X009401Y012050D02*
X008658Y012050D01*
X008698Y011952D02*
X009401Y011952D01*
X009401Y011853D02*
X008802Y011853D01*
X008893Y011406D02*
X008836Y011389D01*
X008784Y011361D01*
X008739Y011324D01*
X008702Y011279D01*
X008674Y011227D01*
X008657Y011171D01*
X008651Y011112D01*
X008657Y011053D01*
X008674Y010997D01*
X008702Y010945D01*
X008739Y010900D01*
X008784Y010863D01*
X008836Y010835D01*
X008893Y010818D01*
X008951Y010812D01*
X009401Y010812D01*
X009401Y011412D01*
X008951Y011412D01*
X008893Y011406D01*
X008783Y011361D02*
X009401Y011361D01*
X009401Y011262D02*
X008693Y011262D01*
X008656Y011164D02*
X009401Y011164D01*
X009401Y011065D02*
X008656Y011065D01*
X008690Y010967D02*
X009401Y010967D01*
X009401Y010868D02*
X008778Y010868D01*
X008893Y010406D02*
X008836Y010389D01*
X008784Y010361D01*
X008739Y010324D01*
X008702Y010279D01*
X008674Y010227D01*
X008657Y010171D01*
X008651Y010112D01*
X008657Y010053D01*
X008674Y009997D01*
X008702Y009945D01*
X008739Y009900D01*
X008784Y009863D01*
X008836Y009835D01*
X008893Y009818D01*
X008951Y009812D01*
X009401Y009812D01*
X009401Y010412D01*
X008951Y010412D01*
X008893Y010406D01*
X008811Y010376D02*
X009401Y010376D01*
X009401Y010277D02*
X008701Y010277D01*
X008659Y010179D02*
X009401Y010179D01*
X009401Y010080D02*
X008654Y010080D01*
X008682Y009982D02*
X009401Y009982D01*
X009401Y009883D02*
X008760Y009883D01*
X008893Y009406D02*
X008836Y009389D01*
X008784Y009361D01*
X008739Y009324D01*
X008702Y009279D01*
X008674Y009227D01*
X008657Y009171D01*
X008651Y009112D01*
X008657Y009053D01*
X008674Y008997D01*
X008702Y008945D01*
X008739Y008900D01*
X008784Y008863D01*
X008836Y008835D01*
X008893Y008818D01*
X008951Y008812D01*
X009401Y008812D01*
X009401Y009412D01*
X008951Y009412D01*
X008893Y009406D01*
X008841Y009391D02*
X009401Y009391D01*
X009401Y009292D02*
X008713Y009292D01*
X008664Y009194D02*
X009401Y009194D01*
X009401Y009095D02*
X008653Y009095D01*
X008674Y008997D02*
X009401Y008997D01*
X009401Y008898D02*
X008741Y008898D01*
X008890Y008406D02*
X009401Y008406D01*
X009401Y008412D02*
X009401Y007812D01*
X008951Y007812D01*
X008893Y007818D01*
X008836Y007835D01*
X008784Y007863D01*
X008739Y007900D01*
X008702Y007945D01*
X008674Y007997D01*
X008657Y008053D01*
X008651Y008112D01*
X008657Y008171D01*
X008674Y008227D01*
X008702Y008279D01*
X008739Y008324D01*
X008784Y008361D01*
X008836Y008389D01*
X008893Y008406D01*
X008951Y008412D01*
X009401Y008412D01*
X009401Y008307D02*
X008725Y008307D01*
X008668Y008209D02*
X009401Y008209D01*
X009401Y008110D02*
X008651Y008110D01*
X008670Y008012D02*
X009401Y008012D01*
X009401Y007913D02*
X008728Y007913D01*
X008926Y007815D02*
X009401Y007815D01*
X009401Y007412D02*
X009401Y006812D01*
X008951Y006812D01*
X008893Y006818D01*
X008836Y006835D01*
X008784Y006863D01*
X008739Y006900D01*
X008702Y006945D01*
X008674Y006997D01*
X008657Y007053D01*
X008651Y007112D01*
X008657Y007171D01*
X008674Y007227D01*
X008702Y007279D01*
X008739Y007324D01*
X008784Y007361D01*
X008836Y007389D01*
X008893Y007406D01*
X008951Y007412D01*
X009401Y007412D01*
X009401Y007322D02*
X008737Y007322D01*
X008673Y007224D02*
X009401Y007224D01*
X009401Y007125D02*
X008652Y007125D01*
X008665Y007027D02*
X009401Y007027D01*
X009401Y006928D02*
X008716Y006928D01*
X008854Y006830D02*
X009401Y006830D01*
X009401Y006412D02*
X009401Y005812D01*
X008951Y005812D01*
X008893Y005818D01*
X008836Y005835D01*
X008784Y005863D01*
X008739Y005900D01*
X008702Y005945D01*
X008674Y005997D01*
X008657Y006053D01*
X008651Y006112D01*
X008657Y006171D01*
X008674Y006227D01*
X008702Y006279D01*
X008739Y006324D01*
X008784Y006361D01*
X008836Y006389D01*
X008893Y006406D01*
X008951Y006412D01*
X009401Y006412D01*
X009401Y006337D02*
X008755Y006337D01*
X008680Y006239D02*
X009401Y006239D01*
X009401Y006140D02*
X008654Y006140D01*
X008661Y006042D02*
X009401Y006042D01*
X009401Y005943D02*
X008704Y005943D01*
X008818Y005845D02*
X009401Y005845D01*
X009401Y005412D02*
X009401Y004812D01*
X008951Y004812D01*
X008893Y004818D01*
X008836Y004835D01*
X008784Y004863D01*
X008739Y004900D01*
X008702Y004945D01*
X008674Y004997D01*
X008657Y005053D01*
X008651Y005112D01*
X008657Y005171D01*
X008674Y005227D01*
X008702Y005279D01*
X008739Y005324D01*
X008784Y005361D01*
X008836Y005389D01*
X008893Y005406D01*
X008951Y005412D01*
X009401Y005412D01*
X009401Y005352D02*
X008773Y005352D01*
X008688Y005254D02*
X009401Y005254D01*
X009401Y005155D02*
X008655Y005155D01*
X008657Y005057D02*
X009401Y005057D01*
X009401Y004958D02*
X008695Y004958D01*
X008790Y004860D02*
X009401Y004860D01*
X009401Y004412D02*
X009401Y003812D01*
X008951Y003812D01*
X008893Y003818D01*
X008836Y003835D01*
X008784Y003863D01*
X008739Y003900D01*
X008702Y003945D01*
X008674Y003997D01*
X008657Y004053D01*
X008651Y004112D01*
X008657Y004171D01*
X008674Y004227D01*
X008702Y004279D01*
X008739Y004324D01*
X008784Y004361D01*
X008836Y004389D01*
X008893Y004406D01*
X008951Y004412D01*
X009401Y004412D01*
X009401Y004367D02*
X008795Y004367D01*
X008696Y004269D02*
X009401Y004269D01*
X009401Y004170D02*
X008657Y004170D01*
X008655Y004072D02*
X009401Y004072D01*
X009401Y003973D02*
X008687Y003973D01*
X008770Y003875D02*
X009401Y003875D01*
X009401Y003412D02*
X009401Y002812D01*
X008951Y002812D01*
X008893Y002818D01*
X008836Y002835D01*
X008784Y002863D01*
X008739Y002900D01*
X008702Y002945D01*
X008674Y002997D01*
X008657Y003053D01*
X008651Y003112D01*
X008657Y003171D01*
X008674Y003227D01*
X008702Y003279D01*
X008739Y003324D01*
X008784Y003361D01*
X008836Y003389D01*
X008893Y003406D01*
X008951Y003412D01*
X009401Y003412D01*
X009401Y003382D02*
X008823Y003382D01*
X008706Y003284D02*
X009401Y003284D01*
X009401Y003185D02*
X008661Y003185D01*
X008654Y003087D02*
X009401Y003087D01*
X009401Y002988D02*
X008679Y002988D01*
X008752Y002890D02*
X009401Y002890D01*
D22*
X008951Y003112D03*
X008951Y004112D03*
X008951Y005112D03*
X008951Y006112D03*
X008951Y007112D03*
X008951Y008112D03*
X008951Y009112D03*
X008951Y010112D03*
X008951Y011112D03*
X008951Y012112D03*
X008951Y013112D03*
X008951Y014112D03*
X001951Y014112D03*
X001951Y013112D03*
X001951Y012112D03*
X001951Y011112D03*
X001951Y010112D03*
X001951Y009112D03*
X001951Y008112D03*
X001951Y007112D03*
X001951Y006112D03*
X001951Y005112D03*
X001951Y004112D03*
X001951Y003112D03*
D23*
X001451Y003112D03*
X001451Y004112D03*
X001451Y005112D03*
X001451Y006112D03*
X001451Y007112D03*
X001451Y008112D03*
X001451Y009112D03*
X001451Y010112D03*
X001451Y011112D03*
X001451Y012112D03*
X001451Y013112D03*
X001451Y014112D03*
X009451Y014112D03*
X009451Y013112D03*
X009451Y012112D03*
X009451Y011112D03*
X009451Y010112D03*
X009451Y009112D03*
X009451Y008112D03*
X009451Y007112D03*
X009451Y006112D03*
X009451Y005112D03*
X009451Y004112D03*
X009451Y003112D03*
D24*
X005845Y011985D02*
X005845Y012143D01*
X005648Y012143D02*
X005648Y011985D01*
X005451Y011985D02*
X005451Y012143D01*
X005254Y012143D02*
X005254Y011985D01*
X005057Y011985D02*
X005057Y012143D01*
X004782Y012418D02*
X004624Y012418D01*
X004624Y012615D02*
X004782Y012615D01*
X004782Y012812D02*
X004624Y012812D01*
X004624Y013009D02*
X004782Y013009D01*
X004782Y013206D02*
X004624Y013206D01*
X005057Y013481D02*
X005057Y013639D01*
X005254Y013639D02*
X005254Y013481D01*
X005451Y013481D02*
X005451Y013639D01*
X005648Y013639D02*
X005648Y013481D01*
X005845Y013481D02*
X005845Y013639D01*
X006120Y013206D02*
X006278Y013206D01*
X006278Y013009D02*
X006120Y013009D01*
X006120Y012812D02*
X006278Y012812D01*
X006278Y012615D02*
X006120Y012615D01*
X006120Y012418D02*
X006278Y012418D01*
D25*
X005451Y012812D03*
D26*
X004022Y012362D03*
X003681Y012362D03*
X003222Y012362D03*
X002881Y012362D03*
X002722Y011612D03*
X002381Y011612D03*
X002931Y014062D03*
X003272Y014062D03*
X003392Y007012D03*
X003051Y007012D03*
X004881Y006212D03*
X005222Y006212D03*
X005222Y004662D03*
X005172Y004312D03*
X004831Y004312D03*
X004881Y004662D03*
X006981Y002362D03*
X007322Y002362D03*
X007671Y002362D03*
X008012Y002362D03*
X007322Y002012D03*
X006981Y002012D03*
X008091Y005572D03*
X008072Y005912D03*
X008072Y006212D03*
X008072Y006512D03*
X007731Y006512D03*
X007731Y006212D03*
X007731Y005912D03*
X008432Y005572D03*
X008422Y007612D03*
X008081Y007612D03*
X008181Y009612D03*
X008522Y009612D03*
D27*
X006577Y002229D03*
X006577Y001795D03*
X006026Y001795D03*
X006026Y002229D03*
D28*
X005401Y002183D03*
X005401Y002502D03*
X005401Y002843D03*
X005401Y001842D03*
X004404Y003542D03*
X004404Y003883D03*
X004404Y004192D03*
X004404Y004533D03*
X004491Y005552D03*
X004491Y005893D03*
X004091Y005893D03*
X004091Y005552D03*
X003751Y005892D03*
X003751Y006233D03*
X002951Y007792D03*
X002951Y008133D03*
X002951Y008442D03*
X002951Y008783D03*
X003451Y008783D03*
X003451Y008442D03*
X004651Y011442D03*
X004651Y011783D03*
X005951Y011283D03*
X005951Y010942D03*
X006351Y010942D03*
X006351Y011283D03*
X006701Y011392D03*
X006701Y011733D03*
X006701Y011033D03*
X006701Y010692D03*
X008051Y010383D03*
X008051Y010042D03*
X006551Y013342D03*
X006551Y013683D03*
X007351Y014142D03*
X007351Y014483D03*
X007701Y014483D03*
X007701Y014142D03*
X008051Y014142D03*
X008051Y014483D03*
X005401Y005433D03*
X005401Y005092D03*
X008681Y002213D03*
X008681Y001872D03*
D29*
X003904Y012838D03*
X003904Y013212D03*
X003904Y013586D03*
X002998Y013586D03*
X002998Y012838D03*
D30*
X003001Y011906D02*
X003159Y011906D01*
X003159Y011906D01*
X003001Y011906D01*
X003001Y011906D01*
X003001Y011512D02*
X003159Y011512D01*
X003159Y011512D01*
X003001Y011512D01*
X003001Y011512D01*
X003001Y011118D02*
X003159Y011118D01*
X003159Y011118D01*
X003001Y011118D01*
X003001Y011118D01*
X004143Y011118D02*
X004301Y011118D01*
X004301Y011118D01*
X004143Y011118D01*
X004143Y011118D01*
X004143Y011512D02*
X004301Y011512D01*
X004301Y011512D01*
X004143Y011512D01*
X004143Y011512D01*
X004143Y011906D02*
X004301Y011906D01*
X004301Y011906D01*
X004143Y011906D01*
X004143Y011906D01*
D31*
X003651Y011512D03*
D32*
X002954Y006076D03*
D33*
X003151Y006046D03*
X003348Y006046D03*
X003348Y006578D03*
X003151Y006578D03*
X002954Y006578D03*
D34*
X007007Y012211D03*
X007204Y012211D03*
X007401Y012211D03*
X007598Y012211D03*
X007795Y012211D03*
X007795Y013313D03*
X007598Y013313D03*
X007401Y013313D03*
X007204Y013313D03*
X007007Y013313D03*
D35*
X006850Y012959D03*
X006850Y012762D03*
X006850Y012565D03*
X007952Y012565D03*
X007952Y012762D03*
X007952Y012959D03*
D36*
X007128Y010386D02*
X007128Y010202D01*
X006931Y010202D02*
X006931Y010386D01*
X006734Y010386D02*
X006734Y010202D01*
X006537Y010202D02*
X006537Y010386D01*
X006340Y010386D02*
X006340Y010202D01*
X006143Y010202D02*
X006143Y010386D01*
X005946Y010386D02*
X005946Y010202D01*
X005750Y010202D02*
X005750Y010386D01*
X005553Y010386D02*
X005553Y010202D01*
X005356Y010202D02*
X005356Y010386D01*
X005159Y010386D02*
X005159Y010202D01*
X004962Y010202D02*
X004962Y010386D01*
X004765Y010386D02*
X004765Y010202D01*
X004568Y010202D02*
X004568Y010386D01*
X004372Y010386D02*
X004372Y010202D01*
X004175Y010202D02*
X004175Y010386D01*
X003962Y009988D02*
X003778Y009988D01*
X003778Y009792D02*
X003962Y009792D01*
X003962Y009595D02*
X003778Y009595D01*
X003778Y009398D02*
X003962Y009398D01*
X003962Y009201D02*
X003778Y009201D01*
X003778Y009004D02*
X003962Y009004D01*
X003962Y008807D02*
X003778Y008807D01*
X003778Y008610D02*
X003962Y008610D01*
X003962Y008414D02*
X003778Y008414D01*
X003778Y008217D02*
X003962Y008217D01*
X003962Y008020D02*
X003778Y008020D01*
X003778Y007823D02*
X003962Y007823D01*
X003962Y007626D02*
X003778Y007626D01*
X003778Y007429D02*
X003962Y007429D01*
X003962Y007232D02*
X003778Y007232D01*
X003778Y007036D02*
X003962Y007036D01*
X004175Y006823D02*
X004175Y006639D01*
X004372Y006639D02*
X004372Y006823D01*
X004568Y006823D02*
X004568Y006639D01*
X004765Y006639D02*
X004765Y006823D01*
X004962Y006823D02*
X004962Y006639D01*
X005159Y006639D02*
X005159Y006823D01*
X005356Y006823D02*
X005356Y006639D01*
X005553Y006639D02*
X005553Y006823D01*
X005750Y006823D02*
X005750Y006639D01*
X005946Y006639D02*
X005946Y006823D01*
X006143Y006823D02*
X006143Y006639D01*
X006340Y006639D02*
X006340Y006823D01*
X006537Y006823D02*
X006537Y006639D01*
X006734Y006639D02*
X006734Y006823D01*
X006931Y006823D02*
X006931Y006639D01*
X007128Y006639D02*
X007128Y006823D01*
X007341Y007036D02*
X007525Y007036D01*
X007525Y007232D02*
X007341Y007232D01*
X007341Y007429D02*
X007525Y007429D01*
X007525Y007626D02*
X007341Y007626D01*
X007341Y007823D02*
X007525Y007823D01*
X007525Y008020D02*
X007341Y008020D01*
X007341Y008217D02*
X007525Y008217D01*
X007525Y008414D02*
X007341Y008414D01*
X007341Y008610D02*
X007525Y008610D01*
X007525Y008807D02*
X007341Y008807D01*
X007341Y009004D02*
X007525Y009004D01*
X007525Y009201D02*
X007341Y009201D01*
X007341Y009398D02*
X007525Y009398D01*
X007525Y009595D02*
X007341Y009595D01*
X007341Y009792D02*
X007525Y009792D01*
X007525Y009988D02*
X007341Y009988D01*
D37*
X005651Y008512D03*
D38*
X007346Y010848D03*
X007346Y011576D03*
X007956Y011576D03*
X007956Y010848D03*
D39*
X007696Y001832D03*
X008286Y001832D03*
D40*
X004022Y012362D02*
X004022Y012720D01*
X003904Y012838D01*
X004177Y012838D01*
X004301Y012962D01*
X004301Y013562D01*
X004251Y013612D01*
X003930Y013612D01*
X003904Y013586D02*
X003551Y013939D01*
X003551Y014212D01*
X003401Y014362D01*
X002201Y014362D01*
X001951Y014112D01*
X002998Y012838D02*
X002881Y012720D01*
X002881Y012362D01*
X003222Y012362D02*
X003401Y012362D01*
X003451Y012412D01*
X003451Y012612D01*
X003451Y013012D01*
X003451Y013112D01*
X003551Y013212D01*
X003904Y013212D01*
X004301Y013562D02*
X004451Y013712D01*
X004751Y013712D01*
X004939Y013900D01*
X004939Y014188D01*
X005963Y014188D02*
X005963Y013900D01*
X006151Y013712D01*
X006151Y013512D01*
X003681Y012362D02*
X003493Y012362D01*
X003451Y012320D01*
X003451Y012412D01*
X002998Y012838D02*
X002998Y013165D01*
X002951Y013212D01*
D41*
X002951Y013212D03*
X003451Y012612D03*
X003651Y011762D03*
X003651Y011262D03*
X003351Y010362D03*
X003651Y010212D03*
X002801Y010362D03*
X002801Y010662D03*
X002801Y009912D03*
X002811Y009592D03*
X002531Y009582D03*
X003351Y008162D03*
X003301Y007862D03*
X003561Y007752D03*
X003541Y007322D03*
X003251Y007382D03*
X003661Y006802D03*
X003751Y006512D03*
X004101Y006262D03*
X004351Y007112D03*
X004251Y007412D03*
X004251Y008012D03*
X004251Y008462D03*
X005051Y008312D03*
X005051Y008712D03*
X005051Y009112D03*
X005451Y009112D03*
X005451Y008712D03*
X005451Y008312D03*
X005451Y007912D03*
X005051Y007912D03*
X005451Y007112D03*
X005851Y007912D03*
X005851Y008312D03*
X005851Y008712D03*
X005851Y009112D03*
X006251Y009112D03*
X006251Y008712D03*
X006251Y008312D03*
X006251Y007912D03*
X007051Y008032D03*
X007051Y008712D03*
X007751Y008612D03*
X008001Y008362D03*
X008131Y008102D03*
X007751Y007912D03*
X007751Y007612D03*
X007511Y006762D03*
X007331Y006542D03*
X007451Y006282D03*
X007147Y006328D03*
X007051Y006062D03*
X006901Y005572D03*
X006631Y005472D03*
X006251Y005612D03*
X005851Y005762D03*
X005551Y005912D03*
X005501Y006212D03*
X005151Y005912D03*
X004851Y005912D03*
X004901Y005562D03*
X004951Y005262D03*
X005101Y004962D03*
X004501Y004862D03*
X004351Y005212D03*
X004001Y005212D03*
X003351Y005692D03*
X002701Y003762D03*
X005001Y003462D03*
X005351Y003162D03*
X005751Y002812D03*
X006301Y003362D03*
X006301Y003762D03*
X006301Y004162D03*
X006301Y004562D03*
X006701Y004562D03*
X006701Y004162D03*
X006701Y004162D03*
X006701Y003762D03*
X006701Y003362D03*
X007101Y003362D03*
X007101Y003762D03*
X007101Y004162D03*
X007101Y004562D03*
X007501Y004562D03*
X007501Y004162D03*
X007501Y003762D03*
X007501Y003362D03*
X008401Y002312D03*
X007341Y001732D03*
X008082Y005144D03*
X007767Y005549D03*
X007491Y005462D03*
X007431Y005832D03*
X006541Y006412D03*
X006121Y006382D03*
X008151Y009112D03*
X007851Y009512D03*
X007801Y009862D03*
X007701Y010262D03*
X006971Y011562D03*
X006751Y012162D03*
X006401Y011612D03*
X005851Y011712D03*
X005681Y011452D03*
X005361Y011422D03*
X005351Y011712D03*
X005021Y011462D03*
X004651Y012112D03*
X004351Y012612D03*
X004551Y013412D03*
X005251Y013062D03*
X005251Y013062D03*
X005651Y013062D03*
X005651Y012562D03*
X005251Y012562D03*
X006151Y013512D03*
X006851Y013662D03*
X007251Y013812D03*
X007851Y013812D03*
X007401Y012762D03*
X006131Y010662D03*
X005701Y010662D03*
X005901Y009912D03*
X005451Y009912D03*
X005101Y009912D03*
X004651Y009912D03*
X006451Y009912D03*
X008601Y015062D03*
X008201Y015242D03*
X002751Y015212D03*
X002051Y014712D03*
D42*
X004404Y004192D02*
X004404Y003883D01*
X004404Y003862D01*
X004798Y003862D01*
X004404Y003542D02*
X004404Y002112D01*
X003666Y002112D01*
M02*
