G75*
%MOIN*%
%OFA0B0*%
%FSLAX24Y24*%
%IPPOS*%
%LPD*%
%AMOC8*
5,1,8,0,0,1.08239X$1,22.5*
%
%ADD10C,0.0700*%
%ADD11C,0.0410*%
%ADD12C,0.0080*%
%ADD13C,0.0240*%
D10*
X001951Y003112D03*
X001951Y004112D03*
X001951Y005112D03*
X001951Y006112D03*
X001951Y007112D03*
X001951Y008112D03*
X001951Y009112D03*
X001951Y010112D03*
X001951Y011112D03*
X001951Y012112D03*
X001951Y013112D03*
X001951Y014112D03*
X008951Y014112D03*
X008951Y013112D03*
X008951Y012112D03*
X008951Y011112D03*
X008951Y010112D03*
X008951Y009112D03*
X008951Y008112D03*
X008951Y007112D03*
X008951Y006112D03*
X008951Y005112D03*
X008951Y004112D03*
X008951Y003112D03*
D11*
X001451Y003112D03*
X001451Y004112D03*
X001451Y005112D03*
X001451Y006112D03*
X001451Y007112D03*
X001451Y008112D03*
X001451Y009112D03*
X001451Y010112D03*
X001451Y011112D03*
X001451Y012112D03*
X001451Y013112D03*
X001451Y014112D03*
X009451Y014112D03*
X009451Y013112D03*
X009451Y012112D03*
X009451Y011112D03*
X009451Y010112D03*
X009451Y009112D03*
X009451Y008112D03*
X009451Y007112D03*
X009451Y006112D03*
X009451Y005112D03*
X009451Y004112D03*
X009451Y003112D03*
D12*
X009211Y002764D02*
X009211Y002669D01*
X008703Y001652D01*
X005101Y001652D01*
X005101Y003381D01*
X004137Y003381D01*
X004124Y003411D01*
X004000Y003535D01*
X003839Y003602D01*
X003664Y003602D01*
X003502Y003535D01*
X003378Y003411D01*
X003365Y003381D01*
X003337Y003381D01*
X003324Y003411D01*
X003200Y003535D01*
X003039Y003602D01*
X002864Y003602D01*
X002702Y003535D01*
X002578Y003411D01*
X002565Y003381D01*
X002291Y003381D01*
X002195Y003477D01*
X002037Y003542D01*
X001866Y003542D01*
X001708Y003477D01*
X001691Y003460D01*
X001691Y003764D01*
X001708Y003747D01*
X001866Y003682D01*
X002037Y003682D01*
X002195Y003747D01*
X002316Y003868D01*
X002381Y004026D01*
X002381Y004198D01*
X002316Y004356D01*
X002195Y004477D01*
X002037Y004542D01*
X001866Y004542D01*
X001708Y004477D01*
X001691Y004460D01*
X001691Y004764D01*
X001708Y004747D01*
X001866Y004682D01*
X002037Y004682D01*
X002195Y004747D01*
X002316Y004868D01*
X002381Y005026D01*
X002381Y005198D01*
X002316Y005356D01*
X002195Y005477D01*
X002037Y005542D01*
X001866Y005542D01*
X001708Y005477D01*
X001691Y005460D01*
X001691Y005764D01*
X001708Y005747D01*
X001866Y005682D01*
X002037Y005682D01*
X002195Y005747D01*
X002316Y005868D01*
X002381Y006026D01*
X002381Y006198D01*
X002316Y006356D01*
X002195Y006477D01*
X002037Y006542D01*
X001866Y006542D01*
X001708Y006477D01*
X001691Y006460D01*
X001691Y006764D01*
X001708Y006747D01*
X001866Y006682D01*
X002037Y006682D01*
X002195Y006747D01*
X002316Y006868D01*
X002381Y007026D01*
X002381Y007198D01*
X002316Y007356D01*
X002195Y007477D01*
X002037Y007542D01*
X001866Y007542D01*
X001708Y007477D01*
X001691Y007460D01*
X001691Y007764D01*
X001708Y007747D01*
X001866Y007682D01*
X002037Y007682D01*
X002195Y007747D01*
X002316Y007868D01*
X002381Y008026D01*
X002381Y008198D01*
X002316Y008356D01*
X002195Y008477D01*
X002037Y008542D01*
X001866Y008542D01*
X001708Y008477D01*
X001691Y008460D01*
X001691Y008764D01*
X001708Y008747D01*
X001866Y008682D01*
X002037Y008682D01*
X002195Y008747D01*
X002316Y008868D01*
X002381Y009026D01*
X002381Y009198D01*
X002316Y009356D01*
X002195Y009477D01*
X002037Y009542D01*
X001866Y009542D01*
X001708Y009477D01*
X001691Y009460D01*
X001691Y009764D01*
X001708Y009747D01*
X001866Y009682D01*
X002037Y009682D01*
X002195Y009747D01*
X002316Y009868D01*
X002381Y010026D01*
X002381Y010198D01*
X002316Y010356D01*
X002195Y010477D01*
X002037Y010542D01*
X001866Y010542D01*
X001708Y010477D01*
X001691Y010460D01*
X001691Y010764D01*
X001708Y010747D01*
X001866Y010682D01*
X002037Y010682D01*
X002195Y010747D01*
X002316Y010868D01*
X002381Y011026D01*
X002381Y011198D01*
X002316Y011356D01*
X002195Y011477D01*
X002037Y011542D01*
X001866Y011542D01*
X001708Y011477D01*
X001691Y011460D01*
X001691Y011764D01*
X001708Y011747D01*
X001866Y011682D01*
X002037Y011682D01*
X002195Y011747D01*
X002316Y011868D01*
X002381Y012026D01*
X002381Y012198D01*
X002316Y012356D01*
X002195Y012477D01*
X002037Y012542D01*
X001866Y012542D01*
X001708Y012477D01*
X001691Y012460D01*
X001691Y012720D01*
X001705Y012710D01*
X001771Y012676D01*
X001841Y012654D01*
X001911Y012643D01*
X001911Y013072D01*
X001991Y013072D01*
X001991Y012643D01*
X002061Y012654D01*
X002132Y012676D01*
X002197Y012710D01*
X002257Y012754D01*
X002310Y012806D01*
X002353Y012866D01*
X002387Y012932D01*
X002410Y013002D01*
X002421Y013072D01*
X001991Y013072D01*
X001991Y013152D01*
X001911Y013152D01*
X001911Y013582D01*
X001841Y013570D01*
X001771Y013548D01*
X001705Y013514D01*
X001691Y013504D01*
X001691Y013764D01*
X001708Y013747D01*
X001866Y013682D01*
X002037Y013682D01*
X002195Y013747D01*
X002316Y013868D01*
X002381Y014026D01*
X002381Y014198D01*
X002316Y014356D01*
X002195Y014477D01*
X002037Y014542D01*
X001866Y014542D01*
X001708Y014477D01*
X001691Y014460D01*
X001691Y015572D01*
X004109Y015572D01*
X004109Y015117D01*
X004213Y014936D01*
X004394Y014832D01*
X004638Y014832D01*
X004819Y014936D01*
X004819Y014936D01*
X004819Y014936D01*
X004923Y015117D01*
X004923Y015572D01*
X005979Y015572D01*
X005979Y015117D01*
X006083Y014936D01*
X006083Y014936D01*
X006083Y014936D01*
X006264Y014832D01*
X006508Y014832D01*
X006689Y014936D01*
X006689Y014936D01*
X006689Y014936D01*
X006793Y015117D01*
X006793Y015572D01*
X009211Y015572D01*
X009211Y014460D01*
X009195Y014477D01*
X009037Y014542D01*
X008866Y014542D01*
X008708Y014477D01*
X008587Y014356D01*
X008521Y014198D01*
X008521Y014026D01*
X008587Y013868D01*
X008708Y013747D01*
X008866Y013682D01*
X009037Y013682D01*
X009195Y013747D01*
X009211Y013764D01*
X009211Y013460D01*
X009195Y013477D01*
X009037Y013542D01*
X008866Y013542D01*
X008708Y013477D01*
X008587Y013356D01*
X008555Y013278D01*
X008051Y013782D01*
X008051Y013895D01*
X007934Y014012D01*
X007768Y014012D01*
X007651Y013895D01*
X007651Y013729D01*
X007768Y013612D01*
X007881Y013612D01*
X008501Y012992D01*
X008535Y012992D01*
X008587Y012868D01*
X008708Y012747D01*
X008866Y012682D01*
X009037Y012682D01*
X009195Y012747D01*
X009211Y012764D01*
X009211Y012460D01*
X009195Y012477D01*
X009037Y012542D01*
X008866Y012542D01*
X008708Y012477D01*
X008587Y012356D01*
X008521Y012198D01*
X008521Y012026D01*
X008587Y011868D01*
X008708Y011747D01*
X008866Y011682D01*
X009037Y011682D01*
X009195Y011747D01*
X009211Y011764D01*
X009211Y011504D01*
X009197Y011514D01*
X009132Y011548D01*
X009061Y011570D01*
X008991Y011582D01*
X008991Y011152D01*
X008911Y011152D01*
X008911Y011072D01*
X008482Y011072D01*
X008493Y011002D01*
X008516Y010932D01*
X008549Y010866D01*
X008593Y010806D01*
X008645Y010754D01*
X007441Y010754D01*
X007441Y010832D02*
X008574Y010832D01*
X008526Y010911D02*
X007441Y010911D01*
X007441Y010989D02*
X008497Y010989D01*
X008482Y011068D02*
X007441Y011068D01*
X007441Y011146D02*
X008911Y011146D01*
X008911Y011152D02*
X008482Y011152D01*
X008493Y011222D01*
X008516Y011292D01*
X008549Y011358D01*
X008593Y011418D01*
X008645Y011471D01*
X008705Y011514D01*
X008771Y011548D01*
X008841Y011570D01*
X008911Y011582D01*
X008911Y011152D01*
X008911Y011225D02*
X008991Y011225D01*
X008991Y011303D02*
X008911Y011303D01*
X008911Y011382D02*
X008991Y011382D01*
X008991Y011460D02*
X008911Y011460D01*
X008911Y011539D02*
X008991Y011539D01*
X009149Y011539D02*
X009211Y011539D01*
X009211Y011617D02*
X007441Y011617D01*
X007441Y011642D02*
X007371Y011712D01*
X006951Y012132D01*
X006951Y012245D01*
X008541Y012245D01*
X008521Y012167D02*
X006951Y012167D01*
X006951Y012245D02*
X006834Y012362D01*
X006668Y012362D01*
X006551Y012245D01*
X006551Y012079D01*
X006668Y011962D01*
X006781Y011962D01*
X007201Y011542D01*
X007201Y008845D01*
X007134Y008912D01*
X006968Y008912D01*
X006851Y008795D01*
X006851Y008629D01*
X006968Y008512D01*
X007134Y008512D01*
X007201Y008579D01*
X007201Y008165D01*
X007134Y008232D01*
X006968Y008232D01*
X006851Y008115D01*
X006851Y007949D01*
X006968Y007832D01*
X007134Y007832D01*
X007201Y007899D01*
X007201Y006792D01*
X007251Y006742D01*
X007248Y006742D01*
X007131Y006625D01*
X007131Y006528D01*
X007065Y006528D01*
X006947Y006411D01*
X006947Y006245D01*
X006950Y006243D01*
X006851Y006145D01*
X006851Y005979D01*
X006968Y005862D01*
X007134Y005862D01*
X007251Y005979D01*
X007251Y006145D01*
X007249Y006147D01*
X007276Y006174D01*
X007368Y006082D01*
X007534Y006082D01*
X007651Y006199D01*
X007651Y006365D01*
X007594Y006422D01*
X007721Y006422D01*
X007851Y006552D01*
X007851Y006922D01*
X007671Y007102D01*
X007671Y007412D01*
X007834Y007412D01*
X007951Y007529D01*
X007951Y007695D01*
X007884Y007762D01*
X007951Y007829D01*
X007951Y007995D01*
X007834Y008112D01*
X007671Y008112D01*
X007671Y008412D01*
X007801Y008412D01*
X007801Y008279D01*
X007918Y008162D01*
X008084Y008162D01*
X008201Y008279D01*
X008201Y008445D01*
X008084Y008562D01*
X007951Y008562D01*
X007951Y008695D01*
X007884Y008762D01*
X008693Y008762D01*
X008708Y008747D01*
X008866Y008682D01*
X009037Y008682D01*
X009195Y008747D01*
X009211Y008764D01*
X009211Y008460D01*
X009195Y008477D01*
X009037Y008542D01*
X008866Y008542D01*
X008708Y008477D01*
X008587Y008356D01*
X008521Y008198D01*
X008521Y008026D01*
X008587Y007868D01*
X008708Y007747D01*
X008866Y007682D01*
X009037Y007682D01*
X009195Y007747D01*
X009211Y007764D01*
X009211Y007460D01*
X009195Y007477D01*
X009037Y007542D01*
X008866Y007542D01*
X008708Y007477D01*
X008587Y007356D01*
X008521Y007198D01*
X008521Y007026D01*
X008587Y006868D01*
X008708Y006747D01*
X008866Y006682D01*
X009037Y006682D01*
X009195Y006747D01*
X009211Y006764D01*
X009211Y006460D01*
X009195Y006477D01*
X009037Y006542D01*
X008866Y006542D01*
X008708Y006477D01*
X008587Y006356D01*
X008521Y006198D01*
X008521Y006026D01*
X008587Y005868D01*
X008708Y005747D01*
X008866Y005682D01*
X009037Y005682D01*
X009195Y005747D01*
X009211Y005764D01*
X009211Y005460D01*
X009195Y005477D01*
X009037Y005542D01*
X008866Y005542D01*
X008708Y005477D01*
X008587Y005356D01*
X008521Y005198D01*
X008521Y005026D01*
X008587Y004868D01*
X008708Y004747D01*
X008866Y004682D01*
X009037Y004682D01*
X009195Y004747D01*
X009211Y004764D01*
X009211Y004460D01*
X009195Y004477D01*
X009037Y004542D01*
X008866Y004542D01*
X008708Y004477D01*
X008587Y004356D01*
X008521Y004198D01*
X008521Y004026D01*
X008587Y003868D01*
X008708Y003747D01*
X008866Y003682D01*
X009037Y003682D01*
X009195Y003747D01*
X009211Y003764D01*
X009211Y003460D01*
X009195Y003477D01*
X009037Y003542D01*
X008866Y003542D01*
X008708Y003477D01*
X008587Y003356D01*
X008521Y003198D01*
X008521Y003026D01*
X008587Y002868D01*
X008708Y002747D01*
X008866Y002682D01*
X009037Y002682D01*
X009195Y002747D01*
X009211Y002764D01*
X009211Y002747D02*
X009192Y002747D01*
X009211Y002668D02*
X005101Y002668D01*
X005101Y002590D02*
X009172Y002590D01*
X009132Y002511D02*
X008485Y002511D01*
X008484Y002512D02*
X008318Y002512D01*
X008201Y002395D01*
X008201Y002229D01*
X008318Y002112D01*
X008484Y002112D01*
X008601Y002229D01*
X008601Y002395D01*
X008484Y002512D01*
X008563Y002433D02*
X009093Y002433D01*
X009054Y002354D02*
X008601Y002354D01*
X008601Y002276D02*
X009015Y002276D01*
X008975Y002197D02*
X008569Y002197D01*
X008490Y002119D02*
X008936Y002119D01*
X008897Y002040D02*
X005101Y002040D01*
X005101Y001962D02*
X008858Y001962D01*
X008818Y001883D02*
X005101Y001883D01*
X005101Y001805D02*
X008779Y001805D01*
X008740Y001726D02*
X005101Y001726D01*
X005101Y002119D02*
X008312Y002119D01*
X008233Y002197D02*
X005101Y002197D01*
X005101Y002276D02*
X008201Y002276D01*
X008201Y002354D02*
X005101Y002354D01*
X005101Y002433D02*
X008239Y002433D01*
X008317Y002511D02*
X005101Y002511D01*
X005101Y002747D02*
X008710Y002747D01*
X008630Y002825D02*
X005101Y002825D01*
X005101Y002904D02*
X008572Y002904D01*
X008540Y002982D02*
X005454Y002982D01*
X005434Y002962D02*
X005551Y003079D01*
X005551Y003245D01*
X005434Y003362D01*
X005268Y003362D01*
X005151Y003245D01*
X005151Y003079D01*
X005268Y002962D01*
X005434Y002962D01*
X005532Y003061D02*
X008521Y003061D01*
X008521Y003139D02*
X005551Y003139D01*
X005551Y003218D02*
X008529Y003218D01*
X008562Y003296D02*
X005500Y003296D01*
X005248Y002982D02*
X005101Y002982D01*
X005101Y003061D02*
X005170Y003061D01*
X005151Y003139D02*
X005101Y003139D01*
X005101Y003218D02*
X005151Y003218D01*
X005101Y003296D02*
X005202Y003296D01*
X005101Y003375D02*
X008606Y003375D01*
X008684Y003453D02*
X004082Y003453D01*
X004004Y003532D02*
X008840Y003532D01*
X008850Y003689D02*
X002052Y003689D01*
X002062Y003532D02*
X002698Y003532D01*
X002620Y003453D02*
X002218Y003453D01*
X002214Y003767D02*
X008688Y003767D01*
X008610Y003846D02*
X002293Y003846D01*
X002339Y003924D02*
X008564Y003924D01*
X008531Y004003D02*
X002371Y004003D01*
X002381Y004081D02*
X008521Y004081D01*
X008521Y004160D02*
X002381Y004160D01*
X002364Y004238D02*
X008538Y004238D01*
X008570Y004317D02*
X002332Y004317D01*
X002276Y004395D02*
X008626Y004395D01*
X008705Y004474D02*
X002198Y004474D01*
X002102Y004709D02*
X004371Y004709D01*
X004418Y004662D02*
X004584Y004662D01*
X004701Y004779D01*
X004701Y004945D01*
X004584Y005062D01*
X004484Y005062D01*
X004551Y005129D01*
X004551Y005295D01*
X004434Y005412D01*
X004268Y005412D01*
X004176Y005320D01*
X004084Y005412D01*
X003918Y005412D01*
X003801Y005295D01*
X003801Y005129D01*
X003918Y005012D01*
X004084Y005012D01*
X004176Y005104D01*
X004268Y005012D01*
X004368Y005012D01*
X004301Y004945D01*
X004301Y004779D01*
X004418Y004662D01*
X004301Y004788D02*
X003597Y004788D01*
X003600Y004789D02*
X003439Y004722D01*
X003264Y004722D01*
X003102Y004789D01*
X002978Y004913D01*
X002911Y005075D01*
X002911Y005250D01*
X002978Y005411D01*
X003102Y005535D01*
X003189Y005571D01*
X003151Y005609D01*
X003151Y005775D01*
X003268Y005892D01*
X003434Y005892D01*
X003551Y005775D01*
X003551Y005609D01*
X003513Y005571D01*
X003600Y005535D01*
X003724Y005411D01*
X003791Y005250D01*
X003791Y005075D01*
X003724Y004913D01*
X003600Y004789D01*
X003677Y004866D02*
X004301Y004866D01*
X004301Y004945D02*
X003737Y004945D01*
X003770Y005023D02*
X003907Y005023D01*
X003829Y005102D02*
X003791Y005102D01*
X003791Y005180D02*
X003801Y005180D01*
X003801Y005259D02*
X003787Y005259D01*
X003755Y005337D02*
X003843Y005337D01*
X003720Y005416D02*
X004765Y005416D01*
X004793Y005387D02*
X004701Y005479D01*
X004701Y005645D01*
X004818Y005762D01*
X004984Y005762D01*
X005101Y005645D01*
X005101Y005479D01*
X005059Y005437D01*
X005151Y005345D01*
X005151Y005179D01*
X005034Y005062D01*
X004868Y005062D01*
X004751Y005179D01*
X004751Y005345D01*
X004793Y005387D01*
X004751Y005337D02*
X004509Y005337D01*
X004551Y005259D02*
X004751Y005259D01*
X004751Y005180D02*
X004551Y005180D01*
X004523Y005102D02*
X004829Y005102D01*
X004701Y004945D02*
X007999Y004945D01*
X007999Y004944D02*
X008165Y004944D01*
X008282Y005061D01*
X008282Y005227D01*
X008165Y005344D01*
X007999Y005344D01*
X007882Y005227D01*
X007882Y005061D01*
X007999Y004944D01*
X007921Y005023D02*
X004623Y005023D01*
X004701Y004866D02*
X008589Y004866D01*
X008555Y004945D02*
X008165Y004945D01*
X008244Y005023D02*
X008523Y005023D01*
X008521Y005102D02*
X008282Y005102D01*
X008282Y005180D02*
X008521Y005180D01*
X008546Y005259D02*
X008251Y005259D01*
X008172Y005337D02*
X008579Y005337D01*
X008647Y005416D02*
X007691Y005416D01*
X007691Y005379D02*
X007691Y005545D01*
X007574Y005662D01*
X007544Y005662D01*
X007631Y005749D01*
X007631Y005915D01*
X007514Y006032D01*
X007348Y006032D01*
X007231Y005915D01*
X007231Y005749D01*
X007348Y005632D01*
X007378Y005632D01*
X007291Y005545D01*
X007291Y005379D01*
X007408Y005262D01*
X007574Y005262D01*
X007691Y005379D01*
X007649Y005337D02*
X007992Y005337D01*
X007914Y005259D02*
X005151Y005259D01*
X005151Y005337D02*
X006483Y005337D01*
X006431Y005389D02*
X006431Y005509D01*
X006334Y005412D01*
X006168Y005412D01*
X006051Y005529D01*
X006051Y005695D01*
X006168Y005812D01*
X006334Y005812D01*
X006451Y005695D01*
X006451Y005575D01*
X006548Y005672D01*
X006631Y005672D01*
X006491Y005812D01*
X006421Y005882D01*
X006421Y006249D01*
X006341Y006329D01*
X006341Y006495D01*
X006458Y006612D01*
X006624Y006612D01*
X006741Y006495D01*
X006741Y006329D01*
X006661Y006249D01*
X006661Y005982D01*
X006871Y005772D01*
X006984Y005772D01*
X007101Y005655D01*
X007101Y005489D01*
X006984Y005372D01*
X006818Y005372D01*
X006816Y005374D01*
X006714Y005272D01*
X006548Y005272D01*
X006431Y005389D01*
X006431Y005416D02*
X006337Y005416D01*
X006416Y005494D02*
X006431Y005494D01*
X006451Y005651D02*
X006527Y005651D01*
X006574Y005730D02*
X006416Y005730D01*
X006338Y005808D02*
X006495Y005808D01*
X006421Y005887D02*
X006009Y005887D01*
X006051Y005845D02*
X005934Y005962D01*
X005768Y005962D01*
X005751Y005945D01*
X005751Y005995D01*
X005659Y006087D01*
X005701Y006129D01*
X005701Y006295D01*
X005584Y006412D01*
X005418Y006412D01*
X005301Y006295D01*
X005301Y006129D01*
X005393Y006037D01*
X005351Y005995D01*
X005234Y006112D01*
X005068Y006112D01*
X004951Y005995D01*
X004951Y005829D01*
X005068Y005712D01*
X005234Y005712D01*
X005351Y005829D01*
X005351Y005995D01*
X005351Y005829D01*
X005468Y005712D01*
X005634Y005712D01*
X005651Y005729D01*
X005651Y005679D01*
X005768Y005562D01*
X005934Y005562D01*
X006051Y005679D01*
X006051Y005845D01*
X006051Y005808D02*
X006164Y005808D01*
X006086Y005730D02*
X006051Y005730D01*
X006051Y005651D02*
X006023Y005651D01*
X006051Y005573D02*
X005944Y005573D01*
X006086Y005494D02*
X005101Y005494D01*
X005101Y005573D02*
X005758Y005573D01*
X005679Y005651D02*
X005095Y005651D01*
X005051Y005730D02*
X005016Y005730D01*
X004972Y005808D02*
X003518Y005808D01*
X003551Y005730D02*
X004786Y005730D01*
X004707Y005651D02*
X003551Y005651D01*
X003514Y005573D02*
X004701Y005573D01*
X004701Y005494D02*
X003641Y005494D01*
X003439Y005887D02*
X004951Y005887D01*
X004951Y005965D02*
X002356Y005965D01*
X002381Y006044D02*
X005000Y006044D01*
X005302Y006044D02*
X005387Y006044D01*
X005351Y005965D02*
X005351Y005965D01*
X005351Y005887D02*
X005351Y005887D01*
X005330Y005808D02*
X005372Y005808D01*
X005451Y005730D02*
X005251Y005730D01*
X005080Y005416D02*
X006165Y005416D01*
X006421Y005965D02*
X005751Y005965D01*
X005702Y006044D02*
X006421Y006044D01*
X006421Y006122D02*
X005694Y006122D01*
X005701Y006201D02*
X006020Y006201D01*
X006038Y006182D02*
X006204Y006182D01*
X006321Y006299D01*
X006321Y006465D01*
X006204Y006582D01*
X006038Y006582D01*
X005921Y006465D01*
X005921Y006299D01*
X006038Y006182D01*
X005941Y006279D02*
X005701Y006279D01*
X005638Y006358D02*
X005921Y006358D01*
X005921Y006436D02*
X003951Y006436D01*
X003951Y006429D02*
X003951Y006595D01*
X003844Y006702D01*
X003861Y006719D01*
X003861Y006885D01*
X003744Y007002D01*
X003578Y007002D01*
X003461Y006885D01*
X003461Y006719D01*
X003568Y006612D01*
X003551Y006595D01*
X003551Y006429D01*
X003668Y006312D01*
X003834Y006312D01*
X003951Y006429D01*
X003951Y006515D02*
X005971Y006515D01*
X006271Y006515D02*
X006361Y006515D01*
X006341Y006436D02*
X006321Y006436D01*
X006321Y006358D02*
X006341Y006358D01*
X006301Y006279D02*
X006391Y006279D01*
X006421Y006201D02*
X006222Y006201D01*
X006541Y006412D02*
X006541Y005932D01*
X006901Y005572D01*
X007027Y005416D02*
X007291Y005416D01*
X007291Y005494D02*
X007101Y005494D01*
X007101Y005573D02*
X007319Y005573D01*
X007329Y005651D02*
X007101Y005651D01*
X007026Y005730D02*
X007251Y005730D01*
X007231Y005808D02*
X006835Y005808D01*
X006756Y005887D02*
X006944Y005887D01*
X006865Y005965D02*
X006678Y005965D01*
X006661Y006044D02*
X006851Y006044D01*
X006851Y006122D02*
X006661Y006122D01*
X006661Y006201D02*
X006907Y006201D01*
X006947Y006279D02*
X006691Y006279D01*
X006741Y006358D02*
X006947Y006358D01*
X006972Y006436D02*
X006741Y006436D01*
X006721Y006515D02*
X007051Y006515D01*
X007131Y006593D02*
X006643Y006593D01*
X006439Y006593D02*
X003951Y006593D01*
X003874Y006672D02*
X007178Y006672D01*
X007243Y006750D02*
X003861Y006750D01*
X003861Y006829D02*
X007201Y006829D01*
X007201Y006907D02*
X003839Y006907D01*
X003760Y006986D02*
X004195Y006986D01*
X004151Y007029D02*
X004268Y006912D01*
X004434Y006912D01*
X004551Y007029D01*
X004551Y007142D01*
X004621Y007212D01*
X004621Y007512D01*
X004321Y007812D01*
X004334Y007812D01*
X004451Y007929D01*
X004451Y007992D01*
X004651Y008192D01*
X004721Y008262D01*
X004721Y008712D01*
X004651Y008782D01*
X004651Y008782D01*
X004421Y009012D01*
X004421Y009858D01*
X004451Y009888D01*
X004451Y009829D01*
X004568Y009712D01*
X004734Y009712D01*
X004851Y009829D01*
X004851Y009995D01*
X004734Y010112D01*
X004675Y010112D01*
X004955Y010392D01*
X005201Y010392D01*
X005501Y010692D01*
X005501Y010579D01*
X005618Y010462D01*
X005784Y010462D01*
X005901Y010579D01*
X005901Y010745D01*
X005784Y010862D01*
X005671Y010862D01*
X006270Y011461D01*
X006318Y011412D01*
X006484Y011412D01*
X006601Y011529D01*
X006601Y011695D01*
X006484Y011812D01*
X006318Y011812D01*
X006238Y011732D01*
X006201Y011732D01*
X006131Y011662D01*
X005881Y011412D01*
X005881Y011512D01*
X005934Y011512D01*
X006051Y011629D01*
X006051Y011795D01*
X005934Y011912D01*
X005768Y011912D01*
X005651Y011795D01*
X005651Y011652D01*
X005598Y011652D01*
X005506Y011560D01*
X005494Y011572D01*
X005551Y011629D01*
X005551Y011795D01*
X005434Y011912D01*
X005268Y011912D01*
X005151Y011795D01*
X005151Y011629D01*
X005218Y011562D01*
X005211Y011555D01*
X005104Y011662D01*
X004938Y011662D01*
X004821Y011545D01*
X004821Y011432D01*
X003768Y010378D01*
X003734Y010412D01*
X003568Y010412D01*
X003551Y010395D01*
X003551Y010445D01*
X003434Y010562D01*
X003268Y010562D01*
X003151Y010445D01*
X003151Y010279D01*
X003268Y010162D01*
X003434Y010162D01*
X003451Y010179D01*
X003451Y010129D01*
X003568Y010012D01*
X003731Y010012D01*
X003731Y007865D01*
X003644Y007952D01*
X003494Y007952D01*
X003459Y007987D01*
X003551Y008079D01*
X003551Y008245D01*
X003434Y008362D01*
X003268Y008362D01*
X003151Y008245D01*
X003151Y008079D01*
X003193Y008037D01*
X003101Y007945D01*
X003101Y007779D01*
X003218Y007662D01*
X003368Y007662D01*
X003478Y007552D01*
X003644Y007552D01*
X003761Y007669D01*
X003761Y007732D01*
X003801Y007692D01*
X003761Y007692D01*
X003801Y007692D02*
X003801Y007692D01*
X004051Y007442D01*
X004051Y007329D01*
X004168Y007212D01*
X004168Y007212D01*
X004151Y007195D01*
X004151Y007029D01*
X004151Y007064D02*
X002381Y007064D01*
X002381Y007143D02*
X003438Y007143D01*
X003458Y007122D02*
X003624Y007122D01*
X003741Y007239D01*
X003741Y007405D01*
X003624Y007522D01*
X003458Y007522D01*
X003426Y007490D01*
X003334Y007582D01*
X003168Y007582D01*
X003051Y007465D01*
X003051Y007299D01*
X003168Y007182D01*
X003334Y007182D01*
X003366Y007214D01*
X003458Y007122D01*
X003562Y006986D02*
X002364Y006986D01*
X002332Y006907D02*
X003483Y006907D01*
X003461Y006829D02*
X002276Y006829D01*
X002197Y006750D02*
X003461Y006750D01*
X003509Y006672D02*
X001691Y006672D01*
X001691Y006750D02*
X001705Y006750D01*
X001691Y006593D02*
X003551Y006593D01*
X003551Y006515D02*
X002103Y006515D01*
X002235Y006436D02*
X003551Y006436D01*
X003623Y006358D02*
X002314Y006358D01*
X002347Y006279D02*
X005301Y006279D01*
X005301Y006201D02*
X002380Y006201D01*
X002381Y006122D02*
X005308Y006122D01*
X005364Y006358D02*
X003879Y006358D01*
X003644Y007143D02*
X004151Y007143D01*
X004159Y007221D02*
X003723Y007221D01*
X003741Y007300D02*
X004081Y007300D01*
X004051Y007378D02*
X003741Y007378D01*
X003689Y007457D02*
X004037Y007457D01*
X003958Y007535D02*
X003381Y007535D01*
X003417Y007614D02*
X001691Y007614D01*
X001691Y007692D02*
X001841Y007692D01*
X001849Y007535D02*
X001691Y007535D01*
X002054Y007535D02*
X003121Y007535D01*
X003051Y007457D02*
X002215Y007457D01*
X002293Y007378D02*
X003051Y007378D01*
X003051Y007300D02*
X002339Y007300D01*
X002371Y007221D02*
X003129Y007221D01*
X003188Y007692D02*
X002061Y007692D01*
X002218Y007771D02*
X003110Y007771D01*
X003101Y007849D02*
X002296Y007849D01*
X002340Y007928D02*
X003101Y007928D01*
X003162Y008006D02*
X002373Y008006D01*
X002381Y008085D02*
X003151Y008085D01*
X003151Y008163D02*
X002381Y008163D01*
X002363Y008242D02*
X003151Y008242D01*
X003226Y008320D02*
X002330Y008320D01*
X002273Y008399D02*
X003731Y008399D01*
X003731Y008477D02*
X002194Y008477D01*
X002110Y008713D02*
X003731Y008713D01*
X003731Y008791D02*
X002238Y008791D01*
X002316Y008870D02*
X003731Y008870D01*
X003731Y008948D02*
X002349Y008948D01*
X002381Y009027D02*
X003731Y009027D01*
X003731Y009105D02*
X002381Y009105D01*
X002381Y009184D02*
X003731Y009184D01*
X003731Y009262D02*
X002354Y009262D01*
X002322Y009341D02*
X003731Y009341D01*
X003731Y009419D02*
X002921Y009419D01*
X002894Y009392D02*
X003011Y009509D01*
X003011Y009675D01*
X002929Y009757D01*
X003001Y009829D01*
X003001Y009995D01*
X002884Y010112D01*
X002718Y010112D01*
X002601Y009995D01*
X002601Y009829D01*
X002683Y009747D01*
X002666Y009730D01*
X002614Y009782D01*
X002448Y009782D01*
X002331Y009665D01*
X002331Y009499D01*
X002448Y009382D01*
X002614Y009382D01*
X002676Y009444D01*
X002728Y009392D01*
X002894Y009392D01*
X002999Y009498D02*
X003731Y009498D01*
X003731Y009576D02*
X003011Y009576D01*
X003011Y009655D02*
X003731Y009655D01*
X003731Y009733D02*
X002953Y009733D01*
X002983Y009812D02*
X003731Y009812D01*
X003731Y009890D02*
X003001Y009890D01*
X003001Y009969D02*
X003731Y009969D01*
X003533Y010047D02*
X002949Y010047D01*
X002884Y010162D02*
X003001Y010279D01*
X003001Y010445D01*
X002934Y010512D01*
X003001Y010579D01*
X003001Y010745D01*
X002884Y010862D01*
X002718Y010862D01*
X002601Y010745D01*
X002601Y010579D01*
X002668Y010512D01*
X002601Y010445D01*
X002601Y010279D01*
X002718Y010162D01*
X002884Y010162D01*
X002926Y010204D02*
X003226Y010204D01*
X003151Y010283D02*
X003001Y010283D01*
X003001Y010361D02*
X003151Y010361D01*
X003151Y010440D02*
X003001Y010440D01*
X002940Y010518D02*
X003224Y010518D01*
X003001Y010597D02*
X003986Y010597D01*
X004064Y010675D02*
X003001Y010675D01*
X002992Y010754D02*
X004143Y010754D01*
X004221Y010832D02*
X002914Y010832D01*
X002688Y010832D02*
X002279Y010832D01*
X002333Y010911D02*
X004300Y010911D01*
X004378Y010989D02*
X002366Y010989D01*
X002381Y011068D02*
X004457Y011068D01*
X004535Y011146D02*
X002381Y011146D01*
X002370Y011225D02*
X004614Y011225D01*
X004692Y011303D02*
X002337Y011303D01*
X002290Y011382D02*
X004771Y011382D01*
X004821Y011460D02*
X002211Y011460D01*
X002045Y011539D02*
X004821Y011539D01*
X004893Y011617D02*
X001691Y011617D01*
X001691Y011539D02*
X001857Y011539D01*
X001833Y011696D02*
X001691Y011696D01*
X002069Y011696D02*
X005151Y011696D01*
X005151Y011774D02*
X002221Y011774D01*
X002300Y011853D02*
X005209Y011853D01*
X005163Y011617D02*
X005149Y011617D01*
X005021Y011462D02*
X003851Y010292D01*
X003851Y007812D01*
X004251Y007412D01*
X004501Y007262D02*
X004351Y007112D01*
X004507Y006986D02*
X005295Y006986D01*
X005251Y007029D02*
X005368Y006912D01*
X005534Y006912D01*
X005651Y007029D01*
X005651Y007195D01*
X005534Y007312D01*
X005368Y007312D01*
X005251Y007195D01*
X005251Y007029D01*
X005251Y007064D02*
X004551Y007064D01*
X004551Y007143D02*
X005251Y007143D01*
X005277Y007221D02*
X004621Y007221D01*
X004621Y007300D02*
X005356Y007300D01*
X005546Y007300D02*
X007201Y007300D01*
X007201Y007378D02*
X004621Y007378D01*
X004621Y007457D02*
X007201Y007457D01*
X007201Y007535D02*
X004598Y007535D01*
X004519Y007614D02*
X007201Y007614D01*
X007201Y007692D02*
X004441Y007692D01*
X004362Y007771D02*
X007201Y007771D01*
X007201Y007849D02*
X007151Y007849D01*
X006951Y007849D02*
X004371Y007849D01*
X004449Y007928D02*
X006873Y007928D01*
X006851Y008006D02*
X004465Y008006D01*
X004543Y008085D02*
X006851Y008085D01*
X006899Y008163D02*
X004622Y008163D01*
X004700Y008242D02*
X007201Y008242D01*
X007201Y008320D02*
X004721Y008320D01*
X004721Y008399D02*
X007201Y008399D01*
X007201Y008477D02*
X004721Y008477D01*
X004721Y008556D02*
X006925Y008556D01*
X006851Y008634D02*
X004721Y008634D01*
X004720Y008713D02*
X006851Y008713D01*
X006851Y008791D02*
X004642Y008791D01*
X004563Y008870D02*
X006926Y008870D01*
X007176Y008870D02*
X007201Y008870D01*
X007201Y008948D02*
X004485Y008948D01*
X004421Y009027D02*
X007201Y009027D01*
X007201Y009105D02*
X004421Y009105D01*
X004421Y009184D02*
X007201Y009184D01*
X007201Y009262D02*
X004421Y009262D01*
X004421Y009341D02*
X007201Y009341D01*
X007201Y009419D02*
X004421Y009419D01*
X004421Y009498D02*
X007201Y009498D01*
X007201Y009576D02*
X004421Y009576D01*
X004421Y009655D02*
X007201Y009655D01*
X007201Y009733D02*
X006555Y009733D01*
X006534Y009712D02*
X006651Y009829D01*
X006651Y009995D01*
X006534Y010112D01*
X006368Y010112D01*
X006251Y009995D01*
X006251Y009829D01*
X006368Y009712D01*
X006534Y009712D01*
X006633Y009812D02*
X007201Y009812D01*
X007201Y009890D02*
X006651Y009890D01*
X006651Y009969D02*
X007201Y009969D01*
X007201Y010047D02*
X006599Y010047D01*
X006347Y009733D02*
X006005Y009733D01*
X005984Y009712D02*
X006101Y009829D01*
X006101Y009995D01*
X005984Y010112D01*
X005818Y010112D01*
X005701Y009995D01*
X005701Y009829D01*
X005818Y009712D01*
X005984Y009712D01*
X006083Y009812D02*
X006269Y009812D01*
X006251Y009890D02*
X006101Y009890D01*
X006101Y009969D02*
X006251Y009969D01*
X006303Y010047D02*
X006049Y010047D01*
X005797Y009733D02*
X005555Y009733D01*
X005534Y009712D02*
X005651Y009829D01*
X005651Y009995D01*
X005534Y010112D01*
X005368Y010112D01*
X005276Y010020D01*
X005184Y010112D01*
X005018Y010112D01*
X004901Y009995D01*
X004901Y009829D01*
X005018Y009712D01*
X005184Y009712D01*
X005276Y009804D01*
X005368Y009712D01*
X005534Y009712D01*
X005633Y009812D02*
X005719Y009812D01*
X005701Y009890D02*
X005651Y009890D01*
X005651Y009969D02*
X005701Y009969D01*
X005753Y010047D02*
X005599Y010047D01*
X005347Y009733D02*
X005205Y009733D01*
X004997Y009733D02*
X004755Y009733D01*
X004833Y009812D02*
X004919Y009812D01*
X004901Y009890D02*
X004851Y009890D01*
X004851Y009969D02*
X004901Y009969D01*
X004953Y010047D02*
X004799Y010047D01*
X004689Y010126D02*
X007201Y010126D01*
X007201Y010204D02*
X004767Y010204D01*
X004846Y010283D02*
X007201Y010283D01*
X007201Y010361D02*
X004924Y010361D01*
X004905Y010512D02*
X005151Y010512D01*
X006251Y011612D01*
X006401Y011612D01*
X006270Y011460D02*
X006269Y011460D01*
X006190Y011382D02*
X007201Y011382D01*
X007201Y011460D02*
X006532Y011460D01*
X006601Y011539D02*
X007201Y011539D01*
X007126Y011617D02*
X006601Y011617D01*
X006600Y011696D02*
X007048Y011696D01*
X006969Y011774D02*
X006522Y011774D01*
X006280Y011774D02*
X006051Y011774D01*
X006051Y011696D02*
X006165Y011696D01*
X006086Y011617D02*
X006039Y011617D01*
X006008Y011539D02*
X005960Y011539D01*
X005929Y011460D02*
X005881Y011460D01*
X005681Y011452D02*
X004941Y010712D01*
X004873Y010712D01*
X004151Y009991D01*
X004151Y008912D01*
X004451Y008612D01*
X004451Y008362D01*
X004351Y008262D01*
X004101Y008262D01*
X004001Y008162D01*
X004001Y007962D01*
X004501Y007462D01*
X004501Y007262D01*
X004301Y008012D02*
X004251Y008012D01*
X004301Y008012D02*
X004601Y008312D01*
X004601Y008662D01*
X004301Y008962D01*
X004301Y009908D01*
X004905Y010512D01*
X004851Y010912D02*
X005361Y011422D01*
X005539Y011617D02*
X005563Y011617D01*
X005551Y011696D02*
X005651Y011696D01*
X005651Y011774D02*
X005551Y011774D01*
X005493Y011853D02*
X005709Y011853D01*
X005993Y011853D02*
X006891Y011853D01*
X006812Y011931D02*
X004753Y011931D01*
X004734Y011912D02*
X004851Y012029D01*
X004851Y012195D01*
X004734Y012312D01*
X004568Y012312D01*
X004451Y012195D01*
X004451Y012029D01*
X004568Y011912D01*
X004734Y011912D01*
X004832Y012010D02*
X006621Y012010D01*
X006551Y012088D02*
X004851Y012088D01*
X004851Y012167D02*
X006551Y012167D01*
X006551Y012245D02*
X004801Y012245D01*
X004501Y012245D02*
X002361Y012245D01*
X002381Y012167D02*
X004451Y012167D01*
X004451Y012088D02*
X002381Y012088D01*
X002374Y012010D02*
X004471Y012010D01*
X004549Y011931D02*
X002342Y011931D01*
X002329Y012324D02*
X006630Y012324D01*
X006751Y012162D02*
X007321Y011592D01*
X007321Y006842D01*
X007401Y006762D01*
X007511Y006762D01*
X007731Y006872D02*
X007551Y007052D01*
X007551Y008722D01*
X007711Y008882D01*
X008721Y008882D01*
X008951Y009112D01*
X008758Y009498D02*
X008051Y009498D01*
X008051Y009429D02*
X008051Y009595D01*
X007934Y009712D01*
X007934Y009712D01*
X008001Y009779D01*
X008001Y009945D01*
X007884Y010062D01*
X007718Y010062D01*
X007601Y009945D01*
X007601Y009779D01*
X007718Y009662D01*
X007718Y009662D01*
X007651Y009595D01*
X007651Y009429D01*
X007768Y009312D01*
X007934Y009312D01*
X008051Y009429D01*
X008041Y009419D02*
X008650Y009419D01*
X008708Y009477D02*
X008587Y009356D01*
X008521Y009198D01*
X008521Y009026D01*
X008531Y009002D01*
X008324Y009002D01*
X008351Y009029D01*
X008351Y009195D01*
X008234Y009312D01*
X008068Y009312D01*
X007951Y009195D01*
X007951Y009029D01*
X007978Y009002D01*
X007661Y009002D01*
X007591Y008932D01*
X007441Y008782D01*
X007441Y011642D01*
X007387Y011696D02*
X008833Y011696D01*
X008753Y011539D02*
X007441Y011539D01*
X007441Y011460D02*
X008634Y011460D01*
X008566Y011382D02*
X007441Y011382D01*
X007441Y011303D02*
X008521Y011303D01*
X008494Y011225D02*
X007441Y011225D01*
X007201Y011225D02*
X006033Y011225D01*
X006112Y011303D02*
X007201Y011303D01*
X007201Y011146D02*
X005955Y011146D01*
X005876Y011068D02*
X007201Y011068D01*
X007201Y010989D02*
X005798Y010989D01*
X005719Y010911D02*
X007201Y010911D01*
X007201Y010832D02*
X005814Y010832D01*
X005892Y010754D02*
X007201Y010754D01*
X007201Y010675D02*
X005901Y010675D01*
X005901Y010597D02*
X007201Y010597D01*
X007201Y010518D02*
X005840Y010518D01*
X005562Y010518D02*
X005327Y010518D01*
X005405Y010597D02*
X005501Y010597D01*
X005501Y010675D02*
X005484Y010675D01*
X005248Y010440D02*
X007201Y010440D01*
X007441Y010440D02*
X008671Y010440D01*
X008708Y010477D02*
X008587Y010356D01*
X008521Y010198D01*
X008521Y010026D01*
X008587Y009868D01*
X008708Y009747D01*
X008866Y009682D01*
X009037Y009682D01*
X009195Y009747D01*
X009211Y009764D01*
X009211Y009460D01*
X009195Y009477D01*
X009037Y009542D01*
X008866Y009542D01*
X008708Y009477D01*
X008580Y009341D02*
X007962Y009341D01*
X008018Y009262D02*
X007441Y009262D01*
X007441Y009184D02*
X007951Y009184D01*
X007951Y009105D02*
X007441Y009105D01*
X007441Y009027D02*
X007954Y009027D01*
X007933Y008713D02*
X008792Y008713D01*
X008709Y008477D02*
X008169Y008477D01*
X008201Y008399D02*
X008630Y008399D01*
X008572Y008320D02*
X008201Y008320D01*
X008163Y008242D02*
X008539Y008242D01*
X008521Y008163D02*
X008085Y008163D01*
X007917Y008163D02*
X007671Y008163D01*
X007671Y008242D02*
X007839Y008242D01*
X007801Y008320D02*
X007671Y008320D01*
X007671Y008399D02*
X007801Y008399D01*
X007951Y008634D02*
X009211Y008634D01*
X009211Y008556D02*
X008090Y008556D01*
X007861Y008085D02*
X008521Y008085D01*
X008530Y008006D02*
X007940Y008006D01*
X007951Y007928D02*
X008562Y007928D01*
X008606Y007849D02*
X007951Y007849D01*
X007892Y007771D02*
X008684Y007771D01*
X008841Y007692D02*
X007951Y007692D01*
X007951Y007614D02*
X009211Y007614D01*
X009211Y007692D02*
X009061Y007692D01*
X009054Y007535D02*
X009211Y007535D01*
X008849Y007535D02*
X007951Y007535D01*
X007878Y007457D02*
X008688Y007457D01*
X008609Y007378D02*
X007671Y007378D01*
X007671Y007300D02*
X008563Y007300D01*
X008531Y007221D02*
X007671Y007221D01*
X007671Y007143D02*
X008521Y007143D01*
X008521Y007064D02*
X007709Y007064D01*
X007787Y006986D02*
X008538Y006986D01*
X008571Y006907D02*
X007851Y006907D01*
X007851Y006829D02*
X008626Y006829D01*
X008705Y006750D02*
X007851Y006750D01*
X007851Y006672D02*
X009211Y006672D01*
X009211Y006750D02*
X009197Y006750D01*
X009211Y006593D02*
X007851Y006593D01*
X007813Y006515D02*
X008799Y006515D01*
X008667Y006436D02*
X007735Y006436D01*
X007651Y006358D02*
X008589Y006358D01*
X008555Y006279D02*
X007651Y006279D01*
X007651Y006201D02*
X008522Y006201D01*
X008521Y006122D02*
X007574Y006122D01*
X007581Y005965D02*
X008547Y005965D01*
X008521Y006044D02*
X007251Y006044D01*
X007251Y006122D02*
X007328Y006122D01*
X007281Y005965D02*
X007237Y005965D01*
X007231Y005887D02*
X007158Y005887D01*
X007333Y005337D02*
X006779Y005337D01*
X007585Y005651D02*
X009211Y005651D01*
X009211Y005573D02*
X007663Y005573D01*
X007691Y005494D02*
X008750Y005494D01*
X008751Y005730D02*
X007611Y005730D01*
X007631Y005808D02*
X008647Y005808D01*
X008579Y005887D02*
X007631Y005887D01*
X007764Y005549D02*
X007767Y005549D01*
X007882Y005180D02*
X005151Y005180D01*
X005073Y005102D02*
X007882Y005102D01*
X008668Y004788D02*
X004701Y004788D01*
X004631Y004709D02*
X008800Y004709D01*
X009102Y004709D02*
X009211Y004709D01*
X009211Y004631D02*
X001691Y004631D01*
X001691Y004709D02*
X001800Y004709D01*
X001691Y004552D02*
X009211Y004552D01*
X009211Y004474D02*
X009198Y004474D01*
X009211Y003689D02*
X009052Y003689D01*
X009062Y003532D02*
X009211Y003532D01*
X009211Y003610D02*
X001691Y003610D01*
X001691Y003532D02*
X001840Y003532D01*
X001850Y003689D02*
X001691Y003689D01*
X001691Y004474D02*
X001705Y004474D01*
X002235Y004788D02*
X003105Y004788D01*
X003025Y004866D02*
X002313Y004866D01*
X002347Y004945D02*
X002965Y004945D01*
X002932Y005023D02*
X002380Y005023D01*
X002381Y005102D02*
X002911Y005102D01*
X002911Y005180D02*
X002381Y005180D01*
X002356Y005259D02*
X002915Y005259D01*
X002947Y005337D02*
X002323Y005337D01*
X002256Y005416D02*
X002982Y005416D01*
X003061Y005494D02*
X002153Y005494D01*
X002151Y005730D02*
X003151Y005730D01*
X003151Y005651D02*
X001691Y005651D01*
X001691Y005573D02*
X003188Y005573D01*
X003184Y005808D02*
X002255Y005808D01*
X002323Y005887D02*
X003263Y005887D01*
X004095Y005023D02*
X004257Y005023D01*
X004179Y005102D02*
X004173Y005102D01*
X004159Y005337D02*
X004193Y005337D01*
X003498Y003532D02*
X003204Y003532D01*
X003282Y003453D02*
X003420Y003453D01*
X001750Y005494D02*
X001691Y005494D01*
X001691Y005730D02*
X001751Y005730D01*
X001799Y006515D02*
X001691Y006515D01*
X001691Y008477D02*
X001709Y008477D01*
X001691Y008556D02*
X003731Y008556D01*
X003731Y008634D02*
X001691Y008634D01*
X001691Y008713D02*
X001792Y008713D01*
X002252Y009419D02*
X002411Y009419D01*
X002333Y009498D02*
X002144Y009498D01*
X002160Y009733D02*
X002399Y009733D01*
X002331Y009655D02*
X001691Y009655D01*
X001691Y009733D02*
X001742Y009733D01*
X001691Y009576D02*
X002331Y009576D01*
X002259Y009812D02*
X002619Y009812D01*
X002601Y009890D02*
X002325Y009890D01*
X002357Y009969D02*
X002601Y009969D01*
X002653Y010047D02*
X002381Y010047D01*
X002381Y010126D02*
X003455Y010126D01*
X003551Y010440D02*
X003829Y010440D01*
X003907Y010518D02*
X003478Y010518D01*
X004001Y010062D02*
X004851Y010912D01*
X005249Y010047D02*
X005303Y010047D01*
X004547Y009733D02*
X004421Y009733D01*
X004421Y009812D02*
X004469Y009812D01*
X004001Y010062D02*
X004001Y008712D01*
X004251Y008462D01*
X003731Y008320D02*
X003476Y008320D01*
X003551Y008242D02*
X003731Y008242D01*
X003731Y008163D02*
X003551Y008163D01*
X003551Y008085D02*
X003731Y008085D01*
X003731Y008006D02*
X003478Y008006D01*
X003668Y007928D02*
X003731Y007928D01*
X003705Y007614D02*
X003880Y007614D01*
X002701Y009419D02*
X002651Y009419D01*
X002663Y009733D02*
X002669Y009733D01*
X002676Y010204D02*
X002378Y010204D01*
X002346Y010283D02*
X002601Y010283D01*
X002601Y010361D02*
X002310Y010361D01*
X002232Y010440D02*
X002601Y010440D01*
X002662Y010518D02*
X002095Y010518D01*
X002201Y010754D02*
X002610Y010754D01*
X002601Y010675D02*
X001691Y010675D01*
X001691Y010597D02*
X002601Y010597D01*
X001808Y010518D02*
X001691Y010518D01*
X001691Y010754D02*
X001701Y010754D01*
X001691Y009498D02*
X001758Y009498D01*
X002269Y012402D02*
X008633Y012402D01*
X008573Y012324D02*
X006872Y012324D01*
X006995Y012088D02*
X008521Y012088D01*
X008528Y012010D02*
X007073Y012010D01*
X007152Y011931D02*
X008561Y011931D01*
X008602Y011853D02*
X007230Y011853D01*
X007309Y011774D02*
X008681Y011774D01*
X009069Y011696D02*
X009211Y011696D01*
X008991Y011072D02*
X008911Y011072D01*
X008911Y010643D01*
X008841Y010654D01*
X008771Y010676D01*
X008705Y010710D01*
X008645Y010754D01*
X008775Y010675D02*
X007441Y010675D01*
X007441Y010597D02*
X009211Y010597D01*
X009211Y010675D02*
X009127Y010675D01*
X009132Y010676D02*
X009197Y010710D01*
X009211Y010720D01*
X009211Y010460D01*
X009195Y010477D01*
X009037Y010542D01*
X008866Y010542D01*
X008708Y010477D01*
X008808Y010518D02*
X007441Y010518D01*
X007441Y010361D02*
X008592Y010361D01*
X008556Y010283D02*
X007441Y010283D01*
X007441Y010204D02*
X008524Y010204D01*
X008521Y010126D02*
X007441Y010126D01*
X007441Y010047D02*
X007703Y010047D01*
X007625Y009969D02*
X007441Y009969D01*
X007441Y009890D02*
X007601Y009890D01*
X007601Y009812D02*
X007441Y009812D01*
X007441Y009733D02*
X007647Y009733D01*
X007711Y009655D02*
X007441Y009655D01*
X007441Y009576D02*
X007651Y009576D01*
X007651Y009498D02*
X007441Y009498D01*
X007441Y009419D02*
X007661Y009419D01*
X007740Y009341D02*
X007441Y009341D01*
X007441Y008948D02*
X007607Y008948D01*
X007529Y008870D02*
X007441Y008870D01*
X007441Y008791D02*
X007450Y008791D01*
X007201Y008556D02*
X007177Y008556D01*
X007955Y009733D02*
X008742Y009733D01*
X008643Y009812D02*
X008001Y009812D01*
X008001Y009890D02*
X008578Y009890D01*
X008545Y009969D02*
X007977Y009969D01*
X007899Y010047D02*
X008521Y010047D01*
X008911Y010675D02*
X008991Y010675D01*
X008991Y010643D02*
X009061Y010654D01*
X009132Y010676D01*
X008991Y010643D02*
X008991Y011072D01*
X008991Y011068D02*
X008911Y011068D01*
X008911Y010989D02*
X008991Y010989D01*
X008991Y010911D02*
X008911Y010911D01*
X008911Y010832D02*
X008991Y010832D01*
X008991Y010754D02*
X008911Y010754D01*
X009095Y010518D02*
X009211Y010518D01*
X009211Y009733D02*
X009160Y009733D01*
X009211Y009655D02*
X007991Y009655D01*
X008051Y009576D02*
X009211Y009576D01*
X009211Y009498D02*
X009144Y009498D01*
X008548Y009262D02*
X008284Y009262D01*
X008351Y009184D02*
X008521Y009184D01*
X008521Y009105D02*
X008351Y009105D01*
X008348Y009027D02*
X008521Y009027D01*
X009110Y008713D02*
X009211Y008713D01*
X009194Y008477D02*
X009211Y008477D01*
X009211Y006515D02*
X009103Y006515D01*
X009151Y005730D02*
X009211Y005730D01*
X009211Y005494D02*
X009153Y005494D01*
X007731Y006602D02*
X007671Y006542D01*
X007331Y006542D01*
X007731Y006602D02*
X007731Y006872D01*
X007201Y006986D02*
X005607Y006986D01*
X005651Y007064D02*
X007201Y007064D01*
X007201Y007143D02*
X005651Y007143D01*
X005625Y007221D02*
X007201Y007221D01*
X008717Y012481D02*
X002185Y012481D01*
X002206Y012716D02*
X008783Y012716D01*
X008660Y012795D02*
X002298Y012795D01*
X002357Y012873D02*
X008585Y012873D01*
X008552Y012952D02*
X002393Y012952D01*
X002414Y013030D02*
X002850Y013030D01*
X002868Y013012D02*
X003034Y013012D01*
X003151Y013129D01*
X003151Y013295D01*
X003034Y013412D01*
X002868Y013412D01*
X002751Y013295D01*
X002751Y013129D01*
X002868Y013012D01*
X002772Y013109D02*
X001991Y013109D01*
X001991Y013152D02*
X002421Y013152D01*
X002410Y013222D01*
X002387Y013292D01*
X002353Y013358D01*
X002310Y013418D01*
X002257Y013471D01*
X002197Y013514D01*
X002132Y013548D01*
X002061Y013570D01*
X001991Y013582D01*
X001991Y013152D01*
X001991Y013187D02*
X001911Y013187D01*
X001911Y013266D02*
X001991Y013266D01*
X001991Y013344D02*
X001911Y013344D01*
X001911Y013423D02*
X001991Y013423D01*
X001991Y013501D02*
X001911Y013501D01*
X001911Y013580D02*
X001991Y013580D01*
X002004Y013580D02*
X004436Y013580D01*
X004468Y013612D02*
X004351Y013495D01*
X004351Y013329D01*
X004468Y013212D01*
X004634Y013212D01*
X004751Y013329D01*
X004751Y013495D01*
X004634Y013612D01*
X004468Y013612D01*
X004357Y013501D02*
X002215Y013501D01*
X002305Y013423D02*
X004351Y013423D01*
X004351Y013344D02*
X003102Y013344D01*
X003151Y013266D02*
X004415Y013266D01*
X004688Y013266D02*
X008228Y013266D01*
X008149Y013344D02*
X004751Y013344D01*
X004751Y013423D02*
X008071Y013423D01*
X007992Y013501D02*
X006973Y013501D01*
X006934Y013462D02*
X006768Y013462D01*
X006651Y013579D01*
X006651Y013745D01*
X006768Y013862D01*
X006934Y013862D01*
X007051Y013745D01*
X007051Y013579D01*
X006934Y013462D01*
X007051Y013580D02*
X007914Y013580D01*
X007851Y013812D02*
X008551Y013112D01*
X008951Y013112D01*
X009119Y012716D02*
X009211Y012716D01*
X009211Y012638D02*
X001691Y012638D01*
X001691Y012716D02*
X001697Y012716D01*
X001691Y012559D02*
X009211Y012559D01*
X009211Y012481D02*
X009185Y012481D01*
X008654Y013423D02*
X008410Y013423D01*
X008332Y013501D02*
X008767Y013501D01*
X008734Y013737D02*
X008096Y013737D01*
X008051Y013815D02*
X008640Y013815D01*
X008576Y013894D02*
X008051Y013894D01*
X007974Y013972D02*
X008544Y013972D01*
X008521Y014051D02*
X002381Y014051D01*
X002381Y014129D02*
X008521Y014129D01*
X008525Y014208D02*
X002377Y014208D01*
X002344Y014286D02*
X008558Y014286D01*
X008596Y014365D02*
X002307Y014365D01*
X002228Y014443D02*
X008674Y014443D01*
X008816Y014522D02*
X002086Y014522D01*
X001816Y014522D02*
X001691Y014522D01*
X001691Y014600D02*
X009211Y014600D01*
X009211Y014522D02*
X009086Y014522D01*
X009211Y014679D02*
X001691Y014679D01*
X001691Y014757D02*
X009211Y014757D01*
X009211Y014836D02*
X006514Y014836D01*
X006650Y014914D02*
X008466Y014914D01*
X008518Y014862D02*
X008401Y014979D01*
X008401Y015145D01*
X008518Y015262D01*
X008684Y015262D01*
X008801Y015145D01*
X008801Y014979D01*
X008684Y014862D01*
X008518Y014862D01*
X008401Y014993D02*
X006721Y014993D01*
X006767Y015071D02*
X008401Y015071D01*
X008406Y015150D02*
X006793Y015150D01*
X006793Y015228D02*
X008484Y015228D01*
X008718Y015228D02*
X009211Y015228D01*
X009211Y015150D02*
X008796Y015150D01*
X008801Y015071D02*
X009211Y015071D01*
X009211Y014993D02*
X008801Y014993D01*
X008736Y014914D02*
X009211Y014914D01*
X009211Y015307D02*
X006793Y015307D01*
X006793Y015385D02*
X009211Y015385D01*
X009211Y015464D02*
X006793Y015464D01*
X006793Y015542D02*
X009211Y015542D01*
X009168Y013737D02*
X009211Y013737D01*
X009211Y013658D02*
X008175Y013658D01*
X008253Y013580D02*
X009211Y013580D01*
X009211Y013501D02*
X009136Y013501D01*
X008582Y013344D02*
X008489Y013344D01*
X008306Y013187D02*
X003151Y013187D01*
X003131Y013109D02*
X008385Y013109D01*
X008463Y013030D02*
X003052Y013030D01*
X002751Y013187D02*
X002415Y013187D01*
X002395Y013266D02*
X002751Y013266D01*
X002800Y013344D02*
X002360Y013344D01*
X002168Y013737D02*
X006651Y013737D01*
X006651Y013658D02*
X001691Y013658D01*
X001691Y013580D02*
X001899Y013580D01*
X001734Y013737D02*
X001691Y013737D01*
X001911Y013030D02*
X001991Y013030D01*
X001991Y012952D02*
X001911Y012952D01*
X001911Y012873D02*
X001991Y012873D01*
X001991Y012795D02*
X001911Y012795D01*
X001911Y012716D02*
X001991Y012716D01*
X001717Y012481D02*
X001691Y012481D01*
X002262Y013815D02*
X006721Y013815D01*
X006651Y013580D02*
X004666Y013580D01*
X004745Y013501D02*
X006729Y013501D01*
X007051Y013658D02*
X007122Y013658D01*
X007168Y013612D02*
X007334Y013612D01*
X007451Y013729D01*
X007451Y013895D01*
X007334Y014012D01*
X007168Y014012D01*
X007051Y013895D01*
X007051Y013729D01*
X007168Y013612D01*
X007051Y013737D02*
X007051Y013737D01*
X007051Y013815D02*
X006981Y013815D01*
X007051Y013894D02*
X002326Y013894D01*
X002359Y013972D02*
X007128Y013972D01*
X007374Y013972D02*
X007728Y013972D01*
X007651Y013894D02*
X007451Y013894D01*
X007451Y013815D02*
X007651Y013815D01*
X007651Y013737D02*
X007451Y013737D01*
X007380Y013658D02*
X007722Y013658D01*
X006258Y014836D02*
X004644Y014836D01*
X004780Y014914D02*
X006122Y014914D01*
X006051Y014993D02*
X004851Y014993D01*
X004897Y015071D02*
X006006Y015071D01*
X005979Y015150D02*
X004923Y015150D01*
X004923Y015228D02*
X005979Y015228D01*
X005979Y015307D02*
X004923Y015307D01*
X004923Y015385D02*
X005979Y015385D01*
X005979Y015464D02*
X004923Y015464D01*
X004923Y015542D02*
X005979Y015542D01*
X004388Y014836D02*
X001691Y014836D01*
X001691Y014914D02*
X004252Y014914D01*
X004213Y014936D02*
X004213Y014936D01*
X004213Y014936D01*
X004181Y014993D02*
X001691Y014993D01*
X001691Y015071D02*
X002609Y015071D01*
X002551Y015129D02*
X002668Y015012D01*
X002834Y015012D01*
X002951Y015129D01*
X002951Y015295D01*
X002834Y015412D01*
X002668Y015412D01*
X002551Y015295D01*
X002551Y015129D01*
X002551Y015150D02*
X001691Y015150D01*
X001691Y015228D02*
X002551Y015228D01*
X002563Y015307D02*
X001691Y015307D01*
X001691Y015385D02*
X002641Y015385D01*
X002861Y015385D02*
X004109Y015385D01*
X004109Y015307D02*
X002939Y015307D01*
X002951Y015228D02*
X004109Y015228D01*
X004109Y015150D02*
X002951Y015150D01*
X002893Y015071D02*
X004135Y015071D01*
X004109Y015464D02*
X001691Y015464D01*
X001691Y015542D02*
X004109Y015542D01*
D13*
X002751Y015212D03*
X002051Y014712D03*
X002951Y013212D03*
X003451Y012612D03*
X003651Y011762D03*
X003651Y011262D03*
X003351Y010362D03*
X003651Y010212D03*
X002801Y010362D03*
X002801Y010662D03*
X002801Y009912D03*
X002811Y009592D03*
X002531Y009582D03*
X003351Y008162D03*
X003301Y007862D03*
X003561Y007752D03*
X003541Y007322D03*
X003251Y007382D03*
X003661Y006802D03*
X003751Y006512D03*
X004101Y006262D03*
X004351Y007112D03*
X004251Y007412D03*
X004251Y008012D03*
X004251Y008462D03*
X005051Y008312D03*
X005051Y008712D03*
X005051Y009112D03*
X005451Y009112D03*
X005451Y008712D03*
X005451Y008312D03*
X005451Y007912D03*
X005051Y007912D03*
X005451Y007112D03*
X005851Y007912D03*
X005851Y008312D03*
X005851Y008712D03*
X005851Y009112D03*
X006251Y009112D03*
X006251Y008712D03*
X006251Y008312D03*
X006251Y007912D03*
X007051Y008032D03*
X007051Y008712D03*
X007751Y008612D03*
X008001Y008362D03*
X008131Y008102D03*
X007751Y007912D03*
X007751Y007612D03*
X007511Y006762D03*
X007331Y006542D03*
X007451Y006282D03*
X007147Y006328D03*
X007051Y006062D03*
X006901Y005572D03*
X006631Y005472D03*
X006251Y005612D03*
X005851Y005762D03*
X005551Y005912D03*
X005501Y006212D03*
X005151Y005912D03*
X004851Y005912D03*
X004901Y005562D03*
X004951Y005262D03*
X005101Y004962D03*
X004501Y004862D03*
X004351Y005212D03*
X004001Y005212D03*
X003351Y005692D03*
X002701Y003762D03*
X005001Y003462D03*
X005351Y003162D03*
X005751Y002812D03*
X006301Y003362D03*
X006301Y003762D03*
X006301Y004162D03*
X006301Y004562D03*
X006701Y004562D03*
X006701Y004162D03*
X006701Y004162D03*
X006701Y003762D03*
X006701Y003362D03*
X007101Y003362D03*
X007101Y003762D03*
X007101Y004162D03*
X007101Y004562D03*
X007501Y004562D03*
X007501Y004162D03*
X007501Y003762D03*
X007501Y003362D03*
X008401Y002312D03*
X007341Y001732D03*
X008082Y005144D03*
X007767Y005549D03*
X007491Y005462D03*
X007431Y005832D03*
X006541Y006412D03*
X006121Y006382D03*
X008151Y009112D03*
X007851Y009512D03*
X007801Y009862D03*
X007701Y010262D03*
X006971Y011562D03*
X006751Y012162D03*
X006401Y011612D03*
X005851Y011712D03*
X005681Y011452D03*
X005361Y011422D03*
X005351Y011712D03*
X005021Y011462D03*
X004651Y012112D03*
X004351Y012612D03*
X004551Y013412D03*
X005251Y013062D03*
X005251Y013062D03*
X005651Y013062D03*
X005651Y012562D03*
X005251Y012562D03*
X006151Y013512D03*
X006851Y013662D03*
X007251Y013812D03*
X007851Y013812D03*
X007401Y012762D03*
X006131Y010662D03*
X005701Y010662D03*
X005901Y009912D03*
X005451Y009912D03*
X005101Y009912D03*
X004651Y009912D03*
X006451Y009912D03*
X008601Y015062D03*
X008201Y015412D03*
M02*
