G75*
%MOIN*%
%OFA0B0*%
%FSLAX24Y24*%
%IPPOS*%
%LPD*%
%AMOC8*
5,1,8,0,0,1.08239X$1,22.5*
%
%ADD10C,0.0700*%
%ADD11C,0.0410*%
%ADD12C,0.0240*%
%ADD13C,0.0080*%
D10*
X001951Y003112D03*
X001951Y004112D03*
X001951Y005112D03*
X001951Y006112D03*
X001951Y007112D03*
X001951Y008112D03*
X001951Y009112D03*
X001951Y010112D03*
X001951Y011112D03*
X001951Y012112D03*
X001951Y013112D03*
X001951Y014112D03*
X008951Y014112D03*
X008951Y013112D03*
X008951Y012112D03*
X008951Y011112D03*
X008951Y010112D03*
X008951Y009112D03*
X008951Y008112D03*
X008951Y007112D03*
X008951Y006112D03*
X008951Y005112D03*
X008951Y004112D03*
X008951Y003112D03*
D11*
X001451Y003112D03*
X001451Y004112D03*
X001451Y005112D03*
X001451Y006112D03*
X001451Y007112D03*
X001451Y008112D03*
X001451Y009112D03*
X001451Y010112D03*
X001451Y011112D03*
X001451Y012112D03*
X001451Y013112D03*
X001451Y014112D03*
X009451Y014112D03*
X009451Y013112D03*
X009451Y012112D03*
X009451Y011112D03*
X009451Y010112D03*
X009451Y009112D03*
X009451Y008112D03*
X009451Y007112D03*
X009451Y006112D03*
X009451Y005112D03*
X009451Y004112D03*
X009451Y003112D03*
D12*
X008401Y002312D03*
X007501Y003362D03*
X007101Y003362D03*
X007101Y003762D03*
X007101Y004162D03*
X007101Y004562D03*
X007501Y004562D03*
X007501Y004162D03*
X007501Y003762D03*
X006701Y003762D03*
X006701Y004162D03*
X006701Y004162D03*
X006701Y004562D03*
X006301Y004562D03*
X006301Y004162D03*
X006301Y003762D03*
X006301Y003362D03*
X006701Y003362D03*
X005751Y002812D03*
X005351Y003162D03*
X005001Y003462D03*
X004501Y004862D03*
X004351Y005212D03*
X004001Y005212D03*
X003351Y005692D03*
X003751Y006512D03*
X003661Y006802D03*
X003541Y007322D03*
X003561Y007752D03*
X003301Y007862D03*
X003351Y008162D03*
X003251Y007382D03*
X004101Y006262D03*
X004351Y007112D03*
X004251Y007412D03*
X004251Y008012D03*
X004251Y008462D03*
X005051Y008312D03*
X005051Y008712D03*
X005051Y009112D03*
X005451Y009112D03*
X005451Y008712D03*
X005451Y008312D03*
X005451Y007912D03*
X005051Y007912D03*
X005451Y007112D03*
X005851Y007912D03*
X005851Y008312D03*
X005851Y008712D03*
X005851Y009112D03*
X006251Y009112D03*
X006251Y008712D03*
X006251Y008312D03*
X006251Y007912D03*
X007051Y008032D03*
X007051Y008712D03*
X007751Y008612D03*
X008001Y008362D03*
X008131Y008102D03*
X007751Y007912D03*
X007751Y007612D03*
X007511Y006762D03*
X007331Y006542D03*
X007451Y006282D03*
X007147Y006328D03*
X007051Y006062D03*
X006901Y005572D03*
X006631Y005472D03*
X006251Y005612D03*
X005851Y005762D03*
X005551Y005912D03*
X005501Y006212D03*
X005151Y005912D03*
X004851Y005912D03*
X004901Y005562D03*
X004951Y005262D03*
X005101Y004962D03*
X006121Y006382D03*
X006541Y006412D03*
X007431Y005832D03*
X007491Y005462D03*
X007767Y005549D03*
X008082Y005144D03*
X007341Y001732D03*
X002701Y003762D03*
X002531Y009582D03*
X002811Y009592D03*
X002801Y009912D03*
X002801Y010362D03*
X002801Y010662D03*
X003351Y010362D03*
X003651Y010212D03*
X003651Y011262D03*
X003651Y011762D03*
X003451Y012612D03*
X002951Y013212D03*
X002051Y014712D03*
X002751Y015212D03*
X004551Y013412D03*
X004351Y012612D03*
X004651Y012112D03*
X005021Y011462D03*
X005361Y011422D03*
X005351Y011712D03*
X005681Y011452D03*
X005851Y011712D03*
X006401Y011612D03*
X006751Y012162D03*
X006971Y011562D03*
X006131Y010662D03*
X005701Y010662D03*
X005901Y009912D03*
X005451Y009912D03*
X005101Y009912D03*
X004651Y009912D03*
X005251Y012562D03*
X005651Y012562D03*
X005651Y013062D03*
X005251Y013062D03*
X005251Y013062D03*
X006151Y013512D03*
X006851Y013662D03*
X007251Y013812D03*
X007851Y013812D03*
X007401Y012762D03*
X008601Y015062D03*
X008201Y015242D03*
X007701Y010262D03*
X007801Y009862D03*
X007851Y009512D03*
X008151Y009112D03*
X006451Y009912D03*
D13*
X006451Y010612D01*
X008951Y013112D01*
X008783Y012716D02*
X008725Y012716D01*
X008742Y012733D02*
X008866Y012682D01*
X009037Y012682D01*
X009195Y012747D01*
X009211Y012764D01*
X009211Y012460D01*
X009195Y012477D01*
X009037Y012542D01*
X008866Y012542D01*
X008708Y012477D01*
X008587Y012356D01*
X008521Y012198D01*
X008521Y012026D01*
X008587Y011868D01*
X008708Y011747D01*
X008866Y011682D01*
X009037Y011682D01*
X009195Y011747D01*
X009211Y011764D01*
X009211Y011460D01*
X009195Y011477D01*
X009037Y011542D01*
X008866Y011542D01*
X008708Y011477D01*
X008587Y011356D01*
X008521Y011198D01*
X008521Y011026D01*
X008587Y010868D01*
X008708Y010747D01*
X008866Y010682D01*
X009037Y010682D01*
X009195Y010747D01*
X009211Y010764D01*
X009211Y010460D01*
X009195Y010477D01*
X009037Y010542D01*
X008866Y010542D01*
X008708Y010477D01*
X008587Y010356D01*
X008521Y010198D01*
X008521Y010026D01*
X008587Y009868D01*
X008708Y009747D01*
X008866Y009682D01*
X009037Y009682D01*
X009195Y009747D01*
X009211Y009764D01*
X009211Y009460D01*
X009195Y009477D01*
X009037Y009542D01*
X008866Y009542D01*
X008708Y009477D01*
X008587Y009356D01*
X008521Y009198D01*
X008521Y009026D01*
X008587Y008868D01*
X008708Y008747D01*
X008866Y008682D01*
X009037Y008682D01*
X009195Y008747D01*
X009211Y008764D01*
X009211Y008460D01*
X009195Y008477D01*
X009037Y008542D01*
X008866Y008542D01*
X008708Y008477D01*
X008587Y008356D01*
X008521Y008198D01*
X008521Y008026D01*
X008587Y007868D01*
X008708Y007747D01*
X008866Y007682D01*
X009037Y007682D01*
X009195Y007747D01*
X009211Y007764D01*
X009211Y007460D01*
X009195Y007477D01*
X009037Y007542D01*
X008866Y007542D01*
X008708Y007477D01*
X008587Y007356D01*
X008521Y007198D01*
X008521Y007026D01*
X008587Y006868D01*
X008708Y006747D01*
X008866Y006682D01*
X009037Y006682D01*
X009195Y006747D01*
X009211Y006764D01*
X009211Y006460D01*
X009195Y006477D01*
X009037Y006542D01*
X008866Y006542D01*
X008708Y006477D01*
X008587Y006356D01*
X008521Y006198D01*
X008521Y006026D01*
X008587Y005868D01*
X008708Y005747D01*
X008866Y005682D01*
X009037Y005682D01*
X009195Y005747D01*
X009211Y005764D01*
X009211Y005460D01*
X009195Y005477D01*
X009037Y005542D01*
X008866Y005542D01*
X008708Y005477D01*
X008587Y005356D01*
X008521Y005198D01*
X008521Y005026D01*
X008587Y004868D01*
X008708Y004747D01*
X008866Y004682D01*
X009037Y004682D01*
X009195Y004747D01*
X009211Y004764D01*
X009211Y004460D01*
X009195Y004477D01*
X009037Y004542D01*
X008866Y004542D01*
X008708Y004477D01*
X008587Y004356D01*
X008521Y004198D01*
X008521Y004026D01*
X008587Y003868D01*
X008708Y003747D01*
X008866Y003682D01*
X009037Y003682D01*
X009195Y003747D01*
X009211Y003764D01*
X009211Y003460D01*
X009195Y003477D01*
X009037Y003542D01*
X008866Y003542D01*
X008708Y003477D01*
X008587Y003356D01*
X008521Y003198D01*
X008521Y003026D01*
X008587Y002868D01*
X008708Y002747D01*
X008866Y002682D01*
X009037Y002682D01*
X009195Y002747D01*
X009211Y002764D01*
X009211Y002669D01*
X008703Y001652D01*
X007541Y001652D01*
X007541Y001815D01*
X007424Y001932D01*
X007258Y001932D01*
X007141Y001815D01*
X007141Y001652D01*
X005101Y001652D01*
X005101Y003279D01*
X005201Y003379D01*
X005201Y003545D01*
X005084Y003662D01*
X004918Y003662D01*
X004801Y003545D01*
X004801Y003381D01*
X004137Y003381D01*
X004124Y003411D01*
X004000Y003535D01*
X003839Y003602D01*
X003664Y003602D01*
X003502Y003535D01*
X003378Y003411D01*
X003365Y003381D01*
X003337Y003381D01*
X003324Y003411D01*
X003200Y003535D01*
X003039Y003602D01*
X002864Y003602D01*
X002796Y003574D01*
X002901Y003679D01*
X002901Y003845D01*
X002784Y003962D01*
X002618Y003962D01*
X002501Y003845D01*
X002501Y003679D01*
X002618Y003562D01*
X002767Y003562D01*
X002702Y003535D01*
X002578Y003411D01*
X002565Y003381D01*
X002291Y003381D01*
X002195Y003477D01*
X002037Y003542D01*
X001866Y003542D01*
X001708Y003477D01*
X001691Y003460D01*
X001691Y003764D01*
X001708Y003747D01*
X001866Y003682D01*
X002037Y003682D01*
X002195Y003747D01*
X002316Y003868D01*
X002381Y004026D01*
X002381Y004198D01*
X002316Y004356D01*
X002195Y004477D01*
X002037Y004542D01*
X001866Y004542D01*
X001708Y004477D01*
X001691Y004460D01*
X001691Y004764D01*
X001708Y004747D01*
X001866Y004682D01*
X002037Y004682D01*
X002195Y004747D01*
X002316Y004868D01*
X002381Y005026D01*
X002381Y005198D01*
X002316Y005356D01*
X002195Y005477D01*
X002037Y005542D01*
X001866Y005542D01*
X001708Y005477D01*
X001691Y005460D01*
X001691Y005764D01*
X001708Y005747D01*
X001866Y005682D01*
X002037Y005682D01*
X002195Y005747D01*
X002316Y005868D01*
X002381Y006026D01*
X002381Y006198D01*
X002316Y006356D01*
X002195Y006477D01*
X002037Y006542D01*
X001866Y006542D01*
X001708Y006477D01*
X001691Y006460D01*
X001691Y006764D01*
X001708Y006747D01*
X001866Y006682D01*
X002037Y006682D01*
X002195Y006747D01*
X002316Y006868D01*
X002381Y007026D01*
X002381Y007198D01*
X002316Y007356D01*
X002195Y007477D01*
X002037Y007542D01*
X001866Y007542D01*
X001708Y007477D01*
X001691Y007460D01*
X001691Y007764D01*
X001708Y007747D01*
X001866Y007682D01*
X002037Y007682D01*
X002195Y007747D01*
X002316Y007868D01*
X002381Y008026D01*
X002381Y008198D01*
X002316Y008356D01*
X002195Y008477D01*
X002037Y008542D01*
X001866Y008542D01*
X001708Y008477D01*
X001691Y008460D01*
X001691Y008764D01*
X001708Y008747D01*
X001866Y008682D01*
X002037Y008682D01*
X002195Y008747D01*
X002316Y008868D01*
X002381Y009026D01*
X002381Y009198D01*
X002316Y009356D01*
X002195Y009477D01*
X002037Y009542D01*
X001866Y009542D01*
X001708Y009477D01*
X001691Y009460D01*
X001691Y009764D01*
X001708Y009747D01*
X001866Y009682D01*
X002037Y009682D01*
X002195Y009747D01*
X002316Y009868D01*
X002381Y010026D01*
X002381Y010198D01*
X002316Y010356D01*
X002195Y010477D01*
X002037Y010542D01*
X001866Y010542D01*
X001708Y010477D01*
X001691Y010460D01*
X001691Y010764D01*
X001708Y010747D01*
X001866Y010682D01*
X002037Y010682D01*
X002195Y010747D01*
X002316Y010868D01*
X002381Y011026D01*
X002381Y011198D01*
X002316Y011356D01*
X002195Y011477D01*
X002037Y011542D01*
X001866Y011542D01*
X001708Y011477D01*
X001691Y011460D01*
X001691Y011764D01*
X001708Y011747D01*
X001866Y011682D01*
X002037Y011682D01*
X002195Y011747D01*
X002316Y011868D01*
X002381Y012026D01*
X002381Y012198D01*
X002316Y012356D01*
X002195Y012477D01*
X002037Y012542D01*
X001866Y012542D01*
X001708Y012477D01*
X001691Y012460D01*
X001691Y012764D01*
X001708Y012747D01*
X001866Y012682D01*
X002037Y012682D01*
X002195Y012747D01*
X002316Y012868D01*
X002381Y013026D01*
X002381Y013198D01*
X002316Y013356D01*
X002195Y013477D01*
X002037Y013542D01*
X001866Y013542D01*
X001708Y013477D01*
X001691Y013460D01*
X001691Y013764D01*
X001708Y013747D01*
X001866Y013682D01*
X002037Y013682D01*
X002195Y013747D01*
X002316Y013868D01*
X002381Y014026D01*
X002381Y014198D01*
X002316Y014356D01*
X002195Y014477D01*
X002109Y014512D01*
X002134Y014512D01*
X002251Y014629D01*
X002251Y014795D01*
X002134Y014912D01*
X001968Y014912D01*
X001851Y014795D01*
X001851Y014629D01*
X001938Y014542D01*
X001866Y014542D01*
X001708Y014477D01*
X001691Y014460D01*
X001691Y015572D01*
X004109Y015572D01*
X004109Y015117D01*
X004213Y014936D01*
X004394Y014832D01*
X004638Y014832D01*
X004819Y014936D01*
X004819Y014936D01*
X004819Y014936D01*
X004923Y015117D01*
X004923Y015572D01*
X005979Y015572D01*
X005979Y015117D01*
X006083Y014936D01*
X006083Y014936D01*
X006083Y014936D01*
X006264Y014832D01*
X006508Y014832D01*
X006689Y014936D01*
X006689Y014936D01*
X006689Y014936D01*
X006793Y015117D01*
X006793Y015572D01*
X009211Y015572D01*
X009211Y014504D01*
X009197Y014514D01*
X009132Y014548D01*
X009061Y014570D01*
X008991Y014582D01*
X008991Y014152D01*
X008911Y014152D01*
X008911Y014072D01*
X008482Y014072D01*
X008493Y014002D01*
X008516Y013932D01*
X008549Y013866D01*
X008593Y013806D01*
X008645Y013754D01*
X008705Y013710D01*
X008771Y013676D01*
X008841Y013654D01*
X008911Y013643D01*
X008911Y014072D01*
X008991Y014072D01*
X008991Y013643D01*
X009061Y013654D01*
X009132Y013676D01*
X009197Y013710D01*
X009211Y013720D01*
X009211Y013460D01*
X009195Y013477D01*
X009037Y013542D01*
X008866Y013542D01*
X008708Y013477D01*
X008587Y013356D01*
X008521Y013198D01*
X008521Y013026D01*
X008572Y012903D01*
X007171Y011502D01*
X007171Y011645D01*
X007054Y011762D01*
X006888Y011762D01*
X006771Y011645D01*
X006771Y011479D01*
X006888Y011362D01*
X007031Y011362D01*
X006331Y010662D01*
X006331Y010075D01*
X006251Y009995D01*
X006251Y009829D01*
X006368Y009712D01*
X006534Y009712D01*
X006651Y009829D01*
X006651Y009995D01*
X006571Y010075D01*
X006571Y010562D01*
X008742Y012733D01*
X008646Y012638D02*
X009211Y012638D01*
X009211Y012716D02*
X009119Y012716D01*
X009211Y012559D02*
X008568Y012559D01*
X008489Y012481D02*
X008717Y012481D01*
X008633Y012402D02*
X008411Y012402D01*
X008332Y012324D02*
X008573Y012324D01*
X008541Y012245D02*
X008254Y012245D01*
X008175Y012167D02*
X008521Y012167D01*
X008521Y012088D02*
X008097Y012088D01*
X008018Y012010D02*
X008528Y012010D01*
X008561Y011931D02*
X007940Y011931D01*
X007861Y011853D02*
X008602Y011853D01*
X008681Y011774D02*
X007783Y011774D01*
X007704Y011696D02*
X008833Y011696D01*
X008857Y011539D02*
X007547Y011539D01*
X007626Y011617D02*
X009211Y011617D01*
X009211Y011539D02*
X009045Y011539D01*
X009069Y011696D02*
X009211Y011696D01*
X008691Y011460D02*
X007469Y011460D01*
X007390Y011382D02*
X008613Y011382D01*
X008565Y011303D02*
X007312Y011303D01*
X007233Y011225D02*
X008532Y011225D01*
X008521Y011146D02*
X007155Y011146D01*
X007076Y011068D02*
X008521Y011068D01*
X008537Y010989D02*
X006998Y010989D01*
X006919Y010911D02*
X008569Y010911D01*
X008623Y010832D02*
X006841Y010832D01*
X006762Y010754D02*
X008701Y010754D01*
X008808Y010518D02*
X006571Y010518D01*
X006571Y010440D02*
X007596Y010440D01*
X007618Y010462D02*
X007501Y010345D01*
X007501Y010179D01*
X007618Y010062D01*
X007784Y010062D01*
X007901Y010179D01*
X007901Y010345D01*
X007784Y010462D01*
X007618Y010462D01*
X007517Y010361D02*
X006571Y010361D01*
X006571Y010283D02*
X007501Y010283D01*
X007501Y010204D02*
X006571Y010204D01*
X006571Y010126D02*
X007555Y010126D01*
X007703Y010047D02*
X006599Y010047D01*
X006651Y009969D02*
X007625Y009969D01*
X007601Y009945D02*
X007601Y009779D01*
X007718Y009662D01*
X007718Y009662D01*
X007651Y009595D01*
X007651Y009429D01*
X007768Y009312D01*
X007934Y009312D01*
X008051Y009429D01*
X008051Y009595D01*
X007934Y009712D01*
X007934Y009712D01*
X008001Y009779D01*
X008001Y009945D01*
X007884Y010062D01*
X007718Y010062D01*
X007601Y009945D01*
X007601Y009890D02*
X006651Y009890D01*
X006633Y009812D02*
X007601Y009812D01*
X007647Y009733D02*
X006555Y009733D01*
X006347Y009733D02*
X006005Y009733D01*
X005984Y009712D02*
X006101Y009829D01*
X006101Y009995D01*
X005984Y010112D01*
X005818Y010112D01*
X005701Y009995D01*
X005701Y009829D01*
X005818Y009712D01*
X005984Y009712D01*
X006083Y009812D02*
X006269Y009812D01*
X006251Y009890D02*
X006101Y009890D01*
X006101Y009969D02*
X006251Y009969D01*
X006303Y010047D02*
X006049Y010047D01*
X005797Y009733D02*
X005555Y009733D01*
X005534Y009712D02*
X005651Y009829D01*
X005651Y009995D01*
X005534Y010112D01*
X005368Y010112D01*
X005276Y010020D01*
X005221Y010075D01*
X005221Y010462D01*
X005551Y010792D01*
X005801Y010792D01*
X006321Y011312D01*
X006321Y011412D01*
X006484Y011412D01*
X006601Y011529D01*
X006601Y011695D01*
X006484Y011812D01*
X006321Y011812D01*
X006321Y012962D01*
X006821Y013462D01*
X006934Y013462D01*
X007051Y013579D01*
X007051Y013745D01*
X007004Y013792D01*
X007051Y013792D01*
X007051Y013729D01*
X007168Y013612D01*
X007334Y013612D01*
X007451Y013729D01*
X007451Y013895D01*
X007334Y014012D01*
X007221Y014012D01*
X007201Y014032D01*
X006725Y014032D01*
X006655Y013962D01*
X006431Y013738D01*
X006431Y013612D01*
X006351Y013532D01*
X006351Y013595D01*
X006234Y013712D01*
X006068Y013712D01*
X005951Y013595D01*
X005951Y013429D01*
X006068Y013312D01*
X006131Y013312D01*
X005931Y013112D01*
X005931Y011462D01*
X005881Y011412D01*
X005881Y011535D01*
X005764Y011652D01*
X005598Y011652D01*
X005506Y011560D01*
X005494Y011572D01*
X005551Y011629D01*
X005551Y011795D01*
X005434Y011912D01*
X005268Y011912D01*
X005151Y011795D01*
X005151Y011629D01*
X005218Y011562D01*
X005211Y011555D01*
X005104Y011662D01*
X004938Y011662D01*
X004821Y011545D01*
X004821Y011379D01*
X004938Y011262D01*
X005104Y011262D01*
X005171Y011329D01*
X005278Y011222D01*
X005444Y011222D01*
X005536Y011314D01*
X005598Y011252D01*
X005721Y011252D01*
X005651Y011182D01*
X005401Y011182D01*
X005331Y011112D01*
X004531Y010312D01*
X004531Y010075D01*
X004451Y009995D01*
X004451Y009829D01*
X004568Y009712D01*
X004734Y009712D01*
X004851Y009829D01*
X004851Y009995D01*
X004771Y010075D01*
X004771Y010212D01*
X004981Y010422D01*
X004981Y010075D01*
X004901Y009995D01*
X004901Y009829D01*
X005018Y009712D01*
X005184Y009712D01*
X005276Y009804D01*
X005368Y009712D01*
X005534Y009712D01*
X005633Y009812D02*
X005719Y009812D01*
X005701Y009890D02*
X005651Y009890D01*
X005651Y009969D02*
X005701Y009969D01*
X005753Y010047D02*
X005599Y010047D01*
X005347Y009733D02*
X005205Y009733D01*
X005101Y009912D02*
X005101Y010512D01*
X005501Y010912D01*
X005751Y010912D01*
X006201Y011362D01*
X006201Y013012D01*
X006851Y013662D01*
X006973Y013501D02*
X008767Y013501D01*
X008654Y013423D02*
X006781Y013423D01*
X006703Y013344D02*
X008582Y013344D01*
X008549Y013266D02*
X006624Y013266D01*
X006546Y013187D02*
X008521Y013187D01*
X008521Y013109D02*
X006467Y013109D01*
X006389Y013030D02*
X008521Y013030D01*
X008552Y012952D02*
X007494Y012952D01*
X007484Y012962D02*
X007318Y012962D01*
X007201Y012845D01*
X007201Y012679D01*
X007318Y012562D01*
X007484Y012562D01*
X007601Y012679D01*
X007601Y012845D01*
X007484Y012962D01*
X007573Y012873D02*
X008542Y012873D01*
X008464Y012795D02*
X007601Y012795D01*
X007601Y012716D02*
X008385Y012716D01*
X008307Y012638D02*
X007560Y012638D01*
X007308Y012952D02*
X006321Y012952D01*
X006321Y012873D02*
X007229Y012873D01*
X007201Y012795D02*
X006321Y012795D01*
X006321Y012716D02*
X007201Y012716D01*
X007243Y012638D02*
X006321Y012638D01*
X006321Y012559D02*
X008228Y012559D01*
X008150Y012481D02*
X006321Y012481D01*
X006321Y012402D02*
X008071Y012402D01*
X007993Y012324D02*
X006872Y012324D01*
X006834Y012362D02*
X006951Y012245D01*
X007914Y012245D01*
X007836Y012167D02*
X006951Y012167D01*
X006951Y012245D02*
X006951Y012079D01*
X006834Y011962D01*
X006668Y011962D01*
X006551Y012079D01*
X006551Y012245D01*
X006668Y012362D01*
X006834Y012362D01*
X006630Y012324D02*
X006321Y012324D01*
X006321Y012245D02*
X006551Y012245D01*
X006551Y012167D02*
X006321Y012167D01*
X006321Y012088D02*
X006551Y012088D01*
X006621Y012010D02*
X006321Y012010D01*
X006321Y011931D02*
X007600Y011931D01*
X007522Y011853D02*
X006321Y011853D01*
X006522Y011774D02*
X007443Y011774D01*
X007365Y011696D02*
X007120Y011696D01*
X007171Y011617D02*
X007286Y011617D01*
X007208Y011539D02*
X007171Y011539D01*
X006972Y011303D02*
X006312Y011303D01*
X006321Y011382D02*
X006869Y011382D01*
X006790Y011460D02*
X006532Y011460D01*
X006601Y011539D02*
X006771Y011539D01*
X006771Y011617D02*
X006601Y011617D01*
X006600Y011696D02*
X006822Y011696D01*
X006882Y012010D02*
X007679Y012010D01*
X007757Y012088D02*
X006951Y012088D01*
X006894Y011225D02*
X006233Y011225D01*
X006155Y011146D02*
X006815Y011146D01*
X006737Y011068D02*
X006076Y011068D01*
X005998Y010989D02*
X006658Y010989D01*
X006580Y010911D02*
X005919Y010911D01*
X005841Y010832D02*
X006018Y010832D01*
X006048Y010862D02*
X005931Y010745D01*
X005931Y010579D01*
X006048Y010462D01*
X006214Y010462D01*
X006331Y010579D01*
X006331Y010745D01*
X006214Y010862D01*
X006048Y010862D01*
X005940Y010754D02*
X005512Y010754D01*
X005434Y010675D02*
X005931Y010675D01*
X005931Y010597D02*
X005355Y010597D01*
X005277Y010518D02*
X005992Y010518D01*
X006270Y010518D02*
X006331Y010518D01*
X006331Y010440D02*
X005221Y010440D01*
X005221Y010361D02*
X006331Y010361D01*
X006331Y010283D02*
X005221Y010283D01*
X005221Y010204D02*
X006331Y010204D01*
X006331Y010126D02*
X005221Y010126D01*
X005249Y010047D02*
X005303Y010047D01*
X004981Y010126D02*
X004771Y010126D01*
X004771Y010204D02*
X004981Y010204D01*
X004981Y010283D02*
X004841Y010283D01*
X004920Y010361D02*
X004981Y010361D01*
X004816Y010597D02*
X003001Y010597D01*
X003001Y010579D02*
X003001Y010745D01*
X002884Y010862D01*
X002718Y010862D01*
X002601Y010745D01*
X002601Y010579D01*
X002668Y010512D01*
X002601Y010445D01*
X002601Y010279D01*
X002718Y010162D01*
X002884Y010162D01*
X003001Y010279D01*
X003001Y010445D01*
X002934Y010512D01*
X003001Y010579D01*
X002940Y010518D02*
X003224Y010518D01*
X003268Y010562D02*
X003151Y010445D01*
X003151Y010279D01*
X003268Y010162D01*
X003434Y010162D01*
X003451Y010179D01*
X003451Y010129D01*
X003568Y010012D01*
X003734Y010012D01*
X003851Y010129D01*
X003851Y010295D01*
X003734Y010412D01*
X003568Y010412D01*
X003551Y010395D01*
X003551Y010445D01*
X003434Y010562D01*
X003268Y010562D01*
X003151Y010440D02*
X003001Y010440D01*
X003001Y010361D02*
X003151Y010361D01*
X003151Y010283D02*
X003001Y010283D01*
X002926Y010204D02*
X003226Y010204D01*
X003455Y010126D02*
X002381Y010126D01*
X002378Y010204D02*
X002676Y010204D01*
X002718Y010112D02*
X002601Y009995D01*
X002601Y009829D01*
X002683Y009747D01*
X002666Y009730D01*
X002614Y009782D01*
X002448Y009782D01*
X002331Y009665D01*
X002331Y009499D01*
X002448Y009382D01*
X002614Y009382D01*
X002676Y009444D01*
X002728Y009392D01*
X002894Y009392D01*
X003011Y009509D01*
X003011Y009675D01*
X002929Y009757D01*
X003001Y009829D01*
X003001Y009995D01*
X002884Y010112D01*
X002718Y010112D01*
X002653Y010047D02*
X002381Y010047D01*
X002357Y009969D02*
X002601Y009969D01*
X002601Y009890D02*
X002325Y009890D01*
X002259Y009812D02*
X002619Y009812D01*
X002663Y009733D02*
X002669Y009733D01*
X002399Y009733D02*
X002160Y009733D01*
X002144Y009498D02*
X002333Y009498D01*
X002331Y009576D02*
X001691Y009576D01*
X001691Y009498D02*
X001758Y009498D01*
X001691Y009655D02*
X002331Y009655D01*
X002252Y009419D02*
X002411Y009419D01*
X002322Y009341D02*
X007740Y009341D01*
X007661Y009419D02*
X002921Y009419D01*
X002999Y009498D02*
X007651Y009498D01*
X007651Y009576D02*
X003011Y009576D01*
X003011Y009655D02*
X007711Y009655D01*
X007955Y009733D02*
X008742Y009733D01*
X008643Y009812D02*
X008001Y009812D01*
X008001Y009890D02*
X008578Y009890D01*
X008545Y009969D02*
X007977Y009969D01*
X007899Y010047D02*
X008521Y010047D01*
X008521Y010126D02*
X007847Y010126D01*
X007901Y010204D02*
X008524Y010204D01*
X008556Y010283D02*
X007901Y010283D01*
X007885Y010361D02*
X008592Y010361D01*
X008671Y010440D02*
X007806Y010440D01*
X007991Y009655D02*
X009211Y009655D01*
X009211Y009733D02*
X009160Y009733D01*
X009211Y009576D02*
X008051Y009576D01*
X008051Y009498D02*
X008758Y009498D01*
X008650Y009419D02*
X008041Y009419D01*
X007962Y009341D02*
X008580Y009341D01*
X008548Y009262D02*
X006384Y009262D01*
X006334Y009312D02*
X006168Y009312D01*
X006051Y009195D01*
X005934Y009312D01*
X005768Y009312D01*
X005651Y009195D01*
X005534Y009312D01*
X005368Y009312D01*
X005251Y009195D01*
X005134Y009312D01*
X004968Y009312D01*
X004851Y009195D01*
X004851Y009029D01*
X004968Y008912D01*
X005134Y008912D01*
X004968Y008912D01*
X004851Y008795D01*
X004851Y008629D01*
X004968Y008512D01*
X005134Y008512D01*
X004968Y008512D01*
X004851Y008395D01*
X004851Y008229D01*
X004968Y008112D01*
X005134Y008112D01*
X004968Y008112D01*
X004851Y007995D01*
X004851Y007829D01*
X004968Y007712D01*
X005134Y007712D01*
X005251Y007829D01*
X005251Y007995D01*
X005134Y008112D01*
X005251Y008229D01*
X005368Y008112D01*
X005534Y008112D01*
X005368Y008112D01*
X005251Y007995D01*
X005251Y007829D01*
X005368Y007712D01*
X005534Y007712D01*
X005651Y007829D01*
X005651Y007995D01*
X005534Y008112D01*
X005651Y008229D01*
X005651Y008395D01*
X005534Y008512D01*
X005368Y008512D01*
X005534Y008512D01*
X005651Y008629D01*
X005651Y008795D01*
X005534Y008912D01*
X005368Y008912D01*
X005251Y008795D01*
X005134Y008912D01*
X005251Y009029D01*
X005368Y008912D01*
X005534Y008912D01*
X005651Y009029D01*
X005768Y008912D01*
X005651Y008795D01*
X005651Y008629D01*
X005768Y008512D01*
X005651Y008395D01*
X005651Y008229D01*
X005768Y008112D01*
X005934Y008112D01*
X005768Y008112D01*
X005651Y007995D01*
X005651Y007829D01*
X005768Y007712D01*
X005934Y007712D01*
X006051Y007829D01*
X006051Y007995D01*
X005934Y008112D01*
X006051Y008229D01*
X006051Y008395D01*
X005934Y008512D01*
X005768Y008512D01*
X005934Y008512D01*
X006051Y008629D01*
X006051Y008795D01*
X005934Y008912D01*
X005768Y008912D01*
X005934Y008912D01*
X006051Y009029D01*
X006051Y009195D01*
X006051Y009029D01*
X006168Y008912D01*
X006051Y008795D01*
X006051Y008629D01*
X006168Y008512D01*
X006051Y008395D01*
X006051Y008229D01*
X006168Y008112D01*
X006051Y007995D01*
X006051Y007829D01*
X006168Y007712D01*
X006334Y007712D01*
X006451Y007829D01*
X006451Y007995D01*
X006334Y008112D01*
X006168Y008112D01*
X006334Y008112D01*
X006451Y008229D01*
X006451Y008395D01*
X006334Y008512D01*
X006168Y008512D01*
X006334Y008512D01*
X006451Y008629D01*
X006451Y008795D01*
X006334Y008912D01*
X006168Y008912D01*
X006334Y008912D01*
X006451Y009029D01*
X006451Y009195D01*
X006334Y009312D01*
X006451Y009184D02*
X008521Y009184D01*
X008521Y009105D02*
X006451Y009105D01*
X006448Y009027D02*
X008521Y009027D01*
X008554Y008948D02*
X006370Y008948D01*
X006376Y008870D02*
X006926Y008870D01*
X006968Y008912D02*
X006851Y008795D01*
X006851Y008629D01*
X006968Y008512D01*
X007134Y008512D01*
X007251Y008629D01*
X007251Y008795D01*
X007134Y008912D01*
X006968Y008912D01*
X006851Y008791D02*
X006451Y008791D01*
X006451Y008713D02*
X006851Y008713D01*
X006851Y008634D02*
X006451Y008634D01*
X006377Y008556D02*
X006925Y008556D01*
X007177Y008556D02*
X007551Y008556D01*
X007551Y008529D02*
X007668Y008412D01*
X007801Y008412D01*
X007801Y008279D01*
X007918Y008162D01*
X007931Y008162D01*
X007931Y008019D01*
X008048Y007902D01*
X008214Y007902D01*
X008331Y008019D01*
X008331Y008185D01*
X008214Y008302D01*
X008201Y008302D01*
X008201Y008445D01*
X008084Y008562D01*
X007951Y008562D01*
X007951Y008695D01*
X007834Y008812D01*
X007668Y008812D01*
X007551Y008695D01*
X007551Y008529D01*
X007603Y008477D02*
X006369Y008477D01*
X006447Y008399D02*
X007801Y008399D01*
X007801Y008320D02*
X006451Y008320D01*
X006451Y008242D02*
X007839Y008242D01*
X007917Y008163D02*
X007203Y008163D01*
X007251Y008115D02*
X007134Y008232D01*
X006968Y008232D01*
X006851Y008115D01*
X006851Y007949D01*
X006968Y007832D01*
X007134Y007832D01*
X007251Y007949D01*
X007251Y008115D01*
X007251Y008085D02*
X007641Y008085D01*
X007668Y008112D02*
X007551Y007995D01*
X007551Y007829D01*
X007668Y007712D01*
X007834Y007712D01*
X007951Y007829D01*
X007951Y007995D01*
X007834Y008112D01*
X007668Y008112D01*
X007562Y008006D02*
X007251Y008006D01*
X007229Y007928D02*
X007551Y007928D01*
X007551Y007849D02*
X007151Y007849D01*
X006951Y007849D02*
X006451Y007849D01*
X006451Y007928D02*
X006873Y007928D01*
X006851Y008006D02*
X006440Y008006D01*
X006361Y008085D02*
X006851Y008085D01*
X006899Y008163D02*
X006385Y008163D01*
X006141Y008085D02*
X005961Y008085D01*
X005985Y008163D02*
X006117Y008163D01*
X006051Y008242D02*
X006051Y008242D01*
X006051Y008320D02*
X006051Y008320D01*
X006047Y008399D02*
X006055Y008399D01*
X006133Y008477D02*
X005969Y008477D01*
X005977Y008556D02*
X006125Y008556D01*
X006051Y008634D02*
X006051Y008634D01*
X006051Y008713D02*
X006051Y008713D01*
X006051Y008791D02*
X006051Y008791D01*
X005976Y008870D02*
X006126Y008870D01*
X006132Y008948D02*
X005970Y008948D01*
X006048Y009027D02*
X006054Y009027D01*
X006051Y009105D02*
X006051Y009105D01*
X006051Y009184D02*
X006051Y009184D01*
X005984Y009262D02*
X006118Y009262D01*
X005718Y009262D02*
X005584Y009262D01*
X005651Y009195D02*
X005651Y009029D01*
X005651Y009195D01*
X005651Y009184D02*
X005651Y009184D01*
X005651Y009105D02*
X005651Y009105D01*
X005648Y009027D02*
X005654Y009027D01*
X005732Y008948D02*
X005570Y008948D01*
X005576Y008870D02*
X005726Y008870D01*
X005651Y008791D02*
X005651Y008791D01*
X005651Y008713D02*
X005651Y008713D01*
X005651Y008634D02*
X005651Y008634D01*
X005577Y008556D02*
X005725Y008556D01*
X005733Y008477D02*
X005569Y008477D01*
X005647Y008399D02*
X005655Y008399D01*
X005651Y008320D02*
X005651Y008320D01*
X005651Y008242D02*
X005651Y008242D01*
X005585Y008163D02*
X005717Y008163D01*
X005741Y008085D02*
X005561Y008085D01*
X005640Y008006D02*
X005662Y008006D01*
X005651Y007928D02*
X005651Y007928D01*
X005651Y007849D02*
X005651Y007849D01*
X005592Y007771D02*
X005710Y007771D01*
X005992Y007771D02*
X006110Y007771D01*
X006051Y007849D02*
X006051Y007849D01*
X006051Y007928D02*
X006051Y007928D01*
X006040Y008006D02*
X006062Y008006D01*
X006392Y007771D02*
X007610Y007771D01*
X007892Y007771D02*
X008684Y007771D01*
X008606Y007849D02*
X007951Y007849D01*
X007951Y007928D02*
X008023Y007928D01*
X007944Y008006D02*
X007940Y008006D01*
X007931Y008085D02*
X007861Y008085D01*
X008239Y007928D02*
X008562Y007928D01*
X008530Y008006D02*
X008318Y008006D01*
X008331Y008085D02*
X008521Y008085D01*
X008521Y008163D02*
X008331Y008163D01*
X008274Y008242D02*
X008539Y008242D01*
X008572Y008320D02*
X008201Y008320D01*
X008201Y008399D02*
X008630Y008399D01*
X008709Y008477D02*
X008169Y008477D01*
X008090Y008556D02*
X009211Y008556D01*
X009211Y008634D02*
X007951Y008634D01*
X007933Y008713D02*
X008792Y008713D01*
X008664Y008791D02*
X007855Y008791D01*
X007647Y008791D02*
X007251Y008791D01*
X007251Y008713D02*
X007569Y008713D01*
X007551Y008634D02*
X007251Y008634D01*
X007176Y008870D02*
X008586Y008870D01*
X009110Y008713D02*
X009211Y008713D01*
X009194Y008477D02*
X009211Y008477D01*
X009211Y007692D02*
X009061Y007692D01*
X009054Y007535D02*
X009211Y007535D01*
X009211Y007614D02*
X004071Y007614D01*
X004071Y007692D02*
X008841Y007692D01*
X008849Y007535D02*
X004411Y007535D01*
X004451Y007495D02*
X004334Y007612D01*
X004168Y007612D01*
X004071Y007515D01*
X004071Y007762D01*
X004001Y007832D01*
X004001Y007832D01*
X003821Y008012D01*
X003751Y008082D01*
X003351Y008082D01*
X003331Y008062D01*
X003218Y008062D01*
X003101Y007945D01*
X003101Y007779D01*
X003218Y007662D01*
X003368Y007662D01*
X003478Y007552D01*
X003591Y007552D01*
X003621Y007522D01*
X003458Y007522D01*
X003426Y007490D01*
X003334Y007582D01*
X003168Y007582D01*
X003051Y007465D01*
X003051Y007299D01*
X003168Y007182D01*
X003334Y007182D01*
X003366Y007214D01*
X003458Y007122D01*
X003624Y007122D01*
X003681Y007179D01*
X003681Y007114D01*
X004408Y006387D01*
X004478Y006317D01*
X005323Y006317D01*
X005301Y006295D01*
X005301Y006129D01*
X005393Y006037D01*
X005351Y005995D01*
X005351Y005829D01*
X005468Y005712D01*
X005634Y005712D01*
X005651Y005729D01*
X005651Y005679D01*
X005768Y005562D01*
X005934Y005562D01*
X006051Y005679D01*
X006051Y005845D01*
X005964Y005932D01*
X006898Y005932D01*
X006968Y005862D01*
X007134Y005862D01*
X007251Y005979D01*
X007251Y006145D01*
X007249Y006147D01*
X007276Y006174D01*
X007368Y006082D01*
X007534Y006082D01*
X007651Y006199D01*
X007651Y006365D01*
X007534Y006482D01*
X007531Y006482D01*
X007531Y006562D01*
X007594Y006562D01*
X007711Y006679D01*
X007711Y006845D01*
X007594Y006962D01*
X007428Y006962D01*
X007311Y006845D01*
X007311Y006742D01*
X007248Y006742D01*
X007131Y006625D01*
X007131Y006528D01*
X007065Y006528D01*
X006985Y006448D01*
X006741Y006448D01*
X006741Y006495D01*
X006624Y006612D01*
X006458Y006612D01*
X006341Y006495D01*
X006341Y006329D01*
X006376Y006294D01*
X006316Y006294D01*
X006321Y006299D01*
X006321Y006465D01*
X006204Y006582D01*
X006038Y006582D01*
X005921Y006465D01*
X005921Y006462D01*
X005771Y006612D01*
X005701Y006682D01*
X004651Y006682D01*
X004421Y006912D01*
X004434Y006912D01*
X004551Y007029D01*
X004551Y007195D01*
X004434Y007312D01*
X004434Y007312D01*
X004451Y007329D01*
X004451Y007495D01*
X004451Y007457D02*
X008688Y007457D01*
X008609Y007378D02*
X004451Y007378D01*
X004446Y007300D02*
X005356Y007300D01*
X005368Y007312D02*
X005251Y007195D01*
X005251Y007029D01*
X005368Y006912D01*
X005534Y006912D01*
X005651Y007029D01*
X005651Y007195D01*
X005534Y007312D01*
X005368Y007312D01*
X005277Y007221D02*
X004525Y007221D01*
X004551Y007143D02*
X005251Y007143D01*
X005251Y007064D02*
X004551Y007064D01*
X004507Y006986D02*
X005295Y006986D01*
X005546Y007300D02*
X008563Y007300D01*
X008531Y007221D02*
X005625Y007221D01*
X005651Y007143D02*
X008521Y007143D01*
X008521Y007064D02*
X005651Y007064D01*
X005607Y006986D02*
X008538Y006986D01*
X008571Y006907D02*
X007649Y006907D01*
X007711Y006829D02*
X008626Y006829D01*
X008705Y006750D02*
X007711Y006750D01*
X007703Y006672D02*
X009211Y006672D01*
X009211Y006750D02*
X009197Y006750D01*
X009211Y006593D02*
X007625Y006593D01*
X007531Y006515D02*
X008799Y006515D01*
X008667Y006436D02*
X007580Y006436D01*
X007651Y006358D02*
X008589Y006358D01*
X008555Y006279D02*
X007651Y006279D01*
X007651Y006201D02*
X008522Y006201D01*
X008521Y006122D02*
X007574Y006122D01*
X007514Y006032D02*
X007348Y006032D01*
X007231Y005915D01*
X007231Y005749D01*
X007348Y005632D01*
X007378Y005632D01*
X007291Y005545D01*
X007291Y005379D01*
X007408Y005262D01*
X007574Y005262D01*
X007673Y005361D01*
X007684Y005349D01*
X007850Y005349D01*
X007967Y005466D01*
X007967Y005632D01*
X007850Y005749D01*
X007684Y005749D01*
X007586Y005650D01*
X007574Y005662D01*
X007544Y005662D01*
X007631Y005749D01*
X007631Y005915D01*
X007514Y006032D01*
X007581Y005965D02*
X008547Y005965D01*
X008521Y006044D02*
X007251Y006044D01*
X007251Y006122D02*
X007328Y006122D01*
X007281Y005965D02*
X007237Y005965D01*
X007231Y005887D02*
X007158Y005887D01*
X007231Y005808D02*
X006338Y005808D01*
X006334Y005812D02*
X006168Y005812D01*
X006051Y005695D01*
X006051Y005529D01*
X006168Y005412D01*
X006334Y005412D01*
X006431Y005509D01*
X006431Y005389D01*
X006548Y005272D01*
X006714Y005272D01*
X006816Y005374D01*
X006818Y005372D01*
X006984Y005372D01*
X007101Y005489D01*
X007101Y005655D01*
X006984Y005772D01*
X006818Y005772D01*
X006716Y005670D01*
X006714Y005672D01*
X006548Y005672D01*
X006451Y005575D01*
X006451Y005695D01*
X006334Y005812D01*
X006416Y005730D02*
X006776Y005730D01*
X006944Y005887D02*
X006009Y005887D01*
X006051Y005808D02*
X006164Y005808D01*
X006086Y005730D02*
X006051Y005730D01*
X006051Y005651D02*
X006023Y005651D01*
X006051Y005573D02*
X005944Y005573D01*
X006086Y005494D02*
X005101Y005494D01*
X005101Y005479D02*
X005101Y005645D01*
X004984Y005762D01*
X004984Y005762D01*
X005051Y005829D01*
X005051Y005995D01*
X004934Y006112D01*
X004768Y006112D01*
X004651Y005995D01*
X004651Y005829D01*
X004768Y005712D01*
X004768Y005712D01*
X004701Y005645D01*
X004701Y005479D01*
X004793Y005387D01*
X004751Y005345D01*
X004751Y005179D01*
X004868Y005062D01*
X004918Y005062D01*
X004901Y005045D01*
X004901Y004879D01*
X005018Y004762D01*
X005184Y004762D01*
X005301Y004879D01*
X005301Y005045D01*
X005184Y005162D01*
X005134Y005162D01*
X005151Y005179D01*
X005151Y005345D01*
X005059Y005437D01*
X005101Y005479D01*
X005080Y005416D02*
X006165Y005416D01*
X006337Y005416D02*
X006431Y005416D01*
X006431Y005494D02*
X006416Y005494D01*
X006451Y005651D02*
X006527Y005651D01*
X006483Y005337D02*
X005151Y005337D01*
X005151Y005259D02*
X008546Y005259D01*
X008521Y005180D02*
X005151Y005180D01*
X005244Y005102D02*
X008521Y005102D01*
X008523Y005023D02*
X005301Y005023D01*
X005301Y004945D02*
X008555Y004945D01*
X008589Y004866D02*
X005288Y004866D01*
X005209Y004788D02*
X008668Y004788D01*
X008800Y004709D02*
X007637Y004709D01*
X007584Y004762D02*
X007701Y004645D01*
X007701Y004479D01*
X007584Y004362D01*
X007418Y004362D01*
X007301Y004245D01*
X007184Y004362D01*
X007018Y004362D01*
X007184Y004362D01*
X007301Y004479D01*
X007418Y004362D01*
X007584Y004362D01*
X007701Y004245D01*
X007701Y004079D01*
X007584Y003962D01*
X007418Y003962D01*
X007301Y003845D01*
X007184Y003962D01*
X007018Y003962D01*
X006901Y003845D01*
X006784Y003962D01*
X006618Y003962D01*
X006784Y003962D01*
X006901Y004079D01*
X007018Y003962D01*
X007184Y003962D01*
X007301Y004079D01*
X007418Y003962D01*
X007584Y003962D01*
X007701Y003845D01*
X007701Y003679D01*
X007584Y003562D01*
X007418Y003562D01*
X007301Y003445D01*
X007184Y003562D01*
X007018Y003562D01*
X006901Y003445D01*
X006784Y003562D01*
X006618Y003562D01*
X006501Y003445D01*
X006384Y003562D01*
X006218Y003562D01*
X006384Y003562D01*
X006501Y003679D01*
X006501Y003845D01*
X006384Y003962D01*
X006218Y003962D01*
X006384Y003962D01*
X006501Y004079D01*
X006501Y004245D01*
X006384Y004362D01*
X006218Y004362D01*
X006384Y004362D01*
X006501Y004479D01*
X006501Y004645D01*
X006384Y004762D01*
X006218Y004762D01*
X006101Y004645D01*
X006101Y004479D01*
X006218Y004362D01*
X006101Y004245D01*
X006101Y004079D01*
X006218Y003962D01*
X006101Y003845D01*
X006101Y003679D01*
X006218Y003562D01*
X006101Y003445D01*
X006101Y003279D01*
X006218Y003162D01*
X006384Y003162D01*
X006501Y003279D01*
X006501Y003445D01*
X006501Y003279D01*
X006618Y003162D01*
X006784Y003162D01*
X006901Y003279D01*
X006901Y003445D01*
X006901Y003279D01*
X007018Y003162D01*
X007184Y003162D01*
X007301Y003279D01*
X007301Y003445D01*
X007301Y003279D01*
X007418Y003162D01*
X007584Y003162D01*
X007701Y003279D01*
X007701Y003445D01*
X007584Y003562D01*
X007418Y003562D01*
X007301Y003679D01*
X007301Y003845D01*
X007301Y003679D01*
X007184Y003562D01*
X007018Y003562D01*
X006901Y003679D01*
X006901Y003845D01*
X006901Y003679D01*
X006784Y003562D01*
X006618Y003562D01*
X006501Y003679D01*
X006501Y003845D01*
X006618Y003962D01*
X006501Y004079D01*
X006501Y004245D01*
X006618Y004362D01*
X006784Y004362D01*
X006618Y004362D01*
X006501Y004479D01*
X006501Y004645D01*
X006618Y004762D01*
X006784Y004762D01*
X006901Y004645D01*
X006901Y004479D01*
X007018Y004362D01*
X006901Y004245D01*
X006784Y004362D01*
X006901Y004479D01*
X006901Y004645D01*
X007018Y004762D01*
X007184Y004762D01*
X007301Y004645D01*
X007301Y004479D01*
X007301Y004645D01*
X007418Y004762D01*
X007584Y004762D01*
X007701Y004631D02*
X009211Y004631D01*
X009211Y004709D02*
X009102Y004709D01*
X009211Y004552D02*
X007701Y004552D01*
X007695Y004474D02*
X008705Y004474D01*
X008626Y004395D02*
X007617Y004395D01*
X007629Y004317D02*
X008570Y004317D01*
X008538Y004238D02*
X007701Y004238D01*
X007701Y004160D02*
X008521Y004160D01*
X008521Y004081D02*
X007701Y004081D01*
X007624Y004003D02*
X008531Y004003D01*
X008564Y003924D02*
X007622Y003924D01*
X007700Y003846D02*
X008610Y003846D01*
X008688Y003767D02*
X007701Y003767D01*
X007701Y003689D02*
X008850Y003689D01*
X008840Y003532D02*
X007614Y003532D01*
X007632Y003610D02*
X009211Y003610D01*
X009211Y003532D02*
X009062Y003532D01*
X009052Y003689D02*
X009211Y003689D01*
X008684Y003453D02*
X007693Y003453D01*
X007701Y003375D02*
X008606Y003375D01*
X008562Y003296D02*
X007701Y003296D01*
X007639Y003218D02*
X008529Y003218D01*
X008521Y003139D02*
X005101Y003139D01*
X005101Y003061D02*
X008521Y003061D01*
X008540Y002982D02*
X005864Y002982D01*
X005834Y003012D02*
X005668Y003012D01*
X005551Y002895D01*
X005551Y002729D01*
X005668Y002612D01*
X005834Y002612D01*
X005951Y002729D01*
X005951Y002895D01*
X005834Y003012D01*
X005942Y002904D02*
X008572Y002904D01*
X008630Y002825D02*
X005951Y002825D01*
X005951Y002747D02*
X008710Y002747D01*
X009015Y002276D02*
X005101Y002276D01*
X005101Y002354D02*
X009054Y002354D01*
X009093Y002433D02*
X005101Y002433D01*
X005101Y002511D02*
X009132Y002511D01*
X009172Y002590D02*
X005101Y002590D01*
X005101Y002668D02*
X005612Y002668D01*
X005551Y002747D02*
X005101Y002747D01*
X005101Y002825D02*
X005551Y002825D01*
X005560Y002904D02*
X005101Y002904D01*
X005101Y002982D02*
X005638Y002982D01*
X005890Y002668D02*
X009211Y002668D01*
X009211Y002747D02*
X009192Y002747D01*
X008975Y002197D02*
X005101Y002197D01*
X005101Y002119D02*
X008936Y002119D01*
X008897Y002040D02*
X005101Y002040D01*
X005101Y001962D02*
X008858Y001962D01*
X008818Y001883D02*
X007473Y001883D01*
X007541Y001805D02*
X008779Y001805D01*
X008740Y001726D02*
X007541Y001726D01*
X007209Y001883D02*
X005101Y001883D01*
X005101Y001805D02*
X007141Y001805D01*
X007141Y001726D02*
X005101Y001726D01*
X005101Y003218D02*
X006163Y003218D01*
X006101Y003296D02*
X005118Y003296D01*
X005196Y003375D02*
X006101Y003375D01*
X006109Y003453D02*
X005201Y003453D01*
X005201Y003532D02*
X006188Y003532D01*
X006170Y003610D02*
X005136Y003610D01*
X004866Y003610D02*
X002832Y003610D01*
X002901Y003689D02*
X006101Y003689D01*
X006101Y003767D02*
X002901Y003767D01*
X002900Y003846D02*
X006102Y003846D01*
X006180Y003924D02*
X002822Y003924D01*
X002580Y003924D02*
X002339Y003924D01*
X002371Y004003D02*
X006178Y004003D01*
X006101Y004081D02*
X002381Y004081D01*
X002381Y004160D02*
X006101Y004160D01*
X006101Y004238D02*
X002364Y004238D01*
X002332Y004317D02*
X006173Y004317D01*
X006185Y004395D02*
X002276Y004395D01*
X002198Y004474D02*
X006107Y004474D01*
X006101Y004552D02*
X001691Y004552D01*
X001691Y004474D02*
X001705Y004474D01*
X001691Y004631D02*
X006101Y004631D01*
X006165Y004709D02*
X004631Y004709D01*
X004584Y004662D02*
X004701Y004779D01*
X004701Y004945D01*
X004584Y005062D01*
X004484Y005062D01*
X004551Y005129D01*
X004551Y005295D01*
X004434Y005412D01*
X004268Y005412D01*
X004176Y005320D01*
X004084Y005412D01*
X003918Y005412D01*
X003801Y005295D01*
X003801Y005129D01*
X003918Y005012D01*
X004084Y005012D01*
X004176Y005104D01*
X004268Y005012D01*
X004368Y005012D01*
X004301Y004945D01*
X004301Y004779D01*
X004418Y004662D01*
X004584Y004662D01*
X004701Y004788D02*
X004993Y004788D01*
X004914Y004866D02*
X004701Y004866D01*
X004701Y004945D02*
X004901Y004945D01*
X004901Y005023D02*
X004623Y005023D01*
X004523Y005102D02*
X004829Y005102D01*
X004751Y005180D02*
X004551Y005180D01*
X004551Y005259D02*
X004751Y005259D01*
X004751Y005337D02*
X004509Y005337D01*
X004701Y005494D02*
X003641Y005494D01*
X003600Y005535D02*
X003439Y005602D01*
X003264Y005602D01*
X003102Y005535D01*
X002978Y005411D01*
X002911Y005250D01*
X002911Y005075D01*
X002978Y004913D01*
X003102Y004789D01*
X003264Y004722D01*
X003439Y004722D01*
X003600Y004789D01*
X003724Y004913D01*
X003791Y005075D01*
X003791Y005250D01*
X003724Y005411D01*
X003600Y005535D01*
X003510Y005573D02*
X004701Y005573D01*
X004707Y005651D02*
X001691Y005651D01*
X001691Y005573D02*
X003192Y005573D01*
X003061Y005494D02*
X002153Y005494D01*
X002256Y005416D02*
X002982Y005416D01*
X002947Y005337D02*
X002323Y005337D01*
X002356Y005259D02*
X002915Y005259D01*
X002911Y005180D02*
X002381Y005180D01*
X002381Y005102D02*
X002911Y005102D01*
X002932Y005023D02*
X002380Y005023D01*
X002347Y004945D02*
X002965Y004945D01*
X003025Y004866D02*
X002313Y004866D01*
X002235Y004788D02*
X003105Y004788D01*
X003597Y004788D02*
X004301Y004788D01*
X004301Y004866D02*
X003677Y004866D01*
X003737Y004945D02*
X004301Y004945D01*
X004257Y005023D02*
X004095Y005023D01*
X004173Y005102D02*
X004179Y005102D01*
X004159Y005337D02*
X004193Y005337D01*
X003843Y005337D02*
X003755Y005337D01*
X003787Y005259D02*
X003801Y005259D01*
X003791Y005180D02*
X003801Y005180D01*
X003791Y005102D02*
X003829Y005102D01*
X003770Y005023D02*
X003907Y005023D01*
X003720Y005416D02*
X004765Y005416D01*
X004751Y005730D02*
X002151Y005730D01*
X002255Y005808D02*
X004672Y005808D01*
X004651Y005887D02*
X002323Y005887D01*
X002356Y005965D02*
X004651Y005965D01*
X004700Y006044D02*
X002381Y006044D01*
X002381Y006122D02*
X003958Y006122D01*
X003901Y006179D02*
X003901Y006345D01*
X004018Y006462D01*
X004184Y006462D01*
X004301Y006345D01*
X004301Y006179D01*
X004184Y006062D01*
X004018Y006062D01*
X003901Y006179D01*
X003901Y006201D02*
X002380Y006201D01*
X002347Y006279D02*
X003901Y006279D01*
X003834Y006312D02*
X003951Y006429D01*
X003951Y006595D01*
X003834Y006712D01*
X003668Y006712D01*
X003551Y006595D01*
X003551Y006429D01*
X003668Y006312D01*
X003834Y006312D01*
X003879Y006358D02*
X003914Y006358D01*
X003951Y006436D02*
X003992Y006436D01*
X003951Y006515D02*
X004281Y006515D01*
X004210Y006436D02*
X004359Y006436D01*
X004288Y006358D02*
X004438Y006358D01*
X004528Y006437D02*
X005606Y006437D01*
X005991Y006052D01*
X007041Y006052D01*
X007051Y006062D01*
X007147Y006328D02*
X006787Y006328D01*
X006633Y006174D01*
X006039Y006174D01*
X005651Y006562D01*
X004601Y006562D01*
X003951Y007212D01*
X003951Y007712D01*
X003701Y007962D01*
X003401Y007962D01*
X003301Y007862D01*
X003162Y008006D02*
X002373Y008006D01*
X002381Y008085D02*
X004051Y008085D01*
X004051Y008095D02*
X004051Y007929D01*
X004168Y007812D01*
X004334Y007812D01*
X004451Y007929D01*
X004451Y008095D01*
X004334Y008212D01*
X004168Y008212D01*
X004051Y008095D01*
X004051Y008006D02*
X003827Y008006D01*
X003821Y008012D02*
X003821Y008012D01*
X003905Y007928D02*
X004053Y007928D01*
X003984Y007849D02*
X004131Y007849D01*
X004062Y007771D02*
X004910Y007771D01*
X004851Y007849D02*
X004371Y007849D01*
X004449Y007928D02*
X004851Y007928D01*
X004862Y008006D02*
X004451Y008006D01*
X004451Y008085D02*
X004941Y008085D01*
X004917Y008163D02*
X004383Y008163D01*
X004334Y008262D02*
X004451Y008379D01*
X004451Y008545D01*
X004334Y008662D01*
X004168Y008662D01*
X004051Y008545D01*
X004051Y008379D01*
X004168Y008262D01*
X004334Y008262D01*
X004392Y008320D02*
X004851Y008320D01*
X004851Y008242D02*
X002363Y008242D01*
X002381Y008163D02*
X004119Y008163D01*
X004110Y008320D02*
X002330Y008320D01*
X002273Y008399D02*
X004051Y008399D01*
X004051Y008477D02*
X002194Y008477D01*
X002110Y008713D02*
X004851Y008713D01*
X004851Y008791D02*
X002238Y008791D01*
X002316Y008870D02*
X004926Y008870D01*
X004932Y008948D02*
X002349Y008948D01*
X002381Y009027D02*
X004854Y009027D01*
X004851Y009105D02*
X002381Y009105D01*
X002381Y009184D02*
X004851Y009184D01*
X004918Y009262D02*
X002354Y009262D01*
X002651Y009419D02*
X002701Y009419D01*
X002953Y009733D02*
X004547Y009733D01*
X004469Y009812D02*
X002983Y009812D01*
X003001Y009890D02*
X004451Y009890D01*
X004451Y009969D02*
X003001Y009969D01*
X002949Y010047D02*
X003533Y010047D01*
X003769Y010047D02*
X004503Y010047D01*
X004531Y010126D02*
X003847Y010126D01*
X003851Y010204D02*
X004531Y010204D01*
X004531Y010283D02*
X003851Y010283D01*
X003785Y010361D02*
X004580Y010361D01*
X004659Y010440D02*
X003551Y010440D01*
X003478Y010518D02*
X004737Y010518D01*
X004894Y010675D02*
X003001Y010675D01*
X002992Y010754D02*
X004973Y010754D01*
X005051Y010832D02*
X002914Y010832D01*
X002688Y010832D02*
X002279Y010832D01*
X002333Y010911D02*
X005130Y010911D01*
X005208Y010989D02*
X002366Y010989D01*
X002381Y011068D02*
X003563Y011068D01*
X003568Y011062D02*
X003734Y011062D01*
X003851Y011179D01*
X003851Y011345D01*
X003734Y011462D01*
X003568Y011462D01*
X003451Y011345D01*
X003451Y011179D01*
X003568Y011062D01*
X003484Y011146D02*
X002381Y011146D01*
X002370Y011225D02*
X003451Y011225D01*
X003451Y011303D02*
X002337Y011303D01*
X002290Y011382D02*
X003488Y011382D01*
X003566Y011460D02*
X002211Y011460D01*
X002045Y011539D02*
X004821Y011539D01*
X004821Y011460D02*
X003736Y011460D01*
X003734Y011562D02*
X003851Y011679D01*
X003851Y011845D01*
X003734Y011962D01*
X003568Y011962D01*
X003451Y011845D01*
X003451Y011679D01*
X003568Y011562D01*
X003734Y011562D01*
X003789Y011617D02*
X004893Y011617D01*
X004821Y011382D02*
X003814Y011382D01*
X003851Y011303D02*
X004897Y011303D01*
X005145Y011303D02*
X005197Y011303D01*
X005276Y011225D02*
X003851Y011225D01*
X003818Y011146D02*
X005365Y011146D01*
X005287Y011068D02*
X003739Y011068D01*
X003513Y011617D02*
X001691Y011617D01*
X001691Y011539D02*
X001857Y011539D01*
X001833Y011696D02*
X001691Y011696D01*
X002069Y011696D02*
X003451Y011696D01*
X003451Y011774D02*
X002221Y011774D01*
X002300Y011853D02*
X003459Y011853D01*
X003537Y011931D02*
X002342Y011931D01*
X002374Y012010D02*
X005931Y012010D01*
X005931Y012088D02*
X002381Y012088D01*
X002381Y012167D02*
X005931Y012167D01*
X005931Y012245D02*
X002361Y012245D01*
X002329Y012324D02*
X005931Y012324D01*
X005931Y012402D02*
X005774Y012402D01*
X005734Y012362D02*
X005851Y012479D01*
X005851Y012645D01*
X005734Y012762D01*
X005568Y012762D01*
X005451Y012645D01*
X005334Y012762D01*
X005168Y012762D01*
X005051Y012645D01*
X005051Y012479D01*
X005168Y012362D01*
X005334Y012362D01*
X005451Y012479D01*
X005568Y012362D01*
X005734Y012362D01*
X005851Y012481D02*
X005931Y012481D01*
X005931Y012559D02*
X005851Y012559D01*
X005851Y012638D02*
X005931Y012638D01*
X005931Y012716D02*
X005780Y012716D01*
X005734Y012862D02*
X005851Y012979D01*
X005851Y013145D01*
X005734Y013262D01*
X005568Y013262D01*
X005451Y013145D01*
X005334Y013262D01*
X005168Y013262D01*
X005051Y013145D01*
X005051Y012979D01*
X005168Y012862D01*
X005334Y012862D01*
X005451Y012979D01*
X005451Y013145D01*
X005451Y012979D01*
X005568Y012862D01*
X005734Y012862D01*
X005745Y012873D02*
X005931Y012873D01*
X005931Y012795D02*
X004451Y012795D01*
X004434Y012812D02*
X004268Y012812D01*
X004151Y012695D01*
X004151Y012529D01*
X004268Y012412D01*
X004434Y012412D01*
X004551Y012529D01*
X004551Y012695D01*
X004434Y012812D01*
X004530Y012716D02*
X005122Y012716D01*
X005051Y012638D02*
X004551Y012638D01*
X004551Y012559D02*
X005051Y012559D01*
X005051Y012481D02*
X004503Y012481D01*
X004200Y012481D02*
X003603Y012481D01*
X003651Y012529D02*
X003534Y012412D01*
X003368Y012412D01*
X003251Y012529D01*
X003251Y012695D01*
X003368Y012812D01*
X003534Y012812D01*
X003651Y012695D01*
X003651Y012529D01*
X003651Y012559D02*
X004151Y012559D01*
X004151Y012638D02*
X003651Y012638D01*
X003630Y012716D02*
X004172Y012716D01*
X004251Y012795D02*
X003551Y012795D01*
X003351Y012795D02*
X002242Y012795D01*
X002318Y012873D02*
X005157Y012873D01*
X005079Y012952D02*
X002350Y012952D01*
X002381Y013030D02*
X005051Y013030D01*
X005051Y013109D02*
X002381Y013109D01*
X002381Y013187D02*
X005093Y013187D01*
X005409Y013187D02*
X005493Y013187D01*
X005451Y013109D02*
X005451Y013109D01*
X005451Y013030D02*
X005451Y013030D01*
X005424Y012952D02*
X005479Y012952D01*
X005557Y012873D02*
X005345Y012873D01*
X005380Y012716D02*
X005522Y012716D01*
X005451Y012645D02*
X005451Y012479D01*
X005451Y012645D01*
X005451Y012638D02*
X005451Y012638D01*
X005451Y012559D02*
X005451Y012559D01*
X005451Y012481D02*
X005451Y012481D01*
X005374Y012402D02*
X005528Y012402D01*
X005128Y012402D02*
X002269Y012402D01*
X002185Y012481D02*
X003300Y012481D01*
X003251Y012559D02*
X001691Y012559D01*
X001691Y012481D02*
X001717Y012481D01*
X001691Y012638D02*
X003251Y012638D01*
X003272Y012716D02*
X002119Y012716D01*
X001783Y012716D02*
X001691Y012716D01*
X001691Y013501D02*
X001767Y013501D01*
X001691Y013580D02*
X005951Y013580D01*
X005951Y013501D02*
X002136Y013501D01*
X002249Y013423D02*
X005958Y013423D01*
X006036Y013344D02*
X002320Y013344D01*
X002353Y013266D02*
X006085Y013266D01*
X006006Y013187D02*
X005809Y013187D01*
X005851Y013109D02*
X005931Y013109D01*
X005931Y013030D02*
X005851Y013030D01*
X005824Y012952D02*
X005931Y012952D01*
X006051Y013062D02*
X006551Y013562D01*
X006551Y013688D01*
X006775Y013912D01*
X007151Y013912D01*
X007251Y013812D01*
X007122Y013658D02*
X007051Y013658D01*
X007051Y013580D02*
X009211Y013580D01*
X009211Y013658D02*
X009075Y013658D01*
X008991Y013658D02*
X008911Y013658D01*
X008911Y013737D02*
X008991Y013737D01*
X008991Y013815D02*
X008911Y013815D01*
X008911Y013894D02*
X008991Y013894D01*
X008991Y013972D02*
X008911Y013972D01*
X008911Y014051D02*
X008991Y014051D01*
X008911Y014129D02*
X002381Y014129D01*
X002381Y014051D02*
X008485Y014051D01*
X008502Y013972D02*
X007974Y013972D01*
X007934Y014012D02*
X008051Y013895D01*
X008051Y013729D01*
X007934Y013612D01*
X007768Y013612D01*
X007651Y013729D01*
X007651Y013895D01*
X007768Y014012D01*
X007934Y014012D01*
X008051Y013894D02*
X008535Y013894D01*
X008586Y013815D02*
X008051Y013815D01*
X008051Y013737D02*
X008668Y013737D01*
X008827Y013658D02*
X007980Y013658D01*
X007722Y013658D02*
X007380Y013658D01*
X007451Y013737D02*
X007651Y013737D01*
X007651Y013815D02*
X007451Y013815D01*
X007451Y013894D02*
X007651Y013894D01*
X007728Y013972D02*
X007374Y013972D01*
X007051Y013737D02*
X007051Y013737D01*
X006665Y013972D02*
X002359Y013972D01*
X002326Y013894D02*
X006587Y013894D01*
X006508Y013815D02*
X002262Y013815D01*
X002168Y013737D02*
X006431Y013737D01*
X006431Y013658D02*
X006288Y013658D01*
X006351Y013580D02*
X006399Y013580D01*
X006014Y013658D02*
X001691Y013658D01*
X001691Y013737D02*
X001734Y013737D01*
X001691Y014522D02*
X001816Y014522D01*
X001880Y014600D02*
X001691Y014600D01*
X001691Y014679D02*
X001851Y014679D01*
X001851Y014757D02*
X001691Y014757D01*
X001691Y014836D02*
X001892Y014836D01*
X001691Y014914D02*
X004252Y014914D01*
X004213Y014936D02*
X004213Y014936D01*
X004213Y014936D01*
X004181Y014993D02*
X001691Y014993D01*
X001691Y015071D02*
X002609Y015071D01*
X002551Y015129D02*
X002668Y015012D01*
X002834Y015012D01*
X002951Y015129D01*
X002951Y015295D01*
X002834Y015412D01*
X002668Y015412D01*
X002551Y015295D01*
X002551Y015129D01*
X002551Y015150D02*
X001691Y015150D01*
X001691Y015228D02*
X002551Y015228D01*
X002563Y015307D02*
X001691Y015307D01*
X001691Y015385D02*
X002641Y015385D01*
X002861Y015385D02*
X004109Y015385D01*
X004109Y015307D02*
X002939Y015307D01*
X002951Y015228D02*
X004109Y015228D01*
X004109Y015150D02*
X002951Y015150D01*
X002893Y015071D02*
X004135Y015071D01*
X004109Y015464D02*
X001691Y015464D01*
X001691Y015542D02*
X004109Y015542D01*
X004388Y014836D02*
X002210Y014836D01*
X002251Y014757D02*
X009211Y014757D01*
X009211Y014679D02*
X002251Y014679D01*
X002222Y014600D02*
X009211Y014600D01*
X009211Y014522D02*
X009183Y014522D01*
X009211Y014836D02*
X006514Y014836D01*
X006650Y014914D02*
X008466Y014914D01*
X008518Y014862D02*
X008401Y014979D01*
X008401Y015145D01*
X008518Y015262D01*
X008684Y015262D01*
X008801Y015145D01*
X008801Y014979D01*
X008684Y014862D01*
X008518Y014862D01*
X008401Y014993D02*
X006721Y014993D01*
X006767Y015071D02*
X008089Y015071D01*
X008118Y015042D02*
X008284Y015042D01*
X008401Y015159D01*
X008401Y015325D01*
X008284Y015442D01*
X008118Y015442D01*
X008001Y015325D01*
X008001Y015159D01*
X008118Y015042D01*
X008011Y015150D02*
X006793Y015150D01*
X006793Y015228D02*
X008001Y015228D01*
X008001Y015307D02*
X006793Y015307D01*
X006793Y015385D02*
X008061Y015385D01*
X008341Y015385D02*
X009211Y015385D01*
X009211Y015307D02*
X008401Y015307D01*
X008401Y015228D02*
X008484Y015228D01*
X008406Y015150D02*
X008392Y015150D01*
X008401Y015071D02*
X008313Y015071D01*
X008718Y015228D02*
X009211Y015228D01*
X009211Y015150D02*
X008796Y015150D01*
X008801Y015071D02*
X009211Y015071D01*
X009211Y014993D02*
X008801Y014993D01*
X008736Y014914D02*
X009211Y014914D01*
X008991Y014522D02*
X008911Y014522D01*
X008911Y014582D02*
X008841Y014570D01*
X008771Y014548D01*
X008705Y014514D01*
X008645Y014471D01*
X008593Y014418D01*
X008549Y014358D01*
X008516Y014292D01*
X008493Y014222D01*
X008482Y014152D01*
X008911Y014152D01*
X008911Y014582D01*
X008911Y014443D02*
X008991Y014443D01*
X008991Y014365D02*
X008911Y014365D01*
X008911Y014286D02*
X008991Y014286D01*
X008991Y014208D02*
X008911Y014208D01*
X008720Y014522D02*
X002144Y014522D01*
X002228Y014443D02*
X008617Y014443D01*
X008554Y014365D02*
X002307Y014365D01*
X002344Y014286D02*
X008513Y014286D01*
X008490Y014208D02*
X002377Y014208D01*
X003765Y011931D02*
X005931Y011931D01*
X005931Y011853D02*
X005493Y011853D01*
X005551Y011774D02*
X005931Y011774D01*
X005931Y011696D02*
X005551Y011696D01*
X005539Y011617D02*
X005563Y011617D01*
X005547Y011303D02*
X005525Y011303D01*
X005446Y011225D02*
X005694Y011225D01*
X005701Y011062D02*
X006051Y011412D01*
X006051Y013062D01*
X005209Y011853D02*
X003843Y011853D01*
X003851Y011774D02*
X005151Y011774D01*
X005151Y011696D02*
X003851Y011696D01*
X004651Y010262D02*
X005451Y011062D01*
X005701Y011062D01*
X005881Y011460D02*
X005929Y011460D01*
X005931Y011539D02*
X005877Y011539D01*
X005931Y011617D02*
X005799Y011617D01*
X006244Y010832D02*
X006501Y010832D01*
X006423Y010754D02*
X006322Y010754D01*
X006331Y010675D02*
X006344Y010675D01*
X006331Y010597D02*
X006331Y010597D01*
X006605Y010597D02*
X009211Y010597D01*
X009211Y010675D02*
X006684Y010675D01*
X005318Y009262D02*
X005184Y009262D01*
X005251Y009195D02*
X005251Y009029D01*
X005251Y009195D01*
X005251Y009184D02*
X005251Y009184D01*
X005251Y009105D02*
X005251Y009105D01*
X005248Y009027D02*
X005254Y009027D01*
X005332Y008948D02*
X005170Y008948D01*
X005176Y008870D02*
X005326Y008870D01*
X005251Y008795D02*
X005251Y008629D01*
X005368Y008512D01*
X005251Y008395D01*
X005134Y008512D01*
X005251Y008629D01*
X005251Y008795D01*
X005251Y008791D02*
X005251Y008791D01*
X005251Y008713D02*
X005251Y008713D01*
X005251Y008634D02*
X005251Y008634D01*
X005177Y008556D02*
X005325Y008556D01*
X005333Y008477D02*
X005169Y008477D01*
X005247Y008399D02*
X005255Y008399D01*
X005251Y008395D02*
X005251Y008229D01*
X005251Y008395D01*
X005251Y008320D02*
X005251Y008320D01*
X005251Y008242D02*
X005251Y008242D01*
X005185Y008163D02*
X005317Y008163D01*
X005341Y008085D02*
X005161Y008085D01*
X005240Y008006D02*
X005262Y008006D01*
X005251Y007928D02*
X005251Y007928D01*
X005251Y007849D02*
X005251Y007849D01*
X005192Y007771D02*
X005310Y007771D01*
X004855Y008399D02*
X004451Y008399D01*
X004451Y008477D02*
X004933Y008477D01*
X004925Y008556D02*
X004440Y008556D01*
X004362Y008634D02*
X004851Y008634D01*
X004755Y009733D02*
X004997Y009733D01*
X004919Y009812D02*
X004833Y009812D01*
X004851Y009890D02*
X004901Y009890D01*
X004901Y009969D02*
X004851Y009969D01*
X004799Y010047D02*
X004953Y010047D01*
X004651Y009912D02*
X004651Y010262D01*
X005149Y011617D02*
X005163Y011617D01*
X004140Y008634D02*
X001691Y008634D01*
X001691Y008556D02*
X004062Y008556D01*
X003561Y007752D02*
X003801Y007512D01*
X003801Y007164D01*
X004528Y006437D01*
X004301Y006279D02*
X005301Y006279D01*
X005301Y006201D02*
X004301Y006201D01*
X004244Y006122D02*
X005308Y006122D01*
X005387Y006044D02*
X005002Y006044D01*
X005051Y005965D02*
X005351Y005965D01*
X005351Y005887D02*
X005051Y005887D01*
X005030Y005808D02*
X005372Y005808D01*
X005451Y005730D02*
X005016Y005730D01*
X005095Y005651D02*
X005679Y005651D01*
X005758Y005573D02*
X005101Y005573D01*
X004371Y004709D02*
X002102Y004709D01*
X001800Y004709D02*
X001691Y004709D01*
X001691Y005494D02*
X001750Y005494D01*
X001751Y005730D02*
X001691Y005730D01*
X001691Y006515D02*
X001799Y006515D01*
X001691Y006593D02*
X003551Y006593D01*
X003551Y006515D02*
X002103Y006515D01*
X002235Y006436D02*
X003551Y006436D01*
X003623Y006358D02*
X002314Y006358D01*
X002197Y006750D02*
X004045Y006750D01*
X003967Y006829D02*
X002276Y006829D01*
X002332Y006907D02*
X003888Y006907D01*
X003810Y006986D02*
X002364Y006986D01*
X002381Y007064D02*
X003731Y007064D01*
X003681Y007143D02*
X003644Y007143D01*
X003438Y007143D02*
X002381Y007143D01*
X002371Y007221D02*
X003129Y007221D01*
X003051Y007300D02*
X002339Y007300D01*
X002293Y007378D02*
X003051Y007378D01*
X003051Y007457D02*
X002215Y007457D01*
X002054Y007535D02*
X003121Y007535D01*
X003188Y007692D02*
X002061Y007692D01*
X002218Y007771D02*
X003110Y007771D01*
X003101Y007849D02*
X002296Y007849D01*
X002340Y007928D02*
X003101Y007928D01*
X003417Y007614D02*
X001691Y007614D01*
X001691Y007692D02*
X001841Y007692D01*
X001849Y007535D02*
X001691Y007535D01*
X001691Y006750D02*
X001705Y006750D01*
X001691Y006672D02*
X003628Y006672D01*
X003874Y006672D02*
X004124Y006672D01*
X004202Y006593D02*
X003951Y006593D01*
X004426Y006907D02*
X007373Y006907D01*
X007311Y006829D02*
X004504Y006829D01*
X004583Y006750D02*
X007311Y006750D01*
X007178Y006672D02*
X005711Y006672D01*
X005790Y006593D02*
X006439Y006593D01*
X006361Y006515D02*
X006271Y006515D01*
X006321Y006436D02*
X006341Y006436D01*
X006341Y006358D02*
X006321Y006358D01*
X005971Y006515D02*
X005868Y006515D01*
X006643Y006593D02*
X007131Y006593D01*
X007051Y006515D02*
X006721Y006515D01*
X007026Y005730D02*
X007251Y005730D01*
X007329Y005651D02*
X007101Y005651D01*
X007101Y005573D02*
X007319Y005573D01*
X007291Y005494D02*
X007101Y005494D01*
X007027Y005416D02*
X007291Y005416D01*
X007333Y005337D02*
X006779Y005337D01*
X006837Y004709D02*
X006965Y004709D01*
X006901Y004631D02*
X006901Y004631D01*
X006901Y004552D02*
X006901Y004552D01*
X006895Y004474D02*
X006907Y004474D01*
X006985Y004395D02*
X006817Y004395D01*
X006829Y004317D02*
X006973Y004317D01*
X006901Y004245D02*
X006901Y004079D01*
X006901Y004245D01*
X006901Y004238D02*
X006901Y004238D01*
X006901Y004160D02*
X006901Y004160D01*
X006901Y004081D02*
X006901Y004081D01*
X006824Y004003D02*
X006978Y004003D01*
X006980Y003924D02*
X006822Y003924D01*
X006900Y003846D02*
X006902Y003846D01*
X006901Y003767D02*
X006901Y003767D01*
X006901Y003689D02*
X006901Y003689D01*
X006832Y003610D02*
X006970Y003610D01*
X006988Y003532D02*
X006814Y003532D01*
X006893Y003453D02*
X006909Y003453D01*
X006901Y003375D02*
X006901Y003375D01*
X006901Y003296D02*
X006901Y003296D01*
X006839Y003218D02*
X006963Y003218D01*
X007239Y003218D02*
X007363Y003218D01*
X007301Y003296D02*
X007301Y003296D01*
X007301Y003375D02*
X007301Y003375D01*
X007293Y003453D02*
X007309Y003453D01*
X007388Y003532D02*
X007214Y003532D01*
X007232Y003610D02*
X007370Y003610D01*
X007301Y003689D02*
X007301Y003689D01*
X007301Y003767D02*
X007301Y003767D01*
X007300Y003846D02*
X007302Y003846D01*
X007380Y003924D02*
X007222Y003924D01*
X007224Y004003D02*
X007378Y004003D01*
X007301Y004079D02*
X007301Y004245D01*
X007301Y004079D01*
X007301Y004081D02*
X007301Y004081D01*
X007301Y004160D02*
X007301Y004160D01*
X007301Y004238D02*
X007301Y004238D01*
X007229Y004317D02*
X007373Y004317D01*
X007385Y004395D02*
X007217Y004395D01*
X007295Y004474D02*
X007307Y004474D01*
X007301Y004552D02*
X007301Y004552D01*
X007301Y004631D02*
X007301Y004631D01*
X007237Y004709D02*
X007365Y004709D01*
X007649Y005337D02*
X008579Y005337D01*
X008647Y005416D02*
X007917Y005416D01*
X007967Y005494D02*
X008750Y005494D01*
X008751Y005730D02*
X007869Y005730D01*
X007948Y005651D02*
X009211Y005651D01*
X009211Y005573D02*
X007967Y005573D01*
X007665Y005730D02*
X007611Y005730D01*
X007631Y005808D02*
X008647Y005808D01*
X008579Y005887D02*
X007631Y005887D01*
X007585Y005651D02*
X007587Y005651D01*
X008069Y005144D02*
X008082Y005144D01*
X009153Y005494D02*
X009211Y005494D01*
X009211Y005730D02*
X009151Y005730D01*
X009103Y006515D02*
X009211Y006515D01*
X009198Y004474D02*
X009211Y004474D01*
X006585Y004395D02*
X006417Y004395D01*
X006429Y004317D02*
X006573Y004317D01*
X006501Y004238D02*
X006501Y004238D01*
X006501Y004160D02*
X006501Y004160D01*
X006501Y004081D02*
X006501Y004081D01*
X006424Y004003D02*
X006578Y004003D01*
X006580Y003924D02*
X006422Y003924D01*
X006500Y003846D02*
X006502Y003846D01*
X006501Y003767D02*
X006501Y003767D01*
X006501Y003689D02*
X006501Y003689D01*
X006432Y003610D02*
X006570Y003610D01*
X006588Y003532D02*
X006414Y003532D01*
X006493Y003453D02*
X006509Y003453D01*
X006501Y003375D02*
X006501Y003375D01*
X006501Y003296D02*
X006501Y003296D01*
X006439Y003218D02*
X006563Y003218D01*
X006495Y004474D02*
X006507Y004474D01*
X006501Y004552D02*
X006501Y004552D01*
X006501Y004631D02*
X006501Y004631D01*
X006437Y004709D02*
X006565Y004709D01*
X004801Y003532D02*
X004004Y003532D01*
X004082Y003453D02*
X004801Y003453D01*
X003498Y003532D02*
X003204Y003532D01*
X003282Y003453D02*
X003420Y003453D01*
X002698Y003532D02*
X002062Y003532D01*
X002052Y003689D02*
X002501Y003689D01*
X002501Y003767D02*
X002214Y003767D01*
X002293Y003846D02*
X002502Y003846D01*
X002570Y003610D02*
X001691Y003610D01*
X001691Y003532D02*
X001840Y003532D01*
X001850Y003689D02*
X001691Y003689D01*
X002218Y003453D02*
X002620Y003453D01*
X003381Y007535D02*
X003608Y007535D01*
X004071Y007535D02*
X004091Y007535D01*
X002601Y010283D02*
X002346Y010283D01*
X002310Y010361D02*
X002601Y010361D01*
X002601Y010440D02*
X002232Y010440D01*
X002095Y010518D02*
X002662Y010518D01*
X002601Y010597D02*
X001691Y010597D01*
X001691Y010675D02*
X002601Y010675D01*
X002610Y010754D02*
X002201Y010754D01*
X001808Y010518D02*
X001691Y010518D01*
X001691Y010754D02*
X001701Y010754D01*
X001691Y009733D02*
X001742Y009733D01*
X001691Y008713D02*
X001792Y008713D01*
X001709Y008477D02*
X001691Y008477D01*
X004644Y014836D02*
X006258Y014836D01*
X006122Y014914D02*
X004780Y014914D01*
X004851Y014993D02*
X006051Y014993D01*
X006006Y015071D02*
X004897Y015071D01*
X004923Y015150D02*
X005979Y015150D01*
X005979Y015228D02*
X004923Y015228D01*
X004923Y015307D02*
X005979Y015307D01*
X005979Y015385D02*
X004923Y015385D01*
X004923Y015464D02*
X005979Y015464D01*
X005979Y015542D02*
X004923Y015542D01*
X006793Y015542D02*
X009211Y015542D01*
X009211Y015464D02*
X006793Y015464D01*
X009136Y013501D02*
X009211Y013501D01*
X009185Y012481D02*
X009211Y012481D01*
X009201Y010754D02*
X009211Y010754D01*
X009211Y010518D02*
X009095Y010518D01*
X009144Y009498D02*
X009211Y009498D01*
M02*
