G75*
%MOIN*%
%OFA0B0*%
%FSLAX24Y24*%
%IPPOS*%
%LPD*%
%AMOC8*
5,1,8,0,0,1.08239X$1,22.5*
%
%ADD10C,0.0460*%
%ADD11C,0.0760*%
%ADD12C,0.0470*%
%ADD13C,0.0370*%
%ADD14C,0.0560*%
D10*
X002951Y003162D03*
X002951Y003162D03*
X003751Y003162D03*
X003751Y003162D03*
X003351Y005162D03*
X003351Y005162D03*
D11*
X001951Y005112D03*
X001951Y004112D03*
X001951Y003112D03*
X001951Y006112D03*
X001951Y007112D03*
X001951Y008112D03*
X001951Y009112D03*
X001951Y010112D03*
X001951Y011112D03*
X001951Y012112D03*
X001951Y013112D03*
X001951Y014112D03*
X008951Y014112D03*
X008951Y013112D03*
X008951Y012112D03*
X008951Y011112D03*
X008951Y010112D03*
X008951Y009112D03*
X008951Y008112D03*
X008951Y007112D03*
X008951Y006112D03*
X008951Y005112D03*
X008951Y004112D03*
X008951Y003112D03*
D12*
X001451Y003112D03*
X001451Y004112D03*
X001451Y005112D03*
X001451Y006112D03*
X001451Y007112D03*
X001451Y008112D03*
X001451Y009112D03*
X001451Y010112D03*
X001451Y011112D03*
X001451Y012112D03*
X001451Y013112D03*
X001451Y014112D03*
X009451Y014112D03*
X009451Y013112D03*
X009451Y012112D03*
X009451Y011112D03*
X009451Y010112D03*
X009451Y009112D03*
X009451Y008112D03*
X009451Y007112D03*
X009451Y006112D03*
X009451Y005112D03*
X009451Y004112D03*
X009451Y003112D03*
D13*
X003601Y003662D03*
X003601Y004162D03*
X003601Y004662D03*
X003101Y004662D03*
X003101Y004162D03*
X003101Y003662D03*
D14*
X004851Y006992D03*
X004131Y008962D03*
X004031Y009862D03*
X005131Y010952D03*
X006171Y011202D03*
X006961Y011042D03*
X007391Y012202D03*
X006971Y014402D03*
X007821Y014462D03*
X004781Y012542D03*
X007171Y007062D03*
X006631Y006872D03*
X006601Y005942D03*
M02*
