%
M48
M72
T01C0.0080
T02C0.0250
T03C0.0400
%
T01
X2701Y3762
X3351Y5692
X3751Y6512
X3661Y6802
X3541Y7322
X3561Y7752
X3301Y7862
X3351Y8162
X3251Y7382
X4101Y6262
X4351Y7112
X4251Y7412
X4251Y8012
X4251Y8462
X5051Y8312
X5051Y8712
X5051Y9112
X5451Y9112
X5451Y8712
X5451Y8312
X5451Y7912
X5051Y7912
X5451Y7112
X5851Y7912
X5851Y8312
X5851Y8712
X5851Y9112
X6251Y9112
X6251Y8712
X6251Y8312
X6251Y7912
X7051Y8032
X7051Y8712
X7751Y8612
X8001Y8362
X8131Y8102
X7751Y7912
X7751Y7612
X7511Y6762
X7331Y6542
X7451Y6282
X7147Y6328
X7051Y6062
X6901Y5572
X6631Y5472
X6251Y5612
X5851Y5762
X5551Y5912
X5501Y6212
X5151Y5912
X4851Y5912
X4901Y5562
X4951Y5262
X5101Y4962
X4501Y4862
X4351Y5212
X4001Y5212
X5001Y3462
X5351Y3162
X5751Y2812
X6301Y3362
X6301Y3762
X6301Y4162
X6301Y4562
X6701Y4562
X6701Y4162
X6701Y4162
X6701Y3762
X6701Y3362
X7101Y3362
X7101Y3762
X7101Y4162
X7101Y4562
X7501Y4562
X7501Y4162
X7501Y3762
X7501Y3362
X8401Y2312
X7341Y1732
X8082Y5144
X7767Y5549
X7491Y5462
X7431Y5832
X6541Y6412
X6121Y6382
X8151Y9112
X7851Y9512
X7801Y9862
X7701Y10262
X6971Y11562
X6751Y12162
X6401Y11612
X5851Y11712
X5681Y11452
X5361Y11422
X5351Y11712
X5021Y11462
X4651Y12112
X4351Y12612
X4551Y13412
X5251Y13062
X5251Y13062
X5651Y13062
X5651Y12562
X5251Y12562
X6151Y13512
X6851Y13662
X7251Y13812
X7851Y13812
X7401Y12762
X6131Y10662
X5701Y10662
X5901Y9912
X5451Y9912
X5101Y9912
X4651Y9912
X3651Y10212
X3351Y10362
X2801Y10362
X2801Y10662
X2801Y9912
X2811Y9592
X2531Y9582
X3651Y11262
X3651Y11762
X3451Y12612
X2951Y13212
X2051Y14712
X2751Y15212
X6451Y9912
X8601Y15062
X8201Y15412
T02
X1451Y3112
X1451Y4112
X1451Y5112
X1451Y6112
X1451Y7112
X1451Y8112
X1451Y9112
X1451Y10112
X1451Y11112
X1451Y12112
X1451Y13112
X1451Y14112
X9451Y14112
X9451Y13112
X9451Y12112
X9451Y11112
X9451Y10112
X9451Y9112
X9451Y8112
X9451Y7112
X9451Y6112
X9451Y5112
X9451Y4112
X9451Y3112
T03
X8951Y3112
X8951Y4112
X8951Y5112
X8951Y6112
X8951Y7112
X8951Y8112
X8951Y9112
X8951Y10112
X8951Y11112
X8951Y12112
X8951Y13112
X8951Y14112
X3351Y5162
X3351Y5162
X2951Y3162
X2951Y3162
X3751Y3162
X3751Y3162
X1951Y3112
X1951Y4112
X1951Y5112
X1951Y6112
X1951Y7112
X1951Y8112
X1951Y9112
X1951Y10112
X1951Y11112
X1951Y12112
X1951Y13112
X1951Y14112
M30
