G75*
%MOIN*%
%OFA0B0*%
%FSLAX24Y24*%
%IPPOS*%
%LPD*%
%AMOC8*
5,1,8,0,0,1.08239X$1,22.5*
%
%ADD10C,0.0140*%
%ADD11R,0.1871X0.1871*%
%ADD12R,0.0217X0.0591*%
%ADD13R,0.0887X0.0847*%
%ADD14R,0.0690X0.0808*%
%ADD15R,0.0532X0.0808*%
%ADD16C,0.0370*%
%ADD17C,0.0460*%
%ADD18R,0.0240X0.0240*%
%ADD19R,0.0375X0.0729*%
%ADD20R,0.0375X0.1005*%
%ADD21C,0.0147*%
%ADD22C,0.0050*%
%ADD23C,0.0760*%
%ADD24C,0.0470*%
%ADD25C,0.0178*%
%ADD26R,0.1025X0.1025*%
%ADD27R,0.0271X0.0275*%
%ADD28R,0.0414X0.0375*%
%ADD29R,0.0275X0.0271*%
%ADD30R,0.0532X0.0296*%
%ADD31C,0.0237*%
%ADD32R,0.0690X0.1044*%
%ADD33R,0.0158X0.0375*%
%ADD34R,0.0158X0.0316*%
%ADD35R,0.0178X0.0375*%
%ADD36R,0.0375X0.0178*%
%ADD37C,0.0170*%
%ADD38R,0.2422X0.2422*%
%ADD39R,0.0434X0.0454*%
%ADD40R,0.0375X0.0375*%
D10*
X005603Y003096D02*
X005837Y003096D01*
X005837Y003253D02*
X005603Y003253D01*
X005603Y003411D02*
X005837Y003411D01*
X005837Y003568D02*
X005603Y003568D01*
X005603Y003726D02*
X005837Y003726D01*
X005837Y003883D02*
X005603Y003883D01*
X005603Y004041D02*
X005837Y004041D01*
X005837Y004198D02*
X005603Y004198D01*
X005603Y004356D02*
X005837Y004356D01*
X005837Y004513D02*
X005603Y004513D01*
X005603Y004671D02*
X005837Y004671D01*
X005837Y004828D02*
X005603Y004828D01*
X006035Y005026D02*
X006035Y005260D01*
X006192Y005260D02*
X006192Y005026D01*
X006350Y005026D02*
X006350Y005260D01*
X006507Y005260D02*
X006507Y005026D01*
X006665Y005026D02*
X006665Y005260D01*
X006822Y005260D02*
X006822Y005026D01*
X006980Y005026D02*
X006980Y005260D01*
X007137Y005260D02*
X007137Y005026D01*
X007295Y005026D02*
X007295Y005260D01*
X007452Y005260D02*
X007452Y005026D01*
X007610Y005026D02*
X007610Y005260D01*
X007767Y005260D02*
X007767Y005026D01*
X007965Y004828D02*
X008199Y004828D01*
X008199Y004671D02*
X007965Y004671D01*
X007965Y004513D02*
X008199Y004513D01*
X008199Y004356D02*
X007965Y004356D01*
X007965Y004198D02*
X008199Y004198D01*
X008199Y004041D02*
X007965Y004041D01*
X007965Y003883D02*
X008199Y003883D01*
X008199Y003726D02*
X007965Y003726D01*
X007965Y003568D02*
X008199Y003568D01*
X008199Y003411D02*
X007965Y003411D01*
X007965Y003253D02*
X008199Y003253D01*
X008199Y003096D02*
X007965Y003096D01*
X007767Y002898D02*
X007767Y002664D01*
X007610Y002664D02*
X007610Y002898D01*
X007452Y002898D02*
X007452Y002664D01*
X007295Y002664D02*
X007295Y002898D01*
X007137Y002898D02*
X007137Y002664D01*
X006980Y002664D02*
X006980Y002898D01*
X006822Y002898D02*
X006822Y002664D01*
X006665Y002664D02*
X006665Y002898D01*
X006507Y002898D02*
X006507Y002664D01*
X006350Y002664D02*
X006350Y002898D01*
X006192Y002898D02*
X006192Y002664D01*
X006035Y002664D02*
X006035Y002898D01*
D11*
X006901Y003962D03*
D12*
X005963Y014188D03*
X005707Y014188D03*
X005451Y014188D03*
X005195Y014188D03*
X004939Y014188D03*
D13*
X004231Y014316D03*
X006672Y014316D03*
D14*
X007065Y015241D03*
X003837Y015241D03*
D15*
X005116Y015241D03*
X005786Y015241D03*
D16*
X003601Y004662D03*
X003601Y004162D03*
X003601Y003662D03*
X003101Y003662D03*
X003101Y004162D03*
X003101Y004662D03*
D17*
X003351Y005162D03*
X003351Y005162D03*
X002951Y003162D03*
X002951Y003162D03*
X003751Y003162D03*
X003751Y003162D03*
D18*
X007781Y006842D03*
X007781Y007182D03*
X008121Y007182D03*
X008121Y006842D03*
D19*
X007732Y015212D03*
X009070Y015212D03*
X003170Y015212D03*
X001832Y015212D03*
D20*
X002328Y002112D03*
X003666Y002112D03*
D21*
X004798Y003862D03*
X004968Y003764D03*
X004968Y003960D03*
X005205Y003960D03*
X005205Y003764D03*
D22*
X001451Y003462D02*
X001451Y002762D01*
X001951Y002762D01*
X002019Y002769D01*
X002085Y002789D01*
X002146Y002821D01*
X002199Y002865D01*
X002242Y002918D01*
X002274Y002978D01*
X002294Y003044D01*
X002301Y003112D01*
X002294Y003180D01*
X002274Y003246D01*
X002242Y003306D01*
X002199Y003360D01*
X002146Y003403D01*
X002085Y003435D01*
X002019Y003455D01*
X001951Y003462D01*
X001451Y003462D01*
X001451Y003449D02*
X002040Y003449D01*
X002149Y003401D02*
X001451Y003401D01*
X001451Y003352D02*
X002205Y003352D01*
X002244Y003304D02*
X001451Y003304D01*
X001451Y003255D02*
X002270Y003255D01*
X002286Y003207D02*
X001451Y003207D01*
X001451Y003158D02*
X002297Y003158D01*
X002301Y003110D02*
X001451Y003110D01*
X001451Y003061D02*
X002296Y003061D01*
X002285Y003013D02*
X001451Y003013D01*
X001451Y002964D02*
X002267Y002964D01*
X002240Y002916D02*
X001451Y002916D01*
X001451Y002867D02*
X002201Y002867D01*
X002141Y002819D02*
X001451Y002819D01*
X001451Y002770D02*
X002024Y002770D01*
X001951Y003762D02*
X001451Y003762D01*
X001451Y004462D01*
X001951Y004462D01*
X002019Y004455D01*
X002085Y004435D01*
X002146Y004403D01*
X002199Y004360D01*
X002242Y004306D01*
X002274Y004246D01*
X002294Y004180D01*
X002301Y004112D01*
X002294Y004044D01*
X002274Y003978D01*
X002242Y003918D01*
X002199Y003865D01*
X002146Y003821D01*
X002085Y003789D01*
X002019Y003769D01*
X001951Y003762D01*
X002085Y003789D02*
X001451Y003789D01*
X001451Y003837D02*
X002165Y003837D01*
X002216Y003886D02*
X001451Y003886D01*
X001451Y003934D02*
X002251Y003934D01*
X002276Y003983D02*
X001451Y003983D01*
X001451Y004031D02*
X002291Y004031D01*
X002298Y004080D02*
X001451Y004080D01*
X001451Y004128D02*
X002300Y004128D01*
X002295Y004177D02*
X001451Y004177D01*
X001451Y004225D02*
X002281Y004225D01*
X002260Y004274D02*
X001451Y004274D01*
X001451Y004322D02*
X002229Y004322D01*
X002185Y004371D02*
X001451Y004371D01*
X001451Y004419D02*
X002116Y004419D01*
X002019Y004769D02*
X001951Y004762D01*
X001451Y004762D01*
X001451Y005462D01*
X001951Y005462D01*
X002019Y005455D01*
X002085Y005435D01*
X002146Y005403D01*
X002199Y005360D01*
X002242Y005306D01*
X002274Y005246D01*
X002294Y005180D01*
X002301Y005112D01*
X002294Y005044D01*
X002274Y004978D01*
X002242Y004918D01*
X002199Y004865D01*
X002146Y004821D01*
X002085Y004789D01*
X002019Y004769D01*
X002119Y004807D02*
X001451Y004807D01*
X001451Y004856D02*
X002188Y004856D01*
X002231Y004904D02*
X001451Y004904D01*
X001451Y004953D02*
X002261Y004953D01*
X002281Y005001D02*
X001451Y005001D01*
X001451Y005050D02*
X002295Y005050D01*
X002300Y005098D02*
X001451Y005098D01*
X001451Y005147D02*
X002298Y005147D01*
X002290Y005195D02*
X001451Y005195D01*
X001451Y005244D02*
X002275Y005244D01*
X002250Y005292D02*
X001451Y005292D01*
X001451Y005341D02*
X002214Y005341D01*
X002163Y005389D02*
X001451Y005389D01*
X001451Y005438D02*
X002078Y005438D01*
X002019Y005769D02*
X001951Y005762D01*
X001451Y005762D01*
X001451Y006462D01*
X001951Y006462D01*
X002019Y006455D01*
X002085Y006435D01*
X002146Y006403D01*
X002199Y006360D01*
X002242Y006306D01*
X002274Y006246D01*
X002294Y006180D01*
X002301Y006112D01*
X002294Y006044D01*
X002274Y005978D01*
X002242Y005918D01*
X002199Y005865D01*
X002146Y005821D01*
X002085Y005789D01*
X002019Y005769D01*
X002047Y005777D02*
X001451Y005777D01*
X001451Y005826D02*
X002151Y005826D01*
X002206Y005874D02*
X001451Y005874D01*
X001451Y005923D02*
X002245Y005923D01*
X002271Y005971D02*
X001451Y005971D01*
X001451Y006020D02*
X002287Y006020D01*
X002297Y006068D02*
X001451Y006068D01*
X001451Y006117D02*
X002301Y006117D01*
X002296Y006165D02*
X001451Y006165D01*
X001451Y006214D02*
X002284Y006214D01*
X002266Y006262D02*
X001451Y006262D01*
X001451Y006311D02*
X002239Y006311D01*
X002199Y006359D02*
X001451Y006359D01*
X001451Y006408D02*
X002137Y006408D01*
X002012Y006456D02*
X001451Y006456D01*
X001451Y006762D02*
X001451Y007462D01*
X001951Y007462D01*
X002019Y007455D01*
X002085Y007435D01*
X002146Y007403D01*
X002199Y007360D01*
X002242Y007306D01*
X002274Y007246D01*
X002294Y007180D01*
X002301Y007112D01*
X002294Y007044D01*
X002274Y006978D01*
X002242Y006918D01*
X002199Y006865D01*
X002146Y006821D01*
X002085Y006789D01*
X002019Y006769D01*
X001951Y006762D01*
X001451Y006762D01*
X001451Y006796D02*
X002098Y006796D01*
X002174Y006844D02*
X001451Y006844D01*
X001451Y006893D02*
X002222Y006893D01*
X002255Y006941D02*
X001451Y006941D01*
X001451Y006990D02*
X002278Y006990D01*
X002293Y007038D02*
X001451Y007038D01*
X001451Y007087D02*
X002299Y007087D01*
X002299Y007135D02*
X001451Y007135D01*
X001451Y007184D02*
X002293Y007184D01*
X002279Y007232D02*
X001451Y007232D01*
X001451Y007281D02*
X002256Y007281D01*
X002224Y007329D02*
X001451Y007329D01*
X001451Y007378D02*
X002177Y007378D01*
X002103Y007426D02*
X001451Y007426D01*
X001451Y007762D02*
X001451Y008462D01*
X001951Y008462D01*
X002019Y008455D01*
X002085Y008435D01*
X002146Y008403D01*
X002199Y008360D01*
X002242Y008306D01*
X002274Y008246D01*
X002294Y008180D01*
X002301Y008112D01*
X002294Y008044D01*
X002274Y007978D01*
X002242Y007918D01*
X002199Y007865D01*
X002146Y007821D01*
X002085Y007789D01*
X002019Y007769D01*
X001951Y007762D01*
X001451Y007762D01*
X001451Y007766D02*
X001987Y007766D01*
X002133Y007814D02*
X001451Y007814D01*
X001451Y007863D02*
X002196Y007863D01*
X002237Y007911D02*
X001451Y007911D01*
X001451Y007960D02*
X002265Y007960D01*
X002284Y008008D02*
X001451Y008008D01*
X001451Y008057D02*
X002296Y008057D01*
X002300Y008105D02*
X001451Y008105D01*
X001451Y008154D02*
X002297Y008154D01*
X002288Y008202D02*
X001451Y008202D01*
X001451Y008251D02*
X002272Y008251D01*
X002246Y008299D02*
X001451Y008299D01*
X001451Y008348D02*
X002208Y008348D01*
X002154Y008396D02*
X001451Y008396D01*
X001451Y008445D02*
X002055Y008445D01*
X002019Y008769D02*
X001951Y008762D01*
X001451Y008762D01*
X001451Y009462D01*
X001951Y009462D01*
X002019Y009455D01*
X002085Y009435D01*
X002146Y009403D01*
X002199Y009360D01*
X002242Y009306D01*
X002274Y009246D01*
X002294Y009180D01*
X002301Y009112D01*
X002294Y009044D01*
X002274Y008978D01*
X001451Y008978D01*
X001451Y008930D02*
X002249Y008930D01*
X002242Y008918D02*
X002274Y008978D01*
X002289Y009027D02*
X001451Y009027D01*
X001451Y009075D02*
X002297Y009075D01*
X002300Y009124D02*
X001451Y009124D01*
X001451Y009172D02*
X002295Y009172D01*
X002282Y009221D02*
X001451Y009221D01*
X001451Y009269D02*
X002262Y009269D01*
X002233Y009318D02*
X001451Y009318D01*
X001451Y009366D02*
X002191Y009366D01*
X002124Y009415D02*
X001451Y009415D01*
X001451Y009762D02*
X001451Y010462D01*
X001951Y010462D01*
X002019Y010455D01*
X002085Y010435D01*
X002146Y010403D01*
X002199Y010360D01*
X002242Y010306D01*
X002274Y010246D01*
X002294Y010180D01*
X002301Y010112D01*
X002294Y010044D01*
X002274Y009978D01*
X002242Y009918D01*
X002199Y009865D01*
X002146Y009821D01*
X002085Y009789D01*
X002019Y009769D01*
X001951Y009762D01*
X001451Y009762D01*
X001451Y009803D02*
X002111Y009803D01*
X002182Y009851D02*
X001451Y009851D01*
X001451Y009900D02*
X002227Y009900D01*
X002258Y009948D02*
X001451Y009948D01*
X001451Y009997D02*
X002280Y009997D01*
X002295Y010045D02*
X001451Y010045D01*
X001451Y010094D02*
X002299Y010094D01*
X002298Y010142D02*
X001451Y010142D01*
X001451Y010191D02*
X002291Y010191D01*
X002277Y010239D02*
X001451Y010239D01*
X001451Y010288D02*
X002252Y010288D01*
X002218Y010336D02*
X001451Y010336D01*
X001451Y010385D02*
X002168Y010385D01*
X002089Y010433D02*
X001451Y010433D01*
X001451Y010762D02*
X001451Y011462D01*
X001951Y011462D01*
X002019Y011455D01*
X002085Y011435D01*
X002146Y011403D01*
X002199Y011360D01*
X002242Y011306D01*
X001451Y011306D01*
X001451Y011258D02*
X002268Y011258D01*
X002274Y011246D02*
X002242Y011306D01*
X002203Y011355D02*
X001451Y011355D01*
X001451Y011403D02*
X002146Y011403D01*
X002032Y011452D02*
X001451Y011452D01*
X001451Y011209D02*
X002286Y011209D01*
X002294Y011180D02*
X002274Y011246D01*
X002294Y011180D02*
X002301Y011112D01*
X002294Y011044D01*
X002274Y010978D01*
X002242Y010918D01*
X001451Y010918D01*
X001451Y010870D02*
X002203Y010870D01*
X002199Y010865D02*
X002242Y010918D01*
X002268Y010967D02*
X001451Y010967D01*
X001451Y011015D02*
X002286Y011015D01*
X002296Y011064D02*
X001451Y011064D01*
X001451Y011112D02*
X002301Y011112D01*
X002296Y011161D02*
X001451Y011161D01*
X001451Y010821D02*
X002146Y010821D01*
X002199Y010865D01*
X002146Y010821D02*
X002085Y010789D01*
X002019Y010769D01*
X001951Y010762D01*
X001451Y010762D01*
X001451Y010773D02*
X002032Y010773D01*
X001951Y011762D02*
X001451Y011762D01*
X001451Y012462D01*
X001951Y012462D01*
X002019Y012455D01*
X002085Y012435D01*
X002146Y012403D01*
X002199Y012360D01*
X002242Y012306D01*
X002274Y012246D01*
X002294Y012180D01*
X002301Y012112D01*
X002294Y012044D01*
X002274Y011978D01*
X002242Y011918D01*
X002199Y011865D01*
X002146Y011821D01*
X002085Y011789D01*
X002019Y011769D01*
X001951Y011762D01*
X002090Y011791D02*
X001451Y011791D01*
X001451Y011840D02*
X002168Y011840D01*
X002218Y011888D02*
X001451Y011888D01*
X001451Y011937D02*
X002252Y011937D01*
X002277Y011985D02*
X001451Y011985D01*
X001451Y012034D02*
X002291Y012034D01*
X002298Y012082D02*
X001451Y012082D01*
X001451Y012131D02*
X002299Y012131D01*
X002295Y012179D02*
X001451Y012179D01*
X001451Y012228D02*
X002280Y012228D01*
X002258Y012276D02*
X001451Y012276D01*
X001451Y012325D02*
X002227Y012325D01*
X002182Y012373D02*
X001451Y012373D01*
X001451Y012422D02*
X002111Y012422D01*
X002019Y012769D02*
X001951Y012762D01*
X001451Y012762D01*
X001451Y013462D01*
X001951Y013462D01*
X002019Y013455D01*
X002085Y013435D01*
X002146Y013403D01*
X002199Y013360D01*
X002242Y013306D01*
X002274Y013246D01*
X001451Y013246D01*
X001451Y013198D02*
X002289Y013198D01*
X002294Y013180D02*
X002274Y013246D01*
X002248Y013295D02*
X001451Y013295D01*
X001451Y013343D02*
X002212Y013343D01*
X002160Y013392D02*
X001451Y013392D01*
X001451Y013440D02*
X002070Y013440D01*
X002019Y013769D02*
X001951Y013762D01*
X001451Y013762D01*
X001451Y014462D01*
X001951Y014462D01*
X002019Y014455D01*
X002085Y014435D01*
X002146Y014403D01*
X002199Y014360D01*
X002242Y014306D01*
X002274Y014246D01*
X002294Y014180D01*
X002301Y014112D01*
X002294Y014044D01*
X002274Y013978D01*
X002242Y013918D01*
X002199Y013865D01*
X002146Y013821D01*
X002085Y013789D01*
X002019Y013769D01*
X002055Y013780D02*
X001451Y013780D01*
X001451Y013828D02*
X002154Y013828D01*
X002209Y013877D02*
X001451Y013877D01*
X001451Y013925D02*
X002246Y013925D01*
X002272Y013974D02*
X001451Y013974D01*
X001451Y014022D02*
X002288Y014022D01*
X002297Y014071D02*
X001451Y014071D01*
X001451Y014119D02*
X002300Y014119D01*
X002296Y014168D02*
X001451Y014168D01*
X001451Y014216D02*
X002284Y014216D01*
X002265Y014265D02*
X001451Y014265D01*
X001451Y014313D02*
X002237Y014313D01*
X002196Y014362D02*
X001451Y014362D01*
X001451Y014410D02*
X002132Y014410D01*
X001986Y014459D02*
X001451Y014459D01*
X001451Y013149D02*
X002297Y013149D01*
X002294Y013180D02*
X002301Y013112D01*
X002294Y013044D01*
X002274Y012978D01*
X002242Y012918D01*
X002199Y012865D01*
X002146Y012821D01*
X002085Y012789D01*
X002019Y012769D01*
X002124Y012810D02*
X001451Y012810D01*
X001451Y012858D02*
X002191Y012858D01*
X002233Y012907D02*
X001451Y012907D01*
X001451Y012955D02*
X002262Y012955D01*
X002282Y013004D02*
X001451Y013004D01*
X001451Y013052D02*
X002295Y013052D01*
X002300Y013101D02*
X001451Y013101D01*
X001451Y008881D02*
X002212Y008881D01*
X002199Y008865D02*
X002242Y008918D01*
X002199Y008865D02*
X002146Y008821D01*
X002085Y008789D01*
X002019Y008769D01*
X002070Y008784D02*
X001451Y008784D01*
X001451Y008833D02*
X002160Y008833D01*
X008601Y009112D02*
X008608Y009044D01*
X008628Y008978D01*
X009451Y008978D01*
X009451Y008930D02*
X008654Y008930D01*
X008660Y008918D02*
X008704Y008865D01*
X008757Y008821D01*
X008817Y008789D01*
X008883Y008769D01*
X008951Y008762D01*
X009451Y008762D01*
X009451Y009462D01*
X008951Y009462D01*
X008883Y009455D01*
X008817Y009435D01*
X008757Y009403D01*
X008704Y009360D01*
X008660Y009306D01*
X008628Y009246D01*
X008608Y009180D01*
X008601Y009112D01*
X008602Y009124D02*
X009451Y009124D01*
X009451Y009172D02*
X008607Y009172D01*
X008620Y009221D02*
X009451Y009221D01*
X009451Y009269D02*
X008640Y009269D01*
X008669Y009318D02*
X009451Y009318D01*
X009451Y009366D02*
X008712Y009366D01*
X008778Y009415D02*
X009451Y009415D01*
X009451Y009075D02*
X008605Y009075D01*
X008613Y009027D02*
X009451Y009027D01*
X009451Y008881D02*
X008690Y008881D01*
X008660Y008918D02*
X008628Y008978D01*
X008743Y008833D02*
X009451Y008833D01*
X009451Y008784D02*
X008832Y008784D01*
X008883Y008455D02*
X008817Y008435D01*
X008757Y008403D01*
X008704Y008360D01*
X008660Y008306D01*
X008628Y008246D01*
X008608Y008180D01*
X008601Y008112D01*
X008608Y008044D01*
X008628Y007978D01*
X008660Y007918D01*
X008704Y007865D01*
X008757Y007821D01*
X008817Y007789D01*
X008883Y007769D01*
X008951Y007762D01*
X009451Y007762D01*
X009451Y008462D01*
X008951Y008462D01*
X008883Y008455D01*
X008847Y008445D02*
X009451Y008445D01*
X009451Y008396D02*
X008748Y008396D01*
X008694Y008348D02*
X009451Y008348D01*
X009451Y008299D02*
X008656Y008299D01*
X008630Y008251D02*
X009451Y008251D01*
X009451Y008202D02*
X008614Y008202D01*
X008605Y008154D02*
X009451Y008154D01*
X009451Y008105D02*
X008602Y008105D01*
X008607Y008057D02*
X009451Y008057D01*
X009451Y008008D02*
X008619Y008008D01*
X008638Y007960D02*
X009451Y007960D01*
X009451Y007911D02*
X008665Y007911D01*
X008706Y007863D02*
X009451Y007863D01*
X009451Y007814D02*
X008770Y007814D01*
X008915Y007766D02*
X009451Y007766D01*
X009451Y007462D02*
X009451Y006762D01*
X008951Y006762D01*
X008883Y006769D01*
X008817Y006789D01*
X008757Y006821D01*
X008704Y006865D01*
X008660Y006918D01*
X008628Y006978D01*
X008608Y007044D01*
X008601Y007112D01*
X008608Y007180D01*
X008628Y007246D01*
X008660Y007306D01*
X008704Y007360D01*
X008757Y007403D01*
X008817Y007435D01*
X008883Y007455D01*
X008951Y007462D01*
X009451Y007462D01*
X009451Y007426D02*
X008800Y007426D01*
X008726Y007378D02*
X009451Y007378D01*
X009451Y007329D02*
X008679Y007329D01*
X008646Y007281D02*
X009451Y007281D01*
X009451Y007232D02*
X008624Y007232D01*
X008609Y007184D02*
X009451Y007184D01*
X009451Y007135D02*
X008603Y007135D01*
X008604Y007087D02*
X009451Y007087D01*
X009451Y007038D02*
X008610Y007038D01*
X008624Y006990D02*
X009451Y006990D01*
X009451Y006941D02*
X008648Y006941D01*
X008681Y006893D02*
X009451Y006893D01*
X009451Y006844D02*
X008729Y006844D01*
X008804Y006796D02*
X009451Y006796D01*
X009451Y006462D02*
X009451Y005762D01*
X008951Y005762D01*
X008883Y005769D01*
X008817Y005789D01*
X008757Y005821D01*
X008704Y005865D01*
X008660Y005918D01*
X008628Y005978D01*
X008608Y006044D01*
X008601Y006112D01*
X008608Y006180D01*
X008628Y006246D01*
X008660Y006306D01*
X008704Y006360D01*
X008757Y006403D01*
X008817Y006435D01*
X008883Y006455D01*
X008951Y006462D01*
X009451Y006462D01*
X009451Y006456D02*
X008890Y006456D01*
X008765Y006408D02*
X009451Y006408D01*
X009451Y006359D02*
X008703Y006359D01*
X008663Y006311D02*
X009451Y006311D01*
X009451Y006262D02*
X008636Y006262D01*
X008618Y006214D02*
X009451Y006214D01*
X009451Y006165D02*
X008606Y006165D01*
X008602Y006117D02*
X009451Y006117D01*
X009451Y006068D02*
X008605Y006068D01*
X008615Y006020D02*
X009451Y006020D01*
X009451Y005971D02*
X008632Y005971D01*
X008657Y005923D02*
X009451Y005923D01*
X009451Y005874D02*
X008696Y005874D01*
X008751Y005826D02*
X009451Y005826D01*
X009451Y005777D02*
X008855Y005777D01*
X008883Y005455D02*
X008817Y005435D01*
X008757Y005403D01*
X008704Y005360D01*
X008660Y005306D01*
X008628Y005246D01*
X008608Y005180D01*
X008601Y005112D01*
X008608Y005044D01*
X008628Y004978D01*
X008660Y004918D01*
X008704Y004865D01*
X008757Y004821D01*
X008817Y004789D01*
X008883Y004769D01*
X008951Y004762D01*
X009451Y004762D01*
X009451Y005462D01*
X008951Y005462D01*
X008883Y005455D01*
X008824Y005438D02*
X009451Y005438D01*
X009451Y005389D02*
X008740Y005389D01*
X008688Y005341D02*
X009451Y005341D01*
X009451Y005292D02*
X008652Y005292D01*
X008627Y005244D02*
X009451Y005244D01*
X009451Y005195D02*
X008612Y005195D01*
X008605Y005147D02*
X009451Y005147D01*
X009451Y005098D02*
X008603Y005098D01*
X008607Y005050D02*
X009451Y005050D01*
X009451Y005001D02*
X008621Y005001D01*
X008641Y004953D02*
X009451Y004953D01*
X009451Y004904D02*
X008671Y004904D01*
X008715Y004856D02*
X009451Y004856D01*
X009451Y004807D02*
X008783Y004807D01*
X008883Y004455D02*
X008817Y004435D01*
X008757Y004403D01*
X008704Y004360D01*
X008660Y004306D01*
X008628Y004246D01*
X008608Y004180D01*
X008601Y004112D01*
X008608Y004044D01*
X008628Y003978D01*
X008660Y003918D01*
X008704Y003865D01*
X008757Y003821D01*
X008817Y003789D01*
X008883Y003769D01*
X008951Y003762D01*
X009451Y003762D01*
X009451Y004462D01*
X008951Y004462D01*
X008883Y004455D01*
X008787Y004419D02*
X009451Y004419D01*
X009451Y004371D02*
X008717Y004371D01*
X008673Y004322D02*
X009451Y004322D01*
X009451Y004274D02*
X008643Y004274D01*
X008621Y004225D02*
X009451Y004225D01*
X009451Y004177D02*
X008607Y004177D01*
X008603Y004128D02*
X009451Y004128D01*
X009451Y004080D02*
X008604Y004080D01*
X008612Y004031D02*
X009451Y004031D01*
X009451Y003983D02*
X008626Y003983D01*
X008651Y003934D02*
X009451Y003934D01*
X009451Y003886D02*
X008686Y003886D01*
X008737Y003837D02*
X009451Y003837D01*
X009451Y003789D02*
X008818Y003789D01*
X008883Y003455D02*
X008817Y003435D01*
X008757Y003403D01*
X008704Y003360D01*
X008660Y003306D01*
X008628Y003246D01*
X008608Y003180D01*
X008601Y003112D01*
X008608Y003044D01*
X008628Y002978D01*
X008660Y002918D01*
X008704Y002865D01*
X008757Y002821D01*
X008817Y002789D01*
X008883Y002769D01*
X008951Y002762D01*
X009451Y002762D01*
X009451Y003462D01*
X008951Y003462D01*
X008883Y003455D01*
X008862Y003449D02*
X009451Y003449D01*
X009451Y003401D02*
X008754Y003401D01*
X008698Y003352D02*
X009451Y003352D01*
X009451Y003304D02*
X008659Y003304D01*
X008633Y003255D02*
X009451Y003255D01*
X009451Y003207D02*
X008616Y003207D01*
X008606Y003158D02*
X009451Y003158D01*
X009451Y003110D02*
X008601Y003110D01*
X008606Y003061D02*
X009451Y003061D01*
X009451Y003013D02*
X008617Y003013D01*
X008635Y002964D02*
X009451Y002964D01*
X009451Y002916D02*
X008662Y002916D01*
X008702Y002867D02*
X009451Y002867D01*
X009451Y002819D02*
X008761Y002819D01*
X008879Y002770D02*
X009451Y002770D01*
X009451Y009762D02*
X008951Y009762D01*
X008883Y009769D01*
X008817Y009789D01*
X008757Y009821D01*
X008704Y009865D01*
X008660Y009918D01*
X008628Y009978D01*
X008608Y010044D01*
X008601Y010112D01*
X008608Y010180D01*
X008628Y010246D01*
X008660Y010306D01*
X008704Y010360D01*
X008757Y010403D01*
X008817Y010435D01*
X008883Y010455D01*
X008951Y010462D01*
X009451Y010462D01*
X009451Y009762D01*
X009451Y009803D02*
X008791Y009803D01*
X008720Y009851D02*
X009451Y009851D01*
X009451Y009900D02*
X008675Y009900D01*
X008644Y009948D02*
X009451Y009948D01*
X009451Y009997D02*
X008622Y009997D01*
X008608Y010045D02*
X009451Y010045D01*
X009451Y010094D02*
X008603Y010094D01*
X008604Y010142D02*
X009451Y010142D01*
X009451Y010191D02*
X008611Y010191D01*
X008626Y010239D02*
X009451Y010239D01*
X009451Y010288D02*
X008650Y010288D01*
X008684Y010336D02*
X009451Y010336D01*
X009451Y010385D02*
X008734Y010385D01*
X008813Y010433D02*
X009451Y010433D01*
X009451Y010762D02*
X009451Y011462D01*
X008951Y011462D01*
X008883Y011455D01*
X008817Y011435D01*
X008757Y011403D01*
X009451Y011403D01*
X009451Y011355D02*
X008700Y011355D01*
X008704Y011360D02*
X008660Y011306D01*
X009451Y011306D01*
X009451Y011258D02*
X008634Y011258D01*
X008628Y011246D02*
X008608Y011180D01*
X008601Y011112D01*
X008608Y011044D01*
X008628Y010978D01*
X008660Y010918D01*
X009451Y010918D01*
X009451Y010870D02*
X008700Y010870D01*
X008704Y010865D02*
X008757Y010821D01*
X008817Y010789D01*
X008883Y010769D01*
X008951Y010762D01*
X009451Y010762D01*
X009451Y010773D02*
X008870Y010773D01*
X008757Y010821D02*
X009451Y010821D01*
X009451Y010967D02*
X008634Y010967D01*
X008617Y011015D02*
X009451Y011015D01*
X009451Y011064D02*
X008606Y011064D01*
X008601Y011112D02*
X009451Y011112D01*
X009451Y011161D02*
X008606Y011161D01*
X008617Y011209D02*
X009451Y011209D01*
X009451Y011452D02*
X008871Y011452D01*
X008757Y011403D02*
X008704Y011360D01*
X008660Y011306D02*
X008628Y011246D01*
X008660Y010918D02*
X008704Y010865D01*
X008883Y011769D02*
X008817Y011789D01*
X008757Y011821D01*
X008704Y011865D01*
X008660Y011918D01*
X008628Y011978D01*
X008608Y012044D01*
X008601Y012112D01*
X008608Y012180D01*
X008628Y012246D01*
X008660Y012306D01*
X008704Y012360D01*
X008757Y012403D01*
X008817Y012435D01*
X008883Y012455D01*
X008951Y012462D01*
X009451Y012462D01*
X009451Y011762D01*
X008951Y011762D01*
X008883Y011769D01*
X008813Y011791D02*
X009451Y011791D01*
X009451Y011840D02*
X008734Y011840D01*
X008684Y011888D02*
X009451Y011888D01*
X009451Y011937D02*
X008650Y011937D01*
X008626Y011985D02*
X009451Y011985D01*
X009451Y012034D02*
X008611Y012034D01*
X008604Y012082D02*
X009451Y012082D01*
X009451Y012131D02*
X008603Y012131D01*
X008608Y012179D02*
X009451Y012179D01*
X009451Y012228D02*
X008622Y012228D01*
X008644Y012276D02*
X009451Y012276D01*
X009451Y012325D02*
X008675Y012325D01*
X008720Y012373D02*
X009451Y012373D01*
X009451Y012422D02*
X008791Y012422D01*
X008883Y012769D02*
X008817Y012789D01*
X008757Y012821D01*
X008704Y012865D01*
X008660Y012918D01*
X008628Y012978D01*
X008608Y013044D01*
X008601Y013112D01*
X008608Y013180D01*
X008628Y013246D01*
X009451Y013246D01*
X009451Y013198D02*
X008613Y013198D01*
X008605Y013149D02*
X009451Y013149D01*
X009451Y013101D02*
X008602Y013101D01*
X008607Y013052D02*
X009451Y013052D01*
X009451Y013004D02*
X008620Y013004D01*
X008640Y012955D02*
X009451Y012955D01*
X009451Y012907D02*
X008669Y012907D01*
X008712Y012858D02*
X009451Y012858D01*
X009451Y012810D02*
X008778Y012810D01*
X008883Y012769D02*
X008951Y012762D01*
X009451Y012762D01*
X009451Y013462D01*
X008951Y013462D01*
X008883Y013455D01*
X008817Y013435D01*
X008757Y013403D01*
X008704Y013360D01*
X008660Y013306D01*
X008628Y013246D01*
X008654Y013295D02*
X009451Y013295D01*
X009451Y013343D02*
X008690Y013343D01*
X008743Y013392D02*
X009451Y013392D01*
X009451Y013440D02*
X008833Y013440D01*
X008883Y013769D02*
X008817Y013789D01*
X008757Y013821D01*
X008704Y013865D01*
X008660Y013918D01*
X008628Y013978D01*
X008608Y014044D01*
X008601Y014112D01*
X008608Y014180D01*
X008628Y014246D01*
X008660Y014306D01*
X008704Y014360D01*
X008757Y014403D01*
X008817Y014435D01*
X008883Y014455D01*
X008951Y014462D01*
X009451Y014462D01*
X009451Y013762D01*
X008951Y013762D01*
X008883Y013769D01*
X008847Y013780D02*
X009451Y013780D01*
X009451Y013828D02*
X008748Y013828D01*
X008694Y013877D02*
X009451Y013877D01*
X009451Y013925D02*
X008656Y013925D01*
X008630Y013974D02*
X009451Y013974D01*
X009451Y014022D02*
X008614Y014022D01*
X008605Y014071D02*
X009451Y014071D01*
X009451Y014119D02*
X008602Y014119D01*
X008607Y014168D02*
X009451Y014168D01*
X009451Y014216D02*
X008619Y014216D01*
X008638Y014265D02*
X009451Y014265D01*
X009451Y014313D02*
X008666Y014313D01*
X008706Y014362D02*
X009451Y014362D01*
X009451Y014410D02*
X008770Y014410D01*
X008916Y014459D02*
X009451Y014459D01*
D23*
X008951Y014112D03*
X008951Y013112D03*
X008951Y012112D03*
X008951Y011112D03*
X008951Y010112D03*
X008951Y009112D03*
X008951Y008112D03*
X008951Y007112D03*
X008951Y006112D03*
X008951Y005112D03*
X008951Y004112D03*
X008951Y003112D03*
X001951Y003112D03*
X001951Y004112D03*
X001951Y005112D03*
X001951Y006112D03*
X001951Y007112D03*
X001951Y008112D03*
X001951Y009112D03*
X001951Y010112D03*
X001951Y011112D03*
X001951Y012112D03*
X001951Y013112D03*
X001951Y014112D03*
D24*
X001451Y014112D03*
X001451Y013112D03*
X001451Y012112D03*
X001451Y011112D03*
X001451Y010112D03*
X001451Y009112D03*
X001451Y008112D03*
X001451Y007112D03*
X001451Y006112D03*
X001451Y005112D03*
X001451Y004112D03*
X001451Y003112D03*
X009451Y003112D03*
X009451Y004112D03*
X009451Y005112D03*
X009451Y006112D03*
X009451Y007112D03*
X009451Y008112D03*
X009451Y009112D03*
X009451Y010112D03*
X009451Y011112D03*
X009451Y012112D03*
X009451Y013112D03*
X009451Y014112D03*
D25*
X006278Y013206D02*
X006120Y013206D01*
X006120Y013009D02*
X006278Y013009D01*
X006278Y012812D02*
X006120Y012812D01*
X006120Y012615D02*
X006278Y012615D01*
X006278Y012418D02*
X006120Y012418D01*
X005845Y012143D02*
X005845Y011985D01*
X005648Y011985D02*
X005648Y012143D01*
X005451Y012143D02*
X005451Y011985D01*
X005254Y011985D02*
X005254Y012143D01*
X005057Y012143D02*
X005057Y011985D01*
X004782Y012418D02*
X004624Y012418D01*
X004624Y012615D02*
X004782Y012615D01*
X004782Y012812D02*
X004624Y012812D01*
X004624Y013009D02*
X004782Y013009D01*
X004782Y013206D02*
X004624Y013206D01*
X005057Y013481D02*
X005057Y013639D01*
X005254Y013639D02*
X005254Y013481D01*
X005451Y013481D02*
X005451Y013639D01*
X005648Y013639D02*
X005648Y013481D01*
X005845Y013481D02*
X005845Y013639D01*
D26*
X005451Y012812D03*
D27*
X004022Y012362D03*
X003681Y012362D03*
X003222Y012362D03*
X002881Y012362D03*
X002722Y011612D03*
X002381Y011612D03*
X002931Y014062D03*
X003272Y014062D03*
X003392Y007012D03*
X003051Y007012D03*
X004881Y006212D03*
X005222Y006212D03*
X005222Y004662D03*
X005172Y004312D03*
X004831Y004312D03*
X004881Y004662D03*
X006981Y002362D03*
X007322Y002362D03*
X007671Y002362D03*
X008012Y002362D03*
X007322Y002012D03*
X006981Y002012D03*
X008091Y005572D03*
X008072Y005912D03*
X008072Y006212D03*
X008072Y006512D03*
X007731Y006512D03*
X007731Y006212D03*
X007731Y005912D03*
X008432Y005572D03*
X008422Y007612D03*
X008081Y007612D03*
X008181Y009612D03*
X008522Y009612D03*
D28*
X006577Y002229D03*
X006577Y001795D03*
X006026Y001795D03*
X006026Y002229D03*
D29*
X005401Y002183D03*
X005401Y002502D03*
X005401Y002843D03*
X005401Y001842D03*
X004404Y003542D03*
X004404Y003883D03*
X004404Y004192D03*
X004404Y004533D03*
X004491Y005552D03*
X004491Y005893D03*
X004091Y005893D03*
X004091Y005552D03*
X003751Y005892D03*
X003751Y006233D03*
X002951Y007792D03*
X002951Y008133D03*
X002951Y008442D03*
X002951Y008783D03*
X003451Y008783D03*
X003451Y008442D03*
X004651Y011442D03*
X004651Y011783D03*
X005951Y011283D03*
X005951Y010942D03*
X006351Y010942D03*
X006351Y011283D03*
X006701Y011392D03*
X006701Y011733D03*
X006701Y011033D03*
X006701Y010692D03*
X008051Y010383D03*
X008051Y010042D03*
X006551Y013342D03*
X006551Y013683D03*
X007351Y014142D03*
X007351Y014483D03*
X007701Y014483D03*
X007701Y014142D03*
X008051Y014142D03*
X008051Y014483D03*
X005401Y005433D03*
X005401Y005092D03*
X008681Y002213D03*
X008681Y001872D03*
D30*
X003904Y012838D03*
X003904Y013212D03*
X003904Y013586D03*
X002998Y013586D03*
X002998Y012838D03*
D31*
X003001Y011906D02*
X003159Y011906D01*
X003159Y011906D01*
X003001Y011906D01*
X003001Y011906D01*
X003001Y011512D02*
X003159Y011512D01*
X003159Y011512D01*
X003001Y011512D01*
X003001Y011512D01*
X003001Y011118D02*
X003159Y011118D01*
X003159Y011118D01*
X003001Y011118D01*
X003001Y011118D01*
X004143Y011118D02*
X004301Y011118D01*
X004301Y011118D01*
X004143Y011118D01*
X004143Y011118D01*
X004143Y011512D02*
X004301Y011512D01*
X004301Y011512D01*
X004143Y011512D01*
X004143Y011512D01*
X004143Y011906D02*
X004301Y011906D01*
X004301Y011906D01*
X004143Y011906D01*
X004143Y011906D01*
D32*
X003651Y011512D03*
D33*
X002954Y006076D03*
D34*
X003151Y006046D03*
X003348Y006046D03*
X003348Y006578D03*
X003151Y006578D03*
X002954Y006578D03*
D35*
X007007Y012211D03*
X007204Y012211D03*
X007401Y012211D03*
X007598Y012211D03*
X007795Y012211D03*
X007795Y013313D03*
X007598Y013313D03*
X007401Y013313D03*
X007204Y013313D03*
X007007Y013313D03*
D36*
X006850Y012959D03*
X006850Y012762D03*
X006850Y012565D03*
X007952Y012565D03*
X007952Y012762D03*
X007952Y012959D03*
D37*
X007128Y010386D02*
X007128Y010202D01*
X006931Y010202D02*
X006931Y010386D01*
X006734Y010386D02*
X006734Y010202D01*
X006537Y010202D02*
X006537Y010386D01*
X006340Y010386D02*
X006340Y010202D01*
X006143Y010202D02*
X006143Y010386D01*
X005946Y010386D02*
X005946Y010202D01*
X005750Y010202D02*
X005750Y010386D01*
X005553Y010386D02*
X005553Y010202D01*
X005356Y010202D02*
X005356Y010386D01*
X005159Y010386D02*
X005159Y010202D01*
X004962Y010202D02*
X004962Y010386D01*
X004765Y010386D02*
X004765Y010202D01*
X004568Y010202D02*
X004568Y010386D01*
X004372Y010386D02*
X004372Y010202D01*
X004175Y010202D02*
X004175Y010386D01*
X003962Y009988D02*
X003778Y009988D01*
X003778Y009792D02*
X003962Y009792D01*
X003962Y009595D02*
X003778Y009595D01*
X003778Y009398D02*
X003962Y009398D01*
X003962Y009201D02*
X003778Y009201D01*
X003778Y009004D02*
X003962Y009004D01*
X003962Y008807D02*
X003778Y008807D01*
X003778Y008610D02*
X003962Y008610D01*
X003962Y008414D02*
X003778Y008414D01*
X003778Y008217D02*
X003962Y008217D01*
X003962Y008020D02*
X003778Y008020D01*
X003778Y007823D02*
X003962Y007823D01*
X003962Y007626D02*
X003778Y007626D01*
X003778Y007429D02*
X003962Y007429D01*
X003962Y007232D02*
X003778Y007232D01*
X003778Y007036D02*
X003962Y007036D01*
X004175Y006823D02*
X004175Y006639D01*
X004372Y006639D02*
X004372Y006823D01*
X004568Y006823D02*
X004568Y006639D01*
X004765Y006639D02*
X004765Y006823D01*
X004962Y006823D02*
X004962Y006639D01*
X005159Y006639D02*
X005159Y006823D01*
X005356Y006823D02*
X005356Y006639D01*
X005553Y006639D02*
X005553Y006823D01*
X005750Y006823D02*
X005750Y006639D01*
X005946Y006639D02*
X005946Y006823D01*
X006143Y006823D02*
X006143Y006639D01*
X006340Y006639D02*
X006340Y006823D01*
X006537Y006823D02*
X006537Y006639D01*
X006734Y006639D02*
X006734Y006823D01*
X006931Y006823D02*
X006931Y006639D01*
X007128Y006639D02*
X007128Y006823D01*
X007341Y007036D02*
X007525Y007036D01*
X007525Y007232D02*
X007341Y007232D01*
X007341Y007429D02*
X007525Y007429D01*
X007525Y007626D02*
X007341Y007626D01*
X007341Y007823D02*
X007525Y007823D01*
X007525Y008020D02*
X007341Y008020D01*
X007341Y008217D02*
X007525Y008217D01*
X007525Y008414D02*
X007341Y008414D01*
X007341Y008610D02*
X007525Y008610D01*
X007525Y008807D02*
X007341Y008807D01*
X007341Y009004D02*
X007525Y009004D01*
X007525Y009201D02*
X007341Y009201D01*
X007341Y009398D02*
X007525Y009398D01*
X007525Y009595D02*
X007341Y009595D01*
X007341Y009792D02*
X007525Y009792D01*
X007525Y009988D02*
X007341Y009988D01*
D38*
X005651Y008512D03*
D39*
X007346Y010848D03*
X007346Y011576D03*
X007956Y011576D03*
X007956Y010848D03*
D40*
X007696Y001832D03*
X008286Y001832D03*
M02*
