G04 #@! TF.FileFunction,Legend,Top*
%FSLAX46Y46*%
G04 Gerber Fmt 4.6, Leading zero omitted, Abs format (unit mm)*
G04 Created by KiCad (PCBNEW 4.0.4-stable) date 10/06/16 01:12:16*
%MOMM*%
%LPD*%
G01*
G04 APERTURE LIST*
%ADD10C,0.100000*%
%ADD11C,0.190500*%
%ADD12C,0.200000*%
%ADD13C,0.150000*%
%ADD14C,0.127000*%
%ADD15C,0.210000*%
%ADD16C,0.205000*%
%ADD17C,0.121920*%
G04 APERTURE END LIST*
D10*
D11*
X151358600Y-89564028D02*
X151394886Y-89491457D01*
X151394886Y-89382600D01*
X151358600Y-89273743D01*
X151286029Y-89201171D01*
X151213457Y-89164886D01*
X151068314Y-89128600D01*
X150959457Y-89128600D01*
X150814314Y-89164886D01*
X150741743Y-89201171D01*
X150669171Y-89273743D01*
X150632886Y-89382600D01*
X150632886Y-89455171D01*
X150669171Y-89564028D01*
X150705457Y-89600314D01*
X150959457Y-89600314D01*
X150959457Y-89455171D01*
X150632886Y-89926886D02*
X151394886Y-89926886D01*
X150632886Y-90362314D01*
X151394886Y-90362314D01*
X150632886Y-90725172D02*
X151394886Y-90725172D01*
X151394886Y-90906600D01*
X151358600Y-91015457D01*
X151286029Y-91088029D01*
X151213457Y-91124314D01*
X151068314Y-91160600D01*
X150959457Y-91160600D01*
X150814314Y-91124314D01*
X150741743Y-91088029D01*
X150669171Y-91015457D01*
X150632886Y-90906600D01*
X150632886Y-90725172D01*
X150694571Y-86628515D02*
X150658286Y-86737372D01*
X150658286Y-86918801D01*
X150694571Y-86991372D01*
X150730857Y-87027658D01*
X150803429Y-87063943D01*
X150876000Y-87063943D01*
X150948571Y-87027658D01*
X150984857Y-86991372D01*
X151021143Y-86918801D01*
X151057429Y-86773658D01*
X151093714Y-86701086D01*
X151130000Y-86664801D01*
X151202571Y-86628515D01*
X151275143Y-86628515D01*
X151347714Y-86664801D01*
X151384000Y-86701086D01*
X151420286Y-86773658D01*
X151420286Y-86955086D01*
X151384000Y-87063943D01*
X150658286Y-87390515D02*
X151420286Y-87390515D01*
X151420286Y-87571943D01*
X151384000Y-87680800D01*
X151311429Y-87753372D01*
X151238857Y-87789657D01*
X151093714Y-87825943D01*
X150984857Y-87825943D01*
X150839714Y-87789657D01*
X150767143Y-87753372D01*
X150694571Y-87680800D01*
X150658286Y-87571943D01*
X150658286Y-87390515D01*
X150876000Y-88116229D02*
X150876000Y-88479086D01*
X150658286Y-88043657D02*
X151420286Y-88297657D01*
X150658286Y-88551657D01*
X150719971Y-83801858D02*
X150683686Y-83910715D01*
X150683686Y-84092144D01*
X150719971Y-84164715D01*
X150756257Y-84201001D01*
X150828829Y-84237286D01*
X150901400Y-84237286D01*
X150973971Y-84201001D01*
X151010257Y-84164715D01*
X151046543Y-84092144D01*
X151082829Y-83947001D01*
X151119114Y-83874429D01*
X151155400Y-83838144D01*
X151227971Y-83801858D01*
X151300543Y-83801858D01*
X151373114Y-83838144D01*
X151409400Y-83874429D01*
X151445686Y-83947001D01*
X151445686Y-84128429D01*
X151409400Y-84237286D01*
X150756257Y-84999286D02*
X150719971Y-84963000D01*
X150683686Y-84854143D01*
X150683686Y-84781572D01*
X150719971Y-84672715D01*
X150792543Y-84600143D01*
X150865114Y-84563858D01*
X151010257Y-84527572D01*
X151119114Y-84527572D01*
X151264257Y-84563858D01*
X151336829Y-84600143D01*
X151409400Y-84672715D01*
X151445686Y-84781572D01*
X151445686Y-84854143D01*
X151409400Y-84963000D01*
X151373114Y-84999286D01*
X150683686Y-85688715D02*
X150683686Y-85325858D01*
X151445686Y-85325858D01*
X150567573Y-94756514D02*
X150567573Y-93994514D01*
X150894144Y-94720229D02*
X151003001Y-94756514D01*
X151184430Y-94756514D01*
X151257001Y-94720229D01*
X151293287Y-94683943D01*
X151329572Y-94611371D01*
X151329572Y-94538800D01*
X151293287Y-94466229D01*
X151257001Y-94429943D01*
X151184430Y-94393657D01*
X151039287Y-94357371D01*
X150966715Y-94321086D01*
X150930430Y-94284800D01*
X150894144Y-94212229D01*
X150894144Y-94139657D01*
X150930430Y-94067086D01*
X150966715Y-94030800D01*
X151039287Y-93994514D01*
X151220715Y-93994514D01*
X151329572Y-94030800D01*
X152019001Y-94756514D02*
X151656144Y-94756514D01*
X151656144Y-93994514D01*
X152091572Y-94829086D02*
X152672143Y-94829086D01*
X152853572Y-94756514D02*
X152853572Y-93994514D01*
X153216429Y-94756514D02*
X153216429Y-93994514D01*
X153651857Y-94756514D01*
X153651857Y-93994514D01*
X153905857Y-93994514D02*
X154341286Y-93994514D01*
X154123572Y-94756514D02*
X154123572Y-93994514D01*
X150458715Y-96610714D02*
X150894144Y-96610714D01*
X150676430Y-97372714D02*
X150676430Y-96610714D01*
X151111858Y-97336429D02*
X151220715Y-97372714D01*
X151402144Y-97372714D01*
X151474715Y-97336429D01*
X151511001Y-97300143D01*
X151547286Y-97227571D01*
X151547286Y-97155000D01*
X151511001Y-97082429D01*
X151474715Y-97046143D01*
X151402144Y-97009857D01*
X151257001Y-96973571D01*
X151184429Y-96937286D01*
X151148144Y-96901000D01*
X151111858Y-96828429D01*
X151111858Y-96755857D01*
X151148144Y-96683286D01*
X151184429Y-96647000D01*
X151257001Y-96610714D01*
X151438429Y-96610714D01*
X151547286Y-96647000D01*
X152236715Y-97372714D02*
X151873858Y-97372714D01*
X151873858Y-96610714D01*
X152309286Y-97445286D02*
X152889857Y-97445286D01*
X153071286Y-97372714D02*
X153071286Y-96610714D01*
X153434143Y-97372714D02*
X153434143Y-96610714D01*
X153869571Y-97372714D01*
X153869571Y-96610714D01*
X154123571Y-96610714D02*
X154559000Y-96610714D01*
X154341286Y-97372714D02*
X154341286Y-96610714D01*
X150930430Y-99861914D02*
X150567573Y-99861914D01*
X150567573Y-99099914D01*
X151184430Y-99861914D02*
X151184430Y-99099914D01*
X151474715Y-99099914D01*
X151547287Y-99136200D01*
X151583572Y-99172486D01*
X151619858Y-99245057D01*
X151619858Y-99353914D01*
X151583572Y-99426486D01*
X151547287Y-99462771D01*
X151474715Y-99499057D01*
X151184430Y-99499057D01*
X151910144Y-99825629D02*
X152019001Y-99861914D01*
X152200430Y-99861914D01*
X152273001Y-99825629D01*
X152309287Y-99789343D01*
X152345572Y-99716771D01*
X152345572Y-99644200D01*
X152309287Y-99571629D01*
X152273001Y-99535343D01*
X152200430Y-99499057D01*
X152055287Y-99462771D01*
X151982715Y-99426486D01*
X151946430Y-99390200D01*
X151910144Y-99317629D01*
X151910144Y-99245057D01*
X151946430Y-99172486D01*
X151982715Y-99136200D01*
X152055287Y-99099914D01*
X152236715Y-99099914D01*
X152345572Y-99136200D01*
X152490715Y-99934486D02*
X153071286Y-99934486D01*
X153252715Y-99861914D02*
X153252715Y-99099914D01*
X153615572Y-99861914D02*
X153615572Y-99099914D01*
X154051000Y-99861914D01*
X154051000Y-99099914D01*
X154305000Y-99099914D02*
X154740429Y-99099914D01*
X154522715Y-99861914D02*
X154522715Y-99099914D01*
X154958143Y-99172486D02*
X154994429Y-99136200D01*
X155067000Y-99099914D01*
X155248429Y-99099914D01*
X155321000Y-99136200D01*
X155357286Y-99172486D01*
X155393571Y-99245057D01*
X155393571Y-99317629D01*
X155357286Y-99426486D01*
X154921857Y-99861914D01*
X155393571Y-99861914D01*
X150930430Y-102401914D02*
X150567573Y-102401914D01*
X150567573Y-101639914D01*
X151184430Y-102401914D02*
X151184430Y-101639914D01*
X151474715Y-101639914D01*
X151547287Y-101676200D01*
X151583572Y-101712486D01*
X151619858Y-101785057D01*
X151619858Y-101893914D01*
X151583572Y-101966486D01*
X151547287Y-102002771D01*
X151474715Y-102039057D01*
X151184430Y-102039057D01*
X151910144Y-102365629D02*
X152019001Y-102401914D01*
X152200430Y-102401914D01*
X152273001Y-102365629D01*
X152309287Y-102329343D01*
X152345572Y-102256771D01*
X152345572Y-102184200D01*
X152309287Y-102111629D01*
X152273001Y-102075343D01*
X152200430Y-102039057D01*
X152055287Y-102002771D01*
X151982715Y-101966486D01*
X151946430Y-101930200D01*
X151910144Y-101857629D01*
X151910144Y-101785057D01*
X151946430Y-101712486D01*
X151982715Y-101676200D01*
X152055287Y-101639914D01*
X152236715Y-101639914D01*
X152345572Y-101676200D01*
X152490715Y-102474486D02*
X153071286Y-102474486D01*
X153252715Y-102401914D02*
X153252715Y-101639914D01*
X153615572Y-102401914D02*
X153615572Y-101639914D01*
X154051000Y-102401914D01*
X154051000Y-101639914D01*
X154305000Y-101639914D02*
X154740429Y-101639914D01*
X154522715Y-102401914D02*
X154522715Y-101639914D01*
X155393571Y-102401914D02*
X154958143Y-102401914D01*
X155175857Y-102401914D02*
X155175857Y-101639914D01*
X155103286Y-101748771D01*
X155030714Y-101821343D01*
X154958143Y-101857629D01*
X150567573Y-104256114D02*
X150567573Y-104872971D01*
X150603858Y-104945543D01*
X150640144Y-104981829D01*
X150712715Y-105018114D01*
X150857858Y-105018114D01*
X150930430Y-104981829D01*
X150966715Y-104945543D01*
X151003001Y-104872971D01*
X151003001Y-104256114D01*
X151329573Y-104981829D02*
X151438430Y-105018114D01*
X151619859Y-105018114D01*
X151692430Y-104981829D01*
X151728716Y-104945543D01*
X151765001Y-104872971D01*
X151765001Y-104800400D01*
X151728716Y-104727829D01*
X151692430Y-104691543D01*
X151619859Y-104655257D01*
X151474716Y-104618971D01*
X151402144Y-104582686D01*
X151365859Y-104546400D01*
X151329573Y-104473829D01*
X151329573Y-104401257D01*
X151365859Y-104328686D01*
X151402144Y-104292400D01*
X151474716Y-104256114D01*
X151656144Y-104256114D01*
X151765001Y-104292400D01*
X152055287Y-104800400D02*
X152418144Y-104800400D01*
X151982715Y-105018114D02*
X152236715Y-104256114D01*
X152490715Y-105018114D01*
X153180144Y-105018114D02*
X152926144Y-104655257D01*
X152744716Y-105018114D02*
X152744716Y-104256114D01*
X153035001Y-104256114D01*
X153107573Y-104292400D01*
X153143858Y-104328686D01*
X153180144Y-104401257D01*
X153180144Y-104510114D01*
X153143858Y-104582686D01*
X153107573Y-104618971D01*
X153035001Y-104655257D01*
X152744716Y-104655257D01*
X153397858Y-104256114D02*
X153833287Y-104256114D01*
X153615573Y-105018114D02*
X153615573Y-104256114D01*
X153905858Y-105090686D02*
X154486429Y-105090686D01*
X154559000Y-104256114D02*
X154994429Y-104256114D01*
X154776715Y-105018114D02*
X154776715Y-104256114D01*
X155175857Y-104256114D02*
X155683857Y-105018114D01*
X155683857Y-104256114D02*
X155175857Y-105018114D01*
X150567573Y-106694514D02*
X150567573Y-107311371D01*
X150603858Y-107383943D01*
X150640144Y-107420229D01*
X150712715Y-107456514D01*
X150857858Y-107456514D01*
X150930430Y-107420229D01*
X150966715Y-107383943D01*
X151003001Y-107311371D01*
X151003001Y-106694514D01*
X151329573Y-107420229D02*
X151438430Y-107456514D01*
X151619859Y-107456514D01*
X151692430Y-107420229D01*
X151728716Y-107383943D01*
X151765001Y-107311371D01*
X151765001Y-107238800D01*
X151728716Y-107166229D01*
X151692430Y-107129943D01*
X151619859Y-107093657D01*
X151474716Y-107057371D01*
X151402144Y-107021086D01*
X151365859Y-106984800D01*
X151329573Y-106912229D01*
X151329573Y-106839657D01*
X151365859Y-106767086D01*
X151402144Y-106730800D01*
X151474716Y-106694514D01*
X151656144Y-106694514D01*
X151765001Y-106730800D01*
X152055287Y-107238800D02*
X152418144Y-107238800D01*
X151982715Y-107456514D02*
X152236715Y-106694514D01*
X152490715Y-107456514D01*
X153180144Y-107456514D02*
X152926144Y-107093657D01*
X152744716Y-107456514D02*
X152744716Y-106694514D01*
X153035001Y-106694514D01*
X153107573Y-106730800D01*
X153143858Y-106767086D01*
X153180144Y-106839657D01*
X153180144Y-106948514D01*
X153143858Y-107021086D01*
X153107573Y-107057371D01*
X153035001Y-107093657D01*
X152744716Y-107093657D01*
X153397858Y-106694514D02*
X153833287Y-106694514D01*
X153615573Y-107456514D02*
X153615573Y-106694514D01*
X153905858Y-107529086D02*
X154486429Y-107529086D01*
X155103286Y-107456514D02*
X154849286Y-107093657D01*
X154667858Y-107456514D02*
X154667858Y-106694514D01*
X154958143Y-106694514D01*
X155030715Y-106730800D01*
X155067000Y-106767086D01*
X155103286Y-106839657D01*
X155103286Y-106948514D01*
X155067000Y-107021086D01*
X155030715Y-107057371D01*
X154958143Y-107093657D01*
X154667858Y-107093657D01*
X155357286Y-106694514D02*
X155865286Y-107456514D01*
X155865286Y-106694514D02*
X155357286Y-107456514D01*
D12*
X131714381Y-87477600D02*
G75*
G03X131714381Y-87477600I-91581J0D01*
G01*
X124615527Y-88392000D02*
G75*
G03X124615527Y-88392000I-104727J0D01*
G01*
D11*
X116048971Y-60822114D02*
X116048971Y-60060114D01*
X116302971Y-60604400D01*
X116556971Y-60060114D01*
X116556971Y-60822114D01*
X117028685Y-60822114D02*
X116956113Y-60785829D01*
X116919828Y-60749543D01*
X116883542Y-60676971D01*
X116883542Y-60459257D01*
X116919828Y-60386686D01*
X116956113Y-60350400D01*
X117028685Y-60314114D01*
X117137542Y-60314114D01*
X117210113Y-60350400D01*
X117246399Y-60386686D01*
X117282685Y-60459257D01*
X117282685Y-60676971D01*
X117246399Y-60749543D01*
X117210113Y-60785829D01*
X117137542Y-60822114D01*
X117028685Y-60822114D01*
X117935828Y-60822114D02*
X117935828Y-60060114D01*
X117935828Y-60785829D02*
X117863257Y-60822114D01*
X117718114Y-60822114D01*
X117645542Y-60785829D01*
X117609257Y-60749543D01*
X117572971Y-60676971D01*
X117572971Y-60459257D01*
X117609257Y-60386686D01*
X117645542Y-60350400D01*
X117718114Y-60314114D01*
X117863257Y-60314114D01*
X117935828Y-60350400D01*
X118625257Y-60314114D02*
X118625257Y-60822114D01*
X118298686Y-60314114D02*
X118298686Y-60713257D01*
X118334971Y-60785829D01*
X118407543Y-60822114D01*
X118516400Y-60822114D01*
X118588971Y-60785829D01*
X118625257Y-60749543D01*
X119096972Y-60822114D02*
X119024400Y-60785829D01*
X118988115Y-60713257D01*
X118988115Y-60060114D01*
X119677543Y-60785829D02*
X119604972Y-60822114D01*
X119459829Y-60822114D01*
X119387258Y-60785829D01*
X119350972Y-60713257D01*
X119350972Y-60422971D01*
X119387258Y-60350400D01*
X119459829Y-60314114D01*
X119604972Y-60314114D01*
X119677543Y-60350400D01*
X119713829Y-60422971D01*
X119713829Y-60495543D01*
X119350972Y-60568114D01*
X120983829Y-60822114D02*
X120620972Y-60822114D01*
X120620972Y-60060114D01*
X121346686Y-60822114D02*
X121274114Y-60785829D01*
X121237829Y-60749543D01*
X121201543Y-60676971D01*
X121201543Y-60459257D01*
X121237829Y-60386686D01*
X121274114Y-60350400D01*
X121346686Y-60314114D01*
X121455543Y-60314114D01*
X121528114Y-60350400D01*
X121564400Y-60386686D01*
X121600686Y-60459257D01*
X121600686Y-60676971D01*
X121564400Y-60749543D01*
X121528114Y-60785829D01*
X121455543Y-60822114D01*
X121346686Y-60822114D01*
X122253829Y-60785829D02*
X122181258Y-60822114D01*
X122036115Y-60822114D01*
X121963543Y-60785829D01*
X121927258Y-60749543D01*
X121890972Y-60676971D01*
X121890972Y-60459257D01*
X121927258Y-60386686D01*
X121963543Y-60350400D01*
X122036115Y-60314114D01*
X122181258Y-60314114D01*
X122253829Y-60350400D01*
X122906972Y-60822114D02*
X122906972Y-60422971D01*
X122870686Y-60350400D01*
X122798115Y-60314114D01*
X122652972Y-60314114D01*
X122580401Y-60350400D01*
X122906972Y-60785829D02*
X122834401Y-60822114D01*
X122652972Y-60822114D01*
X122580401Y-60785829D01*
X122544115Y-60713257D01*
X122544115Y-60640686D01*
X122580401Y-60568114D01*
X122652972Y-60531829D01*
X122834401Y-60531829D01*
X122906972Y-60495543D01*
X123160972Y-60314114D02*
X123451258Y-60314114D01*
X123269830Y-60060114D02*
X123269830Y-60713257D01*
X123306115Y-60785829D01*
X123378687Y-60822114D01*
X123451258Y-60822114D01*
X123705259Y-60822114D02*
X123705259Y-60314114D01*
X123705259Y-60060114D02*
X123668973Y-60096400D01*
X123705259Y-60132686D01*
X123741544Y-60096400D01*
X123705259Y-60060114D01*
X123705259Y-60132686D01*
X124176973Y-60822114D02*
X124104401Y-60785829D01*
X124068116Y-60749543D01*
X124031830Y-60676971D01*
X124031830Y-60459257D01*
X124068116Y-60386686D01*
X124104401Y-60350400D01*
X124176973Y-60314114D01*
X124285830Y-60314114D01*
X124358401Y-60350400D01*
X124394687Y-60386686D01*
X124430973Y-60459257D01*
X124430973Y-60676971D01*
X124394687Y-60749543D01*
X124358401Y-60785829D01*
X124285830Y-60822114D01*
X124176973Y-60822114D01*
X124757545Y-60314114D02*
X124757545Y-60822114D01*
X124757545Y-60386686D02*
X124793830Y-60350400D01*
X124866402Y-60314114D01*
X124975259Y-60314114D01*
X125047830Y-60350400D01*
X125084116Y-60422971D01*
X125084116Y-60822114D01*
X125446974Y-60749543D02*
X125483259Y-60785829D01*
X125446974Y-60822114D01*
X125410688Y-60785829D01*
X125446974Y-60749543D01*
X125446974Y-60822114D01*
X125446974Y-60350400D02*
X125483259Y-60386686D01*
X125446974Y-60422971D01*
X125410688Y-60386686D01*
X125446974Y-60350400D01*
X125446974Y-60422971D01*
X126753259Y-60060114D02*
X126390402Y-60060114D01*
X126354116Y-60422971D01*
X126390402Y-60386686D01*
X126462973Y-60350400D01*
X126644402Y-60350400D01*
X126716973Y-60386686D01*
X126753259Y-60422971D01*
X126789544Y-60495543D01*
X126789544Y-60676971D01*
X126753259Y-60749543D01*
X126716973Y-60785829D01*
X126644402Y-60822114D01*
X126462973Y-60822114D01*
X126390402Y-60785829D01*
X126354116Y-60749543D01*
X127152401Y-60785829D02*
X127152401Y-60822114D01*
X127116116Y-60894686D01*
X127079830Y-60930971D01*
X127805544Y-60314114D02*
X127805544Y-60822114D01*
X127624115Y-60023829D02*
X127442687Y-60568114D01*
X127914401Y-60568114D01*
D13*
X135470000Y-81830800D02*
X135470000Y-80830800D01*
X133770000Y-80830800D02*
X133770000Y-81830800D01*
X148150200Y-80353800D02*
X147150200Y-80353800D01*
X147150200Y-82053800D02*
X148150200Y-82053800D01*
X118854200Y-87176800D02*
X118854200Y-87676800D01*
X119804200Y-87676800D02*
X119804200Y-87176800D01*
X129840800Y-95054400D02*
X129340800Y-95054400D01*
X129340800Y-96004400D02*
X129840800Y-96004400D01*
X116386800Y-88435200D02*
X116886800Y-88435200D01*
X116886800Y-87485200D02*
X116386800Y-87485200D01*
X118635800Y-100376800D02*
X118635800Y-99876800D01*
X117685800Y-99876800D02*
X117685800Y-100376800D01*
X124151200Y-99956600D02*
X123651200Y-99956600D01*
X123651200Y-100906600D02*
X124151200Y-100906600D01*
X112986800Y-90631200D02*
X112986800Y-91131200D01*
X113936800Y-91131200D02*
X113936800Y-90631200D01*
X112997000Y-99818000D02*
X112997000Y-99318000D01*
X112047000Y-99318000D02*
X112047000Y-99818000D01*
X115410000Y-99767200D02*
X115410000Y-99267200D01*
X114460000Y-99267200D02*
X114460000Y-99767200D01*
X131568000Y-89745800D02*
X131068000Y-89745800D01*
X131068000Y-90695800D02*
X131568000Y-90695800D01*
X143223000Y-89581800D02*
X143223000Y-89081800D01*
X142273000Y-89081800D02*
X142273000Y-89581800D01*
X140812000Y-91608200D02*
X140112000Y-91608200D01*
X140112000Y-90408200D02*
X140812000Y-90408200D01*
X136339600Y-90521600D02*
X136339600Y-90021600D01*
X135389600Y-90021600D02*
X135389600Y-90521600D01*
X128099800Y-82198400D02*
X128099800Y-82698400D01*
X129049800Y-82698400D02*
X129049800Y-82198400D01*
D14*
X115235000Y-97359600D02*
X112235000Y-97359600D01*
X112235000Y-97359600D02*
X112235000Y-94359600D01*
X112235000Y-94359600D02*
X115235000Y-94359600D01*
X115235000Y-94359600D02*
X115235000Y-97359600D01*
D13*
X113356200Y-92515200D02*
X112856200Y-92515200D01*
X112856200Y-93565200D02*
X113356200Y-93565200D01*
D14*
X137502200Y-81532400D02*
X137502200Y-79532400D01*
X137502200Y-79532400D02*
X139502200Y-79532400D01*
X139502200Y-79532400D02*
X139502200Y-81532400D01*
X139502200Y-81532400D02*
X137502200Y-81532400D01*
D13*
X126706600Y-91189600D02*
X126706600Y-91714600D01*
X119456600Y-98439600D02*
X119456600Y-97914600D01*
X126706600Y-98439600D02*
X126706600Y-97914600D01*
X119456600Y-91189600D02*
X119981600Y-91189600D01*
X119456600Y-98439600D02*
X119981600Y-98439600D01*
X126706600Y-98439600D02*
X126181600Y-98439600D01*
X126706600Y-91189600D02*
X126181600Y-91189600D01*
D14*
X117505800Y-91627200D02*
X115005800Y-91627200D01*
X115005800Y-91627200D02*
X115005800Y-89627200D01*
X115005800Y-89627200D02*
X117505800Y-89627200D01*
X117505800Y-89627200D02*
X117505800Y-91627200D01*
X116665800Y-89057200D02*
X117965800Y-89057200D01*
X117965800Y-89057200D02*
X117965800Y-90357200D01*
D15*
X142153841Y-85098665D02*
G75*
G03X142153841Y-85098665I-223606J0D01*
G01*
X138280235Y-85398665D02*
X138280235Y-88648665D01*
X138280235Y-88648665D02*
X141580235Y-88648665D01*
X141580235Y-88648665D02*
X141580235Y-85348665D01*
X141580235Y-85348665D02*
X138280235Y-85348665D01*
D16*
X135710635Y-88243265D02*
G75*
G03X135710635Y-88243265I-200000J0D01*
G01*
D13*
X150190200Y-83489800D02*
X143840200Y-83489800D01*
X150190200Y-91109800D02*
X143840200Y-91109800D01*
X148285200Y-91109800D02*
X148285200Y-83489800D01*
X150190200Y-83489800D02*
X150190200Y-91109800D01*
X143840200Y-91109800D02*
X143840200Y-83489800D01*
X143840200Y-100711000D02*
X143840200Y-108331000D01*
X148285200Y-100711000D02*
X148285200Y-108331000D01*
X150190200Y-100711000D02*
X150190200Y-108331000D01*
X150190200Y-93091000D02*
X143840200Y-93091000D01*
X150190200Y-108331000D02*
X143840200Y-108331000D01*
X148285200Y-100711000D02*
X148285200Y-93091000D01*
X150190200Y-93091000D02*
X150190200Y-100711000D01*
X143840200Y-100711000D02*
X143840200Y-93091000D01*
X116113000Y-105148200D02*
X116113000Y-106948200D01*
X117313000Y-105148200D02*
X117313000Y-106948200D01*
X118703800Y-105122800D02*
X118703800Y-106922800D01*
X119903800Y-105122800D02*
X119903800Y-106922800D01*
X121345400Y-105122800D02*
X121345400Y-106922800D01*
X122545400Y-105122800D02*
X122545400Y-106922800D01*
X117238000Y-110282800D02*
X117238000Y-109782800D01*
X116188000Y-109782800D02*
X116188000Y-110282800D01*
X119828800Y-110282800D02*
X119828800Y-109782800D01*
X118778800Y-109782800D02*
X118778800Y-110282800D01*
X122470400Y-110282800D02*
X122470400Y-109782800D01*
X121420400Y-109782800D02*
X121420400Y-110282800D01*
X152607200Y-88536000D02*
X153107200Y-88536000D01*
X153107200Y-87486000D02*
X152607200Y-87486000D01*
X152632600Y-90872800D02*
X153132600Y-90872800D01*
X153132600Y-89822800D02*
X152632600Y-89822800D01*
D14*
X99339400Y-98196400D02*
X99339400Y-93116400D01*
X101053900Y-91401900D02*
X105244900Y-91401900D01*
X106959400Y-93116400D02*
X106959400Y-98196400D01*
X105244900Y-99910900D02*
X101053900Y-99910900D01*
X101053901Y-99910901D02*
G75*
G02X99339400Y-98196400I0J1714501D01*
G01*
X99339401Y-93116401D02*
G75*
G02X101053900Y-91401900I1714500J1D01*
G01*
X106959399Y-98196399D02*
G75*
G02X105244900Y-99910900I-1714500J-1D01*
G01*
X105244899Y-91401899D02*
G75*
G02X106959400Y-93116400I0J-1714501D01*
G01*
X104419400Y-96926400D02*
G75*
G03X104419400Y-96926400I-635000J0D01*
G01*
D13*
X124933000Y-103409000D02*
X124933000Y-104109000D01*
X123733000Y-104109000D02*
X123733000Y-103409000D01*
X132860143Y-81508600D02*
X132896429Y-81544886D01*
X132932714Y-81653743D01*
X132932714Y-81726314D01*
X132896429Y-81835171D01*
X132823857Y-81907743D01*
X132751286Y-81944028D01*
X132606143Y-81980314D01*
X132497286Y-81980314D01*
X132352143Y-81944028D01*
X132279571Y-81907743D01*
X132207000Y-81835171D01*
X132170714Y-81726314D01*
X132170714Y-81653743D01*
X132207000Y-81544886D01*
X132243286Y-81508600D01*
X132932714Y-80782886D02*
X132932714Y-81218314D01*
X132932714Y-81000600D02*
X132170714Y-81000600D01*
X132279571Y-81073171D01*
X132352143Y-81145743D01*
X132388429Y-81218314D01*
X147396200Y-79393143D02*
X147359914Y-79429429D01*
X147251057Y-79465714D01*
X147178486Y-79465714D01*
X147069629Y-79429429D01*
X146997057Y-79356857D01*
X146960772Y-79284286D01*
X146924486Y-79139143D01*
X146924486Y-79030286D01*
X146960772Y-78885143D01*
X146997057Y-78812571D01*
X147069629Y-78740000D01*
X147178486Y-78703714D01*
X147251057Y-78703714D01*
X147359914Y-78740000D01*
X147396200Y-78776286D01*
X147686486Y-78776286D02*
X147722772Y-78740000D01*
X147795343Y-78703714D01*
X147976772Y-78703714D01*
X148049343Y-78740000D01*
X148085629Y-78776286D01*
X148121914Y-78848857D01*
X148121914Y-78921429D01*
X148085629Y-79030286D01*
X147650200Y-79465714D01*
X148121914Y-79465714D01*
X119126000Y-86022543D02*
X119089714Y-86058829D01*
X118980857Y-86095114D01*
X118908286Y-86095114D01*
X118799429Y-86058829D01*
X118726857Y-85986257D01*
X118690572Y-85913686D01*
X118654286Y-85768543D01*
X118654286Y-85659686D01*
X118690572Y-85514543D01*
X118726857Y-85441971D01*
X118799429Y-85369400D01*
X118908286Y-85333114D01*
X118980857Y-85333114D01*
X119089714Y-85369400D01*
X119126000Y-85405686D01*
X119380000Y-85333114D02*
X119851714Y-85333114D01*
X119597714Y-85623400D01*
X119706572Y-85623400D01*
X119779143Y-85659686D01*
X119815429Y-85695971D01*
X119851714Y-85768543D01*
X119851714Y-85949971D01*
X119815429Y-86022543D01*
X119779143Y-86058829D01*
X119706572Y-86095114D01*
X119488857Y-86095114D01*
X119416286Y-86058829D01*
X119380000Y-86022543D01*
X129463800Y-94760143D02*
X129427514Y-94796429D01*
X129318657Y-94832714D01*
X129246086Y-94832714D01*
X129137229Y-94796429D01*
X129064657Y-94723857D01*
X129028372Y-94651286D01*
X128992086Y-94506143D01*
X128992086Y-94397286D01*
X129028372Y-94252143D01*
X129064657Y-94179571D01*
X129137229Y-94107000D01*
X129246086Y-94070714D01*
X129318657Y-94070714D01*
X129427514Y-94107000D01*
X129463800Y-94143286D01*
X130116943Y-94324714D02*
X130116943Y-94832714D01*
X129935514Y-94034429D02*
X129754086Y-94578714D01*
X130225800Y-94578714D01*
X116484400Y-87038543D02*
X116448114Y-87074829D01*
X116339257Y-87111114D01*
X116266686Y-87111114D01*
X116157829Y-87074829D01*
X116085257Y-87002257D01*
X116048972Y-86929686D01*
X116012686Y-86784543D01*
X116012686Y-86675686D01*
X116048972Y-86530543D01*
X116085257Y-86457971D01*
X116157829Y-86385400D01*
X116266686Y-86349114D01*
X116339257Y-86349114D01*
X116448114Y-86385400D01*
X116484400Y-86421686D01*
X117173829Y-86349114D02*
X116810972Y-86349114D01*
X116774686Y-86711971D01*
X116810972Y-86675686D01*
X116883543Y-86639400D01*
X117064972Y-86639400D01*
X117137543Y-86675686D01*
X117173829Y-86711971D01*
X117210114Y-86784543D01*
X117210114Y-86965971D01*
X117173829Y-87038543D01*
X117137543Y-87074829D01*
X117064972Y-87111114D01*
X116883543Y-87111114D01*
X116810972Y-87074829D01*
X116774686Y-87038543D01*
X118033800Y-102126143D02*
X117997514Y-102162429D01*
X117888657Y-102198714D01*
X117816086Y-102198714D01*
X117707229Y-102162429D01*
X117634657Y-102089857D01*
X117598372Y-102017286D01*
X117562086Y-101872143D01*
X117562086Y-101763286D01*
X117598372Y-101618143D01*
X117634657Y-101545571D01*
X117707229Y-101473000D01*
X117816086Y-101436714D01*
X117888657Y-101436714D01*
X117997514Y-101473000D01*
X118033800Y-101509286D01*
X118686943Y-101436714D02*
X118541800Y-101436714D01*
X118469229Y-101473000D01*
X118432943Y-101509286D01*
X118360372Y-101618143D01*
X118324086Y-101763286D01*
X118324086Y-102053571D01*
X118360372Y-102126143D01*
X118396657Y-102162429D01*
X118469229Y-102198714D01*
X118614372Y-102198714D01*
X118686943Y-102162429D01*
X118723229Y-102126143D01*
X118759514Y-102053571D01*
X118759514Y-101872143D01*
X118723229Y-101799571D01*
X118686943Y-101763286D01*
X118614372Y-101727000D01*
X118469229Y-101727000D01*
X118396657Y-101763286D01*
X118360372Y-101799571D01*
X118324086Y-101872143D01*
X123825000Y-99636943D02*
X123788714Y-99673229D01*
X123679857Y-99709514D01*
X123607286Y-99709514D01*
X123498429Y-99673229D01*
X123425857Y-99600657D01*
X123389572Y-99528086D01*
X123353286Y-99382943D01*
X123353286Y-99274086D01*
X123389572Y-99128943D01*
X123425857Y-99056371D01*
X123498429Y-98983800D01*
X123607286Y-98947514D01*
X123679857Y-98947514D01*
X123788714Y-98983800D01*
X123825000Y-99020086D01*
X124079000Y-98947514D02*
X124587000Y-98947514D01*
X124260429Y-99709514D01*
X112590943Y-91008200D02*
X112627229Y-91044486D01*
X112663514Y-91153343D01*
X112663514Y-91225914D01*
X112627229Y-91334771D01*
X112554657Y-91407343D01*
X112482086Y-91443628D01*
X112336943Y-91479914D01*
X112228086Y-91479914D01*
X112082943Y-91443628D01*
X112010371Y-91407343D01*
X111937800Y-91334771D01*
X111901514Y-91225914D01*
X111901514Y-91153343D01*
X111937800Y-91044486D01*
X111974086Y-91008200D01*
X112228086Y-90572771D02*
X112191800Y-90645343D01*
X112155514Y-90681628D01*
X112082943Y-90717914D01*
X112046657Y-90717914D01*
X111974086Y-90681628D01*
X111937800Y-90645343D01*
X111901514Y-90572771D01*
X111901514Y-90427628D01*
X111937800Y-90355057D01*
X111974086Y-90318771D01*
X112046657Y-90282486D01*
X112082943Y-90282486D01*
X112155514Y-90318771D01*
X112191800Y-90355057D01*
X112228086Y-90427628D01*
X112228086Y-90572771D01*
X112264371Y-90645343D01*
X112300657Y-90681628D01*
X112373229Y-90717914D01*
X112518371Y-90717914D01*
X112590943Y-90681628D01*
X112627229Y-90645343D01*
X112663514Y-90572771D01*
X112663514Y-90427628D01*
X112627229Y-90355057D01*
X112590943Y-90318771D01*
X112518371Y-90282486D01*
X112373229Y-90282486D01*
X112300657Y-90318771D01*
X112264371Y-90355057D01*
X112228086Y-90427628D01*
X111524143Y-99568000D02*
X111560429Y-99604286D01*
X111596714Y-99713143D01*
X111596714Y-99785714D01*
X111560429Y-99894571D01*
X111487857Y-99967143D01*
X111415286Y-100003428D01*
X111270143Y-100039714D01*
X111161286Y-100039714D01*
X111016143Y-100003428D01*
X110943571Y-99967143D01*
X110871000Y-99894571D01*
X110834714Y-99785714D01*
X110834714Y-99713143D01*
X110871000Y-99604286D01*
X110907286Y-99568000D01*
X111596714Y-99205143D02*
X111596714Y-99060000D01*
X111560429Y-98987428D01*
X111524143Y-98951143D01*
X111415286Y-98878571D01*
X111270143Y-98842286D01*
X110979857Y-98842286D01*
X110907286Y-98878571D01*
X110871000Y-98914857D01*
X110834714Y-98987428D01*
X110834714Y-99132571D01*
X110871000Y-99205143D01*
X110907286Y-99241428D01*
X110979857Y-99277714D01*
X111161286Y-99277714D01*
X111233857Y-99241428D01*
X111270143Y-99205143D01*
X111306429Y-99132571D01*
X111306429Y-98987428D01*
X111270143Y-98914857D01*
X111233857Y-98878571D01*
X111161286Y-98842286D01*
X116553343Y-100032457D02*
X116589629Y-100068743D01*
X116625914Y-100177600D01*
X116625914Y-100250171D01*
X116589629Y-100359028D01*
X116517057Y-100431600D01*
X116444486Y-100467885D01*
X116299343Y-100504171D01*
X116190486Y-100504171D01*
X116045343Y-100467885D01*
X115972771Y-100431600D01*
X115900200Y-100359028D01*
X115863914Y-100250171D01*
X115863914Y-100177600D01*
X115900200Y-100068743D01*
X115936486Y-100032457D01*
X116625914Y-99306743D02*
X116625914Y-99742171D01*
X116625914Y-99524457D02*
X115863914Y-99524457D01*
X115972771Y-99597028D01*
X116045343Y-99669600D01*
X116081629Y-99742171D01*
X115863914Y-98835029D02*
X115863914Y-98762457D01*
X115900200Y-98689886D01*
X115936486Y-98653600D01*
X116009057Y-98617314D01*
X116154200Y-98581029D01*
X116335629Y-98581029D01*
X116480771Y-98617314D01*
X116553343Y-98653600D01*
X116589629Y-98689886D01*
X116625914Y-98762457D01*
X116625914Y-98835029D01*
X116589629Y-98907600D01*
X116553343Y-98943886D01*
X116480771Y-98980171D01*
X116335629Y-99016457D01*
X116154200Y-99016457D01*
X116009057Y-98980171D01*
X115936486Y-98943886D01*
X115900200Y-98907600D01*
X115863914Y-98835029D01*
X128465943Y-90391343D02*
X128429657Y-90427629D01*
X128320800Y-90463914D01*
X128248229Y-90463914D01*
X128139372Y-90427629D01*
X128066800Y-90355057D01*
X128030515Y-90282486D01*
X127994229Y-90137343D01*
X127994229Y-90028486D01*
X128030515Y-89883343D01*
X128066800Y-89810771D01*
X128139372Y-89738200D01*
X128248229Y-89701914D01*
X128320800Y-89701914D01*
X128429657Y-89738200D01*
X128465943Y-89774486D01*
X129191657Y-90463914D02*
X128756229Y-90463914D01*
X128973943Y-90463914D02*
X128973943Y-89701914D01*
X128901372Y-89810771D01*
X128828800Y-89883343D01*
X128756229Y-89919629D01*
X129917371Y-90463914D02*
X129481943Y-90463914D01*
X129699657Y-90463914D02*
X129699657Y-89701914D01*
X129627086Y-89810771D01*
X129554514Y-89883343D01*
X129481943Y-89919629D01*
X143045543Y-92082257D02*
X143081829Y-92118543D01*
X143118114Y-92227400D01*
X143118114Y-92299971D01*
X143081829Y-92408828D01*
X143009257Y-92481400D01*
X142936686Y-92517685D01*
X142791543Y-92553971D01*
X142682686Y-92553971D01*
X142537543Y-92517685D01*
X142464971Y-92481400D01*
X142392400Y-92408828D01*
X142356114Y-92299971D01*
X142356114Y-92227400D01*
X142392400Y-92118543D01*
X142428686Y-92082257D01*
X143118114Y-91356543D02*
X143118114Y-91791971D01*
X143118114Y-91574257D02*
X142356114Y-91574257D01*
X142464971Y-91646828D01*
X142537543Y-91719400D01*
X142573829Y-91791971D01*
X142428686Y-91066257D02*
X142392400Y-91029971D01*
X142356114Y-90957400D01*
X142356114Y-90775971D01*
X142392400Y-90703400D01*
X142428686Y-90667114D01*
X142501257Y-90630829D01*
X142573829Y-90630829D01*
X142682686Y-90667114D01*
X143118114Y-91102543D01*
X143118114Y-90630829D01*
X139946743Y-92702743D02*
X139910457Y-92739029D01*
X139801600Y-92775314D01*
X139729029Y-92775314D01*
X139620172Y-92739029D01*
X139547600Y-92666457D01*
X139511315Y-92593886D01*
X139475029Y-92448743D01*
X139475029Y-92339886D01*
X139511315Y-92194743D01*
X139547600Y-92122171D01*
X139620172Y-92049600D01*
X139729029Y-92013314D01*
X139801600Y-92013314D01*
X139910457Y-92049600D01*
X139946743Y-92085886D01*
X140672457Y-92775314D02*
X140237029Y-92775314D01*
X140454743Y-92775314D02*
X140454743Y-92013314D01*
X140382172Y-92122171D01*
X140309600Y-92194743D01*
X140237029Y-92231029D01*
X140926457Y-92013314D02*
X141398171Y-92013314D01*
X141144171Y-92303600D01*
X141253029Y-92303600D01*
X141325600Y-92339886D01*
X141361886Y-92376171D01*
X141398171Y-92448743D01*
X141398171Y-92630171D01*
X141361886Y-92702743D01*
X141325600Y-92739029D01*
X141253029Y-92775314D01*
X141035314Y-92775314D01*
X140962743Y-92739029D01*
X140926457Y-92702743D01*
X134841343Y-90786857D02*
X134877629Y-90823143D01*
X134913914Y-90932000D01*
X134913914Y-91004571D01*
X134877629Y-91113428D01*
X134805057Y-91186000D01*
X134732486Y-91222285D01*
X134587343Y-91258571D01*
X134478486Y-91258571D01*
X134333343Y-91222285D01*
X134260771Y-91186000D01*
X134188200Y-91113428D01*
X134151914Y-91004571D01*
X134151914Y-90932000D01*
X134188200Y-90823143D01*
X134224486Y-90786857D01*
X134913914Y-90061143D02*
X134913914Y-90496571D01*
X134913914Y-90278857D02*
X134151914Y-90278857D01*
X134260771Y-90351428D01*
X134333343Y-90424000D01*
X134369629Y-90496571D01*
X134405914Y-89408000D02*
X134913914Y-89408000D01*
X134115629Y-89589429D02*
X134659914Y-89770857D01*
X134659914Y-89299143D01*
X127729343Y-83039857D02*
X127765629Y-83076143D01*
X127801914Y-83185000D01*
X127801914Y-83257571D01*
X127765629Y-83366428D01*
X127693057Y-83439000D01*
X127620486Y-83475285D01*
X127475343Y-83511571D01*
X127366486Y-83511571D01*
X127221343Y-83475285D01*
X127148771Y-83439000D01*
X127076200Y-83366428D01*
X127039914Y-83257571D01*
X127039914Y-83185000D01*
X127076200Y-83076143D01*
X127112486Y-83039857D01*
X127801914Y-82314143D02*
X127801914Y-82749571D01*
X127801914Y-82531857D02*
X127039914Y-82531857D01*
X127148771Y-82604428D01*
X127221343Y-82677000D01*
X127257629Y-82749571D01*
X127039914Y-81624714D02*
X127039914Y-81987571D01*
X127402771Y-82023857D01*
X127366486Y-81987571D01*
X127330200Y-81915000D01*
X127330200Y-81733571D01*
X127366486Y-81661000D01*
X127402771Y-81624714D01*
X127475343Y-81588429D01*
X127656771Y-81588429D01*
X127729343Y-81624714D01*
X127765629Y-81661000D01*
X127801914Y-81733571D01*
X127801914Y-81915000D01*
X127765629Y-81987571D01*
X127729343Y-82023857D01*
X142519401Y-77967114D02*
X142156544Y-77967114D01*
X142156544Y-77205114D01*
X143172543Y-77967114D02*
X142737115Y-77967114D01*
X142954829Y-77967114D02*
X142954829Y-77205114D01*
X142882258Y-77313971D01*
X142809686Y-77386543D01*
X142737115Y-77422829D01*
X111368114Y-95961199D02*
X111368114Y-96324056D01*
X110606114Y-96324056D01*
X110606114Y-95779771D02*
X110606114Y-95308057D01*
X110896400Y-95562057D01*
X110896400Y-95453199D01*
X110932686Y-95380628D01*
X110968971Y-95344342D01*
X111041543Y-95308057D01*
X111222971Y-95308057D01*
X111295543Y-95344342D01*
X111331829Y-95380628D01*
X111368114Y-95453199D01*
X111368114Y-95670914D01*
X111331829Y-95743485D01*
X111295543Y-95779771D01*
X111201200Y-93384914D02*
X110947200Y-93022057D01*
X110765772Y-93384914D02*
X110765772Y-92622914D01*
X111056057Y-92622914D01*
X111128629Y-92659200D01*
X111164914Y-92695486D01*
X111201200Y-92768057D01*
X111201200Y-92876914D01*
X111164914Y-92949486D01*
X111128629Y-92985771D01*
X111056057Y-93022057D01*
X110765772Y-93022057D01*
X111926914Y-93384914D02*
X111491486Y-93384914D01*
X111709200Y-93384914D02*
X111709200Y-92622914D01*
X111636629Y-92731771D01*
X111564057Y-92804343D01*
X111491486Y-92840629D01*
X136433914Y-81112971D02*
X137050771Y-81112971D01*
X137123343Y-81076686D01*
X137159629Y-81040400D01*
X137195914Y-80967829D01*
X137195914Y-80822686D01*
X137159629Y-80750114D01*
X137123343Y-80713829D01*
X137050771Y-80677543D01*
X136433914Y-80677543D01*
X136506486Y-80350971D02*
X136470200Y-80314685D01*
X136433914Y-80242114D01*
X136433914Y-80060685D01*
X136470200Y-79988114D01*
X136506486Y-79951828D01*
X136579057Y-79915543D01*
X136651629Y-79915543D01*
X136760486Y-79951828D01*
X137195914Y-80387257D01*
X137195914Y-79915543D01*
X118951829Y-89803514D02*
X118951829Y-90420371D01*
X118988114Y-90492943D01*
X119024400Y-90529229D01*
X119096971Y-90565514D01*
X119242114Y-90565514D01*
X119314686Y-90529229D01*
X119350971Y-90492943D01*
X119387257Y-90420371D01*
X119387257Y-89803514D01*
X120076686Y-90057514D02*
X120076686Y-90565514D01*
X119895257Y-89767229D02*
X119713829Y-90311514D01*
X120185543Y-90311514D01*
X130280229Y-85079114D02*
X130280229Y-85695971D01*
X130316514Y-85768543D01*
X130352800Y-85804829D01*
X130425371Y-85841114D01*
X130570514Y-85841114D01*
X130643086Y-85804829D01*
X130679371Y-85768543D01*
X130715657Y-85695971D01*
X130715657Y-85079114D01*
X131441372Y-85079114D02*
X131078515Y-85079114D01*
X131042229Y-85441971D01*
X131078515Y-85405686D01*
X131151086Y-85369400D01*
X131332515Y-85369400D01*
X131405086Y-85405686D01*
X131441372Y-85441971D01*
X131477657Y-85514543D01*
X131477657Y-85695971D01*
X131441372Y-85768543D01*
X131405086Y-85804829D01*
X131332515Y-85841114D01*
X131151086Y-85841114D01*
X131078515Y-85804829D01*
X131042229Y-85768543D01*
X124387429Y-83859914D02*
X124387429Y-84476771D01*
X124423714Y-84549343D01*
X124460000Y-84585629D01*
X124532571Y-84621914D01*
X124677714Y-84621914D01*
X124750286Y-84585629D01*
X124786571Y-84549343D01*
X124822857Y-84476771D01*
X124822857Y-83859914D01*
X125113143Y-83859914D02*
X125621143Y-83859914D01*
X125294572Y-84621914D01*
X114241943Y-88704057D02*
X114241943Y-89066914D01*
X113987943Y-88304914D02*
X114241943Y-88704057D01*
X114495943Y-88304914D01*
X115149086Y-89066914D02*
X114713658Y-89066914D01*
X114931372Y-89066914D02*
X114931372Y-88304914D01*
X114858801Y-88413771D01*
X114786229Y-88486343D01*
X114713658Y-88522629D01*
X138509829Y-84190114D02*
X138509829Y-84806971D01*
X138546114Y-84879543D01*
X138582400Y-84915829D01*
X138654971Y-84952114D01*
X138800114Y-84952114D01*
X138872686Y-84915829D01*
X138908971Y-84879543D01*
X138945257Y-84806971D01*
X138945257Y-84190114D01*
X139634686Y-84190114D02*
X139489543Y-84190114D01*
X139416972Y-84226400D01*
X139380686Y-84262686D01*
X139308115Y-84371543D01*
X139271829Y-84516686D01*
X139271829Y-84806971D01*
X139308115Y-84879543D01*
X139344400Y-84915829D01*
X139416972Y-84952114D01*
X139562115Y-84952114D01*
X139634686Y-84915829D01*
X139670972Y-84879543D01*
X139707257Y-84806971D01*
X139707257Y-84625543D01*
X139670972Y-84552971D01*
X139634686Y-84516686D01*
X139562115Y-84480400D01*
X139416972Y-84480400D01*
X139344400Y-84516686D01*
X139308115Y-84552971D01*
X139271829Y-84625543D01*
X133023429Y-84774314D02*
X133023429Y-85391171D01*
X133059714Y-85463743D01*
X133096000Y-85500029D01*
X133168571Y-85536314D01*
X133313714Y-85536314D01*
X133386286Y-85500029D01*
X133422571Y-85463743D01*
X133458857Y-85391171D01*
X133458857Y-84774314D01*
X133930572Y-85100886D02*
X133858000Y-85064600D01*
X133821715Y-85028314D01*
X133785429Y-84955743D01*
X133785429Y-84919457D01*
X133821715Y-84846886D01*
X133858000Y-84810600D01*
X133930572Y-84774314D01*
X134075715Y-84774314D01*
X134148286Y-84810600D01*
X134184572Y-84846886D01*
X134220857Y-84919457D01*
X134220857Y-84955743D01*
X134184572Y-85028314D01*
X134148286Y-85064600D01*
X134075715Y-85100886D01*
X133930572Y-85100886D01*
X133858000Y-85137171D01*
X133821715Y-85173457D01*
X133785429Y-85246029D01*
X133785429Y-85391171D01*
X133821715Y-85463743D01*
X133858000Y-85500029D01*
X133930572Y-85536314D01*
X134075715Y-85536314D01*
X134148286Y-85500029D01*
X134184572Y-85463743D01*
X134220857Y-85391171D01*
X134220857Y-85246029D01*
X134184572Y-85173457D01*
X134148286Y-85137171D01*
X134075715Y-85100886D01*
X146452772Y-92445114D02*
X146452772Y-91683114D01*
X146743057Y-91683114D01*
X146815629Y-91719400D01*
X146851914Y-91755686D01*
X146888200Y-91828257D01*
X146888200Y-91937114D01*
X146851914Y-92009686D01*
X146815629Y-92045971D01*
X146743057Y-92082257D01*
X146452772Y-92082257D01*
X147613914Y-92445114D02*
X147178486Y-92445114D01*
X147396200Y-92445114D02*
X147396200Y-91683114D01*
X147323629Y-91791971D01*
X147251057Y-91864543D01*
X147178486Y-91900829D01*
X146376572Y-109615514D02*
X146376572Y-108853514D01*
X146666857Y-108853514D01*
X146739429Y-108889800D01*
X146775714Y-108926086D01*
X146812000Y-108998657D01*
X146812000Y-109107514D01*
X146775714Y-109180086D01*
X146739429Y-109216371D01*
X146666857Y-109252657D01*
X146376572Y-109252657D01*
X147102286Y-108926086D02*
X147138572Y-108889800D01*
X147211143Y-108853514D01*
X147392572Y-108853514D01*
X147465143Y-108889800D01*
X147501429Y-108926086D01*
X147537714Y-108998657D01*
X147537714Y-109071229D01*
X147501429Y-109180086D01*
X147066000Y-109615514D01*
X147537714Y-109615514D01*
X115557714Y-106810628D02*
X114795714Y-106810628D01*
X114795714Y-106629200D01*
X114832000Y-106520343D01*
X114904571Y-106447771D01*
X114977143Y-106411486D01*
X115122286Y-106375200D01*
X115231143Y-106375200D01*
X115376286Y-106411486D01*
X115448857Y-106447771D01*
X115521429Y-106520343D01*
X115557714Y-106629200D01*
X115557714Y-106810628D01*
X115557714Y-105649486D02*
X115557714Y-106084914D01*
X115557714Y-105867200D02*
X114795714Y-105867200D01*
X114904571Y-105939771D01*
X114977143Y-106012343D01*
X115013429Y-106084914D01*
X118378514Y-106798828D02*
X117616514Y-106798828D01*
X117616514Y-106617400D01*
X117652800Y-106508543D01*
X117725371Y-106435971D01*
X117797943Y-106399686D01*
X117943086Y-106363400D01*
X118051943Y-106363400D01*
X118197086Y-106399686D01*
X118269657Y-106435971D01*
X118342229Y-106508543D01*
X118378514Y-106617400D01*
X118378514Y-106798828D01*
X117689086Y-106073114D02*
X117652800Y-106036828D01*
X117616514Y-105964257D01*
X117616514Y-105782828D01*
X117652800Y-105710257D01*
X117689086Y-105673971D01*
X117761657Y-105637686D01*
X117834229Y-105637686D01*
X117943086Y-105673971D01*
X118378514Y-106109400D01*
X118378514Y-105637686D01*
X121045514Y-106785228D02*
X120283514Y-106785228D01*
X120283514Y-106603800D01*
X120319800Y-106494943D01*
X120392371Y-106422371D01*
X120464943Y-106386086D01*
X120610086Y-106349800D01*
X120718943Y-106349800D01*
X120864086Y-106386086D01*
X120936657Y-106422371D01*
X121009229Y-106494943D01*
X121045514Y-106603800D01*
X121045514Y-106785228D01*
X120283514Y-106095800D02*
X120283514Y-105624086D01*
X120573800Y-105878086D01*
X120573800Y-105769228D01*
X120610086Y-105696657D01*
X120646371Y-105660371D01*
X120718943Y-105624086D01*
X120900371Y-105624086D01*
X120972943Y-105660371D01*
X121009229Y-105696657D01*
X121045514Y-105769228D01*
X121045514Y-105986943D01*
X121009229Y-106059514D01*
X120972943Y-106095800D01*
X115863914Y-110134400D02*
X115501057Y-110388400D01*
X115863914Y-110569828D02*
X115101914Y-110569828D01*
X115101914Y-110279543D01*
X115138200Y-110206971D01*
X115174486Y-110170686D01*
X115247057Y-110134400D01*
X115355914Y-110134400D01*
X115428486Y-110170686D01*
X115464771Y-110206971D01*
X115501057Y-110279543D01*
X115501057Y-110569828D01*
X115174486Y-109844114D02*
X115138200Y-109807828D01*
X115101914Y-109735257D01*
X115101914Y-109553828D01*
X115138200Y-109481257D01*
X115174486Y-109444971D01*
X115247057Y-109408686D01*
X115319629Y-109408686D01*
X115428486Y-109444971D01*
X115863914Y-109880400D01*
X115863914Y-109408686D01*
X118429314Y-110159800D02*
X118066457Y-110413800D01*
X118429314Y-110595228D02*
X117667314Y-110595228D01*
X117667314Y-110304943D01*
X117703600Y-110232371D01*
X117739886Y-110196086D01*
X117812457Y-110159800D01*
X117921314Y-110159800D01*
X117993886Y-110196086D01*
X118030171Y-110232371D01*
X118066457Y-110304943D01*
X118066457Y-110595228D01*
X117667314Y-109905800D02*
X117667314Y-109434086D01*
X117957600Y-109688086D01*
X117957600Y-109579228D01*
X117993886Y-109506657D01*
X118030171Y-109470371D01*
X118102743Y-109434086D01*
X118284171Y-109434086D01*
X118356743Y-109470371D01*
X118393029Y-109506657D01*
X118429314Y-109579228D01*
X118429314Y-109796943D01*
X118393029Y-109869514D01*
X118356743Y-109905800D01*
X120994714Y-110090800D02*
X120631857Y-110344800D01*
X120994714Y-110526228D02*
X120232714Y-110526228D01*
X120232714Y-110235943D01*
X120269000Y-110163371D01*
X120305286Y-110127086D01*
X120377857Y-110090800D01*
X120486714Y-110090800D01*
X120559286Y-110127086D01*
X120595571Y-110163371D01*
X120631857Y-110235943D01*
X120631857Y-110526228D01*
X120486714Y-109437657D02*
X120994714Y-109437657D01*
X120196429Y-109619086D02*
X120740714Y-109800514D01*
X120740714Y-109328800D01*
X152697600Y-87161914D02*
X152443600Y-86799057D01*
X152262172Y-87161914D02*
X152262172Y-86399914D01*
X152552457Y-86399914D01*
X152625029Y-86436200D01*
X152661314Y-86472486D01*
X152697600Y-86545057D01*
X152697600Y-86653914D01*
X152661314Y-86726486D01*
X152625029Y-86762771D01*
X152552457Y-86799057D01*
X152262172Y-86799057D01*
X153387029Y-86399914D02*
X153024172Y-86399914D01*
X152987886Y-86762771D01*
X153024172Y-86726486D01*
X153096743Y-86690200D01*
X153278172Y-86690200D01*
X153350743Y-86726486D01*
X153387029Y-86762771D01*
X153423314Y-86835343D01*
X153423314Y-87016771D01*
X153387029Y-87089343D01*
X153350743Y-87125629D01*
X153278172Y-87161914D01*
X153096743Y-87161914D01*
X153024172Y-87125629D01*
X152987886Y-87089343D01*
X152755600Y-89549514D02*
X152501600Y-89186657D01*
X152320172Y-89549514D02*
X152320172Y-88787514D01*
X152610457Y-88787514D01*
X152683029Y-88823800D01*
X152719314Y-88860086D01*
X152755600Y-88932657D01*
X152755600Y-89041514D01*
X152719314Y-89114086D01*
X152683029Y-89150371D01*
X152610457Y-89186657D01*
X152320172Y-89186657D01*
X153408743Y-88787514D02*
X153263600Y-88787514D01*
X153191029Y-88823800D01*
X153154743Y-88860086D01*
X153082172Y-88968943D01*
X153045886Y-89114086D01*
X153045886Y-89404371D01*
X153082172Y-89476943D01*
X153118457Y-89513229D01*
X153191029Y-89549514D01*
X153336172Y-89549514D01*
X153408743Y-89513229D01*
X153445029Y-89476943D01*
X153481314Y-89404371D01*
X153481314Y-89222943D01*
X153445029Y-89150371D01*
X153408743Y-89114086D01*
X153336172Y-89077800D01*
X153191029Y-89077800D01*
X153118457Y-89114086D01*
X153082172Y-89150371D01*
X153045886Y-89222943D01*
X111270143Y-74603429D02*
X111270143Y-73079429D01*
X111850715Y-73079429D01*
X111995857Y-73152000D01*
X112068429Y-73224571D01*
X112141000Y-73369714D01*
X112141000Y-73587429D01*
X112068429Y-73732571D01*
X111995857Y-73805143D01*
X111850715Y-73877714D01*
X111270143Y-73877714D01*
X112649000Y-73079429D02*
X113592429Y-73079429D01*
X113084429Y-73660000D01*
X113302143Y-73660000D01*
X113447286Y-73732571D01*
X113519857Y-73805143D01*
X113592429Y-73950286D01*
X113592429Y-74313143D01*
X113519857Y-74458286D01*
X113447286Y-74530857D01*
X113302143Y-74603429D01*
X112866715Y-74603429D01*
X112721572Y-74530857D01*
X112649000Y-74458286D01*
D17*
X98023438Y-96368809D02*
X97058238Y-96368809D01*
X97058238Y-96001114D01*
X97104200Y-95909190D01*
X97150162Y-95863229D01*
X97242086Y-95817267D01*
X97379971Y-95817267D01*
X97471895Y-95863229D01*
X97517857Y-95909190D01*
X97563819Y-96001114D01*
X97563819Y-96368809D01*
X97379971Y-94989952D02*
X98023438Y-94989952D01*
X97012276Y-95219762D02*
X97701705Y-95449571D01*
X97701705Y-94852067D01*
D13*
X124206001Y-101944714D02*
X123843144Y-101944714D01*
X123843144Y-101182714D01*
X124423715Y-101255286D02*
X124460001Y-101219000D01*
X124532572Y-101182714D01*
X124714001Y-101182714D01*
X124786572Y-101219000D01*
X124822858Y-101255286D01*
X124859143Y-101327857D01*
X124859143Y-101400429D01*
X124822858Y-101509286D01*
X124387429Y-101944714D01*
X124859143Y-101944714D01*
M02*
