G04 #@! TF.FileFunction,Copper,L1,Top,Signal*
%FSLAX46Y46*%
G04 Gerber Fmt 4.6, Leading zero omitted, Abs format (unit mm)*
G04 Created by KiCad (PCBNEW 4.0.4-stable) date 10/06/16 01:12:16*
%MOMM*%
%LPD*%
G01*
G04 APERTURE LIST*
%ADD10C,0.100000*%
%ADD11R,1.250000X1.500000*%
%ADD12R,1.500000X1.250000*%
%ADD13R,0.500000X0.600000*%
%ADD14R,0.600000X0.500000*%
%ADD15R,0.800000X0.750000*%
%ADD16R,2.500000X0.750000*%
%ADD17R,1.400000X3.000000*%
%ADD18R,0.400000X0.600000*%
%ADD19R,0.250000X0.600000*%
%ADD20O,0.250000X0.600000*%
%ADD21R,0.300000X1.500000*%
%ADD22R,0.700000X0.250000*%
%ADD23R,0.250000X0.700000*%
%ADD24R,1.287500X1.287500*%
%ADD25R,0.800000X0.250000*%
%ADD26R,0.650000X0.250000*%
%ADD27R,0.450000X0.850000*%
%ADD28R,2.500000X1.600000*%
%ADD29R,1.000000X0.950000*%
%ADD30R,0.350000X0.800000*%
%ADD31R,0.800000X0.350000*%
%ADD32R,1.300000X0.400000*%
%ADD33O,3.014980X1.506220*%
%ADD34R,0.800000X0.600000*%
%ADD35R,0.600000X0.400000*%
%ADD36R,1.498600X1.498600*%
%ADD37C,1.498600*%
%ADD38C,0.787400*%
%ADD39R,0.750000X1.200000*%
%ADD40C,0.406400*%
%ADD41C,0.609600*%
%ADD42C,0.406400*%
%ADD43C,0.203200*%
%ADD44C,0.508000*%
%ADD45C,0.304800*%
%ADD46C,0.125000*%
%ADD47C,0.254000*%
G04 APERTURE END LIST*
D10*
D11*
X134620000Y-80080800D03*
X134620000Y-82580800D03*
D12*
X146400200Y-81203800D03*
X148900200Y-81203800D03*
D13*
X119329200Y-87976800D03*
X119329200Y-86876800D03*
D14*
X129040800Y-95529400D03*
X130140800Y-95529400D03*
X117186800Y-87960200D03*
X116086800Y-87960200D03*
D13*
X118160800Y-99576800D03*
X118160800Y-100676800D03*
D14*
X123351200Y-100431600D03*
X124451200Y-100431600D03*
D13*
X113461800Y-91431200D03*
X113461800Y-90331200D03*
X112522000Y-99018000D03*
X112522000Y-100118000D03*
X114935000Y-98967200D03*
X114935000Y-100067200D03*
D14*
X130768000Y-90220800D03*
X131868000Y-90220800D03*
D13*
X142748000Y-88781800D03*
X142748000Y-89881800D03*
D15*
X141212000Y-91008200D03*
X139712000Y-91008200D03*
D13*
X135864600Y-89721600D03*
X135864600Y-90821600D03*
X128574800Y-82998400D03*
X128574800Y-81898400D03*
D16*
X142570200Y-81209600D03*
X142570200Y-78759600D03*
D17*
X114935000Y-95859600D03*
X112535000Y-95859600D03*
D18*
X112656200Y-93040200D03*
X113556200Y-93040200D03*
D19*
X137752200Y-81432400D03*
D20*
X138252200Y-81432400D03*
D21*
X137902200Y-80082400D03*
X138502200Y-80082400D03*
X139102200Y-80082400D03*
D20*
X138752200Y-81432400D03*
X139252200Y-81432400D03*
D22*
X119681600Y-92064600D03*
X119681600Y-92564600D03*
X119681600Y-93064600D03*
X119681600Y-93564600D03*
X119681600Y-94064600D03*
X119681600Y-94564600D03*
X119681600Y-95064600D03*
X119681600Y-95564600D03*
X119681600Y-96064600D03*
X119681600Y-96564600D03*
X119681600Y-97064600D03*
X119681600Y-97564600D03*
D23*
X120331600Y-98214600D03*
X120831600Y-98214600D03*
X121331600Y-98214600D03*
X121831600Y-98214600D03*
X122331600Y-98214600D03*
X122831600Y-98214600D03*
X123331600Y-98214600D03*
X123831600Y-98214600D03*
X124331600Y-98214600D03*
X124831600Y-98214600D03*
X125331600Y-98214600D03*
X125831600Y-98214600D03*
D22*
X126481600Y-97564600D03*
X126481600Y-97064600D03*
X126481600Y-96564600D03*
X126481600Y-96064600D03*
X126481600Y-95564600D03*
X126481600Y-95064600D03*
X126481600Y-94564600D03*
X126481600Y-94064600D03*
X126481600Y-93564600D03*
X126481600Y-93064600D03*
X126481600Y-92564600D03*
X126481600Y-92064600D03*
D23*
X125831600Y-91414600D03*
X125331600Y-91414600D03*
X124831600Y-91414600D03*
X124331600Y-91414600D03*
X123831600Y-91414600D03*
X123331600Y-91414600D03*
X122831600Y-91414600D03*
X122331600Y-91414600D03*
X121831600Y-91414600D03*
X121331600Y-91414600D03*
X120831600Y-91414600D03*
X120331600Y-91414600D03*
D24*
X125012850Y-96745850D03*
X125012850Y-95458350D03*
X125012850Y-94170850D03*
X125012850Y-92883350D03*
X123725350Y-96745850D03*
X123725350Y-95458350D03*
X123725350Y-94170850D03*
X123725350Y-92883350D03*
X122437850Y-96745850D03*
X122437850Y-95458350D03*
X122437850Y-94170850D03*
X122437850Y-92883350D03*
X121150350Y-96745850D03*
X121150350Y-95458350D03*
X121150350Y-94170850D03*
X121150350Y-92883350D03*
D25*
X130751235Y-87320865D03*
D26*
X130826235Y-86820865D03*
X130826235Y-86320865D03*
X129476235Y-86320865D03*
X129476235Y-86820865D03*
X129476235Y-87320865D03*
D27*
X125290435Y-88294065D03*
X126290435Y-88294065D03*
X127290435Y-88294065D03*
X127290435Y-85394065D03*
X126290435Y-85394065D03*
X125290435Y-85394065D03*
D28*
X126290435Y-86844065D03*
D29*
X117180800Y-89852200D03*
X115330800Y-89852200D03*
X115330800Y-91402200D03*
X117180800Y-91402200D03*
D30*
X140930235Y-88248665D03*
X140430235Y-88248665D03*
X139930235Y-88248665D03*
X139430235Y-88248665D03*
X138930235Y-88248665D03*
D31*
X138680235Y-86498665D03*
X138680235Y-87498665D03*
X138680235Y-86998665D03*
D30*
X138930235Y-85748665D03*
X139430235Y-85748665D03*
X139930235Y-85748665D03*
X140430235Y-85748665D03*
X140930235Y-85748665D03*
D31*
X141180235Y-86498665D03*
X141180235Y-86998665D03*
X141180235Y-87498665D03*
D32*
X135421635Y-86846265D03*
X133821635Y-86846265D03*
X135421635Y-86196265D03*
X135421635Y-87496265D03*
X133821635Y-87496265D03*
X133821635Y-86196265D03*
D33*
X147015200Y-84759800D03*
X147015200Y-87299800D03*
X147015200Y-89839800D03*
X147015200Y-94361000D03*
X147015200Y-96901000D03*
X147015200Y-99441000D03*
X147015200Y-101981000D03*
X147015200Y-104521000D03*
X147015200Y-107061000D03*
D34*
X116713000Y-105398200D03*
X116713000Y-107098200D03*
X119303800Y-105372800D03*
X119303800Y-107072800D03*
X121945400Y-105372800D03*
X121945400Y-107072800D03*
D35*
X116713000Y-109582800D03*
X116713000Y-110482800D03*
X119303800Y-109582800D03*
X119303800Y-110482800D03*
X121945400Y-109582800D03*
X121945400Y-110482800D03*
D18*
X153307200Y-88011000D03*
X152407200Y-88011000D03*
X153332600Y-90347800D03*
X152432600Y-90347800D03*
D36*
X134620000Y-72390000D03*
D37*
X134620000Y-74930000D03*
X132080000Y-72390000D03*
X132080000Y-74930000D03*
X129540000Y-72390000D03*
X129540000Y-74930000D03*
X127000000Y-72390000D03*
X127000000Y-74930000D03*
X124460000Y-72390000D03*
X124460000Y-74930000D03*
X121920000Y-72390000D03*
X121920000Y-74930000D03*
X119380000Y-72390000D03*
X119380000Y-74930000D03*
D38*
X103784400Y-96926400D03*
X103784400Y-95656400D03*
X103784400Y-94386400D03*
X102514400Y-94386400D03*
X102514400Y-95656400D03*
X102514400Y-96926400D03*
D39*
X124333000Y-102809000D03*
X124333000Y-104709000D03*
D40*
X106248200Y-92456000D03*
X127863600Y-78079600D03*
X126365000Y-79502000D03*
X125145800Y-80721200D03*
X123444000Y-82423000D03*
X122478800Y-80619600D03*
X123494800Y-77495400D03*
X143891000Y-91008200D03*
X137134600Y-90881200D03*
X130479800Y-78587600D03*
X130429000Y-81026000D03*
X142417800Y-86487000D03*
X127076200Y-89433400D03*
X130860800Y-100736400D03*
X128193800Y-102514400D03*
X125882400Y-100634800D03*
X113741200Y-98196400D03*
X109448600Y-98247200D03*
X143459200Y-94056200D03*
X142036800Y-95453200D03*
X140690600Y-96697800D03*
X140919200Y-89281000D03*
X114604800Y-92430600D03*
X114935000Y-101396800D03*
X112522000Y-101396800D03*
X120319800Y-89230200D03*
X136677400Y-95605600D03*
X140131800Y-80162400D03*
X125012850Y-92883350D03*
X123725350Y-92883350D03*
X122437850Y-92883350D03*
X121150350Y-92883350D03*
X121150350Y-94170850D03*
X122437850Y-94170850D03*
X125012850Y-94170850D03*
X123725350Y-94170850D03*
X123725350Y-95458350D03*
X122437850Y-95458350D03*
X121150350Y-95458350D03*
X121150350Y-96745850D03*
X122437850Y-96745850D03*
X123725350Y-96745850D03*
X125012850Y-96745850D03*
X125012850Y-95458350D03*
X136983835Y-86541465D03*
X131802235Y-86846265D03*
X131394200Y-95554800D03*
X127711200Y-95681800D03*
X116763800Y-94945200D03*
X118160800Y-98552000D03*
X119329200Y-89230200D03*
X130760835Y-89128600D03*
X136956800Y-89712800D03*
X126288800Y-82981800D03*
X132080000Y-82905600D03*
X111302800Y-92227400D03*
X104165400Y-101523800D03*
X125984000Y-102793800D03*
X128529200Y-94564600D03*
X128458800Y-96564600D03*
D41*
X142570200Y-82905600D03*
D40*
X141960600Y-85750400D03*
X142417800Y-87553800D03*
X126290435Y-84306265D03*
X136958435Y-87506665D03*
X130760835Y-87989265D03*
X124333000Y-90424000D03*
X121818400Y-90424000D03*
X118668800Y-95554800D03*
X125755400Y-90474800D03*
X101371400Y-96570800D03*
X118287800Y-96088200D03*
X102311200Y-99568000D03*
X118694200Y-96570800D03*
X140462000Y-89890600D03*
X128905000Y-92049600D03*
X129489200Y-85521800D03*
X132486400Y-92557600D03*
X132564235Y-86846265D03*
X138404600Y-95580200D03*
X139928600Y-89255600D03*
X138479800Y-93064600D03*
X138912600Y-89281000D03*
X126644400Y-90627200D03*
X125120400Y-90297000D03*
D42*
X137902200Y-80082400D02*
X136423400Y-80082400D01*
X136423400Y-80082400D02*
X134621600Y-80082400D01*
D43*
X137752200Y-81432400D02*
X137424000Y-81432400D01*
X137424000Y-81432400D02*
X136423400Y-80431800D01*
X136423400Y-80431800D02*
X136423400Y-80082400D01*
X134621600Y-80082400D02*
X134620000Y-80080800D01*
D44*
X134620000Y-74930000D02*
X134620000Y-80080800D01*
D43*
X137900600Y-80080800D02*
X137902200Y-80082400D01*
X103784400Y-94386400D02*
X104178099Y-93992701D01*
X104178099Y-93992701D02*
X104641648Y-93992701D01*
X104641648Y-93992701D02*
X106178349Y-92456000D01*
X106178349Y-92456000D02*
X106248200Y-92456000D01*
X126365000Y-79502000D02*
X127787400Y-78079600D01*
X127787400Y-78079600D02*
X127863600Y-78079600D01*
X125145800Y-80721200D02*
X126365000Y-79502000D01*
X123444000Y-82423000D02*
X125145800Y-80721200D01*
X123494800Y-77495400D02*
X123494800Y-79603600D01*
X123494800Y-79603600D02*
X122478800Y-80619600D01*
X142748000Y-89881800D02*
X142764600Y-89881800D01*
X142764600Y-89881800D02*
X143891000Y-91008200D01*
X135864600Y-90821600D02*
X137075000Y-90821600D01*
X137075000Y-90821600D02*
X137134600Y-90881200D01*
X128574800Y-81898400D02*
X129556600Y-81898400D01*
X129556600Y-81898400D02*
X130429000Y-81026000D01*
X141180235Y-86498665D02*
X142406135Y-86498665D01*
X142406135Y-86498665D02*
X142417800Y-86487000D01*
X138930235Y-85748665D02*
X137776635Y-85748665D01*
X137776635Y-85748665D02*
X136983835Y-86541465D01*
X126290435Y-88294065D02*
X126290435Y-88647635D01*
X126290435Y-88647635D02*
X127076200Y-89433400D01*
X125882400Y-100634800D02*
X126314200Y-100634800D01*
X126314200Y-100634800D02*
X128193800Y-102514400D01*
X124451200Y-100431600D02*
X125679200Y-100431600D01*
X125679200Y-100431600D02*
X125882400Y-100634800D01*
X115330800Y-89852200D02*
X115605800Y-89852200D01*
X115605800Y-89852200D02*
X117155800Y-91402200D01*
X117155800Y-91402200D02*
X117180800Y-91402200D01*
X112522000Y-101396800D02*
X109448600Y-98323400D01*
X109448600Y-98323400D02*
X109448600Y-98247200D01*
X140930235Y-88248665D02*
X140930235Y-89269965D01*
X140930235Y-89269965D02*
X140919200Y-89281000D01*
X140430235Y-88248665D02*
X140430235Y-88792035D01*
X140430235Y-88792035D02*
X140919200Y-89281000D01*
X114935000Y-100067200D02*
X114935000Y-101396800D01*
X112522000Y-100118000D02*
X112522000Y-101396800D01*
X112522000Y-100118000D02*
X112538600Y-100118000D01*
X120331600Y-91414600D02*
X120331600Y-89242000D01*
X120331600Y-89242000D02*
X120319800Y-89230200D01*
X139102200Y-80082400D02*
X140051800Y-80082400D01*
X140051800Y-80082400D02*
X140131800Y-80162400D01*
X125012850Y-94170850D02*
X125012850Y-95458350D01*
X125012850Y-92883350D02*
X125012850Y-94170850D01*
X123725350Y-92883350D02*
X123725350Y-94170850D01*
X122437850Y-92883350D02*
X123725350Y-92883350D01*
X121150350Y-92883350D02*
X122437850Y-92883350D01*
X121150350Y-94170850D02*
X121150350Y-92883350D01*
X121150350Y-94170850D02*
X122437850Y-94170850D01*
X121150350Y-94170850D02*
X121150350Y-95458350D01*
X121150350Y-95458350D02*
X122437850Y-95458350D01*
X122437850Y-94170850D02*
X122437850Y-95458350D01*
X123725350Y-95458350D02*
X122437850Y-95458350D01*
X123725350Y-95458350D02*
X125012850Y-95458350D01*
X123725350Y-96745850D02*
X123725350Y-95458350D01*
X123725350Y-96745850D02*
X125012850Y-96745850D01*
X122437850Y-96745850D02*
X123725350Y-96745850D01*
X121150350Y-96745850D02*
X122437850Y-96745850D01*
X138680235Y-87498665D02*
X139283435Y-87498665D01*
X139283435Y-87498665D02*
X139430235Y-87645465D01*
X139430235Y-87645465D02*
X139430235Y-88248665D01*
X138680235Y-87498665D02*
X140283435Y-87498665D01*
X140283435Y-87498665D02*
X140430235Y-87645465D01*
X140430235Y-87645465D02*
X140430235Y-88248665D01*
X135421635Y-86196265D02*
X136638635Y-86196265D01*
X136638635Y-86196265D02*
X136983835Y-86541465D01*
X135421635Y-86846265D02*
X136679035Y-86846265D01*
X136679035Y-86846265D02*
X136983835Y-86541465D01*
X130826235Y-86820865D02*
X131776835Y-86820865D01*
X131776835Y-86820865D02*
X131802235Y-86846265D01*
X130140800Y-95529400D02*
X131368800Y-95529400D01*
X131368800Y-95529400D02*
X131394200Y-95554800D01*
X126481600Y-95064600D02*
X127094000Y-95064600D01*
X127094000Y-95064600D02*
X127711200Y-95681800D01*
X119681600Y-94564600D02*
X117144400Y-94564600D01*
X117144400Y-94564600D02*
X116763800Y-94945200D01*
X125984000Y-104140000D02*
X125984000Y-104775000D01*
X125984000Y-102793800D02*
X125984000Y-104140000D01*
X125984000Y-104140000D02*
X125415000Y-104709000D01*
X125415000Y-104709000D02*
X124333000Y-104709000D01*
X125984000Y-104775000D02*
X125984000Y-106638600D01*
X146400200Y-81203800D02*
X146525200Y-81203800D01*
X146525200Y-81203800D02*
X153307200Y-87985800D01*
X153307200Y-87985800D02*
X153307200Y-88011000D01*
X142570200Y-81209600D02*
X146394400Y-81209600D01*
X146394400Y-81209600D02*
X146400200Y-81203800D01*
X118160800Y-98552000D02*
X118160800Y-99576800D01*
X119329200Y-89230200D02*
X119329200Y-87976800D01*
X142748000Y-88781800D02*
X142748000Y-87884000D01*
X142748000Y-87884000D02*
X142417800Y-87553800D01*
X141212000Y-91008200D02*
X141212000Y-89864600D01*
X141212000Y-89864600D02*
X142294800Y-88781800D01*
X142294800Y-88781800D02*
X142748000Y-88781800D01*
X130760835Y-89128600D02*
X130760835Y-90213635D01*
X130760835Y-90213635D02*
X130768000Y-90220800D01*
X136956800Y-89712800D02*
X135873400Y-89712800D01*
X135873400Y-89712800D02*
X135864600Y-89721600D01*
X153307200Y-88011000D02*
X153307200Y-90322400D01*
X153307200Y-90322400D02*
X153332600Y-90347800D01*
X116713000Y-110482800D02*
X119303800Y-110482800D01*
X121945400Y-110482800D02*
X119303800Y-110482800D01*
X121945400Y-110482800D02*
X122448600Y-110482800D01*
X122448600Y-110482800D02*
X125984000Y-106947400D01*
X125984000Y-106947400D02*
X125984000Y-106638600D01*
X116738400Y-110508200D02*
X116713000Y-110482800D01*
X119372800Y-110577200D02*
X119303800Y-110508200D01*
X122045400Y-110577200D02*
X121945400Y-110577200D01*
X126288800Y-82981800D02*
X128558200Y-82981800D01*
X128558200Y-82981800D02*
X128574800Y-82998400D01*
X132080000Y-82905600D02*
X128667600Y-82905600D01*
X128667600Y-82905600D02*
X128574800Y-82998400D01*
X103784400Y-96926400D02*
X104178099Y-97320099D01*
X104178099Y-97320099D02*
X104178099Y-101511101D01*
X104178099Y-101511101D02*
X104165400Y-101523800D01*
D45*
X142570200Y-81209600D02*
X142570200Y-82905600D01*
X139252200Y-81432400D02*
X142347400Y-81432400D01*
X142347400Y-81432400D02*
X142570200Y-81209600D01*
D43*
X140930235Y-85748665D02*
X141958865Y-85748665D01*
X141958865Y-85748665D02*
X141960600Y-85750400D01*
X141180235Y-86998665D02*
X141862665Y-86998665D01*
X141862665Y-86998665D02*
X142417800Y-87553800D01*
X141180235Y-87498665D02*
X142362665Y-87498665D01*
X142362665Y-87498665D02*
X142417800Y-87553800D01*
X146191200Y-81209600D02*
X146197000Y-81203800D01*
D45*
X138752200Y-81432400D02*
X139252200Y-81432400D01*
D43*
X126290435Y-85394065D02*
X126290435Y-84306265D01*
X141180235Y-86998665D02*
X140577035Y-86998665D01*
X140577035Y-86998665D02*
X138680235Y-86998665D01*
X135421635Y-87496265D02*
X136948035Y-87496265D01*
X136948035Y-87496265D02*
X136958435Y-87506665D01*
X130751235Y-87320865D02*
X130751235Y-87979665D01*
X130751235Y-87979665D02*
X130760835Y-87989265D01*
X112656200Y-93040200D02*
X112115600Y-93040200D01*
X112115600Y-93040200D02*
X111302800Y-92227400D01*
X124331600Y-91414600D02*
X124331600Y-90425400D01*
X124331600Y-90425400D02*
X124333000Y-90424000D01*
X121831600Y-91414600D02*
X121831600Y-90437200D01*
X121831600Y-90437200D02*
X121818400Y-90424000D01*
X126481600Y-94564600D02*
X128529200Y-94564600D01*
X128529200Y-94564600D02*
X129040800Y-95076200D01*
X129040800Y-95076200D02*
X129040800Y-95529400D01*
X126481600Y-96564600D02*
X128458800Y-96564600D01*
X128458800Y-96564600D02*
X129040800Y-95982600D01*
X129040800Y-95982600D02*
X129040800Y-95529400D01*
X119681600Y-95564600D02*
X118678600Y-95564600D01*
X118678600Y-95564600D02*
X118668800Y-95554800D01*
X117180800Y-89852200D02*
X117205800Y-89852200D01*
X117205800Y-89852200D02*
X119418200Y-92064600D01*
X119418200Y-92064600D02*
X119681600Y-92064600D01*
X117180800Y-89852200D02*
X117365600Y-89852200D01*
X117186800Y-87960200D02*
X117186800Y-89846200D01*
X115330800Y-91402200D02*
X115355800Y-91402200D01*
X115355800Y-91402200D02*
X116518200Y-92564600D01*
X116518200Y-92564600D02*
X116950000Y-92564600D01*
X119681600Y-92564600D02*
X116950000Y-92564600D01*
X115330800Y-91402200D02*
X113490800Y-91402200D01*
D45*
X138502200Y-80082400D02*
X138502200Y-79129200D01*
X141117000Y-78759600D02*
X142570200Y-78759600D01*
X138502200Y-79129200D02*
X138871800Y-78759600D01*
X138871800Y-78759600D02*
X141117000Y-78759600D01*
D43*
X119681600Y-93064600D02*
X113580600Y-93064600D01*
X113580600Y-93064600D02*
X113556200Y-93040200D01*
X119680600Y-93065600D02*
X119681600Y-93064600D01*
X122331600Y-91414600D02*
X122331600Y-82138400D01*
X122331600Y-82138400D02*
X128270000Y-76200000D01*
X128270000Y-73660000D02*
X128270000Y-76200000D01*
X129540000Y-72390000D02*
X128270000Y-73660000D01*
X129540000Y-74930000D02*
X129540000Y-77749400D01*
X129540000Y-77749400D02*
X122831600Y-84457800D01*
X122831600Y-84457800D02*
X122831600Y-91414600D01*
X125331600Y-91414600D02*
X125331600Y-90898600D01*
X125331600Y-90898600D02*
X125755400Y-90474800D01*
X120916699Y-74448415D02*
X121536800Y-73828314D01*
X120831600Y-91414600D02*
X120831600Y-90889600D01*
X121536800Y-73828314D02*
X121536800Y-72773200D01*
X120831600Y-90889600D02*
X120890000Y-90831200D01*
X120890000Y-90831200D02*
X120890000Y-80158864D01*
X120890000Y-80158864D02*
X121536800Y-79512064D01*
X121536800Y-79512064D02*
X121536800Y-76031686D01*
X121536800Y-76031686D02*
X120916699Y-75411585D01*
X121536800Y-72773200D02*
X121920000Y-72390000D01*
X120916699Y-75411585D02*
X120916699Y-74448415D01*
D46*
X121615000Y-72695000D02*
X121920000Y-72390000D01*
D43*
X121920000Y-75313200D02*
X121920000Y-74930000D01*
X121273200Y-80362238D02*
X121920000Y-79715438D01*
X121920000Y-79715438D02*
X121920000Y-75313200D01*
X121331600Y-91414600D02*
X121331600Y-90889600D01*
X121331600Y-90889600D02*
X121273200Y-90831200D01*
X121273200Y-90831200D02*
X121273200Y-80362238D01*
D46*
X121920000Y-75235000D02*
X121920000Y-74930000D01*
D43*
X118271400Y-93564600D02*
X118241799Y-93594201D01*
X104590851Y-96462851D02*
X104178099Y-96050099D01*
X118241799Y-93594201D02*
X109249947Y-93594201D01*
X109249947Y-93594201D02*
X106381297Y-96462851D01*
X106381297Y-96462851D02*
X104590851Y-96462851D01*
X104178099Y-96050099D02*
X103784400Y-95656400D01*
X119681600Y-93564600D02*
X118271400Y-93564600D01*
X102514400Y-95656400D02*
X102285800Y-95656400D01*
X102285800Y-95656400D02*
X101371400Y-96570800D01*
X119681600Y-96064600D02*
X118311400Y-96064600D01*
X118311400Y-96064600D02*
X118287800Y-96088200D01*
X102311200Y-99568000D02*
X102311200Y-97129600D01*
X102311200Y-97129600D02*
X102514400Y-96926400D01*
X119681600Y-96564600D02*
X118700400Y-96564600D01*
X118700400Y-96564600D02*
X118694200Y-96570800D01*
X126481600Y-97064600D02*
X126481600Y-97564600D01*
X126481600Y-95564600D02*
X126481600Y-96064600D01*
X138575068Y-89890600D02*
X140462000Y-89890600D01*
X147015200Y-87299800D02*
X149484600Y-87299800D01*
X149484600Y-87299800D02*
X152432600Y-90247800D01*
X152432600Y-90247800D02*
X152432600Y-90347800D01*
X126009400Y-89966800D02*
X127914400Y-89966800D01*
X125290435Y-88294065D02*
X125290435Y-89247835D01*
X125290435Y-89247835D02*
X126009400Y-89966800D01*
X123831600Y-91414600D02*
X123831600Y-89952900D01*
X123831600Y-89952900D02*
X125290435Y-88494065D01*
X125290435Y-88494065D02*
X125290435Y-88294065D01*
X138575068Y-89890600D02*
X137130934Y-88446466D01*
X129434734Y-88446466D02*
X133248400Y-88446466D01*
X133248400Y-88446466D02*
X137130934Y-88446466D01*
X133821635Y-87496265D02*
X133821635Y-87899465D01*
X133821635Y-87899465D02*
X133274634Y-88446466D01*
X133274634Y-88446466D02*
X133248400Y-88446466D01*
X129476235Y-87320865D02*
X129476235Y-88404965D01*
X129476235Y-88404965D02*
X129434734Y-88446466D01*
X127914400Y-89966800D02*
X129434734Y-88446466D01*
X137130934Y-88446466D02*
X137591800Y-87985600D01*
X137591800Y-87985600D02*
X137591800Y-87054898D01*
X137591800Y-87054898D02*
X138148033Y-86498665D01*
X138148033Y-86498665D02*
X138680235Y-86498665D01*
X129276235Y-87320865D02*
X129476235Y-87320865D01*
X147015200Y-84759800D02*
X149256000Y-84759800D01*
X149256000Y-84759800D02*
X152407200Y-87911000D01*
X152407200Y-87911000D02*
X152407200Y-88011000D01*
X139044570Y-84759800D02*
X144907000Y-84759800D01*
X144907000Y-84759800D02*
X147015200Y-84759800D01*
X127359264Y-83849064D02*
X128270000Y-84759800D01*
X128270000Y-84759800D02*
X132969000Y-84759800D01*
X132969000Y-84759800D02*
X139044570Y-84759800D01*
X133821635Y-86196265D02*
X133821635Y-85612435D01*
X133821635Y-85612435D02*
X132969000Y-84759800D01*
X128474835Y-86347665D02*
X128474835Y-84964635D01*
X128474835Y-84964635D02*
X128270000Y-84759800D01*
X125290435Y-85394065D02*
X125290435Y-84629607D01*
X125290435Y-84629607D02*
X126070978Y-83849064D01*
X126070978Y-83849064D02*
X127359264Y-83849064D01*
X139044570Y-84759800D02*
X139430235Y-85145465D01*
X139430235Y-85145465D02*
X139430235Y-85748665D01*
X123977400Y-89154000D02*
X123977400Y-86278900D01*
X123977400Y-86278900D02*
X124862235Y-85394065D01*
X124862235Y-85394065D02*
X125290435Y-85394065D01*
X123331600Y-89799800D02*
X123977400Y-89154000D01*
X123331600Y-91414600D02*
X123331600Y-89799800D01*
X129476235Y-86820865D02*
X128948035Y-86820865D01*
X128948035Y-86820865D02*
X128474835Y-86347665D01*
X123351200Y-100431600D02*
X123351200Y-102405400D01*
X123351200Y-102405400D02*
X123754800Y-102809000D01*
X123754800Y-102809000D02*
X124333000Y-102809000D01*
X123331600Y-98214600D02*
X123331600Y-100412000D01*
X123331600Y-100412000D02*
X123351200Y-100431600D01*
X119681600Y-95064600D02*
X118092200Y-95064600D01*
X118092200Y-95064600D02*
X116916200Y-96240600D01*
X116916200Y-96240600D02*
X116916200Y-97815400D01*
X116916200Y-97815400D02*
X115764400Y-98967200D01*
X115764400Y-98967200D02*
X114935000Y-98967200D01*
X112522000Y-99018000D02*
X114884200Y-99018000D01*
X114884200Y-99018000D02*
X114935000Y-98967200D01*
X112535000Y-95859600D02*
X112535000Y-99005000D01*
X112535000Y-99005000D02*
X112522000Y-99018000D01*
X119681600Y-94064600D02*
X115930000Y-94064600D01*
X115930000Y-94064600D02*
X114935000Y-95059600D01*
X114935000Y-95059600D02*
X114935000Y-95859600D01*
X128905000Y-92049600D02*
X145660110Y-92049600D01*
X145660110Y-92049600D02*
X147015200Y-93404690D01*
X147015200Y-93404690D02*
X147015200Y-94361000D01*
X128905000Y-92049600D02*
X126496600Y-92049600D01*
X126496600Y-92049600D02*
X126481600Y-92064600D01*
X129476235Y-86320865D02*
X129476235Y-85534765D01*
X129476235Y-85534765D02*
X129489200Y-85521800D01*
X132486400Y-92557600D02*
X138649458Y-92557600D01*
X138649458Y-92557600D02*
X138656458Y-92564600D01*
X138656458Y-92564600D02*
X140189600Y-92564600D01*
X140189600Y-92564600D02*
X144526000Y-96901000D01*
X144526000Y-96901000D02*
X147015200Y-96901000D01*
X132486400Y-92557600D02*
X126488600Y-92557600D01*
X126488600Y-92557600D02*
X126481600Y-92564600D01*
X133821635Y-86846265D02*
X132564235Y-86846265D01*
X136389000Y-93564600D02*
X138404600Y-95580200D01*
X138404600Y-95580200D02*
X144805400Y-101981000D01*
X144805400Y-101981000D02*
X147015200Y-101981000D01*
X139930235Y-88248665D02*
X139930235Y-89253965D01*
X139930235Y-89253965D02*
X139928600Y-89255600D01*
X126481600Y-93564600D02*
X136389000Y-93564600D01*
X144856200Y-99441000D02*
X147015200Y-99441000D01*
X138930235Y-88248665D02*
X138930235Y-89263365D01*
X138930235Y-89263365D02*
X138912600Y-89281000D01*
X138479800Y-93064600D02*
X144856200Y-99441000D01*
X126481600Y-93064600D02*
X138479800Y-93064600D01*
X126644400Y-90627200D02*
X126619000Y-90627200D01*
X126619000Y-90627200D02*
X125831600Y-91414600D01*
X124831600Y-91414600D02*
X124831600Y-90585800D01*
X124831600Y-90585800D02*
X125120400Y-90297000D01*
X119681600Y-97564600D02*
X119681600Y-102529600D01*
X119681600Y-102529600D02*
X116813000Y-105398200D01*
X116813000Y-105398200D02*
X116713000Y-105398200D01*
X119681600Y-97564600D02*
X119456600Y-97564600D01*
X116713000Y-109582800D02*
X116713000Y-107098200D01*
X119303800Y-105372800D02*
X119303800Y-104869600D01*
X119303800Y-104869600D02*
X121331600Y-102841800D01*
X121331600Y-102841800D02*
X121331600Y-98767800D01*
X121331600Y-98767800D02*
X121331600Y-98214600D01*
X119303800Y-109582800D02*
X119303800Y-107072800D01*
X119303800Y-107072800D02*
X119303800Y-107576000D01*
X121831600Y-98214600D02*
X121831600Y-105259000D01*
X121831600Y-105259000D02*
X121945400Y-105372800D01*
X121945400Y-109582800D02*
X121945400Y-109179600D01*
X121945400Y-109179600D02*
X121945400Y-107072800D01*
X137279800Y-98214600D02*
X143586200Y-104521000D01*
X143586200Y-104521000D02*
X147015200Y-104521000D01*
X125831600Y-98214600D02*
X137279800Y-98214600D01*
X125331600Y-98214600D02*
X125331600Y-98767800D01*
X125331600Y-98767800D02*
X133624800Y-107061000D01*
X133624800Y-107061000D02*
X145304510Y-107061000D01*
X145304510Y-107061000D02*
X147015200Y-107061000D01*
X126481600Y-94064600D02*
X133333000Y-94064600D01*
D47*
G36*
X151359800Y-80645000D02*
X151367586Y-80684143D01*
X151367586Y-80724051D01*
X151850951Y-83154090D01*
X151850951Y-83154091D01*
X151873013Y-83207352D01*
X151911453Y-83300156D01*
X151911454Y-83300157D01*
X153287961Y-85360245D01*
X153399755Y-85472039D01*
X155459842Y-86848546D01*
X155459843Y-86848547D01*
X155605909Y-86909049D01*
X158035949Y-87392414D01*
X158075857Y-87392414D01*
X158115000Y-87400200D01*
X160630800Y-87400200D01*
X160630800Y-115799800D01*
X158115000Y-115799800D01*
X158075857Y-115807586D01*
X158035949Y-115807586D01*
X155605909Y-116290951D01*
X155459843Y-116351453D01*
X153399755Y-117727961D01*
X153287961Y-117839755D01*
X151911454Y-119899843D01*
X151911453Y-119899844D01*
X151850951Y-120045910D01*
X151367586Y-122475949D01*
X151367586Y-122515857D01*
X151359800Y-122555000D01*
X151359800Y-134214800D01*
X102640200Y-134214800D01*
X102640200Y-131197326D01*
X104088862Y-131197326D01*
X104385987Y-131916424D01*
X104935682Y-132467079D01*
X105654261Y-132765459D01*
X106432326Y-132766138D01*
X107151424Y-132469013D01*
X107702079Y-131919318D01*
X108000459Y-131200739D01*
X108000461Y-131197326D01*
X145998862Y-131197326D01*
X146295987Y-131916424D01*
X146845682Y-132467079D01*
X147564261Y-132765459D01*
X148342326Y-132766138D01*
X149061424Y-132469013D01*
X149612079Y-131919318D01*
X149910459Y-131200739D01*
X149911138Y-130422674D01*
X149614013Y-129703576D01*
X149064318Y-129152921D01*
X148345739Y-128854541D01*
X147567674Y-128853862D01*
X146848576Y-129150987D01*
X146297921Y-129700682D01*
X145999541Y-130419261D01*
X145998862Y-131197326D01*
X108000461Y-131197326D01*
X108001138Y-130422674D01*
X107704013Y-129703576D01*
X107154318Y-129152921D01*
X106435739Y-128854541D01*
X105657674Y-128853862D01*
X104938576Y-129150987D01*
X104387921Y-129700682D01*
X104089541Y-130419261D01*
X104088862Y-131197326D01*
X102640200Y-131197326D01*
X102640200Y-122555000D01*
X102632414Y-122515857D01*
X102632414Y-122475949D01*
X102149049Y-120045909D01*
X102088547Y-119899843D01*
X100712039Y-117839755D01*
X100600245Y-117727961D01*
X98540157Y-116351454D01*
X98540156Y-116351453D01*
X98454593Y-116316012D01*
X98394091Y-116290951D01*
X98394090Y-116290951D01*
X95964051Y-115807586D01*
X95924143Y-115807586D01*
X95885000Y-115799800D01*
X93369200Y-115799800D01*
X93369200Y-106798200D01*
X115976331Y-106798200D01*
X115976331Y-107398200D01*
X115999356Y-107520565D01*
X116071673Y-107632949D01*
X116182017Y-107708344D01*
X116281200Y-107728429D01*
X116281200Y-109075227D01*
X116178251Y-109141473D01*
X116102856Y-109251817D01*
X116076331Y-109382800D01*
X116076331Y-109782800D01*
X116099356Y-109905165D01*
X116171673Y-110017549D01*
X116192895Y-110032050D01*
X116178251Y-110041473D01*
X116102856Y-110151817D01*
X116076331Y-110282800D01*
X116076331Y-110682800D01*
X116099356Y-110805165D01*
X116171673Y-110917549D01*
X116282017Y-110992944D01*
X116413000Y-111019469D01*
X117013000Y-111019469D01*
X117135365Y-110996444D01*
X117247749Y-110924127D01*
X117254259Y-110914600D01*
X118760575Y-110914600D01*
X118762473Y-110917549D01*
X118872817Y-110992944D01*
X119003800Y-111019469D01*
X119603800Y-111019469D01*
X119726165Y-110996444D01*
X119838549Y-110924127D01*
X119845059Y-110914600D01*
X121402175Y-110914600D01*
X121404073Y-110917549D01*
X121514417Y-110992944D01*
X121645400Y-111019469D01*
X122245400Y-111019469D01*
X122367765Y-110996444D01*
X122480149Y-110924127D01*
X122492645Y-110905839D01*
X122613843Y-110881731D01*
X122753929Y-110788129D01*
X126289326Y-107252731D01*
X126289329Y-107252729D01*
X126382931Y-107112643D01*
X126382932Y-107112642D01*
X126415801Y-106947400D01*
X126415800Y-106947395D01*
X126415800Y-104140005D01*
X126415801Y-104140000D01*
X126415800Y-104139995D01*
X126415800Y-103116437D01*
X126435931Y-103096341D01*
X126517307Y-102900365D01*
X126517492Y-102688166D01*
X126436458Y-102492048D01*
X126286541Y-102341869D01*
X126090565Y-102260493D01*
X125878366Y-102260308D01*
X125682248Y-102341342D01*
X125532069Y-102491259D01*
X125450693Y-102687235D01*
X125450508Y-102899434D01*
X125531542Y-103095552D01*
X125552200Y-103116246D01*
X125552200Y-103961143D01*
X125236142Y-104277200D01*
X125044669Y-104277200D01*
X125044669Y-104109000D01*
X125021644Y-103986635D01*
X124949327Y-103874251D01*
X124838983Y-103798856D01*
X124708000Y-103772331D01*
X123958000Y-103772331D01*
X123835635Y-103795356D01*
X123723251Y-103867673D01*
X123647856Y-103978017D01*
X123621331Y-104109000D01*
X123621331Y-105309000D01*
X123644356Y-105431365D01*
X123716673Y-105543749D01*
X123827017Y-105619144D01*
X123958000Y-105645669D01*
X124708000Y-105645669D01*
X124830365Y-105622644D01*
X124942749Y-105550327D01*
X125018144Y-105439983D01*
X125044669Y-105309000D01*
X125044669Y-105140800D01*
X125415000Y-105140800D01*
X125552200Y-105113509D01*
X125552200Y-106768543D01*
X122582069Y-109738673D01*
X122582069Y-109382800D01*
X122559044Y-109260435D01*
X122486727Y-109148051D01*
X122377200Y-109073214D01*
X122377200Y-107703485D01*
X122467765Y-107686444D01*
X122580149Y-107614127D01*
X122655544Y-107503783D01*
X122682069Y-107372800D01*
X122682069Y-106772800D01*
X122659044Y-106650435D01*
X122586727Y-106538051D01*
X122476383Y-106462656D01*
X122345400Y-106436131D01*
X121545400Y-106436131D01*
X121423035Y-106459156D01*
X121310651Y-106531473D01*
X121235256Y-106641817D01*
X121208731Y-106772800D01*
X121208731Y-107372800D01*
X121231756Y-107495165D01*
X121304073Y-107607549D01*
X121414417Y-107682944D01*
X121513600Y-107703029D01*
X121513600Y-109075227D01*
X121410651Y-109141473D01*
X121335256Y-109251817D01*
X121308731Y-109382800D01*
X121308731Y-109782800D01*
X121331756Y-109905165D01*
X121404073Y-110017549D01*
X121425295Y-110032050D01*
X121410651Y-110041473D01*
X121404141Y-110051000D01*
X119847025Y-110051000D01*
X119845127Y-110048051D01*
X119823905Y-110033550D01*
X119838549Y-110024127D01*
X119913944Y-109913783D01*
X119940469Y-109782800D01*
X119940469Y-109382800D01*
X119917444Y-109260435D01*
X119845127Y-109148051D01*
X119735600Y-109073214D01*
X119735600Y-107703485D01*
X119826165Y-107686444D01*
X119938549Y-107614127D01*
X120013944Y-107503783D01*
X120040469Y-107372800D01*
X120040469Y-106772800D01*
X120017444Y-106650435D01*
X119945127Y-106538051D01*
X119834783Y-106462656D01*
X119703800Y-106436131D01*
X118903800Y-106436131D01*
X118781435Y-106459156D01*
X118669051Y-106531473D01*
X118593656Y-106641817D01*
X118567131Y-106772800D01*
X118567131Y-107372800D01*
X118590156Y-107495165D01*
X118662473Y-107607549D01*
X118772817Y-107682944D01*
X118872000Y-107703029D01*
X118872000Y-109075227D01*
X118769051Y-109141473D01*
X118693656Y-109251817D01*
X118667131Y-109382800D01*
X118667131Y-109782800D01*
X118690156Y-109905165D01*
X118762473Y-110017549D01*
X118783695Y-110032050D01*
X118769051Y-110041473D01*
X118762541Y-110051000D01*
X117256225Y-110051000D01*
X117254327Y-110048051D01*
X117233105Y-110033550D01*
X117247749Y-110024127D01*
X117323144Y-109913783D01*
X117349669Y-109782800D01*
X117349669Y-109382800D01*
X117326644Y-109260435D01*
X117254327Y-109148051D01*
X117144800Y-109073214D01*
X117144800Y-107728885D01*
X117235365Y-107711844D01*
X117347749Y-107639527D01*
X117423144Y-107529183D01*
X117449669Y-107398200D01*
X117449669Y-106798200D01*
X117426644Y-106675835D01*
X117354327Y-106563451D01*
X117243983Y-106488056D01*
X117113000Y-106461531D01*
X116313000Y-106461531D01*
X116190635Y-106484556D01*
X116078251Y-106556873D01*
X116002856Y-106667217D01*
X115976331Y-106798200D01*
X93369200Y-106798200D01*
X93369200Y-95321955D01*
X99091487Y-95321955D01*
X99322048Y-95879957D01*
X99748598Y-96307251D01*
X100306196Y-96538786D01*
X100838028Y-96539250D01*
X100837908Y-96676434D01*
X100838947Y-96678950D01*
X100308845Y-96678487D01*
X99750843Y-96909048D01*
X99323549Y-97335598D01*
X99092014Y-97893196D01*
X99091487Y-98496955D01*
X99322048Y-99054957D01*
X99748598Y-99482251D01*
X100306196Y-99713786D01*
X100909955Y-99714313D01*
X101467957Y-99483752D01*
X101879400Y-99073025D01*
X101879400Y-99245363D01*
X101859269Y-99265459D01*
X101777893Y-99461435D01*
X101777708Y-99673634D01*
X101858742Y-99869752D01*
X102008659Y-100019931D01*
X102204635Y-100101307D01*
X102416834Y-100101492D01*
X102612952Y-100020458D01*
X102763131Y-99870541D01*
X102844507Y-99674565D01*
X102844692Y-99462366D01*
X102763658Y-99266248D01*
X102743000Y-99245554D01*
X102743000Y-98935237D01*
X102981940Y-99034454D01*
X103315397Y-99034745D01*
X103623582Y-98907405D01*
X103746299Y-98784902D01*
X103746299Y-101188486D01*
X103713469Y-101221259D01*
X103632093Y-101417235D01*
X103631908Y-101629434D01*
X103712942Y-101825552D01*
X103862859Y-101975731D01*
X104058835Y-102057107D01*
X104271034Y-102057292D01*
X104467152Y-101976258D01*
X104617331Y-101826341D01*
X104698707Y-101630365D01*
X104698892Y-101418166D01*
X104617858Y-101222048D01*
X104609899Y-101214075D01*
X104609899Y-100403750D01*
X111637000Y-100403750D01*
X111637000Y-100544309D01*
X111733673Y-100777698D01*
X111912301Y-100956327D01*
X112145690Y-101053000D01*
X112238250Y-101053000D01*
X112397000Y-100894250D01*
X112397000Y-100245000D01*
X112647000Y-100245000D01*
X112647000Y-100894250D01*
X112805750Y-101053000D01*
X112898310Y-101053000D01*
X113131699Y-100956327D01*
X113310327Y-100777698D01*
X113407000Y-100544309D01*
X113407000Y-100403750D01*
X113356200Y-100352950D01*
X114050000Y-100352950D01*
X114050000Y-100493509D01*
X114146673Y-100726898D01*
X114325301Y-100905527D01*
X114558690Y-101002200D01*
X114651250Y-101002200D01*
X114810000Y-100843450D01*
X114810000Y-100194200D01*
X115060000Y-100194200D01*
X115060000Y-100843450D01*
X115218750Y-101002200D01*
X115311310Y-101002200D01*
X115407033Y-100962550D01*
X117275800Y-100962550D01*
X117275800Y-101103109D01*
X117372473Y-101336498D01*
X117551101Y-101515127D01*
X117784490Y-101611800D01*
X117877050Y-101611800D01*
X118035800Y-101453050D01*
X118035800Y-100803800D01*
X118285800Y-100803800D01*
X118285800Y-101453050D01*
X118444550Y-101611800D01*
X118537110Y-101611800D01*
X118770499Y-101515127D01*
X118949127Y-101336498D01*
X119045800Y-101103109D01*
X119045800Y-100962550D01*
X118887050Y-100803800D01*
X118285800Y-100803800D01*
X118035800Y-100803800D01*
X117434550Y-100803800D01*
X117275800Y-100962550D01*
X115407033Y-100962550D01*
X115544699Y-100905527D01*
X115723327Y-100726898D01*
X115820000Y-100493509D01*
X115820000Y-100352950D01*
X115717541Y-100250491D01*
X117275800Y-100250491D01*
X117275800Y-100391050D01*
X117434550Y-100549800D01*
X118035800Y-100549800D01*
X118035800Y-100529800D01*
X118285800Y-100529800D01*
X118285800Y-100549800D01*
X118887050Y-100549800D01*
X119045800Y-100391050D01*
X119045800Y-100250491D01*
X118949127Y-100017102D01*
X118770499Y-99838473D01*
X118747469Y-99828934D01*
X118747469Y-99276800D01*
X118724444Y-99154435D01*
X118652127Y-99042051D01*
X118592600Y-99001378D01*
X118592600Y-98874637D01*
X118612731Y-98854541D01*
X118694107Y-98658565D01*
X118694292Y-98446366D01*
X118613258Y-98250248D01*
X118463341Y-98100069D01*
X118267365Y-98018693D01*
X118055166Y-98018508D01*
X117859048Y-98099542D01*
X117708869Y-98249459D01*
X117627493Y-98445435D01*
X117627308Y-98657634D01*
X117708342Y-98853752D01*
X117729000Y-98874446D01*
X117729000Y-99001401D01*
X117676051Y-99035473D01*
X117600656Y-99145817D01*
X117574131Y-99276800D01*
X117574131Y-99828934D01*
X117551101Y-99838473D01*
X117372473Y-100017102D01*
X117275800Y-100250491D01*
X115717541Y-100250491D01*
X115661250Y-100194200D01*
X115060000Y-100194200D01*
X114810000Y-100194200D01*
X114208750Y-100194200D01*
X114050000Y-100352950D01*
X113356200Y-100352950D01*
X113248250Y-100245000D01*
X112647000Y-100245000D01*
X112397000Y-100245000D01*
X111795750Y-100245000D01*
X111637000Y-100403750D01*
X104609899Y-100403750D01*
X104609899Y-99263171D01*
X104828598Y-99482251D01*
X105386196Y-99713786D01*
X105989955Y-99714313D01*
X106547957Y-99483752D01*
X106975251Y-99057202D01*
X107206786Y-98499604D01*
X107207313Y-97895845D01*
X106976752Y-97337843D01*
X106550202Y-96910549D01*
X106469610Y-96877084D01*
X106546540Y-96861782D01*
X106686626Y-96768180D01*
X109428805Y-94026001D01*
X111818685Y-94026001D01*
X111712635Y-94045956D01*
X111600251Y-94118273D01*
X111524856Y-94228617D01*
X111498331Y-94359600D01*
X111498331Y-97359600D01*
X111521356Y-97481965D01*
X111593673Y-97594349D01*
X111704017Y-97669744D01*
X111835000Y-97696269D01*
X112103200Y-97696269D01*
X112103200Y-98434236D01*
X112037251Y-98476673D01*
X111961856Y-98587017D01*
X111935331Y-98718000D01*
X111935331Y-99270134D01*
X111912301Y-99279673D01*
X111733673Y-99458302D01*
X111637000Y-99691691D01*
X111637000Y-99832250D01*
X111795750Y-99991000D01*
X112397000Y-99991000D01*
X112397000Y-99971000D01*
X112647000Y-99971000D01*
X112647000Y-99991000D01*
X113248250Y-99991000D01*
X113407000Y-99832250D01*
X113407000Y-99691691D01*
X113310327Y-99458302D01*
X113301825Y-99449800D01*
X114129153Y-99449800D01*
X114050000Y-99640891D01*
X114050000Y-99781450D01*
X114208750Y-99940200D01*
X114810000Y-99940200D01*
X114810000Y-99920200D01*
X115060000Y-99920200D01*
X115060000Y-99940200D01*
X115661250Y-99940200D01*
X115820000Y-99781450D01*
X115820000Y-99640891D01*
X115723327Y-99407502D01*
X115714825Y-99399000D01*
X115764400Y-99399000D01*
X115929643Y-99366131D01*
X116069729Y-99272529D01*
X117221529Y-98120729D01*
X117221882Y-98120200D01*
X117315131Y-97980643D01*
X117348000Y-97815400D01*
X117348000Y-96419458D01*
X117754466Y-96012992D01*
X117754308Y-96193834D01*
X117835342Y-96389952D01*
X117985259Y-96540131D01*
X118160763Y-96613006D01*
X118160708Y-96676434D01*
X118241742Y-96872552D01*
X118391659Y-97022731D01*
X118587635Y-97104107D01*
X118799834Y-97104292D01*
X118994931Y-97023680D01*
X118994931Y-97189600D01*
X119017956Y-97311965D01*
X119020102Y-97315301D01*
X118994931Y-97439600D01*
X118994931Y-97689600D01*
X119017956Y-97811965D01*
X119090273Y-97924349D01*
X119200617Y-97999744D01*
X119249800Y-98009704D01*
X119249800Y-102350742D01*
X116839011Y-104761531D01*
X116313000Y-104761531D01*
X116190635Y-104784556D01*
X116078251Y-104856873D01*
X116002856Y-104967217D01*
X115976331Y-105098200D01*
X115976331Y-105698200D01*
X115999356Y-105820565D01*
X116071673Y-105932949D01*
X116182017Y-106008344D01*
X116313000Y-106034869D01*
X117113000Y-106034869D01*
X117235365Y-106011844D01*
X117347749Y-105939527D01*
X117423144Y-105829183D01*
X117449669Y-105698200D01*
X117449669Y-105372189D01*
X119986929Y-102834929D01*
X120069916Y-102710729D01*
X120080531Y-102694843D01*
X120113400Y-102529600D01*
X120113400Y-98882395D01*
X120206600Y-98901269D01*
X120456600Y-98901269D01*
X120578965Y-98878244D01*
X120582301Y-98876098D01*
X120706600Y-98901269D01*
X120899800Y-98901269D01*
X120899800Y-102662942D01*
X118998471Y-104564271D01*
X118904869Y-104704357D01*
X118898345Y-104737158D01*
X118781435Y-104759156D01*
X118669051Y-104831473D01*
X118593656Y-104941817D01*
X118567131Y-105072800D01*
X118567131Y-105672800D01*
X118590156Y-105795165D01*
X118662473Y-105907549D01*
X118772817Y-105982944D01*
X118903800Y-106009469D01*
X119703800Y-106009469D01*
X119826165Y-105986444D01*
X119938549Y-105914127D01*
X120013944Y-105803783D01*
X120040469Y-105672800D01*
X120040469Y-105072800D01*
X120017444Y-104950435D01*
X119945472Y-104838586D01*
X121399800Y-103384258D01*
X121399800Y-104774107D01*
X121310651Y-104831473D01*
X121235256Y-104941817D01*
X121208731Y-105072800D01*
X121208731Y-105672800D01*
X121231756Y-105795165D01*
X121304073Y-105907549D01*
X121414417Y-105982944D01*
X121545400Y-106009469D01*
X122345400Y-106009469D01*
X122467765Y-105986444D01*
X122580149Y-105914127D01*
X122655544Y-105803783D01*
X122682069Y-105672800D01*
X122682069Y-105072800D01*
X122659044Y-104950435D01*
X122586727Y-104838051D01*
X122476383Y-104762656D01*
X122345400Y-104736131D01*
X122263400Y-104736131D01*
X122263400Y-99046550D01*
X122269100Y-99040850D01*
X122269100Y-98683949D01*
X122293269Y-98564600D01*
X122293269Y-98067600D01*
X122369931Y-98067600D01*
X122369931Y-98564600D01*
X122392956Y-98686965D01*
X122394100Y-98688743D01*
X122394100Y-99040850D01*
X122552850Y-99199600D01*
X122582910Y-99199600D01*
X122816299Y-99102927D01*
X122899800Y-99019426D01*
X122899800Y-99886639D01*
X122816451Y-99940273D01*
X122741056Y-100050617D01*
X122714531Y-100181600D01*
X122714531Y-100681600D01*
X122737556Y-100803965D01*
X122809873Y-100916349D01*
X122919400Y-100991186D01*
X122919400Y-102405400D01*
X122952269Y-102570643D01*
X122990966Y-102628557D01*
X123045871Y-102710729D01*
X123449469Y-103114326D01*
X123449471Y-103114329D01*
X123498560Y-103147129D01*
X123589558Y-103207932D01*
X123621331Y-103214252D01*
X123621331Y-103409000D01*
X123644356Y-103531365D01*
X123716673Y-103643749D01*
X123827017Y-103719144D01*
X123958000Y-103745669D01*
X124708000Y-103745669D01*
X124830365Y-103722644D01*
X124942749Y-103650327D01*
X125018144Y-103539983D01*
X125044669Y-103409000D01*
X125044669Y-102209000D01*
X125021644Y-102086635D01*
X124949327Y-101974251D01*
X124838983Y-101898856D01*
X124708000Y-101872331D01*
X123958000Y-101872331D01*
X123835635Y-101895356D01*
X123783000Y-101929226D01*
X123783000Y-101211425D01*
X123791502Y-101219927D01*
X124024891Y-101316600D01*
X124165450Y-101316600D01*
X124324200Y-101157850D01*
X124324200Y-100556600D01*
X124578200Y-100556600D01*
X124578200Y-101157850D01*
X124736950Y-101316600D01*
X124877509Y-101316600D01*
X125110898Y-101219927D01*
X125289527Y-101041299D01*
X125386200Y-100807910D01*
X125386200Y-100715350D01*
X125227450Y-100556600D01*
X124578200Y-100556600D01*
X124324200Y-100556600D01*
X124304200Y-100556600D01*
X124304200Y-100306600D01*
X124324200Y-100306600D01*
X124324200Y-99705350D01*
X124578200Y-99705350D01*
X124578200Y-100306600D01*
X125227450Y-100306600D01*
X125386200Y-100147850D01*
X125386200Y-100055290D01*
X125289527Y-99821901D01*
X125110898Y-99643273D01*
X124877509Y-99546600D01*
X124736950Y-99546600D01*
X124578200Y-99705350D01*
X124324200Y-99705350D01*
X124165450Y-99546600D01*
X124024891Y-99546600D01*
X123791502Y-99643273D01*
X123763400Y-99671375D01*
X123763400Y-98901269D01*
X123956600Y-98901269D01*
X124078965Y-98878244D01*
X124082301Y-98876098D01*
X124206600Y-98901269D01*
X124456600Y-98901269D01*
X124578965Y-98878244D01*
X124582301Y-98876098D01*
X124706600Y-98901269D01*
X124926349Y-98901269D01*
X124932669Y-98933043D01*
X125014129Y-99054957D01*
X125026271Y-99073129D01*
X133319471Y-107366329D01*
X133459557Y-107459931D01*
X133624800Y-107492800D01*
X145235486Y-107492800D01*
X145458802Y-107827016D01*
X145810253Y-108061848D01*
X146224818Y-108144310D01*
X147805582Y-108144310D01*
X148220147Y-108061848D01*
X148571598Y-107827016D01*
X148806430Y-107475565D01*
X148888892Y-107061000D01*
X148806430Y-106646435D01*
X148571598Y-106294984D01*
X148220147Y-106060152D01*
X147805582Y-105977690D01*
X146224818Y-105977690D01*
X145810253Y-106060152D01*
X145458802Y-106294984D01*
X145235486Y-106629200D01*
X133803658Y-106629200D01*
X126056861Y-98882403D01*
X126078965Y-98878244D01*
X126191349Y-98805927D01*
X126266744Y-98695583D01*
X126276704Y-98646400D01*
X137100942Y-98646400D01*
X143280869Y-104826326D01*
X143280871Y-104826329D01*
X143352580Y-104874243D01*
X143420957Y-104919931D01*
X143586200Y-104952800D01*
X145235486Y-104952800D01*
X145458802Y-105287016D01*
X145810253Y-105521848D01*
X146224818Y-105604310D01*
X147805582Y-105604310D01*
X148220147Y-105521848D01*
X148571598Y-105287016D01*
X148806430Y-104935565D01*
X148888892Y-104521000D01*
X148806430Y-104106435D01*
X148571598Y-103754984D01*
X148220147Y-103520152D01*
X147805582Y-103437690D01*
X146224818Y-103437690D01*
X145810253Y-103520152D01*
X145458802Y-103754984D01*
X145235486Y-104089200D01*
X143765057Y-104089200D01*
X137585129Y-97909271D01*
X137526249Y-97869929D01*
X137445043Y-97815669D01*
X137279800Y-97782800D01*
X127149395Y-97782800D01*
X127168269Y-97689600D01*
X127168269Y-97439600D01*
X127145244Y-97317235D01*
X127143098Y-97313899D01*
X127168269Y-97189600D01*
X127168269Y-96996400D01*
X128136163Y-96996400D01*
X128156259Y-97016531D01*
X128352235Y-97097907D01*
X128564434Y-97098092D01*
X128760552Y-97017058D01*
X128910731Y-96867141D01*
X128992107Y-96671165D01*
X128992132Y-96641926D01*
X129346129Y-96287929D01*
X129388256Y-96224881D01*
X129481102Y-96317727D01*
X129714491Y-96414400D01*
X129855050Y-96414400D01*
X130013800Y-96255650D01*
X130013800Y-95654400D01*
X130267800Y-95654400D01*
X130267800Y-96255650D01*
X130426550Y-96414400D01*
X130567109Y-96414400D01*
X130800498Y-96317727D01*
X130979127Y-96139099D01*
X131075800Y-95905710D01*
X131075800Y-95813150D01*
X130917050Y-95654400D01*
X130267800Y-95654400D01*
X130013800Y-95654400D01*
X129993800Y-95654400D01*
X129993800Y-95404400D01*
X130013800Y-95404400D01*
X130013800Y-94803150D01*
X130267800Y-94803150D01*
X130267800Y-95404400D01*
X130917050Y-95404400D01*
X131075800Y-95245650D01*
X131075800Y-95153090D01*
X130979127Y-94919701D01*
X130800498Y-94741073D01*
X130567109Y-94644400D01*
X130426550Y-94644400D01*
X130267800Y-94803150D01*
X130013800Y-94803150D01*
X129855050Y-94644400D01*
X129714491Y-94644400D01*
X129481102Y-94741073D01*
X129388256Y-94833919D01*
X129363582Y-94796992D01*
X129346129Y-94770871D01*
X129346126Y-94770869D01*
X129071658Y-94496400D01*
X133333000Y-94496400D01*
X133498243Y-94463531D01*
X133638329Y-94369929D01*
X133731931Y-94229843D01*
X133764800Y-94064600D01*
X133751234Y-93996400D01*
X136210142Y-93996400D01*
X137871133Y-95657391D01*
X137871108Y-95685834D01*
X137952142Y-95881952D01*
X138102059Y-96032131D01*
X138298035Y-96113507D01*
X138327274Y-96113532D01*
X144500071Y-102286329D01*
X144640157Y-102379931D01*
X144805400Y-102412800D01*
X145235486Y-102412800D01*
X145458802Y-102747016D01*
X145810253Y-102981848D01*
X146224818Y-103064310D01*
X147805582Y-103064310D01*
X148220147Y-102981848D01*
X148571598Y-102747016D01*
X148806430Y-102395565D01*
X148888892Y-101981000D01*
X148806430Y-101566435D01*
X148571598Y-101214984D01*
X148220147Y-100980152D01*
X147805582Y-100897690D01*
X146224818Y-100897690D01*
X145810253Y-100980152D01*
X145458802Y-101214984D01*
X145235486Y-101549200D01*
X144984258Y-101549200D01*
X138938067Y-95503009D01*
X138938092Y-95474566D01*
X138857058Y-95278448D01*
X138707141Y-95128269D01*
X138511165Y-95046893D01*
X138481926Y-95046868D01*
X136931458Y-93496400D01*
X138157163Y-93496400D01*
X138177259Y-93516531D01*
X138373235Y-93597907D01*
X138402475Y-93597932D01*
X144550869Y-99746326D01*
X144550871Y-99746329D01*
X144690957Y-99839931D01*
X144856200Y-99872800D01*
X145235486Y-99872800D01*
X145458802Y-100207016D01*
X145810253Y-100441848D01*
X146224818Y-100524310D01*
X147805582Y-100524310D01*
X148220147Y-100441848D01*
X148571598Y-100207016D01*
X148806430Y-99855565D01*
X148888892Y-99441000D01*
X148806430Y-99026435D01*
X148571598Y-98674984D01*
X148220147Y-98440152D01*
X147805582Y-98357690D01*
X146224818Y-98357690D01*
X145810253Y-98440152D01*
X145458802Y-98674984D01*
X145235486Y-99009200D01*
X145035057Y-99009200D01*
X139022258Y-92996400D01*
X140010742Y-92996400D01*
X144220669Y-97206326D01*
X144220671Y-97206329D01*
X144360757Y-97299931D01*
X144388173Y-97305385D01*
X144526000Y-97332801D01*
X144526005Y-97332800D01*
X145235486Y-97332800D01*
X145458802Y-97667016D01*
X145810253Y-97901848D01*
X146224818Y-97984310D01*
X147805582Y-97984310D01*
X148220147Y-97901848D01*
X148571598Y-97667016D01*
X148806430Y-97315565D01*
X148888892Y-96901000D01*
X148806430Y-96486435D01*
X148571598Y-96134984D01*
X148220147Y-95900152D01*
X147805582Y-95817690D01*
X146224818Y-95817690D01*
X145810253Y-95900152D01*
X145458802Y-96134984D01*
X145235486Y-96469200D01*
X144704857Y-96469200D01*
X140717058Y-92481400D01*
X145481252Y-92481400D01*
X146277543Y-93277690D01*
X146224818Y-93277690D01*
X145810253Y-93360152D01*
X145458802Y-93594984D01*
X145223970Y-93946435D01*
X145141508Y-94361000D01*
X145223970Y-94775565D01*
X145458802Y-95127016D01*
X145810253Y-95361848D01*
X146224818Y-95444310D01*
X147805582Y-95444310D01*
X148220147Y-95361848D01*
X148571598Y-95127016D01*
X148806430Y-94775565D01*
X148888892Y-94361000D01*
X148806430Y-93946435D01*
X148571598Y-93594984D01*
X148220147Y-93360152D01*
X147805582Y-93277690D01*
X147421739Y-93277690D01*
X147414132Y-93239448D01*
X147368507Y-93171165D01*
X147320529Y-93099361D01*
X147320526Y-93099359D01*
X145965439Y-91744271D01*
X145929008Y-91719929D01*
X145825353Y-91650669D01*
X145660110Y-91617800D01*
X141851345Y-91617800D01*
X141922144Y-91514183D01*
X141948669Y-91383200D01*
X141948669Y-90633200D01*
X141925644Y-90510835D01*
X141853327Y-90398451D01*
X141742983Y-90323056D01*
X141643800Y-90302971D01*
X141643800Y-90167550D01*
X141863000Y-90167550D01*
X141863000Y-90308109D01*
X141959673Y-90541498D01*
X142138301Y-90720127D01*
X142371690Y-90816800D01*
X142464250Y-90816800D01*
X142623000Y-90658050D01*
X142623000Y-90008800D01*
X142873000Y-90008800D01*
X142873000Y-90658050D01*
X143031750Y-90816800D01*
X143124310Y-90816800D01*
X143357699Y-90720127D01*
X143536327Y-90541498D01*
X143633000Y-90308109D01*
X143633000Y-90181474D01*
X144915417Y-90181474D01*
X144929773Y-90253675D01*
X145189476Y-90731540D01*
X145612281Y-91073646D01*
X146133820Y-91227910D01*
X146888200Y-91227910D01*
X146888200Y-89966800D01*
X147142200Y-89966800D01*
X147142200Y-91227910D01*
X147896580Y-91227910D01*
X148418119Y-91073646D01*
X148840924Y-90731540D01*
X149100627Y-90253675D01*
X149114983Y-90181474D01*
X148992362Y-89966800D01*
X147142200Y-89966800D01*
X146888200Y-89966800D01*
X145038038Y-89966800D01*
X144915417Y-90181474D01*
X143633000Y-90181474D01*
X143633000Y-90167550D01*
X143474250Y-90008800D01*
X142873000Y-90008800D01*
X142623000Y-90008800D01*
X142021750Y-90008800D01*
X141863000Y-90167550D01*
X141643800Y-90167550D01*
X141643800Y-90043458D01*
X141977104Y-89710154D01*
X142021750Y-89754800D01*
X142623000Y-89754800D01*
X142623000Y-89734800D01*
X142873000Y-89734800D01*
X142873000Y-89754800D01*
X143474250Y-89754800D01*
X143633000Y-89596050D01*
X143633000Y-89498126D01*
X144915417Y-89498126D01*
X145038038Y-89712800D01*
X146888200Y-89712800D01*
X146888200Y-88451690D01*
X147142200Y-88451690D01*
X147142200Y-89712800D01*
X148992362Y-89712800D01*
X149114983Y-89498126D01*
X149100627Y-89425925D01*
X148840924Y-88948060D01*
X148418119Y-88605954D01*
X147896580Y-88451690D01*
X147142200Y-88451690D01*
X146888200Y-88451690D01*
X146133820Y-88451690D01*
X145612281Y-88605954D01*
X145189476Y-88948060D01*
X144929773Y-89425925D01*
X144915417Y-89498126D01*
X143633000Y-89498126D01*
X143633000Y-89455491D01*
X143536327Y-89222102D01*
X143357699Y-89043473D01*
X143334669Y-89033934D01*
X143334669Y-88481800D01*
X143311644Y-88359435D01*
X143239327Y-88247051D01*
X143179800Y-88206378D01*
X143179800Y-87884000D01*
X143146931Y-87718757D01*
X143053329Y-87578671D01*
X143053326Y-87578669D01*
X142951267Y-87476610D01*
X142951292Y-87448166D01*
X142870258Y-87252048D01*
X142720341Y-87101869D01*
X142524365Y-87020493D01*
X142495125Y-87020468D01*
X142167994Y-86693336D01*
X142154921Y-86684601D01*
X142056485Y-86586165D01*
X141959692Y-86586165D01*
X141862665Y-86566865D01*
X141789289Y-86566865D01*
X141711218Y-86513521D01*
X141580235Y-86486996D01*
X140780235Y-86486996D01*
X140657870Y-86510021D01*
X140569532Y-86566865D01*
X139585060Y-86566865D01*
X139643562Y-86508363D01*
X139657147Y-86475566D01*
X139682988Y-86470703D01*
X139755235Y-86485334D01*
X140105235Y-86485334D01*
X140182988Y-86470703D01*
X140255235Y-86485334D01*
X140605235Y-86485334D01*
X140682988Y-86470703D01*
X140755235Y-86485334D01*
X141105235Y-86485334D01*
X141227600Y-86462309D01*
X141307235Y-86411065D01*
X141307235Y-86411165D01*
X142056485Y-86411165D01*
X142215235Y-86252415D01*
X142215235Y-86222326D01*
X142262352Y-86202858D01*
X142412531Y-86052941D01*
X142493907Y-85856965D01*
X142494092Y-85644766D01*
X142413058Y-85448648D01*
X142263141Y-85298469D01*
X142067165Y-85217093D01*
X141854966Y-85216908D01*
X141658848Y-85297942D01*
X141639892Y-85316865D01*
X141435920Y-85316865D01*
X141418879Y-85226300D01*
X141396550Y-85191600D01*
X145235486Y-85191600D01*
X145458802Y-85525816D01*
X145810253Y-85760648D01*
X146224818Y-85843110D01*
X147805582Y-85843110D01*
X148220147Y-85760648D01*
X148571598Y-85525816D01*
X148794914Y-85191600D01*
X149077142Y-85191600D01*
X151870531Y-87984989D01*
X151870531Y-88311000D01*
X151893556Y-88433365D01*
X151965873Y-88545749D01*
X152076217Y-88621144D01*
X152207200Y-88647669D01*
X152607200Y-88647669D01*
X152729565Y-88624644D01*
X152841949Y-88552327D01*
X152856450Y-88531105D01*
X152865873Y-88545749D01*
X152875400Y-88552259D01*
X152875400Y-89815340D01*
X152873927Y-89813051D01*
X152763583Y-89737656D01*
X152632600Y-89711131D01*
X152506588Y-89711131D01*
X149789929Y-86994471D01*
X149758054Y-86973173D01*
X149649843Y-86900869D01*
X149484600Y-86868000D01*
X148794914Y-86868000D01*
X148571598Y-86533784D01*
X148220147Y-86298952D01*
X147805582Y-86216490D01*
X146224818Y-86216490D01*
X145810253Y-86298952D01*
X145458802Y-86533784D01*
X145223970Y-86885235D01*
X145141508Y-87299800D01*
X145223970Y-87714365D01*
X145458802Y-88065816D01*
X145810253Y-88300648D01*
X146224818Y-88383110D01*
X147805582Y-88383110D01*
X148220147Y-88300648D01*
X148571598Y-88065816D01*
X148794914Y-87731600D01*
X149305742Y-87731600D01*
X151895931Y-90321788D01*
X151895931Y-90647800D01*
X151918956Y-90770165D01*
X151991273Y-90882549D01*
X152101617Y-90957944D01*
X152232600Y-90984469D01*
X152632600Y-90984469D01*
X152754965Y-90961444D01*
X152867349Y-90889127D01*
X152881850Y-90867905D01*
X152891273Y-90882549D01*
X153001617Y-90957944D01*
X153132600Y-90984469D01*
X153532600Y-90984469D01*
X153654965Y-90961444D01*
X153767349Y-90889127D01*
X153842744Y-90778783D01*
X153869269Y-90647800D01*
X153869269Y-90047800D01*
X153846244Y-89925435D01*
X153773927Y-89813051D01*
X153739000Y-89789186D01*
X153739000Y-88554225D01*
X153741949Y-88552327D01*
X153817344Y-88441983D01*
X153843869Y-88311000D01*
X153843869Y-87711000D01*
X153820844Y-87588635D01*
X153748527Y-87476251D01*
X153638183Y-87400856D01*
X153507200Y-87374331D01*
X153306388Y-87374331D01*
X148395858Y-82463800D01*
X148614450Y-82463800D01*
X148773200Y-82305050D01*
X148773200Y-81330800D01*
X149027200Y-81330800D01*
X149027200Y-82305050D01*
X149185950Y-82463800D01*
X149776509Y-82463800D01*
X150009898Y-82367127D01*
X150188527Y-82188499D01*
X150285200Y-81955110D01*
X150285200Y-81489550D01*
X150126450Y-81330800D01*
X149027200Y-81330800D01*
X148773200Y-81330800D01*
X147673950Y-81330800D01*
X147515200Y-81489550D01*
X147515200Y-81583142D01*
X147486869Y-81554811D01*
X147486869Y-80578800D01*
X147463844Y-80456435D01*
X147461306Y-80452490D01*
X147515200Y-80452490D01*
X147515200Y-80918050D01*
X147673950Y-81076800D01*
X148773200Y-81076800D01*
X148773200Y-80102550D01*
X149027200Y-80102550D01*
X149027200Y-81076800D01*
X150126450Y-81076800D01*
X150285200Y-80918050D01*
X150285200Y-80452490D01*
X150188527Y-80219101D01*
X150009898Y-80040473D01*
X149776509Y-79943800D01*
X149185950Y-79943800D01*
X149027200Y-80102550D01*
X148773200Y-80102550D01*
X148614450Y-79943800D01*
X148023891Y-79943800D01*
X147790502Y-80040473D01*
X147611873Y-80219101D01*
X147515200Y-80452490D01*
X147461306Y-80452490D01*
X147391527Y-80344051D01*
X147281183Y-80268656D01*
X147150200Y-80242131D01*
X145650200Y-80242131D01*
X145527835Y-80265156D01*
X145415451Y-80337473D01*
X145340056Y-80447817D01*
X145313531Y-80578800D01*
X145313531Y-80777800D01*
X144146181Y-80777800D01*
X144133844Y-80712235D01*
X144061527Y-80599851D01*
X143951183Y-80524456D01*
X143820200Y-80497931D01*
X141320200Y-80497931D01*
X141197835Y-80520956D01*
X141085451Y-80593273D01*
X141010056Y-80703617D01*
X140983531Y-80834600D01*
X140983531Y-80949800D01*
X139887200Y-80949800D01*
X139887200Y-80368150D01*
X139728450Y-80209400D01*
X139177200Y-80209400D01*
X139177200Y-80229400D01*
X139027200Y-80229400D01*
X139027200Y-80209400D01*
X138988869Y-80209400D01*
X138988869Y-79955400D01*
X139027200Y-79955400D01*
X139027200Y-79935400D01*
X139177200Y-79935400D01*
X139177200Y-79955400D01*
X139728450Y-79955400D01*
X139887200Y-79796650D01*
X139887200Y-79242200D01*
X141003778Y-79242200D01*
X141006556Y-79256965D01*
X141078873Y-79369349D01*
X141189217Y-79444744D01*
X141320200Y-79471269D01*
X143820200Y-79471269D01*
X143942565Y-79448244D01*
X144054949Y-79375927D01*
X144130344Y-79265583D01*
X144156869Y-79134600D01*
X144156869Y-78384600D01*
X144133844Y-78262235D01*
X144061527Y-78149851D01*
X143951183Y-78074456D01*
X143820200Y-78047931D01*
X141320200Y-78047931D01*
X141197835Y-78070956D01*
X141085451Y-78143273D01*
X141010056Y-78253617D01*
X141005321Y-78277000D01*
X138871800Y-78277000D01*
X138687117Y-78313736D01*
X138530550Y-78418350D01*
X138530548Y-78418353D01*
X138160950Y-78787950D01*
X138056336Y-78944517D01*
X138046149Y-78995731D01*
X137752200Y-78995731D01*
X137629835Y-79018756D01*
X137517451Y-79091073D01*
X137442056Y-79201417D01*
X137415531Y-79332400D01*
X137415531Y-79549000D01*
X135581669Y-79549000D01*
X135581669Y-79330800D01*
X135558644Y-79208435D01*
X135486327Y-79096051D01*
X135375983Y-79020656D01*
X135245000Y-78994131D01*
X135204200Y-78994131D01*
X135204200Y-75856634D01*
X135230689Y-75845689D01*
X135534622Y-75542286D01*
X135699313Y-75145668D01*
X135699687Y-74716216D01*
X135535689Y-74319311D01*
X135232286Y-74015378D01*
X134835668Y-73850687D01*
X134406216Y-73850313D01*
X134009311Y-74014311D01*
X133705378Y-74317714D01*
X133540687Y-74714332D01*
X133540313Y-75143784D01*
X133704311Y-75540689D01*
X134007714Y-75844622D01*
X134035800Y-75856284D01*
X134035800Y-78994131D01*
X133995000Y-78994131D01*
X133872635Y-79017156D01*
X133760251Y-79089473D01*
X133684856Y-79199817D01*
X133658331Y-79330800D01*
X133658331Y-80830800D01*
X133681356Y-80953165D01*
X133753673Y-81065549D01*
X133864017Y-81140944D01*
X133995000Y-81167469D01*
X135245000Y-81167469D01*
X135367365Y-81144444D01*
X135479749Y-81072127D01*
X135555144Y-80961783D01*
X135581669Y-80830800D01*
X135581669Y-80615800D01*
X136037002Y-80615800D01*
X136109333Y-80724051D01*
X136118071Y-80737129D01*
X137118671Y-81737729D01*
X137258757Y-81831331D01*
X137311106Y-81841744D01*
X137313556Y-81854765D01*
X137385873Y-81967149D01*
X137496217Y-82042544D01*
X137627200Y-82069069D01*
X137877200Y-82069069D01*
X137999565Y-82046044D01*
X138043905Y-82017512D01*
X138078003Y-82040296D01*
X138252200Y-82074946D01*
X138426397Y-82040296D01*
X138502200Y-81989646D01*
X138578003Y-82040296D01*
X138752200Y-82074946D01*
X138926397Y-82040296D01*
X139002200Y-81989646D01*
X139078003Y-82040296D01*
X139252200Y-82074946D01*
X139426397Y-82040296D01*
X139574075Y-81941621D01*
X139591863Y-81915000D01*
X141289243Y-81915000D01*
X141320200Y-81921269D01*
X142087600Y-81921269D01*
X142087600Y-82490116D01*
X142032187Y-82545432D01*
X141935311Y-82778737D01*
X141935090Y-83031355D01*
X142031560Y-83264828D01*
X142210032Y-83443613D01*
X142443337Y-83540489D01*
X142695955Y-83540710D01*
X142929428Y-83444240D01*
X143108213Y-83265768D01*
X143205089Y-83032463D01*
X143205310Y-82779845D01*
X143108840Y-82546372D01*
X143052800Y-82490234D01*
X143052800Y-81921269D01*
X143820200Y-81921269D01*
X143942565Y-81898244D01*
X144054949Y-81825927D01*
X144130344Y-81715583D01*
X144145367Y-81641400D01*
X145313531Y-81641400D01*
X145313531Y-81828800D01*
X145336556Y-81951165D01*
X145408873Y-82063549D01*
X145519217Y-82138944D01*
X145650200Y-82165469D01*
X146876211Y-82165469D01*
X149038742Y-84328000D01*
X148794914Y-84328000D01*
X148571598Y-83993784D01*
X148220147Y-83758952D01*
X147805582Y-83676490D01*
X146224818Y-83676490D01*
X145810253Y-83758952D01*
X145458802Y-83993784D01*
X145235486Y-84328000D01*
X128448858Y-84328000D01*
X127664593Y-83543735D01*
X127621748Y-83515107D01*
X127524507Y-83450133D01*
X127359264Y-83417264D01*
X126607576Y-83417264D01*
X126611246Y-83413600D01*
X128009808Y-83413600D01*
X128011156Y-83420765D01*
X128083473Y-83533149D01*
X128193817Y-83608544D01*
X128324800Y-83635069D01*
X128824800Y-83635069D01*
X128947165Y-83612044D01*
X129059549Y-83539727D01*
X129134944Y-83429383D01*
X129153571Y-83337400D01*
X131757363Y-83337400D01*
X131777459Y-83357531D01*
X131973435Y-83438907D01*
X132185634Y-83439092D01*
X132381752Y-83358058D01*
X132531931Y-83208141D01*
X132613307Y-83012165D01*
X132613433Y-82866550D01*
X133360000Y-82866550D01*
X133360000Y-83457109D01*
X133456673Y-83690498D01*
X133635301Y-83869127D01*
X133868690Y-83965800D01*
X134334250Y-83965800D01*
X134493000Y-83807050D01*
X134493000Y-82707800D01*
X134747000Y-82707800D01*
X134747000Y-83807050D01*
X134905750Y-83965800D01*
X135371310Y-83965800D01*
X135604699Y-83869127D01*
X135783327Y-83690498D01*
X135880000Y-83457109D01*
X135880000Y-82866550D01*
X135721250Y-82707800D01*
X134747000Y-82707800D01*
X134493000Y-82707800D01*
X133518750Y-82707800D01*
X133360000Y-82866550D01*
X132613433Y-82866550D01*
X132613492Y-82799966D01*
X132532458Y-82603848D01*
X132382541Y-82453669D01*
X132186565Y-82372293D01*
X131974366Y-82372108D01*
X131778248Y-82453142D01*
X131757554Y-82473800D01*
X129398044Y-82473800D01*
X129459800Y-82324709D01*
X129459800Y-82184150D01*
X129301050Y-82025400D01*
X128699800Y-82025400D01*
X128699800Y-82045400D01*
X128449800Y-82045400D01*
X128449800Y-82025400D01*
X127848550Y-82025400D01*
X127689800Y-82184150D01*
X127689800Y-82324709D01*
X127783119Y-82550000D01*
X126611437Y-82550000D01*
X126591341Y-82529869D01*
X126395365Y-82448493D01*
X126183166Y-82448308D01*
X125987048Y-82529342D01*
X125836869Y-82679259D01*
X125755493Y-82875235D01*
X125755308Y-83087434D01*
X125836342Y-83283552D01*
X125986259Y-83433731D01*
X125986885Y-83433991D01*
X125905735Y-83450133D01*
X125765649Y-83543735D01*
X125765647Y-83543738D01*
X124985106Y-84324278D01*
X124891504Y-84464364D01*
X124858635Y-84629607D01*
X124858635Y-84709753D01*
X124830686Y-84727738D01*
X124755291Y-84838082D01*
X124728766Y-84969065D01*
X124728766Y-84988813D01*
X124696993Y-84995133D01*
X124696991Y-84995134D01*
X124696992Y-84995134D01*
X124556906Y-85088736D01*
X124556904Y-85088739D01*
X123672071Y-85973571D01*
X123578469Y-86113657D01*
X123545600Y-86278900D01*
X123545600Y-88975142D01*
X123263400Y-89257342D01*
X123263400Y-84636658D01*
X126427967Y-81472091D01*
X127689800Y-81472091D01*
X127689800Y-81612650D01*
X127848550Y-81771400D01*
X128449800Y-81771400D01*
X128449800Y-81122150D01*
X128699800Y-81122150D01*
X128699800Y-81771400D01*
X129301050Y-81771400D01*
X129367959Y-81704491D01*
X133360000Y-81704491D01*
X133360000Y-82295050D01*
X133518750Y-82453800D01*
X134493000Y-82453800D01*
X134493000Y-81354550D01*
X134747000Y-81354550D01*
X134747000Y-82453800D01*
X135721250Y-82453800D01*
X135880000Y-82295050D01*
X135880000Y-81704491D01*
X135783327Y-81471102D01*
X135604699Y-81292473D01*
X135371310Y-81195800D01*
X134905750Y-81195800D01*
X134747000Y-81354550D01*
X134493000Y-81354550D01*
X134334250Y-81195800D01*
X133868690Y-81195800D01*
X133635301Y-81292473D01*
X133456673Y-81471102D01*
X133360000Y-81704491D01*
X129367959Y-81704491D01*
X129459800Y-81612650D01*
X129459800Y-81472091D01*
X129363127Y-81238702D01*
X129184499Y-81060073D01*
X128951110Y-80963400D01*
X128858550Y-80963400D01*
X128699800Y-81122150D01*
X128449800Y-81122150D01*
X128291050Y-80963400D01*
X128198490Y-80963400D01*
X127965101Y-81060073D01*
X127786473Y-81238702D01*
X127689800Y-81472091D01*
X126427967Y-81472091D01*
X129845329Y-78054729D01*
X129938931Y-77914643D01*
X129971800Y-77749400D01*
X129971800Y-75919605D01*
X130150689Y-75845689D01*
X130454622Y-75542286D01*
X130619313Y-75145668D01*
X130619314Y-75143784D01*
X131000313Y-75143784D01*
X131164311Y-75540689D01*
X131467714Y-75844622D01*
X131864332Y-76009313D01*
X132293784Y-76009687D01*
X132690689Y-75845689D01*
X132994622Y-75542286D01*
X133159313Y-75145668D01*
X133159687Y-74716216D01*
X132995689Y-74319311D01*
X132692286Y-74015378D01*
X132295668Y-73850687D01*
X131866216Y-73850313D01*
X131469311Y-74014311D01*
X131165378Y-74317714D01*
X131000687Y-74714332D01*
X131000313Y-75143784D01*
X130619314Y-75143784D01*
X130619687Y-74716216D01*
X130455689Y-74319311D01*
X130152286Y-74015378D01*
X129755668Y-73850687D01*
X129326216Y-73850313D01*
X128929311Y-74014311D01*
X128701800Y-74241425D01*
X128701800Y-73838858D01*
X129145573Y-73395085D01*
X129324332Y-73469313D01*
X129753784Y-73469687D01*
X130150689Y-73305689D01*
X130454622Y-73002286D01*
X130619313Y-72605668D01*
X130619314Y-72603784D01*
X131000313Y-72603784D01*
X131164311Y-73000689D01*
X131467714Y-73304622D01*
X131864332Y-73469313D01*
X132293784Y-73469687D01*
X132690689Y-73305689D01*
X132994622Y-73002286D01*
X133130212Y-72675750D01*
X133235700Y-72675750D01*
X133235700Y-73265610D01*
X133332373Y-73498999D01*
X133511002Y-73677627D01*
X133744391Y-73774300D01*
X134334250Y-73774300D01*
X134493000Y-73615550D01*
X134493000Y-72517000D01*
X134747000Y-72517000D01*
X134747000Y-73615550D01*
X134905750Y-73774300D01*
X135495609Y-73774300D01*
X135728998Y-73677627D01*
X135907627Y-73498999D01*
X136004300Y-73265610D01*
X136004300Y-72777326D01*
X145998862Y-72777326D01*
X146295987Y-73496424D01*
X146845682Y-74047079D01*
X147564261Y-74345459D01*
X148342326Y-74346138D01*
X149061424Y-74049013D01*
X149612079Y-73499318D01*
X149910459Y-72780739D01*
X149911138Y-72002674D01*
X149614013Y-71283576D01*
X149064318Y-70732921D01*
X148345739Y-70434541D01*
X147567674Y-70433862D01*
X146848576Y-70730987D01*
X146297921Y-71280682D01*
X145999541Y-71999261D01*
X145998862Y-72777326D01*
X136004300Y-72777326D01*
X136004300Y-72675750D01*
X135845550Y-72517000D01*
X134747000Y-72517000D01*
X134493000Y-72517000D01*
X133394450Y-72517000D01*
X133235700Y-72675750D01*
X133130212Y-72675750D01*
X133159313Y-72605668D01*
X133159687Y-72176216D01*
X132995689Y-71779311D01*
X132731230Y-71514390D01*
X133235700Y-71514390D01*
X133235700Y-72104250D01*
X133394450Y-72263000D01*
X134493000Y-72263000D01*
X134493000Y-71164450D01*
X134747000Y-71164450D01*
X134747000Y-72263000D01*
X135845550Y-72263000D01*
X136004300Y-72104250D01*
X136004300Y-71514390D01*
X135907627Y-71281001D01*
X135728998Y-71102373D01*
X135495609Y-71005700D01*
X134905750Y-71005700D01*
X134747000Y-71164450D01*
X134493000Y-71164450D01*
X134334250Y-71005700D01*
X133744391Y-71005700D01*
X133511002Y-71102373D01*
X133332373Y-71281001D01*
X133235700Y-71514390D01*
X132731230Y-71514390D01*
X132692286Y-71475378D01*
X132295668Y-71310687D01*
X131866216Y-71310313D01*
X131469311Y-71474311D01*
X131165378Y-71777714D01*
X131000687Y-72174332D01*
X131000313Y-72603784D01*
X130619314Y-72603784D01*
X130619687Y-72176216D01*
X130455689Y-71779311D01*
X130152286Y-71475378D01*
X129755668Y-71310687D01*
X129326216Y-71310313D01*
X128929311Y-71474311D01*
X128625378Y-71777714D01*
X128460687Y-72174332D01*
X128460313Y-72603784D01*
X128534942Y-72784400D01*
X127964671Y-73354671D01*
X127871069Y-73494757D01*
X127838200Y-73660000D01*
X127838200Y-74241687D01*
X127612286Y-74015378D01*
X127215668Y-73850687D01*
X126786216Y-73850313D01*
X126389311Y-74014311D01*
X126085378Y-74317714D01*
X125920687Y-74714332D01*
X125920313Y-75143784D01*
X126084311Y-75540689D01*
X126387714Y-75844622D01*
X126784332Y-76009313D01*
X127213784Y-76009687D01*
X127610689Y-75845689D01*
X127838200Y-75618575D01*
X127838200Y-76021142D01*
X122026271Y-81833071D01*
X121932669Y-81973157D01*
X121899800Y-82138400D01*
X121899800Y-89890671D01*
X121712766Y-89890508D01*
X121705000Y-89893717D01*
X121705000Y-80541096D01*
X122225326Y-80020769D01*
X122225329Y-80020767D01*
X122318931Y-79880681D01*
X122351800Y-79715438D01*
X122351800Y-75919605D01*
X122530689Y-75845689D01*
X122834622Y-75542286D01*
X122999313Y-75145668D01*
X122999314Y-75143784D01*
X123380313Y-75143784D01*
X123544311Y-75540689D01*
X123847714Y-75844622D01*
X124244332Y-76009313D01*
X124673784Y-76009687D01*
X125070689Y-75845689D01*
X125374622Y-75542286D01*
X125539313Y-75145668D01*
X125539687Y-74716216D01*
X125375689Y-74319311D01*
X125072286Y-74015378D01*
X124675668Y-73850687D01*
X124246216Y-73850313D01*
X123849311Y-74014311D01*
X123545378Y-74317714D01*
X123380687Y-74714332D01*
X123380313Y-75143784D01*
X122999314Y-75143784D01*
X122999687Y-74716216D01*
X122835689Y-74319311D01*
X122532286Y-74015378D01*
X122135668Y-73850687D01*
X121964179Y-73850538D01*
X121968600Y-73828314D01*
X121968600Y-73469543D01*
X122133784Y-73469687D01*
X122530689Y-73305689D01*
X122834622Y-73002286D01*
X122999313Y-72605668D01*
X122999314Y-72603784D01*
X123380313Y-72603784D01*
X123544311Y-73000689D01*
X123847714Y-73304622D01*
X124244332Y-73469313D01*
X124673784Y-73469687D01*
X125070689Y-73305689D01*
X125374622Y-73002286D01*
X125539313Y-72605668D01*
X125539314Y-72603784D01*
X125920313Y-72603784D01*
X126084311Y-73000689D01*
X126387714Y-73304622D01*
X126784332Y-73469313D01*
X127213784Y-73469687D01*
X127610689Y-73305689D01*
X127914622Y-73002286D01*
X128079313Y-72605668D01*
X128079687Y-72176216D01*
X127915689Y-71779311D01*
X127612286Y-71475378D01*
X127215668Y-71310687D01*
X126786216Y-71310313D01*
X126389311Y-71474311D01*
X126085378Y-71777714D01*
X125920687Y-72174332D01*
X125920313Y-72603784D01*
X125539314Y-72603784D01*
X125539687Y-72176216D01*
X125375689Y-71779311D01*
X125072286Y-71475378D01*
X124675668Y-71310687D01*
X124246216Y-71310313D01*
X123849311Y-71474311D01*
X123545378Y-71777714D01*
X123380687Y-72174332D01*
X123380313Y-72603784D01*
X122999314Y-72603784D01*
X122999687Y-72176216D01*
X122835689Y-71779311D01*
X122532286Y-71475378D01*
X122135668Y-71310687D01*
X121706216Y-71310313D01*
X121309311Y-71474311D01*
X121005378Y-71777714D01*
X120840687Y-72174332D01*
X120840313Y-72603784D01*
X121004311Y-73000689D01*
X121105000Y-73101554D01*
X121105000Y-73649456D01*
X120611370Y-74143086D01*
X120572626Y-74201071D01*
X120351010Y-74138595D01*
X119559605Y-74930000D01*
X120351010Y-75721405D01*
X120572626Y-75658929D01*
X120611370Y-75716914D01*
X121105000Y-76210544D01*
X121105000Y-79333207D01*
X120584671Y-79853535D01*
X120491069Y-79993621D01*
X120458200Y-80158864D01*
X120458200Y-90524250D01*
X120394100Y-90588350D01*
X120394100Y-90945251D01*
X120369931Y-91064600D01*
X120369931Y-91561600D01*
X120269100Y-91561600D01*
X120269100Y-91541600D01*
X119730350Y-91541600D01*
X119669019Y-91602931D01*
X119567189Y-91602931D01*
X118902549Y-90938291D01*
X119571600Y-90938291D01*
X119571600Y-91128850D01*
X119730350Y-91287600D01*
X120269100Y-91287600D01*
X120269100Y-90588350D01*
X120110350Y-90429600D01*
X120080290Y-90429600D01*
X119846901Y-90526273D01*
X119668273Y-90704902D01*
X119571600Y-90938291D01*
X118902549Y-90938291D01*
X118017469Y-90053211D01*
X118017469Y-89377200D01*
X117994444Y-89254835D01*
X117922127Y-89142451D01*
X117811783Y-89067056D01*
X117680800Y-89040531D01*
X117618600Y-89040531D01*
X117618600Y-88517773D01*
X117721549Y-88451527D01*
X117796944Y-88341183D01*
X117823469Y-88210200D01*
X117823469Y-87710200D01*
X117800444Y-87587835D01*
X117728127Y-87475451D01*
X117617783Y-87400056D01*
X117486800Y-87373531D01*
X116934666Y-87373531D01*
X116925127Y-87350501D01*
X116746498Y-87171873D01*
X116723991Y-87162550D01*
X118444200Y-87162550D01*
X118444200Y-87303109D01*
X118540873Y-87536498D01*
X118719501Y-87715127D01*
X118742531Y-87724666D01*
X118742531Y-88276800D01*
X118765556Y-88399165D01*
X118837873Y-88511549D01*
X118897400Y-88552222D01*
X118897400Y-88907563D01*
X118877269Y-88927659D01*
X118795893Y-89123635D01*
X118795708Y-89335834D01*
X118876742Y-89531952D01*
X119026659Y-89682131D01*
X119222635Y-89763507D01*
X119434834Y-89763692D01*
X119630952Y-89682658D01*
X119781131Y-89532741D01*
X119862507Y-89336765D01*
X119862692Y-89124566D01*
X119781658Y-88928448D01*
X119761000Y-88907754D01*
X119761000Y-88552199D01*
X119813949Y-88518127D01*
X119889344Y-88407783D01*
X119915869Y-88276800D01*
X119915869Y-87724666D01*
X119938899Y-87715127D01*
X120117527Y-87536498D01*
X120214200Y-87303109D01*
X120214200Y-87162550D01*
X120055450Y-87003800D01*
X119454200Y-87003800D01*
X119454200Y-87023800D01*
X119204200Y-87023800D01*
X119204200Y-87003800D01*
X118602950Y-87003800D01*
X118444200Y-87162550D01*
X116723991Y-87162550D01*
X116513109Y-87075200D01*
X116372550Y-87075200D01*
X116213800Y-87233950D01*
X116213800Y-87835200D01*
X116233800Y-87835200D01*
X116233800Y-88085200D01*
X116213800Y-88085200D01*
X116213800Y-88107200D01*
X115959800Y-88107200D01*
X115959800Y-88085200D01*
X115310550Y-88085200D01*
X115151800Y-88243950D01*
X115151800Y-88336510D01*
X115248473Y-88569899D01*
X115427102Y-88748527D01*
X115556588Y-88802162D01*
X115457800Y-88900950D01*
X115457800Y-89725200D01*
X115477800Y-89725200D01*
X115477800Y-89979200D01*
X115457800Y-89979200D01*
X115457800Y-89999200D01*
X115203800Y-89999200D01*
X115203800Y-89979200D01*
X115183800Y-89979200D01*
X115183800Y-89725200D01*
X115203800Y-89725200D01*
X115203800Y-88900950D01*
X115045050Y-88742200D01*
X114704491Y-88742200D01*
X114471102Y-88838873D01*
X114292473Y-89017501D01*
X114195800Y-89250890D01*
X114195800Y-89566450D01*
X114354548Y-89725198D01*
X114272369Y-89725198D01*
X114250127Y-89671502D01*
X114071499Y-89492873D01*
X113838110Y-89396200D01*
X113745550Y-89396200D01*
X113586800Y-89554950D01*
X113586800Y-90204200D01*
X113608800Y-90204200D01*
X113608800Y-90458200D01*
X113586800Y-90458200D01*
X113586800Y-90478200D01*
X113336800Y-90478200D01*
X113336800Y-90458200D01*
X112735550Y-90458200D01*
X112576800Y-90616950D01*
X112576800Y-90757509D01*
X112673473Y-90990898D01*
X112852101Y-91169527D01*
X112875131Y-91179066D01*
X112875131Y-91731200D01*
X112898156Y-91853565D01*
X112970473Y-91965949D01*
X113080817Y-92041344D01*
X113211800Y-92067869D01*
X113711800Y-92067869D01*
X113834165Y-92044844D01*
X113946549Y-91972527D01*
X114021944Y-91862183D01*
X114027651Y-91834000D01*
X114494131Y-91834000D01*
X114494131Y-91877200D01*
X114517156Y-91999565D01*
X114589473Y-92111949D01*
X114699817Y-92187344D01*
X114830800Y-92213869D01*
X115556811Y-92213869D01*
X115975742Y-92632800D01*
X114072660Y-92632800D01*
X114069844Y-92617835D01*
X113997527Y-92505451D01*
X113887183Y-92430056D01*
X113756200Y-92403531D01*
X113356200Y-92403531D01*
X113233835Y-92426556D01*
X113121451Y-92498873D01*
X113106950Y-92520095D01*
X113097527Y-92505451D01*
X112987183Y-92430056D01*
X112856200Y-92403531D01*
X112456200Y-92403531D01*
X112333835Y-92426556D01*
X112221451Y-92498873D01*
X112206627Y-92520569D01*
X111836267Y-92150209D01*
X111836292Y-92121766D01*
X111755258Y-91925648D01*
X111605341Y-91775469D01*
X111409365Y-91694093D01*
X111197166Y-91693908D01*
X111001048Y-91774942D01*
X110850869Y-91924859D01*
X110769493Y-92120835D01*
X110769308Y-92333034D01*
X110850342Y-92529152D01*
X111000259Y-92679331D01*
X111196235Y-92760707D01*
X111225474Y-92760732D01*
X111627143Y-93162401D01*
X109249952Y-93162401D01*
X109249947Y-93162400D01*
X109113209Y-93189600D01*
X109084704Y-93195270D01*
X108961353Y-93277690D01*
X108944618Y-93288872D01*
X107207046Y-95026444D01*
X107207313Y-94720845D01*
X106976752Y-94162843D01*
X106550202Y-93735549D01*
X105992604Y-93504014D01*
X105388845Y-93503487D01*
X104830843Y-93734048D01*
X104688920Y-93875724D01*
X104559391Y-93860539D01*
X104639582Y-93827405D01*
X104875577Y-93591822D01*
X105003454Y-93283860D01*
X105003745Y-92950403D01*
X104876405Y-92642218D01*
X104640822Y-92406223D01*
X104332860Y-92278346D01*
X103999403Y-92278055D01*
X103691218Y-92405395D01*
X103455223Y-92640978D01*
X103327346Y-92948940D01*
X103327055Y-93282397D01*
X103385470Y-93423771D01*
X103275181Y-93469454D01*
X103251244Y-93673639D01*
X103784400Y-94206795D01*
X103798543Y-94192653D01*
X103978148Y-94372258D01*
X103964005Y-94386400D01*
X103978148Y-94400543D01*
X103798543Y-94580148D01*
X103784400Y-94566005D01*
X103251244Y-95099161D01*
X103258235Y-95158791D01*
X103171065Y-95245808D01*
X103149483Y-95297783D01*
X103128450Y-95246879D01*
X102924992Y-95043065D01*
X102873017Y-95021483D01*
X102923921Y-95000450D01*
X103011965Y-94912560D01*
X103071639Y-94919556D01*
X103604795Y-94386400D01*
X103071639Y-93853244D01*
X103012009Y-93860235D01*
X102924992Y-93773065D01*
X102739270Y-93695947D01*
X102843577Y-93591822D01*
X102971454Y-93283860D01*
X102971745Y-92950403D01*
X102844405Y-92642218D01*
X102608822Y-92406223D01*
X102300860Y-92278346D01*
X101967403Y-92278055D01*
X101659218Y-92405395D01*
X101423223Y-92640978D01*
X101295346Y-92948940D01*
X101295055Y-93282397D01*
X101422395Y-93590582D01*
X101657978Y-93826577D01*
X101935230Y-93941702D01*
X101901065Y-93975808D01*
X101844949Y-94110950D01*
X101470202Y-93735549D01*
X100912604Y-93504014D01*
X100308845Y-93503487D01*
X99750843Y-93734048D01*
X99323549Y-94160598D01*
X99092014Y-94718196D01*
X99091487Y-95321955D01*
X93369200Y-95321955D01*
X93369200Y-89904891D01*
X112576800Y-89904891D01*
X112576800Y-90045450D01*
X112735550Y-90204200D01*
X113336800Y-90204200D01*
X113336800Y-89554950D01*
X113178050Y-89396200D01*
X113085490Y-89396200D01*
X112852101Y-89492873D01*
X112673473Y-89671502D01*
X112576800Y-89904891D01*
X93369200Y-89904891D01*
X93369200Y-87583890D01*
X115151800Y-87583890D01*
X115151800Y-87676450D01*
X115310550Y-87835200D01*
X115959800Y-87835200D01*
X115959800Y-87233950D01*
X115801050Y-87075200D01*
X115660491Y-87075200D01*
X115427102Y-87171873D01*
X115248473Y-87350501D01*
X115151800Y-87583890D01*
X93369200Y-87583890D01*
X93369200Y-87400200D01*
X95885000Y-87400200D01*
X95924143Y-87392414D01*
X95964051Y-87392414D01*
X98394090Y-86909049D01*
X98394091Y-86909049D01*
X98458859Y-86882221D01*
X98540156Y-86848547D01*
X98540157Y-86848546D01*
X99135888Y-86450491D01*
X118444200Y-86450491D01*
X118444200Y-86591050D01*
X118602950Y-86749800D01*
X119204200Y-86749800D01*
X119204200Y-86100550D01*
X119454200Y-86100550D01*
X119454200Y-86749800D01*
X120055450Y-86749800D01*
X120214200Y-86591050D01*
X120214200Y-86450491D01*
X120117527Y-86217102D01*
X119938899Y-86038473D01*
X119705510Y-85941800D01*
X119612950Y-85941800D01*
X119454200Y-86100550D01*
X119204200Y-86100550D01*
X119045450Y-85941800D01*
X118952890Y-85941800D01*
X118719501Y-86038473D01*
X118540873Y-86217102D01*
X118444200Y-86450491D01*
X99135888Y-86450491D01*
X100600245Y-85472039D01*
X100712039Y-85360245D01*
X102088547Y-83300157D01*
X102149049Y-83154091D01*
X102149049Y-83154090D01*
X102632414Y-80724051D01*
X102632414Y-80684143D01*
X102640200Y-80645000D01*
X102640200Y-75901010D01*
X118588595Y-75901010D01*
X118656499Y-76141880D01*
X119175339Y-76326503D01*
X119725336Y-76298521D01*
X120103501Y-76141880D01*
X120171405Y-75901010D01*
X119380000Y-75109605D01*
X118588595Y-75901010D01*
X102640200Y-75901010D01*
X102640200Y-74725339D01*
X117983497Y-74725339D01*
X118011479Y-75275336D01*
X118168120Y-75653501D01*
X118408990Y-75721405D01*
X119200395Y-74930000D01*
X118408990Y-74138595D01*
X118168120Y-74206499D01*
X117983497Y-74725339D01*
X102640200Y-74725339D01*
X102640200Y-72777326D01*
X104088862Y-72777326D01*
X104385987Y-73496424D01*
X104935682Y-74047079D01*
X105654261Y-74345459D01*
X106432326Y-74346138D01*
X107151424Y-74049013D01*
X107241604Y-73958990D01*
X118588595Y-73958990D01*
X119380000Y-74750395D01*
X120171405Y-73958990D01*
X120103501Y-73718120D01*
X119584661Y-73533497D01*
X119034664Y-73561479D01*
X118656499Y-73718120D01*
X118588595Y-73958990D01*
X107241604Y-73958990D01*
X107702079Y-73499318D01*
X108000459Y-72780739D01*
X108000613Y-72603784D01*
X118300313Y-72603784D01*
X118464311Y-73000689D01*
X118767714Y-73304622D01*
X119164332Y-73469313D01*
X119593784Y-73469687D01*
X119990689Y-73305689D01*
X120294622Y-73002286D01*
X120459313Y-72605668D01*
X120459687Y-72176216D01*
X120295689Y-71779311D01*
X119992286Y-71475378D01*
X119595668Y-71310687D01*
X119166216Y-71310313D01*
X118769311Y-71474311D01*
X118465378Y-71777714D01*
X118300687Y-72174332D01*
X118300313Y-72603784D01*
X108000613Y-72603784D01*
X108001138Y-72002674D01*
X107704013Y-71283576D01*
X107154318Y-70732921D01*
X106435739Y-70434541D01*
X105657674Y-70433862D01*
X104938576Y-70730987D01*
X104387921Y-71280682D01*
X104089541Y-71999261D01*
X104088862Y-72777326D01*
X102640200Y-72777326D01*
X102640200Y-68985200D01*
X151359800Y-68985200D01*
X151359800Y-80645000D01*
X151359800Y-80645000D01*
G37*
X151359800Y-80645000D02*
X151367586Y-80684143D01*
X151367586Y-80724051D01*
X151850951Y-83154090D01*
X151850951Y-83154091D01*
X151873013Y-83207352D01*
X151911453Y-83300156D01*
X151911454Y-83300157D01*
X153287961Y-85360245D01*
X153399755Y-85472039D01*
X155459842Y-86848546D01*
X155459843Y-86848547D01*
X155605909Y-86909049D01*
X158035949Y-87392414D01*
X158075857Y-87392414D01*
X158115000Y-87400200D01*
X160630800Y-87400200D01*
X160630800Y-115799800D01*
X158115000Y-115799800D01*
X158075857Y-115807586D01*
X158035949Y-115807586D01*
X155605909Y-116290951D01*
X155459843Y-116351453D01*
X153399755Y-117727961D01*
X153287961Y-117839755D01*
X151911454Y-119899843D01*
X151911453Y-119899844D01*
X151850951Y-120045910D01*
X151367586Y-122475949D01*
X151367586Y-122515857D01*
X151359800Y-122555000D01*
X151359800Y-134214800D01*
X102640200Y-134214800D01*
X102640200Y-131197326D01*
X104088862Y-131197326D01*
X104385987Y-131916424D01*
X104935682Y-132467079D01*
X105654261Y-132765459D01*
X106432326Y-132766138D01*
X107151424Y-132469013D01*
X107702079Y-131919318D01*
X108000459Y-131200739D01*
X108000461Y-131197326D01*
X145998862Y-131197326D01*
X146295987Y-131916424D01*
X146845682Y-132467079D01*
X147564261Y-132765459D01*
X148342326Y-132766138D01*
X149061424Y-132469013D01*
X149612079Y-131919318D01*
X149910459Y-131200739D01*
X149911138Y-130422674D01*
X149614013Y-129703576D01*
X149064318Y-129152921D01*
X148345739Y-128854541D01*
X147567674Y-128853862D01*
X146848576Y-129150987D01*
X146297921Y-129700682D01*
X145999541Y-130419261D01*
X145998862Y-131197326D01*
X108000461Y-131197326D01*
X108001138Y-130422674D01*
X107704013Y-129703576D01*
X107154318Y-129152921D01*
X106435739Y-128854541D01*
X105657674Y-128853862D01*
X104938576Y-129150987D01*
X104387921Y-129700682D01*
X104089541Y-130419261D01*
X104088862Y-131197326D01*
X102640200Y-131197326D01*
X102640200Y-122555000D01*
X102632414Y-122515857D01*
X102632414Y-122475949D01*
X102149049Y-120045909D01*
X102088547Y-119899843D01*
X100712039Y-117839755D01*
X100600245Y-117727961D01*
X98540157Y-116351454D01*
X98540156Y-116351453D01*
X98454593Y-116316012D01*
X98394091Y-116290951D01*
X98394090Y-116290951D01*
X95964051Y-115807586D01*
X95924143Y-115807586D01*
X95885000Y-115799800D01*
X93369200Y-115799800D01*
X93369200Y-106798200D01*
X115976331Y-106798200D01*
X115976331Y-107398200D01*
X115999356Y-107520565D01*
X116071673Y-107632949D01*
X116182017Y-107708344D01*
X116281200Y-107728429D01*
X116281200Y-109075227D01*
X116178251Y-109141473D01*
X116102856Y-109251817D01*
X116076331Y-109382800D01*
X116076331Y-109782800D01*
X116099356Y-109905165D01*
X116171673Y-110017549D01*
X116192895Y-110032050D01*
X116178251Y-110041473D01*
X116102856Y-110151817D01*
X116076331Y-110282800D01*
X116076331Y-110682800D01*
X116099356Y-110805165D01*
X116171673Y-110917549D01*
X116282017Y-110992944D01*
X116413000Y-111019469D01*
X117013000Y-111019469D01*
X117135365Y-110996444D01*
X117247749Y-110924127D01*
X117254259Y-110914600D01*
X118760575Y-110914600D01*
X118762473Y-110917549D01*
X118872817Y-110992944D01*
X119003800Y-111019469D01*
X119603800Y-111019469D01*
X119726165Y-110996444D01*
X119838549Y-110924127D01*
X119845059Y-110914600D01*
X121402175Y-110914600D01*
X121404073Y-110917549D01*
X121514417Y-110992944D01*
X121645400Y-111019469D01*
X122245400Y-111019469D01*
X122367765Y-110996444D01*
X122480149Y-110924127D01*
X122492645Y-110905839D01*
X122613843Y-110881731D01*
X122753929Y-110788129D01*
X126289326Y-107252731D01*
X126289329Y-107252729D01*
X126382931Y-107112643D01*
X126382932Y-107112642D01*
X126415801Y-106947400D01*
X126415800Y-106947395D01*
X126415800Y-104140005D01*
X126415801Y-104140000D01*
X126415800Y-104139995D01*
X126415800Y-103116437D01*
X126435931Y-103096341D01*
X126517307Y-102900365D01*
X126517492Y-102688166D01*
X126436458Y-102492048D01*
X126286541Y-102341869D01*
X126090565Y-102260493D01*
X125878366Y-102260308D01*
X125682248Y-102341342D01*
X125532069Y-102491259D01*
X125450693Y-102687235D01*
X125450508Y-102899434D01*
X125531542Y-103095552D01*
X125552200Y-103116246D01*
X125552200Y-103961143D01*
X125236142Y-104277200D01*
X125044669Y-104277200D01*
X125044669Y-104109000D01*
X125021644Y-103986635D01*
X124949327Y-103874251D01*
X124838983Y-103798856D01*
X124708000Y-103772331D01*
X123958000Y-103772331D01*
X123835635Y-103795356D01*
X123723251Y-103867673D01*
X123647856Y-103978017D01*
X123621331Y-104109000D01*
X123621331Y-105309000D01*
X123644356Y-105431365D01*
X123716673Y-105543749D01*
X123827017Y-105619144D01*
X123958000Y-105645669D01*
X124708000Y-105645669D01*
X124830365Y-105622644D01*
X124942749Y-105550327D01*
X125018144Y-105439983D01*
X125044669Y-105309000D01*
X125044669Y-105140800D01*
X125415000Y-105140800D01*
X125552200Y-105113509D01*
X125552200Y-106768543D01*
X122582069Y-109738673D01*
X122582069Y-109382800D01*
X122559044Y-109260435D01*
X122486727Y-109148051D01*
X122377200Y-109073214D01*
X122377200Y-107703485D01*
X122467765Y-107686444D01*
X122580149Y-107614127D01*
X122655544Y-107503783D01*
X122682069Y-107372800D01*
X122682069Y-106772800D01*
X122659044Y-106650435D01*
X122586727Y-106538051D01*
X122476383Y-106462656D01*
X122345400Y-106436131D01*
X121545400Y-106436131D01*
X121423035Y-106459156D01*
X121310651Y-106531473D01*
X121235256Y-106641817D01*
X121208731Y-106772800D01*
X121208731Y-107372800D01*
X121231756Y-107495165D01*
X121304073Y-107607549D01*
X121414417Y-107682944D01*
X121513600Y-107703029D01*
X121513600Y-109075227D01*
X121410651Y-109141473D01*
X121335256Y-109251817D01*
X121308731Y-109382800D01*
X121308731Y-109782800D01*
X121331756Y-109905165D01*
X121404073Y-110017549D01*
X121425295Y-110032050D01*
X121410651Y-110041473D01*
X121404141Y-110051000D01*
X119847025Y-110051000D01*
X119845127Y-110048051D01*
X119823905Y-110033550D01*
X119838549Y-110024127D01*
X119913944Y-109913783D01*
X119940469Y-109782800D01*
X119940469Y-109382800D01*
X119917444Y-109260435D01*
X119845127Y-109148051D01*
X119735600Y-109073214D01*
X119735600Y-107703485D01*
X119826165Y-107686444D01*
X119938549Y-107614127D01*
X120013944Y-107503783D01*
X120040469Y-107372800D01*
X120040469Y-106772800D01*
X120017444Y-106650435D01*
X119945127Y-106538051D01*
X119834783Y-106462656D01*
X119703800Y-106436131D01*
X118903800Y-106436131D01*
X118781435Y-106459156D01*
X118669051Y-106531473D01*
X118593656Y-106641817D01*
X118567131Y-106772800D01*
X118567131Y-107372800D01*
X118590156Y-107495165D01*
X118662473Y-107607549D01*
X118772817Y-107682944D01*
X118872000Y-107703029D01*
X118872000Y-109075227D01*
X118769051Y-109141473D01*
X118693656Y-109251817D01*
X118667131Y-109382800D01*
X118667131Y-109782800D01*
X118690156Y-109905165D01*
X118762473Y-110017549D01*
X118783695Y-110032050D01*
X118769051Y-110041473D01*
X118762541Y-110051000D01*
X117256225Y-110051000D01*
X117254327Y-110048051D01*
X117233105Y-110033550D01*
X117247749Y-110024127D01*
X117323144Y-109913783D01*
X117349669Y-109782800D01*
X117349669Y-109382800D01*
X117326644Y-109260435D01*
X117254327Y-109148051D01*
X117144800Y-109073214D01*
X117144800Y-107728885D01*
X117235365Y-107711844D01*
X117347749Y-107639527D01*
X117423144Y-107529183D01*
X117449669Y-107398200D01*
X117449669Y-106798200D01*
X117426644Y-106675835D01*
X117354327Y-106563451D01*
X117243983Y-106488056D01*
X117113000Y-106461531D01*
X116313000Y-106461531D01*
X116190635Y-106484556D01*
X116078251Y-106556873D01*
X116002856Y-106667217D01*
X115976331Y-106798200D01*
X93369200Y-106798200D01*
X93369200Y-95321955D01*
X99091487Y-95321955D01*
X99322048Y-95879957D01*
X99748598Y-96307251D01*
X100306196Y-96538786D01*
X100838028Y-96539250D01*
X100837908Y-96676434D01*
X100838947Y-96678950D01*
X100308845Y-96678487D01*
X99750843Y-96909048D01*
X99323549Y-97335598D01*
X99092014Y-97893196D01*
X99091487Y-98496955D01*
X99322048Y-99054957D01*
X99748598Y-99482251D01*
X100306196Y-99713786D01*
X100909955Y-99714313D01*
X101467957Y-99483752D01*
X101879400Y-99073025D01*
X101879400Y-99245363D01*
X101859269Y-99265459D01*
X101777893Y-99461435D01*
X101777708Y-99673634D01*
X101858742Y-99869752D01*
X102008659Y-100019931D01*
X102204635Y-100101307D01*
X102416834Y-100101492D01*
X102612952Y-100020458D01*
X102763131Y-99870541D01*
X102844507Y-99674565D01*
X102844692Y-99462366D01*
X102763658Y-99266248D01*
X102743000Y-99245554D01*
X102743000Y-98935237D01*
X102981940Y-99034454D01*
X103315397Y-99034745D01*
X103623582Y-98907405D01*
X103746299Y-98784902D01*
X103746299Y-101188486D01*
X103713469Y-101221259D01*
X103632093Y-101417235D01*
X103631908Y-101629434D01*
X103712942Y-101825552D01*
X103862859Y-101975731D01*
X104058835Y-102057107D01*
X104271034Y-102057292D01*
X104467152Y-101976258D01*
X104617331Y-101826341D01*
X104698707Y-101630365D01*
X104698892Y-101418166D01*
X104617858Y-101222048D01*
X104609899Y-101214075D01*
X104609899Y-100403750D01*
X111637000Y-100403750D01*
X111637000Y-100544309D01*
X111733673Y-100777698D01*
X111912301Y-100956327D01*
X112145690Y-101053000D01*
X112238250Y-101053000D01*
X112397000Y-100894250D01*
X112397000Y-100245000D01*
X112647000Y-100245000D01*
X112647000Y-100894250D01*
X112805750Y-101053000D01*
X112898310Y-101053000D01*
X113131699Y-100956327D01*
X113310327Y-100777698D01*
X113407000Y-100544309D01*
X113407000Y-100403750D01*
X113356200Y-100352950D01*
X114050000Y-100352950D01*
X114050000Y-100493509D01*
X114146673Y-100726898D01*
X114325301Y-100905527D01*
X114558690Y-101002200D01*
X114651250Y-101002200D01*
X114810000Y-100843450D01*
X114810000Y-100194200D01*
X115060000Y-100194200D01*
X115060000Y-100843450D01*
X115218750Y-101002200D01*
X115311310Y-101002200D01*
X115407033Y-100962550D01*
X117275800Y-100962550D01*
X117275800Y-101103109D01*
X117372473Y-101336498D01*
X117551101Y-101515127D01*
X117784490Y-101611800D01*
X117877050Y-101611800D01*
X118035800Y-101453050D01*
X118035800Y-100803800D01*
X118285800Y-100803800D01*
X118285800Y-101453050D01*
X118444550Y-101611800D01*
X118537110Y-101611800D01*
X118770499Y-101515127D01*
X118949127Y-101336498D01*
X119045800Y-101103109D01*
X119045800Y-100962550D01*
X118887050Y-100803800D01*
X118285800Y-100803800D01*
X118035800Y-100803800D01*
X117434550Y-100803800D01*
X117275800Y-100962550D01*
X115407033Y-100962550D01*
X115544699Y-100905527D01*
X115723327Y-100726898D01*
X115820000Y-100493509D01*
X115820000Y-100352950D01*
X115717541Y-100250491D01*
X117275800Y-100250491D01*
X117275800Y-100391050D01*
X117434550Y-100549800D01*
X118035800Y-100549800D01*
X118035800Y-100529800D01*
X118285800Y-100529800D01*
X118285800Y-100549800D01*
X118887050Y-100549800D01*
X119045800Y-100391050D01*
X119045800Y-100250491D01*
X118949127Y-100017102D01*
X118770499Y-99838473D01*
X118747469Y-99828934D01*
X118747469Y-99276800D01*
X118724444Y-99154435D01*
X118652127Y-99042051D01*
X118592600Y-99001378D01*
X118592600Y-98874637D01*
X118612731Y-98854541D01*
X118694107Y-98658565D01*
X118694292Y-98446366D01*
X118613258Y-98250248D01*
X118463341Y-98100069D01*
X118267365Y-98018693D01*
X118055166Y-98018508D01*
X117859048Y-98099542D01*
X117708869Y-98249459D01*
X117627493Y-98445435D01*
X117627308Y-98657634D01*
X117708342Y-98853752D01*
X117729000Y-98874446D01*
X117729000Y-99001401D01*
X117676051Y-99035473D01*
X117600656Y-99145817D01*
X117574131Y-99276800D01*
X117574131Y-99828934D01*
X117551101Y-99838473D01*
X117372473Y-100017102D01*
X117275800Y-100250491D01*
X115717541Y-100250491D01*
X115661250Y-100194200D01*
X115060000Y-100194200D01*
X114810000Y-100194200D01*
X114208750Y-100194200D01*
X114050000Y-100352950D01*
X113356200Y-100352950D01*
X113248250Y-100245000D01*
X112647000Y-100245000D01*
X112397000Y-100245000D01*
X111795750Y-100245000D01*
X111637000Y-100403750D01*
X104609899Y-100403750D01*
X104609899Y-99263171D01*
X104828598Y-99482251D01*
X105386196Y-99713786D01*
X105989955Y-99714313D01*
X106547957Y-99483752D01*
X106975251Y-99057202D01*
X107206786Y-98499604D01*
X107207313Y-97895845D01*
X106976752Y-97337843D01*
X106550202Y-96910549D01*
X106469610Y-96877084D01*
X106546540Y-96861782D01*
X106686626Y-96768180D01*
X109428805Y-94026001D01*
X111818685Y-94026001D01*
X111712635Y-94045956D01*
X111600251Y-94118273D01*
X111524856Y-94228617D01*
X111498331Y-94359600D01*
X111498331Y-97359600D01*
X111521356Y-97481965D01*
X111593673Y-97594349D01*
X111704017Y-97669744D01*
X111835000Y-97696269D01*
X112103200Y-97696269D01*
X112103200Y-98434236D01*
X112037251Y-98476673D01*
X111961856Y-98587017D01*
X111935331Y-98718000D01*
X111935331Y-99270134D01*
X111912301Y-99279673D01*
X111733673Y-99458302D01*
X111637000Y-99691691D01*
X111637000Y-99832250D01*
X111795750Y-99991000D01*
X112397000Y-99991000D01*
X112397000Y-99971000D01*
X112647000Y-99971000D01*
X112647000Y-99991000D01*
X113248250Y-99991000D01*
X113407000Y-99832250D01*
X113407000Y-99691691D01*
X113310327Y-99458302D01*
X113301825Y-99449800D01*
X114129153Y-99449800D01*
X114050000Y-99640891D01*
X114050000Y-99781450D01*
X114208750Y-99940200D01*
X114810000Y-99940200D01*
X114810000Y-99920200D01*
X115060000Y-99920200D01*
X115060000Y-99940200D01*
X115661250Y-99940200D01*
X115820000Y-99781450D01*
X115820000Y-99640891D01*
X115723327Y-99407502D01*
X115714825Y-99399000D01*
X115764400Y-99399000D01*
X115929643Y-99366131D01*
X116069729Y-99272529D01*
X117221529Y-98120729D01*
X117221882Y-98120200D01*
X117315131Y-97980643D01*
X117348000Y-97815400D01*
X117348000Y-96419458D01*
X117754466Y-96012992D01*
X117754308Y-96193834D01*
X117835342Y-96389952D01*
X117985259Y-96540131D01*
X118160763Y-96613006D01*
X118160708Y-96676434D01*
X118241742Y-96872552D01*
X118391659Y-97022731D01*
X118587635Y-97104107D01*
X118799834Y-97104292D01*
X118994931Y-97023680D01*
X118994931Y-97189600D01*
X119017956Y-97311965D01*
X119020102Y-97315301D01*
X118994931Y-97439600D01*
X118994931Y-97689600D01*
X119017956Y-97811965D01*
X119090273Y-97924349D01*
X119200617Y-97999744D01*
X119249800Y-98009704D01*
X119249800Y-102350742D01*
X116839011Y-104761531D01*
X116313000Y-104761531D01*
X116190635Y-104784556D01*
X116078251Y-104856873D01*
X116002856Y-104967217D01*
X115976331Y-105098200D01*
X115976331Y-105698200D01*
X115999356Y-105820565D01*
X116071673Y-105932949D01*
X116182017Y-106008344D01*
X116313000Y-106034869D01*
X117113000Y-106034869D01*
X117235365Y-106011844D01*
X117347749Y-105939527D01*
X117423144Y-105829183D01*
X117449669Y-105698200D01*
X117449669Y-105372189D01*
X119986929Y-102834929D01*
X120069916Y-102710729D01*
X120080531Y-102694843D01*
X120113400Y-102529600D01*
X120113400Y-98882395D01*
X120206600Y-98901269D01*
X120456600Y-98901269D01*
X120578965Y-98878244D01*
X120582301Y-98876098D01*
X120706600Y-98901269D01*
X120899800Y-98901269D01*
X120899800Y-102662942D01*
X118998471Y-104564271D01*
X118904869Y-104704357D01*
X118898345Y-104737158D01*
X118781435Y-104759156D01*
X118669051Y-104831473D01*
X118593656Y-104941817D01*
X118567131Y-105072800D01*
X118567131Y-105672800D01*
X118590156Y-105795165D01*
X118662473Y-105907549D01*
X118772817Y-105982944D01*
X118903800Y-106009469D01*
X119703800Y-106009469D01*
X119826165Y-105986444D01*
X119938549Y-105914127D01*
X120013944Y-105803783D01*
X120040469Y-105672800D01*
X120040469Y-105072800D01*
X120017444Y-104950435D01*
X119945472Y-104838586D01*
X121399800Y-103384258D01*
X121399800Y-104774107D01*
X121310651Y-104831473D01*
X121235256Y-104941817D01*
X121208731Y-105072800D01*
X121208731Y-105672800D01*
X121231756Y-105795165D01*
X121304073Y-105907549D01*
X121414417Y-105982944D01*
X121545400Y-106009469D01*
X122345400Y-106009469D01*
X122467765Y-105986444D01*
X122580149Y-105914127D01*
X122655544Y-105803783D01*
X122682069Y-105672800D01*
X122682069Y-105072800D01*
X122659044Y-104950435D01*
X122586727Y-104838051D01*
X122476383Y-104762656D01*
X122345400Y-104736131D01*
X122263400Y-104736131D01*
X122263400Y-99046550D01*
X122269100Y-99040850D01*
X122269100Y-98683949D01*
X122293269Y-98564600D01*
X122293269Y-98067600D01*
X122369931Y-98067600D01*
X122369931Y-98564600D01*
X122392956Y-98686965D01*
X122394100Y-98688743D01*
X122394100Y-99040850D01*
X122552850Y-99199600D01*
X122582910Y-99199600D01*
X122816299Y-99102927D01*
X122899800Y-99019426D01*
X122899800Y-99886639D01*
X122816451Y-99940273D01*
X122741056Y-100050617D01*
X122714531Y-100181600D01*
X122714531Y-100681600D01*
X122737556Y-100803965D01*
X122809873Y-100916349D01*
X122919400Y-100991186D01*
X122919400Y-102405400D01*
X122952269Y-102570643D01*
X122990966Y-102628557D01*
X123045871Y-102710729D01*
X123449469Y-103114326D01*
X123449471Y-103114329D01*
X123498560Y-103147129D01*
X123589558Y-103207932D01*
X123621331Y-103214252D01*
X123621331Y-103409000D01*
X123644356Y-103531365D01*
X123716673Y-103643749D01*
X123827017Y-103719144D01*
X123958000Y-103745669D01*
X124708000Y-103745669D01*
X124830365Y-103722644D01*
X124942749Y-103650327D01*
X125018144Y-103539983D01*
X125044669Y-103409000D01*
X125044669Y-102209000D01*
X125021644Y-102086635D01*
X124949327Y-101974251D01*
X124838983Y-101898856D01*
X124708000Y-101872331D01*
X123958000Y-101872331D01*
X123835635Y-101895356D01*
X123783000Y-101929226D01*
X123783000Y-101211425D01*
X123791502Y-101219927D01*
X124024891Y-101316600D01*
X124165450Y-101316600D01*
X124324200Y-101157850D01*
X124324200Y-100556600D01*
X124578200Y-100556600D01*
X124578200Y-101157850D01*
X124736950Y-101316600D01*
X124877509Y-101316600D01*
X125110898Y-101219927D01*
X125289527Y-101041299D01*
X125386200Y-100807910D01*
X125386200Y-100715350D01*
X125227450Y-100556600D01*
X124578200Y-100556600D01*
X124324200Y-100556600D01*
X124304200Y-100556600D01*
X124304200Y-100306600D01*
X124324200Y-100306600D01*
X124324200Y-99705350D01*
X124578200Y-99705350D01*
X124578200Y-100306600D01*
X125227450Y-100306600D01*
X125386200Y-100147850D01*
X125386200Y-100055290D01*
X125289527Y-99821901D01*
X125110898Y-99643273D01*
X124877509Y-99546600D01*
X124736950Y-99546600D01*
X124578200Y-99705350D01*
X124324200Y-99705350D01*
X124165450Y-99546600D01*
X124024891Y-99546600D01*
X123791502Y-99643273D01*
X123763400Y-99671375D01*
X123763400Y-98901269D01*
X123956600Y-98901269D01*
X124078965Y-98878244D01*
X124082301Y-98876098D01*
X124206600Y-98901269D01*
X124456600Y-98901269D01*
X124578965Y-98878244D01*
X124582301Y-98876098D01*
X124706600Y-98901269D01*
X124926349Y-98901269D01*
X124932669Y-98933043D01*
X125014129Y-99054957D01*
X125026271Y-99073129D01*
X133319471Y-107366329D01*
X133459557Y-107459931D01*
X133624800Y-107492800D01*
X145235486Y-107492800D01*
X145458802Y-107827016D01*
X145810253Y-108061848D01*
X146224818Y-108144310D01*
X147805582Y-108144310D01*
X148220147Y-108061848D01*
X148571598Y-107827016D01*
X148806430Y-107475565D01*
X148888892Y-107061000D01*
X148806430Y-106646435D01*
X148571598Y-106294984D01*
X148220147Y-106060152D01*
X147805582Y-105977690D01*
X146224818Y-105977690D01*
X145810253Y-106060152D01*
X145458802Y-106294984D01*
X145235486Y-106629200D01*
X133803658Y-106629200D01*
X126056861Y-98882403D01*
X126078965Y-98878244D01*
X126191349Y-98805927D01*
X126266744Y-98695583D01*
X126276704Y-98646400D01*
X137100942Y-98646400D01*
X143280869Y-104826326D01*
X143280871Y-104826329D01*
X143352580Y-104874243D01*
X143420957Y-104919931D01*
X143586200Y-104952800D01*
X145235486Y-104952800D01*
X145458802Y-105287016D01*
X145810253Y-105521848D01*
X146224818Y-105604310D01*
X147805582Y-105604310D01*
X148220147Y-105521848D01*
X148571598Y-105287016D01*
X148806430Y-104935565D01*
X148888892Y-104521000D01*
X148806430Y-104106435D01*
X148571598Y-103754984D01*
X148220147Y-103520152D01*
X147805582Y-103437690D01*
X146224818Y-103437690D01*
X145810253Y-103520152D01*
X145458802Y-103754984D01*
X145235486Y-104089200D01*
X143765057Y-104089200D01*
X137585129Y-97909271D01*
X137526249Y-97869929D01*
X137445043Y-97815669D01*
X137279800Y-97782800D01*
X127149395Y-97782800D01*
X127168269Y-97689600D01*
X127168269Y-97439600D01*
X127145244Y-97317235D01*
X127143098Y-97313899D01*
X127168269Y-97189600D01*
X127168269Y-96996400D01*
X128136163Y-96996400D01*
X128156259Y-97016531D01*
X128352235Y-97097907D01*
X128564434Y-97098092D01*
X128760552Y-97017058D01*
X128910731Y-96867141D01*
X128992107Y-96671165D01*
X128992132Y-96641926D01*
X129346129Y-96287929D01*
X129388256Y-96224881D01*
X129481102Y-96317727D01*
X129714491Y-96414400D01*
X129855050Y-96414400D01*
X130013800Y-96255650D01*
X130013800Y-95654400D01*
X130267800Y-95654400D01*
X130267800Y-96255650D01*
X130426550Y-96414400D01*
X130567109Y-96414400D01*
X130800498Y-96317727D01*
X130979127Y-96139099D01*
X131075800Y-95905710D01*
X131075800Y-95813150D01*
X130917050Y-95654400D01*
X130267800Y-95654400D01*
X130013800Y-95654400D01*
X129993800Y-95654400D01*
X129993800Y-95404400D01*
X130013800Y-95404400D01*
X130013800Y-94803150D01*
X130267800Y-94803150D01*
X130267800Y-95404400D01*
X130917050Y-95404400D01*
X131075800Y-95245650D01*
X131075800Y-95153090D01*
X130979127Y-94919701D01*
X130800498Y-94741073D01*
X130567109Y-94644400D01*
X130426550Y-94644400D01*
X130267800Y-94803150D01*
X130013800Y-94803150D01*
X129855050Y-94644400D01*
X129714491Y-94644400D01*
X129481102Y-94741073D01*
X129388256Y-94833919D01*
X129363582Y-94796992D01*
X129346129Y-94770871D01*
X129346126Y-94770869D01*
X129071658Y-94496400D01*
X133333000Y-94496400D01*
X133498243Y-94463531D01*
X133638329Y-94369929D01*
X133731931Y-94229843D01*
X133764800Y-94064600D01*
X133751234Y-93996400D01*
X136210142Y-93996400D01*
X137871133Y-95657391D01*
X137871108Y-95685834D01*
X137952142Y-95881952D01*
X138102059Y-96032131D01*
X138298035Y-96113507D01*
X138327274Y-96113532D01*
X144500071Y-102286329D01*
X144640157Y-102379931D01*
X144805400Y-102412800D01*
X145235486Y-102412800D01*
X145458802Y-102747016D01*
X145810253Y-102981848D01*
X146224818Y-103064310D01*
X147805582Y-103064310D01*
X148220147Y-102981848D01*
X148571598Y-102747016D01*
X148806430Y-102395565D01*
X148888892Y-101981000D01*
X148806430Y-101566435D01*
X148571598Y-101214984D01*
X148220147Y-100980152D01*
X147805582Y-100897690D01*
X146224818Y-100897690D01*
X145810253Y-100980152D01*
X145458802Y-101214984D01*
X145235486Y-101549200D01*
X144984258Y-101549200D01*
X138938067Y-95503009D01*
X138938092Y-95474566D01*
X138857058Y-95278448D01*
X138707141Y-95128269D01*
X138511165Y-95046893D01*
X138481926Y-95046868D01*
X136931458Y-93496400D01*
X138157163Y-93496400D01*
X138177259Y-93516531D01*
X138373235Y-93597907D01*
X138402475Y-93597932D01*
X144550869Y-99746326D01*
X144550871Y-99746329D01*
X144690957Y-99839931D01*
X144856200Y-99872800D01*
X145235486Y-99872800D01*
X145458802Y-100207016D01*
X145810253Y-100441848D01*
X146224818Y-100524310D01*
X147805582Y-100524310D01*
X148220147Y-100441848D01*
X148571598Y-100207016D01*
X148806430Y-99855565D01*
X148888892Y-99441000D01*
X148806430Y-99026435D01*
X148571598Y-98674984D01*
X148220147Y-98440152D01*
X147805582Y-98357690D01*
X146224818Y-98357690D01*
X145810253Y-98440152D01*
X145458802Y-98674984D01*
X145235486Y-99009200D01*
X145035057Y-99009200D01*
X139022258Y-92996400D01*
X140010742Y-92996400D01*
X144220669Y-97206326D01*
X144220671Y-97206329D01*
X144360757Y-97299931D01*
X144388173Y-97305385D01*
X144526000Y-97332801D01*
X144526005Y-97332800D01*
X145235486Y-97332800D01*
X145458802Y-97667016D01*
X145810253Y-97901848D01*
X146224818Y-97984310D01*
X147805582Y-97984310D01*
X148220147Y-97901848D01*
X148571598Y-97667016D01*
X148806430Y-97315565D01*
X148888892Y-96901000D01*
X148806430Y-96486435D01*
X148571598Y-96134984D01*
X148220147Y-95900152D01*
X147805582Y-95817690D01*
X146224818Y-95817690D01*
X145810253Y-95900152D01*
X145458802Y-96134984D01*
X145235486Y-96469200D01*
X144704857Y-96469200D01*
X140717058Y-92481400D01*
X145481252Y-92481400D01*
X146277543Y-93277690D01*
X146224818Y-93277690D01*
X145810253Y-93360152D01*
X145458802Y-93594984D01*
X145223970Y-93946435D01*
X145141508Y-94361000D01*
X145223970Y-94775565D01*
X145458802Y-95127016D01*
X145810253Y-95361848D01*
X146224818Y-95444310D01*
X147805582Y-95444310D01*
X148220147Y-95361848D01*
X148571598Y-95127016D01*
X148806430Y-94775565D01*
X148888892Y-94361000D01*
X148806430Y-93946435D01*
X148571598Y-93594984D01*
X148220147Y-93360152D01*
X147805582Y-93277690D01*
X147421739Y-93277690D01*
X147414132Y-93239448D01*
X147368507Y-93171165D01*
X147320529Y-93099361D01*
X147320526Y-93099359D01*
X145965439Y-91744271D01*
X145929008Y-91719929D01*
X145825353Y-91650669D01*
X145660110Y-91617800D01*
X141851345Y-91617800D01*
X141922144Y-91514183D01*
X141948669Y-91383200D01*
X141948669Y-90633200D01*
X141925644Y-90510835D01*
X141853327Y-90398451D01*
X141742983Y-90323056D01*
X141643800Y-90302971D01*
X141643800Y-90167550D01*
X141863000Y-90167550D01*
X141863000Y-90308109D01*
X141959673Y-90541498D01*
X142138301Y-90720127D01*
X142371690Y-90816800D01*
X142464250Y-90816800D01*
X142623000Y-90658050D01*
X142623000Y-90008800D01*
X142873000Y-90008800D01*
X142873000Y-90658050D01*
X143031750Y-90816800D01*
X143124310Y-90816800D01*
X143357699Y-90720127D01*
X143536327Y-90541498D01*
X143633000Y-90308109D01*
X143633000Y-90181474D01*
X144915417Y-90181474D01*
X144929773Y-90253675D01*
X145189476Y-90731540D01*
X145612281Y-91073646D01*
X146133820Y-91227910D01*
X146888200Y-91227910D01*
X146888200Y-89966800D01*
X147142200Y-89966800D01*
X147142200Y-91227910D01*
X147896580Y-91227910D01*
X148418119Y-91073646D01*
X148840924Y-90731540D01*
X149100627Y-90253675D01*
X149114983Y-90181474D01*
X148992362Y-89966800D01*
X147142200Y-89966800D01*
X146888200Y-89966800D01*
X145038038Y-89966800D01*
X144915417Y-90181474D01*
X143633000Y-90181474D01*
X143633000Y-90167550D01*
X143474250Y-90008800D01*
X142873000Y-90008800D01*
X142623000Y-90008800D01*
X142021750Y-90008800D01*
X141863000Y-90167550D01*
X141643800Y-90167550D01*
X141643800Y-90043458D01*
X141977104Y-89710154D01*
X142021750Y-89754800D01*
X142623000Y-89754800D01*
X142623000Y-89734800D01*
X142873000Y-89734800D01*
X142873000Y-89754800D01*
X143474250Y-89754800D01*
X143633000Y-89596050D01*
X143633000Y-89498126D01*
X144915417Y-89498126D01*
X145038038Y-89712800D01*
X146888200Y-89712800D01*
X146888200Y-88451690D01*
X147142200Y-88451690D01*
X147142200Y-89712800D01*
X148992362Y-89712800D01*
X149114983Y-89498126D01*
X149100627Y-89425925D01*
X148840924Y-88948060D01*
X148418119Y-88605954D01*
X147896580Y-88451690D01*
X147142200Y-88451690D01*
X146888200Y-88451690D01*
X146133820Y-88451690D01*
X145612281Y-88605954D01*
X145189476Y-88948060D01*
X144929773Y-89425925D01*
X144915417Y-89498126D01*
X143633000Y-89498126D01*
X143633000Y-89455491D01*
X143536327Y-89222102D01*
X143357699Y-89043473D01*
X143334669Y-89033934D01*
X143334669Y-88481800D01*
X143311644Y-88359435D01*
X143239327Y-88247051D01*
X143179800Y-88206378D01*
X143179800Y-87884000D01*
X143146931Y-87718757D01*
X143053329Y-87578671D01*
X143053326Y-87578669D01*
X142951267Y-87476610D01*
X142951292Y-87448166D01*
X142870258Y-87252048D01*
X142720341Y-87101869D01*
X142524365Y-87020493D01*
X142495125Y-87020468D01*
X142167994Y-86693336D01*
X142154921Y-86684601D01*
X142056485Y-86586165D01*
X141959692Y-86586165D01*
X141862665Y-86566865D01*
X141789289Y-86566865D01*
X141711218Y-86513521D01*
X141580235Y-86486996D01*
X140780235Y-86486996D01*
X140657870Y-86510021D01*
X140569532Y-86566865D01*
X139585060Y-86566865D01*
X139643562Y-86508363D01*
X139657147Y-86475566D01*
X139682988Y-86470703D01*
X139755235Y-86485334D01*
X140105235Y-86485334D01*
X140182988Y-86470703D01*
X140255235Y-86485334D01*
X140605235Y-86485334D01*
X140682988Y-86470703D01*
X140755235Y-86485334D01*
X141105235Y-86485334D01*
X141227600Y-86462309D01*
X141307235Y-86411065D01*
X141307235Y-86411165D01*
X142056485Y-86411165D01*
X142215235Y-86252415D01*
X142215235Y-86222326D01*
X142262352Y-86202858D01*
X142412531Y-86052941D01*
X142493907Y-85856965D01*
X142494092Y-85644766D01*
X142413058Y-85448648D01*
X142263141Y-85298469D01*
X142067165Y-85217093D01*
X141854966Y-85216908D01*
X141658848Y-85297942D01*
X141639892Y-85316865D01*
X141435920Y-85316865D01*
X141418879Y-85226300D01*
X141396550Y-85191600D01*
X145235486Y-85191600D01*
X145458802Y-85525816D01*
X145810253Y-85760648D01*
X146224818Y-85843110D01*
X147805582Y-85843110D01*
X148220147Y-85760648D01*
X148571598Y-85525816D01*
X148794914Y-85191600D01*
X149077142Y-85191600D01*
X151870531Y-87984989D01*
X151870531Y-88311000D01*
X151893556Y-88433365D01*
X151965873Y-88545749D01*
X152076217Y-88621144D01*
X152207200Y-88647669D01*
X152607200Y-88647669D01*
X152729565Y-88624644D01*
X152841949Y-88552327D01*
X152856450Y-88531105D01*
X152865873Y-88545749D01*
X152875400Y-88552259D01*
X152875400Y-89815340D01*
X152873927Y-89813051D01*
X152763583Y-89737656D01*
X152632600Y-89711131D01*
X152506588Y-89711131D01*
X149789929Y-86994471D01*
X149758054Y-86973173D01*
X149649843Y-86900869D01*
X149484600Y-86868000D01*
X148794914Y-86868000D01*
X148571598Y-86533784D01*
X148220147Y-86298952D01*
X147805582Y-86216490D01*
X146224818Y-86216490D01*
X145810253Y-86298952D01*
X145458802Y-86533784D01*
X145223970Y-86885235D01*
X145141508Y-87299800D01*
X145223970Y-87714365D01*
X145458802Y-88065816D01*
X145810253Y-88300648D01*
X146224818Y-88383110D01*
X147805582Y-88383110D01*
X148220147Y-88300648D01*
X148571598Y-88065816D01*
X148794914Y-87731600D01*
X149305742Y-87731600D01*
X151895931Y-90321788D01*
X151895931Y-90647800D01*
X151918956Y-90770165D01*
X151991273Y-90882549D01*
X152101617Y-90957944D01*
X152232600Y-90984469D01*
X152632600Y-90984469D01*
X152754965Y-90961444D01*
X152867349Y-90889127D01*
X152881850Y-90867905D01*
X152891273Y-90882549D01*
X153001617Y-90957944D01*
X153132600Y-90984469D01*
X153532600Y-90984469D01*
X153654965Y-90961444D01*
X153767349Y-90889127D01*
X153842744Y-90778783D01*
X153869269Y-90647800D01*
X153869269Y-90047800D01*
X153846244Y-89925435D01*
X153773927Y-89813051D01*
X153739000Y-89789186D01*
X153739000Y-88554225D01*
X153741949Y-88552327D01*
X153817344Y-88441983D01*
X153843869Y-88311000D01*
X153843869Y-87711000D01*
X153820844Y-87588635D01*
X153748527Y-87476251D01*
X153638183Y-87400856D01*
X153507200Y-87374331D01*
X153306388Y-87374331D01*
X148395858Y-82463800D01*
X148614450Y-82463800D01*
X148773200Y-82305050D01*
X148773200Y-81330800D01*
X149027200Y-81330800D01*
X149027200Y-82305050D01*
X149185950Y-82463800D01*
X149776509Y-82463800D01*
X150009898Y-82367127D01*
X150188527Y-82188499D01*
X150285200Y-81955110D01*
X150285200Y-81489550D01*
X150126450Y-81330800D01*
X149027200Y-81330800D01*
X148773200Y-81330800D01*
X147673950Y-81330800D01*
X147515200Y-81489550D01*
X147515200Y-81583142D01*
X147486869Y-81554811D01*
X147486869Y-80578800D01*
X147463844Y-80456435D01*
X147461306Y-80452490D01*
X147515200Y-80452490D01*
X147515200Y-80918050D01*
X147673950Y-81076800D01*
X148773200Y-81076800D01*
X148773200Y-80102550D01*
X149027200Y-80102550D01*
X149027200Y-81076800D01*
X150126450Y-81076800D01*
X150285200Y-80918050D01*
X150285200Y-80452490D01*
X150188527Y-80219101D01*
X150009898Y-80040473D01*
X149776509Y-79943800D01*
X149185950Y-79943800D01*
X149027200Y-80102550D01*
X148773200Y-80102550D01*
X148614450Y-79943800D01*
X148023891Y-79943800D01*
X147790502Y-80040473D01*
X147611873Y-80219101D01*
X147515200Y-80452490D01*
X147461306Y-80452490D01*
X147391527Y-80344051D01*
X147281183Y-80268656D01*
X147150200Y-80242131D01*
X145650200Y-80242131D01*
X145527835Y-80265156D01*
X145415451Y-80337473D01*
X145340056Y-80447817D01*
X145313531Y-80578800D01*
X145313531Y-80777800D01*
X144146181Y-80777800D01*
X144133844Y-80712235D01*
X144061527Y-80599851D01*
X143951183Y-80524456D01*
X143820200Y-80497931D01*
X141320200Y-80497931D01*
X141197835Y-80520956D01*
X141085451Y-80593273D01*
X141010056Y-80703617D01*
X140983531Y-80834600D01*
X140983531Y-80949800D01*
X139887200Y-80949800D01*
X139887200Y-80368150D01*
X139728450Y-80209400D01*
X139177200Y-80209400D01*
X139177200Y-80229400D01*
X139027200Y-80229400D01*
X139027200Y-80209400D01*
X138988869Y-80209400D01*
X138988869Y-79955400D01*
X139027200Y-79955400D01*
X139027200Y-79935400D01*
X139177200Y-79935400D01*
X139177200Y-79955400D01*
X139728450Y-79955400D01*
X139887200Y-79796650D01*
X139887200Y-79242200D01*
X141003778Y-79242200D01*
X141006556Y-79256965D01*
X141078873Y-79369349D01*
X141189217Y-79444744D01*
X141320200Y-79471269D01*
X143820200Y-79471269D01*
X143942565Y-79448244D01*
X144054949Y-79375927D01*
X144130344Y-79265583D01*
X144156869Y-79134600D01*
X144156869Y-78384600D01*
X144133844Y-78262235D01*
X144061527Y-78149851D01*
X143951183Y-78074456D01*
X143820200Y-78047931D01*
X141320200Y-78047931D01*
X141197835Y-78070956D01*
X141085451Y-78143273D01*
X141010056Y-78253617D01*
X141005321Y-78277000D01*
X138871800Y-78277000D01*
X138687117Y-78313736D01*
X138530550Y-78418350D01*
X138530548Y-78418353D01*
X138160950Y-78787950D01*
X138056336Y-78944517D01*
X138046149Y-78995731D01*
X137752200Y-78995731D01*
X137629835Y-79018756D01*
X137517451Y-79091073D01*
X137442056Y-79201417D01*
X137415531Y-79332400D01*
X137415531Y-79549000D01*
X135581669Y-79549000D01*
X135581669Y-79330800D01*
X135558644Y-79208435D01*
X135486327Y-79096051D01*
X135375983Y-79020656D01*
X135245000Y-78994131D01*
X135204200Y-78994131D01*
X135204200Y-75856634D01*
X135230689Y-75845689D01*
X135534622Y-75542286D01*
X135699313Y-75145668D01*
X135699687Y-74716216D01*
X135535689Y-74319311D01*
X135232286Y-74015378D01*
X134835668Y-73850687D01*
X134406216Y-73850313D01*
X134009311Y-74014311D01*
X133705378Y-74317714D01*
X133540687Y-74714332D01*
X133540313Y-75143784D01*
X133704311Y-75540689D01*
X134007714Y-75844622D01*
X134035800Y-75856284D01*
X134035800Y-78994131D01*
X133995000Y-78994131D01*
X133872635Y-79017156D01*
X133760251Y-79089473D01*
X133684856Y-79199817D01*
X133658331Y-79330800D01*
X133658331Y-80830800D01*
X133681356Y-80953165D01*
X133753673Y-81065549D01*
X133864017Y-81140944D01*
X133995000Y-81167469D01*
X135245000Y-81167469D01*
X135367365Y-81144444D01*
X135479749Y-81072127D01*
X135555144Y-80961783D01*
X135581669Y-80830800D01*
X135581669Y-80615800D01*
X136037002Y-80615800D01*
X136109333Y-80724051D01*
X136118071Y-80737129D01*
X137118671Y-81737729D01*
X137258757Y-81831331D01*
X137311106Y-81841744D01*
X137313556Y-81854765D01*
X137385873Y-81967149D01*
X137496217Y-82042544D01*
X137627200Y-82069069D01*
X137877200Y-82069069D01*
X137999565Y-82046044D01*
X138043905Y-82017512D01*
X138078003Y-82040296D01*
X138252200Y-82074946D01*
X138426397Y-82040296D01*
X138502200Y-81989646D01*
X138578003Y-82040296D01*
X138752200Y-82074946D01*
X138926397Y-82040296D01*
X139002200Y-81989646D01*
X139078003Y-82040296D01*
X139252200Y-82074946D01*
X139426397Y-82040296D01*
X139574075Y-81941621D01*
X139591863Y-81915000D01*
X141289243Y-81915000D01*
X141320200Y-81921269D01*
X142087600Y-81921269D01*
X142087600Y-82490116D01*
X142032187Y-82545432D01*
X141935311Y-82778737D01*
X141935090Y-83031355D01*
X142031560Y-83264828D01*
X142210032Y-83443613D01*
X142443337Y-83540489D01*
X142695955Y-83540710D01*
X142929428Y-83444240D01*
X143108213Y-83265768D01*
X143205089Y-83032463D01*
X143205310Y-82779845D01*
X143108840Y-82546372D01*
X143052800Y-82490234D01*
X143052800Y-81921269D01*
X143820200Y-81921269D01*
X143942565Y-81898244D01*
X144054949Y-81825927D01*
X144130344Y-81715583D01*
X144145367Y-81641400D01*
X145313531Y-81641400D01*
X145313531Y-81828800D01*
X145336556Y-81951165D01*
X145408873Y-82063549D01*
X145519217Y-82138944D01*
X145650200Y-82165469D01*
X146876211Y-82165469D01*
X149038742Y-84328000D01*
X148794914Y-84328000D01*
X148571598Y-83993784D01*
X148220147Y-83758952D01*
X147805582Y-83676490D01*
X146224818Y-83676490D01*
X145810253Y-83758952D01*
X145458802Y-83993784D01*
X145235486Y-84328000D01*
X128448858Y-84328000D01*
X127664593Y-83543735D01*
X127621748Y-83515107D01*
X127524507Y-83450133D01*
X127359264Y-83417264D01*
X126607576Y-83417264D01*
X126611246Y-83413600D01*
X128009808Y-83413600D01*
X128011156Y-83420765D01*
X128083473Y-83533149D01*
X128193817Y-83608544D01*
X128324800Y-83635069D01*
X128824800Y-83635069D01*
X128947165Y-83612044D01*
X129059549Y-83539727D01*
X129134944Y-83429383D01*
X129153571Y-83337400D01*
X131757363Y-83337400D01*
X131777459Y-83357531D01*
X131973435Y-83438907D01*
X132185634Y-83439092D01*
X132381752Y-83358058D01*
X132531931Y-83208141D01*
X132613307Y-83012165D01*
X132613433Y-82866550D01*
X133360000Y-82866550D01*
X133360000Y-83457109D01*
X133456673Y-83690498D01*
X133635301Y-83869127D01*
X133868690Y-83965800D01*
X134334250Y-83965800D01*
X134493000Y-83807050D01*
X134493000Y-82707800D01*
X134747000Y-82707800D01*
X134747000Y-83807050D01*
X134905750Y-83965800D01*
X135371310Y-83965800D01*
X135604699Y-83869127D01*
X135783327Y-83690498D01*
X135880000Y-83457109D01*
X135880000Y-82866550D01*
X135721250Y-82707800D01*
X134747000Y-82707800D01*
X134493000Y-82707800D01*
X133518750Y-82707800D01*
X133360000Y-82866550D01*
X132613433Y-82866550D01*
X132613492Y-82799966D01*
X132532458Y-82603848D01*
X132382541Y-82453669D01*
X132186565Y-82372293D01*
X131974366Y-82372108D01*
X131778248Y-82453142D01*
X131757554Y-82473800D01*
X129398044Y-82473800D01*
X129459800Y-82324709D01*
X129459800Y-82184150D01*
X129301050Y-82025400D01*
X128699800Y-82025400D01*
X128699800Y-82045400D01*
X128449800Y-82045400D01*
X128449800Y-82025400D01*
X127848550Y-82025400D01*
X127689800Y-82184150D01*
X127689800Y-82324709D01*
X127783119Y-82550000D01*
X126611437Y-82550000D01*
X126591341Y-82529869D01*
X126395365Y-82448493D01*
X126183166Y-82448308D01*
X125987048Y-82529342D01*
X125836869Y-82679259D01*
X125755493Y-82875235D01*
X125755308Y-83087434D01*
X125836342Y-83283552D01*
X125986259Y-83433731D01*
X125986885Y-83433991D01*
X125905735Y-83450133D01*
X125765649Y-83543735D01*
X125765647Y-83543738D01*
X124985106Y-84324278D01*
X124891504Y-84464364D01*
X124858635Y-84629607D01*
X124858635Y-84709753D01*
X124830686Y-84727738D01*
X124755291Y-84838082D01*
X124728766Y-84969065D01*
X124728766Y-84988813D01*
X124696993Y-84995133D01*
X124696991Y-84995134D01*
X124696992Y-84995134D01*
X124556906Y-85088736D01*
X124556904Y-85088739D01*
X123672071Y-85973571D01*
X123578469Y-86113657D01*
X123545600Y-86278900D01*
X123545600Y-88975142D01*
X123263400Y-89257342D01*
X123263400Y-84636658D01*
X126427967Y-81472091D01*
X127689800Y-81472091D01*
X127689800Y-81612650D01*
X127848550Y-81771400D01*
X128449800Y-81771400D01*
X128449800Y-81122150D01*
X128699800Y-81122150D01*
X128699800Y-81771400D01*
X129301050Y-81771400D01*
X129367959Y-81704491D01*
X133360000Y-81704491D01*
X133360000Y-82295050D01*
X133518750Y-82453800D01*
X134493000Y-82453800D01*
X134493000Y-81354550D01*
X134747000Y-81354550D01*
X134747000Y-82453800D01*
X135721250Y-82453800D01*
X135880000Y-82295050D01*
X135880000Y-81704491D01*
X135783327Y-81471102D01*
X135604699Y-81292473D01*
X135371310Y-81195800D01*
X134905750Y-81195800D01*
X134747000Y-81354550D01*
X134493000Y-81354550D01*
X134334250Y-81195800D01*
X133868690Y-81195800D01*
X133635301Y-81292473D01*
X133456673Y-81471102D01*
X133360000Y-81704491D01*
X129367959Y-81704491D01*
X129459800Y-81612650D01*
X129459800Y-81472091D01*
X129363127Y-81238702D01*
X129184499Y-81060073D01*
X128951110Y-80963400D01*
X128858550Y-80963400D01*
X128699800Y-81122150D01*
X128449800Y-81122150D01*
X128291050Y-80963400D01*
X128198490Y-80963400D01*
X127965101Y-81060073D01*
X127786473Y-81238702D01*
X127689800Y-81472091D01*
X126427967Y-81472091D01*
X129845329Y-78054729D01*
X129938931Y-77914643D01*
X129971800Y-77749400D01*
X129971800Y-75919605D01*
X130150689Y-75845689D01*
X130454622Y-75542286D01*
X130619313Y-75145668D01*
X130619314Y-75143784D01*
X131000313Y-75143784D01*
X131164311Y-75540689D01*
X131467714Y-75844622D01*
X131864332Y-76009313D01*
X132293784Y-76009687D01*
X132690689Y-75845689D01*
X132994622Y-75542286D01*
X133159313Y-75145668D01*
X133159687Y-74716216D01*
X132995689Y-74319311D01*
X132692286Y-74015378D01*
X132295668Y-73850687D01*
X131866216Y-73850313D01*
X131469311Y-74014311D01*
X131165378Y-74317714D01*
X131000687Y-74714332D01*
X131000313Y-75143784D01*
X130619314Y-75143784D01*
X130619687Y-74716216D01*
X130455689Y-74319311D01*
X130152286Y-74015378D01*
X129755668Y-73850687D01*
X129326216Y-73850313D01*
X128929311Y-74014311D01*
X128701800Y-74241425D01*
X128701800Y-73838858D01*
X129145573Y-73395085D01*
X129324332Y-73469313D01*
X129753784Y-73469687D01*
X130150689Y-73305689D01*
X130454622Y-73002286D01*
X130619313Y-72605668D01*
X130619314Y-72603784D01*
X131000313Y-72603784D01*
X131164311Y-73000689D01*
X131467714Y-73304622D01*
X131864332Y-73469313D01*
X132293784Y-73469687D01*
X132690689Y-73305689D01*
X132994622Y-73002286D01*
X133130212Y-72675750D01*
X133235700Y-72675750D01*
X133235700Y-73265610D01*
X133332373Y-73498999D01*
X133511002Y-73677627D01*
X133744391Y-73774300D01*
X134334250Y-73774300D01*
X134493000Y-73615550D01*
X134493000Y-72517000D01*
X134747000Y-72517000D01*
X134747000Y-73615550D01*
X134905750Y-73774300D01*
X135495609Y-73774300D01*
X135728998Y-73677627D01*
X135907627Y-73498999D01*
X136004300Y-73265610D01*
X136004300Y-72777326D01*
X145998862Y-72777326D01*
X146295987Y-73496424D01*
X146845682Y-74047079D01*
X147564261Y-74345459D01*
X148342326Y-74346138D01*
X149061424Y-74049013D01*
X149612079Y-73499318D01*
X149910459Y-72780739D01*
X149911138Y-72002674D01*
X149614013Y-71283576D01*
X149064318Y-70732921D01*
X148345739Y-70434541D01*
X147567674Y-70433862D01*
X146848576Y-70730987D01*
X146297921Y-71280682D01*
X145999541Y-71999261D01*
X145998862Y-72777326D01*
X136004300Y-72777326D01*
X136004300Y-72675750D01*
X135845550Y-72517000D01*
X134747000Y-72517000D01*
X134493000Y-72517000D01*
X133394450Y-72517000D01*
X133235700Y-72675750D01*
X133130212Y-72675750D01*
X133159313Y-72605668D01*
X133159687Y-72176216D01*
X132995689Y-71779311D01*
X132731230Y-71514390D01*
X133235700Y-71514390D01*
X133235700Y-72104250D01*
X133394450Y-72263000D01*
X134493000Y-72263000D01*
X134493000Y-71164450D01*
X134747000Y-71164450D01*
X134747000Y-72263000D01*
X135845550Y-72263000D01*
X136004300Y-72104250D01*
X136004300Y-71514390D01*
X135907627Y-71281001D01*
X135728998Y-71102373D01*
X135495609Y-71005700D01*
X134905750Y-71005700D01*
X134747000Y-71164450D01*
X134493000Y-71164450D01*
X134334250Y-71005700D01*
X133744391Y-71005700D01*
X133511002Y-71102373D01*
X133332373Y-71281001D01*
X133235700Y-71514390D01*
X132731230Y-71514390D01*
X132692286Y-71475378D01*
X132295668Y-71310687D01*
X131866216Y-71310313D01*
X131469311Y-71474311D01*
X131165378Y-71777714D01*
X131000687Y-72174332D01*
X131000313Y-72603784D01*
X130619314Y-72603784D01*
X130619687Y-72176216D01*
X130455689Y-71779311D01*
X130152286Y-71475378D01*
X129755668Y-71310687D01*
X129326216Y-71310313D01*
X128929311Y-71474311D01*
X128625378Y-71777714D01*
X128460687Y-72174332D01*
X128460313Y-72603784D01*
X128534942Y-72784400D01*
X127964671Y-73354671D01*
X127871069Y-73494757D01*
X127838200Y-73660000D01*
X127838200Y-74241687D01*
X127612286Y-74015378D01*
X127215668Y-73850687D01*
X126786216Y-73850313D01*
X126389311Y-74014311D01*
X126085378Y-74317714D01*
X125920687Y-74714332D01*
X125920313Y-75143784D01*
X126084311Y-75540689D01*
X126387714Y-75844622D01*
X126784332Y-76009313D01*
X127213784Y-76009687D01*
X127610689Y-75845689D01*
X127838200Y-75618575D01*
X127838200Y-76021142D01*
X122026271Y-81833071D01*
X121932669Y-81973157D01*
X121899800Y-82138400D01*
X121899800Y-89890671D01*
X121712766Y-89890508D01*
X121705000Y-89893717D01*
X121705000Y-80541096D01*
X122225326Y-80020769D01*
X122225329Y-80020767D01*
X122318931Y-79880681D01*
X122351800Y-79715438D01*
X122351800Y-75919605D01*
X122530689Y-75845689D01*
X122834622Y-75542286D01*
X122999313Y-75145668D01*
X122999314Y-75143784D01*
X123380313Y-75143784D01*
X123544311Y-75540689D01*
X123847714Y-75844622D01*
X124244332Y-76009313D01*
X124673784Y-76009687D01*
X125070689Y-75845689D01*
X125374622Y-75542286D01*
X125539313Y-75145668D01*
X125539687Y-74716216D01*
X125375689Y-74319311D01*
X125072286Y-74015378D01*
X124675668Y-73850687D01*
X124246216Y-73850313D01*
X123849311Y-74014311D01*
X123545378Y-74317714D01*
X123380687Y-74714332D01*
X123380313Y-75143784D01*
X122999314Y-75143784D01*
X122999687Y-74716216D01*
X122835689Y-74319311D01*
X122532286Y-74015378D01*
X122135668Y-73850687D01*
X121964179Y-73850538D01*
X121968600Y-73828314D01*
X121968600Y-73469543D01*
X122133784Y-73469687D01*
X122530689Y-73305689D01*
X122834622Y-73002286D01*
X122999313Y-72605668D01*
X122999314Y-72603784D01*
X123380313Y-72603784D01*
X123544311Y-73000689D01*
X123847714Y-73304622D01*
X124244332Y-73469313D01*
X124673784Y-73469687D01*
X125070689Y-73305689D01*
X125374622Y-73002286D01*
X125539313Y-72605668D01*
X125539314Y-72603784D01*
X125920313Y-72603784D01*
X126084311Y-73000689D01*
X126387714Y-73304622D01*
X126784332Y-73469313D01*
X127213784Y-73469687D01*
X127610689Y-73305689D01*
X127914622Y-73002286D01*
X128079313Y-72605668D01*
X128079687Y-72176216D01*
X127915689Y-71779311D01*
X127612286Y-71475378D01*
X127215668Y-71310687D01*
X126786216Y-71310313D01*
X126389311Y-71474311D01*
X126085378Y-71777714D01*
X125920687Y-72174332D01*
X125920313Y-72603784D01*
X125539314Y-72603784D01*
X125539687Y-72176216D01*
X125375689Y-71779311D01*
X125072286Y-71475378D01*
X124675668Y-71310687D01*
X124246216Y-71310313D01*
X123849311Y-71474311D01*
X123545378Y-71777714D01*
X123380687Y-72174332D01*
X123380313Y-72603784D01*
X122999314Y-72603784D01*
X122999687Y-72176216D01*
X122835689Y-71779311D01*
X122532286Y-71475378D01*
X122135668Y-71310687D01*
X121706216Y-71310313D01*
X121309311Y-71474311D01*
X121005378Y-71777714D01*
X120840687Y-72174332D01*
X120840313Y-72603784D01*
X121004311Y-73000689D01*
X121105000Y-73101554D01*
X121105000Y-73649456D01*
X120611370Y-74143086D01*
X120572626Y-74201071D01*
X120351010Y-74138595D01*
X119559605Y-74930000D01*
X120351010Y-75721405D01*
X120572626Y-75658929D01*
X120611370Y-75716914D01*
X121105000Y-76210544D01*
X121105000Y-79333207D01*
X120584671Y-79853535D01*
X120491069Y-79993621D01*
X120458200Y-80158864D01*
X120458200Y-90524250D01*
X120394100Y-90588350D01*
X120394100Y-90945251D01*
X120369931Y-91064600D01*
X120369931Y-91561600D01*
X120269100Y-91561600D01*
X120269100Y-91541600D01*
X119730350Y-91541600D01*
X119669019Y-91602931D01*
X119567189Y-91602931D01*
X118902549Y-90938291D01*
X119571600Y-90938291D01*
X119571600Y-91128850D01*
X119730350Y-91287600D01*
X120269100Y-91287600D01*
X120269100Y-90588350D01*
X120110350Y-90429600D01*
X120080290Y-90429600D01*
X119846901Y-90526273D01*
X119668273Y-90704902D01*
X119571600Y-90938291D01*
X118902549Y-90938291D01*
X118017469Y-90053211D01*
X118017469Y-89377200D01*
X117994444Y-89254835D01*
X117922127Y-89142451D01*
X117811783Y-89067056D01*
X117680800Y-89040531D01*
X117618600Y-89040531D01*
X117618600Y-88517773D01*
X117721549Y-88451527D01*
X117796944Y-88341183D01*
X117823469Y-88210200D01*
X117823469Y-87710200D01*
X117800444Y-87587835D01*
X117728127Y-87475451D01*
X117617783Y-87400056D01*
X117486800Y-87373531D01*
X116934666Y-87373531D01*
X116925127Y-87350501D01*
X116746498Y-87171873D01*
X116723991Y-87162550D01*
X118444200Y-87162550D01*
X118444200Y-87303109D01*
X118540873Y-87536498D01*
X118719501Y-87715127D01*
X118742531Y-87724666D01*
X118742531Y-88276800D01*
X118765556Y-88399165D01*
X118837873Y-88511549D01*
X118897400Y-88552222D01*
X118897400Y-88907563D01*
X118877269Y-88927659D01*
X118795893Y-89123635D01*
X118795708Y-89335834D01*
X118876742Y-89531952D01*
X119026659Y-89682131D01*
X119222635Y-89763507D01*
X119434834Y-89763692D01*
X119630952Y-89682658D01*
X119781131Y-89532741D01*
X119862507Y-89336765D01*
X119862692Y-89124566D01*
X119781658Y-88928448D01*
X119761000Y-88907754D01*
X119761000Y-88552199D01*
X119813949Y-88518127D01*
X119889344Y-88407783D01*
X119915869Y-88276800D01*
X119915869Y-87724666D01*
X119938899Y-87715127D01*
X120117527Y-87536498D01*
X120214200Y-87303109D01*
X120214200Y-87162550D01*
X120055450Y-87003800D01*
X119454200Y-87003800D01*
X119454200Y-87023800D01*
X119204200Y-87023800D01*
X119204200Y-87003800D01*
X118602950Y-87003800D01*
X118444200Y-87162550D01*
X116723991Y-87162550D01*
X116513109Y-87075200D01*
X116372550Y-87075200D01*
X116213800Y-87233950D01*
X116213800Y-87835200D01*
X116233800Y-87835200D01*
X116233800Y-88085200D01*
X116213800Y-88085200D01*
X116213800Y-88107200D01*
X115959800Y-88107200D01*
X115959800Y-88085200D01*
X115310550Y-88085200D01*
X115151800Y-88243950D01*
X115151800Y-88336510D01*
X115248473Y-88569899D01*
X115427102Y-88748527D01*
X115556588Y-88802162D01*
X115457800Y-88900950D01*
X115457800Y-89725200D01*
X115477800Y-89725200D01*
X115477800Y-89979200D01*
X115457800Y-89979200D01*
X115457800Y-89999200D01*
X115203800Y-89999200D01*
X115203800Y-89979200D01*
X115183800Y-89979200D01*
X115183800Y-89725200D01*
X115203800Y-89725200D01*
X115203800Y-88900950D01*
X115045050Y-88742200D01*
X114704491Y-88742200D01*
X114471102Y-88838873D01*
X114292473Y-89017501D01*
X114195800Y-89250890D01*
X114195800Y-89566450D01*
X114354548Y-89725198D01*
X114272369Y-89725198D01*
X114250127Y-89671502D01*
X114071499Y-89492873D01*
X113838110Y-89396200D01*
X113745550Y-89396200D01*
X113586800Y-89554950D01*
X113586800Y-90204200D01*
X113608800Y-90204200D01*
X113608800Y-90458200D01*
X113586800Y-90458200D01*
X113586800Y-90478200D01*
X113336800Y-90478200D01*
X113336800Y-90458200D01*
X112735550Y-90458200D01*
X112576800Y-90616950D01*
X112576800Y-90757509D01*
X112673473Y-90990898D01*
X112852101Y-91169527D01*
X112875131Y-91179066D01*
X112875131Y-91731200D01*
X112898156Y-91853565D01*
X112970473Y-91965949D01*
X113080817Y-92041344D01*
X113211800Y-92067869D01*
X113711800Y-92067869D01*
X113834165Y-92044844D01*
X113946549Y-91972527D01*
X114021944Y-91862183D01*
X114027651Y-91834000D01*
X114494131Y-91834000D01*
X114494131Y-91877200D01*
X114517156Y-91999565D01*
X114589473Y-92111949D01*
X114699817Y-92187344D01*
X114830800Y-92213869D01*
X115556811Y-92213869D01*
X115975742Y-92632800D01*
X114072660Y-92632800D01*
X114069844Y-92617835D01*
X113997527Y-92505451D01*
X113887183Y-92430056D01*
X113756200Y-92403531D01*
X113356200Y-92403531D01*
X113233835Y-92426556D01*
X113121451Y-92498873D01*
X113106950Y-92520095D01*
X113097527Y-92505451D01*
X112987183Y-92430056D01*
X112856200Y-92403531D01*
X112456200Y-92403531D01*
X112333835Y-92426556D01*
X112221451Y-92498873D01*
X112206627Y-92520569D01*
X111836267Y-92150209D01*
X111836292Y-92121766D01*
X111755258Y-91925648D01*
X111605341Y-91775469D01*
X111409365Y-91694093D01*
X111197166Y-91693908D01*
X111001048Y-91774942D01*
X110850869Y-91924859D01*
X110769493Y-92120835D01*
X110769308Y-92333034D01*
X110850342Y-92529152D01*
X111000259Y-92679331D01*
X111196235Y-92760707D01*
X111225474Y-92760732D01*
X111627143Y-93162401D01*
X109249952Y-93162401D01*
X109249947Y-93162400D01*
X109113209Y-93189600D01*
X109084704Y-93195270D01*
X108961353Y-93277690D01*
X108944618Y-93288872D01*
X107207046Y-95026444D01*
X107207313Y-94720845D01*
X106976752Y-94162843D01*
X106550202Y-93735549D01*
X105992604Y-93504014D01*
X105388845Y-93503487D01*
X104830843Y-93734048D01*
X104688920Y-93875724D01*
X104559391Y-93860539D01*
X104639582Y-93827405D01*
X104875577Y-93591822D01*
X105003454Y-93283860D01*
X105003745Y-92950403D01*
X104876405Y-92642218D01*
X104640822Y-92406223D01*
X104332860Y-92278346D01*
X103999403Y-92278055D01*
X103691218Y-92405395D01*
X103455223Y-92640978D01*
X103327346Y-92948940D01*
X103327055Y-93282397D01*
X103385470Y-93423771D01*
X103275181Y-93469454D01*
X103251244Y-93673639D01*
X103784400Y-94206795D01*
X103798543Y-94192653D01*
X103978148Y-94372258D01*
X103964005Y-94386400D01*
X103978148Y-94400543D01*
X103798543Y-94580148D01*
X103784400Y-94566005D01*
X103251244Y-95099161D01*
X103258235Y-95158791D01*
X103171065Y-95245808D01*
X103149483Y-95297783D01*
X103128450Y-95246879D01*
X102924992Y-95043065D01*
X102873017Y-95021483D01*
X102923921Y-95000450D01*
X103011965Y-94912560D01*
X103071639Y-94919556D01*
X103604795Y-94386400D01*
X103071639Y-93853244D01*
X103012009Y-93860235D01*
X102924992Y-93773065D01*
X102739270Y-93695947D01*
X102843577Y-93591822D01*
X102971454Y-93283860D01*
X102971745Y-92950403D01*
X102844405Y-92642218D01*
X102608822Y-92406223D01*
X102300860Y-92278346D01*
X101967403Y-92278055D01*
X101659218Y-92405395D01*
X101423223Y-92640978D01*
X101295346Y-92948940D01*
X101295055Y-93282397D01*
X101422395Y-93590582D01*
X101657978Y-93826577D01*
X101935230Y-93941702D01*
X101901065Y-93975808D01*
X101844949Y-94110950D01*
X101470202Y-93735549D01*
X100912604Y-93504014D01*
X100308845Y-93503487D01*
X99750843Y-93734048D01*
X99323549Y-94160598D01*
X99092014Y-94718196D01*
X99091487Y-95321955D01*
X93369200Y-95321955D01*
X93369200Y-89904891D01*
X112576800Y-89904891D01*
X112576800Y-90045450D01*
X112735550Y-90204200D01*
X113336800Y-90204200D01*
X113336800Y-89554950D01*
X113178050Y-89396200D01*
X113085490Y-89396200D01*
X112852101Y-89492873D01*
X112673473Y-89671502D01*
X112576800Y-89904891D01*
X93369200Y-89904891D01*
X93369200Y-87583890D01*
X115151800Y-87583890D01*
X115151800Y-87676450D01*
X115310550Y-87835200D01*
X115959800Y-87835200D01*
X115959800Y-87233950D01*
X115801050Y-87075200D01*
X115660491Y-87075200D01*
X115427102Y-87171873D01*
X115248473Y-87350501D01*
X115151800Y-87583890D01*
X93369200Y-87583890D01*
X93369200Y-87400200D01*
X95885000Y-87400200D01*
X95924143Y-87392414D01*
X95964051Y-87392414D01*
X98394090Y-86909049D01*
X98394091Y-86909049D01*
X98458859Y-86882221D01*
X98540156Y-86848547D01*
X98540157Y-86848546D01*
X99135888Y-86450491D01*
X118444200Y-86450491D01*
X118444200Y-86591050D01*
X118602950Y-86749800D01*
X119204200Y-86749800D01*
X119204200Y-86100550D01*
X119454200Y-86100550D01*
X119454200Y-86749800D01*
X120055450Y-86749800D01*
X120214200Y-86591050D01*
X120214200Y-86450491D01*
X120117527Y-86217102D01*
X119938899Y-86038473D01*
X119705510Y-85941800D01*
X119612950Y-85941800D01*
X119454200Y-86100550D01*
X119204200Y-86100550D01*
X119045450Y-85941800D01*
X118952890Y-85941800D01*
X118719501Y-86038473D01*
X118540873Y-86217102D01*
X118444200Y-86450491D01*
X99135888Y-86450491D01*
X100600245Y-85472039D01*
X100712039Y-85360245D01*
X102088547Y-83300157D01*
X102149049Y-83154091D01*
X102149049Y-83154090D01*
X102632414Y-80724051D01*
X102632414Y-80684143D01*
X102640200Y-80645000D01*
X102640200Y-75901010D01*
X118588595Y-75901010D01*
X118656499Y-76141880D01*
X119175339Y-76326503D01*
X119725336Y-76298521D01*
X120103501Y-76141880D01*
X120171405Y-75901010D01*
X119380000Y-75109605D01*
X118588595Y-75901010D01*
X102640200Y-75901010D01*
X102640200Y-74725339D01*
X117983497Y-74725339D01*
X118011479Y-75275336D01*
X118168120Y-75653501D01*
X118408990Y-75721405D01*
X119200395Y-74930000D01*
X118408990Y-74138595D01*
X118168120Y-74206499D01*
X117983497Y-74725339D01*
X102640200Y-74725339D01*
X102640200Y-72777326D01*
X104088862Y-72777326D01*
X104385987Y-73496424D01*
X104935682Y-74047079D01*
X105654261Y-74345459D01*
X106432326Y-74346138D01*
X107151424Y-74049013D01*
X107241604Y-73958990D01*
X118588595Y-73958990D01*
X119380000Y-74750395D01*
X120171405Y-73958990D01*
X120103501Y-73718120D01*
X119584661Y-73533497D01*
X119034664Y-73561479D01*
X118656499Y-73718120D01*
X118588595Y-73958990D01*
X107241604Y-73958990D01*
X107702079Y-73499318D01*
X108000459Y-72780739D01*
X108000613Y-72603784D01*
X118300313Y-72603784D01*
X118464311Y-73000689D01*
X118767714Y-73304622D01*
X119164332Y-73469313D01*
X119593784Y-73469687D01*
X119990689Y-73305689D01*
X120294622Y-73002286D01*
X120459313Y-72605668D01*
X120459687Y-72176216D01*
X120295689Y-71779311D01*
X119992286Y-71475378D01*
X119595668Y-71310687D01*
X119166216Y-71310313D01*
X118769311Y-71474311D01*
X118465378Y-71777714D01*
X118300687Y-72174332D01*
X118300313Y-72603784D01*
X108000613Y-72603784D01*
X108001138Y-72002674D01*
X107704013Y-71283576D01*
X107154318Y-70732921D01*
X106435739Y-70434541D01*
X105657674Y-70433862D01*
X104938576Y-70730987D01*
X104387921Y-71280682D01*
X104089541Y-71999261D01*
X104088862Y-72777326D01*
X102640200Y-72777326D01*
X102640200Y-68985200D01*
X151359800Y-68985200D01*
X151359800Y-80645000D01*
G36*
X114112635Y-94045956D02*
X114000251Y-94118273D01*
X113924856Y-94228617D01*
X113898331Y-94359600D01*
X113898331Y-97359600D01*
X113921356Y-97481965D01*
X113993673Y-97594349D01*
X114104017Y-97669744D01*
X114235000Y-97696269D01*
X115635000Y-97696269D01*
X115757365Y-97673244D01*
X115869749Y-97600927D01*
X115945144Y-97490583D01*
X115971669Y-97359600D01*
X115971669Y-94633588D01*
X116108857Y-94496400D01*
X118849650Y-94496400D01*
X118855350Y-94502100D01*
X119212251Y-94502100D01*
X119331600Y-94526269D01*
X119828600Y-94526269D01*
X119828600Y-94602931D01*
X119331600Y-94602931D01*
X119209235Y-94625956D01*
X119207457Y-94627100D01*
X118855350Y-94627100D01*
X118849650Y-94632800D01*
X118092200Y-94632800D01*
X117926957Y-94665669D01*
X117794354Y-94754271D01*
X117786871Y-94759271D01*
X116610871Y-95935271D01*
X116517269Y-96075357D01*
X116484400Y-96240600D01*
X116484400Y-97636542D01*
X115585542Y-98535400D01*
X115492573Y-98535400D01*
X115426327Y-98432451D01*
X115315983Y-98357056D01*
X115185000Y-98330531D01*
X114685000Y-98330531D01*
X114562635Y-98353556D01*
X114450251Y-98425873D01*
X114374856Y-98536217D01*
X114364734Y-98586200D01*
X113079573Y-98586200D01*
X113013327Y-98483251D01*
X112966800Y-98451460D01*
X112966800Y-97696269D01*
X113235000Y-97696269D01*
X113357365Y-97673244D01*
X113469749Y-97600927D01*
X113545144Y-97490583D01*
X113571669Y-97359600D01*
X113571669Y-94359600D01*
X113548644Y-94237235D01*
X113476327Y-94124851D01*
X113365983Y-94049456D01*
X113250160Y-94026001D01*
X114218685Y-94026001D01*
X114112635Y-94045956D01*
X114112635Y-94045956D01*
G37*
X114112635Y-94045956D02*
X114000251Y-94118273D01*
X113924856Y-94228617D01*
X113898331Y-94359600D01*
X113898331Y-97359600D01*
X113921356Y-97481965D01*
X113993673Y-97594349D01*
X114104017Y-97669744D01*
X114235000Y-97696269D01*
X115635000Y-97696269D01*
X115757365Y-97673244D01*
X115869749Y-97600927D01*
X115945144Y-97490583D01*
X115971669Y-97359600D01*
X115971669Y-94633588D01*
X116108857Y-94496400D01*
X118849650Y-94496400D01*
X118855350Y-94502100D01*
X119212251Y-94502100D01*
X119331600Y-94526269D01*
X119828600Y-94526269D01*
X119828600Y-94602931D01*
X119331600Y-94602931D01*
X119209235Y-94625956D01*
X119207457Y-94627100D01*
X118855350Y-94627100D01*
X118849650Y-94632800D01*
X118092200Y-94632800D01*
X117926957Y-94665669D01*
X117794354Y-94754271D01*
X117786871Y-94759271D01*
X116610871Y-95935271D01*
X116517269Y-96075357D01*
X116484400Y-96240600D01*
X116484400Y-97636542D01*
X115585542Y-98535400D01*
X115492573Y-98535400D01*
X115426327Y-98432451D01*
X115315983Y-98357056D01*
X115185000Y-98330531D01*
X114685000Y-98330531D01*
X114562635Y-98353556D01*
X114450251Y-98425873D01*
X114374856Y-98536217D01*
X114364734Y-98586200D01*
X113079573Y-98586200D01*
X113013327Y-98483251D01*
X112966800Y-98451460D01*
X112966800Y-97696269D01*
X113235000Y-97696269D01*
X113357365Y-97673244D01*
X113469749Y-97600927D01*
X113545144Y-97490583D01*
X113571669Y-97359600D01*
X113571669Y-94359600D01*
X113548644Y-94237235D01*
X113476327Y-94124851D01*
X113365983Y-94049456D01*
X113250160Y-94026001D01*
X114218685Y-94026001D01*
X114112635Y-94045956D01*
G36*
X121277350Y-92756350D02*
X122310850Y-92756350D01*
X122310850Y-92736350D01*
X122564850Y-92736350D01*
X122564850Y-92756350D01*
X123598350Y-92756350D01*
X123598350Y-92736350D01*
X123852350Y-92736350D01*
X123852350Y-92756350D01*
X124885850Y-92756350D01*
X124885850Y-92736350D01*
X125139850Y-92736350D01*
X125139850Y-92756350D01*
X125159850Y-92756350D01*
X125159850Y-93010350D01*
X125139850Y-93010350D01*
X125139850Y-94043850D01*
X125159850Y-94043850D01*
X125159850Y-94297850D01*
X125139850Y-94297850D01*
X125139850Y-95331350D01*
X125159850Y-95331350D01*
X125159850Y-95585350D01*
X125139850Y-95585350D01*
X125139850Y-96618850D01*
X125159850Y-96618850D01*
X125159850Y-96872850D01*
X125139850Y-96872850D01*
X125139850Y-96892850D01*
X124885850Y-96892850D01*
X124885850Y-96872850D01*
X123852350Y-96872850D01*
X123852350Y-96892850D01*
X123598350Y-96892850D01*
X123598350Y-96872850D01*
X122564850Y-96872850D01*
X122564850Y-96892850D01*
X122310850Y-96892850D01*
X122310850Y-96872850D01*
X121277350Y-96872850D01*
X121277350Y-96892850D01*
X121023350Y-96892850D01*
X121023350Y-96872850D01*
X121003350Y-96872850D01*
X121003350Y-96618850D01*
X121023350Y-96618850D01*
X121023350Y-95744100D01*
X121159100Y-95744100D01*
X121159100Y-96460100D01*
X121277350Y-96578350D01*
X121277350Y-96618850D01*
X121317850Y-96618850D01*
X121436100Y-96737100D01*
X122152100Y-96737100D01*
X122270350Y-96618850D01*
X122310850Y-96618850D01*
X122310850Y-96578350D01*
X122429100Y-96460100D01*
X122429100Y-95744100D01*
X122446600Y-95744100D01*
X122446600Y-96460100D01*
X122564850Y-96578350D01*
X122564850Y-96618850D01*
X122605350Y-96618850D01*
X122723600Y-96737100D01*
X123439600Y-96737100D01*
X123557850Y-96618850D01*
X123598350Y-96618850D01*
X123598350Y-96578350D01*
X123716600Y-96460100D01*
X123716600Y-95744100D01*
X123734100Y-95744100D01*
X123734100Y-96460100D01*
X123852350Y-96578350D01*
X123852350Y-96618850D01*
X123892850Y-96618850D01*
X124011100Y-96737100D01*
X124727100Y-96737100D01*
X124845350Y-96618850D01*
X124885850Y-96618850D01*
X124885850Y-96578350D01*
X125004100Y-96460100D01*
X125004100Y-95744100D01*
X124885850Y-95625850D01*
X124885850Y-95585350D01*
X124845350Y-95585350D01*
X124727100Y-95467100D01*
X124011100Y-95467100D01*
X123892850Y-95585350D01*
X123852350Y-95585350D01*
X123852350Y-95625850D01*
X123734100Y-95744100D01*
X123716600Y-95744100D01*
X123598350Y-95625850D01*
X123598350Y-95585350D01*
X123557850Y-95585350D01*
X123439600Y-95467100D01*
X122723600Y-95467100D01*
X122605350Y-95585350D01*
X122564850Y-95585350D01*
X122564850Y-95625850D01*
X122446600Y-95744100D01*
X122429100Y-95744100D01*
X122310850Y-95625850D01*
X122310850Y-95585350D01*
X122270350Y-95585350D01*
X122152100Y-95467100D01*
X121436100Y-95467100D01*
X121317850Y-95585350D01*
X121277350Y-95585350D01*
X121277350Y-95625850D01*
X121159100Y-95744100D01*
X121023350Y-95744100D01*
X121023350Y-95585350D01*
X121003350Y-95585350D01*
X121003350Y-95331350D01*
X121023350Y-95331350D01*
X121023350Y-94456600D01*
X121159100Y-94456600D01*
X121159100Y-95172600D01*
X121277350Y-95290850D01*
X121277350Y-95331350D01*
X121317850Y-95331350D01*
X121436100Y-95449600D01*
X122152100Y-95449600D01*
X122270350Y-95331350D01*
X122310850Y-95331350D01*
X122310850Y-95290850D01*
X122429100Y-95172600D01*
X122429100Y-94456600D01*
X122446600Y-94456600D01*
X122446600Y-95172600D01*
X122564850Y-95290850D01*
X122564850Y-95331350D01*
X122605350Y-95331350D01*
X122723600Y-95449600D01*
X123439600Y-95449600D01*
X123557850Y-95331350D01*
X123598350Y-95331350D01*
X123598350Y-95290850D01*
X123716600Y-95172600D01*
X123716600Y-94456600D01*
X123734100Y-94456600D01*
X123734100Y-95172600D01*
X123852350Y-95290850D01*
X123852350Y-95331350D01*
X123892850Y-95331350D01*
X124011100Y-95449600D01*
X124727100Y-95449600D01*
X124845350Y-95331350D01*
X124885850Y-95331350D01*
X124885850Y-95290850D01*
X125004100Y-95172600D01*
X125004100Y-94456600D01*
X124885850Y-94338350D01*
X124885850Y-94297850D01*
X124845350Y-94297850D01*
X124727100Y-94179600D01*
X124011100Y-94179600D01*
X123892850Y-94297850D01*
X123852350Y-94297850D01*
X123852350Y-94338350D01*
X123734100Y-94456600D01*
X123716600Y-94456600D01*
X123598350Y-94338350D01*
X123598350Y-94297850D01*
X123557850Y-94297850D01*
X123439600Y-94179600D01*
X122723600Y-94179600D01*
X122605350Y-94297850D01*
X122564850Y-94297850D01*
X122564850Y-94338350D01*
X122446600Y-94456600D01*
X122429100Y-94456600D01*
X122310850Y-94338350D01*
X122310850Y-94297850D01*
X122270350Y-94297850D01*
X122152100Y-94179600D01*
X121436100Y-94179600D01*
X121317850Y-94297850D01*
X121277350Y-94297850D01*
X121277350Y-94338350D01*
X121159100Y-94456600D01*
X121023350Y-94456600D01*
X121023350Y-94297850D01*
X121003350Y-94297850D01*
X121003350Y-94043850D01*
X121023350Y-94043850D01*
X121023350Y-93169100D01*
X121159100Y-93169100D01*
X121159100Y-93885100D01*
X121277350Y-94003350D01*
X121277350Y-94043850D01*
X121317850Y-94043850D01*
X121436100Y-94162100D01*
X122152100Y-94162100D01*
X122270350Y-94043850D01*
X122310850Y-94043850D01*
X122310850Y-94003350D01*
X122429100Y-93885100D01*
X122429100Y-93169100D01*
X122446600Y-93169100D01*
X122446600Y-93885100D01*
X122564850Y-94003350D01*
X122564850Y-94043850D01*
X122605350Y-94043850D01*
X122723600Y-94162100D01*
X123439600Y-94162100D01*
X123557850Y-94043850D01*
X123598350Y-94043850D01*
X123598350Y-94003350D01*
X123716600Y-93885100D01*
X123716600Y-93169100D01*
X123734100Y-93169100D01*
X123734100Y-93885100D01*
X123852350Y-94003350D01*
X123852350Y-94043850D01*
X123892850Y-94043850D01*
X124011100Y-94162100D01*
X124727100Y-94162100D01*
X124845350Y-94043850D01*
X124885850Y-94043850D01*
X124885850Y-94003350D01*
X125004100Y-93885100D01*
X125004100Y-93169100D01*
X124885850Y-93050850D01*
X124885850Y-93010350D01*
X124845350Y-93010350D01*
X124727100Y-92892100D01*
X124011100Y-92892100D01*
X123892850Y-93010350D01*
X123852350Y-93010350D01*
X123852350Y-93050850D01*
X123734100Y-93169100D01*
X123716600Y-93169100D01*
X123598350Y-93050850D01*
X123598350Y-93010350D01*
X123557850Y-93010350D01*
X123439600Y-92892100D01*
X122723600Y-92892100D01*
X122605350Y-93010350D01*
X122564850Y-93010350D01*
X122564850Y-93050850D01*
X122446600Y-93169100D01*
X122429100Y-93169100D01*
X122310850Y-93050850D01*
X122310850Y-93010350D01*
X122270350Y-93010350D01*
X122152100Y-92892100D01*
X121436100Y-92892100D01*
X121317850Y-93010350D01*
X121277350Y-93010350D01*
X121277350Y-93050850D01*
X121159100Y-93169100D01*
X121023350Y-93169100D01*
X121023350Y-93010350D01*
X121003350Y-93010350D01*
X121003350Y-92756350D01*
X121023350Y-92756350D01*
X121023350Y-92736350D01*
X121277350Y-92736350D01*
X121277350Y-92756350D01*
X121277350Y-92756350D01*
G37*
X121277350Y-92756350D02*
X122310850Y-92756350D01*
X122310850Y-92736350D01*
X122564850Y-92736350D01*
X122564850Y-92756350D01*
X123598350Y-92756350D01*
X123598350Y-92736350D01*
X123852350Y-92736350D01*
X123852350Y-92756350D01*
X124885850Y-92756350D01*
X124885850Y-92736350D01*
X125139850Y-92736350D01*
X125139850Y-92756350D01*
X125159850Y-92756350D01*
X125159850Y-93010350D01*
X125139850Y-93010350D01*
X125139850Y-94043850D01*
X125159850Y-94043850D01*
X125159850Y-94297850D01*
X125139850Y-94297850D01*
X125139850Y-95331350D01*
X125159850Y-95331350D01*
X125159850Y-95585350D01*
X125139850Y-95585350D01*
X125139850Y-96618850D01*
X125159850Y-96618850D01*
X125159850Y-96872850D01*
X125139850Y-96872850D01*
X125139850Y-96892850D01*
X124885850Y-96892850D01*
X124885850Y-96872850D01*
X123852350Y-96872850D01*
X123852350Y-96892850D01*
X123598350Y-96892850D01*
X123598350Y-96872850D01*
X122564850Y-96872850D01*
X122564850Y-96892850D01*
X122310850Y-96892850D01*
X122310850Y-96872850D01*
X121277350Y-96872850D01*
X121277350Y-96892850D01*
X121023350Y-96892850D01*
X121023350Y-96872850D01*
X121003350Y-96872850D01*
X121003350Y-96618850D01*
X121023350Y-96618850D01*
X121023350Y-95744100D01*
X121159100Y-95744100D01*
X121159100Y-96460100D01*
X121277350Y-96578350D01*
X121277350Y-96618850D01*
X121317850Y-96618850D01*
X121436100Y-96737100D01*
X122152100Y-96737100D01*
X122270350Y-96618850D01*
X122310850Y-96618850D01*
X122310850Y-96578350D01*
X122429100Y-96460100D01*
X122429100Y-95744100D01*
X122446600Y-95744100D01*
X122446600Y-96460100D01*
X122564850Y-96578350D01*
X122564850Y-96618850D01*
X122605350Y-96618850D01*
X122723600Y-96737100D01*
X123439600Y-96737100D01*
X123557850Y-96618850D01*
X123598350Y-96618850D01*
X123598350Y-96578350D01*
X123716600Y-96460100D01*
X123716600Y-95744100D01*
X123734100Y-95744100D01*
X123734100Y-96460100D01*
X123852350Y-96578350D01*
X123852350Y-96618850D01*
X123892850Y-96618850D01*
X124011100Y-96737100D01*
X124727100Y-96737100D01*
X124845350Y-96618850D01*
X124885850Y-96618850D01*
X124885850Y-96578350D01*
X125004100Y-96460100D01*
X125004100Y-95744100D01*
X124885850Y-95625850D01*
X124885850Y-95585350D01*
X124845350Y-95585350D01*
X124727100Y-95467100D01*
X124011100Y-95467100D01*
X123892850Y-95585350D01*
X123852350Y-95585350D01*
X123852350Y-95625850D01*
X123734100Y-95744100D01*
X123716600Y-95744100D01*
X123598350Y-95625850D01*
X123598350Y-95585350D01*
X123557850Y-95585350D01*
X123439600Y-95467100D01*
X122723600Y-95467100D01*
X122605350Y-95585350D01*
X122564850Y-95585350D01*
X122564850Y-95625850D01*
X122446600Y-95744100D01*
X122429100Y-95744100D01*
X122310850Y-95625850D01*
X122310850Y-95585350D01*
X122270350Y-95585350D01*
X122152100Y-95467100D01*
X121436100Y-95467100D01*
X121317850Y-95585350D01*
X121277350Y-95585350D01*
X121277350Y-95625850D01*
X121159100Y-95744100D01*
X121023350Y-95744100D01*
X121023350Y-95585350D01*
X121003350Y-95585350D01*
X121003350Y-95331350D01*
X121023350Y-95331350D01*
X121023350Y-94456600D01*
X121159100Y-94456600D01*
X121159100Y-95172600D01*
X121277350Y-95290850D01*
X121277350Y-95331350D01*
X121317850Y-95331350D01*
X121436100Y-95449600D01*
X122152100Y-95449600D01*
X122270350Y-95331350D01*
X122310850Y-95331350D01*
X122310850Y-95290850D01*
X122429100Y-95172600D01*
X122429100Y-94456600D01*
X122446600Y-94456600D01*
X122446600Y-95172600D01*
X122564850Y-95290850D01*
X122564850Y-95331350D01*
X122605350Y-95331350D01*
X122723600Y-95449600D01*
X123439600Y-95449600D01*
X123557850Y-95331350D01*
X123598350Y-95331350D01*
X123598350Y-95290850D01*
X123716600Y-95172600D01*
X123716600Y-94456600D01*
X123734100Y-94456600D01*
X123734100Y-95172600D01*
X123852350Y-95290850D01*
X123852350Y-95331350D01*
X123892850Y-95331350D01*
X124011100Y-95449600D01*
X124727100Y-95449600D01*
X124845350Y-95331350D01*
X124885850Y-95331350D01*
X124885850Y-95290850D01*
X125004100Y-95172600D01*
X125004100Y-94456600D01*
X124885850Y-94338350D01*
X124885850Y-94297850D01*
X124845350Y-94297850D01*
X124727100Y-94179600D01*
X124011100Y-94179600D01*
X123892850Y-94297850D01*
X123852350Y-94297850D01*
X123852350Y-94338350D01*
X123734100Y-94456600D01*
X123716600Y-94456600D01*
X123598350Y-94338350D01*
X123598350Y-94297850D01*
X123557850Y-94297850D01*
X123439600Y-94179600D01*
X122723600Y-94179600D01*
X122605350Y-94297850D01*
X122564850Y-94297850D01*
X122564850Y-94338350D01*
X122446600Y-94456600D01*
X122429100Y-94456600D01*
X122310850Y-94338350D01*
X122310850Y-94297850D01*
X122270350Y-94297850D01*
X122152100Y-94179600D01*
X121436100Y-94179600D01*
X121317850Y-94297850D01*
X121277350Y-94297850D01*
X121277350Y-94338350D01*
X121159100Y-94456600D01*
X121023350Y-94456600D01*
X121023350Y-94297850D01*
X121003350Y-94297850D01*
X121003350Y-94043850D01*
X121023350Y-94043850D01*
X121023350Y-93169100D01*
X121159100Y-93169100D01*
X121159100Y-93885100D01*
X121277350Y-94003350D01*
X121277350Y-94043850D01*
X121317850Y-94043850D01*
X121436100Y-94162100D01*
X122152100Y-94162100D01*
X122270350Y-94043850D01*
X122310850Y-94043850D01*
X122310850Y-94003350D01*
X122429100Y-93885100D01*
X122429100Y-93169100D01*
X122446600Y-93169100D01*
X122446600Y-93885100D01*
X122564850Y-94003350D01*
X122564850Y-94043850D01*
X122605350Y-94043850D01*
X122723600Y-94162100D01*
X123439600Y-94162100D01*
X123557850Y-94043850D01*
X123598350Y-94043850D01*
X123598350Y-94003350D01*
X123716600Y-93885100D01*
X123716600Y-93169100D01*
X123734100Y-93169100D01*
X123734100Y-93885100D01*
X123852350Y-94003350D01*
X123852350Y-94043850D01*
X123892850Y-94043850D01*
X124011100Y-94162100D01*
X124727100Y-94162100D01*
X124845350Y-94043850D01*
X124885850Y-94043850D01*
X124885850Y-94003350D01*
X125004100Y-93885100D01*
X125004100Y-93169100D01*
X124885850Y-93050850D01*
X124885850Y-93010350D01*
X124845350Y-93010350D01*
X124727100Y-92892100D01*
X124011100Y-92892100D01*
X123892850Y-93010350D01*
X123852350Y-93010350D01*
X123852350Y-93050850D01*
X123734100Y-93169100D01*
X123716600Y-93169100D01*
X123598350Y-93050850D01*
X123598350Y-93010350D01*
X123557850Y-93010350D01*
X123439600Y-92892100D01*
X122723600Y-92892100D01*
X122605350Y-93010350D01*
X122564850Y-93010350D01*
X122564850Y-93050850D01*
X122446600Y-93169100D01*
X122429100Y-93169100D01*
X122310850Y-93050850D01*
X122310850Y-93010350D01*
X122270350Y-93010350D01*
X122152100Y-92892100D01*
X121436100Y-92892100D01*
X121317850Y-93010350D01*
X121277350Y-93010350D01*
X121277350Y-93050850D01*
X121159100Y-93169100D01*
X121023350Y-93169100D01*
X121023350Y-93010350D01*
X121003350Y-93010350D01*
X121003350Y-92756350D01*
X121023350Y-92756350D01*
X121023350Y-92736350D01*
X121277350Y-92736350D01*
X121277350Y-92756350D01*
G36*
X128226659Y-95016531D02*
X128422635Y-95097907D01*
X128451875Y-95097932D01*
X128459762Y-95105819D01*
X128430656Y-95148417D01*
X128404131Y-95279400D01*
X128404131Y-95779400D01*
X128427156Y-95901765D01*
X128459975Y-95952767D01*
X128381609Y-96031133D01*
X128353166Y-96031108D01*
X128157048Y-96112142D01*
X128136354Y-96132800D01*
X127168269Y-96132800D01*
X127168269Y-95939600D01*
X127145244Y-95817235D01*
X127143098Y-95813899D01*
X127157688Y-95741849D01*
X127191298Y-95727927D01*
X127369927Y-95549299D01*
X127466600Y-95315910D01*
X127466600Y-95285850D01*
X127307850Y-95127100D01*
X126950949Y-95127100D01*
X126831600Y-95102931D01*
X126334600Y-95102931D01*
X126334600Y-95026269D01*
X126831600Y-95026269D01*
X126953965Y-95003244D01*
X126955743Y-95002100D01*
X127307850Y-95002100D01*
X127313550Y-94996400D01*
X128206563Y-94996400D01*
X128226659Y-95016531D01*
X128226659Y-95016531D01*
G37*
X128226659Y-95016531D02*
X128422635Y-95097907D01*
X128451875Y-95097932D01*
X128459762Y-95105819D01*
X128430656Y-95148417D01*
X128404131Y-95279400D01*
X128404131Y-95779400D01*
X128427156Y-95901765D01*
X128459975Y-95952767D01*
X128381609Y-96031133D01*
X128353166Y-96031108D01*
X128157048Y-96112142D01*
X128136354Y-96132800D01*
X127168269Y-96132800D01*
X127168269Y-95939600D01*
X127145244Y-95817235D01*
X127143098Y-95813899D01*
X127157688Y-95741849D01*
X127191298Y-95727927D01*
X127369927Y-95549299D01*
X127466600Y-95315910D01*
X127466600Y-95285850D01*
X127307850Y-95127100D01*
X126950949Y-95127100D01*
X126831600Y-95102931D01*
X126334600Y-95102931D01*
X126334600Y-95026269D01*
X126831600Y-95026269D01*
X126953965Y-95003244D01*
X126955743Y-95002100D01*
X127307850Y-95002100D01*
X127313550Y-94996400D01*
X128206563Y-94996400D01*
X128226659Y-95016531D01*
G36*
X130227528Y-89022035D02*
X130227343Y-89234234D01*
X130308377Y-89430352D01*
X130329035Y-89451046D01*
X130329035Y-89667838D01*
X130233251Y-89729473D01*
X130157856Y-89839817D01*
X130131331Y-89970800D01*
X130131331Y-90470800D01*
X130154356Y-90593165D01*
X130226673Y-90705549D01*
X130337017Y-90780944D01*
X130468000Y-90807469D01*
X131020134Y-90807469D01*
X131029673Y-90830499D01*
X131208302Y-91009127D01*
X131441691Y-91105800D01*
X131582250Y-91105800D01*
X131741000Y-90947050D01*
X131741000Y-90345800D01*
X131995000Y-90345800D01*
X131995000Y-90947050D01*
X132153750Y-91105800D01*
X132294309Y-91105800D01*
X132527698Y-91009127D01*
X132706327Y-90830499D01*
X132803000Y-90597110D01*
X132803000Y-90504550D01*
X132693741Y-90395291D01*
X134979600Y-90395291D01*
X134979600Y-90535850D01*
X135138350Y-90694600D01*
X135739600Y-90694600D01*
X135739600Y-90674600D01*
X135989600Y-90674600D01*
X135989600Y-90694600D01*
X136590850Y-90694600D01*
X136749600Y-90535850D01*
X136749600Y-90395291D01*
X136653985Y-90164457D01*
X136654259Y-90164731D01*
X136850235Y-90246107D01*
X137062434Y-90246292D01*
X137258552Y-90165258D01*
X137408731Y-90015341D01*
X137490107Y-89819365D01*
X137490292Y-89607166D01*
X137409258Y-89411048D01*
X137259341Y-89260869D01*
X137063365Y-89179493D01*
X136851166Y-89179308D01*
X136655048Y-89260342D01*
X136634354Y-89281000D01*
X136416510Y-89281000D01*
X136355927Y-89186851D01*
X136245583Y-89111456D01*
X136114600Y-89084931D01*
X135614600Y-89084931D01*
X135492235Y-89107956D01*
X135379851Y-89180273D01*
X135304456Y-89290617D01*
X135277931Y-89421600D01*
X135277931Y-89973734D01*
X135254901Y-89983273D01*
X135076273Y-90161902D01*
X134979600Y-90395291D01*
X132693741Y-90395291D01*
X132644250Y-90345800D01*
X131995000Y-90345800D01*
X131741000Y-90345800D01*
X131721000Y-90345800D01*
X131721000Y-90095800D01*
X131741000Y-90095800D01*
X131741000Y-89494550D01*
X131995000Y-89494550D01*
X131995000Y-90095800D01*
X132644250Y-90095800D01*
X132803000Y-89937050D01*
X132803000Y-89844490D01*
X132706327Y-89611101D01*
X132527698Y-89432473D01*
X132294309Y-89335800D01*
X132153750Y-89335800D01*
X131995000Y-89494550D01*
X131741000Y-89494550D01*
X131582250Y-89335800D01*
X131441691Y-89335800D01*
X131213025Y-89430517D01*
X131294142Y-89235165D01*
X131294327Y-89022966D01*
X131234538Y-88878266D01*
X136952076Y-88878266D01*
X138269739Y-90195929D01*
X138409825Y-90289531D01*
X138575068Y-90322400D01*
X138753418Y-90322400D01*
X138677000Y-90506890D01*
X138677000Y-90722450D01*
X138835750Y-90881200D01*
X139585000Y-90881200D01*
X139585000Y-90861200D01*
X139839000Y-90861200D01*
X139839000Y-90881200D01*
X139859000Y-90881200D01*
X139859000Y-91135200D01*
X139839000Y-91135200D01*
X139839000Y-91155200D01*
X139585000Y-91155200D01*
X139585000Y-91135200D01*
X138835750Y-91135200D01*
X138677000Y-91293950D01*
X138677000Y-91509510D01*
X138721855Y-91617800D01*
X136516426Y-91617800D01*
X136652927Y-91481298D01*
X136749600Y-91247909D01*
X136749600Y-91107350D01*
X136590850Y-90948600D01*
X135989600Y-90948600D01*
X135989600Y-90968600D01*
X135739600Y-90968600D01*
X135739600Y-90948600D01*
X135138350Y-90948600D01*
X134979600Y-91107350D01*
X134979600Y-91247909D01*
X135076273Y-91481298D01*
X135212774Y-91617800D01*
X129227637Y-91617800D01*
X129207541Y-91597669D01*
X129011565Y-91516293D01*
X128799366Y-91516108D01*
X128603248Y-91597142D01*
X128582554Y-91617800D01*
X126905025Y-91617800D01*
X126831600Y-91602931D01*
X126293269Y-91602931D01*
X126293269Y-91563589D01*
X126696213Y-91160645D01*
X126750034Y-91160692D01*
X126946152Y-91079658D01*
X127096331Y-90929741D01*
X127177707Y-90733765D01*
X127177892Y-90521566D01*
X127127084Y-90398600D01*
X127914400Y-90398600D01*
X128079643Y-90365731D01*
X128219729Y-90272129D01*
X129613592Y-88878266D01*
X130287226Y-88878266D01*
X130227528Y-89022035D01*
X130227528Y-89022035D01*
G37*
X130227528Y-89022035D02*
X130227343Y-89234234D01*
X130308377Y-89430352D01*
X130329035Y-89451046D01*
X130329035Y-89667838D01*
X130233251Y-89729473D01*
X130157856Y-89839817D01*
X130131331Y-89970800D01*
X130131331Y-90470800D01*
X130154356Y-90593165D01*
X130226673Y-90705549D01*
X130337017Y-90780944D01*
X130468000Y-90807469D01*
X131020134Y-90807469D01*
X131029673Y-90830499D01*
X131208302Y-91009127D01*
X131441691Y-91105800D01*
X131582250Y-91105800D01*
X131741000Y-90947050D01*
X131741000Y-90345800D01*
X131995000Y-90345800D01*
X131995000Y-90947050D01*
X132153750Y-91105800D01*
X132294309Y-91105800D01*
X132527698Y-91009127D01*
X132706327Y-90830499D01*
X132803000Y-90597110D01*
X132803000Y-90504550D01*
X132693741Y-90395291D01*
X134979600Y-90395291D01*
X134979600Y-90535850D01*
X135138350Y-90694600D01*
X135739600Y-90694600D01*
X135739600Y-90674600D01*
X135989600Y-90674600D01*
X135989600Y-90694600D01*
X136590850Y-90694600D01*
X136749600Y-90535850D01*
X136749600Y-90395291D01*
X136653985Y-90164457D01*
X136654259Y-90164731D01*
X136850235Y-90246107D01*
X137062434Y-90246292D01*
X137258552Y-90165258D01*
X137408731Y-90015341D01*
X137490107Y-89819365D01*
X137490292Y-89607166D01*
X137409258Y-89411048D01*
X137259341Y-89260869D01*
X137063365Y-89179493D01*
X136851166Y-89179308D01*
X136655048Y-89260342D01*
X136634354Y-89281000D01*
X136416510Y-89281000D01*
X136355927Y-89186851D01*
X136245583Y-89111456D01*
X136114600Y-89084931D01*
X135614600Y-89084931D01*
X135492235Y-89107956D01*
X135379851Y-89180273D01*
X135304456Y-89290617D01*
X135277931Y-89421600D01*
X135277931Y-89973734D01*
X135254901Y-89983273D01*
X135076273Y-90161902D01*
X134979600Y-90395291D01*
X132693741Y-90395291D01*
X132644250Y-90345800D01*
X131995000Y-90345800D01*
X131741000Y-90345800D01*
X131721000Y-90345800D01*
X131721000Y-90095800D01*
X131741000Y-90095800D01*
X131741000Y-89494550D01*
X131995000Y-89494550D01*
X131995000Y-90095800D01*
X132644250Y-90095800D01*
X132803000Y-89937050D01*
X132803000Y-89844490D01*
X132706327Y-89611101D01*
X132527698Y-89432473D01*
X132294309Y-89335800D01*
X132153750Y-89335800D01*
X131995000Y-89494550D01*
X131741000Y-89494550D01*
X131582250Y-89335800D01*
X131441691Y-89335800D01*
X131213025Y-89430517D01*
X131294142Y-89235165D01*
X131294327Y-89022966D01*
X131234538Y-88878266D01*
X136952076Y-88878266D01*
X138269739Y-90195929D01*
X138409825Y-90289531D01*
X138575068Y-90322400D01*
X138753418Y-90322400D01*
X138677000Y-90506890D01*
X138677000Y-90722450D01*
X138835750Y-90881200D01*
X139585000Y-90881200D01*
X139585000Y-90861200D01*
X139839000Y-90861200D01*
X139839000Y-90881200D01*
X139859000Y-90881200D01*
X139859000Y-91135200D01*
X139839000Y-91135200D01*
X139839000Y-91155200D01*
X139585000Y-91155200D01*
X139585000Y-91135200D01*
X138835750Y-91135200D01*
X138677000Y-91293950D01*
X138677000Y-91509510D01*
X138721855Y-91617800D01*
X136516426Y-91617800D01*
X136652927Y-91481298D01*
X136749600Y-91247909D01*
X136749600Y-91107350D01*
X136590850Y-90948600D01*
X135989600Y-90948600D01*
X135989600Y-90968600D01*
X135739600Y-90968600D01*
X135739600Y-90948600D01*
X135138350Y-90948600D01*
X134979600Y-91107350D01*
X134979600Y-91247909D01*
X135076273Y-91481298D01*
X135212774Y-91617800D01*
X129227637Y-91617800D01*
X129207541Y-91597669D01*
X129011565Y-91516293D01*
X128799366Y-91516108D01*
X128603248Y-91597142D01*
X128582554Y-91617800D01*
X126905025Y-91617800D01*
X126831600Y-91602931D01*
X126293269Y-91602931D01*
X126293269Y-91563589D01*
X126696213Y-91160645D01*
X126750034Y-91160692D01*
X126946152Y-91079658D01*
X127096331Y-90929741D01*
X127177707Y-90733765D01*
X127177892Y-90521566D01*
X127127084Y-90398600D01*
X127914400Y-90398600D01*
X128079643Y-90365731D01*
X128219729Y-90272129D01*
X129613592Y-88878266D01*
X130287226Y-88878266D01*
X130227528Y-89022035D01*
G36*
X117307800Y-91275200D02*
X117327800Y-91275200D01*
X117327800Y-91529200D01*
X117307800Y-91529200D01*
X117307800Y-91549200D01*
X117053800Y-91549200D01*
X117053800Y-91529200D01*
X117033800Y-91529200D01*
X117033800Y-91275200D01*
X117053800Y-91275200D01*
X117053800Y-91255200D01*
X117307800Y-91255200D01*
X117307800Y-91275200D01*
X117307800Y-91275200D01*
G37*
X117307800Y-91275200D02*
X117327800Y-91275200D01*
X117327800Y-91529200D01*
X117307800Y-91529200D01*
X117307800Y-91549200D01*
X117053800Y-91549200D01*
X117053800Y-91529200D01*
X117033800Y-91529200D01*
X117033800Y-91275200D01*
X117053800Y-91275200D01*
X117053800Y-91255200D01*
X117307800Y-91255200D01*
X117307800Y-91275200D01*
G36*
X141176485Y-89283665D02*
X141182277Y-89283665D01*
X140906671Y-89559271D01*
X140897955Y-89572316D01*
X140764541Y-89438669D01*
X140568565Y-89357293D01*
X140461911Y-89357200D01*
X140461975Y-89283665D01*
X140557237Y-89283665D01*
X140557237Y-89253971D01*
X140628925Y-89283665D01*
X140731545Y-89283665D01*
X140964934Y-89186992D01*
X141022373Y-89129553D01*
X141176485Y-89283665D01*
X141176485Y-89283665D01*
G37*
X141176485Y-89283665D02*
X141182277Y-89283665D01*
X140906671Y-89559271D01*
X140897955Y-89572316D01*
X140764541Y-89438669D01*
X140568565Y-89357293D01*
X140461911Y-89357200D01*
X140461975Y-89283665D01*
X140557237Y-89283665D01*
X140557237Y-89253971D01*
X140628925Y-89283665D01*
X140731545Y-89283665D01*
X140964934Y-89186992D01*
X141022373Y-89129553D01*
X141176485Y-89283665D01*
G36*
X128043035Y-85143493D02*
X128043035Y-86347665D01*
X128075904Y-86512908D01*
X128133919Y-86599734D01*
X128169506Y-86652994D01*
X128642706Y-87126194D01*
X128782792Y-87219796D01*
X128810208Y-87225250D01*
X128814566Y-87226116D01*
X128814566Y-87445865D01*
X128837591Y-87568230D01*
X128909908Y-87680614D01*
X129020252Y-87756009D01*
X129044435Y-87760906D01*
X129044435Y-88226107D01*
X127735542Y-89535000D01*
X126188258Y-89535000D01*
X126007323Y-89354065D01*
X126019185Y-89354065D01*
X126177935Y-89195315D01*
X126177935Y-88421065D01*
X126143435Y-88421065D01*
X126143435Y-88167065D01*
X126177935Y-88167065D01*
X126177935Y-88147065D01*
X126402935Y-88147065D01*
X126402935Y-88167065D01*
X126437435Y-88167065D01*
X126437435Y-88421065D01*
X126402935Y-88421065D01*
X126402935Y-89195315D01*
X126561685Y-89354065D01*
X126641744Y-89354065D01*
X126875133Y-89257392D01*
X127053762Y-89078764D01*
X127063466Y-89055335D01*
X127065435Y-89055734D01*
X127515435Y-89055734D01*
X127637800Y-89032709D01*
X127750184Y-88960392D01*
X127825579Y-88850048D01*
X127852104Y-88719065D01*
X127852104Y-87869065D01*
X127837904Y-87793599D01*
X127850579Y-87775048D01*
X127877104Y-87644065D01*
X127877104Y-86044065D01*
X127854079Y-85921700D01*
X127836768Y-85894797D01*
X127852104Y-85819065D01*
X127852104Y-84969065D01*
X127848279Y-84948737D01*
X128043035Y-85143493D01*
X128043035Y-85143493D01*
G37*
X128043035Y-85143493D02*
X128043035Y-86347665D01*
X128075904Y-86512908D01*
X128133919Y-86599734D01*
X128169506Y-86652994D01*
X128642706Y-87126194D01*
X128782792Y-87219796D01*
X128810208Y-87225250D01*
X128814566Y-87226116D01*
X128814566Y-87445865D01*
X128837591Y-87568230D01*
X128909908Y-87680614D01*
X129020252Y-87756009D01*
X129044435Y-87760906D01*
X129044435Y-88226107D01*
X127735542Y-89535000D01*
X126188258Y-89535000D01*
X126007323Y-89354065D01*
X126019185Y-89354065D01*
X126177935Y-89195315D01*
X126177935Y-88421065D01*
X126143435Y-88421065D01*
X126143435Y-88167065D01*
X126177935Y-88167065D01*
X126177935Y-88147065D01*
X126402935Y-88147065D01*
X126402935Y-88167065D01*
X126437435Y-88167065D01*
X126437435Y-88421065D01*
X126402935Y-88421065D01*
X126402935Y-89195315D01*
X126561685Y-89354065D01*
X126641744Y-89354065D01*
X126875133Y-89257392D01*
X127053762Y-89078764D01*
X127063466Y-89055335D01*
X127065435Y-89055734D01*
X127515435Y-89055734D01*
X127637800Y-89032709D01*
X127750184Y-88960392D01*
X127825579Y-88850048D01*
X127852104Y-88719065D01*
X127852104Y-87869065D01*
X127837904Y-87793599D01*
X127850579Y-87775048D01*
X127877104Y-87644065D01*
X127877104Y-86044065D01*
X127854079Y-85921700D01*
X127836768Y-85894797D01*
X127852104Y-85819065D01*
X127852104Y-84969065D01*
X127848279Y-84948737D01*
X128043035Y-85143493D01*
G36*
X142115259Y-88005731D02*
X142311235Y-88087107D01*
X142316200Y-88087111D01*
X142316200Y-88206401D01*
X142263251Y-88240473D01*
X142187856Y-88350817D01*
X142183540Y-88372131D01*
X142129557Y-88382869D01*
X141989471Y-88476471D01*
X141989469Y-88476474D01*
X141740235Y-88725708D01*
X141740235Y-88534415D01*
X141581485Y-88375665D01*
X140783235Y-88375665D01*
X140783235Y-88121665D01*
X141581485Y-88121665D01*
X141739740Y-87963410D01*
X141790938Y-87930465D01*
X142040124Y-87930465D01*
X142115259Y-88005731D01*
X142115259Y-88005731D01*
G37*
X142115259Y-88005731D02*
X142311235Y-88087107D01*
X142316200Y-88087111D01*
X142316200Y-88206401D01*
X142263251Y-88240473D01*
X142187856Y-88350817D01*
X142183540Y-88372131D01*
X142129557Y-88382869D01*
X141989471Y-88476471D01*
X141989469Y-88476474D01*
X141740235Y-88725708D01*
X141740235Y-88534415D01*
X141581485Y-88375665D01*
X140783235Y-88375665D01*
X140783235Y-88121665D01*
X141581485Y-88121665D01*
X141739740Y-87963410D01*
X141790938Y-87930465D01*
X142040124Y-87930465D01*
X142115259Y-88005731D01*
G36*
X133258138Y-85659596D02*
X133171635Y-85659596D01*
X133049270Y-85682621D01*
X132936886Y-85754938D01*
X132861491Y-85865282D01*
X132834966Y-85996265D01*
X132834966Y-86381125D01*
X132670800Y-86312958D01*
X132458601Y-86312773D01*
X132262483Y-86393807D01*
X132112304Y-86543724D01*
X132030928Y-86739700D01*
X132030743Y-86951899D01*
X132111777Y-87148017D01*
X132261694Y-87298196D01*
X132457670Y-87379572D01*
X132669869Y-87379757D01*
X132834966Y-87311541D01*
X132834966Y-87696265D01*
X132857991Y-87818630D01*
X132930308Y-87931014D01*
X133040652Y-88006409D01*
X133081426Y-88014666D01*
X131294213Y-88014666D01*
X131294327Y-87883631D01*
X131245246Y-87764844D01*
X131273600Y-87759509D01*
X131385984Y-87687192D01*
X131461379Y-87576848D01*
X131477323Y-87498114D01*
X131510933Y-87484192D01*
X131689562Y-87305564D01*
X131786235Y-87072175D01*
X131786235Y-87042115D01*
X131627485Y-86883365D01*
X131270584Y-86883365D01*
X131151235Y-86859196D01*
X130679235Y-86859196D01*
X130679235Y-86782534D01*
X131151235Y-86782534D01*
X131273600Y-86759509D01*
X131275378Y-86758365D01*
X131627485Y-86758365D01*
X131786235Y-86599615D01*
X131786235Y-86569555D01*
X131689562Y-86336166D01*
X131510933Y-86157538D01*
X131478136Y-86143953D01*
X131464879Y-86073500D01*
X131392562Y-85961116D01*
X131282218Y-85885721D01*
X131151235Y-85859196D01*
X130501235Y-85859196D01*
X130378870Y-85882221D01*
X130266486Y-85954538D01*
X130191091Y-86064882D01*
X130175147Y-86143616D01*
X130141537Y-86157538D01*
X130132410Y-86166665D01*
X130114879Y-86073500D01*
X130042562Y-85961116D01*
X129932218Y-85885721D01*
X129908035Y-85880824D01*
X129908035Y-85857379D01*
X129941131Y-85824341D01*
X130022507Y-85628365D01*
X130022692Y-85416166D01*
X129941658Y-85220048D01*
X129913260Y-85191600D01*
X132790142Y-85191600D01*
X133258138Y-85659596D01*
X133258138Y-85659596D01*
G37*
X133258138Y-85659596D02*
X133171635Y-85659596D01*
X133049270Y-85682621D01*
X132936886Y-85754938D01*
X132861491Y-85865282D01*
X132834966Y-85996265D01*
X132834966Y-86381125D01*
X132670800Y-86312958D01*
X132458601Y-86312773D01*
X132262483Y-86393807D01*
X132112304Y-86543724D01*
X132030928Y-86739700D01*
X132030743Y-86951899D01*
X132111777Y-87148017D01*
X132261694Y-87298196D01*
X132457670Y-87379572D01*
X132669869Y-87379757D01*
X132834966Y-87311541D01*
X132834966Y-87696265D01*
X132857991Y-87818630D01*
X132930308Y-87931014D01*
X133040652Y-88006409D01*
X133081426Y-88014666D01*
X131294213Y-88014666D01*
X131294327Y-87883631D01*
X131245246Y-87764844D01*
X131273600Y-87759509D01*
X131385984Y-87687192D01*
X131461379Y-87576848D01*
X131477323Y-87498114D01*
X131510933Y-87484192D01*
X131689562Y-87305564D01*
X131786235Y-87072175D01*
X131786235Y-87042115D01*
X131627485Y-86883365D01*
X131270584Y-86883365D01*
X131151235Y-86859196D01*
X130679235Y-86859196D01*
X130679235Y-86782534D01*
X131151235Y-86782534D01*
X131273600Y-86759509D01*
X131275378Y-86758365D01*
X131627485Y-86758365D01*
X131786235Y-86599615D01*
X131786235Y-86569555D01*
X131689562Y-86336166D01*
X131510933Y-86157538D01*
X131478136Y-86143953D01*
X131464879Y-86073500D01*
X131392562Y-85961116D01*
X131282218Y-85885721D01*
X131151235Y-85859196D01*
X130501235Y-85859196D01*
X130378870Y-85882221D01*
X130266486Y-85954538D01*
X130191091Y-86064882D01*
X130175147Y-86143616D01*
X130141537Y-86157538D01*
X130132410Y-86166665D01*
X130114879Y-86073500D01*
X130042562Y-85961116D01*
X129932218Y-85885721D01*
X129908035Y-85880824D01*
X129908035Y-85857379D01*
X129941131Y-85824341D01*
X130022507Y-85628365D01*
X130022692Y-85416166D01*
X129941658Y-85220048D01*
X129913260Y-85191600D01*
X132790142Y-85191600D01*
X133258138Y-85659596D01*
G36*
X138120235Y-85222356D02*
X138120235Y-85462915D01*
X138278985Y-85621665D01*
X138842735Y-85621665D01*
X138842735Y-85601665D01*
X138918566Y-85601665D01*
X138918566Y-85895665D01*
X138842735Y-85895665D01*
X138842735Y-85875665D01*
X138278985Y-85875665D01*
X138120730Y-86033920D01*
X138045486Y-86082338D01*
X138041592Y-86088038D01*
X137982790Y-86099734D01*
X137842704Y-86193336D01*
X137286471Y-86749569D01*
X137192869Y-86889655D01*
X137167734Y-87016017D01*
X137065000Y-86973358D01*
X136852801Y-86973173D01*
X136656683Y-87054207D01*
X136656255Y-87054635D01*
X136547885Y-86946265D01*
X136403153Y-86946265D01*
X136431334Y-86934592D01*
X136609962Y-86755963D01*
X136660715Y-86633435D01*
X136706635Y-86587515D01*
X136706635Y-86455015D01*
X136660715Y-86409095D01*
X136609962Y-86286567D01*
X136431334Y-86107938D01*
X136403153Y-86096265D01*
X136547885Y-86096265D01*
X136706635Y-85937515D01*
X136706635Y-85869956D01*
X136609962Y-85636567D01*
X136431334Y-85457938D01*
X136197945Y-85361265D01*
X135707385Y-85361265D01*
X135548635Y-85520015D01*
X135548635Y-86096265D01*
X135622385Y-86096265D01*
X135548635Y-86170015D01*
X135548635Y-86343265D01*
X135294635Y-86343265D01*
X135294635Y-86170015D01*
X135274635Y-86150015D01*
X135274635Y-86096265D01*
X135294635Y-86096265D01*
X135294635Y-85520015D01*
X135135885Y-85361265D01*
X134645325Y-85361265D01*
X134411936Y-85457938D01*
X134253435Y-85616440D01*
X134253435Y-85612435D01*
X134220566Y-85447192D01*
X134126964Y-85307106D01*
X134011458Y-85191600D01*
X138132975Y-85191600D01*
X138120235Y-85222356D01*
X138120235Y-85222356D01*
G37*
X138120235Y-85222356D02*
X138120235Y-85462915D01*
X138278985Y-85621665D01*
X138842735Y-85621665D01*
X138842735Y-85601665D01*
X138918566Y-85601665D01*
X138918566Y-85895665D01*
X138842735Y-85895665D01*
X138842735Y-85875665D01*
X138278985Y-85875665D01*
X138120730Y-86033920D01*
X138045486Y-86082338D01*
X138041592Y-86088038D01*
X137982790Y-86099734D01*
X137842704Y-86193336D01*
X137286471Y-86749569D01*
X137192869Y-86889655D01*
X137167734Y-87016017D01*
X137065000Y-86973358D01*
X136852801Y-86973173D01*
X136656683Y-87054207D01*
X136656255Y-87054635D01*
X136547885Y-86946265D01*
X136403153Y-86946265D01*
X136431334Y-86934592D01*
X136609962Y-86755963D01*
X136660715Y-86633435D01*
X136706635Y-86587515D01*
X136706635Y-86455015D01*
X136660715Y-86409095D01*
X136609962Y-86286567D01*
X136431334Y-86107938D01*
X136403153Y-86096265D01*
X136547885Y-86096265D01*
X136706635Y-85937515D01*
X136706635Y-85869956D01*
X136609962Y-85636567D01*
X136431334Y-85457938D01*
X136197945Y-85361265D01*
X135707385Y-85361265D01*
X135548635Y-85520015D01*
X135548635Y-86096265D01*
X135622385Y-86096265D01*
X135548635Y-86170015D01*
X135548635Y-86343265D01*
X135294635Y-86343265D01*
X135294635Y-86170015D01*
X135274635Y-86150015D01*
X135274635Y-86096265D01*
X135294635Y-86096265D01*
X135294635Y-85520015D01*
X135135885Y-85361265D01*
X134645325Y-85361265D01*
X134411936Y-85457938D01*
X134253435Y-85616440D01*
X134253435Y-85612435D01*
X134220566Y-85447192D01*
X134126964Y-85307106D01*
X134011458Y-85191600D01*
X138132975Y-85191600D01*
X138120235Y-85222356D01*
G36*
X128927714Y-75844622D02*
X129108200Y-75919567D01*
X129108200Y-77570542D01*
X122763400Y-83915342D01*
X122763400Y-82317258D01*
X128575329Y-76505329D01*
X128603287Y-76463486D01*
X128668931Y-76365243D01*
X128682203Y-76298521D01*
X128701801Y-76200000D01*
X128701800Y-76199995D01*
X128701800Y-75618313D01*
X128927714Y-75844622D01*
X128927714Y-75844622D01*
G37*
X128927714Y-75844622D02*
X129108200Y-75919567D01*
X129108200Y-77570542D01*
X122763400Y-83915342D01*
X122763400Y-82317258D01*
X128575329Y-76505329D01*
X128603287Y-76463486D01*
X128668931Y-76365243D01*
X128682203Y-76298521D01*
X128701801Y-76200000D01*
X128701800Y-76199995D01*
X128701800Y-75618313D01*
X128927714Y-75844622D01*
M02*
