**ABCDEFGHIJKLMNOPQRSTUVWXYZabcdefghijklmnopqrstuvwxyz**************************
**PARASOLID !"#$%&'()*+,-./:;<=>?@[\]^_`{|}~0123456789**************************
**PART1;
MC=AMD64;
MC_MODEL=Intel64 Family 6 Model 58 Stepping 9, GenuineIntel;
MC_ID=unknown;
OS=Windows_NT;
OS_RELEASE=unknown;
FRU=Parasolid Version 27.0, build 207,  1-23-2015;
APPL=SOLIDWORKS 2015-2015313;
SITE=;
USER=unknown;
FORMAT=text;
GUISE=transmit;
KEY=solar_mount;
FILE=solar_mount.x_t;
DATE=Fri Sep 30 02:49:09 2016;
**PART2;
SCH=SCH_2700207_26105;
USFLD_SIZE=0;
**PART3;
**END_OF_HEADER*****************************************************************
T51 : TRANSMIT FILE created by modeller version 270020723 SCH_2700207_26105_1300
6196 0 12 30 CCCCCCCCCCCCCDI5 owner1040 0 CCCCCCCCCA13 boundary_mesh1006 0 A16 i
ndex_map_offset0 0 1 dA9 index_map82 0 A17 node_id_index_map82 0 A20 schema_embe
dding_map82 0 A5 child12 0 A14 lowest_node_id0 0 1 dZ1 4466 0 2 0 0 0 0 1e3 1e-8
 0 3 0 1 0 1 1 4 5 6 7 8 9 10 0 0 0 0 0 0 0 70 11 CI9 list_type0 0 1 uI10 notran
smit0 0 1 lCCCDCCDI12 finger_index0 0 1 dI12 finger_block1012 0 CZ2 0 4 T1 0 0 2
 20 1 11 11 13 255 4 94 0 1 0 12 0 0 13 0 51 255 5 4030 0 14 15 0 0 +.04445 .019
05 -.015875 0 1 0 .003175 0 0 1 31 255 6 3987 0 9 16 0 0 +.04445 .01905 -.015875
 0 -1 0 0 0 -1 .003175 29 255 7 3969 0 10 17 0 .041275 .01905 -.015875 19 8 CCCC
CCCA5 owner12 0 Z8 28 0 1 13 0 18 V0 16 255 9 3981 0 ?19 0 20 6 0 0 1 18 255 10
 3967 0 21 0 22 7 ?1 17 255 21 0 23 24 25 10 26 27 0 28 +18 22 3952 0 29 10 30 1
7 ?1 17 29 0 31 32 33 22 34 35 0 36 +18 30 3949 0 19 22 37 38 ?1 29 17 3954 0 22
 38 7 .0635 .01905 -.01905 29 38 3951 0 30 39 17 .04445 .01905 -.01905 29 39 393
6 0 37 40 38 .0635 .009525 -.01905 18 37 3934 0 41 30 42 39 ?1 29 40 3933 0 42 4
3 39 .04445 .009525 -.01905 18 42 3931 0 44 37 45 40 ?1 29 43 3930 0 45 46 40 .0
41275 .009525 -.015875 18 45 3928 0 47 42 48 43 ?1 29 46 3921 0 48 49 43 .066675
 .01905 -.015875 18 48 3919 0 50 45 51 46 ?1 29 49 3918 0 51 52 46 .066675 .0095
25 -.015875 18 51 3916 0 53 48 54 49 ?1 29 52 181 0 54 55 49 0 .01905 -.028575 1
8 54 179 0 56 51 57 52 ?1 29 55 173 0 57 58 52 .29845 .01905 -.028575 18 57 171
 0 59 54 60 55 ?1 29 58 160 0 60 61 55 .29845 0 -.028575 18 60 158 0 62 57 63 58
 ?1 29 61 157 0 63 64 58 0 0 -.028575 18 63 155 0 65 60 66 61 ?1 29 64 144 0 66
 67 61 .009525 .01905 -.0381 18 66 142 0 68 63 69 64 ?1 29 67 141 0 69 70 64 .28
8925 .01905 -.0381 18 69 139 0 71 66 72 67 ?1 29 70 138 0 72 73 67 .009525 0 -.0
381 18 72 136 0 74 69 75 70 ?1 29 73 135 0 75 76 70 .288925 0 -.0381 18 75 133 0
 77 72 78 73 ?1 29 76 72 0 79 80 73 .29845 0 0 18 79 63 0 81 82 83 76 ?1 29 80 7
3 0 83 84 76 0 0 0 18 83 64 0 85 79 86 80 ?1 29 84 21 0 78 87 80 .29845 .01905 0
 18 78 19 0 88 75 82 84 ?1 29 87 18 0 82 89 84 0 .01905 0 18 82 16 0 90 78 79 87
 ?1 29 89 3884 0 91 92 87 .041275 .009525 0 18 91 3837 0 93 94 95 89 ?1 29 92 38
85 0 95 96 89 .066675 .009525 0 18 95 3839 0 97 91 0 92 ?1 29 96 3888 0 86 98 92
 .041275 .01905 0 18 86 3834 0 24 83 94 96 ?1 29 98 3889 0 94 0 96 .066675 .0190
5 0 18 94 3836 0 99 86 91 98 ?1 17 99 0 100 88 50 94 101 102 0 103 +15 255 100 3
776 0 104 105 106 17 88 0 100 107 99 78 108 109 0 110 +17 50 0 100 99 36 48 111
 20 0 101 +17 101 0 112 113 103 48 99 102 0 114 -16 102 3920 0 ?99 115 116 117 0
 0 1 17 103 0 112 101 97 94 118 115 0 108 -15 112 3853 0 101 119 0 17 97 0 112 1
03 113 95 120 121 0 122 +17 118 0 123 124 108 95 103 115 0 0 +16 115 3817 0 ?118
 125 102 126 0 0 1 17 108 0 123 118 110 94 88 109 0 0 -15 123 82 0 124 127 0 17
 110 0 123 108 81 78 128 129 0 130 -16 109 3773 0 ?88 131 132 133 131 131 1 16 1
31 7 0 ?104 134 109 133 109 109 1 16 132 180 0 ?90 109 135 136 0 0 1 30 255 133
 8 0 131 136 137 0 +0 .01905 0 1 0 0 30 136 5 0 132 138 133 0 +0 .01905 0 0 0 1
 30 137 11 0 134 133 139 0 +.29845 .01905 0 0 0 -1 16 134 10 0 ?107 140 131 137
 0 0 1 30 139 14 0 140 137 141 0 +0 .01905 -.0381 -1 0 0 16 140 140 0 ?142 129 1
34 139 0 0 1 30 141 69 0 143 139 144 0 +0 0 0 0 0 1 16 143 156 0 ?85 145 146 141
 0 0 1 30 144 68 0 145 141 147 0 +0 0 0 1 0 0 16 145 53 0 ?81 148 143 144 0 0 1
 30 147 67 0 148 144 149 0 +.29845 0 0 0 0 -1 16 148 49 0 ?150 135 145 147 0 0 1
 30 149 66 0 135 147 151 0 +0 0 -.0381 -1 0 0 16 135 134 0 ?152 132 148 149 0 0
 1 30 151 88 0 129 149 153 0 +.29845 .01905 0 0 -1 0 16 129 76 0 ?128 154 140 15
1 0 0 1 30 153 89 0 154 151 155 0 +0 .01905 0 0 -1 0 16 154 77 0 ?156 157 129 15
3 0 0 1 30 155 147 0 157 153 158 0 -.009525 .01905 -.0381 0 -1 0 16 157 145 0 ?6
8 159 154 155 0 0 1 30 158 152 0 159 155 160 0 +.288925 .01905 -.0381 0 -1 0 16
 159 150 0 ?161 162 157 158 0 0 1 31 160 163 0 162 158 163 0 +.009525 0 -.028575
 0 -1 0 0 0 -1 .009525 16 162 161 0 ?74 164 159 160 0 0 1 31 163 168 0 164 160 1
65 0 +.288925 0 -.028575 0 -1 0 0 0 -1 .009525 16 164 166 0 ?62 166 162 163 0 0
 1 30 165 176 0 166 163 167 0 -.29845 .01905 -.028575 0 -1 0 16 166 174 0 ?59 16
8 164 165 0 0 1 31 167 184 0 168 165 169 0 -.009525 .01905 -.028575 0 -1 0 0 0 -
1 .009525 16 168 182 0 ?56 170 166 167 0 0 1 31 169 189 0 170 167 171 0 -.288925
 .01905 -.028575 0 -1 0 0 0 -1 .009525 16 170 187 0 ?71 172 168 169 0 0 1 30 171
 194 0 172 169 173 0 +0 .01905 -.028575 0 -1 0 16 172 192 0 ?174 175 170 171 0 0
 1 31 173 382 0 176 171 177 0 +.019939 .0047625 -.014351 0 1 0 0 0 1 .0014224 16
 176 395 0 ?178 179 180 173 0 0 1 31 177 426 0 180 173 181 0 +.149225 .0047625 -
.014351 0 1 0 0 0 1 .0014224 16 180 439 0 ?182 176 183 177 0 0 1 31 181 470 0 18
3 177 184 0 +.278511 .0047625 -.014351 0 1 0 0 0 1 .0014224 16 183 483 0 ?185 18
0 186 181 0 0 1 31 184 539 0 186 181 187 0 -.019939 .002921 -.014351 0 -1 0 0 0
 -1 .0014224 16 186 556 0 ?188 183 189 184 0 0 1 31 187 589 0 190 184 191 0 -.14
9225 .002921 -.014351 0 -1 0 0 0 -1 .0014224 16 190 606 0 ?192 193 194 187 0 0 1
 31 191 639 0 195 187 196 0 -.278511 .002921 -.014351 0 -1 0 0 0 -1 .0014224 16
 195 656 0 ?197 198 199 191 0 0 1 31 196 814 0 175 191 200 0 -.288925 .016842011
68594665 -.028575 0 -1 0 0 0 -1 .00218439999999997 16 175 811 0 ?201 202 172 196
 0 0 1 31 200 820 0 202 196 203 0 +.009525 .01905 -.028575 0 -1 0 0 0 -1 .004724
40000000021 16 202 817 0 ?204 205 175 200 0 0 1 31 203 826 0 205 200 206 0 +.288
925 .01905 -.028575 0 -1 0 0 0 -1 .00472440000000016 16 205 823 0 ?207 208 202 2
03 0 0 1 31 206 832 0 208 203 209 0 -.009525 .01684201168594665 -.028575 0 -1 0
 0 0 -1 .0021844 16 208 829 0 ?210 211 205 206 0 0 1 30 209 3924 0 211 206 212 0
 +.066675 .009525 -.015875 0 -1 0 16 211 3922 0 ?113 213 208 209 0 0 1 31 212 39
39 0 213 209 214 0 -.04445 .009525 -.015875 0 -1 0 0 0 -1 .003175 16 213 3937 0
 ?47 215 211 212 0 0 1 31 214 3945 0 215 212 216 0 -.0635 .009525 -.015875 0 -1
 0 0 0 -1 .003175 16 215 3943 0 ?41 217 213 214 0 0 1 30 216 3957 0 217 214 218
 0 +.04445 .009525 -.01905 0 -1 0 16 217 3955 0 ?219 35 215 216 0 0 1 30 218 396
3 0 35 216 220 0 -.0635 .01905 -.01905 0 -1 0 16 35 3961 0 ?29 27 217 218 0 0 1
 30 220 3972 0 27 218 16 0 -.041275 .01905 -.015875 0 -1 0 16 27 3970 0 ?21 20 3
5 220 0 0 1 31 16 3986 0 20 220 6 0 +.0635 .01905 -.015875 0 -1 0 0 0 -1 .003175
 16 20 3976 0 ?50 9 27 16 0 0 1 17 219 0 31 33 32 42 221 217 0 222 +15 31 3857 0
 33 223 0 17 33 0 31 29 219 37 222 224 0 34 +17 32 0 31 219 29 30 36 116 0 221 -
17 221 0 225 226 44 30 219 217 0 0 -17 222 0 227 47 41 42 33 224 0 0 -15 227 386
3 0 120 228 0 17 47 0 227 229 222 45 44 213 0 25 +17 41 0 227 222 120 37 53 215
 0 33 +16 224 3932 0 ?33 121 230 231 0 0 1 16 121 3917 0 ?97 232 224 233 0 0 1 1
6 230 3822 0 ?25 224 0 234 0 0 1 30 231 3878 0 224 234 233 0 +.041275 .009525 -.
01905 1 0 0 30 234 3879 0 230 117 231 0 +.041275 .009525 0 0 0 -1 30 233 3877 0
 121 231 235 0 +.066675 .009525 0 0 0 1 30 235 3876 0 232 233 236 0 +.041275 .00
9525 0 -1 0 0 16 232 3831 0 ?124 237 121 235 0 0 1 30 236 3875 0 125 235 126 0 +
.041275 .01905 0 0 -1 0 16 125 3813 0 ?93 238 115 236 0 0 1 30 126 3874 0 115 23
6 239 0 +.066675 .01905 0 0 -1 0 31 239 914 0 240 126 241 0 +.149225 0 -.028575
 0 1 0 0 0 1 .007239 16 240 891 0 ?242 243 238 239 0 0 1 31 241 913 0 238 239 24
4 0 +.149225 .01397 -.028575 0 1 0 0 0 1 .007239 16 238 894 0 ?245 240 125 241 0
 0 1 31 244 795 0 243 241 246 0 +.009525 0 -.028575 0 1 0 0 0 1 .0021844 16 243
 773 0 ?247 248 240 244 0 0 1 31 246 758 0 248 244 249 0 +.288925 0 -.028575 0 1
 0 0 0 1 .00218439999999997 16 248 733 0 ?250 251 243 246 0 0 1 31 249 683 0 199
 246 252 0 +.278511 .002921 -.014351 0 -1 0 0 0 -1 .002413 16 199 653 0 ?253 195
 251 249 0 0 1 31 252 682 0 251 249 254 0 +.278511 0 -.014351 0 -1 0 0 0 -1 .002
413 16 251 649 0 ?255 199 248 252 0 0 1 31 254 633 0 194 252 256 0 +.149225 .002
921 -.014351 0 -1 0 0 0 -1 .002413 16 194 603 0 ?257 190 198 254 0 0 1 31 256 63
2 0 198 254 258 0 +.149225 0 -.014351 0 -1 0 0 0 -1 .002413 16 198 599 0 ?259 19
4 195 256 0 0 1 31 258 583 0 189 256 260 0 +.019939 .002921 -.014351 0 -1 0 0 0
 -1 .002413 16 189 553 0 ?261 186 193 258 0 0 1 31 260 582 0 193 258 262 0 +.019
939 0 -.014351 0 -1 0 0 0 -1 .002413 16 193 549 0 ?263 189 190 260 0 0 1 31 262
 350 0 264 260 265 0 +.278511 .0047625 -.014351 0 1 0 0 0 1 .00330200000000004 1
6 264 327 0 ?266 267 179 262 0 0 1 31 265 349 0 179 262 268 0 +.278511 .01905 -.
014351 0 1 0 0 0 1 .00330200000000004 16 179 330 0 ?269 264 176 265 0 0 1 31 268
 319 0 270 265 271 0 +.149225 .0047625 -.014351 0 1 0 0 0 1 .003302 16 270 296 0
 ?272 273 267 268 0 0 1 31 271 318 0 267 268 274 0 +.149225 .01905 -.014351 0 1
 0 0 0 1 .003302 16 267 299 0 ?275 270 264 271 0 0 1 31 274 288 0 146 271 138 0
 +.019939 .0047625 -.014351 0 1 0 0 0 1 .003302 16 146 265 0 ?276 143 273 274 0
 0 1 31 138 287 0 273 274 136 0 +.019939 .01905 -.014351 0 1 0 0 0 1 .003302 16
 273 268 0 ?277 146 270 138 0 0 1 17 277 0 278 277 277 0 279 273 0 0 +15 278 275
 0 277 280 0 17 279 0 281 279 279 0 277 273 0 0 -15 281 259 0 279 105 0 14 255 1
05 1 282 ?283 284 100 4 285 -0 0 283 284 18 81 255 1 282 4432 286 105 287 0 0 28
8 289 14 283 43 288 ?290 105 291 4 292 +0 0 290 105 18 14 284 79 293 ?105 294 29
5 4 296 -0 0 105 294 18 50 255 285 2 0 105 297 292 0 +0 .01905 0 0 -1 0 0 0 -1 1
3 18 29 0 0 0 0 0 0 8 12 14 12 640 298 ?299 0 300 4 301 -0 0 299 0 18 81 1 298 4
435 286 12 302 0 293 303 304 14 299 590 303 ?305 12 306 4 307 -0 0 305 12 18 15
 300 495 0 185 12 308 51 301 505 0 12 309 307 0 +.278511 .01905 -.014351 0 -1 0
 .0014224 0 0 -1 51 309 578 0 310 311 301 0 +.019939 .002921 -.014351 0 -1 0 .00
2413 0 0 -1 51 307 461 0 299 301 312 0 +.149225 .01905 -.014351 0 -1 0 .0014224
 0 0 -1 51 312 417 0 305 307 313 0 +.019939 .01905 -.014351 0 -1 0 .0014224 0 0
 -1 14 305 540 314 ?315 299 316 4 312 -0 0 315 299 18 50 313 348 0 317 312 318 0
 +.278511 .0047625 -.014351 0 1 0 0 0 1 14 317 338 319 ?320 321 322 4 313 +0 0 3
20 321 18 51 318 346 0 321 313 323 0 +.278511 .0047625 -.014351 0 1 0 .003302000
00000004 0 0 1 14 321 333 324 ?317 325 326 4 318 -0 0 317 325 18 50 323 317 0 32
5 318 327 0 +.149225 .0047625 -.014351 0 1 0 0 0 1 14 325 307 328 ?321 329 330 4
 323 +0 0 321 329 18 51 327 315 0 329 323 331 0 +.149225 .0047625 -.014351 0 1 0
 .003302 0 0 1 14 329 302 332 ?325 333 334 4 327 -0 0 325 333 18 50 331 286 0 33
3 327 297 0 +.019939 .0047625 -.014351 0 1 0 0 0 1 14 333 276 335 ?329 280 336 4
 331 +0 0 329 280 18 51 297 284 0 280 331 285 0 +.019939 .0047625 -.014351 0 1 0
 .003302 0 0 1 14 280 271 337 ?333 338 339 4 297 -0 0 333 338 18 81 1 337 4443 2
86 280 340 0 335 341 342 14 338 227 341 ?280 290 343 4 344 +0 0 280 290 18 15 33
9 274 0 345 280 278 17 345 0 339 345 345 0 276 146 0 0 -17 276 0 346 276 276 0 3
45 146 0 0 +15 346 278 0 276 333 0 81 1 341 4444 286 338 347 0 337 348 349 14 29
0 206 348 ?338 283 350 4 351 +0 0 338 283 18 15 343 228 0 352 338 0 51 344 239 0
 338 351 353 0 +.009525 .01905 -.028575 0 -1 0 .009525 0 0 -1 51 351 218 0 290 3
54 344 0 +.288925 .01905 -.028575 0 -1 0 .009525 0 0 -1 52 255 353 849 0 355 344
 356 0 -.288925 .01684201168594665 -.028575 0 1 0 .00218439999999997 .7547095802
22775 .656059028990504 0 0 1 14 355 842 357 ?358 359 360 4 353 +0 0 358 359 18 5
2 356 862 0 358 353 15 0 -.009525 .01684201168594665 -.028575 0 1 0 .0021844 .75
4709580222778 .656059028990501 0 0 1 14 358 855 361 ?362 355 363 4 356 +0 0 362
 355 18 51 15 4009 0 364 356 5 0 +.0635 .01905 -.015875 0 1 0 .003175 0 0 1 14 3
64 3997 365 ?14 228 366 4 15 -0 0 14 228 18 81 1 365 4448 286 364 367 0 361 368
 369 14 14 4018 368 ?0 364 225 4 5 -0 0 0 364 18 14 228 3861 370 ?364 223 227 4
 371 -0 0 364 223 18 15 366 3998 0 111 364 0 17 111 0 366 34 114 22 50 20 0 0 -1
7 34 0 366 53 111 37 29 35 0 0 -17 114 0 366 111 53 48 113 211 0 0 -17 53 0 366
 114 34 51 41 215 0 113 -17 113 0 112 97 101 51 114 211 0 120 +17 120 0 227 41 1
22 51 97 121 0 0 -17 122 0 227 120 229 95 124 232 0 118 -17 229 0 227 122 47 91
 25 230 0 124 -17 124 0 123 372 118 91 122 232 0 0 +17 372 0 123 373 124 86 93 1
25 0 104 -17 373 0 123 156 372 82 104 131 0 374 -17 93 0 23 25 24 91 372 125 0 2
29 +17 104 0 100 28 90 86 373 131 0 0 +17 28 0 100 19 104 10 24 237 0 226 +17 90
 0 100 104 56 82 375 132 0 373 +17 56 0 100 90 142 54 352 168 0 375 +17 375 0 37
6 174 374 54 90 132 0 377 -15 376 84 0 375 315 0 17 174 0 376 85 375 63 377 172
 0 378 +17 374 0 376 375 85 82 156 154 0 0 -17 377 0 343 352 65 54 174 172 0 0 -
17 352 0 343 379 377 66 56 168 0 0 -17 65 0 343 377 379 63 74 162 0 174 -17 379
 0 343 65 352 72 68 157 0 0 -17 74 0 380 381 378 72 65 162 0 152 +15 380 44 0 38
1 283 0 17 381 0 380 62 74 75 152 135 0 0 -17 378 0 380 74 382 63 85 143 0 0 -17
 152 0 295 68 161 72 381 135 0 379 +15 295 78 0 383 284 0 17 68 0 295 383 152 66
 379 157 0 142 +17 161 0 295 152 383 75 384 159 0 381 +17 383 0 295 161 68 69 14
2 140 0 384 -17 384 0 350 385 77 69 161 159 0 0 -15 350 207 0 385 290 0 17 385 0
 350 386 384 57 71 170 0 0 -17 77 0 350 384 386 75 62 164 0 161 -17 386 0 350 77
 385 60 59 166 0 0 -17 62 0 380 387 381 60 77 164 0 150 +17 387 0 380 382 62 79
 150 148 0 0 -17 150 0 388 59 128 60 387 148 0 386 +15 388 80 0 150 294 0 17 59
 0 388 130 150 57 386 166 0 107 +17 128 0 388 150 130 79 110 129 0 387 +17 130 0
 388 128 59 78 107 134 0 0 -17 107 0 100 71 88 57 130 134 0 385 +17 71 0 100 142
 107 69 385 170 0 383 +17 142 0 100 56 71 66 383 140 0 352 +14 294 81 389 ?284 1
27 388 4 390 -0 0 284 127 18 81 1 389 4451 286 294 391 0 370 392 393 14 127 83 3
92 ?294 315 123 4 394 -0 0 294 315 18 50 390 91 0 294 296 394 0 +.29845 .01905 0
 -1 0 0 0 0 1 50 296 90 0 284 292 390 0 +0 .01905 -.0381 0 0 1 1 0 0 50 394 92 0
 127 390 354 0 +0 .01905 0 0 0 -1 -1 0 0 50 354 93 0 315 394 351 0 +0 .01905 0 1
 0 0 0 0 -1 14 315 85 395 ?127 305 376 4 354 -0 0 127 305 18 81 1 395 4453 286 3
15 396 0 392 397 398 80 255 1 286 399 400 9000 1 1 1 1 1 1 1 1 0 FFFFTFTFFFFFFF1
 81 1 396 4328 401 315 0 395 402 403 404 81 1 392 4452 286 127 403 0 389 395 405
 81 1 397 4454 286 406 407 0 395 408 409 82 255 1 398 2112749752 14 406 3842 397
 ?119 410 23 4 411 -0 0 119 410 18 81 1 407 4354 401 406 0 397 412 413 414 81 1
 408 4455 286 119 413 0 397 415 416 82 1 409 -2077949724 14 119 3850 408 ?223 40
6 112 4 417 -0 0 223 406 18 81 1 413 4355 401 119 0 408 407 418 419 81 1 415 445
6 286 223 418 0 408 420 421 82 1 416 -2077753116 14 223 3854 415 ?228 119 31 4 4
22 -0 0 228 119 18 81 1 418 4356 401 223 0 415 413 423 424 81 1 420 4457 286 410
 412 0 415 425 426 82 1 421 -2077556508 14 410 905 420 ?406 362 427 4 428 -0 0 4
06 362 18 81 1 412 4353 401 410 0 420 429 407 430 81 1 425 4458 286 362 429 0 42
0 431 432 82 1 426 1418789086 14 362 897 425 ?410 358 433 4 434 -0 0 410 358 18
 81 1 429 4352 401 362 0 425 435 412 436 81 1 431 4459 286 359 437 0 425 438 439
 82 1 432 1419051230 14 359 779 431 ?355 440 441 4 442 -0 0 355 440 18 81 1 437
 4349 401 359 0 431 443 444 445 81 1 438 4460 286 440 443 0 431 446 447 82 1 439
 1389232348 14 440 739 438 ?359 448 449 4 450 -0 0 359 448 18 81 1 443 4348 401
 440 0 438 451 437 452 81 1 446 4461 286 453 454 0 438 455 456 82 1 447 13852346
52 14 453 657 446 ?448 457 458 4 459 +0 0 448 457 18 81 1 454 4346 401 453 0 446
 460 451 461 81 1 455 4462 286 448 451 0 446 462 463 82 1 456 1183121625 14 448
 665 455 ?440 453 464 4 465 -0 0 440 453 18 81 1 451 4347 401 448 0 455 454 443
 466 81 1 462 4463 286 467 468 0 455 469 470 82 1 463 1175257305 14 467 607 462
 ?457 310 471 4 472 +0 0 457 310 18 81 1 468 4344 401 467 0 462 473 460 474 81 1
 469 4464 286 457 460 0 462 475 476 82 1 470 1180958937 14 457 615 469 ?453 467
 477 4 478 -0 0 453 467 18 81 1 460 4345 401 457 0 469 468 454 479 81 1 475 4465
 286 320 480 0 469 481 482 82 1 476 1171325145 14 320 557 475 ?310 317 483 4 311
 +0 0 310 317 18 81 1 480 4342 401 320 0 475 484 473 485 81 1 481 4466 286 310 4
73 0 475 0 486 82 1 482 1178796249 14 310 565 481 ?467 320 487 4 309 -0 0 467 32
0 18 81 1 473 4343 401 310 0 481 480 468 488 82 1 486 1167327449 80 1 401 0 489
 8001 0 0 0 0 3 5 0 0 0 FFFFTFTFFFFFFF2 83 255 3 488 .2 .4 .698039215686275 79 2
55 15 489 SDL/TYSA_COLOUR15 487 568 0 490 310 491 17 490 0 487 490 490 0 261 189
 0 0 -15 491 569 0 263 310 0 17 263 0 491 263 263 0 492 193 0 0 +17 492 0 493 49
2 492 0 263 193 0 0 -15 493 544 0 492 283 380 17 261 0 483 261 261 0 490 189 0 0
 +15 483 559 0 261 320 494 15 494 560 0 188 320 0 17 188 0 494 188 188 0 495 186
 0 0 +17 495 0 496 495 495 0 188 186 0 0 -15 496 538 0 495 305 0 81 1 484 4341 4
01 317 0 319 497 480 498 83 3 485 .2 .4 .698039215686275 81 1 319 4438 286 317 4
84 0 314 324 499 81 1 497 4340 401 321 0 324 500 484 501 83 3 498 .2 .4 .6980392
15686275 81 1 324 4439 286 321 497 0 319 328 502 81 1 500 4339 401 325 0 328 503
 497 504 83 3 501 .2 .4 .698039215686275 81 1 328 4440 286 325 500 0 324 332 505
 81 1 503 4338 401 329 0 332 506 500 507 83 3 504 .2 .4 .698039215686275 81 1 33
2 4441 286 329 503 0 328 335 508 81 1 506 4337 401 333 0 335 340 503 509 83 3 50
7 .2 .4 .698039215686275 81 1 335 4442 286 333 506 0 332 337 510 81 1 340 4336 4
01 280 0 337 347 506 511 83 3 509 .2 .4 .698039215686275 81 1 347 4335 401 338 0
 341 512 340 513 83 3 511 .2 .4 .698039215686275 81 1 512 4334 401 290 0 348 514
 347 515 83 3 513 .2 .4 .698039215686275 81 1 348 4445 286 290 512 0 341 357 516
 81 1 514 4333 401 283 0 288 287 512 517 83 3 515 .2 .4 .698039215686275 81 1 28
8 4433 286 283 514 0 282 293 518 81 1 287 4332 401 105 0 282 519 514 520 83 3 51
7 .2 .4 .698039215686275 81 1 519 4331 401 284 0 293 391 287 521 83 3 520 .2 .4
 .698039215686275 81 1 293 4434 286 284 519 0 288 298 522 81 1 391 4330 401 294
 0 389 403 519 523 83 3 521 .2 .4 .698039215686275 81 1 403 4329 401 127 0 392 3
96 391 524 83 3 523 .2 .4 .698039215686275 83 3 524 .2 .4 .698039215686275 82 1
 522 2111963320 82 1 518 2111045854 81 1 357 4446 286 355 444 0 348 361 525 82 1
 516 2119041208 81 1 444 4350 401 355 0 357 437 435 526 81 1 361 4447 286 358 43
5 0 357 365 527 82 1 525 1400439004 81 1 435 4351 401 358 0 361 444 429 528 82 1
 527 1401684188 83 3 528 .2 .4 .698039215686275 83 3 526 .2 .4 .698039215686275
 82 1 510 1102577879 82 1 508 1108541653 82 1 505 1106575575 82 1 502 1112473813
 81 1 314 4437 286 305 402 0 303 319 529 82 1 499 1110507735 81 1 402 4327 401 3
05 0 314 530 396 531 81 1 303 4436 286 299 530 0 298 314 532 82 1 529 1177813209
 81 1 530 4326 401 299 0 303 302 402 533 82 1 532 1179975897 81 1 302 4325 401 1
2 0 298 0 530 534 83 3 533 .2 .4 .698039215686275 83 3 534 .2 .4 .69803921568627
5 83 3 531 .2 .4 .698039215686275 50 311 580 0 320 478 309 0 +.019939 .002921 -.
014351 0 -1 0 0 0 -1 51 478 628 0 457 472 311 0 +.149225 .002921 -.014351 0 -1 0
 .002413 0 0 -1 50 472 630 0 467 465 478 0 +.149225 .002921 -.014351 0 -1 0 0 0
 -1 51 465 678 0 448 459 472 0 +.278511 .002921 -.014351 0 -1 0 .002413 0 0 -1 5
0 459 680 0 453 450 465 0 +.278511 .002921 -.014351 0 -1 0 0 0 -1 51 450 754 0 4
40 442 459 0 +.288925 0 -.028575 0 1 0 .00218439999999997 0 0 1 51 442 794 0 359
 434 450 0 +.009525 0 -.028575 0 1 0 .0021844 0 0 1 51 434 910 0 362 428 442 0 +
.149225 0 -.028575 0 1 0 .007239 0 0 1 50 428 911 0 410 411 434 0 +.149225 .0139
7 -.028575 0 1 0 0 0 1 50 411 3866 0 406 422 428 0 +.041275 .01905 0 -1 0 0 0 0
 1 50 422 3867 0 223 417 411 0 +.041275 .01905 -.01905 0 0 -1 -1 0 0 50 417 3868
 0 119 371 422 0 +.066675 .01905 0 1 0 0 0 0 -1 50 371 3870 0 228 0 417 0 +0 .00
9525 0 0 -1 0 0 0 -1 83 3 479 .2 .4 .698039215686275 15 477 618 0 535 457 536 17
 535 0 477 535 535 0 257 194 0 0 -15 536 619 0 259 457 0 17 259 0 536 259 259 0
 537 198 0 0 +17 537 0 538 537 537 0 259 198 0 0 -15 538 594 0 537 283 493 17 25
7 0 471 257 257 0 535 194 0 0 +15 471 609 0 257 467 539 15 539 610 0 192 467 0 1
7 192 0 539 192 192 0 540 190 0 0 +17 540 0 541 540 540 0 192 190 0 0 -15 541 58
8 0 540 299 0 83 3 474 .2 .4 .698039215686275 83 3 466 .2 .4 .698039215686275 15
 464 668 0 542 448 543 17 542 0 464 542 542 0 253 199 0 0 -15 543 669 0 255 448
 0 17 255 0 543 255 255 0 544 251 0 0 +17 544 0 545 544 544 0 255 251 0 0 -15 54
5 644 0 544 283 538 17 253 0 458 253 253 0 542 199 0 0 +15 458 659 0 253 453 546
 15 546 660 0 197 453 0 17 197 0 546 197 197 0 547 195 0 0 +17 547 0 308 547 547
 0 197 195 0 0 -15 308 638 0 547 12 0 83 3 461 .2 .4 .698039215686275 83 3 452 .
2 .4 .698039215686275 15 449 812 0 201 440 548 17 201 0 449 201 201 0 549 175 0
 0 +15 548 742 0 550 440 0 17 550 0 548 550 550 0 250 248 0 0 -17 250 0 551 250
 250 0 550 248 0 0 +15 551 722 0 250 283 545 17 549 0 552 549 549 0 201 175 0 0
 -15 552 844 0 549 355 0 83 3 445 .2 .4 .698039215686275 15 441 830 0 210 359 55
3 17 210 0 441 210 210 0 554 208 0 0 +15 553 782 0 555 359 0 17 555 0 553 555 55
5 0 247 243 0 0 -17 247 0 556 247 247 0 555 243 0 0 +15 556 762 0 247 283 551 17
 554 0 557 554 554 0 210 208 0 0 -15 557 857 0 554 358 0 83 3 436 .2 .4 .6980392
15686275 15 433 900 0 558 362 559 17 558 0 433 558 558 0 242 240 0 0 -15 559 901
 0 245 362 0 17 245 0 559 245 245 0 560 238 0 0 +17 560 0 427 560 560 0 245 238
 0 0 -15 427 907 0 560 410 0 17 242 0 291 242 242 0 558 240 0 0 +15 291 886 0 24
2 283 556 83 3 430 .2 .4 .698039215686275 81 1 423 4357 401 228 0 370 418 367 56
1 83 3 424 .2 .4 .698039215686275 81 1 370 4450 286 228 423 0 368 389 562 81 1 3
67 4358 401 364 0 365 423 563 564 83 3 561 .2 .4 .698039215686275 81 1 563 4359
 401 14 0 368 367 0 565 83 3 564 .2 .4 .698039215686275 81 1 368 4449 286 14 563
 0 365 370 566 83 3 565 .2 .4 .698039215686275 82 1 566 -343211804 82 1 562 -207
7359900 83 3 419 .2 .4 .698039215686275 83 3 414 .2 .4 .698039215686275 15 23 38
45 0 25 406 0 17 25 0 23 21 93 45 229 230 0 26 +17 26 0 225 44 226 45 21 27 0 0
 -15 225 4019 0 226 14 0 17 44 0 225 221 26 42 47 213 0 219 -17 226 0 225 26 221
 10 19 9 0 0 -17 19 0 100 36 28 30 226 9 0 32 +17 36 0 100 50 19 22 32 116 0 111
 +16 116 3950 0 ?36 102 237 567 0 0 1 16 237 3806 0 ?28 116 232 568 0 0 1 30 567
 3882 0 116 568 117 0 +.041275 .01905 -.01905 1 0 0 30 568 3883 0 237 0 567 0 +.
041275 .01905 0 0 0 -1 30 117 3881 0 102 567 234 0 +.066675 .01905 0 0 0 1 82 1
 405 2112487650 83 3 404 .2 .4 .698039215686275 79 14 400 SWEntUnchanged50 292 6
5 0 283 285 296 0 +0 0 0 0 -1 0 0 0 -1 82 1 393 2112225464 17 382 0 380 378 387
 83 81 145 0 156 -17 81 0 123 110 156 79 382 145 0 128 +17 156 0 123 81 373 83 3
74 154 0 0 +17 85 0 376 374 174 83 378 143 0 382 +17 24 0 23 93 21 86 28 237 0 3
72 -82 1 369 -345177884 15 363 856 0 569 358 557 17 569 0 363 569 569 0 204 202
 0 0 -17 204 0 570 204 204 0 569 202 0 0 +15 570 818 0 204 105 571 15 571 321 0
 572 105 573 17 572 0 571 572 572 0 269 179 0 0 -15 573 290 0 574 105 281 17 574
 0 573 574 574 0 275 267 0 0 -17 275 0 575 275 275 0 574 267 0 0 +15 575 306 0 2
75 329 0 17 269 0 576 269 269 0 572 179 0 0 +15 576 337 0 269 321 0 15 360 843 0
 577 355 552 17 577 0 360 577 577 0 207 205 0 0 -17 207 0 106 207 207 0 577 205
 0 0 +15 106 824 0 207 105 570 82 1 349 2121007288 82 1 342 1104543957 15 336 38
1 0 578 333 346 17 578 0 336 578 578 0 178 176 0 0 -17 178 0 316 178 178 0 578 1
76 0 0 +15 316 407 0 178 305 496 15 334 305 0 579 329 575 17 579 0 334 579 579 0
 272 270 0 0 -17 272 0 580 272 272 0 579 270 0 0 +15 580 309 0 272 325 0 15 330
 425 0 581 325 580 17 581 0 330 581 581 0 182 180 0 0 -17 182 0 306 182 182 0 58
1 180 0 0 +15 306 451 0 182 299 541 15 326 336 0 582 321 576 17 582 0 326 582 58
2 0 266 264 0 0 -17 266 0 583 266 266 0 582 264 0 0 +15 583 340 0 266 317 0 15 3
22 469 0 584 317 583 17 584 0 322 584 584 0 185 183 0 0 -17 185 0 300 185 185 0
 584 183 0 0 +82 1 304 1182138585 82 1 289 -2080309020 19 13 95 0 1 0 8 4 S0 74
 4 CI16 index_map_offset0 0 1 dCCZ20 11 2 0 0 481 563 0 0 0 0 0 0 0 0 0 0 0 0 0
 0 0 0 0 0 1 0 
